<svg xmlns="http://www.w3.org/2000/svg" width="633.684" height="338.202" viewBox="0 0 633.684 338.202" fill="none">
  <path d="M 148.981 93.945 C 148.981 95.707 147.74 99.206 149.944 100.078 C 150.556 101.756 152.626 103.401 154.428 103.191 C 156.942 102.897 156.959 100.691 157.545 98.769 C 156.054 98.065 156.766 94.977 157.352 93.777 C 158.207 92.032 159.297 91.663 159.213 89.649 C 159.129 87.636 158.677 86.813 157.604 85.152 C 157.076 84.338 156.841 83.927 156.9 83.071 C 156.942 82.442 158.316 81.863 156.925 81.36 C 157.093 80.772 157.604 80.403 158.199 80.202 C 158.668 79.296 158.744 77.953 157.763 77.391 C 156.757 75.403 160.445 72.181 162.188 71.963 C 163.311 71.829 164.978 72.626 165.984 72.961 C 167.308 73.397 168.263 74.144 169.529 74.908 C 170.493 75.487 172.177 75.688 172.42 77.257 C 172.629 78.591 171.473 79.69 171.724 80.932 C 171.9 81.813 173.04 83.608 174.079 83.717 C 174.373 83.751 175.135 83.122 175.428 83.08 C 176.132 82.979 176.803 83.331 177.423 83.088 C 178.244 82.769 180.239 81.033 180.716 80.252 C 182.635 80.722 182.853 82.702 183.691 84.355 C 184.546 86.042 185.459 87.267 186.163 88.995 C 187.077 91.227 188.518 91.059 190.211 92.015 C 191.225 92.594 194.116 93.114 193.697 94.583 C 191.954 95.095 188.937 95.145 189.13 97.729 C 190.94 97.83 192.532 97.679 194.217 97.251 C 195.742 96.857 196.22 96.865 196.731 98.417 C 197.837 101.74 194.904 102.1 192.566 102.914 C 191.879 103.149 191.275 103.82 190.588 104.005 C 189.817 104.215 189.164 103.963 188.309 104.03 C 186.616 104.164 185.166 104.878 183.49 104.81 C 181.848 104.752 180.607 104.785 179.024 105.314 C 177.708 105.75 177.331 106.421 176.191 107.302 C 174.859 108.326 171.917 110.507 171.967 112.269 C 173.669 113.217 175.06 110.306 176.694 110.121 C 177.423 108.771 179.124 108.511 180.188 108.494 C 181.253 108.485 182.334 108.603 182.334 108.989 C 182.334 110.776 179.183 109.383 179.032 111.464 C 178.948 112.68 180.264 113.519 180.876 114.409 C 182.116 114.661 182.82 114.107 183.959 114.132 C 184.161 115.097 184.186 115.902 184.839 116.557 C 186.633 116.532 188.015 113.352 189.909 113.796 C 189.993 114.166 190.002 114.87 189.901 115.231 C 188.778 115.357 188.636 115.995 187.831 116.624 C 186.976 117.295 186.214 117.345 185.309 117.731 C 183.976 118.302 180.85 119.359 180.825 121.18 C 179.032 122.145 180.138 119.938 180.389 119.25 C 180.482 119.233 180.574 119.216 180.666 119.191 C 180.834 118.293 181.998 117.975 182.811 117.866 C 182.937 117.765 183.155 117.496 183.306 117.362 C 183.113 114.543 178.613 117.496 177.557 117.933 C 175.521 118.78 171.758 119.309 170.953 121.692 C 170.551 122.891 171.9 124.234 171.247 125.299 C 170.702 126.189 168.641 126.113 167.819 126.482 C 165.221 127.665 164.006 129.436 164.015 132.272 C 164.015 133.144 164.342 134.478 163.084 134.403 C 162.892 133.111 162.741 132.037 161.526 131.265 C 160.713 131.928 160.939 133.899 161.04 134.923 C 161.199 136.601 161.224 137.004 160.671 138.556 C 159.908 140.712 157.947 142.994 156.137 144.714 C 154.453 146.317 151.218 148.75 151.629 151.452 C 152.039 154.145 152.919 157.031 153.824 159.666 C 154.193 160.748 154.889 163.189 154.059 164.154 C 150.615 163.299 150.791 157.199 148.947 154.757 C 147.523 152.87 145.386 152.593 143.039 152.601 C 141.925 152.601 140.626 152.064 139.62 152.265 C 138.69 152.458 138.405 153.348 137.626 153.96 C 137.768 154.472 137.961 155.059 138.112 155.571 C 137.156 156.419 134.827 155.462 133.637 155.244 C 132.43 155.017 131.181 154.329 130.008 154.254 C 128.449 154.153 124.067 156.427 123.874 158.189 C 123.782 158.206 123.689 158.222 123.597 158.248 C 123.203 159.456 123.53 160.891 123.212 162.149 C 122.952 163.173 122.566 164.263 122.29 165.354 C 121.946 166.73 121.687 167.15 122.29 168.584 C 122.893 170.011 122.952 171.202 123.404 172.587 C 124.008 174.458 126.245 177.637 128.03 178.04 C 129.832 178.451 133.377 177.814 134.634 176.715 C 135.924 175.573 135.614 173.669 136.645 172.452 C 137.835 171.051 139.746 171.185 141.204 171.462 C 142.184 173.963 140.668 177.268 139.788 179.542 C 139.276 180.859 138.782 181.723 139.695 183.049 C 140.433 184.123 141.95 184.492 143.039 184.492 C 143.567 184.492 144.455 184.492 145.017 184.492 C 148.981 184.492 148.645 186.984 148.025 190.105 C 147.682 191.825 147.849 193.008 148.662 194.409 C 149.19 195.316 150.481 196.264 150.657 197.363 C 151.042 197.589 151.428 197.74 151.822 198.026 C 154.537 197.254 158.266 195.492 160.059 199.016 C 161.274 199.544 161.769 198.193 162.138 197.354 C 162.665 196.163 162.733 195.836 163.814 195.03 C 164.3 194.67 164.777 194.569 165.138 194.25 C 165.49 193.948 165.825 193.344 166.177 192.958 C 166.864 192.194 167.844 191.255 168.917 191.305 C 168.884 192.983 165.883 195.995 168.917 197.061 C 171.238 197.875 170.099 195.66 170.258 194.619 C 170.35 194.015 171.532 192.203 172.236 192.245 C 172.772 192.278 173.074 193.268 173.426 193.537 C 173.954 193.94 174.574 194.074 175.202 194.242 C 176.535 194.594 177.901 195.425 179.166 195.559 C 180.599 195.71 182.04 194.72 183.457 194.737 C 185.275 194.753 185.51 196.054 186.465 197.346 C 187.915 199.301 190.446 200.543 192.038 202.33 C 193.848 204.352 196.186 205.141 198.96 205.485 C 201.926 205.845 204.105 206.517 204.918 209.604 C 205.262 210.921 205.346 212.163 205.899 213.405 C 206.552 214.865 206.762 215.242 205.362 216.341 C 204.441 217.063 202.899 217.592 202.27 218.666 C 201.826 219.421 201.683 220.679 201.432 221.619 C 203.443 221.074 206.041 217.214 208.178 217.575 C 209.578 220.419 203.535 220.092 204.935 222.013 C 205.346 222.575 207.508 222.609 208.036 222.475 C 209.125 222.181 209.955 220.914 210.809 220.285 C 212.93 218.716 214.505 218.422 216.324 220.654 C 216.868 221.317 217.178 222.189 217.807 222.794 C 218.569 223.515 219.29 223.7 220.078 224.488 C 220.421 224.832 222.056 224.161 222.391 224.161 C 224.578 224.161 226.665 223.372 228.709 225.109 C 229.48 225.755 229.732 226.678 230.427 227.349 C 231.014 227.92 232.69 228.398 233.084 228.985 C 234.089 230.479 233.168 233.877 232.455 235.236 C 231.466 237.107 230.176 238.836 228.961 240.514 C 227.285 242.829 226.019 244.969 226.019 247.922 C 226.019 249.265 226.019 250.699 225.894 251.958 C 225.726 253.518 225.734 255.264 225.533 256.732 C 225.357 258.007 224.301 259.383 223.882 260.692 C 223.422 262.102 222.927 263.637 221.779 264.619 C 219.944 266.188 215.888 265.315 214.614 267.765 C 212.661 268.05 209.93 270.433 208.413 271.801 C 207.038 273.034 207.692 272.917 208.17 274.444 C 208.505 275.501 208.321 276.583 208.17 277.674 C 207.776 280.35 205.915 282.935 204.089 284.646 C 203.016 285.645 202.656 287.021 201.809 288.162 C 201.172 289.017 200.46 289.521 199.597 290.226 C 198.759 290.897 197.577 292.642 196.329 292.39 C 195.004 292.122 194.887 290.133 193.027 290.435 C 190.479 290.846 194.301 294.387 194.837 295.881 C 193.739 296.569 193.63 298.356 192.205 299.195 C 190.965 299.925 189.524 300.059 188.242 300.512 C 186.608 301.091 185.468 301.578 184.772 303.155 C 184.219 304.422 184.085 305.429 182.342 305.596 C 181.504 305.68 181.362 305.177 180.532 305.504 C 179.753 305.815 179.459 306.201 179.325 306.956 C 179.04 308.575 181.043 308.969 180.775 310.219 C 180.515 311.47 178.353 311.688 178.135 313.181 C 177.892 314.842 178.571 315.606 176.225 315.74 C 175.311 316.856 175.596 318.887 176.359 320.011 C 176.954 320.883 178.571 321.429 178.638 322.536 C 178.722 323.988 176.493 325.095 175.856 326.127 C 175.47 326.757 175.395 327.512 175.043 328.107 C 174.716 328.661 173.937 329.215 173.551 329.861 C 172.713 330.255 173.09 331.371 172.889 332.235 C 172.571 333.595 171.942 333.301 171.238 334.249 C 170.534 335.206 170.451 338.62 168.456 338.159 C 168.414 336.967 167.811 335.357 166.747 334.585 C 165.867 333.947 163.386 334.182 163.839 332.596 C 164.769 332.193 164.735 329.265 164.802 328.267 C 164.836 327.68 164.576 326.656 164.802 326.111 C 165.004 325.632 165.791 325.431 165.925 325.087 C 167.015 322.31 162.129 322.008 160.897 320.799 C 161.132 320.699 161.308 320.405 161.651 320.296 C 161.593 319.407 161.836 318.14 162.967 318.375 C 163.612 320.615 164.844 319.986 165.129 317.98 C 165.54 315.17 165.95 312.032 165.423 309.255 C 165.18 307.979 164.761 306.679 164.962 305.286 C 165.171 303.868 165.64 302.803 165.624 301.317 C 165.582 298.247 166.445 296.283 167.484 293.397 C 168.54 290.452 168.716 287.709 169.21 284.663 C 169.722 281.525 169.236 278.488 170.04 275.367 C 170.694 272.816 170.736 270.19 170.736 267.438 C 170.736 264.686 171.238 262.093 171.23 259.341 C 171.23 256.505 169.763 254.76 167.769 252.923 C 165.9 251.194 163.353 250.322 161.442 248.803 C 159.506 247.268 159.33 243.417 158.467 241.168 C 157.403 238.408 156.338 235.605 155.174 232.904 C 154.319 230.924 151.771 228.297 153.255 226.15 C 153.732 225.931 154.176 225.571 154.528 225.134 C 154.378 223.188 152.777 222.458 153.062 220.344 C 153.338 218.271 154.16 216.862 155.475 215.175 C 155.475 215.1 155.442 215.049 155.358 215.033 C 156.716 212.725 159.171 209.814 159.171 206.961 C 159.171 206.29 159.498 205.308 159.498 204.645 C 159.498 202.523 158.425 199.444 156.397 198.663 C 154.378 197.883 154.729 199.494 153.104 199.863 C 151.989 200.115 150.774 198.605 149.299 199.175 C 148.252 198.579 147.011 197.791 145.964 196.868 C 144.43 197.824 143.634 193.126 142.955 192.304 C 142.176 191.355 141.078 190.072 140.232 189.442 C 139.025 188.545 137.642 188.117 136.36 187.118 C 135.883 186.749 135.329 186.128 134.751 185.809 C 133.804 185.281 132.773 185.642 131.776 185.356 C 130.452 184.979 130.033 183.72 128.935 183.209 C 127.335 182.453 126.287 183.469 124.888 183.67 C 123.371 183.888 122.684 182.906 121.519 182.378 C 119.072 181.262 116.91 179.936 114.446 178.82 C 111.999 177.721 109.669 176.219 108.882 173.577 C 108.153 171.135 107.516 169.247 106.158 167.007 C 103.728 163.005 100.158 160.018 97.853 155.731 C 97.108 154.346 95.784 149.53 93.655 149.975 C 91.25 150.478 94.057 155.227 94.644 156.226 C 95.75 158.097 96.647 160.135 97.904 162.048 C 98.792 163.399 101.658 166.235 101.39 167.771 C 99.982 167.88 98.113 165.983 97.292 164.985 C 96.144 163.584 96.278 161.805 94.971 160.354 C 94.233 159.531 93.864 159.372 93.487 158.374 C 93.119 157.392 93.328 156.578 92.834 155.722 C 92.44 155.034 91.887 154.363 91.459 153.616 C 91.032 152.87 90.864 151.955 90.177 151.267 C 89.842 150.94 89.993 149.169 89.85 148.792 C 89.54 147.986 88.979 146.954 88.241 146.434 C 87.797 146.115 86.993 146.224 86.666 145.998 C 86.138 145.62 86.314 145.125 85.928 144.79 C 84.512 143.54 83.515 142.659 82.208 141.232 C 80.657 139.546 80.884 137.583 79.484 136.039 C 78.579 135.04 77.951 135.04 77.465 133.765 C 77.138 132.926 77.062 131.877 76.769 130.996 C 75.931 128.462 75.504 126.122 76.015 123.521 C 76.534 120.911 75.772 118.344 76.015 115.592 C 76.14 114.174 76.015 112.664 77.431 112.32 C 78.068 112.16 78.101 113.276 78.956 112.664 C 79.392 112.353 79.425 111.363 79.291 110.801 C 78.696 108.2 77.196 106.723 75.294 105.347 C 74.188 104.542 73.224 104.039 71.85 103.661 C 69.495 103.023 70.61 102.654 70.207 100.892 C 69.679 98.585 68.322 100.607 67.224 99.609 C 66.394 98.845 67.911 97.838 67.433 96.714 C 66.922 95.506 65.833 95.682 65.615 94.146 C 65.456 93.047 66.084 91.864 65.456 90.631 C 64.358 88.458 61.484 88.567 60.126 86.671 C 59.732 86.125 59.229 85.605 58.97 85.345 C 58.215 84.59 58.098 82.014 56.699 81.737 C 55.09 83.214 53.246 80.982 51.964 80.42 C 51 79.992 49.953 80.21 48.939 79.85 C 48.059 79.539 47.64 79.011 46.617 78.725 C 44.698 78.205 43.315 77.5 41.304 77.081 C 40.03 76.812 37.709 77.014 37.315 75.126 C 35.874 75.26 33.846 74.262 32.891 75.931 C 31.944 77.576 33.536 78.49 31.432 79.573 C 30.016 80.303 28.608 80.101 28.927 78.247 C 29.254 76.351 31.198 76.334 29.103 74.631 C 27.971 74.899 26.865 75.495 26.488 76.628 C 26.295 77.215 26.605 77.903 26.337 78.457 C 26.094 78.952 25.374 79.388 25.105 79.866 C 24.586 80.781 24.443 81.956 23.656 82.878 C 22.776 83.902 21.485 84.338 20.354 84.934 C 18.535 85.891 9.393 93.702 7.792 91.973 C 9.393 89.884 12.309 89.683 14.253 88.005 C 15.644 86.805 19.256 83.373 17.22 81.897 C 16.189 81.15 14.63 82.023 13.382 81.763 C 11.982 81.469 10.926 80.68 9.786 79.782 C 9.326 79.422 9.083 78.918 8.479 78.75 C 7.817 78.566 7.239 79.128 6.543 78.935 C 5.345 78.599 4.566 77.123 4.147 76.124 C 3.527 74.648 3.292 73.708 4.39 72.483 C 5.58 71.157 6.166 71.283 7.658 70.99 C 8.814 70.763 9.636 70.033 10.507 69.211 C 12.074 67.742 11.697 67.398 11.756 65.402 C 10.113 64.697 10.08 65.637 8.764 66.325 C 7.541 66.971 6.543 66.568 5.186 66.157 C 4.029 65.813 3.175 65.553 2.337 64.714 C 1.993 64.37 1.993 63.824 1.591 63.514 C 1.331 63.312 0.107 63.044 0.099 63.027 C -0.504 61.869 1.817 61.752 2.546 61.408 C 3.803 60.821 3.937 60.46 5.513 61.072 C 6.493 61.458 7.549 62.398 8.739 62.121 C 9.451 61.953 10.692 60.653 11.404 60.124 C 11.119 59.671 10.876 59.21 10.608 58.79 C 8.873 58.178 7.457 58.127 5.814 57.146 C 5.001 56.659 2.554 54.88 3.074 53.832 C 3.837 53.42 4.515 52.758 5.236 52.363 C 6.133 51.868 7.172 51.516 7.993 50.954 C 8.823 50.383 9.418 49.846 10.323 49.351 C 11.287 48.823 12.409 48.655 13.449 48.177 C 13.985 47.933 14.228 47.598 14.731 47.329 C 15.183 47.086 15.736 46.943 16.248 46.708 C 17.471 46.154 17.806 45.903 18.938 45.844 C 19.742 45.802 20.915 45.307 21.67 45.416 C 22.072 45.475 22.583 46.213 23.027 46.381 C 23.614 46.599 24.217 46.448 24.846 46.532 C 25.524 46.624 26.421 46.691 26.991 47.035 C 27.393 47.279 27.494 48.067 27.938 48.235 C 29.337 48.781 30.427 47.077 31.784 47.195 C 32.949 47.296 34.24 48.479 35.572 48.697 C 37.081 48.94 38.731 48.89 40.19 49.024 C 40.852 49.091 41.832 49.007 42.503 49.192 C 43.198 49.385 43.165 49.746 43.693 49.98 C 45.201 50.652 46.676 50.618 48.285 50.845 C 50.874 51.222 53.841 53.127 56.204 52.993 C 56.204 53.269 56.112 53.857 56.204 54.478 C 56.33 55.342 56.531 57.162 57.478 57.657 C 59.271 58.589 59.011 56.407 58.877 55.434 C 58.701 54.142 57.922 53.513 57.486 52.531 C 57.344 52.204 56.766 51.491 57.143 51.121 C 57.78 50.509 58.299 51.91 58.886 51.969 C 59.799 52.061 64.031 48.093 64.626 49.502 C 65.414 51.365 59.028 51.533 60.352 54.108 C 61.4 54.343 62.925 53.437 63.671 53.026 C 65.012 52.279 66.235 51.147 67.66 50.534 C 67.894 50.249 69.21 49.611 69.906 49.393 C 70.417 49.234 70.559 48.906 71.221 49.016 C 72.043 49.158 71.791 49.62 72.361 49.855 C 74.439 50.719 76.576 49.796 78.856 49.997 C 80.724 50.165 82.216 51.214 83.968 51.658 C 84.898 51.893 86.255 52.481 87.202 52.33 C 88.149 52.179 88.66 51.365 89.674 51.356 C 90.521 52.841 92.624 51.331 91.971 53.773 C 91.845 54.234 91.057 54.352 91.191 55.132 C 91.367 56.198 92.071 55.971 92.976 56.122 C 94.434 56.365 96.052 56.542 97.46 56.625 C 98.834 56.709 99.99 57.305 101.398 57.305 C 101.658 58.144 101.784 59.31 102.538 59.797 C 103.837 60.644 104.482 59.839 104.566 58.597 C 104.675 56.986 103.644 56.735 105.194 55.828 C 106.049 55.317 107.44 55.686 107.348 54.167 C 107.222 54.083 106.904 53.873 106.845 53.84 C 106.158 53.806 105.437 53.806 104.75 53.84 C 105.069 54.268 105.63 54.746 105.53 55.442 C 105.094 55.367 102.957 54.36 102.982 53.781 C 103.016 53.11 106.359 52.355 107.021 52.363 C 107.407 53.244 108.982 53.546 109.804 54.192 C 110.75 54.931 111.79 55.644 113.114 55.493 C 113.776 56.558 117.773 56.189 119.055 55.971 C 120.815 55.669 122.181 54.469 124.008 54.167 C 124.536 55.602 125.994 55.51 127.31 55.442 C 128.022 54.687 131.022 51.298 130.603 50.383 C 129.664 48.302 125.944 51.39 126.346 47.707 C 126.589 45.492 129.447 44.233 131.097 45.727 C 131.651 46.222 132.505 47.883 132.505 48.403 C 132.505 49.25 131.014 50.408 133.268 50.375 C 133.402 50.929 133.771 51.273 133.98 51.793 C 134.19 52.313 134.198 53.118 134.441 53.655 C 135.338 55.661 136 53.899 136.938 52.791 C 139.687 49.569 139.587 55.786 141.522 57.162 C 141.472 57.305 141.43 57.439 141.388 57.582 C 142.872 56.651 144.263 55.568 145.52 54.352 C 145.226 53.739 145.226 52.967 145.587 52.338 C 144.112 50.131 148.855 51.482 149.76 51.197 C 149.852 51.91 150.221 52.036 150.523 52.674 C 150.925 53.546 150.917 53.538 150.816 54.486 C 150.749 55.082 150.472 55.744 150.648 56.432 C 150.766 56.894 151.486 57.456 151.57 57.993 C 152.039 61.047 146.374 60.787 144.363 61.123 C 143.911 63.312 147.271 65.871 149.266 65.586 C 150.179 66.534 152.048 66.987 152.551 68.54 C 153.464 71.359 150.883 69.303 149.827 68.825 C 147.363 67.692 148.26 69.823 146.316 70.855 C 145.101 71.501 142.143 70.427 142.386 68.724 C 145.528 68.363 143.701 63.673 141.899 62.876 C 141.011 62.482 138.874 61.987 138.103 62.943 C 136.989 64.328 139.587 65.351 140.584 64.957 C 141.556 66.224 139.318 67.029 138.388 67.323 C 136.771 67.835 135.43 67.34 134.232 68.623 C 133.293 69.63 133.452 70.897 132.748 72.03 C 131.843 73.507 130.352 74.044 129.514 75.629 C 128.634 77.291 127.662 77.962 127.662 79.933 C 127.662 81.511 127.988 82.249 129.304 82.904 C 130.963 83.734 130.93 83.231 131.458 85.211 C 131.592 85.731 131.701 86.478 132.07 86.906 C 132.832 87.778 132.874 87.308 133.762 87.518 C 136.276 88.122 137.969 89.112 139.997 90.505 C 142.218 92.032 144.481 92.812 147.799 92.812 C 148.319 92.812 148.947 93.366 148.947 93.97 L 148.981 93.945 Z M 143.316 40.709 C 143.668 40.357 144.087 40.239 144.204 40.558 C 144.263 40.726 143.877 40.684 143.718 40.76 C 143.793 41.733 143.433 44.2 145 43.839 C 145.604 42.454 145.671 41.414 145.025 40.239 C 144.238 38.796 143.425 38.771 142.059 38.234 C 140.961 38.872 138.355 40.03 137.626 41.213 C 136.628 42.849 137.626 44.594 138.38 45.886 C 139.335 47.505 139.067 49.276 141.43 49.318 C 142.444 49.334 143.483 48.697 144.573 48.655 C 145.604 48.621 146.752 49.276 147.799 48.839 C 148.956 50.039 151.134 48.965 152.5 49.016 C 153.9 49.066 154.864 49.938 156.255 50.14 C 158.702 50.492 162.515 50.392 164.383 52.246 C 165.766 53.613 164.585 53.731 164.342 55.098 C 163.872 57.683 165.984 54.922 166.981 55.082 C 168.674 55.359 167.559 57.649 168.498 58.53 C 169.688 59.654 171.364 57.976 172.143 59.847 C 172.772 61.358 171.699 61.802 170.308 61.836 C 169.872 59.797 165.959 60.359 165.364 61.903 C 164.953 62.96 166.269 63.556 165.339 64.185 C 164.61 64.68 162.129 64.269 161.199 64.386 C 158.098 64.772 157.83 67.533 161.367 67.164 C 162.372 67.063 163.177 66.215 164.14 66.199 C 165.272 66.174 165.909 67.617 167.283 67.357 C 167.518 67.91 168.171 67.994 168.775 67.852 C 168.456 69.53 169.889 69.832 171.213 70.167 C 171.372 70.729 171.129 71.594 171.557 71.929 C 172.152 72.407 173.074 71.778 173.752 71.954 C 174.825 72.231 176.434 72.835 177.549 73.448 C 178.353 73.884 179.853 75.52 180.348 74.438 C 180.75 73.557 179.082 72.475 178.998 71.652 C 177.456 70.914 174.993 70.285 174.75 68.355 C 175.06 68.229 175.512 68.246 175.856 68.355 C 176.401 69.563 178.613 70.067 179.375 71.443 C 183.473 71.56 180.281 67.734 179.384 66.484 C 178.613 65.402 178.118 64.823 177.029 63.917 C 176.283 63.287 175.42 62.574 175.739 61.425 C 176.183 61.416 176.526 61.148 177.004 61.207 C 177.213 58.824 180.507 60.653 181.454 61.4 C 182.3 62.071 185.359 64.437 184.655 61.265 C 186.239 60.527 187.814 59.94 185.501 58.547 C 184.747 58.094 184.035 58.253 183.264 57.943 C 182.292 57.548 182.124 56.844 181.303 56.281 C 179.828 55.283 176.778 55.61 175.68 54.469 C 174.054 52.791 177.247 51.927 176.208 50.182 C 174.808 50.098 174.305 48.823 173.082 48.328 C 171.741 47.791 170.937 48.336 169.789 47.312 C 169.37 46.935 169.42 46.205 168.984 46.02 C 168.339 45.743 167.325 46.272 166.613 46.071 C 165.666 45.802 164.953 44.644 164.308 44.091 C 163.353 43.277 162.003 42.429 160.721 42.219 C 160.118 42.127 159.305 41.917 158.735 42.219 C 158.065 42.572 158.266 43.159 157.746 43.554 C 156.246 44.686 155.283 43.495 153.959 43.218 C 152.366 42.891 151.939 43.914 151.646 41.733 C 151.47 40.416 152.115 38.838 150.456 38.578 C 149.416 38.419 147.925 39.568 146.886 39.778 C 146.374 40.944 145.612 42.119 145.704 43.394 C 145.788 44.653 147.104 45.844 146.634 47.329 C 145.914 47.388 145.26 47.455 144.849 47.052 C 143.81 46.817 143.131 43.646 143.064 42.396 C 143.014 41.506 142.989 41.078 143.332 40.726 L 143.316 40.709 Z M 172.588 27.839 C 172.127 27.998 171.951 28.275 172.118 28.804 C 173.903 29.592 174.884 31.941 177.222 31.816 C 178.512 31.749 179.996 31.002 181.345 30.817 C 182.971 30.599 184.253 30.398 185.954 30.482 C 186.784 30.524 187.622 30.44 188.451 30.482 C 189.147 30.515 190.555 30.138 191.049 30.305 C 192.273 30.717 192.926 32.445 193.672 33.309 C 194.468 34.232 195.407 35.046 196.153 36.162 C 196.706 36.984 197.141 38.058 197.795 38.796 C 198.692 39.811 199.58 39.979 199.831 41.548 C 199.949 42.295 199.312 45.618 200.326 45.71 C 201.784 45.844 200.577 42.253 202.932 43.243 C 204.072 43.721 204.466 45.844 203.829 46.717 C 203.091 47.723 201.382 47.421 201.507 48.957 C 202.656 49.762 206.661 49.343 205.815 51.994 C 205.513 52.934 204.156 52.665 204.315 53.941 C 204.474 55.191 206.125 55.199 205.907 56.726 C 204.709 56.802 202.119 57.02 202.186 58.706 C 203.033 58.815 203.787 58.362 204.566 58.253 C 205.002 59.151 204.516 61.341 204.164 62.222 C 203.954 62.742 203.184 62.591 203.125 63.363 C 203.041 64.395 203.896 64.244 204.29 64.688 C 205.186 65.712 204.968 66.87 205.605 68.128 C 206.091 69.085 206.812 70.285 207.491 71.141 C 208.346 72.206 209.502 73.288 210.566 74.245 C 211.656 75.235 212.871 75.369 214.027 76.099 C 214.899 76.653 215.419 78.784 216.164 78.935 C 217.136 79.128 219.374 76.569 219.81 75.973 C 221.083 74.245 219.893 72.122 220.866 70.352 C 221.243 69.655 222.097 69.27 222.449 68.498 C 223.036 67.206 222.91 66.912 223.941 65.855 C 225.072 64.688 226.355 62.717 227.938 62.087 C 228.86 61.727 230.05 61.878 231.031 61.559 C 232.07 61.215 233.008 60.477 233.981 60.04 C 233.922 58.631 235.095 58.522 235.665 57.431 C 235.908 56.961 235.472 56.441 235.866 55.979 C 236.277 55.501 236.696 55.904 237.157 55.61 C 238.347 54.855 238.933 54.05 240.45 53.748 C 241.531 53.538 242.671 53.412 243.743 53.286 C 246.618 52.967 248.218 52.833 250.841 51.465 C 252.274 50.71 256.054 50.786 256.976 49.326 C 255.953 48.252 252.752 49.209 251.302 48.672 C 249.894 48.151 250.272 48.185 250.682 47.01 C 250.967 46.196 251.403 46.163 251.202 44.888 C 252.568 44.309 253.431 43.998 254.504 44.829 C 255.442 45.559 255.769 47.354 257.587 46.482 C 257.73 45.953 257.789 45.458 257.755 44.888 C 256.632 44.191 255.853 43.302 254.512 42.874 C 252.786 42.32 251.579 42.773 249.71 42.681 C 249.836 41.842 250.582 40.785 250.07 39.853 C 249.568 38.931 248.185 39.216 248.554 37.613 C 249.735 37.018 251.277 37.311 252.467 37.395 C 252.727 34.324 255.098 35.524 257.252 35.298 C 257.504 36.455 259.481 37.966 260.579 38.234 C 261.56 36.95 259.85 36.757 260.076 35.935 C 260.319 35.063 262.456 35.012 263.194 35.256 C 263.278 34.777 263.269 34.123 263.194 33.645 C 262.213 33.854 262.44 33.2 262.062 32.957 C 261.878 32.839 261.409 32.478 261.065 32.26 C 260.319 31.79 259.037 31.723 259.113 30.666 C 259.892 30.465 261.04 30.154 261.593 29.483 C 260.512 28.946 259.188 29.282 258.124 28.627 C 257.227 25.447 263.906 27.914 265.171 26.379 C 264.057 26.001 262.909 26.253 261.878 25.523 C 260.839 24.785 261.023 22.998 260.093 22.687 C 259.297 21.194 260.906 21.202 261.685 20.606 C 262.532 19.952 262.641 19.063 263.361 18.215 C 264.057 17.401 266.068 16.772 264.032 16.101 C 263.219 15.832 261.174 16.411 262.372 14.742 C 262.825 14.112 264.794 13.525 265.515 13.441 C 265.993 13.391 266.864 13.852 267.459 13.634 C 268.138 13.382 268.205 12.787 268.775 12.426 C 270.669 11.234 273.267 11.075 275.353 10.32 C 275.161 9.313 272.99 9.397 272.11 9.17 C 271.524 9.019 271.314 8.65 270.761 8.633 C 270.074 8.608 269.32 8.994 268.632 9.162 C 267.359 9.481 266.043 9.917 264.685 10.194 C 263.319 10.463 262.155 9.942 260.889 10.161 C 260.261 10.27 259.599 10.748 258.911 10.832 C 257.47 11 257.864 10.605 257.252 10.001 C 256.029 8.793 256.121 8.852 254.286 9.019 C 251.084 9.305 247.9 9.238 244.833 9.993 C 243.123 10.412 238.942 13.928 236.989 12.61 C 234.316 10.807 241.221 9.187 242.21 8.818 C 243.408 8.365 245.051 8.105 246.224 7.744 C 247.741 7.274 248.646 6.343 250.313 6.335 C 252.61 6.318 256.23 7.291 258.199 5.512 C 258.526 5.219 258.819 4.959 258.987 4.547 C 258.023 4.111 256.85 4.875 255.886 5.009 C 254.604 5.194 253.112 5.084 251.822 5.017 C 251.637 4.153 252.668 3.49 252.14 2.844 C 251.696 2.299 250.112 2.601 249.492 2.567 C 247.447 2.45 245.838 2.492 243.877 3.029 C 240.768 3.876 237.064 5.068 234.006 3.692 C 233.997 1.535 237.777 2.66 237.743 0.772 C 235.757 0.671 233.838 0.419 232.003 0.243 C 230.193 0.067 227.008 -0.461 225.76 0.956 C 224.947 1.879 225.6 2.408 224.075 2.567 C 223.011 2.676 222.324 2.123 221.444 1.745 C 220.832 1.485 219.441 0.747 218.796 0.789 C 217.832 0.856 217.229 1.921 216.198 2.215 C 215.125 0.755 214.564 0.47 213.064 1.124 C 212.15 1.519 210.726 2.383 211.404 3.532 C 212.661 3.885 212.611 3.037 213.516 2.886 C 214.279 2.76 215.209 3.247 215.804 3.591 C 215.821 3.683 215.838 3.776 215.863 3.868 C 216.013 3.91 216.148 3.885 216.307 3.918 C 216.391 4.472 216.508 5.017 216.642 5.521 C 214.363 6.083 211.74 5.689 209.36 6.049 C 208.304 6.209 206.041 5.949 205.103 6.368 C 204.13 6.796 204.114 8.172 203.502 8.826 C 203.024 8.39 202.848 7.534 202.312 7.199 C 201.005 6.385 201.474 7.165 200.493 7.694 C 199.253 8.365 196.664 8.474 195.206 8.482 C 194.795 8.482 193.404 7.727 192.893 8.18 C 192.172 8.81 193.379 9.238 193.111 10.009 C 192.423 11.99 189.163 9.749 191.854 8.852 C 190.404 8.172 189.415 9.556 188.736 10.429 C 187.68 11.797 186.918 12.132 185.267 12.778 C 183.046 13.642 178.713 14.213 177.565 16.42 C 179.166 16.973 180.85 15.379 182.35 15.79 C 183.976 16.243 182.702 17.687 181.982 18.559 C 181.127 19.608 180.046 20.648 178.705 20.917 C 177.557 21.143 177.23 20.866 176.225 21.538 C 175.529 22.007 175.11 22.737 174.297 23.031 C 172.923 21.546 170.174 23.467 169.194 24.516 C 170.736 24.843 172.169 24.718 173.467 25.162 C 174.071 25.364 174.683 25.791 175.403 25.708 C 176.174 25.624 176.711 24.885 177.549 25.036 C 179.669 25.414 178.705 26.79 177.297 27.218 C 176.568 27.444 176.015 27.428 175.236 27.511 C 174.842 27.553 174.079 27.621 173.635 27.679 C 173.434 27.704 172.747 27.788 172.588 27.847 L 172.588 27.839 Z M 550.39 117.069 C 548.286 114.963 547.909 119.485 547.884 120.349 C 547.431 120.92 547.046 121.599 546.124 121.725 C 546.082 122.438 546.233 123.302 546.099 124.007 C 545.94 124.813 545.563 125.215 545.471 125.962 C 545.856 126.298 547.582 126.382 547.901 126.172 C 549.015 125.434 548.462 124.251 550.398 124.167 C 550.725 124.15 551.546 124.544 551.747 124.469 C 552.527 124.158 551.906 123.873 552.367 123.512 C 552.812 123.151 554.328 122.463 554.496 122.052 C 554.337 122.002 554.194 122.061 554.043 122.002 C 554.496 121.23 554.915 120.399 555.158 119.577 C 554.353 119.216 553.624 119.695 552.745 119.544 C 551.982 119.409 551.513 118.973 550.893 118.554 C 550.44 118.252 550.641 117.303 550.398 117.069 L 550.39 117.069 Z M 544.943 130.459 C 544.012 131.6 543.971 133.95 543.174 135.3 C 542.638 136.207 540.979 138.422 539.521 138.036 C 539.705 137.566 539.655 136.987 539.663 136.593 C 538.968 136.861 538.557 137.507 537.702 137.599 C 538.582 139.806 533.169 139.823 531.945 140.88 C 530.998 141.702 530.143 142.524 529.238 143.33 C 529.004 143.531 528.685 143.347 528.4 143.649 C 528.199 143.858 528.434 144.412 528.291 144.53 C 527.839 144.916 527.755 145.226 526.984 145.201 C 526.917 146.183 528.635 146.493 527.646 147.533 C 527.73 148.674 528.853 149.606 527.973 150.755 C 528.409 150.965 528.903 150.999 529.356 150.772 C 529.372 150.864 529.121 151.502 529.146 151.603 C 531.786 151.426 531.141 149.832 531.291 148.02 C 531.367 147.181 532.305 146.996 531.434 146.048 C 530.763 145.318 529.85 145.956 529.129 145.134 C 529.255 144.857 529.356 144.689 529.607 144.505 C 529.775 144.756 530.001 144.823 530.126 145.151 C 530.981 145.352 531.451 145 531.115 144.219 C 532.205 143.431 534.719 141.392 535.917 142.164 C 536.898 142.793 537.082 146.367 538.984 145.318 C 538.909 144.32 539.856 143.867 539.864 142.894 C 540.685 142.633 542.211 142.961 542.781 143.338 C 542.73 143.061 542.848 142.684 542.831 142.399 C 543.417 142.457 543.845 142.768 544.096 143.179 C 544.482 142.675 544.406 140.981 544.943 140.712 C 545.864 140.251 545.454 142.583 545.638 143.011 C 547.39 143.313 547.39 141.073 547.44 140.066 C 547.524 138.405 547.725 137.532 548.06 136.056 C 548.353 134.78 548.596 133.614 548.915 132.297 C 549.216 131.055 549.703 128.806 549.552 127.682 C 548.412 127.313 546.929 127.279 546.795 128.781 C 547.951 129.117 547.247 130.006 546.309 129.78 C 546.468 129.05 546.309 128.37 545.479 128.504 C 545.504 128.874 545.286 129.318 545.286 129.637 C 545.286 129.956 545.236 130.115 544.959 130.468 L 544.943 130.459 Z M 532.196 146.023 C 532.012 146.535 532.925 145.805 533.554 145.99 C 533.923 145.377 534.66 145.57 535.381 145.662 C 535.289 144.689 536.697 143.674 535.062 143.38 C 534.585 143.296 531.744 144.152 531.744 144.832 C 531.744 145.033 531.694 145.746 531.97 145.461 C 532.255 145.176 532.322 145.679 532.196 146.023 Z M 503.344 205.308 C 502.765 205.887 502.112 206.365 501.483 206.919 C 500.561 207.733 500.059 208.581 499.254 209.445 C 497.964 210.837 496.53 210.569 495.039 211.391 C 493.681 212.138 494.042 213.388 492.785 214.194 C 491.486 215.024 489.424 213.967 489.307 216.065 C 489.19 218.187 492.575 221.266 493.405 223.196 C 494.084 224.774 493.991 225.554 495.952 225.646 C 496.815 225.688 497.427 225.47 498.257 225.68 C 499.019 225.881 499.195 226.317 500.017 226.267 C 500.721 224.488 502.447 225.462 503.017 223.817 C 503.452 222.567 502.992 221.132 503.545 219.882 C 504.064 218.707 504.827 217.348 505.816 216.543 C 506.855 215.695 508.665 214.521 506.176 213.707 C 506.176 213.12 506.109 212.432 505.791 211.92 C 505.472 211.408 504.634 211.525 504.492 210.938 C 504.274 210.007 505.514 209.151 506.109 208.572 C 507.224 207.465 507.752 207.523 507.006 206.131 C 506.603 205.375 505.095 203.404 504.508 203.991 C 504.14 204.36 503.737 204.931 503.352 205.317 L 503.344 205.308 Z M 531.073 242.158 C 530.043 243.19 530.235 243.777 529.707 244.591 C 529.372 245.111 529.749 245.43 529.381 245.917 C 529.02 246.404 528.249 246.211 527.922 246.915 C 527.252 248.367 529.247 247.729 528.543 249.046 C 528.073 249.927 526.339 249.81 525.92 248.946 C 523.347 249.734 522.274 247.083 519.869 247.964 C 520.045 249.852 519.123 249.483 518.059 250.28 C 516.81 251.22 517.59 252.134 516.794 253.049 C 515.386 254.66 515.235 252.159 514.062 252.21 C 512.528 252.277 513.727 254.081 513.735 254.869 C 513.743 257.109 511.263 258.46 509.528 259.45 C 507.056 260.868 504.567 262.53 501.969 263.62 C 499.707 264.577 495.885 266.062 497.922 268.914 C 498.802 270.148 500.318 270.66 499.539 272.547 C 498.793 274.368 498.005 272.74 496.43 273.068 C 496.581 275.09 499.623 276.81 500.335 278.832 C 500.687 279.83 500.762 281.751 500.88 282.809 C 501.014 284.059 501.307 285.007 501.651 286.307 C 502.43 289.252 500.318 291.048 503.838 292.222 C 505.196 292.676 505.782 292.969 507.098 292.348 C 508.271 291.795 509.83 290.872 510.626 290.1 C 511.129 289.94 511.003 290.049 511.296 289.773 C 512.696 289.538 513.886 289.89 515.235 289.747 C 516.626 289.605 517.799 288.12 518.897 287.314 C 520.179 286.366 521.193 286.71 522.66 286.064 C 524.202 285.393 525.383 285.292 527.16 285.116 C 530.319 284.806 532.247 285.603 534.09 288.086 C 534.769 289.001 535.356 290.368 536.194 291.065 C 537.635 292.264 537.962 291.157 538.867 289.781 C 539.328 289.085 540.292 287.18 541.264 288.287 C 542.152 289.303 540.501 290.838 540.132 291.56 C 540.468 292.155 540.451 292.726 540.811 293.229 C 541.691 292.634 542.261 291.216 543.241 292.382 C 543.895 293.154 543.384 294.563 544.146 295.486 C 544.75 296.216 545.186 296.493 545.722 297.382 C 546.309 298.364 546.535 299.22 546.945 300.294 C 548.554 300.906 549.619 301.242 551.362 300.806 C 552.032 300.638 552.77 300.202 553.516 300.319 C 554.504 300.478 554.144 300.89 554.789 301.317 C 556.172 302.232 556.65 301.829 557.999 300.655 C 558.954 299.832 560.22 297.693 561.602 298.347 C 563.605 297.332 563.278 295.209 564.033 293.372 C 564.82 291.451 565.549 289.806 566.22 287.91 C 567.192 285.133 567.636 282.406 568.533 279.654 C 569.346 277.187 569.522 273.772 568.851 271.23 C 568.164 268.604 565.407 268.227 563.781 266.23 C 562.315 264.426 561.535 262.06 560.245 260.189 C 557.865 260.348 556.557 257.839 555.862 255.868 C 555.116 253.737 555.267 251.278 554.379 249.256 C 553.96 248.308 553.071 247.746 552.594 246.907 C 552.116 246.068 552.108 245.187 551.873 244.289 C 551.412 242.536 549.895 239.851 549.225 242.972 C 548.973 244.138 548.705 245.674 548.605 246.806 C 548.487 248.124 548.915 249.332 548.454 250.615 C 547.783 252.495 545.789 255.532 543.786 255.029 C 541.817 254.534 539.99 252.218 538.465 250.775 C 537.509 249.869 536.814 249.382 537.174 247.595 C 537.367 246.638 538.171 244.776 538.968 244.272 C 539.487 242.603 537.576 242.385 536.68 242.116 C 535.683 241.814 533.831 241.101 532.892 241.151 C 532.188 241.193 531.459 241.755 531.073 242.141 L 531.073 242.158 Z M 467.862 208.455 C 468.415 209.008 469.253 210.393 469.714 211.064 C 470.242 211.844 471.055 212.541 471.499 213.422 C 472.354 215.083 472.94 217.122 474.172 218.498 C 474.809 219.211 475.857 219.597 476.292 220.511 C 476.795 221.569 476.653 222.391 477.482 223.456 C 478.304 224.505 480.156 228.113 481.564 228.289 C 483.248 228.499 483.214 226.737 483.701 225.596 C 484.17 224.488 485.293 223.364 484.254 222.122 C 483.541 221.275 482.267 221.384 481.362 220.73 C 479.929 219.689 479.661 218.749 478.874 217.382 C 477.759 215.444 475.387 213.195 473.979 211.425 C 473.259 210.519 472.111 209.05 471.331 208.455 C 470.41 207.75 469.211 207.406 468.197 206.97 C 466.689 206.315 467.2 207.792 467.87 208.455 L 467.862 208.455 Z M 517.866 214.898 C 515.688 214.898 513.484 215.024 511.43 215.561 C 508.933 216.216 509.939 218.187 509.402 220.167 C 508.799 222.416 507.969 223.213 508.581 225.512 C 508.858 226.561 508.522 230.454 510.249 230.244 C 510.55 227.912 509.562 225.671 510.802 223.515 C 512.863 224.589 512.47 228.474 514.062 229.296 C 514.724 228.734 515.235 226.359 515.051 225.478 C 514.833 224.396 513.433 223.649 512.746 222.794 C 511.875 221.703 511.456 220.73 513.408 220.386 C 513.978 220.285 517.389 221.065 515.838 219.387 C 514.497 219.496 512.537 219.647 511.12 219.664 C 509.721 218.145 511.715 216.669 513.207 216.35 C 514.615 216.048 517.866 218.112 517.866 216.224 C 517.866 215.972 518.202 214.898 517.866 214.898 Z M 510.768 179.861 C 509.293 181.346 510.031 186.346 511.833 187.588 C 512.947 188.36 514.045 188.276 515.034 189.317 C 515.905 190.231 516.542 191.456 516.903 192.723 C 517.506 192.74 517.875 192.387 518.026 191.775 C 518.235 191.834 518.461 191.85 518.662 191.901 C 518.763 190.6 516.794 189.703 516.006 188.83 C 515.009 187.731 514.221 186.472 513.416 185.281 C 511.958 183.133 513.274 183.057 514.196 181.019 C 514.808 179.676 514.062 177.369 512.118 177.889 C 512.067 178.049 512.092 178.208 512.092 178.376 C 512.092 178.737 511.087 179.542 510.768 179.861 Z M 608.816 297.852 C 606.889 297.852 605.707 292.978 603.738 292.592 C 602.665 294.312 606.637 298.465 606.83 300.336 C 607.014 302.081 604.727 302.836 605.556 304.095 C 605.875 304.581 606.847 304.422 607.333 305.135 C 607.81 305.848 607.635 306.738 607.685 307.585 C 609.093 307.962 609.679 305.731 609.973 304.808 C 610.308 303.742 609.889 303.952 610.635 303.314 C 611.305 302.735 611.313 303.801 611.959 302.652 C 612.034 302.517 612.101 301.267 612.16 301.007 C 612.269 300.52 613.274 300.244 612.495 299.639 C 611.456 298.834 609.973 301.359 609.973 298.364 C 609.973 297.71 609.21 297.869 608.816 297.869 L 608.816 297.852 Z M 603.863 307.929 C 603.436 305.672 599.472 312.015 599.078 312.393 C 597.511 313.911 596.288 315.606 594.779 317.309 C 594.251 317.905 592.416 319.566 593.623 320.153 C 593.925 320.296 594.796 319.575 595.282 319.65 C 595.902 319.742 596.162 320.397 596.757 320.607 C 598.081 321.068 599.229 320.581 599.606 319.189 C 599.774 318.576 599.439 317.888 599.564 317.334 C 599.757 316.47 600.293 316.26 600.863 315.681 C 601.291 315.237 601.928 314.582 602.254 314.037 C 602.699 313.29 602.389 312.577 602.707 311.881 C 603.21 310.815 604.852 310.404 604.852 308.743 C 604.852 308.214 604.425 307.912 603.863 307.912 L 603.863 307.929 Z M 530.747 220.184 C 531.601 221.032 533.638 221.233 533.562 222.827 C 533.529 223.591 532.012 224.01 532.59 224.983 C 533.177 225.973 534.124 224.706 534.576 224.681 C 537.35 224.497 539.806 227.643 542.269 228.641 C 542.764 229.38 543.61 230.412 543.141 231.427 C 542.546 232.694 541.029 232.543 541.834 234.372 C 542.822 234.104 543.945 233.919 544.976 234.187 C 545.504 234.322 546.032 234.758 546.417 234.85 C 547.004 234.993 547.591 234.758 548.253 235.01 C 549.728 235.58 549.535 236.939 551.219 235.74 C 552.208 235.035 551.839 233.944 552.728 233.357 C 554.689 232.056 556.876 235.27 557.479 236.377 C 557.865 237.074 558.192 238.424 559.088 238.735 C 559.817 238.987 560.622 238.517 561.451 238.517 C 562.08 238.517 562.491 238.953 563.236 238.827 C 563.094 236.721 560.178 235.53 559.633 233.39 C 559.44 232.635 559.599 230.538 559.105 229.967 C 558.175 228.893 556.314 230.336 556.105 228.297 C 553.591 228.449 552.56 226.242 550.474 225.42 C 549.342 224.975 548.06 225.21 546.878 224.681 C 546.066 224.321 544.951 223.951 544.239 223.523 C 543.325 222.978 542.705 221.82 541.473 221.812 C 540.216 221.812 539.923 222.986 539.211 223.523 C 536.94 225.218 535.54 222.869 535.515 220.696 C 534.099 220.419 532.289 219.345 530.747 219.345 C 530.328 219.345 530.529 219.949 530.747 220.176 L 530.747 220.184 Z M 485.687 231.419 C 487.212 232.946 490.17 233.105 492.114 233.575 C 493.463 233.902 494.787 234.506 496.137 234.842 C 497.109 235.085 498.408 234.859 499.346 235.37 C 500.117 233.919 497.461 232.694 496.589 232.241 C 494.796 231.301 493.949 231.385 491.955 231.586 C 489.391 231.838 486.055 227.517 484.371 230.429 C 484.673 230.731 485.234 230.966 485.695 231.419 L 485.687 231.419 Z M 514.9 202.833 C 516.048 201.684 516.668 202.212 517.221 202.993 C 517.942 204.008 517.539 204.813 519.04 204.327 C 521.244 203.605 521.193 200.283 520.489 198.571 C 519.174 198.454 518.394 199.754 517.38 200.383 C 515.822 199.133 514.858 201.08 513.752 202.179 C 513.375 202.556 514.556 203.186 514.908 202.842 L 514.9 202.833 Z M 549.392 95.254 C 549.392 96.672 548.73 97.461 548.722 98.728 C 548.722 100.137 549.51 100.699 549.56 102.201 C 549.635 104.752 549.895 107.101 549.887 109.635 C 549.887 110.692 549.987 117.362 551.982 114.048 C 552.929 112.479 549.845 109.475 551.571 107.176 C 552.166 107.655 552.837 108.242 553.658 107.781 C 553.13 105.238 552.108 102.856 551.714 100.204 C 551.521 98.912 551.379 97.654 551.379 96.244 C 551.379 95.388 551.538 92.452 550.716 93.274 C 550.264 93.727 549.392 94.709 549.392 95.254 Z M 287.622 87.652 C 288.208 88.248 287.773 89.909 287.153 90.505 C 287.228 91.436 287.773 92.133 288.611 92.628 C 291.1 90.799 291.477 93.886 290.924 95.59 C 290.429 97.133 289.507 96.513 288.77 97.402 C 288.401 97.847 289.013 98.702 288.108 99.39 C 288.711 101.035 289.977 100.12 291.2 100.75 C 290.614 101.547 285.091 104.005 288.292 104.861 C 288.46 104.768 288.594 104.617 288.787 104.559 C 289.516 104.341 289.985 103.56 290.773 103.351 C 291.493 103.158 291.996 103.351 292.717 103.351 C 293.94 103.351 296.019 103.736 297.083 103.233 C 297.77 102.906 299.145 101.119 299.362 100.38 C 299.899 98.551 298.374 99.13 297.343 98.107 C 296.58 97.343 296.421 95.992 295.927 94.927 C 295.432 93.878 294.787 93.022 293.907 92.124 C 293.22 91.42 291.686 90.472 291.569 89.607 C 291.343 88.047 293.203 87.409 292.566 86.033 C 291.72 85.874 290.915 85.891 290.144 85.479 C 290.102 84.171 291.879 83.004 291.602 81.872 C 291.183 80.168 288.87 82.644 287.999 83.055 C 287.806 83.617 287.337 83.944 287.144 84.515 C 286.985 85.001 287.102 85.689 286.985 86.167 L 287.647 87.652 L 287.622 87.652 Z M 281.521 93.601 C 283.482 95.564 277.473 95.497 280.172 96.773 C 280.365 98.056 277.884 99.508 279.376 100.875 C 280.231 101.656 282.753 99.986 283.633 99.357 C 285.46 98.048 285.971 97.385 285.854 95.086 C 285.728 92.636 285.569 92.812 283.675 91.613 C 282.795 91.059 280.985 93.047 281.529 93.593 L 281.521 93.601 Z M 416.198 28.334 C 412.226 30.003 407.039 29.357 403 31.144 C 401.977 31.597 401.081 32.42 399.991 32.638 C 399.011 32.831 397.125 32.093 396.539 33.116 C 396.379 33.401 396.958 34.224 396.882 34.61 C 396.765 35.264 396.488 35.289 396.086 35.809 C 395.466 36.606 394.519 37.294 393.89 38.083 C 394.36 38.503 395.013 38.738 395.667 38.763 C 396.044 39.971 392.399 40.021 391.469 40.416 C 390.899 41.506 389.307 43.386 390.145 44.493 C 391.083 44.384 392.265 44.015 392.885 44.854 C 393.421 45.584 392.457 46.742 393.119 47.296 C 393.74 47.807 398.6 47.572 397.846 46.037 C 397.192 45.794 396.991 45.366 396.597 44.846 C 393.413 40.684 400.829 35.18 404.273 33.737 C 406.67 32.739 409.444 32.546 411.95 31.799 C 414.078 31.161 417.874 30.121 419.333 28.325 C 419.802 27.755 417.045 27.973 416.198 28.325 L 416.198 28.334 Z M 474.818 23.09 C 474.818 23.409 475.32 23.333 475.446 23.207 C 475.58 23.073 475.446 22.905 475.605 22.846 C 476.929 23.476 478.287 21.907 479.552 21.546 C 480.776 21.202 483.156 21.873 483.876 20.564 C 483.156 19.801 480.29 18.375 479.1 18.735 C 478.002 19.071 476.351 20.925 475.605 21.882 C 475.245 22.343 474.809 22.763 474.809 23.09 L 474.818 23.09 Z M 462.415 17.754 C 461.434 18.735 466.647 18.937 467.736 19.079 C 469.278 19.289 470.837 20.573 472.312 20.564 C 473.653 20.564 473.359 20.581 473.804 19.398 C 474.005 18.861 474.499 17.191 474.105 16.629 C 472.882 14.867 471.449 18.081 470.041 17.896 C 470.016 17.317 470.007 16.713 469.999 16.134 C 468.859 15.539 463.387 16.26 462.918 17.267 C 462.809 17.502 462.574 17.611 462.423 17.762 L 462.415 17.754 Z M 462.247 14.121 C 463.412 14.121 464.46 14.842 465.717 14.784 C 466.898 14.725 468.038 14.02 469.287 13.928 C 469.781 12.191 467.904 11.125 466.37 11.142 C 465.097 11.159 463.228 12.401 462.247 13.122 C 461.627 13.584 461.904 14.112 462.247 14.112 L 462.247 14.121 Z M 315.36 121.364 C 316.139 122.103 316.785 123.109 317.036 124.15 C 319.215 126.197 320.514 128.311 324.017 128.672 C 324.075 128.823 323.908 128.84 323.958 128.932 C 325.693 129.906 325.911 131.928 325.953 133.74 C 327.754 134.621 326.397 126.734 328.718 129.788 C 329.246 129.603 329.313 129.503 329.355 129.008 C 326.774 127.162 322.969 125.761 321.176 122.992 C 320.489 121.935 318.897 120.089 318.654 118.906 C 318.461 117.975 318.737 116.708 319.701 116.297 C 320.698 115.877 321.042 116.54 321.662 117.547 C 322.978 117.396 324.855 119.451 325.877 120.257 C 327.335 121.415 328.525 122.95 329.749 124.309 C 331.199 125.92 331.651 127.464 332.808 129.318 C 333.646 130.661 334.408 132.641 335.791 133.304 C 335.841 133.455 335.816 133.597 335.841 133.748 C 336.16 133.924 336.763 134.075 337.115 134.075 C 337.098 133.824 337.148 133.564 337.115 133.295 C 336.964 133.228 336.822 133.32 336.671 133.245 C 336.629 132.985 336.679 132.716 336.671 132.465 C 337.76 132.708 339.093 133.933 337.945 135.057 C 336.612 134.797 336.319 135.846 336.017 136.861 C 337.291 137.625 339.939 135.435 339.964 134.092 C 339.981 133.119 338.925 132.666 338.514 131.936 C 338.07 131.139 337.852 130.132 338.003 129.159 C 338.246 129.335 338.674 129.318 338.967 129.645 C 340.392 128.723 340.065 128.278 342.026 128.11 C 343.484 127.984 344.682 127.623 346.207 127.288 C 346.099 126.692 346.199 126.071 346.576 125.677 C 345.537 124.704 346.35 122.421 346.92 121.406 C 347.607 120.198 348.797 119.2 349.057 117.765 C 351.319 116.632 354.345 110.591 356.088 116.213 C 356.414 117.27 355.535 117.102 357.118 117.74 C 357.822 118.025 358.945 118.495 359.725 118.025 C 361.803 116.775 358.56 115.961 359.155 114.291 C 360.982 113.662 365.549 110.893 365.038 114.929 C 364.87 116.271 364.392 116.624 365.038 117.933 C 365.75 119.401 367.074 119.98 368.314 120.735 C 369.672 122.438 372.596 123.588 370.812 126.164 C 369.412 128.186 365.071 128.295 362.884 127.372 C 360.915 126.533 358.635 124.032 356.113 124.838 C 355.593 125.006 355.333 125.526 354.931 125.828 C 354.043 126.499 353.842 126.6 352.819 126.952 C 351.705 127.338 350.448 127.581 349.492 128.278 C 348.956 128.672 348.504 128.764 348.344 129.603 C 347.045 129.562 345.939 129.964 344.607 129.989 C 344.548 130.812 345.085 131.86 345.395 132.616 C 345.797 133.58 345.822 134.352 346.065 135.418 C 346.434 137.037 346.442 136.45 347.883 136.903 C 348.797 137.188 349.819 138.01 350.825 137.868 C 351.495 135.443 353.439 137.373 354.94 137.599 C 356.766 137.876 358.61 136.827 360.563 136.928 C 361.786 139.001 360.864 142.927 359.968 144.865 C 358.903 147.156 357.898 149.404 356.44 151.577 C 355.116 151.653 354.378 151.645 353.289 150.982 C 352.074 150.252 352.476 149.95 351.143 150.403 C 350.163 150.73 349.66 151.317 348.546 151.435 C 347.364 151.561 346.182 151.183 345.11 150.898 C 342.813 150.302 340.274 149.589 337.987 148.742 C 337.09 148.414 335.69 147.986 334.676 148.288 C 333.403 148.666 333.218 149.354 333 150.738 C 332.38 151.141 331.484 152.282 330.721 152.433 C 329.967 152.576 328.961 151.955 328.24 151.762 C 326.481 151.301 325.324 150.587 323.757 149.606 C 322.265 148.674 320.673 147.542 319.005 146.795 C 318.134 146.409 317.346 146.325 316.483 145.855 C 315.821 145.486 315.536 144.916 314.74 144.622 C 314.572 142.306 316.022 139.655 313.6 138.002 C 311.53 136.584 307.927 138.313 305.472 138.212 C 302.463 138.086 300.46 138.43 297.837 139.655 C 295.256 140.855 293.052 141.409 290.245 141.836 C 289.633 141.929 288.795 142.441 288.141 142.18 C 287.622 141.979 287.404 140.989 286.96 140.846 C 285.703 140.435 285.51 142.273 284.89 143.196 C 283.566 145.192 281.119 146.527 280.222 148.951 C 279.745 150.243 280.222 151.586 279.895 152.911 C 279.644 153.918 278.89 155.126 278.286 155.924 C 276.837 157.853 275.01 159.087 273.744 161.134 C 272.278 163.5 270.308 165.539 268.708 167.477 C 267.09 169.432 267.116 172.779 267.35 175.213 C 267.593 177.721 268.331 181.086 267.476 183.469 C 267.057 184.626 266.236 185.415 266.035 186.615 C 265.691 188.612 266.797 188.947 268.012 190.089 C 268.926 190.936 269.01 191.909 269.621 192.773 C 270.174 193.562 271.163 193.864 271.775 194.712 C 273.124 196.566 271.984 198.722 272.797 200.669 C 274.163 203.974 278.446 205.837 281.219 207.272 C 281.521 207.431 283.097 207.356 283.692 207.599 C 285.083 208.186 286.172 207.733 287.454 207.221 C 289.038 206.592 290.102 206.491 291.745 206.819 C 294.862 207.431 296.739 205.526 299.698 204.755 C 302.714 203.966 304.969 205.057 306.804 207.104 C 307.826 208.245 307.927 208.27 309.653 207.817 C 310.609 207.565 310.273 207.481 311.237 207.607 C 311.941 207.7 312.637 207.968 313.206 208.295 C 313.575 209.42 313.391 210.905 313.567 212.062 C 313.76 213.355 314.086 214.496 314.07 215.863 C 314.036 218.632 313.424 221.468 314.924 223.96 C 315.544 224.983 316.341 226.091 317.07 227.064 C 317.472 227.601 318.025 228.021 318.31 228.625 C 318.654 229.363 318.41 230.068 318.679 230.739 C 319.19 232.048 320.522 232.509 320.832 234.036 C 321.092 235.287 320.832 236.889 320.832 238.164 C 320.832 239.431 321.327 241.227 321.042 242.477 C 320.774 243.652 320.07 245.061 319.55 246.261 C 318.444 248.803 317.254 251.715 318.628 254.399 C 320.17 257.395 321.771 260.734 321.98 264.275 C 322.064 265.76 321.729 266.456 322.14 267.908 C 322.525 269.258 322.802 270.391 323.346 271.708 C 324.511 274.528 324.679 277.221 326.313 279.931 C 327.754 282.33 329.824 285.359 329.062 288.204 C 327.838 288.783 329.263 289.68 329.606 290.351 C 330.738 290.872 331.274 291.719 332.715 291.702 C 333.662 291.694 334.877 291.098 335.799 291.182 C 337.056 290.326 340.501 289.924 341.624 290.729 C 343.97 288.892 347.02 288.69 348.923 286.089 C 349.819 284.873 350.004 283.564 350.741 282.28 C 351.546 280.879 352.886 280.031 353.372 278.521 C 354.219 275.878 353.674 273.118 355.769 271.171 C 356.624 270.374 357.998 269.695 358.577 268.529 C 359.247 267.161 358.233 266.221 358.484 264.77 C 358.685 263.662 359.532 263.125 360.412 262.42 C 360.127 261.758 359.783 261.112 359.138 260.776 C 358.853 260.063 358.099 259.274 358.149 258.351 C 360.605 256.614 363.839 254.743 365.716 252.377 C 366.479 251.421 367.962 250.02 368.197 248.744 C 368.39 247.696 367.711 246.169 367.703 245.111 C 367.686 242.175 366.982 239.373 366.58 236.503 C 366.487 235.857 366.471 235.026 366.378 234.372 C 366.236 233.332 365.499 232.736 365.247 231.889 C 364.862 230.588 365.566 229.246 366.035 228.054 C 366.99 225.638 368.088 222.76 369.915 220.906 C 371.909 218.884 374.138 216.66 376.233 214.823 C 377.608 213.615 377.993 212.507 378.924 211.072 C 379.778 209.747 380.977 208.941 381.681 207.456 C 382.334 206.097 382.929 205.031 383.759 203.79 C 384.614 202.506 384.496 201.206 384.865 199.83 C 385.225 198.512 385.82 196.775 386.382 195.567 C 386.901 194.451 389.013 192.807 386.508 192.555 C 385.728 192.48 384.513 193.394 383.7 193.562 C 382.418 193.822 381.035 193.889 379.72 194.049 C 377.298 194.342 376.409 194.158 374.323 193.193 C 374.088 192.136 373.736 191.179 372.974 190.416 C 372.58 190.021 371.867 189.14 371.49 188.763 C 370.51 187.781 370.384 186.279 369.555 185.121 C 368.825 184.098 367.376 183.418 366.73 182.328 C 366.152 181.354 366.27 180.222 365.507 179.19 C 364.711 178.107 363.998 177.755 363.529 176.547 C 363.035 175.246 363.278 173.921 362.876 172.62 C 362.507 171.42 362.054 169.994 361.585 168.769 C 361.166 167.687 360.755 166.017 360.227 165.01 C 359.741 164.062 358.727 163.265 358.149 162.342 C 357.294 160.966 353.213 155.638 355.007 154.262 C 355.97 154.615 356.607 155.613 357.412 156.2 C 357.914 155.294 357.764 154.397 358.736 153.767 C 360.026 155.319 361.426 157.442 362.205 159.406 C 362.716 160.689 362.448 162.241 362.943 163.5 C 363.437 164.758 364.619 164.842 365.423 165.941 C 367.015 168.115 366.722 170.867 367.719 173.224 C 368.105 174.122 368.851 175.75 369.379 176.53 C 370.024 177.486 371.205 178.107 371.851 179.206 C 372.714 180.691 373.367 182.445 373.619 184.165 C 373.879 185.902 373.083 188.176 374.641 189.098 C 378.932 189.266 382.804 186.783 386.29 184.626 C 388.385 183.334 390.346 182.865 392.407 181.614 C 393.941 180.683 395.726 178.384 397.36 177.872 C 397.787 176.211 399.74 174.743 400.854 173.61 C 401.818 172.637 403.042 170.556 403.301 169.163 C 402.145 168.912 400.067 167.276 399.153 166.378 C 397.93 165.178 397.586 163.802 396.522 162.56 C 395.826 162.837 395.424 163.852 394.737 164.347 C 393.907 164.943 393.011 165.102 392.105 165.547 C 391.259 165.958 389.868 167.124 388.921 166.546 C 388.678 166.395 387.547 164.649 387.312 164.347 C 386.189 162.938 385.77 161.033 384.714 159.523 C 383.968 158.449 383.792 157.727 383.315 156.62 C 382.929 155.714 381.722 154.841 381.731 153.801 C 384.605 152.265 385.594 153.021 387.739 154.925 C 389.55 156.528 391.754 158.29 393.957 159.355 C 395.206 159.951 396.798 159.322 397.712 159.724 C 398.818 160.219 398.826 161.679 400.058 162.157 C 401.407 162.678 402.882 162.225 404.181 162.527 C 405.706 162.871 406.821 163.223 408.564 163.231 C 409.486 163.231 410.332 162.913 411.229 162.854 C 412.31 162.787 413.006 163.265 414.02 163.382 C 414.129 163.71 414.078 163.55 414.338 163.71 C 414.564 164.742 416.911 166.244 417.833 166.822 C 419.081 167.611 420.732 167.905 421.771 168.836 C 420.673 170.372 420.355 170.976 422.115 172.125 C 423.372 171.613 423.497 169.986 424.905 169.65 C 426.137 170.908 425.928 174.013 426.079 175.741 C 426.246 177.637 426.246 179.643 426.246 181.522 C 426.246 181.958 426.38 182.646 426.741 183.007 C 427.009 183.276 427.126 183.603 427.26 183.972 C 429.397 184.408 429.548 189.988 430.411 191.473 C 431.107 192.681 431.031 193.998 431.735 195.198 C 432.288 196.138 433.101 196.91 433.629 197.925 C 435.263 201.063 436.663 197.363 437.501 195.441 C 438.548 193.033 438.573 190.315 438.825 187.672 C 439.152 184.241 439.872 182.957 442.789 181.061 C 445.143 179.534 446.501 177.419 448.646 175.691 C 450.029 174.583 450.088 174.038 450.842 172.763 C 451.613 171.462 452.97 171.42 454.512 170.908 C 455.577 170.548 457.672 168.828 458.644 169.298 C 459.021 169.474 460.278 171.546 460.747 172.075 C 461.15 172.528 461.46 172.637 461.602 173.241 C 462.415 174.181 463.806 175.666 464.049 177.067 C 464.342 178.77 464.166 180.926 464.401 182.663 C 465.532 182.705 466.345 182.68 467.317 182.193 C 468.172 181.774 468.842 180.616 469.798 181.228 C 470.493 185.281 471.977 189.057 471.968 193.26 C 471.968 195.316 471.608 198.068 472.128 200.039 C 472.412 201.13 473.879 204.369 474.918 204.855 C 475.362 207.221 476.175 209.923 477.793 211.601 C 478.262 212.088 479.98 213.816 480.55 213.757 C 481.999 213.598 481.103 211.307 480.918 210.577 C 480.265 207.976 479.67 205.711 477.868 203.882 C 477.147 203.152 476.133 202.439 475.756 201.533 C 475.538 200.996 475.714 200.442 475.429 199.88 C 475.161 199.335 474.591 199.066 474.264 198.596 C 473.133 196.952 472.865 194.2 473.611 192.278 C 474.591 189.77 477.147 190.349 479.36 190.818 C 479.837 191.926 480.038 192.975 480.835 193.973 C 481.798 195.181 482.552 195.878 483.357 197.069 C 483.918 197.891 482.988 197.984 484.337 197.891 C 484.74 197.866 485.527 197.229 485.904 196.952 C 486.918 196.188 487.907 195.316 488.745 194.384 C 489.793 193.218 490.279 192.95 490.279 191.288 C 490.279 189.963 490.287 188.52 490.078 187.194 C 489.676 184.685 488.36 183.141 487.17 181.044 C 486.265 179.441 483.935 176.32 485.041 174.466 C 485.98 172.889 490.631 168.928 491.293 172.251 C 492.625 172.553 493.296 171.16 494.419 170.791 C 495.014 170.598 495.701 170.741 496.262 170.422 C 496.774 170.137 496.807 169.465 497.26 169.172 C 498.408 168.417 499.271 168.886 500.519 168.811 C 502.028 168.719 502.832 167.729 504.148 167.326 C 504.601 167.192 505.036 166.436 505.305 166.168 C 507.073 164.389 508.941 162.409 510.048 159.85 C 510.726 158.29 511.816 157.283 512.52 155.924 C 513.693 153.65 511.481 154.229 510.928 152.618 C 511.665 152.098 512.922 151.703 512.863 150.663 C 512.009 150.596 511.388 150.227 510.609 149.95 C 510.207 148.515 512.218 148.196 512.403 147.013 C 512.604 145.738 511.296 145.192 510.618 144.328 C 508.9 142.155 508.665 140.502 511.02 138.707 C 511.824 138.086 514.741 137.18 513.391 136.089 C 512.57 135.418 509.947 136.014 508.975 135.72 C 508.338 135.527 506.654 134.612 506.327 133.916 C 505.631 132.456 506.587 131.986 507.492 131.189 C 508.631 130.191 512.185 126.122 513.19 128.496 C 513.802 129.931 510.349 134.789 514.414 131.516 C 516.115 130.149 518.52 129.008 519.45 131.651 C 519.844 132.783 519.257 133.429 519.869 134.579 C 520.464 135.703 521.537 136.03 522.442 136.634 C 522.568 137.566 522.19 139.957 522.635 140.737 C 523.263 141.845 525.124 141.09 525.895 140.033 C 527.378 138.002 525.551 135.351 524.654 133.438 C 524.001 132.028 523.456 130.988 523.992 129.847 C 524.495 128.773 525.534 128.093 526.305 127.229 C 527.436 125.962 530.026 121.633 531.87 121.566 C 532.649 121.54 533.269 121.943 533.378 122.698 C 535.347 123.219 538.054 119.409 539.177 118.142 C 540.878 116.213 542.856 113.478 544.13 111.162 C 545.269 109.098 545.973 106.379 546.392 104.047 C 546.786 101.891 547.432 98.476 546.686 96.487 C 545.563 93.467 540.828 97.066 540.258 94.499 C 539.244 93.895 537.568 94.499 537.476 92.821 C 537.409 91.629 539.018 90.497 539.596 89.515 C 540.551 87.913 541.163 87.812 542.764 86.746 C 544.004 85.924 545.102 84.657 546.216 83.692 C 547.851 82.283 551.89 78.692 554.152 79.212 C 554.58 79.313 555.116 80.034 555.636 80.261 C 556.365 80.58 557.06 80.655 557.907 80.596 C 559.465 80.487 560.924 79.673 562.398 79.43 C 563.739 79.212 563.907 79.514 564.912 80.084 C 565.843 80.605 566.597 80.932 567.846 81.083 C 568.667 81.184 569.857 81.351 570.527 80.965 C 571.575 80.37 571.131 79.522 571.633 78.608 C 572.413 77.19 575.337 75.621 576.871 74.757 C 577.701 74.287 578.614 73.918 579.519 73.683 C 580.81 73.356 581.17 74.077 582.352 74.002 C 582.159 75.176 579.871 77.307 581.899 77.148 C 583.374 77.03 584.421 75.176 586.131 74.941 C 586.558 73.75 586.374 72.214 587.841 71.703 C 589.952 70.956 589.475 72.986 588.888 74.136 C 587.572 76.703 585.62 77.525 583.475 79.254 C 581.639 80.731 579.955 82.912 578.069 84.221 C 577.265 84.783 575.53 85.219 574.876 86.025 C 574.106 86.973 574.156 88.785 573.938 90.002 C 573.586 91.957 573.15 93.618 573.443 95.623 C 573.72 97.545 574.416 99.457 574.29 101.379 C 576.276 101.74 576.737 100.12 578.019 99.055 C 578.689 98.493 579.745 98.224 580.164 97.402 C 580.592 96.554 580.064 95.808 580.407 94.994 C 581.069 93.433 582.955 93.651 583.625 92.468 C 584.271 91.336 583.491 89.205 585.159 88.491 C 585.955 88.835 586.449 88.324 586.123 87.543 C 584.187 87.25 585.377 86.193 585.335 85.203 C 585.31 84.649 584.472 83.902 584.522 83.382 C 584.597 82.652 585.226 82.4 585.687 81.813 C 586.374 80.932 586.55 79.816 587.505 79.128 C 588.427 78.465 589.734 78.331 590.74 77.744 C 591.268 76.502 593.229 76.712 594.385 76.418 C 596.346 75.923 596.824 76.091 598.056 77.576 C 599.816 77.76 601.995 76.804 603.143 75.948 C 603.587 75.621 604.241 75.344 604.626 74.958 C 605.95 73.632 609.302 72.03 610.894 72.349 C 611.933 72.558 613.274 73.674 614.154 72.282 C 614.783 71.283 613.878 69.949 613.844 68.875 C 612.889 68.095 607.777 64.571 611.724 64.554 C 613.283 64.546 614.665 65.46 615.738 63.925 C 616.341 63.061 615.696 60.535 617.003 60.451 C 618.713 60.351 617.733 63.296 619.149 63.573 C 620.59 63.849 620.674 61.341 622.601 62.373 C 623.305 62.75 623.297 63.287 623.925 63.69 C 624.588 64.118 625.074 63.774 625.752 64.051 C 626.624 64.403 628.317 65.628 628.576 66.509 C 628.887 66.601 629.498 66.601 629.808 66.509 C 630.311 64.94 629.523 64.185 631.149 63.187 C 632.021 62.658 633.353 62.7 633.663 61.416 C 634.04 59.856 629.13 57.171 627.772 58.27 C 626.833 59.025 626.708 61.525 625.543 58.933 C 624.805 57.305 625.56 56.995 623.976 56.122 C 621.663 54.864 618.99 54.075 616.509 52.934 C 614.112 51.835 611.456 51.021 608.623 50.996 C 607.098 50.979 605.28 50.979 603.805 50.626 C 602.782 50.383 601.282 49.041 600.168 49.502 C 598.718 50.106 600.201 52.17 598.684 52.984 C 597.478 53.63 595.458 52.833 594.411 52.439 C 592.936 51.877 591.746 51.264 590.095 51.155 C 588.477 51.054 586.76 51.382 585.151 51.155 C 584.346 51.046 582.419 50.635 581.807 50.207 C 580.986 49.636 581.011 48.755 580.365 48.051 C 578.815 46.364 575.647 47.077 573.611 47.195 C 571.776 47.296 568.575 48.026 567.041 46.826 C 566.706 46.566 566.84 45.802 566.471 45.567 C 565.868 45.19 565.424 45.701 564.845 45.534 C 563.999 45.29 563.094 44.837 563.178 43.738 C 563.035 43.646 562.868 43.788 562.734 43.688 C 562.759 43.47 562.725 43.134 562.683 42.916 C 561.024 41.699 559.055 43.788 557.429 44.502 C 556.809 44.778 554.68 45.827 554.328 45.039 C 553.96 44.233 555.845 43.595 555.585 42.421 C 554.89 41.708 554.136 41.406 552.971 41.406 C 552.367 41.406 551.127 41.733 550.658 41.733 C 550.088 41.733 548.01 41.414 547.188 41.557 C 545.454 41.875 546.392 42.354 545.998 43.839 C 545.579 45.399 544.859 45.324 543.401 45.567 C 542.714 45.676 541.817 46.096 541.079 45.869 C 540.333 45.643 540.191 44.854 539.613 44.653 C 537.66 43.99 537.074 46.146 535.465 46.196 C 533.696 46.255 533.789 44.334 532.171 45.685 C 531.66 46.113 531.719 46.725 530.839 47.186 C 530.244 47.497 529.657 47.732 528.937 47.64 C 527.73 47.497 526.087 46.003 525.358 45.24 C 524.705 44.56 523.523 43.293 523.121 42.513 C 522.182 40.701 523.448 41.12 524.587 40.063 C 524.562 39.904 524.453 39.409 524.386 39.266 C 523.054 38.922 522.232 37.899 520.942 37.588 C 519.735 37.294 517.891 37.991 516.819 38.41 C 515.319 38.998 514.665 40.365 512.847 40.39 C 511.405 40.407 510.24 39.493 508.732 39.895 C 508.279 40.013 507.944 39.509 507.576 39.4 C 506.838 39.174 506.721 38.712 507.014 38.066 C 506.83 37.924 506.377 37.546 506.218 37.437 C 504.869 37.873 503.201 37.219 501.802 37.571 C 500.201 37.974 499.924 39.467 498.676 37.739 C 497.922 36.699 498.022 35.759 496.849 35.071 C 495.927 34.526 494.251 34.232 493.539 35.432 C 493.949 35.868 497.821 37.152 496.824 37.873 C 495.315 38.964 493.949 34.996 492.307 37.244 C 492.768 37.504 493.178 37.789 493.698 37.932 C 493.866 39.853 486.994 40.432 485.494 40.357 C 485.418 40.315 484.882 39.837 484.773 39.728 C 487.002 37.68 489.064 35.826 492.064 34.777 C 493.472 34.282 495.441 33.98 496.673 33.158 C 498.123 32.193 497.151 32.94 497.008 31.48 C 496.941 30.809 497.134 30.07 497.327 29.517 C 496.07 29.064 494.922 28.485 493.757 28.166 C 492.332 27.78 490.656 28.317 489.265 28.661 C 487.178 29.173 486.801 28.493 484.849 27.99 C 481.857 27.218 484.228 27.302 484.12 25.548 C 482.452 24.399 481.069 24.432 479.653 25.649 C 478.748 26.421 476.913 28.946 478.522 29.852 C 478.538 30.062 478.438 30.154 478.522 30.448 C 478.279 30.532 478.094 30.532 477.843 30.641 C 476.586 31.17 474.566 30.482 473.133 30.641 C 471.717 30.792 470.468 31.623 468.993 31.757 C 467.611 31.874 466.513 30.951 465.155 30.977 C 463.563 31.002 461.971 32.059 460.404 32.294 C 458.686 32.554 457.58 32.235 455.929 32.747 C 454.596 33.158 453.121 33.208 451.806 33.611 C 446.819 35.147 453.18 37.286 452.443 39.04 C 450.331 39.426 448.94 39.409 446.836 38.914 C 445.035 38.494 442.772 37.831 440.937 38.771 C 440.803 41.959 441.381 40.936 443.861 42.245 C 444.331 43.679 446.702 44.938 446.199 46.842 C 446.007 47.572 444.884 48.235 443.878 47.547 C 443.141 47.035 443.417 46.129 443.375 45.215 C 442.613 45.164 441.632 44.342 440.928 44.023 C 440.115 43.654 438.959 43.05 438.121 42.832 C 437.459 42.656 437.3 42.538 436.545 42.673 C 436.277 42.723 435.523 43.344 435.439 43.344 C 434.467 43.335 434.149 42.245 433.193 42.245 C 433.227 43.99 435.045 44.275 435.665 45.5 C 436.964 45.668 436.21 46.801 435.439 47.019 C 434.568 47.262 433.202 46.457 432.531 45.995 C 431.936 45.584 431.241 44.904 430.813 44.25 C 430.26 43.419 430.344 42.211 429.204 41.875 C 428.4 42.689 427.922 44.023 427.118 44.997 C 427.797 45.852 427.738 46.691 428.048 47.682 C 428.216 48.227 428.517 50.115 428.869 50.492 C 429.908 51.625 433.336 50.308 433.847 52.439 C 434.383 52.699 435.029 53.362 435.347 53.915 C 435.506 54.192 435.825 54.125 435.967 54.444 C 436.143 54.83 435.615 55.224 435.791 55.61 C 436.386 56.894 438.397 56.886 437.425 58.555 C 436.302 58.95 434.618 58.287 433.512 57.892 C 433.478 56.533 432.397 55.694 432.305 54.318 C 431.258 53.999 430.629 53.286 429.556 53.991 C 429.364 54.117 428.149 55.854 428.023 56.088 C 427.394 57.322 427.57 57.993 426.472 59.075 C 425.769 59.763 425.073 60.586 424.201 61.022 C 422.869 61.685 422.718 61.366 421.444 60.77 C 420.757 60.451 418.562 60.065 418.461 59.243 C 418.319 58.077 422.961 57.532 423.447 59.386 C 425.551 59.503 425.09 56.323 425.266 55.149 C 425.534 53.387 426.531 52.607 426.012 50.643 C 425.584 49.041 424.847 47.472 424.612 45.819 C 424.436 44.611 425.643 42.27 424.922 41.523 C 425.039 41.255 425.023 41.028 425.039 40.751 C 424.034 40.793 422.056 40.046 421.101 40.583 C 420.162 41.12 420.137 42.698 419.567 43.528 C 418.461 45.164 416.274 46.146 417.33 48.462 C 418.746 49.041 419.685 51.491 419.316 52.816 C 418.712 55.023 416.601 55.442 415.461 53.127 C 413.115 53.378 413.358 52.137 411.858 51.323 C 411.003 50.853 407.734 50.786 406.746 51.113 C 405.296 51.6 404.625 53.177 403.31 53.773 C 401.994 54.369 400.712 53.655 400.938 51.977 C 399.681 51.944 397.988 54.008 396.639 54.561 C 396.094 54.788 394.066 55.619 393.538 55.552 C 392.407 55.401 392.608 54.578 391.67 53.957 C 389.935 54.209 389.013 54.754 387.421 55.593 C 386.122 56.273 384.915 56.047 383.633 56.575 C 382.125 57.196 381.421 58.874 380.164 59.528 C 378.664 60.317 377.859 58.765 378.044 57.272 C 378.572 56.986 379.083 56.642 379.636 56.391 C 379.72 56.105 379.703 55.711 379.602 55.451 C 378.253 55.61 377.91 54.293 376.652 54.092 C 374.666 53.781 375.111 55.023 375.203 56.416 C 375.287 57.59 376.091 58.773 375.873 59.889 C 375.764 60.451 375.287 61.198 374.75 61.425 C 373.937 61.769 373.837 61.198 373.393 61.207 C 372.312 61.232 371.767 61.576 370.795 62.247 C 370.267 62.608 369.387 62.859 368.993 63.354 C 368.691 63.732 368.7 64.563 368.432 65.016 C 366.722 67.86 365.205 63.707 362.683 64.21 C 362.431 65.981 364.803 65.2 364.803 67.164 C 364.803 67.566 364.367 67.994 364.141 67.994 C 361.007 67.994 359.783 67.508 358.325 64.856 C 357.73 63.774 357.604 62.549 357.001 61.592 C 356.389 60.619 354.78 59.755 356.54 59.067 C 357.873 58.547 358.97 59.864 359.968 60.225 C 361.191 60.67 362.859 61.181 364.275 61.056 C 365.515 60.946 367.242 60.72 368.423 60.258 C 369.11 59.99 371.624 58.262 370.108 57.548 C 370.108 57.406 370.133 57.07 370.049 56.944 C 369.127 56.525 368.147 56.533 367.233 56.13 C 366.395 55.761 365.649 55.317 364.887 54.973 C 363.085 54.142 361.35 53.211 359.641 52.296 C 358.275 51.566 356.741 50.207 355.183 50.148 C 353.356 50.081 351.118 51.491 349.308 50.618 C 349.241 50.467 349.132 49.821 349.141 49.695 C 349.878 49.158 351.328 49.376 351.571 48.361 C 350.875 48.093 350.138 48.512 349.618 48.378 C 348.939 48.21 348.78 47.874 348.168 47.338 C 346.987 46.306 345.855 46.087 346.618 47.984 C 344.959 46.968 344.598 48.026 342.881 47.816 C 343.023 47.145 343.367 46.96 343.651 46.381 C 342.83 46.255 341.732 46.817 341.112 47.145 C 341.029 47.186 340.517 46.91 340.283 47.052 C 340.014 47.212 340.157 47.606 340.048 47.682 C 339.822 47.833 339.528 48.302 339.101 48.554 C 337.702 49.385 333.738 47.438 335.238 50.131 C 334.526 50.459 333.838 50.929 332.992 50.509 C 331.232 52.548 328.676 50.383 327.235 52.346 C 328.123 53.991 327.763 54.486 326.514 55.459 C 325.584 56.189 325.014 57.213 324.235 57.96 C 323.413 58.731 322.031 60.04 321.101 60.451 C 320.388 60.77 319.86 60.074 319.282 60.779 C 319.022 61.097 319.341 62.381 319.223 62.868 C 318.276 63.086 316.944 63.531 316.299 64.42 C 317.279 65.67 318.184 69.144 316.609 69.999 C 314.782 70.99 311.354 67.038 311.79 70.964 C 310.282 71.745 308.715 72.852 308.195 74.471 C 307.684 76.057 308.279 78.49 308.354 80.252 C 308.455 82.744 309.067 85.043 311.773 83.508 C 313.408 82.585 314.128 79.757 315.922 79.321 C 316.55 79.808 317.623 82.014 318.1 82.887 C 318.712 83.994 318.788 85.37 319.374 86.57 C 319.793 87.434 320.179 88.642 320.765 89.305 C 321.846 90.539 322.29 89.884 323.372 89.138 C 323.95 88.735 324.302 88.307 325.022 88.173 C 325.886 88.005 326.422 88.668 327.05 88.013 C 327.729 87.3 326.958 85.538 327.009 84.548 C 327.076 83.105 327.327 82.266 328.659 81.905 C 329.288 81.737 330.151 82.241 330.486 81.578 C 330.738 81.075 330.101 80.361 329.791 80.084 C 331.098 78.876 329.263 77.584 328.19 77.089 C 328.106 74.052 327.805 71.862 330.637 69.999 C 331.592 69.37 333.201 69.085 334.098 68.196 C 335.322 66.987 334.467 66.165 334.928 64.554 C 335.607 62.155 340.769 60.586 342.512 62.272 C 343.819 63.539 342.73 64.563 341.816 65.511 C 340.526 66.845 339.931 68.54 338.514 69.647 C 336.336 71.359 333.57 75.646 336.704 78.146 C 338.481 79.573 340.434 78.625 342.193 77.895 C 343.056 77.534 343.936 77.223 344.833 77.072 C 345.881 76.896 346.97 77.307 347.942 76.972 C 348.646 77.643 349.87 78.146 350.096 79.229 C 349.099 80.051 346.45 80.655 345.168 80.747 C 343.827 80.84 341.347 80.026 340.375 81.242 C 339.403 82.459 342.344 87.694 339.922 88.273 C 338.657 88.575 338.59 86 337.232 86.193 C 336.151 86.352 336.269 88.592 336.093 89.507 C 335.514 92.544 334.249 94.331 330.956 93.844 C 329.036 93.559 328.215 93.995 326.338 94.793 C 324.905 95.397 323.313 96.731 321.754 95.749 C 321.821 95.43 321.628 94.969 321.704 94.65 C 320.656 94.23 319.416 94.784 318.26 94.784 C 316.977 94.784 316.676 94.247 315.486 93.937 C 314.681 92.88 314.53 92.309 314.757 91.126 C 314.983 89.951 315.964 88.55 314.304 87.753 C 314.229 87.77 313.617 88.005 313.55 88.038 C 312.486 90.421 314.422 93.987 312.963 96.085 C 311.606 95.934 310.659 96.051 309.536 96.781 C 309.05 97.1 308.539 97.704 308.036 97.93 C 307.6 98.132 306.745 98.04 306.393 98.249 C 305.103 99.046 306.075 100.078 305.111 101.136 C 304.147 102.201 302.48 101.698 301.432 102.587 C 299.622 104.122 298.441 106.363 296.119 107.176 C 295.449 107.411 294.971 107.076 294.343 107.546 C 293.865 107.898 293.882 108.678 293.362 109.006 C 292.457 109.568 290.664 108.93 289.583 109.022 C 289.281 111.632 292.792 112.722 294.016 114.778 C 295.524 117.303 295.415 119.367 293.84 121.876 C 293.161 122.95 293.597 122.782 292.357 123.051 C 291.745 123.185 290.672 123.126 290.077 123.017 C 288.787 122.774 287.689 122.531 286.247 122.388 C 283.205 122.077 280.859 121.087 281.504 125.375 C 281.974 128.454 279.669 132.011 280.658 134.923 C 282.124 136.005 285.694 136.131 286.105 138.556 C 287.136 138.808 287.396 138.036 288.225 137.759 C 289.13 137.457 289.918 137.356 290.831 137.062 C 292.432 136.551 293.689 135.569 295.298 135.091 C 295.449 134.218 295.994 133.497 296.27 132.632 C 296.572 131.676 296.563 130.635 296.806 129.662 C 297.368 127.456 298.424 127.296 300.578 126.826 C 301.575 125.526 301.692 124.284 302.538 122.841 C 303.368 121.423 305.011 121.247 306.502 120.76 C 307.365 121.767 309.452 120.794 310.382 120.383 C 312.419 119.493 312.394 119.829 314.463 120.567 L 315.285 121.389 L 315.36 121.364 Z M 390.119 113.763 C 390.84 114.434 390.89 115.449 390.756 116.381 C 388.846 117.161 386.239 118.327 387.639 120.542 C 388.276 121.549 389.273 122.237 389.625 123.504 C 389.96 124.695 389.692 125.954 390.312 127.112 C 391.527 127.388 391.385 125.803 392.399 125.685 C 392.835 126.356 393.094 127.179 393.22 127.942 C 392.064 128.303 391.083 128.37 391.301 129.922 C 392.298 130.25 392.382 133.195 392.558 134.084 C 392.96 136.139 393.237 136.911 391.066 137.348 C 388.67 137.826 386.105 136.139 384.488 134.243 C 385.041 133.094 387.287 127.305 384.857 127.279 C 384.446 125.945 383.843 124.511 383.348 123.168 C 382.904 121.977 382.074 120.836 382.024 119.527 C 381.882 115.886 384.781 113.914 388.133 113.914 C 388.678 113.914 389.432 113.931 390.111 113.746 L 390.119 113.763 Z M 405.145 116.573 C 405.061 118.067 404.24 121.465 402.204 121.171 C 401.366 119.695 401.307 119.032 401.977 117.564 C 402.405 116.632 403.016 115.416 404.818 115.416 C 405.07 115.416 405.179 116.011 405.145 116.573 Z M 353.155 74.765 C 354.604 75 356.683 77.072 356.096 78.541 C 354.73 79.64 353.289 77.433 351.906 78.717 C 351.311 77.769 350.565 75.092 351.696 74.404 C 352.09 74.547 352.677 74.698 353.146 74.773 L 353.155 74.765 Z M 138.212 10.53 C 138.212 10.949 138.749 11.31 139.251 11.511 C 139.52 11.62 140.458 12.082 140.676 12.099 C 141.388 12.149 141.983 11.377 142.796 11.251 C 143.743 11.109 144.062 11.62 144.782 12.015 C 146.282 12.845 148.687 12.921 150.405 12.652 C 152.291 12.35 153.9 11.394 155.702 10.639 C 156.783 10.186 160.185 9.145 159.548 11.385 C 159.171 12.711 156.188 13.449 154.956 13.903 C 154.126 14.213 153.179 14.28 152.341 14.582 C 151.503 14.893 150.824 15.446 149.886 15.522 C 147.967 15.664 146.517 14.205 144.799 14.884 C 144.12 15.153 143.156 15.623 143.492 16.394 C 143.852 17.217 145.285 17.007 145.654 17.838 C 146.785 17.728 147.64 18.576 148.612 18.945 C 149.752 19.373 150.414 18.878 151.579 19.021 C 153.062 19.214 152.425 20.178 151.788 20.715 C 151.025 21.361 150.422 21.353 149.433 21.437 C 147.564 21.596 145.788 21.403 143.969 20.925 C 142.419 20.514 142.034 18.517 141.103 17.41 C 140.71 16.94 140.542 17.007 140.341 16.369 C 140.215 15.958 140.45 15.522 140.215 15.119 C 139.821 14.448 138.883 14.574 138.422 14.054 C 137.458 14.037 131.03 10.068 130.913 12.443 C 130.888 13.022 132.17 13.206 131.416 14.112 C 130.846 14.792 130.402 14.205 129.773 14.238 C 129.17 14.272 127.997 14.716 127.745 15.295 C 127.511 15.841 127.938 16.545 127.955 17.082 C 128.709 17.2 128.977 17.921 129.748 18.056 C 130.335 18.156 131.014 17.955 131.659 18.056 C 132.43 18.173 135.011 18.173 134.6 19.415 C 133.637 19.977 132.371 20.044 131.34 20.514 C 131.106 21.395 132.061 21.168 132.472 21.689 C 132.849 22.159 132.472 22.763 133.226 23.056 C 133.419 23.132 134.114 22.914 134.399 22.939 C 134.726 22.972 135.061 23.266 135.355 23.266 C 136.017 23.266 137.014 22.771 137.684 22.595 C 139.159 22.217 139.511 20.497 140.969 21.16 C 141.64 21.462 142.151 22.066 142.754 22.435 C 143.341 22.788 143.768 22.897 144.481 23.048 C 145.159 23.19 146.207 23.484 146.517 24.189 C 146.852 24.936 146.182 25.867 145.352 26.026 C 144.522 26.186 144.011 25.708 143.416 25.246 C 142.511 24.541 142.494 24.03 143.726 24.323 C 144.221 24.441 145.184 25.489 145.721 25.254 C 146.911 24.726 145.243 24.004 144.9 23.87 C 144.171 23.576 143.19 23.073 142.369 23.182 C 141.807 23.258 140.156 23.971 140.148 24.625 C 140.71 25.036 141.053 25.573 141.698 25.934 C 141.799 26.446 141.698 27.277 141.187 27.537 C 139.997 28.141 140.584 27.084 140.416 26.874 C 140.098 26.463 140.123 26.144 139.352 26.53 C 138.874 26.765 138.321 27.495 138.447 28.023 C 138.715 28.157 138.933 28.552 139.201 28.653 C 139.662 28.82 139.754 28.577 140.232 28.569 C 141.095 28.56 141.883 28.82 142.662 28.896 C 144.64 29.089 146.743 29.114 148.721 29.106 C 149.685 29.106 150.648 29.055 151.545 29.349 C 152.324 29.601 152.936 30.154 153.824 29.877 C 154.428 29.693 155.081 29.181 155.626 28.921 C 156.389 28.56 157.319 28.267 157.839 27.612 C 157.176 26.614 153.883 27.268 152.718 26.681 C 151.863 26.253 151.537 25.582 152.534 25.095 C 153.447 24.65 154.21 25.238 155.081 25.28 C 157.244 25.38 159.238 23.568 161.015 22.544 C 161.543 22.242 163.562 21.487 162.691 20.531 C 162.23 20.027 160.646 20.833 160.068 20.833 C 158.677 20.833 158.651 20.229 159.582 19.365 C 160.369 18.643 161.165 18.425 162.096 18.19 C 163.177 17.921 163.26 17.015 163.973 16.68 C 164.593 16.386 166.135 16.923 166.73 17.133 C 168.917 17.913 170.266 16.336 172.135 15.195 C 173.945 14.087 175.671 13.089 177.557 12.199 C 178.026 11.981 180.146 11.335 180.281 10.823 C 180.515 9.926 178.789 9.783 178.378 10.211 C 178.856 10.983 177.565 11.318 177.012 11.469 C 176.468 11.612 174.632 11.906 174.465 11.176 C 174.306 10.505 175.806 9.875 176.266 9.598 C 177.976 8.6 180.214 8.466 181.998 7.677 C 183.063 7.207 186.356 6.074 185.568 4.489 C 185.25 3.843 183.44 3.121 182.736 2.92 C 181.814 2.66 180.917 3.062 179.979 3.113 C 179.065 3.163 177.783 2.995 176.987 2.609 C 176.132 2.198 175.982 1.342 175.102 1.099 C 174.088 0.814 172.772 1.208 171.741 1.208 C 170.601 1.208 169.537 1.04 168.423 1.208 C 167.35 1.368 166.361 1.745 165.297 1.628 C 164.157 1.51 162.959 1.267 161.819 1.107 C 160.906 0.973 159.925 0.562 158.961 0.68 C 158.383 0.747 157.864 1.267 157.285 1.326 C 156.9 1.368 156.389 1.04 155.986 1.024 C 154.914 0.982 154.26 1.544 153.263 1.745 C 152.207 1.955 151.646 1.728 150.958 2.651 C 150.389 3.415 150.213 4.162 149.425 4.74 C 148.402 5.496 147.422 5.177 146.165 5.135 C 144.908 5.093 144.606 5.412 143.827 6.091 C 143.668 6.225 143.793 6.469 143.517 6.628 C 143.358 6.721 142.947 6.603 142.771 6.628 C 142.335 6.695 141.841 6.653 141.405 6.762 C 140.466 6.989 139.712 7.526 138.765 7.685 C 137.735 7.87 136.88 7.87 135.815 8.13 C 135.748 8.306 135.74 8.642 135.79 8.835 C 136.343 9.036 136.913 9.045 137.366 9.489 C 137.592 9.716 138.212 10.161 138.212 10.546 L 138.212 10.53 Z M 153.154 13.5 C 154.143 13.5 159.171 11.713 158.241 10.84 C 157.528 10.177 153.548 12.468 153.045 12.963 C 152.827 13.181 152.894 13.491 153.154 13.491 L 153.154 13.5 Z M 127.192 29.097 C 127.879 29.24 128.567 29.575 129.229 29.735 C 130.888 30.146 131.91 30.775 132.782 32.302 C 133.26 33.141 132.966 33.854 133.888 34.4 C 134.869 34.97 135.983 34.551 137.047 34.509 C 138.053 34.467 138.832 34.526 139.704 35.037 C 140.391 35.44 140.341 35.608 141.162 35.684 C 141.665 35.725 142.109 35.574 142.562 35.574 C 144.799 35.574 147.095 35.063 149.349 34.937 C 150.69 34.861 154.084 36.304 154.755 34.517 C 154.838 34.299 154.637 33.603 154.755 33.25 C 154.864 32.906 155.333 32.495 155.392 32.193 C 155.702 30.7 153.967 31.933 153.288 32.227 C 152.517 32.554 151.579 32.747 150.757 32.73 C 149.659 32.705 148.872 32.739 147.715 32.915 C 146.584 33.083 145.57 32.831 144.481 32.722 C 143.609 32.629 142.025 33.267 141.38 32.529 C 139.662 32.89 138.631 32.873 136.88 32.327 C 136.193 32.118 135.279 31.925 134.81 31.27 C 134.483 30.809 134.466 30.23 134.123 29.726 C 133.251 28.46 131.743 28.72 130.301 28.35 C 128.885 27.981 127.511 27.31 126.153 28.476 C 126.388 28.711 126.899 29.03 127.217 29.114 L 127.192 29.097 Z M 87.973 44.166 C 87.973 44.837 88.669 45.567 89.138 45.962 C 89.859 46.574 90.73 46.465 91.577 46.389 C 92.817 46.28 97.166 45.383 97.971 46.498 C 99.496 48.604 93.68 48.319 93.068 48.328 C 92.557 48.328 90.278 48.487 90.11 49.049 C 89.943 49.636 91.585 49.787 91.996 49.93 C 92.792 50.199 93.663 50.66 94.2 51.18 C 94.87 51.843 95.247 52.514 96.244 52.665 C 98.247 52.967 100.242 52.095 102.152 51.625 C 103.225 51.365 104.055 50.861 105.069 50.442 C 106.234 49.955 106.778 50.392 107.91 50.442 C 108.966 50.492 109.686 50.266 110.767 50.752 C 111.547 51.096 112.15 51.675 112.787 52.112 C 114.111 53.018 116.415 53.697 115.242 51.365 C 114.957 50.794 114.413 50.073 115.083 49.351 C 115.603 48.789 117.362 49.116 117.111 48.017 C 116.591 47.958 116.089 47.95 115.552 47.9 C 113.742 47.732 112.041 47.682 111.077 46.012 C 110.348 44.737 109.1 42.11 109.569 40.634 C 109.778 39.979 110.851 39.157 110.139 38.452 C 109.2 37.529 108.773 38.905 108.362 39.333 C 107.759 39.946 106.728 39.87 106.183 40.55 C 105.697 41.162 105.806 42.211 105.781 42.991 C 104.977 43.31 105.245 44.317 104.281 43.889 C 104.046 43.788 103.376 42.798 103.158 42.488 C 102.463 41.523 101.666 40.567 100.284 40.575 C 99.144 40.575 99.697 40.894 99.01 41.422 C 98.147 42.085 98.515 41.624 97.929 41.229 C 96.672 40.382 96.001 40.894 95.708 42.354 C 92.674 43.99 94.568 39.467 93.093 39.417 C 92.457 39.4 91.225 40.676 90.655 41.02 C 89.959 41.439 88.996 41.884 88.409 42.48 C 88.082 42.807 87.982 43.856 87.982 44.174 L 87.973 44.166 Z M 78.009 38.863 C 78.613 41.179 77.347 41.842 75.369 42.597 C 75.336 42.815 75.369 43.008 75.478 43.193 C 76.032 43.235 76.635 43.159 77.163 43.31 C 77.54 43.419 77.733 43.822 78.311 43.864 C 78.319 46.18 81.747 44.669 82.568 43.847 C 83.163 43.26 83.44 42.933 84.236 42.673 C 85.057 42.404 85.526 42.631 85.551 41.422 C 86.364 41.154 88.753 38.436 89.658 39.476 C 89.063 39.895 88.686 40.508 87.99 40.785 C 87.873 41.985 90.672 39.845 90.915 39.065 C 91.317 37.731 89.507 36.917 88.476 36.523 C 86.875 35.902 84.856 36.925 83.247 36.288 C 82.518 36.002 82.015 35.541 81.085 35.667 C 80.213 35.793 79.601 36.38 78.856 36.732 C 78.06 37.11 77.858 38.284 78.009 38.855 L 78.009 38.863 Z M 91.895 30.373 C 90.504 30.373 90.035 33.687 92.339 33.536 C 93.177 33.477 93.412 32.428 94.342 32.386 C 94.962 32.361 96.052 32.957 96.362 33.427 C 97.242 34.752 95.239 34.131 95.071 35.147 C 94.937 35.994 97.61 35.734 98.239 35.6 C 99.32 35.373 100.158 34.618 101.205 34.198 C 102.32 33.745 103.259 33.754 104.482 33.645 C 105.53 33.552 108.354 33.074 108.63 31.992 C 107.843 31.354 107.155 32.101 106.418 31.874 C 105.706 31.656 105.387 30.331 104.96 29.768 C 104.549 29.231 103.812 28.309 103.233 29.005 C 102.731 29.617 103.485 30.968 103.007 31.648 C 101.943 33.15 99.328 32.042 98.063 31.749 C 96.437 31.371 95.423 30.322 93.655 30.289 L 93.588 30.289 C 92.716 30.289 92.289 30.398 91.895 30.398 L 91.895 30.373 Z M 124.008 37.487 C 123.153 36.64 121.971 37.571 121.276 37.932 C 120.488 38.343 118.385 38.712 118.159 39.501 C 118.871 39.996 119.592 41.028 118.175 41.204 C 117.656 41.263 116.08 39.996 115.938 40.986 C 115.888 41.33 120.019 43.747 120.555 44.149 C 120.957 44.451 121.544 45.198 122.072 45.248 C 122.818 45.315 122.835 44.745 123.321 44.468 C 124.041 44.057 125.852 44.376 125.701 43 C 125.625 42.27 124.536 41.674 124.125 41.095 C 123.488 40.197 123.388 39.937 124.033 39.115 C 124.117 39.014 124.159 38.872 124.217 38.771 C 124.402 38.427 124.268 37.756 124.008 37.496 L 124.008 37.487 Z M 135.036 36.741 C 133.503 36.523 131.206 36.867 129.815 37.462 C 129.111 37.764 128.374 37.907 128.248 38.754 C 128.173 39.249 128.491 40.407 128.567 40.978 C 128.818 42.983 130.201 43.948 131.005 41.699 C 131.315 40.843 131.726 40.458 132.572 39.912 C 133.134 39.551 133.679 39.258 134.181 38.746 C 134.517 38.41 136.201 36.9 135.028 36.732 L 135.036 36.741 Z M 121.36 51.172 C 121.008 51.524 120.463 51.969 120.53 52.531 C 121.997 52.565 123.094 53.681 124.41 53.479 C 125.122 53.37 125.868 52.69 126.363 52.338 C 126.639 52.145 126.974 51.331 127.385 51.826 C 127.636 52.137 127.251 52.556 127.117 52.783 C 126.815 53.295 125.324 53.941 126.346 54.57 C 126.958 54.947 127.636 53.974 127.955 53.538 C 128.265 53.102 129.028 52.212 129.078 51.709 C 129.204 50.425 128.248 50.945 127.41 51.071 C 126.522 51.205 125.751 51.13 124.963 50.752 C 124.318 50.442 123.597 49.485 122.742 50.006 C 122.382 50.224 121.645 50.895 121.368 51.172 L 121.36 51.172 Z M 154.428 38.117 C 154.327 38.117 154.428 37.924 154.21 38.024 C 153.699 38.905 153.623 40.072 154.512 40.583 C 155.475 41.146 156.506 40.189 157.47 40.004 C 158.249 39.853 160.713 40.147 159.305 38.78 C 158.744 38.234 156.699 37.982 155.911 38.016 C 155.542 38.033 154.78 38.125 154.428 38.125 L 154.428 38.117 Z M 197.25 104.659 C 197.25 103.686 195.683 105.121 195.34 105.398 C 194.577 106.027 193.823 106.606 193.136 107.227 C 192.616 107.697 192.097 108.318 191.627 108.796 C 190.823 109.61 190.856 109.543 191.585 110.516 C 192.792 112.127 194.401 111.514 196.186 111.128 C 196.856 110.986 198.189 110.415 198.524 111.128 C 198.591 111.279 198.273 112.034 198.281 112.278 C 198.298 112.655 198.407 113.058 198.625 113.469 C 198.943 114.065 198.7 114.501 199.605 113.897 C 200.033 113.612 200.385 113.05 200.443 112.529 C 200.971 112.286 201.466 112.496 201.398 113.134 C 202.203 113.813 202.865 112.764 202.848 112.001 C 202.798 111.925 202.706 111.766 202.639 111.682 C 200.326 111.439 202.102 109.861 200.996 108.561 C 199.555 106.874 198.063 107.764 196.211 107.722 C 195.951 106.405 197.359 106.572 197.359 105.507 C 197.359 105.222 197.25 104.987 197.25 104.659 Z M 138.103 113.15 C 139.411 113.553 139.645 113.293 140.76 113.578 C 141.237 113.696 141.514 114.006 141.95 114.216 C 142.436 114.442 142.83 114.375 143.408 114.535 C 146.609 115.399 141.531 117.824 140.994 118.596 C 140.383 119.468 140.911 120.131 141.103 121.071 C 141.279 121.918 141.246 122.975 141.288 123.856 C 141.346 125.132 141.229 126.273 142.587 124.964 C 143.383 124.192 143.45 123.495 143.827 122.497 C 144.12 121.725 144.665 121.062 144.782 120.265 C 144.908 119.477 144.824 118.528 144.967 117.933 C 145.176 117.077 145.31 116.28 146.383 116.33 C 147.313 116.372 147.606 117.035 148.268 117.522 C 148.319 118.033 148.067 119.2 148.285 119.628 C 148.595 120.265 149.693 120.047 150.288 120.592 C 150.514 121.801 151.336 121.876 151.788 120.894 C 152.199 120.013 152.031 119.46 152.743 118.663 C 153.481 117.84 153.699 117.622 152.509 116.985 C 151.796 116.599 150.841 116.204 150.011 116.112 C 148.83 115.978 148.495 115.609 147.33 115.374 C 146.668 115.239 145.612 114.929 145.293 114.342 C 144.925 113.654 145.386 112.697 144.874 112.001 C 144.581 111.606 143.793 111.011 143.383 110.734 C 142.025 109.819 140.693 108.511 139.033 109.937 C 138.346 110.533 137.701 111.229 136.821 111.64 C 136.276 111.9 134.584 112.093 135.053 113.125 C 135.505 113.117 135.774 113.461 136.201 113.461 C 136.561 113.461 137.659 113.008 138.112 113.142 L 138.103 113.15 Z M 154.009 116.758 C 154.47 117.01 154.931 116.808 155.19 117.27 C 155.777 117.253 156.213 116.859 156.741 116.632 C 157.914 114.585 154.679 114.677 153.623 115.902 C 153.724 116.011 153.632 116.07 153.682 116.229 C 153.757 116.456 153.824 116.666 154 116.758 L 154.009 116.758 Z M 157.822 115.693 C 158.542 115.625 158.995 115.995 159.682 115.776 C 160.11 115.634 160.989 114.895 160.503 114.392 C 159.967 113.822 157.621 114.937 157.294 115.273 C 157.176 115.39 157.051 115.768 157.822 115.693 Z M 182.836 107.311 C 183.566 108.041 184.378 108.871 185.267 109.224 C 186.189 109.593 187.446 108.745 187.161 107.755 C 186.222 107.311 184.286 106.396 183.255 106.463 C 182.602 106.505 182.543 107.017 182.828 107.311 L 182.836 107.311 Z M 150.715 172.469 C 150.841 171.672 149.232 170.732 150.288 170.237 C 151.101 169.851 152.802 170.967 153.439 171.328 C 154.637 171.999 155.676 172.654 156.833 173.342 C 157.294 173.619 158.325 173.904 158.534 174.399 C 158.693 174.785 158.308 175.464 158.358 175.951 C 159.188 176.228 160.193 176.052 161.023 175.867 C 161.677 175.716 162.967 175.657 163.52 175.347 C 165.104 174.449 162.138 172.88 161.291 172.343 C 159.716 171.345 157.922 170.816 156.355 169.902 C 155.626 169.474 155.014 169.004 154.193 168.735 C 153.322 168.45 152.165 168.249 151.235 168.014 C 150.02 167.703 149.634 167.636 148.486 168.324 C 148.159 168.517 146.442 169.348 146.374 169.6 C 146.198 170.279 147.74 170.43 148.159 170.657 C 149.073 171.152 149.291 171.437 149.433 172.461 C 149.433 172.738 150.707 172.998 150.707 172.461 L 150.715 172.469 Z M 168.842 179.265 C 170.057 179.156 171.113 178.837 172.412 178.837 C 173.007 178.837 173.928 179.005 174.347 178.518 C 174.817 177.99 174.473 177.914 174.113 177.369 C 172.311 177.117 169.487 175.85 167.777 176.496 C 167.149 176.731 167.249 177.1 166.856 177.453 C 166.554 177.73 165.951 177.856 165.741 178.082 C 164.769 179.139 166.73 179.148 167.568 179.148 C 167.819 179.148 168.431 179.357 168.842 179.257 L 168.842 179.265 Z M 384.773 244.214 C 383.223 244.214 383.331 245.934 382.829 246.882 C 382.209 248.031 381.044 248.887 379.988 249.684 C 378.848 250.54 377.683 251.345 376.636 252.335 C 376.192 252.755 375.555 253.325 375.488 253.988 C 375.437 254.534 375.731 255.129 375.764 255.7 C 375.848 257.034 376.091 258.502 375.882 259.87 C 375.798 260.449 375.563 261.254 375.228 261.732 C 374.943 262.152 374.474 262.353 374.239 262.79 C 373.954 263.301 374.113 263.83 374.189 264.375 C 374.281 264.979 374.222 265.558 374.189 266.171 C 374.147 266.892 374.39 267.329 374.666 267.966 C 374.901 268.529 374.968 269.158 375.228 269.72 C 375.655 270.66 376.653 271.784 377.717 271.893 C 378.32 271.952 378.898 272.187 379.443 271.893 C 379.862 271.666 380.315 271.138 380.583 270.66 C 380.918 270.056 380.918 269.359 381.169 268.747 C 381.412 268.151 381.639 267.614 381.764 266.976 C 381.915 266.221 381.898 265.5 381.966 264.736 C 382.049 263.847 382.418 263.025 382.644 262.186 C 383.013 260.835 382.82 259.392 383.214 258.066 C 383.507 257.068 383.876 256.203 384.019 255.163 C 384.119 254.441 384.203 253.862 384.614 253.233 C 385.393 252.042 385.929 251.102 385.929 249.609 C 385.929 248.988 385.862 248.451 385.745 247.889 C 385.611 247.276 385.661 246.647 385.527 246.043 C 385.452 245.69 385.251 245.405 385.251 245.036 C 385.251 244.415 384.991 244.214 384.773 244.214 Z M 440.342 199.183 C 438.942 198.244 438.196 203.421 439.034 204.083 C 439.613 204.536 441.406 203.504 441.766 202.875 C 442.386 201.784 441.548 200.82 441.397 199.846 L 440.333 199.183 L 440.342 199.183 Z M 525.316 159.909 C 525.316 158.634 522.492 161.696 522.542 162.686 C 523.732 162.921 524.42 162.082 524.914 161.243 C 525.149 160.849 525.316 160.362 525.316 159.909 Z M 512.687 164.565 C 509.712 164.565 510.827 169.692 510.844 171.068 C 513.442 171.815 513.618 166.881 513.618 165.363 C 513.618 165.077 513.165 164.565 512.687 164.565 Z M 258.97 67.113 C 259.498 67.667 260.168 68.019 260.319 68.825 C 262.104 68.674 272.244 66.115 271.582 63.807 C 271.188 63.438 270.518 63.061 270.149 62.591 C 269.781 62.129 269.764 61.039 269.253 60.686 C 268.314 60.032 265.104 61.257 263.965 61.366 C 263.16 61.441 262.196 61.223 261.501 61.685 C 260.906 62.079 260.763 62.834 260.168 63.254 C 259.347 63.833 255.761 64.101 256.464 65.36 C 257.152 65.376 258.015 65.192 258.308 65.913 C 258.434 66.224 258.677 66.803 258.97 67.113 Z M 120.84 29.693 C 120.153 29.005 119.432 28.653 118.477 28.501 C 117.773 28.392 116.172 28.577 115.779 29.265 C 115.536 29.693 116.441 31.48 117.036 30.809 C 117.371 30.44 116.885 30.146 117.262 29.794 C 117.647 29.441 118.301 29.718 118.645 30.02 C 118.929 30.272 119.281 30.616 119.29 30.968 C 119.315 31.539 118.837 31.623 118.368 31.514 C 118.075 31.446 117.572 30.968 117.279 31.144 C 116.784 31.438 117.404 31.698 117.681 31.866 C 118.184 32.185 118.494 32.663 118.971 32.932 C 119.491 33.225 120.094 33.427 120.681 33.427 C 121.971 33.427 121.737 32.16 121.695 31.178 C 121.678 30.809 121.62 30.465 121.376 30.213 C 121.15 29.987 121.05 29.886 120.84 29.676 L 120.84 29.693 Z M 119.985 23.065 C 119.206 22.175 118.284 21.336 117.505 20.455 C 117.077 19.977 116.667 19.725 116.105 19.415 C 115.611 19.138 115.1 19.104 114.555 18.903 C 113.968 18.685 113.675 18.148 113.005 18.19 C 112.192 18.24 111.488 18.333 110.65 18.299 C 110.264 18.282 109.577 18.123 109.569 18.677 C 109.569 19.121 110.574 19.398 110.901 19.692 C 111.614 20.338 110.968 21.261 112.225 21.135 C 113.013 21.051 113.935 20.942 114.681 21.261 C 114.806 21.311 115.125 21.63 115.293 21.731 C 115.552 21.89 115.787 22.066 116.03 22.251 C 116.449 22.57 116.901 22.737 117.354 22.998 C 117.815 23.258 118.485 23.912 119.072 23.912 C 119.541 23.912 120.622 23.795 119.977 23.056 L 119.985 23.065 Z M 97.988 23.014 C 98.549 23.014 99.437 22.637 99.965 22.972 C 99.655 23.476 98.524 23.627 97.988 23.853 C 97.476 24.063 96.496 24.357 96.278 24.936 C 96.135 25.313 96.328 25.8 96.596 26.06 C 97.208 26.656 97.56 26.245 98.155 25.85 C 98.842 25.397 99.672 25.095 100.233 24.457 C 100.476 24.181 100.485 24.038 100.82 23.803 C 101.046 23.644 101.373 23.509 101.566 23.325 C 101.909 23.006 102.069 22.167 101.717 21.781 C 101.407 21.437 100.577 21.655 100.183 21.68 C 99.404 21.722 97.032 21.546 97.032 22.536 C 97.032 22.922 97.56 23.014 97.996 23.014 L 97.988 23.014 Z M 82.501 31.354 C 83.398 31.874 84.144 31.203 84.588 30.524 C 85.082 29.777 85.56 29.072 86.347 28.577 C 86.85 28.258 86.976 28.317 87.512 28.325 C 87.848 28.325 88.535 28.376 88.862 28.191 C 89.272 27.965 89.49 27.335 89.775 26.958 C 90.068 26.563 90.429 26.177 90.353 25.657 C 89.616 25.607 89.465 25.439 88.811 25.808 C 88.367 26.06 87.982 26.37 87.588 26.63 C 86.783 27.159 85.853 26.84 84.923 27.167 C 84.361 27.369 84.068 27.721 83.632 28.074 C 83.23 28.401 82.761 28.644 82.359 28.997 C 81.965 29.341 80.305 30.322 80.607 30.909 C 80.926 31.01 81.236 31.136 81.562 31.136 C 81.889 31.136 82.157 31.136 82.526 31.346 L 82.501 31.354 Z M 126.396 33.922 C 126.899 34.417 127.276 34.727 128.055 34.878 C 128.399 34.945 128.835 35.063 129.178 34.878 C 129.556 34.668 129.539 34.324 129.698 33.913 C 129.824 33.569 130.092 33.477 129.765 33.116 C 129.614 32.948 129.078 32.705 128.86 32.579 C 128.173 32.185 127.427 32.26 126.723 32.688 C 126.354 32.915 126.162 33.678 126.405 33.922 L 126.396 33.922 Z M 516.073 239.238 C 516.291 239.238 516.509 239.431 516.735 239.465 C 518.093 239.633 519.576 238.047 520.649 237.334 C 521.445 236.805 523.598 235.958 522.576 234.666 C 521.679 233.525 520.33 234.934 519.593 235.53 C 518.621 236.319 517.447 236.83 516.66 237.913 C 516.341 238.349 515.704 239.238 516.073 239.238 Z M 528.392 223.582 C 528.275 222.701 523.808 223.314 524.344 224.597 C 524.57 225.126 526.49 225.076 526.984 225.05 C 527.638 225.025 529.49 224.916 528.978 223.792 L 528.392 223.574 L 528.392 223.582 Z M 512.905 235.396 C 512.587 235.077 509.394 234.666 510.006 236.084 C 510.106 236.31 510.97 236.83 511.204 236.889 C 511.757 237.04 512.361 236.604 512.754 236.209 C 513.014 235.949 513.224 235.714 512.905 235.396 Z M 507.299 235.547 C 506.553 235.547 505.858 235.287 505.103 235.396 C 504.777 235.446 503.88 235.798 503.98 236.285 C 504.123 236.948 506.913 236.822 507.45 236.285 C 507.634 236.1 507.5 235.547 507.299 235.547 Z M 567.1 226.024 C 566.22 225.143 565.499 226.754 564.535 227.207 C 563.371 227.761 562.549 227.492 562.457 228.977 C 562.365 230.454 563.287 230.378 564.376 229.799 C 565.575 229.162 566.245 228.356 566.957 227.274 C 567.183 226.922 567.251 226.166 567.108 226.015 L 567.1 226.024 Z M 570.2 226.166 C 570.536 225.587 570.326 225.025 570.2 224.48 C 569.53 224.346 569.203 223.624 568.642 223.339 C 567.963 222.986 567.108 222.953 567.41 223.8 C 567.527 224.144 567.988 224.782 568.181 225.109 C 568.441 225.562 568.985 226.049 569.396 226.46 C 569.555 226.619 570.024 226.46 570.209 226.166 L 570.2 226.166 Z" fill="currentColor" fill-rule="nonzero"></path>
</svg>