<svg preserveAspectRatio="none" width="100%" height="100%" overflow="visible" style="display: block;" viewBox="0 0 40 40" fill="none" xmlns="http://www.w3.org/2000/svg">
<g id="build_circle">
<path id="Vector" d="M26.8317 28.645L28.585 27.0062C28.8061 26.784 28.9167 26.5386 28.9167 26.27C28.9167 26.0011 28.8061 25.7562 28.585 25.5354L22.3417 19.2817C22.4606 18.9128 22.5617 18.5497 22.645 18.1925C22.7283 17.8356 22.77 17.4619 22.77 17.0717C22.77 15.4472 22.1956 14.0606 21.0467 12.9117C19.8978 11.7628 18.51 11.1883 16.8833 11.1883C16.5733 11.1883 16.2729 11.2142 15.9821 11.2658C15.691 11.3175 15.3994 11.3989 15.1075 11.51C14.8517 11.6556 14.6665 11.8426 14.5521 12.0712C14.4376 12.3001 14.4704 12.5014 14.6504 12.675L17.6025 15.585L15.4521 17.6104L12.5933 14.7933C12.4411 14.6478 12.2506 14.5906 12.0217 14.6217C11.7928 14.6528 11.6333 14.7794 11.5433 15.0017C11.3978 15.3206 11.294 15.6603 11.2321 16.0208C11.1699 16.3814 11.1387 16.7304 11.1387 17.0679C11.1387 18.6671 11.696 20.0185 12.8104 21.1221C13.9249 22.226 15.2836 22.7779 16.8867 22.7779C17.2622 22.7779 17.6381 22.7465 18.0142 22.6837C18.3903 22.621 18.7685 22.5235 19.1487 22.3912L25.3504 28.645C25.5468 28.8381 25.7944 28.9346 26.0933 28.9346C26.3922 28.9346 26.6383 28.8381 26.8317 28.645ZM20 36.9158C17.6825 36.9158 15.4949 36.4731 13.4371 35.5875C11.3796 34.7019 9.5825 33.4908 8.04583 31.9542C6.50917 30.4175 5.29806 28.6204 4.4125 26.5629C3.52694 24.5051 3.08417 22.3175 3.08417 20C3.08417 17.6547 3.52694 15.4532 4.4125 13.3954C5.29806 11.3379 6.50917 9.54778 8.04583 8.025C9.5825 6.50222 11.3796 5.29639 13.4371 4.4075C15.4949 3.51861 17.6825 3.07417 20 3.07417C22.3453 3.07417 24.5468 3.51861 26.6046 4.4075C28.6621 5.29639 30.4522 6.50222 31.975 8.025C33.4978 9.54778 34.7036 11.3379 35.5925 13.3954C36.4814 15.4532 36.9258 17.6547 36.9258 20C36.9258 22.3175 36.4814 24.5051 35.5925 26.5629C34.7036 28.6204 33.4978 30.4175 31.975 31.9542C30.4522 33.4908 28.6621 34.7019 26.6046 35.5875C24.5468 36.4731 22.3453 36.9158 20 36.9158ZM20 34.0771C23.9178 34.0771 27.2435 32.7051 29.9771 29.9612C32.7104 27.2171 34.0771 23.8967 34.0771 20C34.0771 16.0822 32.7104 12.7565 29.9771 10.0229C27.2435 7.28958 23.9178 5.92292 20 5.92292C16.1033 5.92292 12.7829 7.28958 10.0387 10.0229C7.29486 12.7565 5.92292 16.0822 5.92292 20C5.92292 23.8967 7.29486 27.2171 10.0387 29.9612C12.7829 32.7051 16.1033 34.0771 20 34.0771Z" fill="var(--fill-0, #2DA2DB)"/>
</g>
</svg>
