<svg preserveAspectRatio="none" width="100%" height="100%" overflow="visible" style="display: block;" viewBox="0 0 40 40" fill="none" xmlns="http://www.w3.org/2000/svg">
<g id="connected_tv">
<path id="Vector" d="M5.92303 5.74083H34.0773C34.5086 5.74088 34.8806 5.87041 35.2248 6.16076L35.3713 6.29552C35.7566 6.68066 35.9259 7.09648 35.926 7.58947V29.0768C35.926 29.5047 35.7971 29.8747 35.507 30.2174L35.3723 30.3629C34.9874 30.7466 34.5714 30.9156 34.0773 30.9156H25.3898V33.8297C25.3898 33.9721 25.3518 34.0494 25.2726 34.1276L25.2717 34.1285C25.1888 34.2102 25.1057 34.2496 24.9601 34.2496H15.0402C14.893 34.2496 14.8137 34.2097 14.7365 34.1324C14.6595 34.0553 14.6203 33.9766 14.6203 33.8297V30.9156H5.92303C5.43282 30.9156 5.01918 30.7473 4.63592 30.3639L4.50214 30.2184C4.21314 29.8758 4.08417 29.5057 4.08417 29.0768V7.58947C4.08419 7.09538 4.25323 6.67938 4.6369 6.29455V6.29357C4.97258 5.95659 5.33127 5.78603 5.74335 5.74865L5.92303 5.74083ZM4.92303 30.0768H35.0773V6.58947H4.92303V30.0768ZM9.94159 24.5406C10.0782 24.5407 10.1825 24.5794 10.3019 24.6988C10.4211 24.8182 10.4592 24.9226 10.4592 25.0592C10.4591 25.1962 10.421 25.3004 10.3019 25.4195C10.1825 25.5389 10.0782 25.5767 9.94159 25.5768C9.80435 25.5768 9.69961 25.5389 9.58026 25.4195C9.46111 25.3004 9.42312 25.1962 9.42303 25.0592C9.42303 24.9226 9.46102 24.8182 9.58026 24.6988C9.69962 24.5795 9.80435 24.5406 9.94159 24.5406ZM9.49237 20.3746C10.9314 20.3746 12.124 20.8679 13.1281 21.8736C14.1323 22.8795 14.6262 24.0746 14.6262 25.5172C14.6262 25.5308 14.6246 25.5384 14.6242 25.5406V25.5397C14.6225 25.5421 14.6179 25.5479 14.6086 25.5572L14.6076 25.5582C14.5974 25.5684 14.5904 25.5742 14.5881 25.5758L14.5646 25.5768C14.5517 25.5768 14.5441 25.5763 14.5412 25.5758C14.5392 25.5744 14.5324 25.5699 14.5226 25.5602V25.5592C14.5157 25.5522 14.512 25.5481 14.5109 25.5465C14.5109 25.5465 14.5099 25.5445 14.509 25.5397C14.5078 25.5336 14.506 25.521 14.506 25.5016C14.506 24.1289 14.0062 22.9296 13.0324 21.9596C12.0589 20.99 10.8569 20.4938 9.4826 20.4938L9.46014 20.4918C9.45755 20.49 9.45166 20.4853 9.44256 20.4762H9.44159C9.43141 20.466 9.42672 20.4592 9.42499 20.4567V20.4557C9.42454 20.4534 9.42303 20.4459 9.42303 20.4322C9.42305 20.4185 9.42451 20.4103 9.42499 20.4078L9.44061 20.3902C9.44827 20.3826 9.45267 20.3787 9.45428 20.3776L9.45917 20.3766C9.46419 20.3757 9.47481 20.3746 9.49237 20.3746ZM9.49042 16.2076C12.0987 16.2076 14.2776 17.1049 16.0861 18.9137C17.8945 20.7218 18.7922 22.903 18.7922 25.5172C18.7922 25.5308 18.7916 25.5385 18.7912 25.5406V25.5397C18.7896 25.5419 18.785 25.5478 18.7756 25.5572L18.7746 25.5582C18.7645 25.5683 18.7575 25.5732 18.7551 25.5748C18.7529 25.5763 18.7533 25.5765 18.7551 25.5758C18.7527 25.5762 18.7451 25.5768 18.7316 25.5768C18.718 25.5768 18.7103 25.5762 18.7082 25.5758H18.7092L18.6916 25.5602L18.6906 25.5592L18.675 25.5406C18.6745 25.538 18.673 25.5306 18.673 25.5172C18.673 22.9848 17.7666 20.7978 15.9758 19.0133V19.0123C14.1877 17.2311 12.0107 16.3268 9.49921 16.3268C9.48348 16.3268 9.47406 16.3256 9.46991 16.3248C9.46781 16.3244 9.46655 16.324 9.466 16.3238H9.46503L9.4621 16.3219C9.45905 16.3198 9.45198 16.3145 9.44159 16.3043C9.43079 16.2936 9.42569 16.2862 9.42401 16.2838C9.42359 16.2807 9.42305 16.275 9.42303 16.2662C9.42303 16.2523 9.42451 16.2443 9.42499 16.2418L9.44061 16.2233C9.44801 16.2159 9.45243 16.2119 9.45428 16.2106C9.45336 16.2109 9.45432 16.2103 9.45819 16.2096C9.46278 16.2087 9.47336 16.2077 9.49042 16.2076Z" stroke="var(--stroke-0, #2DA2DB)" stroke-width="2"/>
</g>
</svg>
