<svg preserveAspectRatio="none" width="100%" height="100%" overflow="visible" style="display: block;" viewBox="0 0 48 48" fill="none" xmlns="http://www.w3.org/2000/svg">
<g id="chart-area">
<path id="Vector" d="M6 6V38C6 39.0609 6.42143 40.0783 7.17157 40.8284C7.92172 41.5786 8.93913 42 10 42H42M14 22.4138C14.0001 22.1491 14.1051 21.8953 14.292 21.7079L18.292 17.7079C18.3849 17.6147 18.4952 17.5408 18.6167 17.4904C18.7382 17.44 18.8685 17.4141 19 17.4141C19.1315 17.4141 19.2618 17.44 19.3833 17.4904C19.5048 17.5408 19.6151 17.6147 19.708 17.7079L26.292 24.2919C26.3849 24.385 26.4952 24.4589 26.6167 24.5093C26.7382 24.5597 26.8685 24.5856 27 24.5856C27.1315 24.5856 27.2618 24.5597 27.3833 24.5093C27.5048 24.4589 27.6151 24.385 27.708 24.2919L36.292 15.7079C36.4317 15.5678 36.6099 15.4723 36.8039 15.4335C36.998 15.3947 37.1991 15.4143 37.382 15.4899C37.5649 15.5655 37.7212 15.6936 37.8312 15.8581C37.9412 16.0226 38 16.216 38 16.4138V31.9999C38 32.5303 37.7893 33.039 37.4142 33.4141C37.0391 33.7891 36.5304 33.9999 36 33.9999H16C15.4696 33.9999 14.9609 33.7891 14.5858 33.4141C14.2107 33.039 14 32.5303 14 31.9999V22.4138Z" stroke="var(--stroke-0, #2DA2DB)" stroke-width="3" stroke-linecap="round" stroke-linejoin="round"/>
</g>
</svg>
