<svg preserveAspectRatio="none" width="100%" height="100%" overflow="visible" style="display: block;" viewBox="0 0 48 48" fill="none" xmlns="http://www.w3.org/2000/svg">
<g id="diamond">
<path id="Vector" d="M24 40.276C23.511 40.276 23.0365 40.1807 22.5765 39.99C22.1168 39.7997 21.717 39.4972 21.377 39.0825L5.274 19.727C5.00867 19.4207 4.80767 19.0872 4.671 18.7265C4.53467 18.3662 4.4665 17.9787 4.4665 17.564C4.4665 17.299 4.50383 17.0422 4.5785 16.7935C4.65283 16.5448 4.748 16.288 4.864 16.023L8.9585 7.7335C9.24917 7.16183 9.67 6.70817 10.221 6.3725C10.7723 6.0365 11.3752 5.8685 12.0295 5.8685H35.9705C36.6248 5.8685 37.2277 6.0365 37.779 6.3725C38.33 6.70817 38.7548 7.16183 39.0535 7.7335L43.136 16.023C43.252 16.288 43.3472 16.5448 43.4215 16.7935C43.4962 17.0422 43.5335 17.299 43.5335 17.564C43.5335 17.9787 43.4653 18.3662 43.329 18.7265C43.1923 19.0872 42.9953 19.4207 42.738 19.727L26.623 39.0825C26.283 39.4972 25.8832 39.7997 25.4235 39.99C24.9635 40.1807 24.489 40.276 24 40.276ZM18.388 16.5H29.612L25.9215 9.1315H22.0785L18.388 16.5ZM22.5 35.335V19.5H9.3295L22.5 35.335ZM25.5 35.335L38.6705 19.5H25.5V35.335ZM32.974 16.5H39.5945L35.9165 9.1315H29.2835L32.974 16.5ZM8.4055 16.5H15.038L18.7165 9.1315H12.0835L8.4055 16.5Z" fill="var(--fill-0, #F4813E)"/>
</g>
</svg>
