<svg preserveAspectRatio="none" width="100%" height="100%" overflow="visible" style="display: block;" viewBox="0 0 48 48" fill="none" xmlns="http://www.w3.org/2000/svg">
<g id="globe">
<path id="Vector" d="M44 24C44 35.0457 35.0457 44 24 44M44 24C44 12.9543 35.0457 4 24 4M44 24H4M24 44C12.9543 44 4 35.0457 4 24M24 44C18.8645 38.6077 16 31.4465 16 24C16 16.5535 18.8645 9.39231 24 4M24 44C29.1355 38.6077 32 31.4465 32 24C32 16.5535 29.1355 9.39231 24 4M4 24C4 12.9543 12.9543 4 24 4" stroke="var(--stroke-0, #2DA2DB)" stroke-width="3" stroke-linecap="round" stroke-linejoin="round"/>
</g>
</svg>
