<svg preserveAspectRatio="none" width="100%" height="100%" overflow="visible" style="display: block;" viewBox="0 0 48 48" fill="none" xmlns="http://www.w3.org/2000/svg">
<g id="globe">
<path id="Vector" d="M24.0223 5.189C26.6372 5.189 29.0713 5.68392 31.3397 6.66459C31.9999 6.95006 32.6339 7.26511 33.243 7.60795L29.6951 6.51224C29.0292 6.30649 28.3498 6.13246 27.658 5.98978L26.9627 5.85795C26.0018 5.69046 25.0153 5.60796 24.0047 5.60795C18.9329 5.60795 14.5655 7.39892 10.9891 10.9546C7.40852 14.5145 5.60736 18.8933 5.60725 23.9995C5.60725 24.0679 5.61223 24.141 5.61994 24.2173V25.6792H14.0692C15.9334 25.6792 17.4878 26.3237 18.8143 27.6499C20.1413 28.977 20.7849 30.529 20.785 32.3882V32.9429H14.6297V39.9322L15.452 40.3492C16.7363 40.9998 18.0937 41.5016 19.5213 41.856C20.9663 42.2146 22.4606 42.3921 23.9998 42.3921C28.9936 42.3921 33.2929 40.664 36.8094 37.2222C40.3159 33.7903 42.1645 29.5846 42.3201 24.6812V24.6333L42.3231 24.521C42.3299 24.4219 42.3328 24.3218 42.3328 24.2232L39.4041 23.7642C39.2561 24.2248 38.9862 24.6098 38.5457 24.94C38.1454 25.2398 37.676 25.4019 37.076 25.4019H33.1356C32.4074 25.4018 31.8209 25.16 31.2957 24.6343H31.2967C30.7712 24.1081 30.5282 23.5207 30.5281 22.7906V19.2349H22.3133V16.7036C22.3134 15.9641 22.5577 15.377 23.0799 14.857C23.6053 14.3339 24.1929 14.0913 24.9246 14.0913H28.4803V11.4917C28.4803 11.2869 28.5747 10.8507 28.9832 10.1197C29.1599 9.80373 29.3139 9.61814 29.4266 9.51517C29.5324 9.41855 29.5856 9.40801 29.5867 9.40775L34.3914 8.30814C35.4489 9.00501 36.4226 9.79748 37.3123 10.687C38.8944 12.2686 40.1721 14.1144 41.1444 16.2359L41.3348 16.6646C42.3162 18.9379 42.8114 21.3738 42.8114 23.9869C42.8113 26.5994 42.3157 29.0296 41.3348 31.2935C40.3407 33.5888 38.9984 35.5805 37.3074 37.2798C35.7246 38.8705 33.8784 40.1533 31.7586 41.1285L31.3309 41.3199C29.0594 42.3034 26.626 42.7993 24.0155 42.7994C21.4036 42.7994 18.9726 42.3055 16.7078 41.3277C14.4156 40.338 12.4218 38.9909 10.7156 37.2847C9.00955 35.5786 7.66242 33.5842 6.67268 31.2906C5.69483 29.0245 5.201 26.5913 5.201 23.9761C5.20105 21.3614 5.69475 18.9282 6.67268 16.6607C7.66203 14.367 9.00786 12.3829 10.7098 10.6949C12.4151 9.0031 14.4102 7.65986 16.7078 6.66556V6.66459C18.9742 5.68356 21.4072 5.18903 24.0223 5.189Z" stroke="var(--stroke-0, #2DA2DB)" stroke-width="3"/>
</g>
</svg>
