<svg preserveAspectRatio="none" width="100%" height="100%" overflow="visible" style="display: block;" viewBox="0 0 48 48" fill="none" xmlns="http://www.w3.org/2000/svg">
<g id="hard-hat">
<path id="Vector" d="M20 20V10C20 9.46957 20.2107 8.96086 20.5858 8.58579C20.9609 8.21071 21.4696 8 22 8H26C26.5304 8 27.0391 8.21071 27.4142 8.58579C27.7893 8.96086 28 9.46957 28 10V20M28 12C31.1826 12 34.2348 13.2643 36.4853 15.5147C38.7357 17.7652 40 20.8174 40 24V30M8 30V24C8 20.8174 9.26428 17.7652 11.5147 15.5147C13.7652 13.2643 16.8174 12 20 12M6 30H42C43.1046 30 44 30.8954 44 32V36C44 37.1046 43.1046 38 42 38H6C4.89543 38 4 37.1046 4 36V32C4 30.8954 4.89543 30 6 30Z" stroke="var(--stroke-0, #2DA2DB)" stroke-width="3" stroke-linecap="round" stroke-linejoin="round"/>
</g>
</svg>
