<svg preserveAspectRatio="none" width="100%" height="100%" overflow="visible" style="display: block;" viewBox="0 0 48 48" fill="none" xmlns="http://www.w3.org/2000/svg">
<g id="rocket">
<path id="Vector" d="M24 30V40C24 40 30.06 38.9 32 36C34.16 32.76 32 26 32 26M24 30C26.7934 28.9369 29.4734 27.5969 32 26M24 30L18 23.9995M18 23.9995C19.0643 21.2384 20.4044 18.5916 22 16.0995C24.3304 12.3735 27.5752 9.30562 31.426 7.1877C35.2768 5.06979 39.6053 3.97226 44 3.99952C44 9.43952 42.44 19 32 26M18 23.9995L8 24.0002C8 24.0002 9.1 17.9402 12 16.0002C15.24 13.8402 22 16.0995 22 16.0995M9 32.9997C6 35.5197 5 42.9997 5 42.9997C5 42.9997 12.48 41.9997 15 38.9997C16.42 37.3197 16.4 34.7397 14.82 33.1797C14.0426 32.4377 13.0186 32.0089 11.9445 31.9757C10.8703 31.9425 9.82175 32.3071 9 32.9997Z" stroke="var(--stroke-0, #2DA2DB)" stroke-width="3" stroke-linecap="round" stroke-linejoin="round"/>
</g>
</svg>
