<svg width="16" height="12" viewBox="0 0 16 12" fill="none" xmlns="http://www.w3.org/2000/svg">
<path d="M13.0412 6.68129H0.85175C0.607083 6.68129 0.404 6.60045 0.2425 6.43879C0.0808333 6.27712 0 6.07404 0 5.82954C0 5.58504 0.0808333 5.38195 0.2425 5.22029C0.404 5.05862 0.607083 4.97779 0.85175 4.97779H13.0412L9.50875 1.43929C9.33875 1.27329 9.25792 1.07537 9.26625 0.845536C9.27458 0.615703 9.36375 0.415786 9.53375 0.245786C9.69975 0.0799528 9.89667 -0.00196425 10.1245 3.57496e-05C10.3523 0.00186908 10.5512 0.0857859 10.7212 0.251786L15.7022 5.22679C15.7936 5.31812 15.8599 5.41345 15.9012 5.51279C15.9424 5.61195 15.963 5.71754 15.963 5.82954C15.963 5.94154 15.9424 6.04712 15.9012 6.14629C15.8599 6.24562 15.7936 6.34095 15.7022 6.43229L10.7462 11.3823C10.5762 11.5483 10.3773 11.6322 10.1495 11.634C9.92167 11.636 9.72475 11.5521 9.55875 11.3823C9.38875 11.2163 9.30375 11.0142 9.30375 10.776C9.30375 10.5379 9.38875 10.3338 9.55875 10.1638L13.0412 6.68129Z" fill="white"/>
</svg>
