<svg width="24" height="24" viewBox="0 0 24 24" fill="none" xmlns="http://www.w3.org/2000/svg">
<path d="M16.8917 12.8019H4.70221C4.45755 12.8019 4.25446 12.7211 4.09296 12.5594C3.9313 12.3977 3.85046 12.1946 3.85046 11.9501C3.85046 11.7056 3.9313 11.5026 4.09296 11.3409C4.25446 11.1792 4.45755 11.0984 4.70221 11.0984H16.8917L13.3592 7.55989C13.1892 7.39389 13.1084 7.19597 13.1167 6.96614C13.125 6.73631 13.2142 6.53639 13.3842 6.36639C13.5502 6.20056 13.7471 6.11864 13.975 6.12064C14.2028 6.12247 14.4017 6.20639 14.5717 6.37239L19.5527 11.3474C19.644 11.4387 19.7104 11.5341 19.7517 11.6334C19.7929 11.7326 19.8135 11.8381 19.8135 11.9501C19.8135 12.0621 19.7929 12.1677 19.7517 12.2669C19.7104 12.3662 19.644 12.4616 19.5527 12.5529L14.5967 17.5029C14.4267 17.6689 14.2278 17.7528 14 17.7546C13.7721 17.7566 13.5752 17.6727 13.4092 17.5029C13.2392 17.3369 13.1542 17.1348 13.1542 16.8966C13.1542 16.6585 13.2392 16.4544 13.4092 16.2844L16.8917 12.8019Z" fill="white"/>
</svg>
