<svg preserveAspectRatio="none" width="100%" height="100%" overflow="visible" style="display: block;" viewBox="0 0 24 24" fill="none" xmlns="http://www.w3.org/2000/svg">
<g id="hard-hat">
<path id="Vector" d="M10 10V5C10 4.73478 10.1054 4.48043 10.2929 4.29289C10.4804 4.10536 10.7348 4 11 4H13C13.2652 4 13.5196 4.10536 13.7071 4.29289C13.8946 4.48043 14 4.73478 14 5V10M14 6C15.5913 6 17.1174 6.63214 18.2426 7.75736C19.3679 8.88258 20 10.4087 20 12V15M4 15V12C4 10.4087 4.63214 8.88258 5.75736 7.75736C6.88258 6.63214 8.4087 6 10 6M3 15H21C21.5523 15 22 15.4477 22 16V18C22 18.5523 21.5523 19 21 19H3C2.44772 19 2 18.5523 2 18V16C2 15.4477 2.44772 15 3 15Z" stroke="var(--stroke-0, #2DA2DB)" stroke-width="1.5" stroke-linecap="round" stroke-linejoin="round"/>
</g>
</svg>
