<svg preserveAspectRatio="none" width="100%" height="100%" overflow="visible" style="display: block;" viewBox="0 0 40 40" fill="none" xmlns="http://www.w3.org/2000/svg">
<g id="handyman">
<path id="Vector" d="M32.1521 37.1946C31.9654 37.1946 31.7911 37.1619 31.6292 37.0967C31.4669 37.0311 31.3097 36.9222 31.1575 36.77L20.925 26.5371C20.7728 26.3849 20.6639 26.2278 20.5983 26.0658C20.5328 25.9036 20.5 25.7292 20.5 25.5425C20.5 25.3558 20.5328 25.1799 20.5983 25.0146C20.6639 24.849 20.7728 24.6901 20.925 24.5379L24.4863 20.9763C24.6385 20.8243 24.7957 20.7139 24.9579 20.645C25.1201 20.5761 25.2978 20.5417 25.4908 20.5417C25.6775 20.5417 25.8519 20.5761 26.0142 20.645C26.1761 20.7139 26.3332 20.8243 26.4854 20.9763L36.7183 31.2192C36.8706 31.3714 36.9811 31.5269 37.05 31.6858C37.1186 31.8444 37.1529 32.0204 37.1529 32.2138C37.1529 32.4004 37.1169 32.5764 37.045 32.7417C36.9728 32.9072 36.8639 33.0628 36.7183 33.2083L33.1567 36.77C33.0044 36.9222 32.8474 37.0311 32.6854 37.0967C32.5232 37.1619 32.3454 37.1946 32.1521 37.1946ZM32.1621 33.9458L33.8942 32.2138L25.4808 23.7908L23.7492 25.5225L32.1621 33.9458ZM7.81625 37.185C7.62958 37.185 7.44819 37.1539 7.27208 37.0917C7.09625 37.0294 6.93222 36.9222 6.78 36.77L3.26 33.25C3.10778 33.1044 3.00056 32.9453 2.93833 32.7725C2.87611 32.6 2.845 32.4171 2.845 32.2238C2.845 32.0371 2.87611 31.8611 2.93833 31.6958C3.00056 31.5303 3.10778 31.3714 3.26 31.2192L12.8642 21.625H16.4954L18.0488 20.0717L10.6375 12.6604H8.20292L2.78542 7.24292L7.13958 2.88875L12.5571 8.30625V10.7408L19.9683 18.1521L25.415 12.7054L22.5733 9.86417L24.9067 7.54083H20.1983L19.3587 6.69125L24.9513 1.08875L25.8008 1.94833V6.64667L28.1342 4.31333L35.385 11.5742C35.815 12.0108 36.1547 12.51 36.4042 13.0717C36.6533 13.6331 36.7779 14.2293 36.7779 14.8604C36.7779 15.456 36.6744 16.0289 36.4675 16.5792C36.2603 17.1297 35.9767 17.6265 35.6167 18.0696L31.9854 14.4383L29.5925 16.8317L27.3758 14.615L18.415 23.5762V27.1758L8.81083 36.77C8.65861 36.9222 8.50306 37.0294 8.34417 37.0917C8.18528 37.1539 8.00931 37.185 7.81625 37.185ZM7.81625 33.9458L16.2492 25.5225V23.7908H14.5171L6.08417 32.2138L7.81625 33.9458ZM7.81625 33.9458L6.08417 32.2138L6.97083 33.0588L7.81625 33.9458Z" fill="var(--fill-0, #2DA2DB)"/>
</g>
</svg>
