<svg preserveAspectRatio="none" width="100%" height="100%" overflow="visible" style="display: block;" viewBox="0 0 40 40" fill="none" xmlns="http://www.w3.org/2000/svg">
<g id="manufacturing">
<g id="Vector">
<mask id="path-1-inside-1_0_574" fill="white">
<path d="M9.01583 17.1446C8.47139 17.004 7.95944 16.8068 7.48 16.5529C7.00056 16.299 6.57639 15.981 6.2075 15.5988L5.33042 15.9538C5.03292 16.0715 4.74389 16.0849 4.46333 15.9937C4.1825 15.9026 3.9675 15.7228 3.81833 15.4542L3.54583 15.0054C3.39278 14.7646 3.33347 14.4956 3.36792 14.1983C3.40236 13.9014 3.53722 13.6457 3.7725 13.4312L4.57625 12.6733C4.43736 12.14 4.36792 11.6189 4.36792 11.11C4.36792 10.6014 4.43736 10.0788 4.57625 9.54208L3.7725 8.76708C3.53722 8.55764 3.40236 8.29764 3.36792 7.98708C3.33347 7.67625 3.39236 7.39972 3.54458 7.1575L3.7625 6.79458C3.90806 6.52458 4.13139 6.33764 4.4325 6.23375C4.73361 6.12986 5.03736 6.1368 5.34375 6.25458L6.2075 6.60958C6.58306 6.22736 7.00833 5.90917 7.48333 5.655C7.95861 5.40111 8.46917 5.2043 9.015 5.06458L9.12792 4.1475C9.18347 3.81555 9.33153 3.53875 9.57208 3.31708C9.81264 3.09542 10.0981 2.98458 10.4283 2.98458H10.8038C11.126 2.98458 11.4069 3.09528 11.6467 3.31667C11.8864 3.53805 12.0365 3.81167 12.0971 4.1375L12.2088 5.06375C12.7465 5.20431 13.2551 5.40153 13.7346 5.65542C14.214 5.9093 14.6382 6.22736 15.0071 6.60958L15.8842 6.25458C16.1794 6.1368 16.4696 6.12292 16.7546 6.21292C17.0396 6.30292 17.2582 6.48292 17.4104 6.75292L17.6804 7.1575C17.826 7.39972 17.8832 7.67833 17.8521 7.99333C17.821 8.30806 17.6843 8.56931 17.4421 8.77708L16.5971 9.53875C16.7426 10.0485 16.8154 10.565 16.8154 11.0883C16.8154 11.6117 16.7426 12.1388 16.5971 12.6696L17.4421 13.4413C17.6776 13.649 17.8126 13.9033 17.8471 14.2042C17.8815 14.5053 17.826 14.7875 17.6804 15.0508L17.4521 15.4125C17.2999 15.6833 17.0749 15.8707 16.7771 15.9746C16.4793 16.0785 16.185 16.0715 15.8942 15.9538L15.0071 15.5988C14.6382 16.0088 14.2146 16.3339 13.7363 16.5742C13.2576 16.8142 12.7487 17.004 12.2096 17.1438L12.0971 18.0575C12.0349 18.3917 11.884 18.6696 11.6446 18.8913C11.4051 19.1129 11.1212 19.2238 10.7929 19.2238H10.42C10.0917 19.2238 9.80792 19.1144 9.56875 18.8958C9.32958 18.6775 9.18264 18.4025 9.12792 18.0708L9.01583 17.1446ZM10.6046 14.8779C11.6443 14.8779 12.5344 14.5097 13.275 13.7733C14.0156 13.0372 14.3858 12.1478 14.3858 11.105C14.3858 10.0622 14.0157 9.1725 13.2754 8.43583C12.5351 7.69889 11.644 7.33042 10.6021 7.33042C9.55986 7.33042 8.67042 7.7 7.93375 8.43917C7.19708 9.17805 6.82875 10.0675 6.82875 11.1075C6.82875 12.1475 7.19806 13.0358 7.93667 13.7725C8.67556 14.5094 9.56486 14.8779 10.6046 14.8779ZM26.3096 36.1875C25.5199 35.9931 24.7681 35.6914 24.0542 35.2825C23.3406 34.8739 22.7238 34.344 22.2038 33.6929L21.1204 34.0363C20.7871 34.1474 20.4521 34.1421 20.1154 34.0204C19.7787 33.8988 19.5176 33.6829 19.3321 33.3729L18.9921 32.7929C18.7999 32.4829 18.7315 32.1482 18.7871 31.7888C18.8426 31.4293 19.0093 31.1251 19.2871 30.8763L20.1204 30.1296C19.8782 29.3674 19.7571 28.5808 19.7571 27.77C19.7571 26.9589 19.8782 26.1757 20.1204 25.4204L19.2871 24.7121C19.0093 24.4899 18.8426 24.1929 18.7871 23.8213C18.7315 23.4496 18.8015 23.1089 18.9971 22.7992L19.3738 22.1671C19.5382 21.8638 19.7801 21.6565 20.0996 21.5454C20.419 21.4343 20.7454 21.4204 21.0788 21.5038L22.2038 21.8054C22.7515 21.1821 23.3753 20.6607 24.075 20.2413C24.775 19.8221 25.5214 19.5258 26.3142 19.3525L26.6029 18.1442C26.6851 17.8108 26.8582 17.5331 27.1221 17.3108C27.386 17.0886 27.6985 16.9775 28.0596 16.9775H28.8096C29.1707 16.9775 29.4901 17.0886 29.7679 17.3108C30.0457 17.5331 30.2263 17.8108 30.3096 18.1442L30.6013 19.3525C31.4401 19.4703 32.2026 19.7474 32.8888 20.1838C33.5746 20.6204 34.1914 21.161 34.7392 21.8054L35.8642 21.5038C36.2042 21.4204 36.5339 21.4413 36.8533 21.5663C37.1728 21.6913 37.4147 21.9065 37.5792 22.2121L37.9508 22.7954C38.1431 23.101 38.2044 23.4343 38.135 23.7954C38.0656 24.1565 37.8919 24.4621 37.6142 24.7121L36.8225 25.4204C37.0647 26.1757 37.1858 26.9589 37.1858 27.77C37.1858 28.5808 37.0647 29.3674 36.8225 30.1296L37.6558 30.8729C37.9336 31.1207 38.1003 31.4251 38.1558 31.7863C38.2114 32.1474 38.1431 32.4818 37.9508 32.7896L37.6208 33.3763C37.4286 33.684 37.1642 33.9057 36.8275 34.0413C36.4908 34.1768 36.1419 34.1751 35.7808 34.0363L34.7392 33.6929C34.2192 34.3718 33.604 34.9086 32.8938 35.3033C32.1832 35.6983 31.419 35.9931 30.6013 36.1875L30.3096 37.3958C30.2263 37.7292 30.0526 38.0069 29.7888 38.2292C29.5249 38.4514 29.2124 38.5625 28.8512 38.5625H28.1012C27.7401 38.5625 27.4207 38.4514 27.1429 38.2292C26.8651 38.0069 26.6846 37.7292 26.6012 37.3958L26.3096 36.1875ZM28.4717 33.4721C30.0594 33.4721 31.4058 32.9185 32.5108 31.8112C33.6158 30.704 34.1683 29.3575 34.1683 27.7717C34.1683 26.1858 33.6156 24.8388 32.51 23.7304C31.4044 22.6221 30.0599 22.0679 28.4762 22.0679C26.8851 22.0679 25.5371 22.6217 24.4321 23.7292C23.3271 24.8369 22.7746 26.1839 22.7746 27.77C22.7746 29.3611 23.3271 30.7092 24.4321 31.8142C25.5371 32.9194 26.8836 33.4721 28.4717 33.4721Z"/>
</mask>
<path d="M9.01583 17.1446C8.47139 17.004 7.95944 16.8068 7.48 16.5529C7.00056 16.299 6.57639 15.981 6.2075 15.5988L5.33042 15.9538C5.03292 16.0715 4.74389 16.0849 4.46333 15.9937C4.1825 15.9026 3.9675 15.7228 3.81833 15.4542L3.54583 15.0054C3.39278 14.7646 3.33347 14.4956 3.36792 14.1983C3.40236 13.9014 3.53722 13.6457 3.7725 13.4312L4.57625 12.6733C4.43736 12.14 4.36792 11.6189 4.36792 11.11C4.36792 10.6014 4.43736 10.0788 4.57625 9.54208L3.7725 8.76708C3.53722 8.55764 3.40236 8.29764 3.36792 7.98708C3.33347 7.67625 3.39236 7.39972 3.54458 7.1575L3.7625 6.79458C3.90806 6.52458 4.13139 6.33764 4.4325 6.23375C4.73361 6.12986 5.03736 6.1368 5.34375 6.25458L6.2075 6.60958C6.58306 6.22736 7.00833 5.90917 7.48333 5.655C7.95861 5.40111 8.46917 5.2043 9.015 5.06458L9.12792 4.1475C9.18347 3.81555 9.33153 3.53875 9.57208 3.31708C9.81264 3.09542 10.0981 2.98458 10.4283 2.98458H10.8038C11.126 2.98458 11.4069 3.09528 11.6467 3.31667C11.8864 3.53805 12.0365 3.81167 12.0971 4.1375L12.2088 5.06375C12.7465 5.20431 13.2551 5.40153 13.7346 5.65542C14.214 5.9093 14.6382 6.22736 15.0071 6.60958L15.8842 6.25458C16.1794 6.1368 16.4696 6.12292 16.7546 6.21292C17.0396 6.30292 17.2582 6.48292 17.4104 6.75292L17.6804 7.1575C17.826 7.39972 17.8832 7.67833 17.8521 7.99333C17.821 8.30806 17.6843 8.56931 17.4421 8.77708L16.5971 9.53875C16.7426 10.0485 16.8154 10.565 16.8154 11.0883C16.8154 11.6117 16.7426 12.1388 16.5971 12.6696L17.4421 13.4413C17.6776 13.649 17.8126 13.9033 17.8471 14.2042C17.8815 14.5053 17.826 14.7875 17.6804 15.0508L17.4521 15.4125C17.2999 15.6833 17.0749 15.8707 16.7771 15.9746C16.4793 16.0785 16.185 16.0715 15.8942 15.9538L15.0071 15.5988C14.6382 16.0088 14.2146 16.3339 13.7363 16.5742C13.2576 16.8142 12.7487 17.004 12.2096 17.1438L12.0971 18.0575C12.0349 18.3917 11.884 18.6696 11.6446 18.8913C11.4051 19.1129 11.1212 19.2238 10.7929 19.2238H10.42C10.0917 19.2238 9.80792 19.1144 9.56875 18.8958C9.32958 18.6775 9.18264 18.4025 9.12792 18.0708L9.01583 17.1446ZM10.6046 14.8779C11.6443 14.8779 12.5344 14.5097 13.275 13.7733C14.0156 13.0372 14.3858 12.1478 14.3858 11.105C14.3858 10.0622 14.0157 9.1725 13.2754 8.43583C12.5351 7.69889 11.644 7.33042 10.6021 7.33042C9.55986 7.33042 8.67042 7.7 7.93375 8.43917C7.19708 9.17805 6.82875 10.0675 6.82875 11.1075C6.82875 12.1475 7.19806 13.0358 7.93667 13.7725C8.67556 14.5094 9.56486 14.8779 10.6046 14.8779ZM26.3096 36.1875C25.5199 35.9931 24.7681 35.6914 24.0542 35.2825C23.3406 34.8739 22.7238 34.344 22.2038 33.6929L21.1204 34.0363C20.7871 34.1474 20.4521 34.1421 20.1154 34.0204C19.7787 33.8988 19.5176 33.6829 19.3321 33.3729L18.9921 32.7929C18.7999 32.4829 18.7315 32.1482 18.7871 31.7888C18.8426 31.4293 19.0093 31.1251 19.2871 30.8763L20.1204 30.1296C19.8782 29.3674 19.7571 28.5808 19.7571 27.77C19.7571 26.9589 19.8782 26.1757 20.1204 25.4204L19.2871 24.7121C19.0093 24.4899 18.8426 24.1929 18.7871 23.8213C18.7315 23.4496 18.8015 23.1089 18.9971 22.7992L19.3738 22.1671C19.5382 21.8638 19.7801 21.6565 20.0996 21.5454C20.419 21.4343 20.7454 21.4204 21.0788 21.5038L22.2038 21.8054C22.7515 21.1821 23.3753 20.6607 24.075 20.2413C24.775 19.8221 25.5214 19.5258 26.3142 19.3525L26.6029 18.1442C26.6851 17.8108 26.8582 17.5331 27.1221 17.3108C27.386 17.0886 27.6985 16.9775 28.0596 16.9775H28.8096C29.1707 16.9775 29.4901 17.0886 29.7679 17.3108C30.0457 17.5331 30.2263 17.8108 30.3096 18.1442L30.6013 19.3525C31.4401 19.4703 32.2026 19.7474 32.8888 20.1838C33.5746 20.6204 34.1914 21.161 34.7392 21.8054L35.8642 21.5038C36.2042 21.4204 36.5339 21.4413 36.8533 21.5663C37.1728 21.6913 37.4147 21.9065 37.5792 22.2121L37.9508 22.7954C38.1431 23.101 38.2044 23.4343 38.135 23.7954C38.0656 24.1565 37.8919 24.4621 37.6142 24.7121L36.8225 25.4204C37.0647 26.1757 37.1858 26.9589 37.1858 27.77C37.1858 28.5808 37.0647 29.3674 36.8225 30.1296L37.6558 30.8729C37.9336 31.1207 38.1003 31.4251 38.1558 31.7863C38.2114 32.1474 38.1431 32.4818 37.9508 32.7896L37.6208 33.3763C37.4286 33.684 37.1642 33.9057 36.8275 34.0413C36.4908 34.1768 36.1419 34.1751 35.7808 34.0363L34.7392 33.6929C34.2192 34.3718 33.604 34.9086 32.8938 35.3033C32.1832 35.6983 31.419 35.9931 30.6013 36.1875L30.3096 37.3958C30.2263 37.7292 30.0526 38.0069 29.7888 38.2292C29.5249 38.4514 29.2124 38.5625 28.8512 38.5625H28.1012C27.7401 38.5625 27.4207 38.4514 27.1429 38.2292C26.8651 38.0069 26.6846 37.7292 26.6012 37.3958L26.3096 36.1875ZM28.4717 33.4721C30.0594 33.4721 31.4058 32.9185 32.5108 31.8112C33.6158 30.704 34.1683 29.3575 34.1683 27.7717C34.1683 26.1858 33.6156 24.8388 32.51 23.7304C31.4044 22.6221 30.0599 22.0679 28.4762 22.0679C26.8851 22.0679 25.5371 22.6217 24.4321 23.7292C23.3271 24.8369 22.7746 26.1839 22.7746 27.77C22.7746 29.3611 23.3271 30.7092 24.4321 31.8142C25.5371 32.9194 26.8836 33.4721 28.4717 33.4721Z" stroke="var(--stroke-0, #F4813E)" stroke-width="6" mask="url(#path-1-inside-1_0_574)"/>
</g>
</g>
</svg>
