<svg preserveAspectRatio="none" width="100%" height="100%" overflow="visible" style="display: block;" viewBox="0 0 48 48" fill="none" xmlns="http://www.w3.org/2000/svg">
<g id="history">
<path id="Vector" d="M23.8384 7.189C26.1853 7.18905 28.3724 7.62817 30.4136 8.49857C32.3545 9.32613 34.0579 10.4295 35.5337 11.8081L35.8257 12.0874C37.3651 13.5945 38.5786 15.358 39.4673 17.3882C40.3435 19.3902 40.7866 21.5552 40.7866 23.8999C40.7866 26.2446 40.3429 28.4293 39.4634 30.4693C38.5732 32.5336 37.3587 34.3205 35.8198 35.8423C34.277 37.3683 32.4768 38.5789 30.4067 39.4732C28.3669 40.3546 26.1826 40.7994 23.8393 40.7994C19.4375 40.7993 15.7049 39.3398 12.561 36.4087C9.40629 33.4678 7.65619 29.8702 7.28172 25.5474L7.27879 25.5171L7.27782 25.5161C7.28984 25.5039 7.29875 25.4978 7.30321 25.4947C7.30812 25.4912 7.31181 25.4892 7.31493 25.4878C7.31939 25.4859 7.34769 25.4753 7.41649 25.4742H7.41746C7.47074 25.4732 7.4925 25.4804 7.49657 25.482C7.5006 25.4835 7.51894 25.4912 7.55321 25.523C7.62484 25.5895 7.68665 25.6807 7.7241 25.857C8.16926 29.9292 9.90648 33.3859 12.9087 36.1646C15.9504 38.9805 19.6209 40.3921 23.8384 40.3921C28.4269 40.392 32.3672 38.7631 35.5698 35.5298C38.7695 32.2994 40.3802 28.3445 40.3804 23.7525C40.3804 19.3844 38.8434 15.6271 35.8003 12.565L35.5014 12.271L35.1968 11.9849C32.0269 9.07285 28.2158 7.60803 23.8384 7.60795C21.4036 7.60795 19.1013 8.15199 16.9526 9.24174C14.8481 10.3087 13.0075 11.7302 11.4399 13.4995L9.22996 15.9947H15.9897C16.0191 15.9947 16.0375 15.997 16.0464 15.9986H16.0473C16.0488 15.9998 16.051 16.0012 16.0532 16.0035C16.0547 16.005 16.0561 16.0062 16.0571 16.0074L16.0581 16.0103C16.0597 16.0192 16.062 16.0378 16.062 16.0669C16.062 16.0992 16.059 16.1196 16.0571 16.1304C16.0566 16.1333 16.0556 16.1354 16.0552 16.1372C16.0542 16.1382 16.0536 16.1398 16.0522 16.1411C16.0506 16.1428 16.0486 16.1439 16.0473 16.1451L16.0464 16.146C16.0378 16.1476 16.0192 16.1499 15.9897 16.1499H8.57567C8.56542 16.1499 8.55607 16.1474 8.54735 16.147L11.1352 13.1763C12.7603 11.3101 14.6733 9.84674 16.8813 8.77689C19.0667 7.71806 21.3801 7.189 23.8384 7.189ZM24.06 15.3501C24.0888 15.3501 24.1078 15.3514 24.1177 15.3531C24.1193 15.3628 24.1216 15.3811 24.1216 15.4097V23.9331L24.5718 24.3745L30.2251 29.9146H30.2261C30.2569 29.9454 30.2692 29.9646 30.2729 29.9712V29.9732C30.2732 29.9759 30.2739 29.9811 30.2739 29.9878C30.2739 29.9965 30.2733 30.0022 30.2729 30.0054C30.2724 30.0062 30.2718 30.0072 30.271 30.0083C30.2665 30.0148 30.2565 30.0288 30.2368 30.0484L30.227 30.0581C30.2101 30.0753 30.1959 30.0854 30.187 30.0923C30.1781 30.0854 30.1646 30.075 30.1479 30.0581L30.1323 30.0425L24.0395 24.0503L24.0327 24.0425L24.0249 24.0357L24.0054 24.0142C23.9971 23.9845 23.9897 23.9443 23.9897 23.8882V15.4097C23.9897 15.3832 23.9912 15.366 23.9927 15.357C23.9936 15.3561 23.9948 15.3557 23.9956 15.355C23.9971 15.3547 23.9992 15.3544 24.0014 15.354C24.0112 15.3523 24.0301 15.3502 24.06 15.3501ZM8.43895 8.52299C8.47045 8.52301 8.49023 8.52606 8.50047 8.52787C8.50204 8.53782 8.50438 8.55554 8.50438 8.58256V16.1441C8.47765 16.1403 8.46378 16.137 8.45946 16.1353C8.4546 16.1334 8.44262 16.1282 8.41844 16.104C8.39493 16.0805 8.39012 16.0689 8.38817 16.064C8.38544 16.0571 8.37258 16.0241 8.37254 15.9468V8.58256C8.37254 8.55474 8.37486 8.53666 8.37645 8.52689C8.38669 8.52509 8.40719 8.52299 8.43895 8.52299Z" fill="var(--fill-0, #2DA2DB)" stroke="var(--stroke-0, #2DA2DB)" stroke-width="3"/>
</g>
</svg>
