<svg preserveAspectRatio="none" width="100%" height="100%" overflow="visible" style="display: block;" viewBox="0 0 40 40" fill="none" xmlns="http://www.w3.org/2000/svg">
<g id="eye-off">
<path id="Vector" d="M17.8884 8.45999C21.7707 7.99733 25.6977 8.81802 29.0698 10.7967C32.4419 12.7755 35.0737 15.8034 36.5634 19.4183C36.7023 19.7925 36.7023 20.2041 36.5634 20.5783C35.9509 22.0633 35.1414 23.4592 34.1567 24.7283M23.4734 23.5967C22.5303 24.5075 21.2673 25.0115 19.9564 25.0001C18.6454 24.9887 17.3913 24.4628 16.4643 23.5358C15.5372 22.6087 15.0114 21.3547 15 20.0437C14.9886 18.7327 15.4926 17.4697 16.4034 16.5267M29.1317 29.1651C26.9208 30.4747 24.4541 31.2934 21.899 31.5657C19.3438 31.838 16.7599 31.5575 14.3227 30.7432C11.8855 29.9289 9.65202 28.5999 7.77371 26.8463C5.89541 25.0927 4.41628 22.9556 3.4367 20.5801C3.29779 20.2059 3.29779 19.7942 3.4367 19.4201C4.91442 15.8365 7.51448 12.8288 10.8467 10.8484M3.33333 3.33333L36.6667 36.6667" stroke="var(--stroke-0, #F4813E)" stroke-width="3" stroke-linecap="round" stroke-linejoin="round"/>
</g>
</svg>
