<svg preserveAspectRatio="none" width="100%" height="100%" overflow="visible" style="display: block;" viewBox="0 0 24 24" fill="none" xmlns="http://www.w3.org/2000/svg">
<g id="handyman">
<path id="Vector" d="M15.2943 13.0751C15.3039 13.0751 15.3097 13.0757 15.3119 13.0761C15.3133 13.0764 15.3142 13.0768 15.3148 13.0771C15.3069 13.0737 15.3235 13.0783 15.3607 13.1152V13.1161L21.5004 19.2616C21.5228 19.2841 21.5353 19.2991 21.5404 19.3066C21.5409 19.3094 21.5414 19.3163 21.5414 19.3281C21.5414 19.3387 21.5402 19.3428 21.5394 19.3447C21.5384 19.3469 21.5305 19.3643 21.5004 19.3945L19.3636 21.5322C19.3277 21.568 19.3148 21.5684 19.3295 21.5624C19.3281 21.5628 19.3258 21.5638 19.3226 21.5644C19.3169 21.5654 19.3068 21.5663 19.2914 21.5663L19.2582 21.5624C19.273 21.5684 19.2608 21.5679 19.225 21.5322L13.0853 15.3915L13.0541 15.3583C13.053 15.3558 13.0502 15.3466 13.0502 15.3251L13.056 15.2851C13.0507 15.2983 13.0518 15.2863 13.0853 15.2529L15.222 13.1161C15.2595 13.0789 15.2758 13.0737 15.2679 13.0771C15.2669 13.0775 15.2678 13.0777 15.2709 13.0771C15.2743 13.0764 15.2817 13.0751 15.2943 13.0751ZM8.19957 13.7245L8.18004 13.7441L3.12047 18.7978L2.57652 19.3407L3.13316 19.871L4.14684 20.8847L4.67613 21.4404L5.22008 20.8984L10.2796 15.8437L10.2992 15.8241V15.9941L4.75621 21.5312V21.5322C4.74319 21.5452 4.73275 21.5521 4.72691 21.5566C4.72043 21.5579 4.70879 21.5614 4.6898 21.5615C4.66436 21.5615 4.64158 21.5558 4.61754 21.5478C4.61377 21.5449 4.6066 21.5407 4.59801 21.5322L2.48668 19.4199L2.48082 19.414L2.47398 19.4081L2.46617 19.3993C2.46134 19.3831 2.45738 19.3621 2.45738 19.3339C2.45741 19.3113 2.46104 19.297 2.46422 19.287C2.46803 19.282 2.47508 19.2732 2.48668 19.2616L2.4857 19.2607L8.02965 13.7245H8.19957ZM13.1888 15.3134L13.7191 15.8437L18.767 20.8974L19.2972 21.4286L19.8275 20.8974L20.8666 19.8583L21.3968 19.329L20.8675 18.7978L15.8187 13.7441L15.2884 13.2138L13.1888 15.3134ZM6.78453 5.29387V6.75481L7.00426 6.97454L11.4505 11.4218L11.9808 11.9521L16.3099 7.62298L14.6058 5.91887L14.7308 5.79485V5.79876L15.6869 4.84173L16.7601 3.77434H16.7543L16.8793 3.64837L20.6966 7.46966V7.47063C20.8425 7.61879 20.965 7.78202 21.0648 7.96184L21.1566 8.14739C21.2624 8.38567 21.3167 8.63924 21.3168 8.91595C21.3168 9.1584 21.2757 9.38851 21.2005 9.61126L19.722 8.13274L19.1908 7.60247L17.7552 9.03802L16.4252 7.70794L15.8949 8.23821L10.5189 13.6152L10.4994 13.6347V13.5243H10.4086L11.89 12.0429L11.3597 11.5126L6.91246 7.06634L6.69273 6.84661H5.23277L2.7318 4.34563L4.28355 2.7929L6.78453 5.29387ZM14.7308 3.77434H12.9154L14.7308 1.95501V3.77434Z" stroke="var(--stroke-0, #2DA2DB)" stroke-width="1.5"/>
</g>
</svg>
