<svg preserveAspectRatio="none" width="100%" height="100%" overflow="visible" style="display: block;" viewBox="0 0 20 20" fill="none" xmlns="http://www.w3.org/2000/svg">
<g id="folder">
<path id="Vector" d="M2.96103 3.22914H8.12509C8.31501 3.22914 8.49751 3.26746 8.67197 3.34535C8.84727 3.42363 8.99851 3.5264 9.12509 3.65297L10.006 4.5309L10.0128 4.53871H17.0382C17.4015 4.53871 17.7258 4.67943 18.0108 4.96352C18.2961 5.2477 18.4376 5.57118 18.4376 5.93324V15.3717C18.4376 15.7338 18.2961 16.0563 18.0108 16.3405C17.7257 16.6248 17.4017 16.7663 17.0382 16.7663H2.96103C2.58513 16.7661 2.2593 16.6251 1.98251 16.3414C1.70509 16.0573 1.56747 15.734 1.56747 15.3717V4.62856C1.56747 4.26484 1.70509 3.94001 1.98251 3.65492C2.2593 3.37036 2.58516 3.22925 2.96103 3.22914ZM2.93661 15.3971H17.0636V5.90785H9.44052L8.13583 4.60316H2.93661V15.3971Z" fill="var(--fill-0, #2DA2DB)" stroke="var(--stroke-0, #2DA2DB)" stroke-width="0.05"/>
</g>
</svg>
