<svg preserveAspectRatio="none" width="100%" height="100%" overflow="visible" style="display: block;" viewBox="0 0 48 48" fill="none" xmlns="http://www.w3.org/2000/svg">
<g id="cpu">
<path id="Vector" d="M24 40V44M24 4V8M34 40V44M34 4V8M4 24H8M4 34H8M4 14H8M40 24H44M40 34H44M40 14H44M14 40V44M14 4V8M12 8H36C38.2091 8 40 9.79086 40 12V36C40 38.2091 38.2091 40 36 40H12C9.79086 40 8 38.2091 8 36V12C8 9.79086 9.79086 8 12 8ZM18 16H30C31.1046 16 32 16.8954 32 18V30C32 31.1046 31.1046 32 30 32H18C16.8954 32 16 31.1046 16 30V18C16 16.8954 16.8954 16 18 16Z" stroke="var(--stroke-0, #2DA2DB)" stroke-width="3" stroke-linecap="round" stroke-linejoin="round"/>
</g>
</svg>
