<svg preserveAspectRatio="none" width="100%" height="100%" overflow="visible" style="display: block;" viewBox="0 0 48 48" fill="none" xmlns="http://www.w3.org/2000/svg">
<g id="pin_drop">
<path id="Vector" d="M24 33.59C27.5777 30.8953 30.2615 28.1522 32.0515 25.3605C33.8418 22.5688 34.737 20.0437 34.737 17.785C34.737 14.6473 33.7338 12.0833 31.7275 10.093C29.7215 8.10267 27.1457 7.1075 24 7.1075C20.8543 7.1075 18.2805 8.10267 16.2785 10.093C14.2762 12.0833 13.275 14.6473 13.275 17.785C13.275 20.0103 14.1682 22.5188 15.9545 25.3105C17.7405 28.1022 20.4223 30.862 24 33.59ZM24 37.1205C23.66 37.1205 23.3202 37.0645 22.9805 36.9525C22.6405 36.8408 22.3213 36.673 22.023 36.449C17.8643 33.2317 14.7968 30.0432 12.8205 26.8835C10.8445 23.7242 9.8565 20.6913 9.8565 17.785C9.8565 13.653 11.1788 10.2707 13.8235 7.638C16.4678 5.00533 19.86 3.689 24 3.689C28.14 3.689 31.5322 5.00533 34.1765 7.638C36.8212 10.2707 38.1435 13.653 38.1435 17.785C38.1435 20.6913 37.1555 23.7242 35.1795 26.8835C33.2032 30.0432 30.1357 33.2317 25.977 36.449C25.6787 36.673 25.3595 36.8408 25.0195 36.9525C24.6798 37.0645 24.34 37.1205 24 37.1205ZM23.95 22.012C25.131 22.012 26.1312 21.6043 26.9505 20.789C27.7698 19.974 28.1795 18.9885 28.1795 17.8325C28.1795 16.6848 27.7698 15.7013 26.9505 14.882C26.1312 14.063 25.131 13.6535 23.95 13.6535C22.8023 13.6535 21.8272 14.063 21.0245 14.882C20.2218 15.7013 19.8205 16.6848 19.8205 17.8325C19.8205 18.9885 20.2218 19.974 21.0245 20.789C21.8272 21.6043 22.8023 22.012 23.95 22.012ZM11.3925 44.299C10.9032 44.299 10.499 44.1373 10.18 43.814C9.86067 43.491 9.701 43.0848 9.701 42.5955C9.701 42.1065 9.86267 41.7023 10.186 41.383C10.509 41.064 10.9152 40.9045 11.4045 40.9045H36.6075C37.0968 40.9045 37.503 41.064 37.826 41.383C38.1493 41.7023 38.311 42.1065 38.311 42.5955C38.311 43.0848 38.1493 43.491 37.826 43.814C37.503 44.1373 37.0968 44.299 36.6075 44.299H11.3925Z" fill="var(--fill-0, #2DA2DB)"/>
</g>
</svg>
