<svg preserveAspectRatio="none" width="100%" height="100%" overflow="visible" style="display: block;" viewBox="0 0 40 40" fill="none" xmlns="http://www.w3.org/2000/svg">
<g id="person_remove">
<g id="Vector">
<mask id="path-1-inside-1_0_707" fill="white">
<path d="M28.4792 14.4183H35.6458C36.0339 14.4183 36.3592 14.5506 36.6217 14.815C36.8842 15.0792 37.0154 15.4065 37.0154 15.7971C37.0154 16.1854 36.8842 16.5093 36.6217 16.7688C36.3592 17.0279 36.0339 17.1575 35.6458 17.1575H28.4792C28.0911 17.1575 27.7658 17.0254 27.5033 16.7613C27.2408 16.4971 27.1096 16.1708 27.1096 15.7825C27.1096 15.3944 27.241 15.0701 27.5038 14.8096C27.7665 14.5488 28.0917 14.4183 28.4792 14.4183ZM15.0179 19.8288C13.1101 19.8288 11.5504 19.2229 10.3388 18.0113C9.12681 16.7993 8.52083 15.2394 8.52083 13.3317C8.52083 11.4239 9.12681 9.86347 10.3388 8.65042C11.5504 7.43708 13.1101 6.83042 15.0179 6.83042C16.9257 6.83042 18.4878 7.43708 19.7042 8.65042C20.9208 9.86347 21.5292 11.4239 21.5292 13.3317C21.5292 15.2394 20.9208 16.7993 19.7042 18.0113C18.4878 19.2229 16.9257 19.8288 15.0179 19.8288ZM1.4375 30.8733V29.5263C1.4375 28.5054 1.69444 27.5817 2.20833 26.755C2.7225 25.9281 3.45653 25.3065 4.41042 24.8904C6.50708 23.9671 8.37375 23.3163 10.0104 22.9379C11.6474 22.5596 13.3133 22.3704 15.0083 22.3704C16.7158 22.3704 18.3851 22.5596 20.0163 22.9379C21.6474 23.3163 23.5079 23.9671 25.5979 24.8904C26.5518 25.3268 27.2926 25.9515 27.8204 26.7646C28.3485 27.5779 28.6125 28.4985 28.6125 29.5263V30.8733C28.6125 31.6536 28.3351 32.3218 27.7804 32.8779C27.226 33.434 26.5538 33.7121 25.7638 33.7121H4.27625C3.49569 33.7121 2.8275 33.434 2.27167 32.8779C1.71556 32.3218 1.4375 31.6536 1.4375 30.8733ZM4.27625 30.8733H25.7638V29.5663C25.7638 29.1257 25.6385 28.7057 25.3879 28.3063C25.1374 27.9068 24.8033 27.6108 24.3858 27.4183C22.4486 26.5222 20.8061 25.9317 19.4583 25.6467C18.1106 25.3617 16.6294 25.2192 15.015 25.2192C13.4139 25.2192 11.9308 25.3617 10.5658 25.6467C9.20056 25.9317 7.54986 26.5221 5.61375 27.4179C5.19431 27.6104 4.86653 27.9064 4.63042 28.3058C4.39431 28.7056 4.27625 29.1257 4.27625 29.5663V30.8733ZM15.0196 16.99C16.0832 16.99 16.9592 16.6447 17.6475 15.9542C18.3361 15.2633 18.6804 14.3886 18.6804 13.33C18.6804 12.2686 18.3362 11.3932 17.6479 10.7038C16.9599 10.0143 16.0857 9.66958 15.0254 9.66958C13.9649 9.66958 13.0888 10.0144 12.3971 10.7042C11.7054 11.3942 11.3596 12.2678 11.3596 13.325C11.3596 14.3853 11.705 15.2611 12.3958 15.9525C13.0864 16.6442 13.961 16.99 15.0196 16.99Z"/>
</mask>
<path d="M36.6217 14.815L34.4925 16.9285L34.4936 16.9296L36.6217 14.815ZM36.6217 16.7688L38.7294 18.9036L38.7305 18.9025L36.6217 16.7688ZM27.5038 14.8096L29.616 16.9399L29.6172 16.9388L27.5038 14.8096ZM10.3388 8.65042L12.461 10.7708L12.4615 10.7703L10.3388 8.65042ZM19.7042 8.65042L17.5855 10.7744L17.586 10.7749L19.7042 8.65042ZM19.7042 18.0113L21.8214 20.1367V20.1367L19.7042 18.0113ZM2.20833 26.755L-0.339357 25.1709L-0.339502 25.1712L2.20833 26.755ZM4.41042 24.8904L5.60994 27.6402L5.61951 27.636L4.41042 24.8904ZM10.0104 22.9379L9.33486 20.015L9.33475 20.015L10.0104 22.9379ZM25.5979 24.8904L26.846 22.1623L26.8282 22.1542L26.8102 22.1463L25.5979 24.8904ZM27.8204 26.7646L25.3041 28.398L25.3042 28.3982L27.8204 26.7646ZM27.7804 32.8779L25.6564 30.7593L25.6559 30.7598L27.7804 32.8779ZM2.27167 32.8779L4.39352 30.7571L4.39299 30.7566L2.27167 32.8779ZM4.27625 30.8733H1.27625V33.8733H4.27625V30.8733ZM25.7638 30.8733V33.8733H28.7638V30.8733H25.7638ZM24.3858 27.4183L23.1263 30.1411L23.1297 30.1427L24.3858 27.4183ZM10.5658 25.6467L11.1789 28.5834L11.179 28.5833L10.5658 25.6467ZM5.61375 27.4179L6.86509 30.1445L6.87352 30.1406L5.61375 27.4179ZM4.63042 28.3058L2.04785 26.7793L2.04739 26.7801L4.63042 28.3058ZM17.6475 15.9542L15.5228 13.8363L15.5228 13.8363L17.6475 15.9542ZM17.6479 10.7038L15.5245 12.8229L15.5249 12.8234L17.6479 10.7038ZM12.3971 10.7042L10.2788 8.57986L10.2783 8.58029L12.3971 10.7042ZM12.3958 15.9525L14.5189 13.8329L14.518 13.832L12.3958 15.9525ZM28.4792 14.4183V17.4183H35.6458V14.4183V11.4183H28.4792V14.4183ZM35.6458 14.4183V17.4183C35.4934 17.4183 35.2832 17.391 35.0511 17.2967C34.8166 17.2013 34.6285 17.0654 34.4925 16.9285L36.6217 14.815L38.7508 12.7015C37.8995 11.8439 36.7964 11.4183 35.6458 11.4183V14.4183ZM36.6217 14.815L34.4936 16.9296C34.3575 16.7926 34.2248 16.6054 34.1324 16.3751C34.0412 16.1475 34.0154 15.9432 34.0154 15.7971H37.0154H40.0154C40.0154 14.6571 39.6002 13.5564 38.7497 12.7004L36.6217 14.815ZM37.0154 15.7971H34.0154C34.0154 15.648 34.0419 15.4383 34.1366 15.2045C34.2326 14.9677 34.3707 14.7755 34.5128 14.635L36.6217 16.7688L38.7305 18.9025C39.5956 18.0475 40.0154 16.9405 40.0154 15.7971H37.0154ZM36.6217 16.7688L34.5139 14.6339C34.6527 14.4969 34.8407 14.3649 35.0706 14.2733C35.2975 14.1829 35.5008 14.1575 35.6458 14.1575V17.1575V20.1575C36.7774 20.1575 37.8738 19.7483 38.7294 18.9036L36.6217 16.7688ZM35.6458 17.1575V14.1575H28.4792V17.1575V20.1575H35.6458V17.1575ZM28.4792 17.1575V14.1575C28.6312 14.1575 28.841 14.1847 29.0729 14.2789C29.3072 14.374 29.4953 14.5097 29.6314 14.6467L27.5033 16.7613L25.3753 18.8758C26.2268 19.7328 27.3296 20.1575 28.4792 20.1575V17.1575ZM27.5033 16.7613L29.6314 14.6467C29.7659 14.782 29.8985 14.9681 29.9912 15.1988C30.083 15.4269 30.1096 15.6331 30.1096 15.7825H27.1096H24.1096C24.1096 16.9255 24.5283 18.0234 25.3753 18.8758L27.5033 16.7613ZM27.1096 15.7825H30.1096C30.1096 15.9325 30.0829 16.1419 29.9886 16.3747C29.8931 16.6104 29.7562 16.801 29.616 16.9399L27.5038 14.8096L25.3915 12.6793C24.5305 13.533 24.1096 14.6378 24.1096 15.7825H27.1096ZM27.5038 14.8096L29.6172 16.9388C29.48 17.0749 29.2926 17.2078 29.0615 17.3005C28.8331 17.3921 28.6274 17.4183 28.4792 17.4183V14.4183V11.4183C27.3409 11.4183 26.2435 11.8335 25.3903 12.6804L27.5038 14.8096ZM15.0179 19.8288V16.8288C13.8071 16.8288 13.043 16.4728 12.4601 15.8899L10.3388 18.0113L8.21743 20.1326C10.0579 21.973 12.4132 22.8288 15.0179 22.8288V19.8288ZM10.3388 18.0113L12.4601 15.8899C11.8768 15.3066 11.5208 14.5423 11.5208 13.3317H8.52083H5.52083C5.52083 15.9366 6.37684 18.292 8.21743 20.1326L10.3388 18.0113ZM8.52083 13.3317H11.5208C11.5208 12.121 11.8768 11.3555 12.461 10.7708L10.3388 8.65042L8.21646 6.53007C6.37682 8.3714 5.52083 10.7267 5.52083 13.3317H8.52083ZM10.3388 8.65042L12.4615 10.7703C13.0447 10.1863 13.8083 9.83042 15.0179 9.83042V6.83042V3.83042C12.412 3.83042 10.0562 4.68784 8.21597 6.53055L10.3388 8.65042ZM15.0179 6.83042V9.83042C16.2274 9.83042 16.9961 10.1864 17.5855 10.7744L19.7042 8.65042L21.8228 6.52643C19.9795 4.68774 17.624 3.83042 15.0179 3.83042V6.83042ZM19.7042 8.65042L17.586 10.7749C18.1733 11.3604 18.5292 12.1246 18.5292 13.3317H21.5292H24.5292C24.5292 10.7232 23.6684 8.36652 21.8223 6.52595L19.7042 8.65042ZM21.5292 13.3317H18.5292C18.5292 14.5388 18.1733 15.3018 17.587 15.8858L19.7042 18.0113L21.8214 20.1367C23.6684 18.2969 24.5292 15.9401 24.5292 13.3317H21.5292ZM19.7042 18.0113L17.587 15.8858C16.9978 16.4727 16.2287 16.8288 15.0179 16.8288V19.8288V22.8288C17.6227 22.8288 19.9778 21.9731 21.8214 20.1367L19.7042 18.0113ZM1.4375 30.8733H4.4375V29.5263H1.4375H-1.5625V30.8733H1.4375ZM1.4375 29.5263H4.4375C4.4375 29.0366 4.55256 28.6664 4.75617 28.3388L2.20833 26.755L-0.339502 25.1712C-1.16367 26.497 -1.5625 27.9742 -1.5625 29.5263H1.4375ZM2.20833 26.755L4.75602 28.3391C4.92677 28.0644 5.17279 27.8309 5.60993 27.6402L4.41042 24.8904L3.2109 22.1407C1.74026 22.7822 0.518226 23.7917 -0.339357 25.1709L2.20833 26.755ZM4.41042 24.8904L5.61951 27.636C7.60166 26.7631 9.28471 26.1848 10.6861 25.8608L10.0104 22.9379L9.33475 20.015C7.46279 20.4477 5.41251 21.1711 3.20132 22.1449L4.41042 24.8904ZM10.0104 22.9379L10.686 25.8609C12.0994 25.5342 13.5387 25.3704 15.0083 25.3704V22.3704V19.3704C13.088 19.3704 11.1953 19.585 9.33486 20.015L10.0104 22.9379ZM15.0083 22.3704V25.3704C16.4922 25.3704 17.9339 25.5346 19.3384 25.8603L20.0163 22.9379L20.6941 20.0155C18.8364 19.5846 16.9395 19.3704 15.0083 19.3704V22.3704ZM20.0163 22.9379L19.3384 25.8603C20.7336 26.184 22.4102 26.7619 24.3856 27.6346L25.5979 24.8904L26.8102 22.1463C24.6056 21.1723 22.5611 20.4485 20.6941 20.0155L20.0163 22.9379ZM25.5979 24.8904L24.3499 27.6185C24.8299 27.8381 25.112 28.1022 25.3041 28.398L27.8204 26.7646L30.3367 25.1312C29.4732 23.8009 28.2737 22.8155 26.846 22.1623L25.5979 24.8904ZM27.8204 26.7646L25.3042 28.3982C25.4972 28.6955 25.6125 29.0419 25.6125 29.5263H28.6125H31.6125C31.6125 27.955 31.1997 26.4603 30.3366 25.1309L27.8204 26.7646ZM28.6125 29.5263H25.6125V30.8733H28.6125H31.6125V29.5263H28.6125ZM28.6125 30.8733H25.6125C25.6125 30.89 25.6111 30.8886 25.614 30.8733C25.6171 30.8575 25.6232 30.8349 25.6337 30.8096C25.6442 30.7842 25.6554 30.765 25.6633 30.7535C25.6708 30.7425 25.6708 30.7448 25.6564 30.7593L27.7804 32.8779L29.9044 34.9966C31.0159 33.8823 31.6125 32.4539 31.6125 30.8733H28.6125ZM27.7804 32.8779L25.6559 30.7598C25.6435 30.7722 25.643 30.7706 25.6555 30.7621C25.6685 30.7533 25.6885 30.7418 25.7137 30.7313C25.7389 30.7209 25.7603 30.7153 25.7737 30.7128C25.7866 30.7103 25.7847 30.7121 25.7638 30.7121V33.7121V36.7121C27.3456 36.7121 28.7838 36.1205 29.9049 34.9961L27.7804 32.8779ZM25.7638 33.7121V30.7121H4.27625V33.7121V36.7121H25.7638V33.7121ZM4.27625 33.7121V30.7121C4.25991 30.7121 4.26163 30.7107 4.27737 30.7137C4.29363 30.7168 4.31655 30.7231 4.34227 30.7338C4.36795 30.7445 4.38741 30.7559 4.39907 30.7638C4.41027 30.7714 4.40796 30.7716 4.39352 30.7571L2.27167 32.8779L0.149816 34.9987C1.26367 36.1131 2.69326 36.7121 4.27625 36.7121V33.7121ZM2.27167 32.8779L4.39299 30.7566C4.37839 30.742 4.37841 30.7396 4.38595 30.7506C4.39381 30.7622 4.40514 30.7815 4.4158 30.8071C4.42647 30.8328 4.43271 30.8557 4.43584 30.872C4.43887 30.8877 4.4375 30.8895 4.4375 30.8733H1.4375H-1.5625C-1.5625 32.4563 -0.96336 33.8855 0.150346 34.9992L2.27167 32.8779ZM4.27625 30.8733V33.8733H25.7638V30.8733V27.8733H4.27625V30.8733ZM25.7638 30.8733H28.7638V29.5663H25.7638H22.7638V30.8733H25.7638ZM25.7638 29.5663H28.7638C28.7638 28.5218 28.4576 27.5543 27.9293 26.7121L25.3879 28.3063L22.8465 29.9004C22.8388 29.888 22.8153 29.8467 22.795 29.7783C22.7742 29.7086 22.7638 29.6348 22.7638 29.5663H25.7638ZM25.3879 28.3063L27.9293 26.7121C27.3776 25.8325 26.6027 25.137 25.642 24.694L24.3858 27.4183L23.1297 30.1427C23.08 30.1198 23.0192 30.0826 22.9599 30.0301C22.9011 29.9779 22.8646 29.9292 22.8465 29.9004L25.3879 28.3063ZM24.3858 27.4183L25.6453 24.6955C23.6023 23.7505 21.7325 23.0612 20.079 22.7116L19.4583 25.6467L18.8377 28.5818C19.8797 28.8021 21.295 29.294 23.1263 30.1411L24.3858 27.4183ZM19.4583 25.6467L20.079 22.7116C18.4959 22.3768 16.8034 22.2192 15.015 22.2192V25.2192V28.2192C16.4555 28.2192 17.7253 28.3465 18.8377 28.5818L19.4583 25.6467ZM15.015 25.2192V22.2192C13.2375 22.2192 11.5464 22.3772 9.95268 22.71L10.5658 25.6467L11.179 28.5833C12.3152 28.3461 13.5903 28.2192 15.015 28.2192V25.2192ZM10.5658 25.6467L9.9528 22.71C8.28012 23.0591 6.4003 23.7484 4.35397 24.6952L5.61375 27.4179L6.87352 30.1406C8.69942 29.2958 10.121 28.8042 11.1789 28.5834L10.5658 25.6467ZM5.61375 27.4179L4.36242 24.6913C3.3841 25.1403 2.59325 25.8566 2.04785 26.7793L4.63042 28.3058L7.21298 29.8324C7.18467 29.8803 7.1361 29.9457 7.06388 30.0109C6.99154 30.0762 6.91981 30.1194 6.86508 30.1445L5.61375 27.4179ZM4.63042 28.3058L2.04739 26.7801C1.55359 27.616 1.27625 28.5597 1.27625 29.5663H4.27625H7.27625C7.27625 29.6177 7.26884 29.6757 7.25294 29.7323C7.2373 29.7879 7.21921 29.8218 7.21345 29.8316L4.63042 28.3058ZM4.27625 29.5663H1.27625V30.8733H4.27625H7.27625V29.5663H4.27625ZM15.0196 16.99V19.99C16.8007 19.99 18.4671 19.3815 19.7722 18.0721L17.6475 15.9542L15.5228 13.8363C15.4513 13.908 15.3657 13.99 15.0196 13.99V16.99ZM17.6475 15.9542L19.7722 18.0721C21.072 16.7682 21.6804 15.1079 21.6804 13.33H18.6804H15.6804C15.6804 13.6693 15.6003 13.7585 15.5228 13.8363L17.6475 15.9542ZM18.6804 13.33H21.6804C21.6804 11.5521 21.0739 9.88915 19.7709 8.58414L17.6479 10.7038L15.5249 12.8234C15.5986 12.8972 15.6804 12.9851 15.6804 13.33H18.6804ZM17.6479 10.7038L19.7714 8.58457C18.4679 7.27846 16.8046 6.66958 15.0254 6.66958V9.66958V12.6696C15.3667 12.6696 15.4518 12.7502 15.5245 12.8229L17.6479 10.7038ZM15.0254 9.66958V6.66958C13.2457 6.66958 11.5838 7.27849 10.2788 8.57986L12.3971 10.7042L14.5154 12.8285C14.5937 12.7504 14.684 12.6696 15.0254 12.6696V9.66958ZM12.3971 10.7042L10.2783 8.58029C8.9733 9.88217 8.35958 11.5431 8.35958 13.325H11.3596H14.3596C14.3596 12.9924 14.4375 12.9062 14.5158 12.828L12.3971 10.7042ZM11.3596 13.325H8.35958C8.35958 15.1061 8.97026 16.7685 10.2737 18.073L12.3958 15.9525L14.518 13.832C14.4397 13.7537 14.3596 13.6644 14.3596 13.325H11.3596ZM12.3958 15.9525L10.2728 18.0721C11.5757 19.3771 13.2375 19.99 15.0196 19.99V16.99V13.99C14.6844 13.99 14.5971 13.9112 14.5189 13.8329L12.3958 15.9525Z" fill="var(--stroke-0, #F4813E)" mask="url(#path-1-inside-1_0_707)"/>
</g>
</g>
</svg>
