<svg preserveAspectRatio="none" width="100%" height="100%" overflow="visible" style="display: block;" viewBox="0 0 32.7591 33.0006" fill="none" xmlns="http://www.w3.org/2000/svg">
<path id="Vector" d="M24.1145 0C19.3639 0 15.5478 3.88175 15.5478 8.71413C15.5478 9.26867 15.6257 9.82321 15.7036 10.3777L8.30502 13.0712C6.98107 10.9323 4.25529 10.2193 2.15255 11.566C0.0498089 12.9128 -0.651106 15.6854 0.672844 17.8244C1.76315 19.7256 4.09954 20.5178 6.1244 19.7256L11.2644 27.8852C10.252 29.3112 10.5635 31.3709 12.0432 32.4007C13.4451 33.4306 15.4699 33.1137 16.4824 31.6085C17.339 30.341 17.2611 28.5982 16.1708 27.4891L20.9215 16.7945C21.9339 17.1906 23.0242 17.4283 24.1924 17.4283C28.9431 17.4283 32.7591 13.5465 32.7591 8.71413C32.7591 3.88175 28.8652 0 24.1145 0ZM14.3796 26.5385C14.146 26.4593 13.9902 26.4593 13.7566 26.4593C13.3672 26.4593 12.9778 26.5385 12.6663 26.6969L7.60411 18.6958C8.46078 17.8244 8.92806 16.6361 8.92806 15.4478C8.92806 15.2893 8.92806 15.0517 8.85018 14.8932L16.2487 12.279C16.8718 13.7842 17.8842 15.0517 19.2081 16.0023L14.3796 26.5385ZM24.1145 14.5764C20.9215 14.5764 18.3515 11.9621 18.3515 8.71413C18.3515 5.46614 20.9215 2.8519 24.1145 2.8519C27.3076 2.8519 29.8776 5.46614 29.8776 8.71413C29.8776 11.9621 27.3076 14.5764 24.1145 14.5764Z" fill="var(--fill-0, #2DA2DB)"/>
</svg>
