<svg preserveAspectRatio="none" width="100%" height="100%" overflow="visible" style="display: block;" viewBox="0 0 40 40" fill="none" xmlns="http://www.w3.org/2000/svg">
<g id="change_circle">
<g id="Vector">
<mask id="path-1-inside-1_0_115" fill="white">
<path d="M19.9754 25.7221C19.2032 25.7299 18.4672 25.5929 17.7675 25.3112C17.0681 25.0296 16.4506 24.6208 15.915 24.085C15.3658 23.5353 14.9471 22.9167 14.6587 22.2292C14.3704 21.5419 14.2262 20.8112 14.2262 20.0371C14.2262 19.769 14.2465 19.5064 14.2871 19.2492C14.3274 18.9922 14.3872 18.7281 14.4667 18.4567C14.5778 18.1056 14.5672 17.7572 14.435 17.4117C14.3031 17.0661 14.0769 16.8111 13.7567 16.6467C13.4314 16.48 13.0943 16.4558 12.7454 16.5742C12.3965 16.6925 12.1665 16.9278 12.0554 17.28C11.9199 17.72 11.8112 18.1669 11.7296 18.6208C11.6479 19.0747 11.6071 19.5344 11.6071 20C11.6071 21.1178 11.8224 22.1865 12.2529 23.2062C12.6837 24.2262 13.2933 25.1301 14.0817 25.9179C14.8292 26.6846 15.6994 27.2769 16.6925 27.695C17.6856 28.1128 18.7171 28.3389 19.7871 28.3733L19.1683 29.0017C18.9053 29.265 18.7737 29.5717 18.7737 29.9217C18.7737 30.2717 18.9058 30.575 19.17 30.8317C19.4314 31.0947 19.7362 31.2262 20.0846 31.2262C20.4332 31.2262 20.7378 31.0947 20.9983 30.8317L23.9183 27.9629C24.2017 27.6749 24.3433 27.3387 24.3433 26.9546C24.3433 26.5707 24.2017 26.2371 23.9183 25.9537L21.0083 23.075C20.7419 22.8186 20.4346 22.6904 20.0862 22.6904C19.7376 22.6904 19.4317 22.8196 19.1683 23.0779C18.9053 23.3365 18.7737 23.6428 18.7737 23.9967C18.7737 24.3503 18.9053 24.6564 19.1683 24.915L19.9754 25.7221ZM19.9929 14.2362C20.7585 14.2562 21.4981 14.4071 22.2117 14.6888C22.925 14.9704 23.5494 15.3792 24.085 15.915C24.6342 16.4647 25.0529 17.0833 25.3412 17.7708C25.6296 18.4581 25.7737 19.1887 25.7737 19.9629C25.7737 20.231 25.7599 20.4953 25.7321 20.7558C25.7043 21.0164 25.6519 21.2683 25.575 21.5117C25.4639 21.8583 25.4708 22.205 25.5958 22.5517C25.7208 22.8983 25.9442 23.1444 26.2658 23.29C26.6164 23.4356 26.9654 23.4358 27.3129 23.2908C27.6604 23.1458 27.8922 22.8994 28.0083 22.5517C28.1506 22.1328 28.2503 21.7139 28.3075 21.295C28.3644 20.8761 28.3929 20.4439 28.3929 19.9983C28.3929 18.8844 28.1875 17.8149 27.7767 16.7896C27.3656 15.7643 26.7589 14.8489 25.9567 14.0433C25.1919 13.2789 24.311 12.6936 23.3138 12.2875C22.3165 11.8814 21.2862 11.6717 20.2229 11.6583L20.8733 10.9983C21.1086 10.735 21.2262 10.4283 21.2262 10.0783C21.2262 9.72833 21.0942 9.42333 20.83 9.16333C20.5658 8.90361 20.261 8.77375 19.9154 8.77375C19.5696 8.77375 19.265 8.90194 19.0017 9.15833L16.0817 12.0371C15.7983 12.3251 15.6567 12.6613 15.6567 13.0454C15.6567 13.4293 15.7983 13.7629 16.0817 14.0462L19.0017 16.915C19.2625 17.1781 19.5669 17.3096 19.915 17.3096C20.2628 17.3096 20.5683 17.1797 20.8317 16.92C21.0947 16.66 21.2262 16.3533 21.2262 16C21.2262 15.6467 21.0947 15.3383 20.8317 15.075L19.9929 14.2362ZM20.0012 36.9158C17.6829 36.9158 15.4949 36.4731 13.4371 35.5875C11.3796 34.7019 9.5825 33.4908 8.04583 31.9542C6.50917 30.4175 5.29806 28.6208 4.4125 26.5642C3.52694 24.5075 3.08417 22.3199 3.08417 20.0012C3.08417 17.6551 3.52694 15.4532 4.4125 13.3954C5.29806 11.3379 6.50861 9.54764 8.04417 8.02458C9.57972 6.50125 11.3761 5.29542 13.4333 4.40708C15.4906 3.51847 17.6787 3.07417 19.9979 3.07417C22.3446 3.07417 24.5472 3.51819 26.6058 4.40625C28.6642 5.29431 30.4546 6.49944 31.9771 8.02167C33.4999 9.54389 34.7053 11.3339 35.5933 13.3917C36.4817 15.4494 36.9258 17.6522 36.9258 20C36.9258 22.3194 36.4815 24.5079 35.5929 26.5654C34.7046 28.6229 33.4987 30.4196 31.9754 31.9554C30.4524 33.4912 28.6625 34.7019 26.6058 35.5875C24.5492 36.4731 22.3476 36.9158 20.0012 36.9158ZM20 34.0771C23.9178 34.0771 27.2435 32.7056 29.9771 29.9625C32.7104 27.2192 34.0771 23.8983 34.0771 20C34.0771 16.0822 32.7104 12.7565 29.9771 10.0229C27.2435 7.28958 23.9161 5.92292 19.995 5.92292C16.1017 5.92292 12.7829 7.28958 10.0387 10.0229C7.29486 12.7565 5.92292 16.0839 5.92292 20.005C5.92292 23.8983 7.29444 27.2171 10.0375 29.9612C12.7808 32.7051 16.1017 34.0771 20 34.0771Z"/>
</mask>
<path d="M19.9754 25.7221L20.0056 28.7219L27.146 28.65L22.0967 23.6008L19.9754 25.7221ZM17.7675 25.3112L16.6469 28.0941L16.6472 28.0942L17.7675 25.3112ZM15.915 24.085L13.7926 26.2052L13.7931 26.2058L15.915 24.085ZM14.6587 22.2292L17.4253 21.0689L17.4251 21.0685L14.6587 22.2292ZM14.2871 19.2492L17.2505 19.7164L17.2509 19.7138L14.2871 19.2492ZM14.4667 18.4567L11.6065 17.5515L11.5966 17.5826L11.5875 17.6138L14.4667 18.4567ZM14.435 17.4117L11.6324 18.4818L11.6331 18.4838L14.435 17.4117ZM13.7567 16.6467L15.1269 13.9779L15.1247 13.9767L13.7567 16.6467ZM12.0554 17.28L9.19439 16.3775L9.19136 16.3871L9.18839 16.3967L12.0554 17.28ZM12.2529 23.2062L9.48917 24.3732L9.48933 24.3735L12.2529 23.2062ZM14.0817 25.9179L16.2297 23.8236L16.216 23.8096L16.2022 23.7958L14.0817 25.9179ZM16.6925 27.695L15.5285 30.46L15.5292 30.4603L16.6925 27.695ZM19.7871 28.3733L21.9246 30.4783L26.7331 25.5954L19.8836 25.3749L19.7871 28.3733ZM19.1683 29.0017L21.2908 31.1219L21.2984 31.1143L21.3059 31.1066L19.1683 29.0017ZM19.17 30.8317L21.298 28.7171L21.2795 28.6984L21.2606 28.68L19.17 30.8317ZM20.9983 30.8317L18.8959 28.6916L18.8813 28.706L18.8669 28.7205L20.9983 30.8317ZM23.9183 27.9629L26.0208 30.1029L26.0391 30.0849L26.0571 30.0666L23.9183 27.9629ZM23.9183 25.9537L26.0397 23.8324L26.0339 23.8267L26.0282 23.821L23.9183 25.9537ZM21.0083 23.075L23.1182 20.9423L23.1035 20.9278L23.0887 20.9135L21.0083 23.075ZM19.1683 23.0779L17.0674 20.9364L17.0652 20.9386L19.1683 23.0779ZM19.1683 24.915L21.2897 22.7937L21.2806 22.7846L21.2715 22.7757L19.1683 24.915ZM19.9929 14.2362L20.0713 11.2373L12.5549 11.0409L17.8716 16.3576L19.9929 14.2362ZM22.2117 14.6888L23.3135 11.8984L23.3131 11.8983L22.2117 14.6888ZM24.085 15.915L26.2074 13.7948L26.2069 13.7942L24.085 15.915ZM25.3412 17.7708L22.5747 18.9311L22.5749 18.9315L25.3412 17.7708ZM25.575 21.5117L28.4319 22.4273L28.4354 22.4162L25.575 21.5117ZM26.2658 23.29L25.029 26.0232L25.0719 26.0426L25.1154 26.0607L26.2658 23.29ZM28.0083 22.5517L25.1676 21.5872L25.1652 21.5944L25.1627 21.6016L28.0083 22.5517ZM28.3075 21.295L31.2799 21.701L31.2802 21.6991L28.3075 21.295ZM27.7767 16.7896L30.5614 15.6737L30.5612 15.6731L27.7767 16.7896ZM25.9567 14.0433L28.0824 11.9264L28.0776 11.9216L25.9567 14.0433ZM20.2229 11.6583L18.0861 9.55258L13.1418 14.5698L20.1853 14.6581L20.2229 11.6583ZM20.8733 10.9983L23.0101 13.1041L23.0616 13.0518L23.1105 12.9971L20.8733 10.9983ZM20.83 9.16333L22.9344 7.02522L22.9332 7.02409L20.83 9.16333ZM19.0017 9.15833L16.9089 7.00886L16.9022 7.0154L16.8955 7.02198L19.0017 9.15833ZM16.0817 12.0371L13.9755 9.90073L13.9591 9.91692L13.9429 9.93337L16.0817 12.0371ZM16.0817 14.0462L13.9603 16.1676L13.9697 16.177L13.9792 16.1863L16.0817 14.0462ZM19.0017 16.915L21.132 14.8027L21.1181 14.7887L21.1041 14.775L19.0017 16.915ZM20.8317 16.92L22.9383 19.0559L22.9406 19.0537L20.8317 16.92ZM20.8317 15.075L22.9541 12.9548L22.953 12.9537L20.8317 15.075ZM13.4371 35.5875L12.2511 38.3431L12.2512 38.3432L13.4371 35.5875ZM4.4125 13.3954L1.6569 12.2094L1.65684 12.2095L4.4125 13.3954ZM8.04417 8.02458L10.1568 10.1546L10.157 10.1544L8.04417 8.02458ZM13.4333 4.40708L14.6226 7.16128L14.6229 7.16114L13.4333 4.40708ZM26.6058 4.40625L27.7943 1.65169L27.7941 1.65163L26.6058 4.40625ZM31.9771 8.02167L29.856 10.1432L29.8561 10.1434L31.9771 8.02167ZM35.5933 13.3917L32.8389 14.5804L32.839 14.5807L35.5933 13.3917ZM35.5929 26.5654L32.8388 25.3759L32.8387 25.3763L35.5929 26.5654ZM31.9754 31.9554L29.8454 29.8428L29.8452 29.843L31.9754 31.9554ZM29.9771 29.9625L32.1021 32.0802L32.1023 32.0799L29.9771 29.9625ZM29.9771 10.0229L32.0985 7.9017L32.0983 7.90149L29.9771 10.0229ZM10.0387 10.0229L7.92163 7.8974L7.92141 7.89762L10.0387 10.0229ZM10.0375 29.9612L7.91575 32.0821L7.91596 32.0824L10.0375 29.9612ZM19.9754 25.7221L19.9452 22.7222C19.5574 22.7261 19.2131 22.6592 18.8878 22.5283L17.7675 25.3112L16.6472 28.0942C17.7213 28.5266 18.849 28.7336 20.0056 28.7219L19.9754 25.7221ZM17.7675 25.3112L18.8881 22.5284C18.5654 22.3985 18.2881 22.2156 18.0369 21.9642L15.915 24.085L13.7931 26.2058C14.613 27.0261 15.5707 27.6607 16.6469 28.0941L17.7675 25.3112ZM15.915 24.085L18.0374 21.9648C17.7513 21.6784 17.5568 21.3825 17.4253 21.0689L14.6587 22.2292L11.8922 23.3894C12.3373 24.4508 12.9803 25.3922 13.7926 26.2052L15.915 24.085ZM14.6587 22.2292L17.4251 21.0685C17.297 20.7631 17.2262 20.4285 17.2262 20.0371H14.2262H11.2262C11.2262 21.194 11.4438 22.3208 11.8924 23.3898L14.6587 22.2292ZM14.2262 20.0371H17.2262C17.2262 19.9209 17.235 19.8146 17.2505 19.7164L14.2871 19.2492L11.3237 18.7819C11.2581 19.1982 11.2262 19.6171 11.2262 20.0371H14.2262ZM14.2871 19.2492L17.2509 19.7138C17.2695 19.5951 17.2996 19.4574 17.3458 19.2995L14.4667 18.4567L11.5875 17.6138C11.4748 17.9987 11.3852 18.3894 11.3233 18.7846L14.2871 19.2492ZM14.4667 18.4567L17.3269 19.3618C17.6437 18.3607 17.6103 17.3154 17.2369 16.3396L14.435 17.4117L11.6331 18.4838C11.5866 18.3623 11.549 18.2048 11.5435 18.023C11.5379 17.8409 11.566 17.6794 11.6065 17.5515L14.4667 18.4567ZM14.435 17.4117L17.2376 16.3415C16.8497 15.3255 16.1251 14.4904 15.1269 13.9779L13.7567 16.6467L12.3864 19.3154C12.2344 19.2374 12.0693 19.118 11.9218 18.9516C11.7752 18.7863 11.6844 18.618 11.6324 18.4818L14.435 17.4117ZM13.7567 16.6467L15.1247 13.9767C14.0708 13.4368 12.8921 13.3565 11.7818 13.7331L12.7454 16.5742L13.709 19.4152C13.5391 19.4728 13.3104 19.5149 13.0454 19.4959C12.7798 19.4768 12.5554 19.402 12.3886 19.3166L13.7567 16.6467ZM12.7454 16.5742L11.7818 13.7331C10.5251 14.1594 9.59221 15.1164 9.19439 16.3775L12.0554 17.28L14.9164 18.1825C14.8479 18.3997 14.7089 18.6783 14.4565 18.9365C14.2038 19.1949 13.9274 19.3411 13.709 19.4152L12.7454 16.5742ZM12.0554 17.28L9.18839 16.3967C9.01719 16.9524 8.88003 17.5169 8.777 18.0896L11.7296 18.6208L14.6822 19.1521C14.7425 18.8169 14.8225 18.4876 14.9224 18.1633L12.0554 17.28ZM11.7296 18.6208L8.777 18.0896C8.66348 18.7205 8.60708 19.358 8.60708 20H11.6071H14.6071C14.6071 19.7109 14.6323 19.429 14.6822 19.1521L11.7296 18.6208ZM11.6071 20H8.60708C8.60708 21.5146 8.90113 22.9805 9.48917 24.3732L12.2529 23.2062L15.0167 22.0393C14.7436 21.3926 14.6071 20.721 14.6071 20H11.6071ZM12.2529 23.2062L9.48933 24.3735C10.0719 25.7527 10.9006 26.9803 11.9611 28.04L14.0817 25.9179L16.2022 23.7958C15.686 23.28 15.2956 22.6998 15.0165 22.039L12.2529 23.2062ZM14.0817 25.9179L11.9337 28.0122C12.9629 29.0678 14.1683 29.8874 15.5285 30.46L16.6925 27.695L17.8565 24.93C17.2306 24.6665 16.6955 24.3014 16.2297 23.8236L14.0817 25.9179ZM16.6925 27.695L15.5292 30.4603C16.8584 31.0194 18.2513 31.3254 19.6906 31.3718L19.7871 28.3733L19.8836 25.3749C19.1829 25.3523 18.5127 25.2061 17.8558 24.9297L16.6925 27.695ZM19.7871 28.3733L17.6495 26.2684L17.0308 26.8967L19.1683 29.0017L21.3059 31.1066L21.9246 30.4783L19.7871 28.3733ZM19.1683 29.0017L17.0459 26.8815C16.2605 27.6677 15.7737 28.7223 15.7737 29.9217H18.7737H21.7737C21.7737 30.133 21.7318 30.3732 21.6295 30.6117C21.5288 30.8466 21.3974 31.0151 21.2908 31.1219L19.1683 29.0017ZM18.7737 29.9217H15.7737C15.7737 31.1285 16.2679 32.1948 17.0794 32.9833L19.17 30.8317L21.2606 28.68C21.3767 28.7929 21.5168 28.9693 21.6234 29.214C21.7313 29.4618 21.7737 29.7088 21.7737 29.9217H18.7737ZM19.17 30.8317L17.0419 32.9462C17.8261 33.7354 18.8818 34.2262 20.0846 34.2262V31.2262V28.2262C20.2987 28.2262 20.5419 28.269 20.7831 28.373C21.0206 28.4755 21.1906 28.609 21.298 28.7171L19.17 30.8317ZM20.0846 31.2262V34.2262C21.2874 34.2262 22.3446 33.7355 23.1298 32.9428L20.9983 30.8317L18.8669 28.7205C18.9754 28.611 19.1466 28.4765 19.3851 28.3734C19.6273 28.2688 19.871 28.2262 20.0846 28.2262V31.2262ZM20.9983 30.8317L23.1008 32.9717L26.0208 30.1029L23.9183 27.9629L21.8159 25.8229L18.8959 28.6916L20.9983 30.8317ZM23.9183 27.9629L26.0571 30.0666C26.8607 29.2497 27.3433 28.1699 27.3433 26.9546H24.3433H21.3433C21.3433 26.7681 21.3798 26.5498 21.4726 26.3296C21.5642 26.1123 21.6838 25.9565 21.7796 25.8592L23.9183 27.9629ZM24.3433 26.9546H27.3433C27.3433 25.737 26.8581 24.6509 26.0397 23.8324L23.9183 25.9537L21.797 28.0751C21.6952 27.9733 21.5705 27.8122 21.4757 27.5891C21.3799 27.3633 21.3433 27.1414 21.3433 26.9546H24.3433ZM23.9183 25.9537L26.0282 23.821L23.1182 20.9423L21.0083 23.075L18.8985 25.2077L21.8085 28.0865L23.9183 25.9537ZM21.0083 23.075L23.0887 20.9135C22.3012 20.1556 21.2614 19.6904 20.0862 19.6904V22.6904V25.6904C19.8825 25.6904 19.6521 25.6509 19.4232 25.5554C19.1975 25.4613 19.0334 25.338 18.928 25.2365L21.0083 23.075ZM20.0862 22.6904V19.6904C18.9028 19.6904 17.8555 20.1632 17.0674 20.9364L19.1683 23.0779L21.2692 25.2195C21.1612 25.3254 20.9933 25.4535 20.7621 25.5511C20.5276 25.6501 20.2925 25.6904 20.0862 25.6904V22.6904ZM19.1683 23.0779L17.0652 20.9386C16.2556 21.7345 15.7737 22.8009 15.7737 23.9967H18.7737H21.7737C21.7737 24.2012 21.7336 24.4418 21.6289 24.6854C21.5254 24.9266 21.388 25.1027 21.2715 25.2172L19.1683 23.0779ZM18.7737 23.9967H15.7737C15.7737 25.1928 16.2561 26.2589 17.0652 27.0543L19.1683 24.915L21.2715 22.7757C21.3878 22.89 21.5251 23.066 21.6287 23.3071C21.7335 23.5509 21.7737 23.7916 21.7737 23.9967H18.7737ZM19.1683 24.915L17.047 27.0363L17.8541 27.8434L19.9754 25.7221L22.0967 23.6008L21.2897 22.7937L19.1683 24.915ZM19.9929 14.2362L19.9146 17.2352C20.3289 17.246 20.7222 17.3261 21.1102 17.4792L22.2117 14.6888L23.3131 11.8983C22.2739 11.4881 21.1881 11.2664 20.0713 11.2373L19.9929 14.2362ZM22.2117 14.6888L21.1099 17.4791C21.4457 17.6117 21.7218 17.7943 21.9631 18.0358L24.085 15.915L26.2069 13.7942C25.3771 12.964 24.4042 12.3291 23.3135 11.8984L22.2117 14.6888ZM24.085 15.915L21.9626 18.0352C22.2487 18.3216 22.4432 18.6175 22.5747 18.9311L25.3412 17.7708L28.1078 16.6106C27.6627 15.5492 27.0197 14.6078 26.2074 13.7948L24.085 15.915ZM25.3412 17.7708L22.5749 18.9315C22.703 19.2369 22.7737 19.5715 22.7737 19.9629H25.7737H28.7737C28.7737 18.806 28.5561 17.6792 28.1076 16.6102L25.3412 17.7708ZM25.7737 19.9629H22.7737C22.7737 20.1272 22.7652 20.2853 22.749 20.4378L25.7321 20.7558L28.7152 21.0739C28.7545 20.7053 28.7737 20.3348 28.7737 19.9629H25.7737ZM25.7321 20.7558L22.749 20.4378C22.7419 20.5046 22.7296 20.5598 22.7146 20.6072L25.575 21.5117L28.4354 22.4162C28.5743 21.9769 28.6667 21.5282 28.7152 21.0739L25.7321 20.7558ZM25.575 21.5117L22.7181 20.596C22.4023 21.5816 22.4271 22.608 22.7737 23.5693L25.5958 22.5517L28.418 21.5341C28.4593 21.6487 28.4928 21.7982 28.4963 21.9716C28.4998 22.1454 28.4722 22.3013 28.4318 22.4273L25.575 21.5117ZM25.5958 22.5517L22.7737 23.5693C23.1602 24.6411 23.9334 25.5274 25.029 26.0232L26.2658 23.29L27.5026 20.5568C27.692 20.6425 27.8976 20.7807 28.0787 20.9802C28.2578 21.1776 28.362 21.3787 28.418 21.5341L25.5958 22.5517ZM26.2658 23.29L25.1154 26.0607C26.1974 26.5099 27.3764 26.515 28.4682 26.0595L27.3129 23.2908L26.1577 20.5222C26.3215 20.4538 26.5396 20.3992 26.7929 20.3994C27.0457 20.3996 27.2597 20.4543 27.4162 20.5193L26.2658 23.29ZM27.3129 23.2908L28.4682 26.0595C29.5906 25.5911 30.4551 24.6964 30.8539 23.5017L28.0083 22.5517L25.1627 21.6016C25.2305 21.3985 25.3563 21.1606 25.5624 20.9416C25.7669 20.7242 25.9861 20.5938 26.1577 20.5222L27.3129 23.2908ZM28.0083 22.5517L30.8491 23.5162C31.0501 22.9241 31.1956 22.3184 31.2799 21.701L28.3075 21.295L25.3351 20.889C25.305 21.1094 25.251 21.3414 25.1676 21.5872L28.0083 22.5517ZM28.3075 21.295L31.2802 21.6991C31.3563 21.1393 31.3929 20.5718 31.3929 19.9983H28.3929H25.3929C25.3929 20.3159 25.3726 20.6129 25.3348 20.8909L28.3075 21.295ZM28.3929 19.9983H31.3929C31.3929 18.5055 31.1157 17.0569 30.5614 15.6737L27.7767 16.7896L24.9919 17.9054C25.2593 18.5728 25.3929 19.2634 25.3929 19.9983H28.3929ZM27.7767 16.7896L30.5612 15.6731C29.9955 14.2624 29.1607 13.0092 28.0824 11.9264L25.9567 14.0433L23.831 16.1602C24.3571 16.6885 24.7356 17.2662 24.9922 17.9061L27.7767 16.7896ZM25.9567 14.0433L28.0776 11.9216C27.0313 10.8758 25.8144 10.0666 24.4452 9.50906L23.3138 12.2875L22.1823 15.0659C22.8076 15.3206 23.3525 15.682 23.8357 16.165L25.9567 14.0433ZM23.3138 12.2875L24.4452 9.50906C23.1049 8.96322 21.7039 8.67667 20.2605 8.65857L20.2229 11.6583L20.1853 14.6581C20.8686 14.6667 21.5281 14.7996 22.1823 15.0659L23.3138 12.2875ZM20.2229 11.6583L22.3597 13.7641L23.0101 13.1041L20.8733 10.9983L18.7366 8.89258L18.0861 9.55258L20.2229 11.6583ZM20.8733 10.9983L23.1105 12.9971C23.8322 12.1894 24.2262 11.173 24.2262 10.0783H21.2262H18.2262C18.2262 9.91032 18.2559 9.70797 18.337 9.49636C18.418 9.28518 18.5297 9.11873 18.6362 8.99954L20.8733 10.9983ZM21.2262 10.0783H24.2262C24.2262 8.87311 23.7339 7.8121 22.9344 7.02522L20.83 9.16333L18.7256 11.3014C18.6143 11.1919 18.4782 11.0194 18.3742 10.7793C18.2687 10.5356 18.2262 10.2913 18.2262 10.0783H21.2262ZM20.83 9.16333L22.9332 7.02409C22.1526 6.2566 21.1082 5.77375 19.9154 5.77375V8.77375V11.7737C19.7018 11.7737 19.4628 11.7314 19.2275 11.6312C18.9963 11.5327 18.8308 11.4049 18.7268 11.3026L20.83 9.16333ZM19.9154 8.77375V5.77375C18.7353 5.77375 17.6935 6.24491 16.9089 7.00886L19.0017 9.15833L21.0945 11.3078C20.9877 11.4118 20.8212 11.5383 20.5914 11.635C20.3582 11.7331 20.1233 11.7737 19.9154 11.7737V8.77375ZM19.0017 9.15833L16.8955 7.02198L13.9755 9.90073L16.0817 12.0371L18.1878 14.1734L21.1078 11.2947L19.0017 9.15833ZM16.0817 12.0371L13.9429 9.93337C13.1393 10.7503 12.6567 11.8301 12.6567 13.0454H15.6567H18.6567C18.6567 13.2319 18.6202 13.4502 18.5274 13.6704C18.4358 13.8877 18.3162 14.0435 18.2204 14.1408L16.0817 12.0371ZM15.6567 13.0454H12.6567C12.6567 14.263 13.1419 15.3491 13.9603 16.1676L16.0817 14.0462L18.203 11.9249C18.3048 12.0267 18.4295 12.1878 18.5243 12.4109C18.6201 12.6367 18.6567 12.8587 18.6567 13.0454H15.6567ZM16.0817 14.0462L13.9792 16.1863L16.8992 19.055L19.0017 16.915L21.1041 14.775L18.1841 11.9062L16.0817 14.0462ZM19.0017 16.915L16.8714 19.0273C17.6553 19.8179 18.7115 20.3096 19.915 20.3096V17.3096V14.3096C20.1295 14.3096 20.3735 14.3524 20.6154 14.457C20.8536 14.5599 21.0242 14.694 21.132 14.8027L19.0017 16.915ZM19.915 17.3096V20.3096C21.105 20.3096 22.153 19.8304 22.9383 19.0559L20.8317 16.92L18.725 14.7841C18.8317 14.6789 18.9992 14.5499 19.2316 14.4512C19.4675 14.3509 19.7052 14.3096 19.915 14.3096V17.3096ZM20.8317 16.92L22.9406 19.0537C23.7441 18.2595 24.2262 17.196 24.2262 16H21.2262H18.2262C18.2262 15.7944 18.2667 15.5545 18.3705 15.3125C18.4731 15.0732 18.6087 14.899 18.7228 14.7863L20.8317 16.92ZM21.2262 16H24.2262C24.2262 14.8055 23.7457 13.7472 22.9541 12.9548L20.8317 15.075L18.7092 17.1952C18.6 17.0859 18.4684 16.9157 18.3682 16.6809C18.2667 16.443 18.2262 16.2057 18.2262 16H21.2262ZM20.8317 15.075L22.953 12.9537L22.1142 12.1149L19.9929 14.2362L17.8716 16.3576L18.7103 17.1963L20.8317 15.075ZM20.0012 36.9158V33.9158C18.0762 33.9158 16.293 33.5505 14.623 32.8318L13.4371 35.5875L12.2512 38.3432C14.6967 39.3956 17.2897 39.9158 20.0012 39.9158V36.9158ZM13.4371 35.5875L14.6231 32.8319C12.9038 32.0919 11.4268 31.0924 10.1672 29.8328L8.04583 31.9542L5.92451 34.0755C7.73825 35.8892 9.85537 37.312 12.2511 38.3431L13.4371 35.5875ZM8.04583 31.9542L10.1672 29.8328C8.90735 28.573 7.90788 27.0962 7.16793 25.3777L4.4125 26.5642L1.65707 27.7506C2.68823 30.1454 4.11098 32.262 5.92451 34.0755L8.04583 31.9542ZM4.4125 26.5642L7.16793 25.3777C6.44947 23.7092 6.08417 21.9267 6.08417 20.0012H3.08417H0.0841663C0.0841663 22.7131 0.604415 25.3058 1.65707 27.7506L4.4125 26.5642ZM3.08417 20.0012H6.08417C6.08417 18.0433 6.4514 16.2469 7.16816 14.5813L4.4125 13.3954L1.65684 12.2095C0.602493 14.6595 0.0841663 17.267 0.0841663 20.0012H3.08417ZM4.4125 13.3954L7.1681 14.5814C7.90728 12.864 8.90379 11.3974 10.1568 10.1546L8.04417 8.02458L5.93153 5.89461C4.11344 7.69791 2.68883 9.81181 1.6569 12.2094L4.4125 13.3954ZM8.04417 8.02458L10.157 10.1544C11.4168 8.90454 12.897 7.90644 14.6226 7.16128L13.4333 4.40708L12.244 1.65289C9.85527 2.68439 7.7426 4.09796 5.93134 5.8948L8.04417 8.02458ZM13.4333 4.40708L14.6229 7.16114C16.2914 6.44047 18.0733 6.07417 19.9979 6.07417V3.07417V0.0741675C17.2842 0.0741675 14.6897 0.596473 12.2437 1.65303L13.4333 4.40708ZM19.9979 3.07417V6.07417C21.9554 6.07417 23.7516 6.44223 25.4175 7.16087L26.6058 4.40625L27.7941 1.65163C25.3428 0.594161 22.7338 0.0741675 19.9979 0.0741675V3.07417ZM26.6058 4.40625L25.4174 7.16081C27.1422 7.90498 28.6126 8.90003 29.856 10.1432L31.9771 8.02167L34.0982 5.90015C32.2966 4.09886 30.1861 2.68363 27.7943 1.65169L26.6058 4.40625ZM31.9771 8.02167L29.8561 10.1434C31.0997 11.3865 32.0949 12.8564 32.8389 14.5804L35.5933 13.3917L38.3478 12.203C37.3157 9.81142 35.9 7.70127 34.098 5.89996L31.9771 8.02167ZM35.5933 13.3917L32.839 14.5807C33.5576 16.2452 33.9258 18.0414 33.9258 20H36.9258H39.9258C39.9258 17.2631 39.4057 14.6536 38.3476 12.2026L35.5933 13.3917ZM36.9258 20H33.9258C33.9258 21.9249 33.5595 23.7072 32.8388 25.3759L35.5929 26.5654L38.347 27.7549C39.4035 25.3086 39.9258 22.7139 39.9258 20H36.9258ZM35.5929 26.5654L32.8387 25.3763C32.0935 27.1022 31.0953 28.5826 29.8454 29.8428L31.9754 31.9554L34.1054 34.068C35.9022 32.2565 37.3157 30.1436 38.3472 27.7546L35.5929 26.5654ZM31.9754 31.9554L29.8452 29.843C28.6023 31.0964 27.1359 32.093 25.4194 32.8321L26.6058 35.5875L27.7923 38.3429C30.1891 37.3109 32.3025 35.8861 34.1056 34.0679L31.9754 31.9554ZM26.6058 35.5875L25.4194 32.8321C23.7553 33.5486 21.9596 33.9158 20.0012 33.9158V36.9158V39.9158C22.7357 39.9158 25.343 39.3975 27.7923 38.3429L26.6058 35.5875ZM20 34.0771V37.0771C24.7048 37.0771 28.7982 35.3954 32.1021 32.0802L29.9771 29.9625L27.8521 27.8448C25.6887 30.0157 23.1308 31.0771 20 31.0771V34.0771ZM29.9771 29.9625L32.1023 32.0799C35.4 28.7701 37.0771 24.6861 37.0771 20H34.0771H31.0771C31.0771 23.1105 30.0208 25.6682 27.8519 27.8451L29.9771 29.9625ZM34.0771 20H37.0771C37.0771 15.2987 35.4028 11.2064 32.0985 7.9017L29.9771 10.0229L27.8557 12.1441C30.018 14.3067 31.0771 16.8658 31.0771 20H34.0771ZM29.9771 10.0229L32.0983 7.90149C28.7931 4.59662 24.6989 2.92292 19.995 2.92292V5.92292V8.92292C23.1333 8.92292 25.6938 9.98254 27.8559 12.1443L29.9771 10.0229ZM19.995 5.92292V2.92292C15.3127 2.92292 11.2313 4.60076 7.92163 7.8974L10.0387 10.0229L12.1559 12.1484C14.3345 9.97841 16.8906 8.92292 19.995 8.92292V5.92292ZM10.0387 10.0229L7.92141 7.89762C4.60467 11.2019 2.92292 15.2974 2.92292 20.005H5.92292H8.92292C8.92292 16.8704 9.98505 14.3111 12.1561 12.1482L10.0387 10.0229ZM5.92292 20.005H2.92292C2.92292 24.6907 4.60818 28.7732 7.91575 32.0821L10.0375 29.9612L12.1592 27.8404C9.9807 25.6609 8.92292 23.106 8.92292 20.005H5.92292ZM10.0375 29.9612L7.91596 32.0824C11.2249 35.392 15.3101 37.0771 20 37.0771V34.0771V31.0771C16.8932 31.0771 14.3368 30.0183 12.159 27.8401L10.0375 29.9612Z" fill="var(--stroke-0, #F4813E)" mask="url(#path-1-inside-1_0_115)"/>
</g>
</g>
</svg>
