<svg width="18" height="18" viewBox="0 0 18 18" fill="none" xmlns="http://www.w3.org/2000/svg">
<path d="M3.2666 2.05859H13.9502C14.2764 2.05859 14.559 2.17897 14.7988 2.41895C15.0388 2.6588 15.1592 2.94134 15.1592 3.26758V7.54004C15.1592 7.71088 15.1009 7.84891 14.9854 7.95508C14.8691 8.06183 14.7264 8.11523 14.5576 8.11523C14.3892 8.11514 14.2491 8.05807 14.1367 7.94434C14.0246 7.83053 13.9688 7.6903 13.9688 7.52246V3.24902H3.24902V13.9688H7.09082C7.2586 13.9688 7.3988 14.0262 7.5127 14.1406C7.62661 14.2551 7.68359 14.3966 7.68359 14.5654C7.68351 14.7341 7.62642 14.8741 7.5127 14.9863C7.39885 15.0987 7.25862 15.1553 7.09082 15.1553H3.2666C2.94165 15.1552 2.65986 15.036 2.4209 14.7969C2.18181 14.5579 2.06255 14.2761 2.0625 13.9512V3.26758C2.0625 2.94149 2.182 2.65872 2.4209 2.41895C2.65987 2.17903 2.94167 2.05865 3.2666 2.05859ZM12.3691 12.1572C12.8617 12.1572 13.3367 12.2083 13.7939 12.3096C14.1366 12.3855 14.4766 12.5006 14.8135 12.6553L15.1494 12.8232H15.1504C15.3975 12.9377 15.5908 13.1131 15.7305 13.3486C15.87 13.5844 15.9404 13.8637 15.9404 14.1855V14.5615C15.9404 14.7294 15.883 14.8705 15.7676 14.9844C15.652 15.0983 15.5102 15.1553 15.3428 15.1553H9.38867C9.26294 15.1552 9.15291 15.1226 9.05762 15.0586L8.9668 14.9844C8.85277 14.8705 8.7959 14.7295 8.7959 14.5615V14.1855C8.7959 13.8642 8.86487 13.5877 9.00293 13.3564C9.14126 13.125 9.3344 12.9471 9.58203 12.8232C10.026 12.5938 10.4789 12.4256 10.9395 12.3184C11.4001 12.2111 11.8766 12.1572 12.3691 12.1572ZM5.52734 11.1348H9.00684C9.15474 11.1348 9.27853 11.1837 9.37793 11.2832C9.47743 11.3827 9.5273 11.506 9.52734 11.6533C9.52734 11.8006 9.47743 11.9242 9.37793 12.0244C9.27851 12.1245 9.15473 12.1748 9.00684 12.1748H5.52734C5.37921 12.1748 5.25564 12.1255 5.15625 12.0273C5.05703 11.9294 5.00789 11.8073 5.00781 11.6602C5.00781 11.5127 5.05757 11.3887 5.15723 11.2871C5.25687 11.1855 5.3796 11.1348 5.52734 11.1348ZM12.3682 7.61133C12.857 7.61133 13.2696 7.77898 13.6064 8.11426C13.9428 8.44952 14.1113 8.86155 14.1113 9.35156C14.1113 9.84193 13.9431 10.2546 13.6064 10.5898C13.2696 10.9252 12.857 11.0928 12.3682 11.0928C11.8793 11.0928 11.4667 10.9252 11.1299 10.5898C10.7932 10.2546 10.625 9.84192 10.625 9.35156C10.625 8.86156 10.7934 8.44951 11.1299 8.11426C11.4667 7.77898 11.8793 7.61133 12.3682 7.61133ZM5.52734 8.08887H9.00684C9.15485 8.08887 9.27841 8.1382 9.37793 8.23633C9.47723 8.33425 9.52726 8.45697 9.52734 8.60547C9.52734 8.75439 9.47662 8.87839 9.37695 8.97852C9.27742 9.07871 9.1547 9.12891 9.00684 9.12891H5.52734C5.3794 9.12887 5.25585 9.07955 5.15625 8.98145C5.05711 8.88347 5.00781 8.76088 5.00781 8.6123C5.00782 8.46339 5.05768 8.33938 5.15723 8.23926C5.25681 8.13924 5.37966 8.0889 5.52734 8.08887ZM5.5293 5.03906H11.6943C11.8391 5.0391 11.9614 5.08905 12.0625 5.18848C12.1635 5.28808 12.2139 5.41089 12.2139 5.55664C12.2138 5.7053 12.1633 5.82866 12.0625 5.92871C11.9613 6.02907 11.8392 6.07907 11.6943 6.0791H5.5293C5.38094 6.0791 5.25705 6.03056 5.15723 5.93262C5.05753 5.83454 5.00781 5.71187 5.00781 5.56445C5.00786 5.41724 5.05737 5.29311 5.15723 5.19141C5.25712 5.08997 5.38105 5.03906 5.5293 5.03906Z" fill="#F4813E" stroke="#F4813E" stroke-width="0.0358696"/>
</svg>
