<svg preserveAspectRatio="none" width="100%" height="100%" overflow="visible" style="display: block;" viewBox="0 0 40 40" fill="none" xmlns="http://www.w3.org/2000/svg">
<g id="location_searching">
<g id="Vector">
<mask id="path-1-inside-1_0_140" fill="white">
<path d="M18.6404 37.2129V35.4475C14.8215 35.0519 11.63 33.5719 9.06583 31.0075C6.50139 28.4433 5.02472 25.2551 4.63583 21.4429H2.87042C2.48514 21.4429 2.16222 21.3121 1.90167 21.0504C1.64111 20.789 1.51083 20.4649 1.51083 20.0779C1.51083 19.6913 1.64111 19.3689 1.90167 19.1108C2.16222 18.8528 2.48514 18.7237 2.87042 18.7237H4.63583C5.03139 14.9049 6.51139 11.7133 9.07583 9.14917C11.64 6.58472 14.8282 5.10806 18.6404 4.71917V2.95375C18.6404 2.56847 18.7713 2.24556 19.0329 1.985C19.2943 1.72444 19.6185 1.59417 20.0054 1.59417C20.3921 1.59417 20.7144 1.72444 20.9725 1.985C21.2306 2.24556 21.3596 2.56847 21.3596 2.95375V4.71917C25.1718 5.10806 28.36 6.58472 30.9242 9.14917C33.4886 11.7133 34.9686 14.9049 35.3642 18.7237H37.1296C37.5149 18.7237 37.8378 18.8546 38.0983 19.1163C38.3589 19.3776 38.4892 19.7018 38.4892 20.0888C38.4892 20.4754 38.3589 20.7978 38.0983 21.0558C37.8378 21.3139 37.5149 21.4429 37.1296 21.4429H35.3642C34.9753 25.2551 33.4986 28.4433 30.9342 31.0075C28.37 33.5719 25.1785 35.0519 21.3596 35.4475V37.2129C21.3596 37.5982 21.2287 37.9211 20.9671 38.1817C20.7057 38.4422 20.3815 38.5725 19.9946 38.5725C19.6079 38.5725 19.2856 38.4422 19.0275 38.1817C18.7694 37.9211 18.6404 37.5982 18.6404 37.2129ZM19.9983 32.6604C23.4517 32.6604 26.4115 31.4279 28.8779 28.9629C31.344 26.4976 32.5771 23.5383 32.5771 20.085C32.5771 16.6317 31.3446 13.6718 28.8796 11.2054C26.4143 8.73931 23.455 7.50625 20.0017 7.50625C16.5483 7.50625 13.5885 8.73875 11.1221 11.2038C8.65597 13.669 7.42292 16.6283 7.42292 20.0817C7.42292 23.535 8.65542 26.4949 11.1204 28.9613C13.5857 31.4274 16.545 32.6604 19.9983 32.6604Z"/>
</mask>
<path d="M18.6404 35.4475H21.6404V32.7422L18.9495 32.4635L18.6404 35.4475ZM9.06583 31.0075L11.1873 28.8863L11.187 28.8861L9.06583 31.0075ZM4.63583 21.4429L7.62034 21.1385L7.34537 18.4429H4.63583V21.4429ZM1.90167 21.0504L4.0275 18.9336L4.02637 18.9325L1.90167 21.0504ZM4.63583 18.7238V21.7238H7.34115L7.61987 19.0328L4.63583 18.7238ZM9.07583 9.14917L11.197 11.2706L11.1973 11.2704L9.07583 9.14917ZM18.6404 4.71917L18.9449 7.70368L21.6404 7.4287V4.71917H18.6404ZM19.0329 1.985L21.1497 4.11083L21.1508 4.1097L19.0329 1.985ZM21.3596 4.71917H18.3596V7.4287L21.0551 7.70368L21.3596 4.71917ZM30.9242 9.14917L28.8027 11.2704L28.803 11.2706L30.9242 9.14917ZM35.3642 18.7238L32.3801 19.0328L32.6589 21.7238H35.3642V18.7238ZM38.0983 19.1163L35.9725 21.2331L35.9736 21.2342L38.0983 19.1163ZM35.3642 21.4429V18.4429H32.6546L32.3797 21.1385L35.3642 21.4429ZM30.9342 31.0075L28.813 28.8861L28.8127 28.8863L30.9342 31.0075ZM21.3596 35.4475L21.0505 32.4635L18.3596 32.7422V35.4475H21.3596ZM20.9671 38.1817L18.8503 36.0558L18.8492 36.057L20.9671 38.1817ZM28.8779 28.9629L30.9986 31.0848L30.9989 31.0846L28.8779 28.9629ZM28.8796 11.2054L31.0015 9.08469L31.0013 9.08445L28.8796 11.2054ZM11.1221 11.2038L9.00136 9.08183L9.00112 9.08207L11.1221 11.2038ZM11.1204 28.9613L8.9985 31.082L8.99874 31.0822L11.1204 28.9613ZM18.6404 37.2129H21.6404V35.4475H18.6404H15.6404V37.2129H18.6404ZM18.6404 35.4475L18.9495 32.4635C15.7725 32.1344 13.2344 30.9336 11.1873 28.8863L9.06583 31.0075L6.9444 33.1287C10.0256 36.2103 13.8705 37.9695 18.3313 38.4315L18.6404 35.4475ZM9.06583 31.0075L11.187 28.8861C9.13994 26.8392 7.94344 24.3057 7.62034 21.1385L4.63583 21.4429L1.65132 21.7474C2.10601 26.2046 3.86284 30.0475 6.94463 33.1289L9.06583 31.0075ZM4.63583 21.4429V18.4429H2.87042V21.4429V24.4429H4.63583V21.4429ZM2.87042 21.4429V18.4429C3.02302 18.4429 3.23333 18.4701 3.46581 18.5643C3.70083 18.6596 3.89008 18.7956 4.0275 18.9336L1.90167 21.0504L-0.224163 23.1672C0.626018 24.021 1.72586 24.4429 2.87042 24.4429V21.4429ZM1.90167 21.0504L4.02637 18.9325C4.16431 19.0709 4.29863 19.2598 4.39216 19.4926C4.48456 19.7225 4.51083 19.9293 4.51083 20.0779H1.51083H-1.48917C-1.48917 21.2161 -1.07363 22.315 -0.223038 23.1683L1.90167 21.0504ZM1.51083 20.0779H4.51083C4.51083 20.2267 4.48454 20.4363 4.38999 20.6702C4.29414 20.9074 4.1559 21.1006 4.01274 21.2424L1.90167 19.1108L-0.209403 16.9793C-1.07239 17.834 -1.48917 18.9391 -1.48917 20.0779H1.51083ZM1.90167 19.1108L4.01274 21.2424C3.87338 21.3804 3.68422 21.5137 3.45241 21.6064C3.22349 21.6978 3.01791 21.7238 2.87042 21.7238V18.7238V15.7238C1.73895 15.7238 0.643722 16.1344 -0.209403 16.9793L1.90167 19.1108ZM2.87042 18.7238V21.7238H4.63583V18.7238V15.7238H2.87042V18.7238ZM4.63583 18.7238L7.61987 19.0328C7.94893 15.8559 9.14971 13.3177 11.197 11.2706L9.07583 9.14917L6.95463 7.02773C3.87306 10.109 2.11384 13.9538 1.6518 18.4147L4.63583 18.7238ZM9.07583 9.14917L11.1973 11.2704C13.2441 9.22327 15.7776 8.02677 18.9449 7.70368L18.6404 4.71917L18.336 1.73466C13.8788 2.18934 10.0359 3.94618 6.9544 7.02796L9.07583 9.14917ZM18.6404 4.71917H21.6404V2.95375H18.6404H15.6404V4.71917H18.6404ZM18.6404 2.95375H21.6404C21.6404 3.10635 21.6132 3.31666 21.519 3.54914C21.4238 3.78417 21.2877 3.97341 21.1497 4.11083L19.0329 1.985L16.9161 -0.140829C16.0623 0.709352 15.6404 1.80919 15.6404 2.95375H18.6404ZM19.0329 1.985L21.1508 4.1097C21.0125 4.24764 20.8235 4.38196 20.5908 4.47549C20.3608 4.5679 20.154 4.59417 20.0054 4.59417V1.59417V-1.40583C18.8673 -1.40583 17.7683 -0.990298 16.915 -0.139704L19.0329 1.985ZM20.0054 1.59417V4.59417C19.8567 4.59417 19.6471 4.56787 19.4131 4.47332C19.1759 4.37747 18.9828 4.23924 18.841 4.09607L20.9725 1.985L23.104 -0.126069C22.2493 -0.989052 21.1443 -1.40583 20.0054 -1.40583V1.59417ZM20.9725 1.985L18.841 4.09607C18.703 3.95672 18.5696 3.76755 18.477 3.53574C18.3855 3.30683 18.3596 3.10124 18.3596 2.95375H21.3596H24.3596C24.3596 1.82229 23.949 0.727056 23.104 -0.126069L20.9725 1.985ZM21.3596 2.95375H18.3596V4.71917H21.3596H24.3596V2.95375H21.3596ZM21.3596 4.71917L21.0551 7.70368C24.2224 8.02677 26.7559 9.22327 28.8027 11.2704L30.9242 9.14917L33.0456 7.02796C29.9641 3.94617 26.1212 2.18934 21.664 1.73466L21.3596 4.71917ZM30.9242 9.14917L28.803 11.2706C30.8503 13.3177 32.0511 15.8559 32.3801 19.0328L35.3642 18.7238L38.3482 18.4147C37.8862 13.9538 36.1269 10.109 33.0454 7.02773L30.9242 9.14917ZM35.3642 18.7238V21.7238H37.1296V18.7238V15.7238H35.3642V18.7238ZM37.1296 18.7238V21.7238C36.977 21.7238 36.7667 21.6965 36.5342 21.6023C36.2992 21.5071 36.1099 21.3711 35.9725 21.2331L38.0983 19.1163L40.2242 16.9994C39.374 16.1456 38.2741 15.7238 37.1296 15.7238V18.7238ZM38.0983 19.1163L35.9736 21.2342C35.8357 21.0958 35.7014 20.9068 35.6078 20.6741C35.5154 20.4442 35.4892 20.2373 35.4892 20.0887H38.4892H41.4892C41.4892 18.9506 41.0736 17.8516 40.223 16.9983L38.0983 19.1163ZM38.4892 20.0887H35.4892C35.4892 19.94 35.5155 19.7304 35.61 19.4964C35.7059 19.2593 35.8441 19.0661 35.9873 18.9243L38.0983 21.0558L40.2094 23.1874C41.0724 22.3327 41.4892 21.2276 41.4892 20.0887H38.4892ZM38.0983 21.0558L35.9873 18.9243C36.1266 18.7863 36.3158 18.6529 36.5476 18.5603C36.7765 18.4688 36.9821 18.4429 37.1296 18.4429V21.4429V24.4429C38.261 24.4429 39.3563 24.0323 40.2094 23.1874L38.0983 21.0558ZM37.1296 21.4429V18.4429H35.3642V21.4429V24.4429H37.1296V21.4429ZM35.3642 21.4429L32.3797 21.1385C32.0566 24.3057 30.8601 26.8392 28.813 28.8861L30.9342 31.0075L33.0554 33.1289C36.1372 30.0475 37.894 26.2046 38.3487 21.7474L35.3642 21.4429ZM30.9342 31.0075L28.8127 28.8863C26.7656 30.9336 24.2275 32.1344 21.0505 32.4635L21.3596 35.4475L21.6687 38.4315C26.1295 37.9695 29.9744 36.2103 33.0556 33.1287L30.9342 31.0075ZM21.3596 35.4475H18.3596V37.2129H21.3596H24.3596V35.4475H21.3596ZM21.3596 37.2129H18.3596C18.3596 37.0603 18.3868 36.85 18.481 36.6175C18.5762 36.3825 18.7123 36.1933 18.8503 36.0558L20.9671 38.1817L23.0839 40.3075C23.9377 39.4573 24.3596 38.3575 24.3596 37.2129H21.3596ZM20.9671 38.1817L18.8492 36.057C18.9875 35.919 19.1765 35.7847 19.4092 35.6912C19.6392 35.5988 19.846 35.5725 19.9946 35.5725V38.5725V41.5725C21.1327 41.5725 22.2317 41.157 23.085 40.3064L20.9671 38.1817ZM19.9946 38.5725V35.5725C20.1433 35.5725 20.3529 35.5988 20.5869 35.6933C20.8241 35.7892 21.0172 35.9274 21.159 36.0706L19.0275 38.1817L16.896 40.2927C17.7507 41.1557 18.8557 41.5725 19.9946 41.5725V38.5725ZM19.0275 38.1817L21.159 36.0706C21.297 36.21 21.4304 36.3991 21.523 36.6309C21.6145 36.8598 21.6404 37.0654 21.6404 37.2129H18.6404H15.6404C15.6404 38.3444 16.051 39.4396 16.896 40.2927L19.0275 38.1817ZM19.9983 32.6604V35.6604C24.2557 35.6604 27.9759 34.1059 30.9986 31.0848L28.8779 28.9629L26.7572 26.841C24.8472 28.7499 22.6476 29.6604 19.9983 29.6604V32.6604ZM28.8779 28.9629L30.9989 31.0846C34.0216 28.0628 35.5771 24.3428 35.5771 20.085H32.5771H29.5771C29.5771 22.7338 28.6664 24.9324 26.757 26.8412L28.8779 28.9629ZM32.5771 20.085H35.5771C35.5771 15.8276 34.0226 12.1075 31.0015 9.08469L28.8796 11.2054L26.7577 13.3261C28.6666 15.2361 29.5771 17.4357 29.5771 20.085H32.5771ZM28.8796 11.2054L31.0013 9.08445C27.9795 6.06169 24.2595 4.50625 20.0017 4.50625V7.50625V10.5063C22.6505 10.5063 24.8491 11.4169 26.7579 13.3264L28.8796 11.2054ZM20.0017 7.50625V4.50625C15.7443 4.50625 12.0241 6.06075 9.00136 9.08183L11.1221 11.2038L13.2428 13.3257C15.1528 11.4167 17.3524 10.5063 20.0017 10.5063V7.50625ZM11.1221 11.2038L9.00112 9.08207C5.97835 12.1038 4.42292 15.8238 4.42292 20.0817H7.42292H10.4229C10.4229 17.4328 11.3336 15.2342 13.243 13.3254L11.1221 11.2038ZM7.42292 20.0817H4.42292C4.42292 24.339 5.97742 28.0592 8.9985 31.082L11.1204 28.9613L13.2423 26.8405C11.3334 24.9305 10.4229 22.731 10.4229 20.0817H7.42292ZM11.1204 28.9613L8.99874 31.0822C12.0205 34.105 15.7405 35.6604 19.9983 35.6604V32.6604V29.6604C17.3495 29.6604 15.1509 28.7497 13.2421 26.8403L11.1204 28.9613Z" fill="var(--stroke-0, #2DA2DB)" mask="url(#path-1-inside-1_0_140)"/>
</g>
</g>
</svg>
