<svg preserveAspectRatio="none" width="100%" height="100%" overflow="visible" style="display: block;" viewBox="0 0 40 40" fill="none" xmlns="http://www.w3.org/2000/svg">
<g id="conversion_path">
<path id="Vector" d="M8.08366 4.79622C9.29008 4.79629 10.3235 5.15428 11.1852 5.87044C12.0479 6.58793 12.6098 7.44658 12.8717 8.44661L12.8766 8.46517H21.6667C23.5139 8.46517 25.0432 9.07249 26.2565 10.2855C27.4694 11.4987 28.0758 13.0282 28.0758 14.8753C28.0758 16.7224 27.4694 18.252 26.2565 19.4652C25.0433 20.678 23.5138 21.2845 21.6667 21.2845H18.4587C17.3339 21.2845 16.4115 21.6429 15.694 22.3607C14.9763 23.0781 14.6178 23.999 14.6178 25.1204C14.6179 26.2482 14.9765 27.1716 15.694 27.889C16.4115 28.6067 17.3339 28.9652 18.4587 28.9652H27.1335L27.1383 28.9466C27.3936 27.9466 27.9524 27.0879 28.8151 26.3704C29.6769 25.6543 30.7102 25.2962 31.9167 25.2962C33.3027 25.2962 34.4745 25.7749 35.4333 26.7337C36.3918 27.6925 36.8707 28.8643 36.8708 30.2503C36.8708 31.6366 36.3918 32.8084 35.4333 33.7669C34.4745 34.7252 33.3027 35.2044 31.9167 35.2044C30.7101 35.2044 29.6694 34.8456 28.7936 34.1292C27.9173 33.4118 27.3659 32.5535 27.1383 31.554L27.1344 31.5345H18.4587C16.6094 31.5345 15.079 30.9281 13.8669 29.7152C12.6548 28.502 12.0486 26.9708 12.0485 25.1204C12.0485 23.2767 12.6549 21.7487 13.8669 20.5355C15.079 19.3225 16.6094 18.7152 18.4587 18.7152H21.6667C22.7894 18.7152 23.7108 18.3561 24.4294 17.637C25.1478 16.9183 25.5074 15.9965 25.5075 14.8734C25.5075 13.75 25.1479 12.8281 24.4294 12.1107C23.7108 11.3931 22.7894 11.0345 21.6667 11.0345H12.8766L12.8717 11.0531C12.6099 12.0531 12.0479 12.9117 11.1852 13.6292C10.3235 14.3454 9.2901 14.7044 8.08366 14.7044C6.69765 14.7044 5.52586 14.2247 4.56706 13.266C3.60852 12.3071 3.12956 11.1354 3.12956 9.74935C3.12961 8.36314 3.60858 7.19122 4.56706 6.23275C5.52581 5.27468 6.69776 4.79622 8.08366 4.79622ZM8.08366 7.47493C7.4385 7.47493 6.89708 7.69276 6.46159 8.12825C6.02609 8.56375 5.80827 9.10517 5.80827 9.75033C5.80834 10.3953 6.02628 10.936 6.46159 11.3714C6.89708 11.8069 7.4385 12.0247 8.08366 12.0247C8.72867 12.0247 9.26933 11.8068 9.70475 11.3714C10.1402 10.936 10.358 10.3953 10.3581 9.75033C10.3581 9.10517 10.1402 8.56375 9.70475 8.12825C9.26936 7.69294 8.72859 7.47501 8.08366 7.47493Z" fill="var(--fill-0, #2DA2DB)" stroke="var(--stroke-0, #2DA2DB)" stroke-width="0.05"/>
</g>
</svg>
