<svg preserveAspectRatio="none" width="100%" height="100%" overflow="visible" style="display: block;" viewBox="0 0 35.3271 35.3271" fill="none" xmlns="http://www.w3.org/2000/svg">
<path id="Vector" d="M17.6634 17.6634V17.6801M15.7086 24.9619C13.9621 25.8444 11.9976 26.2026 10.0521 25.9933C8.10662 25.7839 6.26329 25.016 4.74463 23.7821C3.22597 22.5482 2.09689 20.9011 1.49368 19.0397C0.890469 17.1782 0.838909 15.182 1.34522 13.2919L10.3652 15.7086C9.48269 13.9621 9.12448 11.9976 9.33383 10.0521C9.54319 8.10662 10.3112 6.26329 11.545 4.74463C12.7789 3.22597 14.426 2.09689 16.2874 1.49368C18.1489 0.890469 20.1451 0.838909 22.0352 1.34522L19.6186 10.3652C21.365 9.48269 23.3295 9.12448 25.275 9.33383C27.2205 9.54319 29.0638 10.3112 30.5825 11.545C32.1011 12.7789 33.2302 14.426 33.8334 16.2874C34.4366 18.1489 34.4882 20.1451 33.9819 22.0352L24.9619 19.6186C25.8444 21.365 26.2026 23.3295 25.9933 25.275C25.7839 27.2205 25.016 29.0638 23.7821 30.5825C22.5482 32.1011 20.9011 33.2302 19.0397 33.8334C17.1782 34.4366 15.182 34.4882 13.2919 33.9819L15.7086 24.9619Z" stroke="var(--stroke-0, #2DA2DB)" stroke-width="2" stroke-linecap="round" stroke-linejoin="round"/>
</svg>
