<svg preserveAspectRatio="none" width="100%" height="100%" overflow="visible" style="display: block;" viewBox="0 0 40 40" fill="none" xmlns="http://www.w3.org/2000/svg">
<g id="inventory_2">
<g id="Vector">
<mask id="path-1-inside-1_0_132" fill="white">
<path d="M7.58958 36.9158C6.80208 36.9158 6.13208 36.6396 5.57958 36.0871C5.02708 35.5346 4.75083 34.8646 4.75083 34.0771V14.0017C4.27194 13.8031 3.87444 13.4749 3.55833 13.0171C3.24222 12.559 3.08417 12.0392 3.08417 11.4575V5.92292C3.08417 5.13264 3.36042 4.46028 3.91292 3.90583C4.46542 3.35139 5.13542 3.07417 5.92292 3.07417H34.0771C34.8674 3.07417 35.5397 3.35139 36.0942 3.90583C36.6486 4.46028 36.9258 5.13264 36.9258 5.92292V11.4575C36.9258 12.0392 36.7661 12.5586 36.4467 13.0158C36.1272 13.4733 35.7314 13.8019 35.2592 14.0017V34.0771C35.2592 34.8646 34.9819 35.5346 34.4275 36.0871C33.8731 36.6396 33.2007 36.9158 32.4104 36.9158H7.58958ZM7.58958 14.2962V34.0871H32.4204V14.2962H7.58958ZM5.92292 11.4575H34.0871V5.92292H5.92292V11.4575ZM16.22 22.6792H23.79C24.1689 22.6792 24.4885 22.5482 24.7487 22.2862C25.0093 22.024 25.1396 21.7021 25.1396 21.3204C25.1396 20.939 25.0093 20.6203 24.7487 20.3642C24.4885 20.1081 24.1689 19.98 23.79 19.98H16.22C15.8411 19.98 15.5215 20.1111 15.2612 20.3733C15.0007 20.6356 14.8704 20.9574 14.8704 21.3387C14.8704 21.7204 15.0007 22.0393 15.2612 22.2954C15.5215 22.5512 15.8411 22.6792 16.22 22.6792Z"/>
</mask>
<path d="M7.58958 36.9158C6.80208 36.9158 6.13208 36.6396 5.57958 36.0871C5.02708 35.5346 4.75083 34.8646 4.75083 34.0771V14.0017C4.27194 13.8031 3.87444 13.4749 3.55833 13.0171C3.24222 12.559 3.08417 12.0392 3.08417 11.4575V5.92292C3.08417 5.13264 3.36042 4.46028 3.91292 3.90583C4.46542 3.35139 5.13542 3.07417 5.92292 3.07417H34.0771C34.8674 3.07417 35.5397 3.35139 36.0942 3.90583C36.6486 4.46028 36.9258 5.13264 36.9258 5.92292V11.4575C36.9258 12.0392 36.7661 12.5586 36.4467 13.0158C36.1272 13.4733 35.7314 13.8019 35.2592 14.0017V34.0771C35.2592 34.8646 34.9819 35.5346 34.4275 36.0871C33.8731 36.6396 33.2007 36.9158 32.4104 36.9158H7.58958ZM7.58958 14.2962V34.0871H32.4204V14.2962H7.58958ZM5.92292 11.4575H34.0871V5.92292H5.92292V11.4575ZM16.22 22.6792H23.79C24.1689 22.6792 24.4885 22.5482 24.7487 22.2862C25.0093 22.024 25.1396 21.7021 25.1396 21.3204C25.1396 20.939 25.0093 20.6203 24.7487 20.3642C24.4885 20.1081 24.1689 19.98 23.79 19.98H16.22C15.8411 19.98 15.5215 20.1111 15.2612 20.3733C15.0007 20.6356 14.8704 20.9574 14.8704 21.3387C14.8704 21.7204 15.0007 22.0393 15.2612 22.2954C15.5215 22.5512 15.8411 22.6792 16.22 22.6792Z" fill="var(--fill-0, #2DA2DB)"/>
<path d="M4.75083 34.0771H7.75083H4.75083ZM4.75083 14.0017H7.75083V11.9981L5.90011 11.2305L4.75083 14.0017ZM3.55833 13.0171L1.08923 14.721L1.08971 14.7217L3.55833 13.0171ZM36.4467 13.0158L33.9874 11.2977L33.9869 11.2984L36.4467 13.0158ZM35.2592 14.0017L34.0906 11.2386L32.2592 12.0132V14.0017H35.2592ZM7.58958 14.2962V11.2962H4.58958V14.2962H7.58958ZM7.58958 34.0871H4.58958V37.0871H7.58958V34.0871ZM32.4204 34.0871V37.0871H35.4204V34.0871H32.4204ZM32.4204 14.2962H35.4204V11.2962H32.4204V14.2962ZM5.92292 11.4575H2.92292V14.4575H5.92292V11.4575ZM34.0871 11.4575V14.4575H37.0871V11.4575H34.0871ZM34.0871 5.92292H37.0871V2.92292H34.0871V5.92292ZM5.92292 5.92292V2.92292H2.92292V5.92292H5.92292ZM24.7487 22.2862L22.6207 20.1717L22.6207 20.1717L24.7487 22.2862ZM24.7487 20.3642L22.6446 22.5025L22.6458 22.5037L24.7487 20.3642ZM15.2612 20.3733L17.3893 22.4879L17.3904 22.4867L15.2612 20.3733ZM15.2612 22.2954L13.1583 24.4349L13.1583 24.4349L15.2612 22.2954ZM7.58958 36.9158V33.9158C7.56869 33.9158 7.56674 33.9141 7.57965 33.9165C7.59313 33.9191 7.61459 33.9247 7.64001 33.9351C7.66547 33.9456 7.68586 33.9573 7.69938 33.9665C7.71246 33.9753 7.71256 33.9774 7.7009 33.9658L5.57958 36.0871L3.45826 38.2084C4.57833 39.3285 6.01347 39.9158 7.58958 39.9158V36.9158ZM5.57958 36.0871L7.7009 33.9658C7.68925 33.9541 7.69132 33.9542 7.70019 33.9673C7.70936 33.9808 7.72102 34.0012 7.73152 34.0267C7.742 34.0521 7.7476 34.0735 7.75015 34.087C7.7526 34.0999 7.75083 34.098 7.75083 34.0771H4.75083H1.75083C1.75083 35.6532 2.3382 37.0883 3.45826 38.2084L5.57958 36.0871ZM4.75083 34.0771H7.75083V14.0017H4.75083H1.75083V34.0771H4.75083ZM4.75083 14.0017L5.90011 11.2305C5.93395 11.2446 5.97152 11.2667 6.00358 11.2932C6.03439 11.3186 6.04017 11.3315 6.02696 11.3124L3.55833 13.0171L1.08971 14.7217C1.70879 15.6183 2.55013 16.3367 3.60155 16.7728L4.75083 14.0017ZM3.55833 13.0171L6.02744 11.3131C6.04087 11.3326 6.05979 11.3676 6.07298 11.411C6.08582 11.4532 6.08417 11.4735 6.08417 11.4575H3.08417H0.0841663C0.0841663 12.6187 0.411199 13.7386 1.08923 14.721L3.55833 13.0171ZM3.08417 11.4575H6.08417V5.92292H3.08417H0.0841663V11.4575H3.08417ZM3.08417 5.92292H6.08417C6.08417 5.90071 6.08605 5.89744 6.08385 5.90909C6.08154 5.92129 6.07631 5.94161 6.06627 5.96605C6.05621 5.99053 6.04502 6.01016 6.03627 6.02311C6.02781 6.03563 6.02609 6.03533 6.03796 6.02342L3.91292 3.90583L1.78787 1.78824C0.668998 2.91105 0.0841663 4.34742 0.0841663 5.92292H3.08417ZM3.91292 3.90583L6.03796 6.02342C6.04984 6.0115 6.04987 6.0135 6.03676 6.02241C6.02321 6.03163 6.00262 6.04347 5.97678 6.05416C5.95096 6.06484 5.92898 6.07063 5.91488 6.07331C5.90134 6.07589 5.90266 6.07417 5.92292 6.07417V3.07417V0.0741675C4.34342 0.0741675 2.90714 0.66504 1.78787 1.78824L3.91292 3.90583ZM5.92292 3.07417V6.07417H34.0771V3.07417V0.0741675H5.92292V3.07417ZM34.0771 3.07417V6.07417C34.0987 6.07417 34.1013 6.076 34.089 6.07367C34.0762 6.07124 34.0553 6.06582 34.0305 6.05558C34.0057 6.04533 33.9858 6.03397 33.9728 6.02517C33.9603 6.01666 33.9607 6.01501 33.9728 6.02715L36.0942 3.90583L38.2155 1.78451C37.0935 0.66249 35.656 0.0741675 34.0771 0.0741675V3.07417ZM36.0942 3.90583L33.9728 6.02715C33.985 6.03929 33.9833 6.0397 33.9748 6.02716C33.966 6.01417 33.9547 5.99434 33.9444 5.96948C33.9342 5.94465 33.9288 5.9238 33.9263 5.91098C33.924 5.8987 33.9258 5.90133 33.9258 5.92292H36.9258H39.9258C39.9258 4.34404 39.3375 2.90653 38.2155 1.78451L36.0942 3.90583ZM36.9258 5.92292H33.9258V11.4575H36.9258H39.9258V5.92292H36.9258ZM36.9258 11.4575H33.9258C33.9258 11.4705 33.9246 11.447 33.9385 11.4016C33.9528 11.3551 33.9731 11.3181 33.9874 11.2977L36.4467 13.0158L38.9059 14.734C39.593 13.7505 39.9258 12.6258 39.9258 11.4575H36.9258ZM36.4467 13.0158L33.9869 11.2984C33.9682 11.3252 33.9684 11.3184 33.994 11.2972C34.0061 11.2871 34.0213 11.276 34.0393 11.265C34.0572 11.2541 34.0747 11.2453 34.0906 11.2386L35.2592 14.0017L36.4278 16.7647C37.4659 16.3256 38.2932 15.6115 38.9064 14.7333L36.4467 13.0158ZM35.2592 14.0017H32.2592V34.0771H35.2592H38.2592V14.0017H35.2592ZM35.2592 34.0771H32.2592C32.2592 34.0973 32.2574 34.0987 32.26 34.0851C32.2627 34.071 32.2685 34.049 32.2792 34.0232C32.2899 33.9974 32.3017 33.9768 32.3109 33.9632C32.3198 33.9501 32.3218 33.9502 32.3099 33.962L34.4275 36.0871L36.5451 38.2121C37.6683 37.0929 38.2592 35.6566 38.2592 34.0771H35.2592ZM34.4275 36.0871L32.3099 33.962C32.298 33.9739 32.2977 33.9722 32.3102 33.9637C32.3232 33.955 32.3428 33.9438 32.3673 33.9337C32.3917 33.9237 32.412 33.9185 32.4242 33.9162C32.4359 33.914 32.4326 33.9158 32.4104 33.9158V36.9158V39.9158C33.9859 39.9158 35.4223 39.331 36.5451 38.2121L34.4275 36.0871ZM32.4104 36.9158V33.9158H7.58958V36.9158V39.9158H32.4104V36.9158ZM7.58958 14.2962H4.58958V34.0871H7.58958H10.5896V14.2962H7.58958ZM7.58958 34.0871V37.0871H32.4204V34.0871V31.0871H7.58958V34.0871ZM32.4204 34.0871H35.4204V14.2962H32.4204H29.4204V34.0871H32.4204ZM32.4204 14.2962V11.2962H7.58958V14.2962V17.2962H32.4204V14.2962ZM5.92292 11.4575V14.4575H34.0871V11.4575V8.4575H5.92292V11.4575ZM34.0871 11.4575H37.0871V5.92292H34.0871H31.0871V11.4575H34.0871ZM34.0871 5.92292V2.92292H5.92292V5.92292V8.92292H34.0871V5.92292ZM5.92292 5.92292H2.92292V11.4575H5.92292H8.92292V5.92292H5.92292ZM16.22 22.6792V25.6792H23.79V22.6792V19.6792H16.22V22.6792ZM23.79 22.6792V25.6792C24.9445 25.6792 26.0372 25.2458 26.8768 24.4008L24.7487 22.2862L22.6207 20.1717C22.7534 20.0382 22.9398 19.9019 23.1762 19.805C23.411 19.7088 23.6273 19.6792 23.79 19.6792V22.6792ZM24.7487 22.2862L26.8768 24.4008C27.7158 23.5565 28.1396 22.4657 28.1396 21.3204H25.1396H22.1396C22.1396 21.1638 22.1677 20.9532 22.2609 20.7228C22.3549 20.4905 22.4881 20.3052 22.6207 20.1717L24.7487 22.2862ZM25.1396 21.3204H28.1396C28.1396 20.1739 27.7137 19.0719 26.8517 18.2247L24.7487 20.3642L22.6458 22.5037C22.5035 22.3638 22.3631 22.1707 22.2649 21.9303C22.1677 21.6925 22.1396 21.477 22.1396 21.3204H25.1396ZM24.7487 20.3642L26.8529 18.2258C26.0084 17.3948 24.9232 16.98 23.79 16.98V19.98V22.98C23.6357 22.98 23.4271 22.9526 23.198 22.8608C22.9668 22.7681 22.7804 22.6361 22.6446 22.5025L24.7487 20.3642ZM23.79 19.98V16.98H16.22V19.98V22.98H23.79V19.98ZM16.22 19.98V16.98C15.0645 16.98 13.9715 17.4142 13.132 18.2599L15.2612 20.3733L17.3904 22.4867C17.2579 22.6203 17.0714 22.7568 16.8348 22.8538C16.5997 22.9503 16.3831 22.98 16.22 22.98V19.98ZM15.2612 20.3733L13.1332 18.2588C12.2947 19.1027 11.8704 20.1931 11.8704 21.3387H14.8704H17.8704C17.8704 21.4958 17.8422 21.7066 17.7489 21.9371C17.6548 22.1694 17.5217 22.3546 17.3893 22.4879L15.2612 20.3733ZM14.8704 21.3387H11.8704C11.8704 22.4849 12.2959 23.5872 13.1583 24.4349L15.2612 22.2954L17.3642 20.1559C17.5067 20.296 17.6471 20.4892 17.7453 20.7296C17.8424 20.9673 17.8704 21.1826 17.8704 21.3387H14.8704ZM15.2612 22.2954L13.1583 24.4349C14.003 25.2652 15.0878 25.6792 16.22 25.6792V22.6792V19.6792C16.3739 19.6792 16.5821 19.7065 16.8109 19.798C17.0419 19.8905 17.2283 20.0223 17.3642 20.1559L15.2612 22.2954Z" fill="var(--stroke-0, #2DA2DB)" mask="url(#path-1-inside-1_0_132)"/>
</g>
</g>
</svg>
