<svg preserveAspectRatio="none" width="100%" height="100%" overflow="visible" style="display: block;" viewBox="0 0 24 24" fill="none" xmlns="http://www.w3.org/2000/svg">
<g id="fan-box-svgrepo-com 1">
<g id="Vector">
<mask id="path-1-inside-1_0_42" fill="white">
<path d="M5.36842 3H18.6316C19.9396 3 21 4.06039 21 5.36842V18.6316C21 19.9396 19.9396 21 18.6316 21H5.36842C4.06039 21 3 19.9396 3 18.6316V5.36842C3 4.06039 4.06039 3 5.36842 3ZM5.36837 4.42105C4.84514 4.42105 4.42101 4.84519 4.42101 5.36842V18.6316C4.42101 19.1548 4.84514 19.5789 5.36837 19.5789H18.6315C19.1547 19.5789 19.5789 19.1548 19.5789 18.6316V5.36842C19.5789 4.84519 19.1547 4.42105 18.6315 4.42105H5.36837ZM12 11.0526C12.5232 11.0526 12.9473 11.4768 12.9473 12C12.9473 12.5232 12.5232 12.9474 12 12.9474C11.4767 12.9474 11.0526 12.5232 11.0526 12C11.0526 11.4768 11.4767 11.0526 12 11.0526ZM17.9404 13.4338C17.3601 13.1853 16.7654 13.0332 16.1792 12.9767C15.5929 12.9203 15.0151 12.9594 14.4374 12.9984C14.5342 13.766 14.6311 14.5336 14.6172 15.3126C14.6035 16.0915 14.4789 16.8817 14.2426 17.6582C14.1212 18.0571 13.9702 18.4525 13.7902 18.8407L13.5169 18.9094C13.0936 19.0072 12.6705 19.0649 12.2513 19.085C12.3247 18.7748 12.3751 18.4658 12.4028 18.1607C12.4598 17.532 12.4206 16.9194 12.2932 16.3444C12.1657 15.7694 11.9501 15.232 11.7344 14.6946C11.0343 15.0239 10.3341 15.3532 9.58904 15.5808C8.84399 15.8083 8.05393 15.9341 7.24251 15.9493C6.82472 15.9571 6.40129 15.9356 5.97564 15.8842C5.69422 15.4552 5.45662 14.991 5.27056 14.4963C5.58807 14.4703 5.89734 14.4227 6.196 14.3548C6.81155 14.2148 7.38205 13.9882 7.88951 13.6893C8.39702 13.3905 8.84147 13.0192 9.28593 12.648C8.7564 12.0839 8.22682 11.5199 7.78018 10.8815C7.3335 10.2432 6.96971 9.53073 6.70459 8.7637C6.56826 8.36945 6.45804 7.9608 6.37543 7.54083C6.69943 7.13626 7.06828 6.76603 7.47674 6.43852C7.59966 6.73273 7.74063 7.01244 7.89766 7.27571C8.22104 7.81789 8.61278 8.29044 9.05387 8.68071C9.49497 9.07097 9.98533 9.37896 10.4757 9.687C10.8486 9.00906 11.2214 8.33108 11.6904 7.70904C12.1594 7.08699 12.7247 6.52085 13.3722 6.03167C13.7052 5.78005 14.06 5.54885 14.4341 5.34043C14.9216 5.52545 15.3867 5.76328 15.8209 6.04858C15.5796 6.25611 15.3576 6.47623 15.1561 6.70653C14.7404 7.18164 14.412 7.70023 14.1771 8.24032C13.9422 8.78042 13.8009 9.34197 13.6595 9.90352C14.4195 10.0486 15.1794 10.1937 15.916 10.4475C16.6525 10.7014 17.3656 11.064 18.031 11.5287C18.3735 11.7679 18.7034 12.0342 19.0175 12.3259C18.9927 12.8512 18.9094 13.3664 18.7728 13.8636C18.5005 13.6979 18.2221 13.5544 17.9404 13.4338ZM12 10.3421C11.0843 10.3421 10.3421 11.0844 10.3421 12C10.3421 12.9156 11.0843 13.6579 12 13.6579C12.9156 13.6579 13.6578 12.9156 13.6578 12C13.6578 11.0844 12.9156 10.3421 12 10.3421Z"/>
</mask>
<path d="M17.9404 13.4338L20.3556 7.79357L20.3556 7.79357L17.9404 13.4338ZM16.1792 12.9767L16.7679 6.86946L16.7674 6.86941L16.1792 12.9767ZM14.4374 12.9984L14.0238 6.87675L7.53633 7.31503L8.35004 13.7662L14.4374 12.9984ZM14.6172 15.3126L8.48263 15.2036L8.48262 15.204L14.6172 15.3126ZM14.2426 17.6582L20.1123 19.4449L20.1123 19.4447L14.2426 17.6582ZM13.7902 18.8407L15.2868 24.791L18.1254 24.077L19.3566 21.4215L13.7902 18.8407ZM13.5169 18.9094L14.8971 24.8878L14.9554 24.8743L15.0135 24.8597L13.5169 18.9094ZM12.2513 19.085L6.2807 17.6717L4.40287 25.6046L12.5456 25.2135L12.2513 19.085ZM12.4028 18.1607L18.5132 18.7156L18.5133 18.715L12.4028 18.1607ZM12.2932 16.3444L18.2835 15.017L18.2834 15.0165L12.2932 16.3444ZM11.7344 14.6946L17.4284 12.4091L15.0063 6.3747L9.12255 9.14263L11.7344 14.6946ZM9.58904 15.5808L7.79693 9.71274L7.79682 9.71278L9.58904 15.5808ZM7.24251 15.9493L7.12791 9.81478L7.12774 9.81478L7.24251 15.9493ZM5.97564 15.8842L0.845646 19.25L2.40965 21.6337L5.24015 21.9755L5.97564 15.8842ZM5.27056 14.4963L4.7688 8.38128L-3.33469 9.0462L-0.472218 16.6564L5.27056 14.4963ZM6.196 14.3548L7.55671 20.3376L7.5569 20.3375L6.196 14.3548ZM7.88951 13.6893L4.77621 8.40226L4.77563 8.40261L7.88951 13.6893ZM9.28593 12.648L13.2191 17.3571L18.2094 13.189L13.7592 8.44857L9.28593 12.648ZM7.78018 10.8815L12.8074 7.36406L12.8071 7.36364L7.78018 10.8815ZM6.70459 8.7637L12.5035 6.75933L12.5033 6.75857L6.70459 8.7637ZM6.37543 7.54083L1.58631 3.7055L-0.194707 5.92943L0.355209 8.72505L6.37543 7.54083ZM7.47674 6.43852L13.1381 4.07318L9.99645 -3.44612L3.6386 1.65166L7.47674 6.43852ZM7.89766 7.27571L2.62817 10.4186L2.62821 10.4187L7.89766 7.27571ZM10.4757 9.687L7.2122 14.8826L12.7185 18.3413L15.8519 12.6437L10.4757 9.687ZM11.6904 7.70904L6.79144 4.01504L6.79126 4.01528L11.6904 7.70904ZM13.3722 6.03167L17.0706 10.9273L17.0711 10.9269L13.3722 6.03167ZM14.4341 5.34043L16.6111 -0.395934L13.9418 -1.40898L11.4477 -0.0193527L14.4341 5.34043ZM15.8209 6.04858L19.8217 10.7004L25.9945 5.39154L19.1901 0.920779L15.8209 6.04858ZM15.1561 6.70653L10.5384 2.66636L10.5383 2.66655L15.1561 6.70653ZM14.1771 8.24032L19.8036 10.6874L19.8038 10.687L14.1771 8.24032ZM13.6595 9.90352L7.70963 8.40539L6.12195 14.7109L12.5089 15.9303L13.6595 9.90352ZM15.916 10.4475L17.9152 4.64682L17.9151 4.64678L15.916 10.4475ZM18.031 11.5287L21.5445 6.49872L21.5438 6.4982L18.031 11.5287ZM19.0175 12.3259L25.1463 12.6161L25.281 9.76941L23.1928 7.83007L19.0175 12.3259ZM18.7728 13.8636L15.5835 19.1051L22.5334 23.3338L24.6891 15.4893L18.7728 13.8636ZM5.36842 3V9.13558H18.6316V3V-3.13558H5.36842V3ZM18.6316 3V9.13558C16.551 9.13558 14.8644 7.44898 14.8644 5.36842H21H27.1356C27.1356 0.6718 23.3282 -3.13558 18.6316 -3.13558V3ZM21 5.36842H14.8644V18.6316H21H27.1356V5.36842H21ZM21 18.6316H14.8644C14.8644 16.551 16.551 14.8644 18.6316 14.8644V21V27.1356C23.3282 27.1356 27.1356 23.3282 27.1356 18.6316H21ZM18.6316 21V14.8644H5.36842V21V27.1356H18.6316V21ZM5.36842 21V14.8644C7.44898 14.8644 9.13558 16.551 9.13558 18.6316H3H-3.13558C-3.13558 23.3282 0.6718 27.1356 5.36842 27.1356V21ZM3 18.6316H9.13558V5.36842H3H-3.13558V18.6316H3ZM3 5.36842H9.13558C9.13558 7.44898 7.44898 9.13558 5.36842 9.13558V3V-3.13558C0.6718 -3.13558 -3.13558 0.6718 -3.13558 5.36842H3ZM5.36837 4.42105V-1.71453C1.45655 -1.71453 -1.71458 1.4566 -1.71458 5.36842H4.42101H10.5566C10.5566 8.23378 8.23373 10.5566 5.36837 10.5566V4.42105ZM4.42101 5.36842H-1.71458V18.6316H4.42101H10.5566V5.36842H4.42101ZM4.42101 18.6316H-1.71458C-1.71458 22.5434 1.45655 25.7145 5.36837 25.7145V19.5789V13.4434C8.23373 13.4434 10.5566 15.7662 10.5566 18.6316H4.42101ZM5.36837 19.5789V25.7145H18.6315V19.5789V13.4434H5.36837V19.5789ZM18.6315 19.5789V25.7145C22.5431 25.7145 25.7145 22.5436 25.7145 18.6316H19.5789H13.4433C13.4433 15.766 15.7663 13.4434 18.6315 13.4434V19.5789ZM19.5789 18.6316H25.7145V5.36842H19.5789H13.4433V18.6316H19.5789ZM19.5789 5.36842H25.7145C25.7145 1.4564 22.5431 -1.71453 18.6315 -1.71453V4.42105V10.5566C15.7663 10.5566 13.4433 8.23398 13.4433 5.36842H19.5789ZM18.6315 4.42105V-1.71453H5.36837V4.42105V10.5566H18.6315V4.42105ZM12 11.0526V17.1882C9.1346 17.1882 6.81174 14.8654 6.81174 12H12.9473H19.0829C19.0829 8.08818 15.9118 4.91705 12 4.91705V11.0526ZM12.9473 12H6.81174C6.81174 9.13464 9.1346 6.81178 12 6.81178V12.9474V19.083C15.9118 19.083 19.0829 15.9118 19.0829 12H12.9473ZM12 12.9474V6.81178C14.8653 6.81178 17.1882 9.13464 17.1882 12H11.0526H4.917C4.917 15.9118 8.08813 19.083 12 19.083V12.9474ZM11.0526 12H17.1882C17.1882 14.8654 14.8653 17.1882 12 17.1882V11.0526V4.91705C8.08813 4.91705 4.917 8.08818 4.917 12H11.0526ZM17.9404 13.4338L20.3556 7.79357C19.2146 7.30499 18.0052 6.98873 16.7679 6.86946L16.1792 12.9767L15.5905 19.084C15.5256 19.0778 15.5055 19.0656 15.5252 19.074L17.9404 13.4338ZM16.1792 12.9767L16.7674 6.86941C15.5993 6.75692 14.5223 6.84308 14.0238 6.87675L14.4374 12.9984L14.851 19.12C15.161 19.0991 15.3235 19.089 15.4657 19.0852C15.5919 19.0819 15.6199 19.0868 15.591 19.0841L16.1792 12.9767ZM14.4374 12.9984L8.35004 13.7662C8.45593 14.6057 8.48736 14.9375 8.48263 15.2036L14.6172 15.3126L20.7519 15.4215C20.7748 14.1297 20.6125 12.9263 20.5247 12.2306L14.4374 12.9984ZM14.6172 15.3126L8.48262 15.204C8.47909 15.4035 8.44662 15.6294 8.3729 15.8716L14.2426 17.6582L20.1123 19.4447C20.5112 18.1341 20.7278 16.7795 20.7519 15.4211L14.6172 15.3126ZM14.2426 17.6582L8.37295 15.8714C8.33512 15.9957 8.28594 16.1259 8.2238 16.2599L13.7902 18.8407L19.3566 21.4215C19.6545 20.7791 19.9072 20.1186 20.1123 19.4449L14.2426 17.6582ZM13.7902 18.8407L12.2936 12.8904L12.0203 12.9592L13.5169 18.9094L15.0135 24.8597L15.2868 24.791L13.7902 18.8407ZM13.5169 18.9094L12.1367 12.9311C12.0718 12.9461 12.0121 12.9538 11.957 12.9565L12.2513 19.085L12.5456 25.2135C13.3289 25.1759 14.1155 25.0682 14.8971 24.8878L13.5169 18.9094ZM12.2513 19.085L18.2219 20.4983C18.3608 19.9114 18.4587 19.3157 18.5132 18.7156L12.4028 18.1607L6.29233 17.6058C6.29141 17.616 6.28863 17.6382 6.2807 17.6717L12.2513 19.085ZM12.4028 18.1607L18.5133 18.715C18.6254 17.4786 18.5524 16.2305 18.2835 15.017L12.2932 16.3444L6.30294 17.6718C6.28887 17.6083 6.29419 17.5854 6.29228 17.6064L12.4028 18.1607ZM12.2932 16.3444L18.2834 15.0165C18.0294 13.8709 17.6148 12.8735 17.4284 12.4091L11.7344 14.6946L6.04032 16.98C6.15595 17.2681 6.21578 17.4195 6.2632 17.5534C6.30534 17.6724 6.30931 17.7005 6.30305 17.6723L12.2932 16.3444ZM11.7344 14.6946L9.12255 9.14263C8.35745 9.50256 8.05142 9.63502 7.79693 9.71274L9.58904 15.5808L11.3812 21.4488C12.6169 21.0714 13.7111 20.5453 14.3462 20.2465L11.7344 14.6946ZM9.58904 15.5808L7.79682 9.71278C7.60562 9.77117 7.38071 9.81006 7.12791 9.81478L7.24251 15.9493L7.3571 22.0838C8.72714 22.0582 10.0824 21.8455 11.3813 21.4488L9.58904 15.5808ZM7.24251 15.9493L7.12774 9.81478C6.99818 9.81721 6.85886 9.81066 6.71113 9.79282L5.97564 15.8842L5.24015 21.9755C5.94372 22.0605 6.65125 22.097 7.35727 22.0838L7.24251 15.9493ZM5.97564 15.8842L11.1056 12.5184C11.0696 12.4635 11.0385 12.4031 11.0133 12.3362L5.27056 14.4963L-0.472218 16.6564C-0.125237 17.5789 0.318843 18.447 0.845646 19.25L5.97564 15.8842ZM5.27056 14.4963L5.77231 20.6113C6.37249 20.5621 6.969 20.4712 7.55671 20.3376L6.196 14.3548L4.83528 8.37198C4.82567 8.37417 4.80365 8.37842 4.7688 8.38128L5.27056 14.4963ZM6.196 14.3548L7.5569 20.3375C8.76758 20.0621 9.93223 19.6069 11.0034 18.976L7.88951 13.6893L4.77563 8.40261C4.83187 8.36948 4.85551 8.36738 4.83509 8.37203L6.196 14.3548ZM7.88951 13.6893L11.0028 18.9763C12.0145 18.3806 12.8353 17.6776 13.2191 17.3571L9.28593 12.648L5.35275 7.93892C5.11439 8.138 4.98897 8.24162 4.87631 8.32807C4.77625 8.40485 4.75097 8.41713 4.77621 8.40226L7.88951 13.6893ZM9.28593 12.648L13.7592 8.44857C13.1801 7.83169 12.9598 7.58189 12.8074 7.36406L7.78018 10.8815L2.75298 14.399C3.49384 15.4579 4.33271 16.3362 4.81266 16.8474L9.28593 12.648ZM7.78018 10.8815L12.8071 7.36364C12.6925 7.19989 12.5861 6.99813 12.5035 6.75933L6.70459 8.7637L0.905634 10.7681C1.35334 12.0633 1.9745 13.2866 2.75328 14.3994L7.78018 10.8815ZM6.70459 8.7637L12.5033 6.75857C12.461 6.63636 12.4243 6.50219 12.3956 6.35662L6.37543 7.54083L0.355209 8.72505C0.491795 9.41941 0.675499 10.1025 0.905895 10.7688L6.70459 8.7637ZM6.37543 7.54083L11.1645 11.3762C11.21 11.3194 11.2606 11.2689 11.3149 11.2254L7.47674 6.43852L3.6386 1.65166C2.87596 2.26315 2.18883 2.95314 1.58631 3.7055L6.37543 7.54083ZM7.47674 6.43852L1.81542 8.80386C2.04823 9.36108 2.31946 9.90103 2.62817 10.4186L7.89766 7.27571L13.1671 4.13279C13.1618 4.12384 13.1511 4.10438 13.1381 4.07318L7.47674 6.43852ZM7.89766 7.27571L2.62821 10.4187C3.26424 11.485 4.05706 12.452 4.98819 13.2759L9.05387 8.68071L13.1196 4.08553C13.1685 4.12883 13.1778 4.15074 13.1671 4.13273L7.89766 7.27571ZM9.05387 8.68071L4.98819 13.2759C5.86702 14.0534 6.78879 14.6167 7.2122 14.8826L10.4757 9.687L13.7393 4.49135C13.4762 4.32613 13.3388 4.2388 13.2216 4.15826C13.1176 4.08673 13.0979 4.06633 13.1196 4.08553L9.05387 8.68071ZM10.4757 9.687L15.8519 12.6437C16.2596 11.9024 16.4293 11.6153 16.5895 11.4028L11.6904 7.70904L6.79126 4.01528C6.01352 5.04682 5.43752 6.11576 5.09954 6.73032L10.4757 9.687ZM11.6904 7.70904L16.5894 11.403C16.7097 11.2434 16.8688 11.0797 17.0706 10.9273L13.3722 6.03167L9.67381 1.13604C8.58054 1.96195 7.60917 2.93058 6.79144 4.01504L11.6904 7.70904ZM13.3722 6.03167L17.0711 10.9269C17.1742 10.849 17.2905 10.7726 17.4204 10.7002L14.4341 5.34043L11.4477 -0.0193527C10.8295 0.325136 10.2362 0.711079 9.67329 1.13644L13.3722 6.03167ZM14.4341 5.34043L12.257 11.0768C12.3243 11.1023 12.3899 11.1357 12.4518 11.1764L15.8209 6.04858L19.1901 0.920779C18.3835 0.390852 17.5189 -0.0514359 16.6111 -0.395934L14.4341 5.34043ZM15.8209 6.04858L11.8202 1.39675C11.3639 1.78922 10.935 2.21315 10.5384 2.66636L15.1561 6.70653L19.7737 10.7467C19.7802 10.7393 19.7954 10.723 19.8217 10.7004L15.8209 6.04858ZM15.1561 6.70653L10.5383 2.66655C9.72109 3.60062 9.04636 4.65331 8.5505 5.79365L14.1771 8.24032L19.8038 10.687C19.7776 10.7471 19.7597 10.7627 19.7738 10.7465L15.1561 6.70653ZM14.1771 8.24032L8.55068 5.79324C8.0825 6.8697 7.83162 7.92093 7.70963 8.40539L13.6595 9.90352L19.6094 11.4017C19.6853 11.1003 19.7258 10.9427 19.7662 10.8064C19.802 10.6854 19.8153 10.6606 19.8036 10.6874L14.1771 8.24032ZM13.6595 9.90352L12.5089 15.9303C13.3397 16.0889 13.6651 16.1616 13.9169 16.2483L15.916 10.4475L17.9151 4.64678C16.6937 4.22584 15.4993 4.00836 14.8101 3.87678L13.6595 9.90352ZM15.916 10.4475L13.9168 16.2483C14.1055 16.3133 14.3105 16.4141 14.5182 16.5592L18.031 11.5287L21.5438 6.4982C20.4208 5.714 19.1995 5.08945 17.9152 4.64682L15.916 10.4475ZM18.031 11.5287L14.5175 16.5586C14.6243 16.6333 14.7334 16.7207 14.8423 16.8218L19.0175 12.3259L23.1928 7.83007C22.6734 7.34771 22.1227 6.90259 21.5445 6.49872L18.031 11.5287ZM19.0175 12.3259L12.8888 12.0358C12.8856 12.1036 12.8748 12.1711 12.8565 12.2378L18.7728 13.8636L24.6891 15.4893C24.9439 14.5618 25.0997 13.5988 25.1463 12.6161L19.0175 12.3259ZM18.7728 13.8636L21.962 8.622C21.4472 8.30873 20.9105 8.0312 20.3556 7.79357L17.9404 13.4338L15.5252 19.074C15.5337 19.0777 15.5538 19.087 15.5835 19.1051L18.7728 13.8636ZM12 10.3421V4.20652C7.69573 4.20652 4.20647 7.69578 4.20647 12H10.3421H16.4776C16.4776 14.473 14.4729 16.4777 12 16.4777V10.3421ZM10.3421 12H4.20647C4.20647 16.3042 7.69573 19.7935 12 19.7935V13.6579V7.52231C14.4729 7.52231 16.4776 9.52704 16.4776 12H10.3421ZM12 13.6579V19.7935C16.3042 19.7935 19.7934 16.3042 19.7934 12H13.6578H7.52226C7.52226 9.52704 9.527 7.52231 12 7.52231V13.6579ZM13.6578 12H19.7934C19.7934 7.69578 16.3042 4.20652 12 4.20652V10.3421V16.4777C9.527 16.4777 7.52226 14.473 7.52226 12H13.6578Z" fill="var(--stroke-0, #2DA2DB)" mask="url(#path-1-inside-1_0_42)"/>
</g>
</g>
</svg>
