<svg preserveAspectRatio="none" width="100%" height="100%" overflow="visible" style="display: block;" viewBox="0 0 24 24" fill="none" xmlns="http://www.w3.org/2000/svg">
<g id="cog">
<path id="Vector" d="M11 10.2701L7 3.34009M11 13.73L7 20.66M12 22V20M12 20C16.4183 20 20 16.4183 20 12C20 7.58172 16.4183 4 12 4M12 20C7.58172 20 4 16.4183 4 12M12 2V4M12 4C7.58172 4 4 7.58172 4 12M14 12H22M14 12C14 13.1046 13.1046 14 12 14C10.8954 14 10 13.1046 10 12C10 10.8954 10.8954 10 12 10C13.1046 10 14 10.8954 14 12ZM17 20.6599L16 18.9299M17 3.34009L16 5.07009M2 12H4M20.6601 17L18.9301 16M20.6601 7L18.9301 8M3.33997 17L5.06997 16M3.33997 7L5.06997 8" stroke="var(--stroke-0, #2DA2DB)" stroke-width="1.43478" stroke-linecap="round" stroke-linejoin="round"/>
</g>
</svg>
