<svg preserveAspectRatio="none" width="100%" height="100%" overflow="visible" style="display: block;" viewBox="0 0 618.573 256.539" fill="none" xmlns="http://www.w3.org/2000/svg">
<g id="Mid conectors">
<mask id="mask0_0_115" style="mask-type:alpha" maskUnits="userSpaceOnUse" x="63" y="-23" width="493" height="299">
<ellipse id="a" cx="309.5" cy="126.662" rx="226.5" ry="129.5" stroke="var(--stroke-0, #4CC4FE)" stroke-width="38.6608"/>
</mask>
<g mask="url(#mask0_0_115)">
<g id="2">
<path id="Line 8" d="M148.138 248.959L147.857 248.012L148.709 247.545L148.99 248.492L149.272 249.439L148.42 249.906L148.138 248.959ZM150.695 247.558L150.414 246.611L152.118 245.676L152.399 246.624L152.681 247.571L150.976 248.505L150.695 247.558ZM154.104 245.689L153.822 244.742L155.527 243.808L155.808 244.755L156.09 245.702L154.385 246.636L154.104 245.689ZM157.513 243.821L157.231 242.874L158.936 241.94L159.217 242.887L159.499 243.834L157.794 244.768L157.513 243.821ZM160.922 241.953L160.64 241.005L162.345 240.071L162.626 241.018L162.907 241.966L161.203 242.9L160.922 241.953ZM164.331 240.084L164.049 239.137L165.754 238.203L166.035 239.15L166.316 240.097L164.612 241.031L164.331 240.084ZM167.739 238.216L167.458 237.269L169.163 236.334L169.444 237.282L169.725 238.229L168.021 239.163L167.739 238.216ZM171.148 236.347L170.867 235.4L172.571 234.466L172.853 235.413L173.134 236.36L171.43 237.295L171.148 236.347ZM174.557 234.479L174.276 233.532L175.98 232.598L176.262 233.545L176.543 234.492L174.839 235.426L174.557 234.479ZM177.966 232.611L177.685 231.664L179.389 230.729L179.671 231.676L179.952 232.624L178.248 233.558L177.966 232.611ZM181.375 230.742L181.094 229.795L182.798 228.861L183.08 229.808L183.361 230.755L181.656 231.689L181.375 230.742ZM184.784 228.874L184.503 227.927L186.207 226.993L186.488 227.94L186.77 228.887L185.065 229.821L184.784 228.874ZM188.193 227.006L187.912 226.058L189.616 225.124L189.897 226.071L190.179 227.018L188.474 227.953L188.193 227.006ZM191.602 225.137L191.32 224.19L193.025 223.256L193.306 224.203L193.588 225.15L191.883 226.084L191.602 225.137ZM195.011 223.269L194.729 222.322L196.434 221.387L196.715 222.335L196.997 223.282L195.292 224.216L195.011 223.269ZM198.42 221.4L198.138 220.453L199.843 219.519L200.124 220.466L200.405 221.413L198.701 222.347L198.42 221.4ZM201.829 219.532L201.547 218.585L203.252 217.651L203.533 218.598L203.814 219.545L202.11 220.479L201.829 219.532ZM205.237 217.664L204.956 216.716L206.661 215.782L206.942 216.729L207.223 217.677L205.519 218.611L205.237 217.664ZM208.646 215.795L208.365 214.848L210.069 213.914L210.351 214.861L210.632 215.808L208.928 216.742L208.646 215.795ZM212.055 213.927L211.774 212.98L213.478 212.045L213.76 212.993L214.041 213.94L212.337 214.874L212.055 213.927ZM215.464 212.058L215.183 211.111L216.887 210.177L217.169 211.124L217.45 212.071L215.746 213.006L215.464 212.058ZM218.873 210.19L218.592 209.243L220.296 208.309L220.578 209.256L220.859 210.203L219.154 211.137L218.873 210.19ZM222.282 208.322L222.001 207.375L223.705 206.44L223.986 207.387L224.268 208.335L222.563 209.269L222.282 208.322ZM225.691 206.453L225.41 205.506L227.114 204.572L227.395 205.519L227.677 206.466L225.972 207.4L225.691 206.453ZM229.1 204.585L228.818 203.638L230.523 202.704L230.804 203.651L231.086 204.598L229.381 205.532L229.1 204.585ZM232.509 202.717L232.227 201.769L233.932 200.835L234.213 201.782L234.495 202.729L232.79 203.664L232.509 202.717ZM235.918 200.848L235.636 199.901L237.341 198.967L237.622 199.914L237.903 200.861L236.199 201.795L235.918 200.848ZM239.327 198.98L239.045 198.033L240.75 197.098L241.031 198.046L241.312 198.993L239.608 199.927L239.327 198.98ZM242.735 197.111L242.454 196.164L244.159 195.23L244.44 196.177L244.721 197.124L243.017 198.058L242.735 197.111ZM246.144 195.243L245.863 194.296L247.567 193.362L247.849 194.309L248.13 195.256L246.426 196.19L246.144 195.243ZM249.553 193.375L249.272 192.427L250.976 191.493L251.258 192.44L251.539 193.388L249.835 194.322L249.553 193.375ZM252.962 191.506L252.681 190.559L254.385 189.625L254.667 190.572L254.948 191.519L253.244 192.453L252.962 191.506ZM256.371 189.638L256.09 188.691L257.794 187.757L258.076 188.704L258.357 189.651L256.652 190.585L256.371 189.638ZM259.78 187.769L259.499 186.822L261.203 185.888L261.484 186.835L261.766 187.782L260.061 188.717L259.78 187.769ZM263.189 185.901L262.908 184.954L264.612 184.02L264.893 184.967L265.175 185.914L263.47 186.848L263.189 185.901ZM266.598 184.033L266.316 183.086L267.169 182.618L267.45 183.566L267.732 184.513L266.879 184.98L266.598 184.033Z" fill="var(--stroke-0, #D3E8F3)"/>
<path id="Line 9" d="M307.837 256.539L306.837 256.539L306.837 255.565L307.837 255.565L308.837 255.565L308.837 256.539L307.837 256.539ZM307.837 253.618L306.837 253.618L306.837 251.671L307.837 251.671L308.837 251.671L308.837 253.618L307.837 253.618ZM307.837 249.723L306.837 249.723L306.837 247.776L307.837 247.776L308.837 247.776L308.837 249.723L307.837 249.723ZM307.837 245.829L306.837 245.829L306.837 243.882L307.837 243.882L308.837 243.882L308.837 245.829L307.837 245.829ZM307.837 241.934L306.837 241.934L306.837 239.987L307.837 239.987L308.837 239.987L308.837 241.934L307.837 241.934ZM307.837 238.04L306.837 238.04L306.837 236.093L307.837 236.093L308.837 236.093L308.837 238.04L307.837 238.04ZM307.837 234.145L306.837 234.145L306.837 232.198L307.837 232.198L308.837 232.198L308.837 234.145L307.837 234.145ZM307.837 230.251L306.837 230.251L306.837 228.304L307.837 228.304L308.837 228.304L308.837 230.251L307.837 230.251ZM307.837 226.356L306.837 226.356L306.837 224.409L307.837 224.409L308.837 224.409L308.837 226.356L307.837 226.356ZM307.837 222.462L306.837 222.462L306.837 220.515L307.837 220.515L308.837 220.515L308.837 222.462L307.837 222.462ZM307.837 218.567L306.837 218.567L306.837 216.62L307.837 216.62L308.837 216.62L308.837 218.567L307.837 218.567ZM307.837 214.673L306.837 214.673L306.837 212.726L307.837 212.726L308.837 212.726L308.837 214.673L307.837 214.673ZM307.837 210.778L306.837 210.778L306.837 208.831L307.837 208.831L308.837 208.831L308.837 210.778L307.837 210.778ZM307.837 206.884L306.837 206.884L306.837 204.937L307.837 204.937L308.837 204.937L308.837 206.884L307.837 206.884ZM307.837 202.989L306.837 202.989L306.837 201.042L307.837 201.042L308.837 201.042L308.837 202.989L307.837 202.989ZM307.837 199.095L306.837 199.095L306.837 197.148L307.837 197.148L308.837 197.148L308.837 199.095L307.837 199.095ZM307.837 195.2L306.837 195.2L306.837 193.253L307.837 193.253L308.837 193.253L308.837 195.2L307.837 195.2ZM307.837 191.306L306.837 191.306L306.837 190.332L307.837 190.332L308.837 190.332L308.837 191.306L307.837 191.306Z" fill="var(--stroke-0, #D3E8F3)"/>
<path id="Line 10" d="M449.848 248.963L449.572 249.912L448.698 249.445L448.973 248.496L449.249 247.546L450.123 248.013L449.848 248.963ZM447.225 247.561L446.95 248.511L445.201 247.577L445.476 246.627L445.752 245.678L447.5 246.612L447.225 247.561ZM443.728 245.693L443.453 246.642L441.704 245.708L441.979 244.759L442.254 243.809L444.003 244.744L443.728 245.693ZM440.231 243.825L439.955 244.774L438.207 243.84L438.482 242.891L438.757 241.941L440.506 242.875L440.231 243.825ZM436.734 241.956L436.458 242.906L434.71 241.972L434.985 241.022L435.26 240.073L437.009 241.007L436.734 241.956ZM433.237 240.088L432.961 241.037L431.213 240.103L431.488 239.154L431.763 238.204L433.512 239.139L433.237 240.088ZM429.74 238.22L429.464 239.169L427.716 238.235L427.991 237.285L428.266 236.336L430.015 237.27L429.74 238.22ZM426.242 236.351L425.967 237.301L424.219 236.366L424.494 235.417L424.769 234.468L426.518 235.402L426.242 236.351ZM422.745 234.483L422.47 235.432L420.722 234.498L420.997 233.549L421.272 232.599L423.021 233.533L422.745 234.483ZM419.248 232.615L418.973 233.564L417.225 232.63L417.5 231.68L417.775 230.731L419.524 231.665L419.248 232.615ZM415.751 230.746L415.476 231.696L413.727 230.761L414.003 229.812L414.278 228.863L416.026 229.797L415.751 230.746ZM412.254 228.878L411.979 229.827L410.23 228.893L410.506 227.944L410.781 226.994L412.529 227.928L412.254 228.878ZM408.757 227.009L408.482 227.959L406.733 227.025L407.009 226.075L407.284 225.126L409.032 226.06L408.757 227.009ZM405.26 225.141L404.985 226.09L403.236 225.156L403.511 224.207L403.787 223.258L405.535 224.192L405.26 225.141ZM401.763 223.273L401.488 224.222L399.739 223.288L400.014 222.339L400.29 221.389L402.038 222.323L401.763 223.273ZM398.266 221.404L397.991 222.354L396.242 221.42L396.517 220.47L396.793 219.521L398.541 220.455L398.266 221.404ZM394.769 219.536L394.494 220.485L392.745 219.551L393.02 218.602L393.295 217.652L395.044 218.587L394.769 219.536ZM391.272 217.668L390.997 218.617L389.248 217.683L389.523 216.733L389.798 215.784L391.547 216.718L391.272 217.668ZM387.775 215.799L387.499 216.749L385.751 215.814L386.026 214.865L386.301 213.916L388.05 214.85L387.775 215.799ZM384.278 213.931L384.002 214.88L382.254 213.946L382.529 212.997L382.804 212.047L384.553 212.981L384.278 213.931ZM380.781 212.063L380.505 213.012L378.757 212.078L379.032 211.128L379.307 210.179L381.056 211.113L380.781 212.063ZM377.283 210.194L377.008 211.144L375.26 210.209L375.535 209.26L375.81 208.311L377.559 209.245L377.283 210.194ZM373.786 208.326L373.511 209.275L371.763 208.341L372.038 207.392L372.313 206.442L374.062 207.376L373.786 208.326ZM370.289 206.457L370.014 207.407L368.266 206.473L368.541 205.523L368.816 204.574L370.565 205.508L370.289 206.457ZM366.792 204.589L366.517 205.538L364.768 204.604L365.044 203.655L365.319 202.705L367.067 203.64L366.792 204.589ZM363.295 202.721L363.02 203.67L361.271 202.736L361.547 201.787L361.822 200.837L363.57 201.771L363.295 202.721ZM359.798 200.852L359.523 201.802L357.774 200.868L358.05 199.918L358.325 198.969L360.073 199.903L359.798 200.852ZM356.301 198.984L356.026 199.933L354.277 198.999L354.552 198.05L354.828 197.1L356.576 198.035L356.301 198.984ZM352.804 197.116L352.529 198.065L350.78 197.131L351.055 196.181L351.331 195.232L353.079 196.166L352.804 197.116ZM349.307 195.247L349.032 196.197L347.283 195.262L347.558 194.313L347.834 193.364L349.582 194.298L349.307 195.247ZM345.81 193.379L345.535 194.328L343.786 193.394L344.061 192.445L344.336 191.495L346.085 192.429L345.81 193.379ZM342.313 191.511L342.037 192.46L340.289 191.526L340.564 190.576L340.839 189.627L342.588 190.561L342.313 191.511ZM338.816 189.642L338.54 190.592L336.792 189.657L337.067 188.708L337.342 187.759L339.091 188.693L338.816 189.642ZM335.319 187.774L335.043 188.723L333.295 187.789L333.57 186.84L333.845 185.89L335.594 186.824L335.319 187.774ZM331.821 185.905L331.546 186.855L329.798 185.921L330.073 184.971L330.348 184.022L332.097 184.956L331.821 185.905ZM328.324 184.037L328.049 184.986L327.175 184.519L327.45 183.57L327.725 182.621L328.6 183.088L328.324 184.037Z" fill="var(--stroke-0, #D3E8F3)"/>
</g>
</g>
<mask id="mask1_0_115" style="mask-type:alpha" maskUnits="userSpaceOnUse" x="39" y="-58" width="541" height="344">
<ellipse id="Ellipse 10" cx="309.5" cy="114.162" rx="221.5" ry="123" stroke="var(--stroke-0, #4CC4FE)" stroke-width="96.6521"/>
</mask>
<g mask="url(#mask1_0_115)">
<g id="1">
<path id="Line 8_2" d="M66.5268 24.125L66.4516 25.0886L67.3832 25.3382L67.4585 24.3746L67.5337 23.4111L66.6021 23.1614L66.5268 24.125ZM69.3217 24.8739L69.2465 25.8375L71.1097 26.3368L71.185 25.3732L71.2602 24.4096L69.397 23.9103L69.3217 24.8739ZM73.0482 25.8725L72.973 26.8361L74.8362 27.3353L74.9115 26.3718L74.9867 25.4082L73.1235 24.9089L73.0482 25.8725ZM76.7747 26.871L76.6995 27.8346L78.5627 28.3339L78.638 27.3703L78.7132 26.4067L76.85 25.9074L76.7747 26.871ZM80.5012 27.8696L80.426 28.8332L82.2893 29.3325L82.3645 28.3689L82.4397 27.4053L80.5765 26.906L80.5012 27.8696ZM84.2278 28.8682L84.1525 29.8317L86.0158 30.331L86.091 29.3674L86.1663 28.4038L84.303 27.9046L84.2278 28.8682ZM87.9543 29.8667L87.879 30.8303L89.7423 31.3296L89.8175 30.366L89.8928 29.4024L88.0295 28.9031L87.9543 29.8667ZM91.6808 30.8653L91.6055 31.8289L93.4688 32.3281L93.544 31.3645L93.6193 30.401L91.756 29.9017L91.6808 30.8653ZM95.4073 31.8638L95.332 32.8274L97.1953 33.3267L97.2705 32.3631L97.3458 31.3995L95.4825 30.9002L95.4073 31.8638ZM99.1338 32.8624L99.0585 33.826L100.922 34.3253L100.997 33.3617L101.072 32.3981L99.209 31.8988L99.1338 32.8624ZM102.86 33.8609L102.785 34.8245L104.648 35.3238L104.724 34.3602L104.799 33.3966L102.936 32.8974L102.86 33.8609ZM106.587 34.8595L106.512 35.8231L108.375 36.3224L108.45 35.3588L108.525 34.3952L106.662 33.8959L106.587 34.8595ZM110.313 35.8581L110.238 36.8216L112.101 37.3209L112.177 36.3573L112.252 35.3938L110.389 34.8945L110.313 35.8581ZM114.04 36.8566L113.965 37.8202L115.828 38.3195L115.903 37.3559L115.978 36.3923L114.115 35.893L114.04 36.8566ZM117.766 37.8552L117.691 38.8188L119.554 39.318L119.63 38.3545L119.705 37.3909L117.842 36.8916L117.766 37.8552ZM121.493 38.8537L121.418 39.8173L123.281 40.3166L123.356 39.353L123.431 38.3894L121.568 37.8901L121.493 38.8537ZM125.219 39.8523L125.144 40.8159L127.007 41.3152L127.083 40.3516L127.158 39.388L125.295 38.8887L125.219 39.8523ZM128.946 40.8508L128.871 41.8144L130.734 42.3137L130.809 41.3501L130.884 40.3865L129.021 39.8873L128.946 40.8508ZM132.672 41.8494L132.597 42.813L134.46 43.3123L134.536 42.3487L134.611 41.3851L132.748 40.8858L132.672 41.8494ZM136.399 42.848L136.324 43.8116L138.187 44.3108L138.262 43.3472L138.337 42.3837L136.474 41.8844L136.399 42.848ZM140.125 43.8465L140.05 44.8101L141.913 45.3094L141.989 44.3458L142.064 43.3822L140.201 42.8829L140.125 43.8465ZM143.852 44.8451L143.777 45.8087L145.64 46.3079L145.715 45.3444L145.79 44.3808L143.927 43.8815L143.852 44.8451ZM147.578 45.8436L147.503 46.8072L149.366 47.3065L149.442 46.3429L149.517 45.3793L147.654 44.88L147.578 45.8436ZM151.305 46.8422L151.23 47.8058L153.093 48.3051L153.168 47.3415L153.243 46.3779L151.38 45.8786L151.305 46.8422ZM155.031 47.8408L154.956 48.8043L156.819 49.3036L156.895 48.34L156.97 47.3764L155.107 46.8772L155.031 47.8408ZM158.758 48.8393L158.683 49.8029L160.546 50.3022L160.621 49.3386L160.696 48.375L158.833 47.8757L158.758 48.8393ZM162.484 49.8379L162.409 50.8015L164.272 51.3007L164.348 50.3371L164.423 49.3736L162.56 48.8743L162.484 49.8379ZM166.211 50.8364L166.136 51.8L167.999 52.2993L168.074 51.3357L168.149 50.3721L166.286 49.8728L166.211 50.8364ZM169.937 51.835L169.862 52.7986L171.725 53.2978L171.801 52.3343L171.876 51.3707L170.013 50.8714L169.937 51.835ZM173.664 52.8335L173.589 53.7971L175.452 54.2964L175.527 53.3328L175.602 52.3692L173.739 51.87L173.664 52.8335ZM177.39 53.8321L177.315 54.7957L179.178 55.295L179.254 54.3314L179.329 53.3678L177.466 52.8685L177.39 53.8321ZM181.117 54.8307L181.042 55.7942L182.905 56.2935L182.98 55.3299L183.055 54.3663L181.192 53.8671L181.117 54.8307ZM184.843 55.8292L184.768 56.7928L186.631 57.2921L186.707 56.3285L186.782 55.3649L184.919 54.8656L184.843 55.8292ZM188.57 56.8278L188.495 57.7914L190.358 58.2906L190.433 57.327L190.508 56.3635L188.645 55.8642L188.57 56.8278ZM192.296 57.8263L192.221 58.7899L194.084 59.2892L194.16 58.3256L194.235 57.362L192.372 56.8627L192.296 57.8263ZM196.023 58.8249L195.948 59.7885L197.811 60.2878L197.886 59.3242L197.961 58.3606L196.098 57.8613L196.023 58.8249ZM199.749 59.8234L199.674 60.787L201.537 61.2863L201.613 60.3227L201.688 59.3591L199.825 58.8599L199.749 59.8234ZM203.476 60.822L203.401 61.7856L205.264 62.2849L205.339 61.3213L205.414 60.3577L203.551 59.8584L203.476 60.822ZM207.202 61.8206L207.127 62.7841L208.99 63.2834L209.066 62.3198L209.141 61.3562L207.278 60.857L207.202 61.8206ZM210.929 62.8191L210.854 63.7827L212.717 64.282L212.792 63.3184L212.867 62.3548L211.004 61.8555L210.929 62.8191ZM214.655 63.8177L214.58 64.7813L216.443 65.2805L216.519 64.317L216.594 63.3534L214.731 62.8541L214.655 63.8177ZM218.382 64.8162L218.307 65.7798L220.17 66.2791L220.245 65.3155L220.32 64.3519L218.457 63.8526L218.382 64.8162ZM222.108 65.8148L222.033 66.7784L223.896 67.2777L223.972 66.3141L224.047 65.3505L222.184 64.8512L222.108 65.8148ZM225.835 66.8133L225.76 67.7769L227.623 68.2762L227.698 67.3126L227.773 66.349L225.91 65.8498L225.835 66.8133ZM229.561 67.8119L229.486 68.7755L231.349 69.2748L231.425 68.3112L231.5 67.3476L229.637 66.8483L229.561 67.8119ZM233.288 68.8105L233.213 69.774L235.076 70.2733L235.151 69.3097L235.226 68.3462L233.363 67.8469L233.288 68.8105ZM237.014 69.809L236.939 70.7726L238.802 71.2719L238.878 70.3083L238.953 69.3447L237.09 68.8454L237.014 69.809ZM240.741 70.8076L240.666 71.7712L242.529 72.2704L242.604 71.3069L242.679 70.3433L240.816 69.844L240.741 70.8076ZM244.467 71.8061L244.392 72.7697L246.255 73.269L246.331 72.3054L246.406 71.3418L244.543 70.8425L244.467 71.8061ZM248.194 72.8047L248.119 73.7683L249.982 74.2676L250.057 73.304L250.132 72.3404L248.269 71.8411L248.194 72.8047ZM251.92 73.8032L251.845 74.7668L253.708 75.2661L253.784 74.3025L253.859 73.3389L251.996 72.8397L251.92 73.8032ZM255.647 74.8018L255.572 75.7654L257.435 76.2647L257.51 75.3011L257.585 74.3375L255.722 73.8382L255.647 74.8018ZM259.373 75.8004L259.298 76.764L261.161 77.2632L261.237 76.2996L261.312 75.3361L259.449 74.8368L259.373 75.8004ZM263.1 76.7989L263.025 77.7625L264.888 78.2618L264.963 77.2982L265.038 76.3346L263.175 75.8353L263.1 76.7989ZM266.826 77.7975L266.751 78.7611L267.683 79.0107L267.758 78.0472L267.833 77.0836L266.902 76.8339L266.826 77.7975Z" fill="var(--stroke-0, #D3E8F3)"/>
<path id="Line 8_3" d="M158.138 8.10547L157.878 9.02133L158.73 9.52091L158.99 8.60506L159.25 7.6892L158.398 7.18961L158.138 8.10547ZM160.695 9.60424L160.435 10.5201L162.139 11.5193L162.399 10.6034L162.659 9.68756L160.955 8.68838L160.695 9.60424ZM164.104 11.6026L163.844 12.5185L165.548 13.5176L165.808 12.6018L166.068 11.6859L164.364 10.6867L164.104 11.6026ZM167.513 13.601L167.253 14.5168L168.957 15.516L169.217 14.6001L169.477 13.6843L167.773 12.6851L167.513 13.601ZM170.922 15.5993L170.662 16.5152L172.366 17.5143L172.626 16.5985L172.886 15.6826L171.182 14.6835L170.922 15.5993ZM174.331 17.5977L174.071 18.5135L175.775 19.5127L176.035 18.5968L176.295 17.681L174.59 16.6818L174.331 17.5977ZM177.739 19.596L177.479 20.5119L179.184 21.5111L179.444 20.5952L179.704 19.6793L177.999 18.6802L177.739 19.596ZM181.148 21.5944L180.888 22.5102L182.593 23.5094L182.853 22.5936L183.113 21.6777L181.408 20.6785L181.148 21.5944ZM184.557 23.5927L184.297 24.5086L186.002 25.5078L186.262 24.5919L186.522 23.6761L184.817 22.6769L184.557 23.5927ZM187.966 25.5911L187.706 26.507L189.411 27.5061L189.671 26.5903L189.931 25.6744L188.226 24.6752L187.966 25.5911ZM191.375 27.5895L191.115 28.5053L192.82 29.5045L193.08 28.5886L193.34 27.6728L191.635 26.6736L191.375 27.5895ZM194.784 29.5878L194.524 30.5037L196.229 31.5028L196.488 30.587L196.748 29.6711L195.044 28.672L194.784 29.5878ZM198.193 31.5862L197.933 32.502L199.637 33.5012L199.897 32.5853L200.157 31.6695L198.453 30.6703L198.193 31.5862ZM201.602 33.5845L201.342 34.5004L203.046 35.4996L203.306 34.5837L203.566 33.6679L201.862 32.6687L201.602 33.5845ZM205.011 35.5829L204.751 36.4987L206.455 37.4979L206.715 36.5821L206.975 35.6662L205.271 34.667L205.011 35.5829ZM208.42 37.5812L208.16 38.4971L209.864 39.4963L210.124 38.5804L210.384 37.6646L208.68 36.6654L208.42 37.5812ZM211.829 39.5796L211.569 40.4955L213.273 41.4946L213.533 40.5788L213.793 39.6629L212.089 38.6637L211.829 39.5796ZM215.237 41.578L214.978 42.4938L216.682 43.493L216.942 42.5771L217.202 41.6613L215.497 40.6621L215.237 41.578ZM218.646 43.5763L218.386 44.4922L220.091 45.4914L220.351 44.5755L220.611 43.6596L218.906 42.6605L218.646 43.5763ZM222.055 45.5747L221.795 46.4905L223.5 47.4897L223.76 46.5738L224.02 45.658L222.315 44.6588L222.055 45.5747ZM225.464 47.573L225.204 48.4889L226.909 49.4881L227.169 48.5722L227.429 47.6563L225.724 46.6572L225.464 47.573ZM228.873 49.5714L228.613 50.4872L230.318 51.4864L230.578 50.5706L230.838 49.6547L229.133 48.6555L228.873 49.5714ZM232.282 51.5697L232.022 52.4856L233.727 53.4848L233.986 52.5689L234.246 51.6531L232.542 50.6539L232.282 51.5697ZM235.691 53.5681L235.431 54.4839L237.135 55.4831L237.395 54.5673L237.655 53.6514L235.951 52.6522L235.691 53.5681ZM239.1 55.5664L238.84 56.4823L240.544 57.4815L240.804 56.5656L241.064 55.6498L239.36 54.6506L239.1 55.5664ZM242.509 57.5648L242.249 58.4806L243.953 59.4798L244.213 58.564L244.473 57.6481L242.769 56.6489L242.509 57.5648ZM245.918 59.5632L245.658 60.479L247.362 61.4782L247.622 60.5623L247.882 59.6465L246.178 58.6473L245.918 59.5632ZM249.327 61.5615L249.067 62.4774L250.771 63.4765L251.031 62.5607L251.291 61.6448L249.587 60.6456L249.327 61.5615ZM252.735 63.5599L252.476 64.4757L254.18 65.4749L254.44 64.559L254.7 63.6432L252.995 62.644L252.735 63.5599ZM256.144 65.5582L255.884 66.4741L257.589 67.4732L257.849 66.5574L258.109 65.6415L256.404 64.6424L256.144 65.5582ZM259.553 67.5566L259.293 68.4724L260.998 69.4716L261.258 68.5557L261.518 67.6399L259.813 66.6407L259.553 67.5566ZM262.962 69.5549L262.702 70.4708L264.407 71.47L264.667 70.5541L264.927 69.6382L263.222 68.6391L262.962 69.5549ZM266.371 71.5533L266.111 72.4691L267.816 73.4683L268.076 72.5524L268.336 71.6366L266.631 70.6374L266.371 71.5533ZM269.78 73.5516L269.52 74.4675L271.225 75.4667L271.484 74.5508L271.744 73.635L270.04 72.6358L269.78 73.5516ZM273.189 75.55L272.929 76.4658L274.633 77.465L274.893 76.5492L275.153 75.6333L273.449 74.6341L273.189 75.55ZM276.598 77.5484L276.338 78.4642L277.19 78.9638L277.45 78.048L277.71 77.1321L276.858 76.6325L276.598 77.5484Z" fill="var(--stroke-0, #D3E8F3)"/>
<path id="Line 9_2" d="M253 4.16211L252.154 4.5979L252.579 5.4229L253.425 4.98711L254.271 4.55132L253.846 3.72632L253 4.16211ZM254.275 6.63711L253.429 7.0729L254.279 8.7229L255.125 8.28711L255.971 7.85132L255.121 6.20132L254.275 6.63711ZM255.975 9.93711L255.129 10.3729L255.979 12.0229L256.825 11.5871L257.671 11.1513L256.821 9.50132L255.975 9.93711ZM257.675 13.2371L256.829 13.6729L257.679 15.3229L258.525 14.8871L259.371 14.4513L258.521 12.8013L257.675 13.2371ZM259.375 16.5371L258.529 16.9729L259.379 18.6229L260.225 18.1871L261.071 17.7513L260.221 16.1013L259.375 16.5371ZM261.075 19.8371L260.229 20.2729L261.079 21.9229L261.925 21.4871L262.771 21.0513L261.921 19.4013L261.075 19.8371ZM262.775 23.1371L261.929 23.5729L262.779 25.2229L263.625 24.7871L264.471 24.3513L263.621 22.7013L262.775 23.1371ZM264.475 26.4371L263.629 26.8729L264.479 28.5229L265.325 28.0871L266.171 27.6513L265.321 26.0013L264.475 26.4371ZM266.175 29.7371L265.329 30.1729L266.179 31.8229L267.025 31.3871L267.871 30.9513L267.021 29.3013L266.175 29.7371ZM267.875 33.0371L267.029 33.4729L267.879 35.1229L268.725 34.6871L269.571 34.2513L268.721 32.6013L267.875 33.0371ZM269.575 36.3371L268.729 36.7729L269.579 38.4229L270.425 37.9871L271.271 37.5513L270.421 35.9013L269.575 36.3371ZM271.275 39.6371L270.429 40.0729L271.279 41.7229L272.125 41.2871L272.971 40.8513L272.121 39.2013L271.275 39.6371ZM272.975 42.9371L272.129 43.3729L272.979 45.0229L273.825 44.5871L274.671 44.1513L273.821 42.5013L272.975 42.9371ZM274.675 46.2371L273.829 46.6729L274.679 48.3229L275.525 47.8871L276.371 47.4513L275.521 45.8013L274.675 46.2371ZM276.375 49.5371L275.529 49.9729L276.379 51.6229L277.225 51.1871L278.071 50.7513L277.221 49.1013L276.375 49.5371ZM278.075 52.8371L277.229 53.2729L278.079 54.9229L278.925 54.4871L279.771 54.0513L278.921 52.4013L278.075 52.8371ZM279.775 56.1371L278.929 56.5729L279.779 58.2229L280.625 57.7871L281.471 57.3513L280.621 55.7013L279.775 56.1371ZM281.475 59.4371L280.629 59.8729L281.479 61.5229L282.325 61.0871L283.171 60.6513L282.321 59.0013L281.475 59.4371ZM283.175 62.7371L282.329 63.1729L283.179 64.8229L284.025 64.3871L284.871 63.9513L284.021 62.3013L283.175 62.7371ZM284.875 66.0371L284.029 66.4729L284.879 68.1229L285.725 67.6871L286.571 67.2513L285.721 65.6013L284.875 66.0371ZM286.575 69.3371L285.729 69.7729L286.154 70.5979L287 70.1621L287.846 69.7263L287.421 68.9013L286.575 69.3371Z" fill="var(--stroke-0, #D3E8F3)"/>
<path id="Line 12" d="M349 2.16211L348.134 1.76755L347.745 2.62247L348.61 3.01703L349.476 3.41159L349.866 2.55667L349 2.16211ZM347.831 4.72688L346.965 4.33232L346.186 6.04217L347.052 6.43673L347.918 6.83129L348.697 5.12144L347.831 4.72688ZM346.273 8.14658L345.407 7.75202L344.628 9.46187L345.494 9.85643L346.36 10.251L347.139 8.54114L346.273 8.14658ZM344.715 11.5663L343.849 11.1717L343.07 12.8816L343.936 13.2761L344.802 13.6707L345.581 11.9608L344.715 11.5663ZM343.157 14.986L342.291 14.5914L341.512 16.3013L342.378 16.6958L343.244 17.0904L344.023 15.3805L343.157 14.986ZM341.599 18.4057L340.733 18.0111L339.954 19.721L340.82 20.1155L341.686 20.5101L342.465 18.8002L341.599 18.4057ZM340.041 21.8254L339.175 21.4308L338.396 23.1407L339.262 23.5352L340.127 23.9298L340.907 22.2199L340.041 21.8254ZM338.482 25.2451L337.617 24.8505L336.837 26.5603L337.703 26.9549L338.569 27.3495L339.348 25.6396L338.482 25.2451ZM336.924 28.6648L336.058 28.2702L335.279 29.98L336.145 30.3746L337.011 30.7692L337.79 29.0593L336.924 28.6648ZM335.366 32.0845L334.5 31.6899L333.721 33.3997L334.587 33.7943L335.453 34.1889L336.232 32.479L335.366 32.0845ZM333.808 35.5041L332.942 35.1096L332.163 36.8194L333.029 37.214L333.895 37.6086L334.674 35.8987L333.808 35.5041ZM332.25 38.9238L331.384 38.5293L330.605 40.2391L331.471 40.6337L332.337 41.0283L333.116 39.3184L332.25 38.9238ZM330.692 42.3435L329.826 41.949L329.047 43.6588L329.913 44.0534L330.779 44.448L331.558 42.7381L330.692 42.3435ZM329.134 45.7632L328.268 45.3687L327.489 47.0785L328.354 47.4731L329.22 47.8677L329.999 46.1578L329.134 45.7632ZM327.575 49.1829L326.709 48.7884L325.93 50.4982L326.796 50.8928L327.662 51.2874L328.441 49.5775L327.575 49.1829ZM326.017 52.6026L325.151 52.2081L324.372 53.9179L325.238 54.3125L326.104 54.7071L326.883 52.9972L326.017 52.6026ZM324.459 56.0223L323.593 55.6278L322.814 57.3376L323.68 57.7322L324.546 58.1268L325.325 56.4169L324.459 56.0223ZM322.901 59.442L322.035 59.0475L321.256 60.7573L322.122 61.1519L322.988 61.5464L323.767 59.8366L322.901 59.442ZM321.343 62.8617L320.477 62.4672L319.698 64.177L320.564 64.5716L321.43 64.9661L322.209 63.2563L321.343 62.8617ZM319.785 66.2814L318.919 65.8869L318.14 67.5967L319.006 67.9913L319.871 68.3858L320.651 66.676L319.785 66.2814ZM318.226 69.7011L317.361 69.3066L316.971 70.1615L317.837 70.556L318.703 70.9506L319.092 70.0957L318.226 69.7011Z" fill="var(--stroke-0, #D3E8F3)"/>
<path id="Line 10_2" d="M439.848 8.10379L439.593 7.1858L438.743 7.67151L438.998 8.58949L439.252 9.50748L440.102 9.02177L439.848 8.10379ZM437.298 9.56091L437.043 8.64292L435.343 9.61433L435.598 10.5323L435.852 11.4503L437.552 10.4789L437.298 9.56091ZM433.898 11.5037L433.643 10.5857L431.943 11.5572L432.198 12.4751L432.452 13.3931L434.152 12.4217L433.898 11.5037ZM430.498 13.4466L430.244 12.5286L428.544 13.5L428.798 14.418L429.052 15.336L430.752 14.3645L430.498 13.4466ZM427.098 15.3894L426.844 14.4714L425.144 15.4428L425.398 16.3608L425.652 17.2788L427.352 16.3074L427.098 15.3894ZM423.698 17.3322L423.444 16.4142L421.744 17.3856L421.998 18.3036L422.252 19.2216L423.952 18.2502L423.698 17.3322ZM420.298 19.275L420.044 18.357L418.344 19.3285L418.598 20.2464L418.852 21.1644L420.552 20.193L420.298 19.275ZM416.898 21.2179L416.644 20.2999L414.944 21.2713L415.198 22.1893L415.453 23.1073L417.152 22.1358L416.898 21.2179ZM413.498 23.1607L413.244 22.2427L411.544 23.2141L411.798 24.1321L412.053 25.0501L413.753 24.0787L413.498 23.1607ZM410.098 25.1035L409.844 24.1855L408.144 25.1569L408.398 26.0749L408.653 26.9929L410.353 26.0215L410.098 25.1035ZM406.698 27.0463L406.444 26.1283L404.744 27.0998L404.998 28.0177L405.253 28.9357L406.953 27.9643L406.698 27.0463ZM403.298 28.9892L403.044 28.0712L401.344 29.0426L401.598 29.9606L401.853 30.8786L403.553 29.9071L403.298 28.9892ZM399.898 30.932L399.644 30.014L397.944 30.9854L398.199 31.9034L398.453 32.8214L400.153 31.85L399.898 30.932ZM396.499 32.8748L396.244 31.9568L394.544 32.9282L394.799 33.8462L395.053 34.7642L396.753 33.7928L396.499 32.8748ZM393.099 34.8176L392.844 33.8996L391.144 34.8711L391.399 35.789L391.653 36.707L393.353 35.7356L393.099 34.8176ZM389.699 36.7605L389.444 35.8425L387.744 36.8139L387.999 37.7319L388.253 38.6499L389.953 37.6784L389.699 36.7605ZM386.299 38.7033L386.044 37.7853L384.344 38.7567L384.599 39.6747L384.853 40.5927L386.553 39.6213L386.299 38.7033ZM382.899 40.6461L382.645 39.7281L380.945 40.6995L381.199 41.6175L381.453 42.5355L383.153 41.5641L382.899 40.6461ZM379.499 42.5889L379.245 41.6709L377.545 42.6424L377.799 43.5603L378.053 44.4783L379.753 43.5069L379.499 42.5889ZM376.099 44.5318L375.845 43.6138L374.145 44.5852L374.399 45.5032L374.653 46.4211L376.353 45.4497L376.099 44.5318ZM372.699 46.4746L372.445 45.5566L370.745 46.528L370.999 47.446L371.253 48.364L372.953 47.3926L372.699 46.4746ZM369.299 48.4174L369.045 47.4994L367.345 48.4708L367.599 49.3888L367.854 50.3068L369.553 49.3354L369.299 48.4174ZM365.899 50.3602L365.645 49.4422L363.945 50.4136L364.199 51.3316L364.454 52.2496L366.154 51.2782L365.899 50.3602ZM362.499 52.303L362.245 51.3851L360.545 52.3565L360.799 53.2745L361.054 54.1924L362.754 53.221L362.499 52.303ZM359.099 54.2459L358.845 53.3279L357.145 54.2993L357.399 55.2173L357.654 56.1353L359.354 55.1639L359.099 54.2459ZM355.699 56.1887L355.445 55.2707L353.745 56.2421L354 57.1601L354.254 58.0781L355.954 57.1067L355.699 56.1887ZM352.3 58.1315L352.045 57.2135L350.345 58.1849L350.6 59.1029L350.854 60.0209L352.554 59.0495L352.3 58.1315ZM348.9 60.0743L348.645 59.1563L346.945 60.1278L347.2 61.0457L347.454 61.9637L349.154 60.9923L348.9 60.0743ZM345.5 62.0171L345.245 61.0992L343.545 62.0706L343.8 62.9886L344.054 63.9065L345.754 62.9351L345.5 62.0171ZM342.1 63.96L341.845 63.042L340.145 64.0134L340.4 64.9314L340.654 65.8494L342.354 64.878L342.1 63.96ZM338.7 65.9028L338.446 64.9848L336.746 65.9562L337 66.8742L337.254 67.7922L338.954 66.8208L338.7 65.9028ZM335.3 67.8456L335.046 66.9276L333.346 67.899L333.6 68.817L333.854 69.735L335.554 68.7636L335.3 67.8456ZM331.9 69.7884L331.646 68.8704L329.946 69.8419L330.2 70.7599L330.454 71.6778L332.154 70.7064L331.9 69.7884ZM328.5 71.7313L328.246 70.8133L326.546 71.7847L326.8 72.7027L327.054 73.6207L328.754 72.6492L328.5 71.7313ZM325.1 73.6741L324.846 72.7561L323.146 73.7275L323.4 74.6455L323.655 75.5635L325.354 74.5921L325.1 73.6741ZM321.7 75.6169L321.446 74.6989L319.746 75.6703L320 76.5883L320.255 77.5063L321.955 76.5349L321.7 75.6169ZM318.3 77.5597L318.046 76.6417L317.196 77.1275L317.45 78.0455L317.705 78.9635L318.555 78.4777L318.3 77.5597Z" fill="var(--stroke-0, #D3E8F3)"/>
<path id="Line 11" d="M547.302 23.7335L547.196 22.7796L546.255 23.0358L546.361 23.9897L546.466 24.9436L547.408 24.6874L547.302 23.7335ZM544.478 24.5021L544.373 23.5481L542.49 24.0605L542.596 25.0144L542.701 25.9684L544.584 25.456L544.478 24.5021ZM540.713 25.5268L540.608 24.5729L538.725 25.0853L538.831 26.0392L538.936 26.9931L540.819 26.4808L540.713 25.5268ZM536.948 26.5516L536.843 25.5977L534.96 26.1101L535.066 27.064L535.171 28.0179L537.054 27.5055L536.948 26.5516ZM533.183 27.5764L533.078 26.6224L531.195 27.1348L531.301 28.0888L531.406 29.0427L533.289 28.5303L533.183 27.5764ZM529.418 28.6011L529.313 27.6472L527.43 28.1596L527.536 29.1135L527.641 30.0674L529.524 29.5551L529.418 28.6011ZM525.653 29.6259L525.548 28.672L523.665 29.1844L523.771 30.1383L523.876 31.0922L525.759 30.5798L525.653 29.6259ZM521.888 30.6507L521.783 29.6968L519.9 30.2091L520.006 31.1631L520.111 32.117L521.994 31.6046L521.888 30.6507ZM518.123 31.6754L518.018 30.7215L516.135 31.2339L516.241 32.1878L516.347 33.1417L518.229 32.6294L518.123 31.6754ZM514.358 32.7002L514.253 31.7463L512.37 32.2587L512.476 33.2126L512.582 34.1665L514.464 33.6541L514.358 32.7002ZM510.593 33.725L510.488 32.7711L508.605 33.2834L508.711 34.2374L508.817 35.1913L510.699 34.6789L510.593 33.725ZM506.828 34.7497L506.723 33.7958L504.84 34.3082L504.946 35.2621L505.052 36.216L506.934 35.7037L506.828 34.7497ZM503.063 35.7745L502.958 34.8206L501.075 35.333L501.181 36.2869L501.287 37.2408L503.169 36.7284L503.063 35.7745ZM499.298 36.7993L499.193 35.8454L497.31 36.3577L497.416 37.3117L497.522 38.2656L499.404 37.7532L499.298 36.7993ZM495.534 37.824L495.428 36.8701L493.545 37.3825L493.651 38.3364L493.757 39.2904L495.639 38.778L495.534 37.824ZM491.769 38.8488L491.663 37.8949L489.78 38.4073L489.886 39.3612L489.992 40.3151L491.874 39.8027L491.769 38.8488ZM488.004 39.8736L487.898 38.9197L486.015 39.432L486.121 40.386L486.227 41.3399L488.109 40.8275L488.004 39.8736ZM484.239 40.8983L484.133 39.9444L482.25 40.4568L482.356 41.4107L482.462 42.3647L484.344 41.8523L484.239 40.8983ZM480.474 41.9231L480.368 40.9692L478.485 41.4816L478.591 42.4355L478.697 43.3894L480.579 42.877L480.474 41.9231ZM476.709 42.9479L476.603 41.994L474.72 42.5063L474.826 43.4603L474.932 44.4142L476.814 43.9018L476.709 42.9479ZM472.944 43.9727L472.838 43.0187L470.956 43.5311L471.061 44.485L471.167 45.439L473.049 44.9266L472.944 43.9727ZM469.179 44.9974L469.073 44.0435L467.191 44.5559L467.296 45.5098L467.402 46.4637L469.284 45.9513L469.179 44.9974ZM465.414 46.0222L465.308 45.0683L463.426 45.5807L463.531 46.5346L463.637 47.4885L465.519 46.9761L465.414 46.0222ZM461.649 47.047L461.543 46.093L459.661 46.6054L459.766 47.5593L459.872 48.5133L461.754 48.0009L461.649 47.047ZM457.884 48.0717L457.778 47.1178L455.896 47.6302L456.001 48.5841L456.107 49.538L457.989 49.0256L457.884 48.0717ZM454.119 49.0965L454.013 48.1426L452.131 48.655L452.236 49.6089L452.342 50.5628L454.224 50.0504L454.119 49.0965ZM450.354 50.1213L450.248 49.1673L448.366 49.6797L448.471 50.6336L448.577 51.5876L450.459 51.0752L450.354 50.1213ZM446.589 51.146L446.483 50.1921L444.601 50.7045L444.706 51.6584L444.812 52.6123L446.694 52.0999L446.589 51.146ZM442.824 52.1708L442.718 51.2169L440.836 51.7293L440.941 52.6832L441.047 53.6371L442.929 53.1247L442.824 52.1708ZM439.059 53.1956L438.953 52.2416L437.071 52.754L437.176 53.7079L437.282 54.6619L439.165 54.1495L439.059 53.1956ZM435.294 54.2203L435.188 53.2664L433.306 53.7788L433.411 54.7327L433.517 55.6866L435.4 55.1742L435.294 54.2203ZM431.529 55.2451L431.423 54.2912L429.541 54.8036L429.646 55.7575L429.752 56.7114L431.635 56.199L431.529 55.2451ZM427.764 56.2699L427.658 55.3159L425.776 55.8283L425.881 56.7822L425.987 57.7362L427.87 57.2238L427.764 56.2699ZM423.999 57.2946L423.893 56.3407L422.011 56.8531L422.116 57.807L422.222 58.7609L424.105 58.2486L423.999 57.2946ZM420.234 58.3194L420.128 57.3655L418.246 57.8779L418.352 58.8318L418.457 59.7857L420.34 59.2733L420.234 58.3194ZM416.469 59.3442L416.363 58.3902L414.481 58.9026L414.587 59.8565L414.692 60.8105L416.575 60.2981L416.469 59.3442ZM412.704 60.3689L412.598 59.415L410.716 59.9274L410.822 60.8813L410.927 61.8352L412.81 61.3228L412.704 60.3689ZM408.939 61.3937L408.833 60.4398L406.951 60.9522L407.057 61.9061L407.162 62.86L409.045 62.3476L408.939 61.3937ZM405.174 62.4185L405.068 61.4645L403.186 61.9769L403.292 62.9308L403.397 63.8848L405.28 63.3724L405.174 62.4185ZM401.409 63.4432L401.303 62.4893L399.421 63.0017L399.527 63.9556L399.632 64.9095L401.515 64.3972L401.409 63.4432ZM397.644 64.468L397.539 63.5141L395.656 64.0265L395.762 64.9804L395.867 65.9343L397.75 65.4219L397.644 64.468ZM393.879 65.4928L393.774 64.5388L391.891 65.0512L391.997 66.0051L392.102 66.9591L393.985 66.4467L393.879 65.4928ZM390.114 66.5175L390.009 65.5636L388.126 66.076L388.232 67.0299L388.337 67.9838L390.22 67.4715L390.114 66.5175ZM386.349 67.5423L386.244 66.5884L384.361 67.1008L384.467 68.0547L384.572 69.0086L386.455 68.4962L386.349 67.5423ZM382.584 68.5671L382.479 67.6131L380.596 68.1255L380.702 69.0795L380.807 70.0334L382.69 69.521L382.584 68.5671ZM378.819 69.5918L378.714 68.6379L376.831 69.1503L376.937 70.1042L377.042 71.0581L378.925 70.5458L378.819 69.5918ZM375.054 70.6166L374.949 69.6627L373.066 70.1751L373.172 71.129L373.277 72.0829L375.16 71.5705L375.054 70.6166ZM371.289 71.6414L371.184 70.6875L369.301 71.1998L369.407 72.1538L369.512 73.1077L371.395 72.5953L371.289 71.6414ZM367.524 72.6661L367.419 71.7122L365.536 72.2246L365.642 73.1785L365.747 74.1324L367.63 73.6201L367.524 72.6661ZM363.759 73.6909L363.654 72.737L361.771 73.2494L361.877 74.2033L361.983 75.1572L363.865 74.6448L363.759 73.6909ZM359.994 74.7157L359.889 73.7618L358.006 74.2741L358.112 75.2281L358.218 76.182L360.1 75.6696L359.994 74.7157ZM356.229 75.7404L356.124 74.7865L354.241 75.2989L354.347 76.2528L354.453 77.2067L356.335 76.6944L356.229 75.7404ZM352.464 76.7652L352.359 75.8113L350.476 76.3237L350.582 77.2776L350.688 78.2315L352.57 77.7191L352.464 76.7652ZM348.699 77.79L348.594 76.8361L347.652 77.0923L347.758 78.0462L347.864 79.0001L348.805 78.7439L348.699 77.79Z" fill="var(--stroke-0, #D3E8F3)"/>
</g>
</g>
</g>
</svg>
