<svg width="24" height="24" viewBox="0 0 24 24" fill="none" xmlns="http://www.w3.org/2000/svg">
<path d="M10.9903 15.548L11.1343 16.3242C11.1697 16.5017 11.2552 16.6447 11.3908 16.7532C11.5263 16.8617 11.6809 16.916 11.8546 16.916H12.1481C12.3194 16.916 12.473 16.8596 12.6088 16.7467C12.7448 16.6341 12.8305 16.4869 12.8658 16.3052L13.0138 15.549C13.3365 15.4523 13.6105 15.331 13.8358 15.185C14.0613 15.039 14.2701 14.87 14.4621 14.678L15.3941 14.966C15.5904 15.02 15.7723 15.0076 15.9396 14.929C16.1071 14.8505 16.2376 14.7226 16.3311 14.5452L16.4413 14.3485C16.5283 14.1576 16.5458 13.9677 16.4938 13.7787C16.4418 13.5897 16.3258 13.4386 16.1458 13.3255L15.5408 12.9452C15.6035 12.6072 15.6348 12.2922 15.6348 12.0002C15.6348 11.7082 15.6035 11.3912 15.5408 11.0492L16.1518 10.667C16.3318 10.5551 16.4468 10.4016 16.4968 10.2062C16.5468 10.0109 16.5279 9.82373 16.4401 9.64473L16.3348 9.45248C16.2395 9.27998 16.108 9.15264 15.9403 9.07048C15.7727 8.98848 15.5906 8.97448 15.3941 9.02848L14.4621 9.32248C14.2701 9.13048 14.0613 8.96148 13.8358 8.81548C13.6105 8.66948 13.3365 8.54789 13.0138 8.45073L12.8658 7.67023C12.8305 7.49673 12.745 7.35573 12.6093 7.24723C12.4738 7.13873 12.3193 7.08448 12.1456 7.08448H11.8521C11.6808 7.08448 11.5272 7.14089 11.3913 7.25373C11.2553 7.36639 11.1697 7.51356 11.1343 7.69523L10.9903 8.45248C10.665 8.54848 10.3897 8.66948 10.1643 8.81548C9.93884 8.96148 9.73009 9.13048 9.53809 9.32248L8.60609 9.03448C8.40959 8.98048 8.2275 8.99314 8.05984 9.07248C7.89234 9.15198 7.763 9.27773 7.67184 9.44973L7.56209 9.64548C7.47292 9.84064 7.45434 10.0327 7.50634 10.2217C7.55834 10.4107 7.67367 10.5591 7.85234 10.667L8.45934 11.0492C8.39667 11.3912 8.36534 11.7082 8.36534 12.0002C8.36534 12.2922 8.39667 12.6072 8.45934 12.9452L7.84834 13.3315C7.66834 13.4446 7.55334 13.5989 7.50334 13.7942C7.45334 13.9896 7.472 14.1746 7.55934 14.3492L7.66459 14.5412C7.76042 14.7182 7.89217 14.8478 8.05984 14.93C8.2275 15.012 8.40959 15.026 8.60609 14.972L9.53809 14.678C9.73009 14.87 9.93884 15.039 10.1643 15.185C10.3897 15.331 10.665 15.452 10.9903 15.548ZM11.9981 14.0895C11.4074 14.0895 10.9119 13.8886 10.5116 13.4867C10.1111 13.0851 9.91084 12.5889 9.91084 11.9982C9.91084 11.4076 10.1118 10.9121 10.5136 10.5117C10.9153 10.1112 11.4114 9.91098 12.0021 9.91098C12.5928 9.91098 13.0883 10.1119 13.4886 10.5137C13.8891 10.9154 14.0893 11.4116 14.0893 12.0022C14.0893 12.5929 13.8884 13.0884 13.4866 13.4887C13.0849 13.8892 12.5888 14.0895 11.9981 14.0895ZM4.55384 21.1497C4.09384 21.1497 3.695 20.9808 3.35734 20.643C3.0195 20.3053 2.85059 19.9065 2.85059 19.4465V4.55398C2.85059 4.09231 3.0195 3.69206 3.35734 3.35323C3.695 3.01423 4.09384 2.84473 4.55384 2.84473H19.4463C19.908 2.84473 20.3083 3.01423 20.6471 3.35323C20.9861 3.69206 21.1556 4.09231 21.1556 4.55398V19.4465C21.1556 19.9065 20.9861 20.3053 20.6471 20.643C20.3083 20.9808 19.908 21.1497 19.4463 21.1497H4.55384ZM4.55384 19.4465H19.4463V4.55398H4.55384V19.4465Z" fill="#2DA2DB"/>
</svg>
