<svg width="21" height="14" viewBox="0 0 21 14" fill="none" xmlns="http://www.w3.org/2000/svg">
<path d="M8.51475 7.6795L7.82775 10.5967C7.79042 10.6961 7.81742 10.7737 7.90875 10.8297C8.00008 10.8857 8.08508 10.8784 8.16375 10.8077L12.1718 6.87725C12.3084 6.74858 12.3435 6.59217 12.277 6.408C12.2105 6.22367 12.0841 6.1315 11.8977 6.1315H9.79025L10.4713 3.20825C10.5086 3.11292 10.4816 3.03625 10.3903 2.97825C10.2989 2.92025 10.2139 2.92658 10.1353 2.99725L6.12125 6.93375C5.98458 7.06242 5.94992 7.21883 6.01725 7.403C6.08458 7.58733 6.21258 7.6795 6.40125 7.6795H8.51475ZM1.70325 12.0957H16.5957V1.70925H1.70325V12.0957ZM1.70325 13.805C1.24325 13.805 0.844417 13.6355 0.50675 13.2965C0.168917 12.9577 0 12.5574 0 12.0957V1.70925C0 1.24758 0.168917 0.847332 0.50675 0.508499C0.844417 0.169499 1.24325 0 1.70325 0H16.5957C17.0574 0 17.4577 0.169499 17.7965 0.508499C18.1355 0.847332 18.305 1.24758 18.305 1.70925V4.55375H19.1685C19.5295 4.55375 19.843 4.68775 20.109 4.95575C20.3752 5.22375 20.5082 5.53683 20.5082 5.895V7.91625C20.5082 8.29092 20.3752 8.60808 20.109 8.86775C19.843 9.12742 19.5295 9.25725 19.1685 9.25725H18.305V12.0957C18.305 12.5574 18.1355 12.9577 17.7965 13.2965C17.4577 13.6355 17.0574 13.805 16.5957 13.805H1.70325Z" fill="#4CC4FE"/>
</svg>
