<svg preserveAspectRatio="none" width="100%" height="100%" overflow="visible" style="display: block;" viewBox="0 0 24 24" fill="none" xmlns="http://www.w3.org/2000/svg">
<g id="Bridge" clip-path="url(#clip0_0_54)">
<path id="Vector" d="M6.54545 15.1364V6.76545C5.76 6.40545 5.02909 5.96909 4.36364 5.45636V15.1364H6.54545ZM4.36364 20.4091C4.36364 21.0116 3.87522 21.5 3.27273 21.5C2.67023 21.5 2.18182 21.0116 2.18182 20.4091V17.3182H1.09091C0.488416 17.3182 0 16.8298 0 16.2273C0 15.6248 0.488416 15.1364 1.09091 15.1364H2.18182V3.59091C2.18182 2.98842 2.67023 2.5 3.27273 2.5C3.87522 2.5 4.36364 2.98842 4.36364 3.59091V4.06C6.32727 5.77273 9.02182 6.86364 12 6.86364C14.9782 6.86364 17.6727 5.77273 19.6364 4.06V3.59091C19.6364 2.98842 20.1248 2.5 20.7273 2.5C21.3298 2.5 21.8182 2.98842 21.8182 3.59091V15.1364H22.9091C23.5116 15.1364 24 15.6248 24 16.2273C24 16.8298 23.5116 17.3182 22.9091 17.3182H21.8182V20.4091C21.8182 21.0116 21.3298 21.5 20.7273 21.5C20.1248 21.5 19.6364 21.0116 19.6364 20.4091V17.3182H4.36364V20.4091ZM17.4545 6.76545V15.1364H19.6364V5.45636C18.9709 5.96909 18.24 6.40545 17.4545 6.76545ZM16.3636 15.1364V7.21273C15.6655 7.46364 14.9345 7.64909 14.1818 7.78V15.1364H16.3636ZM13.0909 15.1364V7.91091L12 7.95455L10.9091 7.91091V15.1364H13.0909ZM9.81818 15.1364V7.78C9.06545 7.64909 8.33455 7.46364 7.63636 7.21273V15.1364H9.81818Z" fill="var(--fill-0, #1E729C)"/>
</g>
<defs>
<clipPath id="clip0_0_54">
<rect width="24" height="24" fill="white"/>
</clipPath>
</defs>
</svg>
