<svg preserveAspectRatio="none" width="100%" height="100%" overflow="visible" style="display: block;" viewBox="0 0 40 40" fill="none" xmlns="http://www.w3.org/2000/svg">
<g id="circle-user-round">
<path id="Vector" d="M29.875 33.4266C29.5009 31.0763 28.3009 28.9364 26.4905 27.3916C24.6802 25.8467 22.3783 24.9982 19.9984 24.9984C17.6185 24.9986 15.3167 25.8475 13.5067 27.3927C11.6966 28.9378 10.497 31.0779 10.1233 33.4282M26.6667 18.3333C26.6667 22.0152 23.6819 25 20 25C16.3181 25 13.3333 22.0152 13.3333 18.3333C13.3333 14.6514 16.3181 11.6667 20 11.6667C23.6819 11.6667 26.6667 14.6514 26.6667 18.3333ZM36.6667 20C36.6667 29.2047 29.2047 36.6667 20 36.6667C10.7953 36.6667 3.33333 29.2047 3.33333 20C3.33333 10.7953 10.7953 3.33333 20 3.33333C29.2047 3.33333 36.6667 10.7953 36.6667 20Z" stroke="var(--stroke-0, #2DA2DB)" stroke-width="3" stroke-linecap="round" stroke-linejoin="round"/>
</g>
</svg>
