<svg preserveAspectRatio="none" width="100%" height="100%" overflow="visible" style="display: block;" viewBox="0 0 20 20" fill="none" xmlns="http://www.w3.org/2000/svg">
<g id="e911_emergency">
<path id="Vector" d="M5 16.866C4.79972 16.866 4.63139 16.7974 4.495 16.6602C4.35847 16.5231 4.29021 16.3539 4.29021 16.1525C4.29021 15.9513 4.35847 15.7833 4.495 15.6485C4.63139 15.5138 4.79972 15.4465 5 15.4465H5.58104L7.29625 9.80021C7.38944 9.49979 7.55868 9.25465 7.80396 9.06479C8.0491 8.87479 8.33049 8.77979 8.64812 8.77979H11.3519C11.6695 8.77979 11.9509 8.87479 12.196 9.06479C12.4413 9.25465 12.6106 9.49979 12.7038 9.80021L14.419 15.4465H15C15.2003 15.4465 15.3686 15.5151 15.505 15.6523C15.6415 15.7894 15.7098 15.9586 15.7098 16.16C15.7098 16.3613 15.6415 16.5292 15.505 16.664C15.3686 16.7987 15.2003 16.866 15 16.866H5ZM7.09375 15.4465H12.9063L11.331 10.1994H8.66896L7.09375 15.4465ZM9.29021 5.51042V3.01042C9.29021 2.81014 9.35882 2.64097 9.49604 2.50292C9.63313 2.36486 9.80236 2.29583 10.0038 2.29583C10.205 2.29583 10.373 2.36486 10.5077 2.50292C10.6424 2.64097 10.7098 2.81014 10.7098 3.01042V5.51042C10.7098 5.71069 10.6412 5.87903 10.504 6.01542C10.3669 6.15194 10.1976 6.22021 9.99625 6.22021C9.795 6.22021 9.62701 6.15194 9.49229 6.01542C9.35757 5.87903 9.29021 5.71069 9.29021 5.51042ZM13.8881 6.83875L15.659 5.06792C15.804 4.94028 15.9721 4.87375 16.1633 4.86833C16.3546 4.86306 16.5197 4.93125 16.6585 5.07292C16.8001 5.21458 16.8708 5.38035 16.8708 5.57021C16.8708 5.76007 16.8001 5.92583 16.6585 6.0675L14.8877 7.85917C14.746 8.00069 14.5794 8.07146 14.3879 8.07146C14.1964 8.07146 14.0298 8.00035 13.8881 7.85813C13.7433 7.71576 13.6708 7.5457 13.6708 7.34792C13.6708 7.15014 13.7433 6.98042 13.8881 6.83875ZM16.2708 10.9569H18.7708C18.9711 10.9569 19.1394 11.0255 19.2758 11.1627C19.4124 11.2998 19.4806 11.469 19.4806 11.6704C19.4806 11.8717 19.4124 12.0397 19.2758 12.1744C19.1394 12.3091 18.9711 12.3765 18.7708 12.3765H16.2708C16.0706 12.3765 15.9022 12.3078 15.7658 12.1706C15.6293 12.0335 15.561 11.8643 15.561 11.6629C15.561 11.4617 15.6293 11.2937 15.7658 11.159C15.9022 11.0242 16.0706 10.9569 16.2708 10.9569ZM5.11229 7.83833L3.34146 6.0675C3.21382 5.92583 3.14736 5.75938 3.14208 5.56813C3.13667 5.37688 3.20479 5.21181 3.34646 5.07292C3.48813 4.92806 3.65389 4.85563 3.84375 4.85563C4.03361 4.85563 4.20104 4.92639 4.34604 5.06792L6.13271 6.83875C6.27438 6.98042 6.34521 7.14701 6.34521 7.33854C6.34521 7.53007 6.27403 7.69667 6.13167 7.83833C5.98931 7.98319 5.81924 8.05479 5.62146 8.05313C5.42368 8.05146 5.25396 7.97986 5.11229 7.83833ZM1.22917 12.3765C1.02889 12.3765 0.860555 12.3078 0.724166 12.1706C0.587639 12.0335 0.519375 11.8643 0.519375 11.6629C0.519375 11.4617 0.587639 11.2937 0.724166 11.159C0.860555 11.0242 1.02889 10.9569 1.22917 10.9569H3.72917C3.92944 10.9569 4.09861 11.0255 4.23667 11.1627C4.37472 11.2998 4.44375 11.469 4.44375 11.6704C4.44375 11.8717 4.37472 12.0397 4.23667 12.1744C4.09861 12.3091 3.92944 12.3765 3.72917 12.3765H1.22917Z" fill="var(--fill-0, #1E729C)"/>
</g>
</svg>
