<svg preserveAspectRatio="none" width="100%" height="100%" overflow="visible" style="display: block;" viewBox="0 0 40 40" fill="none" xmlns="http://www.w3.org/2000/svg">
<g id="e911_emergency">
<path id="Vector" d="M17.2966 17.5848H22.7038C23.3336 17.5848 23.8909 17.7728 24.3766 18.1493C24.8023 18.4788 25.1126 18.8921 25.3073 19.3895L25.3835 19.6083L28.8141 30.9003L28.819 30.9178H29.9997C30.3937 30.9178 30.724 31.0528 30.9919 31.3221C31.2601 31.5914 31.3942 31.9237 31.3942 32.3202C31.3942 32.7163 31.2608 33.046 30.9929 33.3104C30.725 33.575 30.394 33.7069 29.9997 33.7069H9.99969C9.60566 33.7068 9.27533 33.5721 9.0075 33.3026C8.73945 33.0334 8.60516 32.7009 8.60516 32.3046C8.60526 31.9087 8.73972 31.5797 9.0075 31.3153C9.2753 31.0508 9.60552 30.9179 9.99969 30.9178H11.1804L11.1862 30.9003L14.6169 19.6073L14.6159 19.6063C14.8008 19.011 15.1368 18.5255 15.6227 18.1493H15.6237C16.1094 17.7729 16.6668 17.5848 17.2966 17.5848ZM17.3141 20.3915L14.1637 30.8856L14.154 30.9178H25.8464L25.8366 30.8856L22.6862 20.3915L22.6804 20.3739H17.319L17.3141 20.3915ZM2.45867 21.9383H7.45867C7.85269 21.9384 8.18454 22.0741 8.45574 22.3436C8.72675 22.6128 8.86294 22.9445 8.86297 23.3407C8.86297 23.7368 8.7268 24.0664 8.45574 24.3309C8.18459 24.5955 7.85278 24.7283 7.45867 24.7284H2.45867C2.06473 24.7284 1.73431 24.5933 1.46648 24.3241C1.19835 24.0549 1.06419 23.7224 1.06414 23.326C1.06414 22.93 1.19763 22.6003 1.46551 22.3358C1.73338 22.0712 2.06437 21.9383 2.45867 21.9383ZM32.5417 21.9383H37.5417C37.9357 21.9383 38.266 22.0733 38.5339 22.3426C38.802 22.6119 38.9362 22.9443 38.9362 23.3407C38.9362 23.7369 38.8019 24.0664 38.5339 24.3309C38.266 24.5955 37.9359 24.7284 37.5417 24.7284H32.5417C32.1477 24.7284 31.8173 24.5934 31.5495 24.3241C31.2814 24.0549 31.1472 23.7224 31.1471 23.326C31.1471 22.9299 31.2815 22.6003 31.5495 22.3358C31.8173 22.0713 32.1474 21.9383 32.5417 21.9383ZM32.3278 9.76159C32.7029 9.75135 33.0265 9.88454 33.2995 10.163V10.1639C33.578 10.4428 33.7165 10.7679 33.7165 11.1405C33.7165 11.5131 33.578 11.8382 33.2995 12.1171L29.7575 15.701C29.4787 15.9794 29.1519 16.118 28.7761 16.118C28.4 16.118 28.0725 15.979 27.7936 15.6991V15.6981C27.5088 15.4181 27.367 15.0846 27.3669 14.6962C27.3669 14.356 27.4758 14.0584 27.694 13.8026L27.7936 13.6952L31.3346 10.1542C31.6202 9.9029 31.9514 9.77225 32.3278 9.76159ZM7.68719 9.7362C8.05977 9.7362 8.38889 9.87457 8.67449 10.1532L12.2477 13.6952C12.5265 13.974 12.6656 14.3007 12.6657 14.6766C12.6657 15.0055 12.5586 15.2972 12.3444 15.5516L12.2458 15.659C11.9657 15.9441 11.6314 16.0842 11.2429 16.0809C10.8541 16.0776 10.5206 15.9375 10.2419 15.659L6.70086 12.1171C6.45016 11.8384 6.31965 11.5117 6.30926 11.1356C6.29863 10.7604 6.43207 10.437 6.71062 10.1639V10.163C6.98951 9.87783 7.31485 9.73628 7.68719 9.7362ZM20.0075 4.61706C20.4036 4.61706 20.7332 4.75225 20.9977 5.02331C21.2623 5.29443 21.3941 5.62632 21.3942 6.02038V11.0204C21.3942 11.4145 21.2595 11.7456 20.9899 12.0135C20.7208 12.2814 20.389 12.4158 19.9929 12.4159C19.5968 12.4159 19.2671 12.2814 19.0026 12.0135C18.738 11.7457 18.6052 11.4147 18.6052 11.0204V6.02038C18.6053 5.62646 18.74 5.29446 19.0095 5.02331C19.2787 4.75211 19.6111 4.61706 20.0075 4.61706Z" fill="var(--fill-0, #2DA2DB)" stroke="var(--stroke-0, #2DA2DB)" stroke-width="0.05"/>
</g>
</svg>
