<svg preserveAspectRatio="none" width="100%" height="100%" overflow="visible" style="display: block;" viewBox="0 0 40 40" fill="none" xmlns="http://www.w3.org/2000/svg">
<g id="eye_tracking">
<g id="Vector">
<mask id="path-1-inside-1_0_71" fill="white">
<path d="M4.25625 38.5825C3.48958 38.5825 2.82486 38.301 2.26208 37.7379C1.69903 37.1751 1.4175 36.5104 1.4175 35.7437V32.0179C1.4175 31.6174 1.55458 31.2807 1.82875 31.0079C2.10292 30.7351 2.44139 30.5987 2.84417 30.5987C3.24694 30.5987 3.58306 30.7351 3.8525 31.0079C4.12167 31.2807 4.25625 31.6174 4.25625 32.0179V35.7437H7.98208C8.38264 35.7437 8.7193 35.8808 8.99208 36.155C9.26486 36.4292 9.40125 36.7676 9.40125 37.1704C9.40125 37.5732 9.26486 37.9092 8.99208 38.1783C8.7193 38.4478 8.38264 38.5825 7.98208 38.5825H4.25625ZM35.7537 38.5825H32.0279C31.6274 38.5825 31.2907 38.4454 31.0179 38.1712C30.7451 37.8971 30.6087 37.5586 30.6087 37.1558C30.6087 36.7531 30.7451 36.4169 31.0179 36.1475C31.2907 35.8783 31.6274 35.7437 32.0279 35.7437H35.7537V32.0179C35.7537 31.6174 35.8908 31.2807 36.165 31.0079C36.4392 30.7351 36.7776 30.5987 37.1804 30.5987C37.5832 30.5987 37.9192 30.7351 38.1883 31.0079C38.4578 31.2807 38.5925 31.6174 38.5925 32.0179V35.7437C38.5925 36.5104 38.311 37.1751 37.7479 37.7379C37.1851 38.301 36.5204 38.5825 35.7537 38.5825ZM19.9554 30.8342C16.9162 30.8342 14.1335 30.0339 11.6071 28.4333C9.08042 26.8328 7.06097 24.6297 5.54875 21.8242C5.39014 21.5478 5.27806 21.2561 5.2125 20.9492C5.14694 20.6422 5.11417 20.3292 5.11417 20.01C5.11417 19.685 5.15042 19.3689 5.22292 19.0617C5.29542 18.7542 5.40403 18.4589 5.54875 18.1758C7.06097 15.3425 9.07889 13.1239 11.6025 11.52C14.1261 9.91611 16.9081 9.11417 19.9483 9.11417C22.9886 9.11417 25.7808 9.91444 28.325 11.515C30.8692 13.1156 32.8974 15.3325 34.4096 18.1658C34.5682 18.4489 34.6819 18.746 34.7508 19.0571C34.8197 19.3682 34.8542 19.6792 34.8542 19.99C34.8542 20.3011 34.8181 20.6147 34.7458 20.9308C34.6736 21.2469 34.5582 21.5481 34.3996 21.8342C32.894 24.6397 30.87 26.8411 28.3275 28.4383C25.785 30.0356 22.9943 30.8342 19.9554 30.8342ZM19.9521 28.0654C22.5262 28.0654 24.9228 27.3411 27.1417 25.8925C29.3606 24.4442 31.0567 22.4783 32.23 19.995C31.0567 17.5117 29.361 15.5389 27.1429 14.0767C24.9249 12.6144 22.5267 11.8833 19.9483 11.8833C17.375 11.8833 14.9883 12.6144 12.7883 14.0767C10.5883 15.5389 8.90167 17.5117 7.72833 19.995C8.90167 22.4783 10.5888 24.4442 12.7896 25.8925C14.9904 27.3411 17.3779 28.0654 19.9521 28.0654ZM19.9992 25.52C21.5342 25.52 22.85 24.9782 23.9467 23.8946C25.0433 22.811 25.5917 21.5097 25.5917 19.9908C25.5917 18.4719 25.0443 17.1668 23.9496 16.0754C22.8549 14.984 21.536 14.4383 19.9929 14.4383C18.4632 14.4383 17.1669 14.9797 16.1042 16.0625C15.0414 17.1453 14.51 18.4568 14.51 19.9971C14.51 21.5374 15.0444 22.8429 16.1133 23.9137C17.1825 24.9846 18.4778 25.52 19.9992 25.52ZM19.9929 22.8304C19.204 22.8304 18.5362 22.5553 17.9896 22.005C17.4429 21.4544 17.1696 20.786 17.1696 19.9996C17.1696 19.2129 17.4426 18.5376 17.9887 17.9737C18.5349 17.4099 19.2033 17.1279 19.9942 17.1279C20.785 17.1279 21.4607 17.4072 22.0212 17.9658C22.5821 18.5244 22.8625 19.2026 22.8625 20.0004C22.8625 20.7871 22.5835 21.4554 22.0254 22.0054C21.4674 22.5554 20.7899 22.8304 19.9929 22.8304ZM38.5925 4.24625V7.97208C38.5925 8.37264 38.4554 8.70931 38.1812 8.98208C37.9071 9.25486 37.5686 9.39125 37.1658 9.39125C36.7631 9.39125 36.4269 9.25486 36.1575 8.98208C35.8883 8.70931 35.7537 8.37264 35.7537 7.97208V4.24625H32.0279C31.6274 4.24625 31.2907 4.10917 31.0179 3.835C30.7451 3.56083 30.6087 3.22236 30.6087 2.81958C30.6087 2.4168 30.7451 2.08083 31.0179 1.81167C31.2907 1.54222 31.6274 1.4075 32.0279 1.4075H35.7537C36.5204 1.4075 37.1851 1.68903 37.7479 2.25208C38.311 2.81486 38.5925 3.47958 38.5925 4.24625ZM4.25625 1.4075H7.98208C8.38264 1.4075 8.7193 1.54458 8.99208 1.81875C9.26486 2.09292 9.40125 2.43139 9.40125 2.83417C9.40125 3.23694 9.26486 3.57305 8.99208 3.8425C8.7193 4.11166 8.38264 4.24625 7.98208 4.24625H4.25625V7.97208C4.25625 8.37264 4.11917 8.70931 3.845 8.98208C3.57083 9.25486 3.23236 9.39125 2.82958 9.39125C2.42681 9.39125 2.09083 9.25486 1.82167 8.98208C1.55222 8.70931 1.4175 8.37264 1.4175 7.97208V4.24625C1.4175 3.47958 1.69903 2.81486 2.26208 2.25208C2.82486 1.68903 3.48958 1.4075 4.25625 1.4075Z"/>
</mask>
<path d="M2.26208 37.7379L4.38393 35.6171L4.38288 35.6161L2.26208 37.7379ZM3.8525 31.0079L5.98791 28.9008L5.98682 28.8997L3.8525 31.0079ZM4.25625 35.7437H1.25625V38.7437H4.25625V35.7437ZM8.99208 38.1783L6.88494 36.0429L6.88384 36.044L8.99208 38.1783ZM31.0179 36.1475L28.9108 34.0121L28.9097 34.0132L31.0179 36.1475ZM35.7537 35.7437V38.7437H38.7537V35.7437H35.7537ZM38.1883 31.0079L36.0529 33.1151L36.054 33.1162L38.1883 31.0079ZM37.7479 37.7379L35.6271 35.6161L35.6261 35.6171L37.7479 37.7379ZM11.6071 28.4333L13.2126 25.8991L13.2125 25.899L11.6071 28.4333ZM5.54875 21.8242L8.18956 20.4007L8.17061 20.3656L8.15074 20.331L5.54875 21.8242ZM5.22292 19.0617L8.14272 19.7507L8.14286 19.7501L5.22292 19.0617ZM5.54875 18.1758L2.90212 16.7633L2.88967 16.7866L2.87763 16.8101L5.54875 18.1758ZM34.4096 18.1658L31.763 19.5784L31.7774 19.6055L31.7925 19.6323L34.4096 18.1658ZM34.3996 21.8342L31.7758 20.3796L31.7658 20.3975L31.7562 20.4156L34.3996 21.8342ZM27.1417 25.8925L25.5019 23.3803L25.5017 23.3805L27.1417 25.8925ZM32.23 19.995L34.9425 21.2766L35.548 19.995L34.9425 18.7134L32.23 19.995ZM7.72833 19.995L5.01586 18.7134L4.41033 19.995L5.01586 21.2766L7.72833 19.995ZM12.7896 25.8925L14.439 23.3866L14.4388 23.3865L12.7896 25.8925ZM16.1133 23.9137L13.9901 26.0331L13.9904 26.0334L16.1133 23.9137ZM17.9896 22.005L15.8608 24.1188L15.8613 24.1193L17.9896 22.005ZM22.0213 17.9658L19.9036 20.0908L19.9041 20.0914L22.0213 17.9658ZM36.1575 8.98208L34.0221 11.0892L34.0232 11.0903L36.1575 8.98208ZM35.7537 4.24625H38.7537V1.24625H35.7537V4.24625ZM31.0179 1.81167L33.1251 3.94707L33.1262 3.94599L31.0179 1.81167ZM37.7479 2.25208L35.6261 4.37288L35.6271 4.37393L37.7479 2.25208ZM8.99208 3.8425L11.0992 5.97791L11.1003 5.97682L8.99208 3.8425ZM4.25625 4.24625V1.24625H1.25625V4.24625H4.25625ZM1.82167 8.98208L3.95707 6.87494L3.95599 6.87384L1.82167 8.98208ZM2.26208 2.25208L4.38288 4.37393L4.38393 4.37288L2.26208 2.25208ZM4.25625 38.5825V35.5825C4.24907 35.5825 4.25809 35.5819 4.27931 35.5861C4.30099 35.5904 4.32663 35.5979 4.35268 35.6089C4.37857 35.6199 4.39597 35.6306 4.40379 35.6359C4.4111 35.641 4.40395 35.6372 4.38393 35.6171L2.26208 37.7379L0.140239 39.8587C1.24157 40.9606 2.66023 41.5825 4.25625 41.5825V38.5825ZM2.26208 37.7379L4.38288 35.6161C4.36284 35.596 4.35904 35.5889 4.36407 35.5962C4.36945 35.604 4.38014 35.6214 4.3911 35.6473C4.40213 35.6734 4.40963 35.699 4.41389 35.7207C4.41807 35.7419 4.4175 35.7509 4.4175 35.7437H1.4175H-1.5825C-1.5825 37.3398 -0.96059 38.7584 0.141286 39.8598L2.26208 37.7379ZM1.4175 35.7437H4.4175V32.0179H1.4175H-1.5825V35.7437H1.4175ZM1.4175 32.0179H4.4175C4.4175 32.1659 4.39079 32.3705 4.29881 32.5963C4.20597 32.8243 4.07449 33.0055 3.94468 33.1346L1.82875 31.0079L-0.287177 28.8812C-1.14944 29.7391 -1.5825 30.8509 -1.5825 32.0179H1.4175ZM1.82875 31.0079L3.94468 33.1346C3.81466 33.264 3.63427 33.393 3.40949 33.4836C3.1871 33.5732 2.98708 33.5987 2.84417 33.5987V30.5987V27.5987C1.685 27.5987 0.574595 28.0238 -0.287177 28.8812L1.82875 31.0079ZM2.84417 30.5987V33.5987C2.70157 33.5987 2.49811 33.5733 2.27031 33.4809C2.0395 33.3872 1.85319 33.2528 1.71818 33.1162L3.8525 31.0079L5.98682 28.8997C5.12279 28.025 4.00383 27.5987 2.84417 27.5987V30.5987ZM3.8525 31.0079L1.71709 33.1151C1.58713 32.9834 1.45909 32.8023 1.36965 32.5786C1.28122 32.3574 1.25625 32.1591 1.25625 32.0179H4.25625H7.25625C7.25625 30.8683 6.83831 29.7626 5.98791 28.9008L3.8525 31.0079ZM4.25625 32.0179H1.25625V35.7437H4.25625H7.25625V32.0179H4.25625ZM4.25625 35.7437V38.7437H7.98208V35.7437V32.7437H4.25625V35.7437ZM7.98208 35.7437V38.7437C7.83411 38.7437 7.62954 38.717 7.40365 38.6251C7.17565 38.5322 6.99454 38.4007 6.86538 38.2709L8.99208 36.155L11.1188 34.0391C10.2609 33.1768 9.14907 32.7437 7.98208 32.7437V35.7437ZM8.99208 36.155L6.86538 38.2709C6.73603 38.1409 6.60695 37.9605 6.51637 37.7357C6.42676 37.5133 6.40125 37.3133 6.40125 37.1704H9.40125H12.4012C12.4012 36.0112 11.9762 34.9008 11.1188 34.0391L8.99208 36.155ZM9.40125 37.1704H6.40125C6.40125 37.0278 6.42667 36.8242 6.51927 36.5961C6.61311 36.3649 6.74782 36.1782 6.88494 36.0429L8.99208 38.1783L11.0992 40.3137C11.975 39.4496 12.4012 38.3301 12.4012 37.1704H9.40125ZM8.99208 38.1783L6.88384 36.044C7.01541 35.9141 7.19644 35.7858 7.42044 35.6962C7.64189 35.6076 7.84054 35.5825 7.98208 35.5825V38.5825V41.5825C9.13265 41.5825 10.2387 41.1637 11.1003 40.3127L8.99208 38.1783ZM7.98208 38.5825V35.5825H4.25625V38.5825V41.5825H7.98208V38.5825ZM35.7537 38.5825V35.5825H32.0279V38.5825V41.5825H35.7537V38.5825ZM32.0279 38.5825V35.5825C32.1759 35.5825 32.3805 35.6092 32.6063 35.7012C32.8343 35.794 33.0155 35.9255 33.1446 36.0553L31.0179 38.1712L28.8912 40.2872C29.7491 41.1494 30.8609 41.5825 32.0279 41.5825V38.5825ZM31.0179 38.1712L33.1446 36.0553C33.274 36.1853 33.403 36.3657 33.4936 36.5905C33.5832 36.8129 33.6087 37.0129 33.6087 37.1558H30.6087H27.6087C27.6087 38.315 28.0338 39.4254 28.8912 40.2872L31.0179 38.1712ZM30.6087 37.1558H33.6087C33.6087 37.2984 33.5833 37.5019 33.4909 37.7297C33.3972 37.9605 33.2628 38.1468 33.1262 38.2818L31.0179 36.1475L28.9097 34.0132C28.0349 34.8772 27.6087 35.9962 27.6087 37.1558H30.6087ZM31.0179 36.1475L33.1251 38.2829C32.9934 38.4129 32.8123 38.5409 32.5886 38.6304C32.3674 38.7188 32.1691 38.7437 32.0279 38.7437V35.7437V32.7437C30.8783 32.7437 29.7726 33.1617 28.9108 34.0121L31.0179 36.1475ZM32.0279 35.7437V38.7437H35.7537V35.7437V32.7437H32.0279V35.7437ZM35.7537 35.7437H38.7537V32.0179H35.7537H32.7537V35.7437H35.7537ZM35.7537 32.0179H38.7537C38.7537 32.1659 38.727 32.3705 38.6351 32.5963C38.5422 32.8243 38.4107 33.0055 38.2809 33.1346L36.165 31.0079L34.0491 28.8812C33.1868 29.7391 32.7537 30.8509 32.7537 32.0179H35.7537ZM36.165 31.0079L38.2809 33.1346C38.1509 33.264 37.9705 33.393 37.7457 33.4836C37.5233 33.5732 37.3233 33.5987 37.1804 33.5987V30.5987V27.5987C36.0212 27.5987 34.9108 28.0238 34.0491 28.8812L36.165 31.0079ZM37.1804 30.5987V33.5987C37.0378 33.5987 36.8342 33.5733 36.6061 33.4807C36.3749 33.3869 36.1882 33.2522 36.0529 33.1151L38.1883 31.0079L40.3237 28.9008C39.4596 28.025 38.3401 27.5987 37.1804 27.5987V30.5987ZM38.1883 31.0079L36.054 33.1162C35.9241 32.9846 35.7958 32.8036 35.7062 32.5796C35.6176 32.3581 35.5925 32.1595 35.5925 32.0179H38.5925H41.5925C41.5925 30.8673 41.1737 29.7613 40.3227 28.8997L38.1883 31.0079ZM38.5925 32.0179H35.5925V35.7437H38.5925H41.5925V32.0179H38.5925ZM38.5925 35.7437H35.5925C35.5925 35.7509 35.5919 35.7419 35.5961 35.7207C35.6004 35.699 35.6079 35.6734 35.6189 35.6473C35.6299 35.6214 35.6405 35.604 35.6459 35.5962C35.651 35.5889 35.6472 35.596 35.6271 35.6161L37.7479 37.7379L39.8687 39.8598C40.9706 38.7584 41.5925 37.3398 41.5925 35.7437H38.5925ZM37.7479 37.7379L35.6261 35.6171C35.606 35.6372 35.5989 35.641 35.6062 35.6359C35.614 35.6306 35.6314 35.6199 35.6573 35.6089C35.6834 35.5979 35.709 35.5904 35.7307 35.5861C35.7519 35.5819 35.7609 35.5825 35.7537 35.5825V38.5825V41.5825C37.3498 41.5825 38.7684 40.9606 39.8698 39.8587L37.7479 37.7379ZM19.9554 30.8342V27.8342C17.475 27.8342 15.2506 27.1902 13.2126 25.8991L11.6071 28.4333L10.0016 30.9676C13.0164 32.8775 16.3575 33.8342 19.9554 33.8342V30.8342ZM11.6071 28.4333L13.2125 25.899C11.1491 24.5919 9.47418 22.784 8.18956 20.4007L5.54875 21.8242L2.90794 23.2476C4.64776 26.4754 7.01177 29.0736 10.0017 30.9676L11.6071 28.4333ZM5.54875 21.8242L8.15074 20.331C8.14665 20.3238 8.14573 20.3211 8.14608 20.322C8.14644 20.323 8.14656 20.3236 8.14633 20.3226L5.2125 20.9492L2.27867 21.5758C2.41022 22.1917 2.63566 22.7753 2.94676 23.3174L5.54875 21.8242ZM5.2125 20.9492L8.14633 20.3226C8.12551 20.2251 8.11417 20.1221 8.11417 20.01H5.11417H2.11417C2.11417 20.5362 2.16838 21.0594 2.27867 21.5758L5.2125 20.9492ZM5.11417 20.01H8.11417C8.11417 19.9101 8.12506 19.8255 8.14272 19.7507L5.22292 19.0617L2.30312 18.3726C2.17577 18.9123 2.11417 19.4599 2.11417 20.01H5.11417ZM5.22292 19.0617L8.14286 19.7501C8.15962 19.679 8.18434 19.611 8.21986 19.5415L5.54875 18.1758L2.87763 16.8101C2.62372 17.3068 2.43122 17.8293 2.30298 18.3732L5.22292 19.0617ZM5.54875 18.1758L8.19538 19.5884C9.48267 17.1765 11.1568 15.3579 13.2117 14.0519L11.6025 11.52L9.99333 8.98808C7.00099 10.8899 4.63927 13.5085 2.90212 16.7633L5.54875 18.1758ZM11.6025 11.52L13.2117 14.0519C15.2458 12.7591 17.4679 12.1142 19.9483 12.1142V9.11417V6.11417C16.3482 6.11417 13.0064 7.07309 9.99333 8.98808L11.6025 11.52ZM19.9483 9.11417V12.1142C22.4302 12.1142 24.6676 12.7584 26.7275 14.0543L28.325 11.515L29.9225 8.9757C26.8941 7.0705 23.547 6.11417 19.9483 6.11417V9.11417ZM28.325 11.515L26.7275 14.0543C28.7996 15.3579 30.4791 17.1729 31.763 19.5784L34.4096 18.1658L37.0562 16.7533C35.3157 13.4921 32.9387 10.8732 29.9225 8.9757L28.325 11.515ZM34.4096 18.1658L31.7925 19.6323C31.8103 19.6642 31.8175 19.6862 31.8218 19.7057L34.7508 19.0571L37.6799 18.4085C37.5464 17.8057 37.3261 17.2336 37.0267 16.6993L34.4096 18.1658ZM34.7508 19.0571L31.8218 19.7057C31.8447 19.8092 31.8542 19.9027 31.8542 19.99H34.8542H37.8542C37.8542 19.4556 37.7947 18.9272 37.6799 18.4085L34.7508 19.0571ZM34.8542 19.99H31.8542C31.8542 20.067 31.8454 20.1565 31.8212 20.2626L34.7458 20.9308L37.6705 21.599C37.7907 21.073 37.8542 20.5353 37.8542 19.99H34.8542ZM34.7458 20.9308L31.8212 20.2626C31.8124 20.3013 31.7989 20.338 31.7758 20.3796L34.3996 21.8342L37.0234 23.2887C37.3175 22.7581 37.5349 22.1926 37.6705 21.599L34.7458 20.9308ZM34.3996 21.8342L31.7562 20.4156C30.4812 22.7914 28.8068 24.5944 26.7316 25.898L28.3275 28.4383L29.9234 30.9787C32.9332 29.0878 35.3068 26.488 37.043 23.2527L34.3996 21.8342ZM28.3275 28.4383L26.7316 25.898C24.6733 27.1911 22.4369 27.8342 19.9554 27.8342V30.8342V33.8342C23.5517 33.8342 26.8967 32.88 29.9234 30.9787L28.3275 28.4383ZM19.9521 28.0654V31.0654C23.1266 31.0654 26.0902 30.1617 28.7817 28.4046L27.1417 25.8925L25.5017 23.3805C23.7553 24.5206 21.9259 25.0654 19.9521 25.0654V28.0654ZM27.1417 25.8925L28.7814 28.4047C31.4823 26.6418 33.5413 24.2422 34.9425 21.2766L32.23 19.995L29.5175 18.7134C28.572 20.7145 27.2388 22.2466 25.5019 23.3803L27.1417 25.8925ZM32.23 19.995L34.9425 18.7134C33.5425 15.7505 31.4874 13.3475 28.7941 11.572L27.1429 14.0767L25.4917 16.5814C27.2345 17.7303 28.5708 19.2729 29.5175 21.2766L32.23 19.995ZM27.1429 14.0767L28.7941 11.572C26.1017 9.79705 23.1323 8.88333 19.9483 8.88333V11.8833V14.8833C21.9211 14.8833 23.748 15.4318 25.4917 16.5814L27.1429 14.0767ZM19.9483 11.8833V8.88333C16.7677 8.88333 13.8059 9.79812 11.1277 11.5782L12.7883 14.0767L14.4489 16.5751C16.1707 15.4308 17.9823 14.8833 19.9483 14.8833V11.8833ZM12.7883 14.0767L11.1277 11.5782C8.45431 13.3551 6.4128 15.7568 5.01586 18.7134L7.72833 19.995L10.4408 21.2766C11.3905 19.2665 12.7224 17.7227 14.4489 16.5751L12.7883 14.0767ZM7.72833 19.995L5.01586 21.2766C6.41403 24.2358 8.4594 26.6342 11.1404 28.3985L12.7896 25.8925L14.4388 23.3865C12.7181 22.2541 11.3893 20.7209 10.4408 18.7134L7.72833 19.995ZM12.7896 25.8925L11.1402 28.3984C13.8185 30.1613 16.7772 31.0654 19.9521 31.0654V28.0654V25.0654C17.9787 25.0654 16.1623 24.5209 14.439 23.3866L12.7896 25.8925ZM19.9992 25.52V28.52C22.3275 28.52 24.3998 27.6643 26.0552 26.0286L23.9467 23.8946L21.8381 21.7606C21.3002 22.2921 20.7409 22.52 19.9992 22.52V25.52ZM23.9467 23.8946L26.0552 26.0286C27.7127 24.3909 28.5917 22.3251 28.5917 19.9908H25.5917H22.5917C22.5917 20.6944 22.374 21.2311 21.8381 21.7606L23.9467 23.8946ZM25.5917 19.9908H28.5917C28.5917 17.659 27.7157 15.5939 26.0677 13.9509L23.9496 16.0754L21.8315 18.2C22.3729 18.7397 22.5917 19.2849 22.5917 19.9908H25.5917ZM23.9496 16.0754L26.0677 13.9509C24.4117 12.3 22.3316 11.4383 19.9929 11.4383V14.4383V17.4383C20.7403 17.4383 21.298 17.6681 21.8315 18.2L23.9496 16.0754ZM19.9929 14.4383V11.4383C17.6653 11.4383 15.5953 12.2982 13.9632 13.961L16.1042 16.0625L18.2452 18.164C18.7386 17.6613 19.261 17.4383 19.9929 17.4383V14.4383ZM16.1042 16.0625L13.9632 13.961C12.3405 15.6142 11.51 17.6842 11.51 19.9971H14.51H17.51C17.51 19.2294 17.7422 18.6763 18.2452 18.164L16.1042 16.0625ZM14.51 19.9971H11.51C11.51 22.316 12.3485 24.3886 13.9901 26.0331L16.1133 23.9137L18.2366 21.7944C17.7404 21.2972 17.51 20.7587 17.51 19.9971H14.51ZM16.1133 23.9137L13.9904 26.0334C15.6257 27.6713 17.6862 28.52 19.9992 28.52V25.52V22.52C19.2694 22.52 18.7393 22.2979 18.2363 21.7941L16.1133 23.9137ZM19.9929 22.8304V19.8304C19.9706 19.8304 19.9679 19.8285 19.9808 19.831C19.9942 19.8335 20.0164 19.8392 20.0433 19.8503C20.0702 19.8614 20.0927 19.8741 20.1087 19.885C20.1242 19.8955 20.1269 19.8997 20.1179 19.8907L17.9896 22.005L15.8613 24.1193C16.9818 25.2473 18.4203 25.8304 19.9929 25.8304V22.8304ZM17.9896 22.005L20.1184 19.8912C20.108 19.8808 20.1109 19.8818 20.1201 19.8955C20.1296 19.9097 20.1412 19.9302 20.1514 19.9553C20.1617 19.9803 20.1669 20.001 20.1692 20.0133C20.1715 20.0251 20.1696 20.0218 20.1696 19.9996H17.1696H14.1696C14.1696 21.5659 14.7476 22.9977 15.8608 24.1188L17.9896 22.005ZM17.1696 19.9996H20.1696C20.1696 19.9771 20.1715 19.9722 20.1698 19.9813C20.168 19.9908 20.1638 20.0075 20.1556 20.0277C20.1474 20.048 20.1387 20.0633 20.133 20.0719C20.1275 20.0802 20.1289 20.0761 20.1438 20.0608L17.9887 17.9737L15.8337 15.8867C14.7444 17.0115 14.1696 18.4358 14.1696 19.9996H17.1696ZM17.9887 17.9737L20.1438 20.0608C20.1539 20.0503 20.1518 20.0544 20.1357 20.0656C20.1192 20.0771 20.0952 20.0911 20.0656 20.1036C20.036 20.116 20.0104 20.123 19.9931 20.1263C19.9764 20.1295 19.9753 20.1279 19.9942 20.1279V17.1279V14.1279C18.3979 14.1279 16.9497 14.7344 15.8337 15.8867L17.9887 17.9737ZM19.9942 17.1279V20.1279C20.0146 20.1279 20.0167 20.1297 20.0044 20.1273C19.9916 20.1249 19.9715 20.1196 19.948 20.1099C19.9246 20.1002 19.9067 20.0898 19.8961 20.0826C19.8859 20.0757 19.8888 20.0761 19.9036 20.0908L22.0213 17.9658L24.1389 15.8408C23.0164 14.7223 21.5794 14.1279 19.9942 14.1279V17.1279ZM22.0213 17.9658L19.9041 20.0914C19.9174 20.1045 19.9166 20.106 19.9087 20.0944C19.9006 20.0825 19.8897 20.0636 19.8798 20.0397C19.87 20.0159 19.8649 19.9961 19.8626 19.9844C19.8605 19.9734 19.8625 19.9773 19.8625 20.0004H22.8625H25.8625C25.8625 18.412 25.2693 16.9668 24.1384 15.8403L22.0213 17.9658ZM22.8625 20.0004H19.8625C19.8625 20.0191 19.8609 20.0187 19.8639 20.0032C19.8669 19.9872 19.8733 19.9634 19.8848 19.9359C19.8963 19.9083 19.909 19.8864 19.919 19.8719C19.9287 19.8578 19.9313 19.8572 19.9196 19.8687L22.0254 22.0054L24.1313 24.1421C25.264 23.0258 25.8625 21.5867 25.8625 20.0004H22.8625ZM22.0254 22.0054L19.9196 19.8687C19.9077 19.8804 19.907 19.8791 19.9186 19.8714C19.9305 19.8634 19.9484 19.8534 19.9704 19.8444C19.9924 19.8355 20.0096 19.8313 20.0182 19.8297C20.0262 19.8282 20.0191 19.8304 19.9929 19.8304V22.8304V25.8304C21.5629 25.8304 23.0012 25.2558 24.1313 24.1421L22.0254 22.0054ZM38.5925 4.24625H35.5925V7.97208H38.5925H41.5925V4.24625H38.5925ZM38.5925 7.97208H35.5925C35.5925 7.82411 35.6192 7.61954 35.7112 7.39366C35.804 7.16565 35.9355 6.98454 36.0653 6.85538L38.1812 8.98208L40.2972 11.1088C41.1594 10.2509 41.5925 9.13907 41.5925 7.97208H38.5925ZM38.1812 8.98208L36.0653 6.85538C36.1953 6.72603 36.3757 6.59695 36.6005 6.50637C36.8229 6.41676 37.0229 6.39125 37.1658 6.39125V9.39125V12.3913C38.325 12.3913 39.4354 11.9662 40.2972 11.1088L38.1812 8.98208ZM37.1658 9.39125V6.39125C37.3084 6.39125 37.5119 6.41667 37.7397 6.50911C37.9705 6.60277 38.1568 6.73716 38.2918 6.87384L36.1575 8.98208L34.0232 11.0903C34.8872 11.965 36.0062 12.3913 37.1658 12.3913V9.39125ZM36.1575 8.98208L38.2929 6.87494C38.4229 7.00664 38.5509 7.18766 38.6404 7.41142C38.7288 7.63261 38.7537 7.83091 38.7537 7.97208H35.7537H32.7537C32.7537 9.1217 33.1717 10.2274 34.0221 11.0892L36.1575 8.98208ZM35.7537 7.97208H38.7537V4.24625H35.7537H32.7537V7.97208H35.7537ZM35.7537 4.24625V1.24625H32.0279V4.24625V7.24625H35.7537V4.24625ZM32.0279 4.24625V1.24625C32.1759 1.24625 32.3805 1.27296 32.6063 1.36494C32.8343 1.45777 33.0155 1.58926 33.1446 1.71907L31.0179 3.835L28.8912 5.95093C29.7491 6.81319 30.8609 7.24625 32.0279 7.24625V4.24625ZM31.0179 3.835L33.1446 1.71907C33.274 1.84909 33.403 2.02947 33.4936 2.25426C33.5832 2.47665 33.6087 2.67667 33.6087 2.81958H30.6087H27.6087C27.6087 3.97875 28.0338 5.08915 28.8912 5.95093L31.0179 3.835ZM30.6087 2.81958H33.6087C33.6087 2.96216 33.5833 3.16583 33.4907 3.39394C33.3969 3.6251 33.2622 3.81177 33.1251 3.94707L31.0179 1.81167L28.9108 -0.323742C28.035 0.540423 27.6087 1.65989 27.6087 2.81958H30.6087ZM31.0179 1.81167L33.1262 3.94599C32.9946 4.07594 32.8136 4.20418 32.5896 4.29382C32.3681 4.38243 32.1695 4.4075 32.0279 4.4075V1.4075V-1.5925C30.8773 -1.5925 29.7713 -1.17374 28.9097 -0.322655L31.0179 1.81167ZM32.0279 1.4075V4.4075H35.7537V1.4075V-1.5925H32.0279V1.4075ZM35.7537 1.4075V4.4075C35.7609 4.4075 35.7519 4.40807 35.7307 4.40389C35.709 4.39963 35.6834 4.39213 35.6573 4.3811C35.6314 4.37014 35.614 4.35945 35.6062 4.35407C35.5989 4.34904 35.606 4.35284 35.6261 4.37288L37.7479 2.25208L39.8698 0.131286C38.7684 -0.970592 37.3498 -1.5925 35.7537 -1.5925V1.4075ZM37.7479 2.25208L35.6271 4.37393C35.6472 4.39395 35.651 4.4011 35.6459 4.39379C35.6405 4.38597 35.6299 4.36857 35.6189 4.34268C35.6079 4.31663 35.6004 4.29098 35.5961 4.26931C35.5919 4.24809 35.5925 4.23906 35.5925 4.24625H38.5925H41.5925C41.5925 2.65023 40.9706 1.23157 39.8687 0.130239L37.7479 2.25208ZM4.25625 1.4075V4.4075H7.98208V1.4075V-1.5925H4.25625V1.4075ZM7.98208 1.4075V4.4075C7.83411 4.4075 7.62954 4.38079 7.40365 4.28881C7.17565 4.19598 6.99454 4.06449 6.86538 3.93468L8.99208 1.81875L11.1188 -0.297176C10.2609 -1.15944 9.14907 -1.5925 7.98208 -1.5925V1.4075ZM8.99208 1.81875L6.86538 3.93468C6.73603 3.80466 6.60695 3.62428 6.51637 3.39949C6.42676 3.1771 6.40125 2.97708 6.40125 2.83417H9.40125H12.4012C12.4012 1.675 11.9762 0.564595 11.1188 -0.297176L8.99208 1.81875ZM9.40125 2.83417H6.40125C6.40125 2.69157 6.42667 2.48811 6.51911 2.26031C6.61277 2.0295 6.74716 1.84319 6.88384 1.70818L8.99208 3.8425L11.1003 5.97682C11.975 5.11279 12.4012 3.99384 12.4012 2.83417H9.40125ZM8.99208 3.8425L6.88494 1.70709C7.01664 1.57713 7.19766 1.44909 7.42142 1.35964C7.64261 1.27122 7.84091 1.24625 7.98208 1.24625V4.24625V7.24625C9.1317 7.24625 10.2374 6.82831 11.0992 5.97791L8.99208 3.8425ZM7.98208 4.24625V1.24625H4.25625V4.24625V7.24625H7.98208V4.24625ZM4.25625 4.24625H1.25625V7.97208H4.25625H7.25625V4.24625H4.25625ZM4.25625 7.97208H1.25625C1.25625 7.8241 1.28296 7.61954 1.37494 7.39365C1.46778 7.16565 1.59926 6.98454 1.72907 6.85538L3.845 8.98208L5.96093 11.1088C6.82319 10.2509 7.25625 9.13908 7.25625 7.97208H4.25625ZM3.845 8.98208L1.72907 6.85538C1.85909 6.72603 2.03947 6.59695 2.26426 6.50637C2.48665 6.41676 2.68667 6.39125 2.82958 6.39125V9.39125V12.3913C3.98875 12.3913 5.09915 11.9662 5.96093 11.1088L3.845 8.98208ZM2.82958 9.39125V6.39125C2.97216 6.39125 3.17583 6.41667 3.40394 6.50927C3.63511 6.60311 3.82177 6.73782 3.95707 6.87494L1.82167 8.98208L-0.313741 11.0892C0.550424 11.965 1.66989 12.3913 2.82958 12.3913V9.39125ZM1.82167 8.98208L3.95599 6.87384C4.08594 7.00541 4.21418 7.18643 4.30381 7.41043C4.39243 7.63189 4.4175 7.83054 4.4175 7.97208H1.4175H-1.5825C-1.5825 9.12266 -1.16373 10.2287 -0.312654 11.0903L1.82167 8.98208ZM1.4175 7.97208H4.4175V4.24625H1.4175H-1.5825V7.97208H1.4175ZM1.4175 4.24625H4.4175C4.4175 4.23907 4.41807 4.24809 4.41389 4.26932C4.40963 4.29099 4.40213 4.31664 4.3911 4.34268C4.38014 4.36857 4.36945 4.38597 4.36407 4.39379C4.35904 4.40111 4.36284 4.39395 4.38288 4.37393L2.26208 2.25208L0.141286 0.130239C-0.960588 1.23157 -1.5825 2.65022 -1.5825 4.24625H1.4175ZM2.26208 2.25208L4.38393 4.37288C4.40395 4.35284 4.4111 4.34904 4.40379 4.35407C4.39597 4.35945 4.37857 4.37014 4.35268 4.3811C4.32663 4.39213 4.30099 4.39963 4.27931 4.40389C4.25809 4.40807 4.24907 4.4075 4.25625 4.4075V1.4075V-1.5925C2.66023 -1.5925 1.24157 -0.970592 0.140239 0.131286L2.26208 2.25208Z" fill="var(--stroke-0, #2DA2DB)" mask="url(#path-1-inside-1_0_71)"/>
</g>
</g>
</svg>
