<svg preserveAspectRatio="none" width="100%" height="100%" overflow="visible" style="display: block;" viewBox="0 0 24 24" fill="none" xmlns="http://www.w3.org/2000/svg">
<g id="road">
<path id="Vector" d="M12 17V21M12 5V3M12 9V12M2.07691 18.449C1.99158 18.7467 1.97657 19.0602 2.03306 19.3648C2.08955 19.6693 2.216 19.9566 2.40245 20.2039C2.58889 20.4512 2.83023 20.6519 3.10745 20.79C3.38466 20.9282 3.69018 21.0001 3.99991 21H19.9999C20.3096 21.0002 20.6151 20.9284 20.8924 20.7904C21.1696 20.6524 21.411 20.4518 21.5976 20.2046C21.7841 19.9574 21.9107 19.6702 21.9673 19.3657C22.0239 19.0612 22.0091 18.7478 21.9239 18.45L17.9239 4.45C17.8044 4.03205 17.5519 3.66443 17.2047 3.40279C16.8576 3.14116 16.4346 2.99976 15.9999 3H7.99991C7.5652 2.99976 7.14224 3.14116 6.79508 3.40279C6.44792 3.66443 6.19546 4.03205 6.07591 4.45L2.07691 18.449Z" stroke="var(--stroke-0, #1E729C)" stroke-width="2" stroke-linecap="round" stroke-linejoin="round"/>
</g>
</svg>
