<svg preserveAspectRatio="none" width="100%" height="100%" overflow="visible" style="display: block;" viewBox="0 0 24 24" fill="none" xmlns="http://www.w3.org/2000/svg">
<g id="ship">
<path id="Vector" d="M12 10.189V14M12 10.189C12.2797 10.189 12.5563 10.2476 12.812 10.3612L21 14.0002C21.0157 16.1103 20.4556 18.1848 19.3799 20.0002M12 10.189C11.7203 10.189 11.4436 10.2476 11.188 10.3612L2.99995 14.0002C2.95366 16.8439 3.95367 19.6055 5.80995 21.7602M12 2V5M19 13V7C19 6.46957 18.7893 5.96086 18.4142 5.58579C18.0391 5.21071 17.5304 5 17 5H7C6.46957 5 5.96086 5.21071 5.58579 5.58579C5.21071 5.96086 5 6.46957 5 7V13M2 21C2.6 21.5 3.2 22 4.5 22C7 22 7 20 9.5 20C10.8 20 11.4 20.5 12 21C12.6 21.5 13.2 22 14.5 22C17 22 17 20 19.5 20C20.8 20 21.4 20.5 22 21" stroke="var(--stroke-0, #1E729C)" stroke-width="2" stroke-linecap="round" stroke-linejoin="round"/>
</g>
</svg>
