<svg preserveAspectRatio="none" width="100%" height="100%" overflow="visible" style="display: block;" viewBox="0 0 40 40" fill="none" xmlns="http://www.w3.org/2000/svg">
<g id="shapes">
<g id="Vector">
<path d="M13.8332 16.6663C13.6183 16.6781 13.4044 16.6301 13.2151 16.5279C13.0258 16.4256 12.8685 16.273 12.7605 16.0869C12.6525 15.9008 12.5981 15.6884 12.6033 15.4733C12.6085 15.2582 12.673 15.0487 12.7899 14.868L18.9999 4.99968C19.0974 4.82396 19.2388 4.67643 19.4101 4.57139C19.5815 4.46636 19.7771 4.40737 19.978 4.40016C20.1788 4.39296 20.3781 4.43776 20.5566 4.53024C20.7351 4.62272 20.8866 4.75974 20.9965 4.92801L27.1665 14.833C27.2881 15.0077 27.3597 15.2123 27.3734 15.4246C27.387 15.637 27.3424 15.8491 27.2442 16.0379C27.146 16.2268 26.998 16.3851 26.8163 16.4959C26.6346 16.6067 26.426 16.6656 26.2132 16.6663H13.8332Z" stroke="var(--stroke-0, #2DA2DB)" stroke-width="3" stroke-linecap="round" stroke-linejoin="round"/>
<path d="M15 23.3333H6.66667C5.74619 23.3333 5 24.0795 5 25V33.3333C5 34.2538 5.74619 35 6.66667 35H15C15.9205 35 16.6667 34.2538 16.6667 33.3333V25C16.6667 24.0795 15.9205 23.3333 15 23.3333Z" stroke="var(--stroke-0, #2DA2DB)" stroke-width="3" stroke-linecap="round" stroke-linejoin="round"/>
<path d="M29.1667 35C32.3883 35 35 32.3883 35 29.1667C35 25.945 32.3883 23.3333 29.1667 23.3333C25.945 23.3333 23.3333 25.945 23.3333 29.1667C23.3333 32.3883 25.945 35 29.1667 35Z" stroke="var(--stroke-0, #2DA2DB)" stroke-width="3" stroke-linecap="round" stroke-linejoin="round"/>
</g>
</g>
</svg>
