<svg preserveAspectRatio="none" width="100%" height="100%" overflow="visible" style="display: block;" viewBox="0 0 40 40" fill="none" xmlns="http://www.w3.org/2000/svg">
<g id="wind">
<path id="Vector" d="M21.3333 32.6667C21.7559 32.9836 22.2477 33.1955 22.7682 33.2851C23.2887 33.3746 23.8231 33.3392 24.3272 33.1817C24.8314 33.0242 25.2909 32.7492 25.6679 32.3793C26.0449 32.0094 26.3286 31.5552 26.4956 31.0541C26.6626 30.553 26.7082 30.0194 26.6285 29.4973C26.5489 28.9752 26.3463 28.4794 26.0375 28.051C25.7286 27.6225 25.3224 27.2735 24.8523 27.0329C24.3821 26.7922 23.8615 26.6667 23.3333 26.6667H3.33333M29.1667 13.3333C29.5928 12.7651 30.1571 12.3153 30.806 12.0266C31.4549 11.7378 32.1668 11.6197 32.8742 11.6835C33.5816 11.7473 34.2609 11.9908 34.8476 12.391C35.4344 12.7912 35.9092 13.3347 36.2268 13.9699C36.5444 14.6052 36.6944 15.3111 36.6625 16.0206C36.6305 16.7301 36.4178 17.4197 36.0444 18.0239C35.671 18.628 35.1494 19.1267 34.529 19.4726C33.9087 19.8185 33.2102 20 32.5 20H3.33333M16.3333 7.33333C16.7559 7.01643 17.2477 6.80447 17.7682 6.71492C18.2887 6.62538 18.8231 6.6608 19.3272 6.81829C19.8314 6.97577 20.2909 7.2508 20.6679 7.62072C21.0449 7.99063 21.3286 8.44484 21.4956 8.94591C21.6626 9.44698 21.7082 9.98056 21.6285 10.5027C21.5489 11.0248 21.3463 11.5206 21.0375 11.949C20.7286 12.3775 20.3224 12.7265 19.8523 12.9671C19.3821 13.2078 18.8615 13.3333 18.3333 13.3333H3.33333" stroke="var(--stroke-0, #2DA2DB)" stroke-width="3" stroke-linecap="round" stroke-linejoin="round"/>
</g>
</svg>
