<svg preserveAspectRatio="none" width="100%" height="100%" overflow="visible" style="display: block;" viewBox="0 0 24 24" fill="none" xmlns="http://www.w3.org/2000/svg">
<g id="water_lux">
<g id="Vector">
<mask id="path-1-inside-1_0_43" fill="white">
<path d="M8.55825 21.1223C7.79625 21.1223 7.19875 20.8952 6.76575 20.4412C6.33275 19.9872 5.79758 19.7602 5.16025 19.7602C4.90625 19.7602 4.66358 19.8092 4.43225 19.9072C4.20092 20.0052 3.74958 20.2587 3.07825 20.6675C2.81708 20.8207 2.55383 20.8248 2.2885 20.68C2.02333 20.535 1.89075 20.3049 1.89075 19.9897C1.89075 19.8404 1.92808 19.7129 2.00275 19.6072C2.07742 19.5017 2.17067 19.4097 2.2825 19.331C3.2185 18.765 3.84267 18.4102 4.155 18.2665C4.46717 18.1228 4.80225 18.051 5.16025 18.051C5.92625 18.051 6.51858 18.278 6.93725 18.732C7.35592 19.186 7.89425 19.413 8.55225 19.413C9.21408 19.413 9.76267 19.186 10.198 18.732C10.6333 18.278 11.234 18.051 12 18.051C12.766 18.051 13.3635 18.278 13.7925 18.732C14.2213 19.186 14.7647 19.413 15.4227 19.413C16.0847 19.413 16.6292 19.186 17.0562 18.732C17.4832 18.278 18.0798 18.051 18.8458 18.051C19.2036 18.051 19.5418 18.1228 19.8605 18.2665C20.1792 18.4102 20.8045 18.765 21.7365 19.331C21.8483 19.4097 21.9384 19.5017 22.0068 19.6072C22.0751 19.7129 22.1092 19.8404 22.1092 19.9897C22.1092 20.3049 21.9767 20.535 21.7115 20.68C21.4462 20.8248 21.1829 20.8207 20.9217 20.6675C20.2504 20.2587 19.7991 20.0052 19.5678 19.9072C19.3364 19.8092 19.0958 19.7602 18.8458 19.7602C18.2004 19.7602 17.6601 19.9872 17.2247 20.4412C16.7894 20.8952 16.1887 21.1223 15.4227 21.1223C14.6609 21.1223 14.0613 20.8952 13.624 20.4412C13.1867 19.9872 12.6453 19.7602 12 19.7602C11.3627 19.7602 10.8212 19.9872 10.3755 20.4412C9.92983 20.8952 9.32408 21.1223 8.55825 21.1223ZM5.988 3.493C5.988 3.7375 5.90725 3.94058 5.74575 4.10225C5.58408 4.26375 5.381 4.3445 5.1365 4.3445H3.6365C3.38783 4.3445 3.18275 4.26375 3.02125 4.10225C2.85958 3.94058 2.77875 3.7375 2.77875 3.493C2.77875 3.24833 2.85958 3.04525 3.02125 2.88375C3.18275 2.72208 3.38783 2.64125 3.6365 2.64125H5.1365C5.381 2.64125 5.58408 2.72208 5.74575 2.88375C5.90725 3.04525 5.988 3.24833 5.988 3.493ZM7.5445 7.237C7.7145 7.40683 7.7995 7.60992 7.7995 7.84625C7.7995 8.08242 7.7145 8.2855 7.5445 8.4555L6.4945 9.5055C6.32067 9.67933 6.12075 9.76625 5.89475 9.76625C5.66892 9.76625 5.471 9.68133 5.301 9.5115C5.12717 9.3415 5.04025 9.13842 5.04025 8.90225C5.04025 8.66592 5.12517 8.46083 5.295 8.287L6.351 7.237C6.521 7.067 6.71892 6.982 6.94475 6.982C7.17075 6.982 7.37067 7.067 7.5445 7.237ZM12 7.15325C10.9818 7.15325 10.0776 6.83883 9.28725 6.21C8.49692 5.58117 7.96475 4.774 7.69075 3.7885C7.61692 3.552 7.629 3.32608 7.727 3.11075C7.825 2.89558 7.98192 2.75108 8.19775 2.67725C8.41775 2.60325 8.63633 2.61842 8.8535 2.72275C9.07067 2.82708 9.21425 2.98925 9.28425 3.20925C9.44692 3.84942 9.776 4.38292 10.2715 4.80975C10.767 5.23658 11.3432 5.45 12 5.45C12.6568 5.45 13.231 5.23658 13.7225 4.80975C14.214 4.38292 14.5431 3.84942 14.7098 3.20925C14.7838 2.98525 14.9283 2.82008 15.1435 2.71375C15.3587 2.60742 15.5783 2.59125 15.8023 2.66525C16.0221 2.74308 16.181 2.89067 16.279 3.108C16.377 3.32517 16.3891 3.552 16.3152 3.7885C16.0372 4.774 15.5031 5.58117 14.7128 6.21C13.9224 6.83883 13.0182 7.15325 12 7.15325ZM12 8.67725C12.2445 8.67725 12.4476 8.758 12.6092 8.9195C12.7709 9.08117 12.8518 9.28425 12.8518 9.52875V11.0288C12.8518 11.2734 12.7709 11.4765 12.6092 11.638C12.4476 11.7997 12.2445 11.8805 12 11.8805C11.7555 11.8805 11.5524 11.7997 11.3907 11.638C11.2291 11.4765 11.1482 11.2734 11.1482 11.0288V9.52875C11.1482 9.28425 11.2291 9.08117 11.3907 8.9195C11.5524 8.758 11.7555 8.67725 12 8.67725ZM16.4365 7.206C16.6063 7.036 16.8043 6.95517 17.0303 6.9635C17.2561 6.97183 17.456 7.05267 17.63 7.206L18.705 8.256C18.8748 8.42583 18.9639 8.62575 18.9723 8.85575C18.9806 9.08558 18.8998 9.2855 18.73 9.4555C18.56 9.62533 18.3559 9.71025 18.1178 9.71025C17.8794 9.71025 17.6753 9.62533 17.5055 9.4555L16.4305 8.3995C16.2605 8.2295 16.1765 8.03058 16.1785 7.80275C16.1805 7.57475 16.2665 7.37583 16.4365 7.206ZM21.2212 3.493C21.2212 3.7375 21.1404 3.94058 20.9788 4.10225C20.8173 4.26375 20.6142 4.3445 20.3695 4.3445H18.8695C18.621 4.3445 18.4159 4.26375 18.2542 4.10225C18.0927 3.94058 18.012 3.7375 18.012 3.493C18.012 3.24833 18.0927 3.04525 18.2542 2.88375C18.4159 2.72208 18.621 2.64125 18.8695 2.64125H20.3695C20.6142 2.64125 20.8173 2.72208 20.9788 2.88375C21.1404 3.04525 21.2212 3.24833 21.2212 3.493ZM8.55825 17.1223C7.79625 17.1223 7.19875 16.8952 6.76575 16.4412C6.33275 15.9872 5.79758 15.7602 5.16025 15.7602C4.90625 15.7602 4.66358 15.8092 4.43225 15.9072C4.20092 16.0052 3.74958 16.2587 3.07825 16.6675C2.81708 16.8207 2.55383 16.8248 2.2885 16.68C2.02333 16.535 1.89075 16.3049 1.89075 15.9897C1.89075 15.8404 1.92808 15.7129 2.00275 15.6072C2.07742 15.5017 2.17067 15.4097 2.2825 15.331C3.2185 14.765 3.84267 14.4102 4.155 14.2665C4.46717 14.1228 4.80225 14.051 5.16025 14.051C5.92625 14.051 6.51858 14.278 6.93725 14.732C7.35592 15.186 7.89425 15.413 8.55225 15.413C9.21408 15.413 9.76267 15.186 10.198 14.732C10.6333 14.278 11.234 14.051 12 14.051C12.766 14.051 13.3635 14.278 13.7925 14.732C14.2213 15.186 14.7647 15.413 15.4227 15.413C16.0847 15.413 16.6292 15.186 17.0562 14.732C17.4832 14.278 18.0798 14.051 18.8458 14.051C19.2036 14.051 19.5418 14.1228 19.8605 14.2665C20.1792 14.4102 20.8045 14.765 21.7365 15.331C21.8483 15.4097 21.9384 15.5017 22.0068 15.6072C22.0751 15.7129 22.1092 15.8404 22.1092 15.9897C22.1092 16.3049 21.9767 16.535 21.7115 16.68C21.4462 16.8248 21.1829 16.8207 20.9217 16.6675C20.2504 16.2587 19.7991 16.0052 19.5678 15.9072C19.3364 15.8092 19.0958 15.7602 18.8458 15.7602C18.2004 15.7602 17.6601 15.9872 17.2247 16.4412C16.7894 16.8952 16.1887 17.1223 15.4227 17.1223C14.6609 17.1223 14.0613 16.8952 13.624 16.4412C13.1867 15.9872 12.6453 15.7602 12 15.7602C11.3627 15.7602 10.8212 15.9872 10.3755 16.4412C9.92983 16.8952 9.32408 17.1223 8.55825 17.1223Z"/>
</mask>
<path d="M8.55825 21.1223C7.79625 21.1223 7.19875 20.8952 6.76575 20.4412C6.33275 19.9872 5.79758 19.7602 5.16025 19.7602C4.90625 19.7602 4.66358 19.8092 4.43225 19.9072C4.20092 20.0052 3.74958 20.2587 3.07825 20.6675C2.81708 20.8207 2.55383 20.8248 2.2885 20.68C2.02333 20.535 1.89075 20.3049 1.89075 19.9897C1.89075 19.8404 1.92808 19.7129 2.00275 19.6072C2.07742 19.5017 2.17067 19.4097 2.2825 19.331C3.2185 18.765 3.84267 18.4102 4.155 18.2665C4.46717 18.1228 4.80225 18.051 5.16025 18.051C5.92625 18.051 6.51858 18.278 6.93725 18.732C7.35592 19.186 7.89425 19.413 8.55225 19.413C9.21408 19.413 9.76267 19.186 10.198 18.732C10.6333 18.278 11.234 18.051 12 18.051C12.766 18.051 13.3635 18.278 13.7925 18.732C14.2213 19.186 14.7647 19.413 15.4227 19.413C16.0847 19.413 16.6292 19.186 17.0562 18.732C17.4832 18.278 18.0798 18.051 18.8458 18.051C19.2036 18.051 19.5418 18.1228 19.8605 18.2665C20.1792 18.4102 20.8045 18.765 21.7365 19.331C21.8483 19.4097 21.9384 19.5017 22.0068 19.6072C22.0751 19.7129 22.1092 19.8404 22.1092 19.9897C22.1092 20.3049 21.9767 20.535 21.7115 20.68C21.4462 20.8248 21.1829 20.8207 20.9217 20.6675C20.2504 20.2587 19.7991 20.0052 19.5678 19.9072C19.3364 19.8092 19.0958 19.7602 18.8458 19.7602C18.2004 19.7602 17.6601 19.9872 17.2247 20.4412C16.7894 20.8952 16.1887 21.1223 15.4227 21.1223C14.6609 21.1223 14.0613 20.8952 13.624 20.4412C13.1867 19.9872 12.6453 19.7602 12 19.7602C11.3627 19.7602 10.8212 19.9872 10.3755 20.4412C9.92983 20.8952 9.32408 21.1223 8.55825 21.1223ZM5.988 3.493C5.988 3.7375 5.90725 3.94058 5.74575 4.10225C5.58408 4.26375 5.381 4.3445 5.1365 4.3445H3.6365C3.38783 4.3445 3.18275 4.26375 3.02125 4.10225C2.85958 3.94058 2.77875 3.7375 2.77875 3.493C2.77875 3.24833 2.85958 3.04525 3.02125 2.88375C3.18275 2.72208 3.38783 2.64125 3.6365 2.64125H5.1365C5.381 2.64125 5.58408 2.72208 5.74575 2.88375C5.90725 3.04525 5.988 3.24833 5.988 3.493ZM7.5445 7.237C7.7145 7.40683 7.7995 7.60992 7.7995 7.84625C7.7995 8.08242 7.7145 8.2855 7.5445 8.4555L6.4945 9.5055C6.32067 9.67933 6.12075 9.76625 5.89475 9.76625C5.66892 9.76625 5.471 9.68133 5.301 9.5115C5.12717 9.3415 5.04025 9.13842 5.04025 8.90225C5.04025 8.66592 5.12517 8.46083 5.295 8.287L6.351 7.237C6.521 7.067 6.71892 6.982 6.94475 6.982C7.17075 6.982 7.37067 7.067 7.5445 7.237ZM12 7.15325C10.9818 7.15325 10.0776 6.83883 9.28725 6.21C8.49692 5.58117 7.96475 4.774 7.69075 3.7885C7.61692 3.552 7.629 3.32608 7.727 3.11075C7.825 2.89558 7.98192 2.75108 8.19775 2.67725C8.41775 2.60325 8.63633 2.61842 8.8535 2.72275C9.07067 2.82708 9.21425 2.98925 9.28425 3.20925C9.44692 3.84942 9.776 4.38292 10.2715 4.80975C10.767 5.23658 11.3432 5.45 12 5.45C12.6568 5.45 13.231 5.23658 13.7225 4.80975C14.214 4.38292 14.5431 3.84942 14.7098 3.20925C14.7838 2.98525 14.9283 2.82008 15.1435 2.71375C15.3587 2.60742 15.5783 2.59125 15.8023 2.66525C16.0221 2.74308 16.181 2.89067 16.279 3.108C16.377 3.32517 16.3891 3.552 16.3152 3.7885C16.0372 4.774 15.5031 5.58117 14.7128 6.21C13.9224 6.83883 13.0182 7.15325 12 7.15325ZM12 8.67725C12.2445 8.67725 12.4476 8.758 12.6092 8.9195C12.7709 9.08117 12.8518 9.28425 12.8518 9.52875V11.0288C12.8518 11.2734 12.7709 11.4765 12.6092 11.638C12.4476 11.7997 12.2445 11.8805 12 11.8805C11.7555 11.8805 11.5524 11.7997 11.3907 11.638C11.2291 11.4765 11.1482 11.2734 11.1482 11.0288V9.52875C11.1482 9.28425 11.2291 9.08117 11.3907 8.9195C11.5524 8.758 11.7555 8.67725 12 8.67725ZM16.4365 7.206C16.6063 7.036 16.8043 6.95517 17.0303 6.9635C17.2561 6.97183 17.456 7.05267 17.63 7.206L18.705 8.256C18.8748 8.42583 18.9639 8.62575 18.9723 8.85575C18.9806 9.08558 18.8998 9.2855 18.73 9.4555C18.56 9.62533 18.3559 9.71025 18.1178 9.71025C17.8794 9.71025 17.6753 9.62533 17.5055 9.4555L16.4305 8.3995C16.2605 8.2295 16.1765 8.03058 16.1785 7.80275C16.1805 7.57475 16.2665 7.37583 16.4365 7.206ZM21.2212 3.493C21.2212 3.7375 21.1404 3.94058 20.9788 4.10225C20.8173 4.26375 20.6142 4.3445 20.3695 4.3445H18.8695C18.621 4.3445 18.4159 4.26375 18.2542 4.10225C18.0927 3.94058 18.012 3.7375 18.012 3.493C18.012 3.24833 18.0927 3.04525 18.2542 2.88375C18.4159 2.72208 18.621 2.64125 18.8695 2.64125H20.3695C20.6142 2.64125 20.8173 2.72208 20.9788 2.88375C21.1404 3.04525 21.2212 3.24833 21.2212 3.493ZM8.55825 17.1223C7.79625 17.1223 7.19875 16.8952 6.76575 16.4412C6.33275 15.9872 5.79758 15.7602 5.16025 15.7602C4.90625 15.7602 4.66358 15.8092 4.43225 15.9072C4.20092 16.0052 3.74958 16.2587 3.07825 16.6675C2.81708 16.8207 2.55383 16.8248 2.2885 16.68C2.02333 16.535 1.89075 16.3049 1.89075 15.9897C1.89075 15.8404 1.92808 15.7129 2.00275 15.6072C2.07742 15.5017 2.17067 15.4097 2.2825 15.331C3.2185 14.765 3.84267 14.4102 4.155 14.2665C4.46717 14.1228 4.80225 14.051 5.16025 14.051C5.92625 14.051 6.51858 14.278 6.93725 14.732C7.35592 15.186 7.89425 15.413 8.55225 15.413C9.21408 15.413 9.76267 15.186 10.198 14.732C10.6333 14.278 11.234 14.051 12 14.051C12.766 14.051 13.3635 14.278 13.7925 14.732C14.2213 15.186 14.7647 15.413 15.4227 15.413C16.0847 15.413 16.6292 15.186 17.0562 14.732C17.4832 14.278 18.0798 14.051 18.8458 14.051C19.2036 14.051 19.5418 14.1228 19.8605 14.2665C20.1792 14.4102 20.8045 14.765 21.7365 15.331C21.8483 15.4097 21.9384 15.5017 22.0068 15.6072C22.0751 15.7129 22.1092 15.8404 22.1092 15.9897C22.1092 16.3049 21.9767 16.535 21.7115 16.68C21.4462 16.8248 21.1829 16.8207 20.9217 16.6675C20.2504 16.2587 19.7991 16.0052 19.5678 15.9072C19.3364 15.8092 19.0958 15.7602 18.8458 15.7602C18.2004 15.7602 17.6601 15.9872 17.2247 16.4412C16.7894 16.8952 16.1887 17.1223 15.4227 17.1223C14.6609 17.1223 14.0613 16.8952 13.624 16.4412C13.1867 15.9872 12.6453 15.7602 12 15.7602C11.3627 15.7602 10.8212 15.9872 10.3755 16.4412C9.92983 16.8952 9.32408 17.1223 8.55825 17.1223Z" fill="var(--fill-0, #1E729C)" stroke="var(--stroke-0, #1E729C)" stroke-width="4" mask="url(#path-1-inside-1_0_43)"/>
</g>
</g>
</svg>
