<svg width="28" height="28" viewBox="0 0 28 28" fill="none" xmlns="http://www.w3.org/2000/svg">
<mask id="path-1-inside-1_51_2037" fill="white">
<path d="M0 4C0 1.79086 1.79086 0 4 0H24C26.2091 0 28 1.79086 28 4V24C28 26.2091 26.2091 28 24 28H4C1.79086 28 0 26.2091 0 24V4Z"/>
</mask>
<path d="M0 4C0 1.79086 1.79086 0 4 0H24C26.2091 0 28 1.79086 28 4V24C28 26.2091 26.2091 28 24 28H4C1.79086 28 0 26.2091 0 24V4Z" fill="white"/>
<path d="M4 0V0.8H24V0V-0.8H4V0ZM28 4H27.2V24H28H28.8V4H28ZM24 28V27.2H4V28V28.8H24V28ZM0 24H0.8V4H0H-0.8V24H0ZM4 28V27.2C2.23269 27.2 0.8 25.7673 0.8 24H0H-0.8C-0.8 26.651 1.34903 28.8 4 28.8V28ZM28 24H27.2C27.2 25.7673 25.7673 27.2 24 27.2V28V28.8C26.651 28.8 28.8 26.651 28.8 24H28ZM24 0V0.8C25.7673 0.8 27.2 2.23269 27.2 4H28H28.8C28.8 1.34903 26.651 -0.8 24 -0.8V0ZM4 0V-0.8C1.34903 -0.8 -0.8 1.34903 -0.8 4H0H0.8C0.8 2.23269 2.23269 0.8 4 0.8V0Z" fill="#D3E8F3" mask="url(#path-1-inside-1_51_2037)"/>
<path d="M16.6667 20V18.6667C16.6667 17.9594 16.3857 17.2811 15.8856 16.781C15.3855 16.281 14.7073 16 14 16H10C9.29277 16 8.61449 16.281 8.11439 16.781C7.6143 17.2811 7.33334 17.9594 7.33334 18.6667V20" stroke="#2DA2DB" stroke-width="0.75" stroke-linecap="round" stroke-linejoin="round"/>
<path d="M12 13.3333C13.4728 13.3333 14.6667 12.1394 14.6667 10.6667C14.6667 9.19391 13.4728 8 12 8C10.5273 8 9.33334 9.19391 9.33334 10.6667C9.33334 12.1394 10.5273 13.3333 12 13.3333Z" stroke="#2DA2DB" stroke-width="0.75" stroke-linecap="round" stroke-linejoin="round"/>
<path d="M20.6667 19.9998V18.6664C20.6662 18.0756 20.4696 17.5016 20.1076 17.0346C19.7456 16.5677 19.2387 16.2341 18.6667 16.0864" stroke="#2DA2DB" stroke-width="0.75" stroke-linecap="round" stroke-linejoin="round"/>
<path d="M16.6667 8.08643C17.2403 8.23329 17.7487 8.56689 18.1117 9.03463C18.4748 9.50237 18.6719 10.0776 18.6719 10.6698C18.6719 11.2619 18.4748 11.8371 18.1117 12.3049C17.7487 12.7726 17.2403 13.1062 16.6667 13.2531" stroke="#2DA2DB" stroke-width="0.75" stroke-linecap="round" stroke-linejoin="round"/>
</svg>
