<svg preserveAspectRatio="none" width="100%" height="100%" overflow="visible" style="display: block;" viewBox="0 0 24 24" fill="none" xmlns="http://www.w3.org/2000/svg">
<g id="Bottle neck oi oi">
<path id="oi oi" d="M2.45424 11.1201C2.45425 13.268 3.69554 15.2224 5.63965 16.1355L6.05583 16.3311C8.3474 17.4074 9.8106 19.7111 9.8106 22.2429H8.09632C8.09631 20.3756 7.01718 18.6766 5.32709 17.8827L4.91083 17.6872C2.36527 16.4915 0.739962 13.9325 0.739955 11.1201V3.44339H2.45424V11.1201ZM23.26 11.1201C23.26 13.9325 21.6347 16.4915 19.0892 17.6872L18.6729 17.8827C16.9828 18.6766 15.9037 20.3756 15.9037 22.2429H14.1894C14.1894 19.7111 15.6526 17.4074 17.9442 16.3311L18.3604 16.1355C20.3045 15.2224 21.5458 13.268 21.5458 11.1201V3.44339H23.26V11.1201ZM8.29579 8.25L9.9534 6.59238L11.1656 7.8046L8.04475 10.9254L7.43864 11.5315L6.83253 10.9254L3.71166 7.8046L4.92388 6.59238L6.5815 8.25V2.48002H8.29579V8.25ZM17.2699 8.25L18.9275 6.59238L20.1398 7.8046L17.0189 10.9254L16.4128 11.5315L15.8067 10.9254L12.6858 7.8046L13.898 6.59238L15.5556 8.25V2.48002H17.2699V8.25Z" fill="var(--fill-0, #F4813E)"/>
</g>
</svg>
