<svg width="18" height="18" viewBox="0 0 18 18" fill="none" xmlns="http://www.w3.org/2000/svg">
<g clip-path="url(#clip0_10684_9041)">
<path d="M7.78515 10.598L7.51039 11.2602M7.78515 6.62078L7.51039 5.95862M9.43225 10.598L9.70629 11.2609M9.70701 5.95862L9.43225 6.62078M10.5973 7.78586L11.2595 7.5111M10.5973 9.43296L11.2595 9.70772M4.59273 4.66378C4.41885 4.36296 4.32045 4.02453 4.30583 3.67739C4.28926 3.28465 4.38056 2.89488 4.56983 2.55036C4.79976 2.13138 5.16262 1.80084 5.60118 1.61089C6.03973 1.42093 6.52905 1.38236 6.99195 1.50125C7.45486 1.62014 7.86502 1.88974 8.15777 2.26752C8.45051 2.6453 8.60917 3.10978 8.60874 3.58771C8.60873 3.25759 8.68466 2.93188 8.83066 2.6358C8.97666 2.33971 9.18882 2.08118 9.45072 1.88021C9.71262 1.67924 10.0172 1.54121 10.341 1.4768C10.6648 1.41239 10.9991 1.42333 11.3179 1.50878C11.6368 1.59422 11.9318 1.75188 12.18 1.96955C12.4282 2.18722 12.623 2.45907 12.7493 2.76407C12.8756 3.06907 12.9301 3.39904 12.9085 3.72846C12.8869 4.05788 12.7898 4.37791 12.6247 4.6638M4.30583 3.67739C3.88411 3.78587 3.49261 3.9889 3.16099 4.27111C2.82936 4.55332 2.56631 4.9073 2.39177 5.30623C2.21722 5.70516 2.13575 6.13859 2.15354 6.57368C2.17132 7.00876 2.28789 7.43409 2.49442 7.81745M12.9117 3.67737C13.3334 3.78585 13.7249 3.98888 14.0565 4.27109C14.3881 4.5533 14.6512 4.90728 14.8257 5.30621C15.0003 5.70515 15.0817 6.13857 15.064 6.57366C15.0462 7.00874 14.9296 7.43408 14.7231 7.81743M13.9927 7.38553C14.609 7.63586 15.1193 8.09259 15.4361 8.67757C15.7529 9.26255 15.8567 9.93944 15.7296 10.5925C15.6024 11.2455 15.2524 11.834 14.7393 12.2575C14.2261 12.6809 13.5818 12.9129 12.9166 12.9137M2.89257 12.5428C2.8062 13.2012 2.95083 13.8691 3.3018 14.4328C3.65277 14.9965 4.18836 15.421 4.81727 15.634C5.44619 15.847 6.12951 15.8353 6.75076 15.6009C7.37202 15.3665 7.89275 14.9239 8.22422 14.3485C8.35335 14.1254 8.86413 14.1254 8.99326 14.3485C9.32472 14.9237 9.84539 15.3663 10.4665 15.6006C11.0877 15.835 11.7709 15.8468 12.3998 15.6339C13.0286 15.421 13.5642 14.9966 13.9152 14.4331C14.2663 13.8696 14.411 13.2018 14.3249 12.5435M3.22831 7.38342C2.61056 7.63288 2.09885 8.08952 1.78097 8.67501C1.46308 9.26049 1.35881 9.93835 1.48606 10.5923C1.6133 11.2463 1.96413 11.8356 2.47836 12.2591C2.99259 12.6827 3.63818 12.9142 4.3044 12.9138M6.62006 7.78586L5.95791 7.5111M6.62006 9.43296L5.95791 9.70772M10.7609 8.60943C10.7609 9.79805 9.79733 10.7616 8.60872 10.7616C7.4201 10.7616 6.45654 9.79805 6.45654 8.60943C6.45654 7.42082 7.4201 6.45726 8.60872 6.45726C9.79733 6.45726 10.7609 7.42082 10.7609 8.60943Z" stroke="#4CC4FE" stroke-width="1.07609" stroke-linecap="round" stroke-linejoin="round"/>
</g>
<defs>
<clipPath id="clip0_10684_9041">
<rect width="17.2174" height="17.2174" fill="white"/>
</clipPath>
</defs>
</svg>
