<svg width="40" height="40" viewBox="0 0 40 40" fill="none" xmlns="http://www.w3.org/2000/svg">
<path d="M16.6666 20H23.3333M16.6666 13.3333H23.3333M23.3333 35V30C23.3333 29.1159 22.9821 28.2681 22.357 27.643C21.7319 27.0179 20.884 26.6667 20 26.6667C19.1159 26.6667 18.2681 27.0179 17.643 27.643C17.0178 28.2681 16.6666 29.1159 16.6666 30V35M9.99998 16.6667H6.66665C5.78259 16.6667 4.93474 17.0179 4.30962 17.643C3.6845 18.2681 3.33331 19.1159 3.33331 20V31.6667C3.33331 32.5507 3.6845 33.3986 4.30962 34.0237C4.93474 34.6488 5.78259 35 6.66665 35H33.3333C34.2174 35 35.0652 34.6488 35.6903 34.0237C36.3155 33.3986 36.6666 32.5507 36.6666 31.6667V15C36.6666 14.1159 36.3155 13.2681 35.6903 12.643C35.0652 12.0179 34.2174 11.6667 33.3333 11.6667H30M9.99998 35V8.33333C9.99998 7.44928 10.3512 6.60143 10.9763 5.97631C11.6014 5.35119 12.4493 5 13.3333 5H26.6666C27.5507 5 28.3985 5.35119 29.0237 5.97631C29.6488 6.60143 30 7.44928 30 8.33333V35" stroke="#2DA2DB" stroke-width="3" stroke-linecap="round" stroke-linejoin="round"/>
</svg>
