<svg width="24" height="24" viewBox="0 0 24 24" fill="none" xmlns="http://www.w3.org/2000/svg">
<path d="M1.8505 13.4062C1.8505 13.3166 1.85567 13.2278 1.866 13.14C1.87634 13.0523 1.90017 12.9608 1.9375 12.8655L3.9815 6.70248C4.07284 6.43714 4.22767 6.22789 4.446 6.07473C4.66417 5.92139 4.9155 5.84473 5.2 5.84473H10.1168C10.3573 5.84473 10.5593 5.92798 10.723 6.09448C10.8867 6.26098 10.9685 6.46506 10.9685 6.70673C10.9685 6.94839 10.8867 7.15006 10.723 7.31173C10.5593 7.47323 10.3573 7.55398 10.1168 7.55398H5.49175L4.14075 11.6502H12.094C12.3065 11.6502 12.4847 11.7226 12.6285 11.8672C12.7722 12.0117 12.844 12.1909 12.844 12.4047C12.844 12.6184 12.7722 12.7961 12.6285 12.9377C12.4847 13.0794 12.3065 13.1502 12.094 13.1502H3.55375V18.3465H18.4463V13.8275C18.4463 13.587 18.5285 13.3849 18.693 13.2212C18.8575 13.0576 19.0606 12.9757 19.3023 12.9757C19.5439 12.9757 19.7465 13.0576 19.91 13.2212C20.0737 13.3849 20.1555 13.587 20.1555 13.8275V21.072C20.1555 21.3716 20.0493 21.6261 19.8368 21.8355C19.6241 22.045 19.3671 22.1497 19.0658 22.1497C18.7664 22.1497 18.512 22.0446 18.3025 21.8342C18.0928 21.6237 17.988 21.3676 17.988 21.066V20.0497H4.012V21.072C4.012 21.3716 3.90675 21.6261 3.69625 21.8355C3.48559 22.045 3.22959 22.1497 2.92825 22.1497C2.62492 22.1497 2.3695 22.0446 2.162 21.8342C1.95434 21.6237 1.8505 21.3676 1.8505 21.066V13.4062ZM15.8953 17.1202C16.2784 17.1202 16.6002 16.989 16.8605 16.7265C17.1208 16.464 17.251 16.1452 17.251 15.7702C17.251 15.3814 17.1188 15.0509 16.8543 14.7787C16.5898 14.5064 16.272 14.3702 15.901 14.3702C15.5082 14.3702 15.1767 14.5058 14.9065 14.777C14.6362 15.048 14.501 15.3771 14.501 15.7645C14.501 16.1516 14.6356 16.4744 14.9048 16.7327C15.1738 16.9911 15.5039 17.1202 15.8953 17.1202ZM6.174 17.1202C6.55734 17.1202 6.87917 16.989 7.1395 16.7265C7.39984 16.464 7.53 16.1452 7.53 15.7702C7.53 15.3814 7.39775 15.0509 7.13325 14.7787C6.86875 14.5064 6.551 14.3702 6.18 14.3702C5.787 14.3702 5.45542 14.5058 5.18525 14.777C4.91509 15.048 4.78 15.3771 4.78 15.7645C4.78 16.1516 4.9145 16.4744 5.1835 16.7327C5.45267 16.9911 5.78284 17.1202 6.174 17.1202ZM17.385 11.3947C16.0613 11.3947 14.9338 10.929 14.0025 9.99748C13.0712 9.06598 12.6055 7.93598 12.6055 6.60748C12.6055 5.29898 13.0722 4.17806 14.0055 3.24473C14.9388 2.31139 16.0638 1.84473 17.3805 1.84473C18.7098 1.84473 19.838 2.30823 20.765 3.23523C21.692 4.16223 22.1555 5.29039 22.1555 6.61973C22.1555 7.95306 21.6903 9.08223 20.76 10.0072C19.8298 10.9322 18.7048 11.3947 17.385 11.3947ZM17.4555 7.31598C17.5968 7.31598 17.7099 7.27031 17.7948 7.17898C17.8798 7.08764 17.9223 6.96939 17.9223 6.82423V4.21373C17.9223 4.06856 17.8756 3.95348 17.7823 3.86848C17.6891 3.78348 17.5718 3.74098 17.4305 3.74098C17.2852 3.74098 17.17 3.78764 17.085 3.88098C17 3.97431 16.9575 4.09356 16.9575 4.23873V6.84923C16.9575 6.99439 17.0042 7.10848 17.0975 7.19148C17.1908 7.27448 17.3102 7.31598 17.4555 7.31598ZM17.443 9.55448C17.6132 9.55448 17.7564 9.50156 17.8728 9.39573C17.9891 9.28973 18.0473 9.14539 18.0473 8.96273C18.0473 8.78406 17.9883 8.63973 17.8703 8.52973C17.7523 8.41989 17.614 8.36498 17.4555 8.36498C17.2602 8.38164 17.1117 8.44489 17.01 8.55473C16.9083 8.66473 16.8575 8.80489 16.8575 8.97523C16.8575 9.14956 16.9115 9.28973 17.0195 9.39573C17.1275 9.50156 17.2687 9.55448 17.443 9.55448Z" fill="#4CC4FE"/>
</svg>
