<svg width="18" height="18" viewBox="0 0 18 18" fill="none" xmlns="http://www.w3.org/2000/svg">
<path d="M8.6062 4.86833C8.78782 4.86833 8.94014 4.80765 9.06317 4.68629C9.18621 4.56481 9.24772 4.41326 9.24772 4.23165C9.24772 4.05122 9.18633 3.89848 9.06353 3.77341C8.94074 3.64847 8.78853 3.58599 8.60691 3.58599C8.42529 3.58599 8.27369 3.64841 8.15209 3.77323C8.03049 3.89794 7.96969 4.05056 7.96969 4.23111C7.96969 4.41165 8.03037 4.56296 8.15173 4.68504C8.27321 4.80723 8.4247 4.86833 8.6062 4.86833ZM8.61194 10.6387C8.7749 10.6387 8.90906 10.5852 9.01439 10.4783C9.11973 10.3716 9.1724 10.2368 9.1724 10.0741V6.67508C9.1724 6.51534 9.11871 6.38143 9.01134 6.27334C8.90385 6.16525 8.76857 6.11121 8.60548 6.11121C8.44251 6.11121 8.30836 6.16525 8.20302 6.27334C8.09769 6.38143 8.04502 6.51534 8.04502 6.67508V10.0741C8.04502 10.2368 8.0987 10.3716 8.20607 10.4783C8.31356 10.5852 8.44885 10.6387 8.61194 10.6387ZM4.19711 13.0193L2.37099 14.8454C2.17777 15.0387 1.95556 15.0832 1.70435 14.9791C1.45315 14.875 1.32755 14.6892 1.32755 14.4217V2.54847C1.32755 2.21727 1.44872 1.93013 1.69108 1.68706C1.93332 1.44386 2.21944 1.32227 2.54944 1.32227H14.668C14.9992 1.32227 15.2863 1.44386 15.5294 1.68706C15.7726 1.93013 15.8942 2.21727 15.8942 2.54847V11.7974C15.8942 12.1274 15.7726 12.4136 15.5294 12.6558C15.2863 12.8982 14.9992 13.0193 14.668 13.0193H4.19711ZM3.73081 11.7974H14.668V2.54847H2.54944V13.0864L3.73081 11.7974Z" fill="#2DA2DB"/>
</svg>
