<svg preserveAspectRatio="none" width="100%" height="100%" overflow="visible" style="display: block;" viewBox="0 0 24 24" fill="none" xmlns="http://www.w3.org/2000/svg">
<g id="check_circle">
<path id="Vector" d="M10.513 14.1195L8.17675 11.7832C8.01075 11.6172 7.80725 11.5342 7.56625 11.5342C7.32525 11.5342 7.11183 11.6256 6.926 11.8082C6.76017 11.9781 6.67725 12.1833 6.67725 12.424C6.67725 12.6645 6.76217 12.8678 6.932 13.0338L9.91025 16.037C10.0821 16.2068 10.2825 16.2918 10.5115 16.2918C10.7405 16.2918 10.9419 16.2068 11.1158 16.037L17.019 10.1277C17.2057 9.94508 17.299 9.73425 17.299 9.49525C17.299 9.25625 17.2057 9.04392 17.019 8.85825C16.8363 8.69225 16.6203 8.61342 16.371 8.62175C16.1217 8.63008 15.9125 8.71725 15.7435 8.88325L10.513 14.1195ZM12.0008 22.1495C10.6098 22.1495 9.29692 21.8838 8.06225 21.3525C6.82775 20.8212 5.7495 20.0945 4.8275 19.1725C3.9055 18.2505 3.17883 17.1725 2.6475 15.9385C2.11617 14.7045 1.8505 13.3919 1.8505 12.0007C1.8505 10.5931 2.11617 9.27192 2.6475 8.03725C3.17883 6.80275 3.90517 5.72858 4.8265 4.81475C5.74783 3.90075 6.82567 3.17725 8.06 2.64425C9.29433 2.11108 10.6073 1.8445 11.9988 1.8445C13.4068 1.8445 14.7283 2.11092 15.9635 2.64375C17.1985 3.17658 18.2727 3.89967 19.1862 4.813C20.0999 5.72633 20.8232 6.80033 21.356 8.035C21.889 9.26967 22.1555 10.5913 22.1555 12C22.1555 13.3917 21.8889 14.7048 21.3557 15.9393C20.8227 17.1738 20.0992 18.2517 19.1852 19.1732C18.2714 20.0947 17.1975 20.8212 15.9635 21.3525C14.7295 21.8838 13.4086 22.1495 12.0008 22.1495ZM12 20.4462C14.3507 20.4462 16.3461 19.6233 17.9862 17.9775C19.6262 16.3315 20.4462 14.339 20.4462 12C20.4462 9.64933 19.6262 7.65392 17.9862 6.01375C16.3461 4.37375 14.3497 3.55375 11.997 3.55375C9.661 3.55375 7.66975 4.37375 6.02325 6.01375C4.37692 7.65392 3.55375 9.65033 3.55375 12.003C3.55375 14.339 4.37667 16.3303 6.0225 17.9768C7.6685 19.6231 9.661 20.4462 12 20.4462Z" fill="var(--fill-0, #1E729C)"/>
</g>
</svg>
