<svg preserveAspectRatio="none" width="100%" height="100%" overflow="visible" style="display: block;" viewBox="0 0 20 20" fill="none" xmlns="http://www.w3.org/2000/svg">
<g id="key">
<path id="Vector" d="M5.83521 11.4715C5.43174 11.4715 5.08535 11.3274 4.79604 11.0392C4.5066 10.7511 4.36187 10.4053 4.36187 10.0019C4.36187 9.5984 4.50597 9.25201 4.79417 8.96271C5.08222 8.67326 5.42799 8.52854 5.83146 8.52854C6.23493 8.52854 6.58132 8.67264 6.87063 8.96083C7.16007 9.24889 7.30479 9.59465 7.30479 9.99813C7.30479 10.4016 7.16069 10.748 6.8725 11.0373C6.58444 11.3267 6.23868 11.4715 5.83521 11.4715ZM5.83333 15.1146C4.41569 15.1146 3.20882 14.6165 2.21271 13.6202C1.21674 12.624 0.71875 11.4168 0.71875 9.99875C0.71875 8.58083 1.21674 7.3741 2.21271 6.37854C3.20882 5.38312 4.41569 4.88542 5.83333 4.88542C6.85986 4.88542 7.75813 5.12819 8.52813 5.61375C9.29799 6.09917 9.89868 6.82771 10.3302 7.79937H17.4406C17.5324 7.79937 17.6189 7.81576 17.7 7.84854C17.7811 7.88132 17.8604 7.93576 17.9379 8.01188L19.6215 9.69021C19.6969 9.76493 19.7511 9.84646 19.7842 9.93479C19.8172 10.023 19.8338 10.1142 19.8338 10.2083C19.8338 10.3025 19.8138 10.3902 19.7738 10.4715C19.7338 10.5528 19.676 10.6309 19.6006 10.7056L17.0313 13.0617C16.9686 13.1265 16.8976 13.1756 16.8181 13.209C16.7388 13.2423 16.6599 13.2588 16.5815 13.2585C16.5031 13.2583 16.4273 13.2495 16.354 13.2323C16.2808 13.2151 16.2061 13.1823 16.13 13.134L14.7423 12.1323L13.3388 13.1548C13.2765 13.2031 13.2091 13.2359 13.1365 13.2531C13.0637 13.2703 12.9874 13.279 12.9077 13.279C12.8324 13.279 12.759 13.2669 12.6873 13.2427C12.6158 13.2185 12.5497 13.184 12.4892 13.139L11.3296 12.2006H10.3288C9.98153 13.044 9.42674 13.7404 8.66438 14.29C7.90188 14.8397 6.95819 15.1146 5.83333 15.1146ZM5.83333 13.75C6.64889 13.75 7.39778 13.4785 8.08 12.9354C8.76222 12.3924 9.19722 11.6942 9.385 10.841H11.8248L12.9298 11.7635C12.9159 11.7635 12.9159 11.7627 12.9298 11.761C12.9437 11.7594 12.9437 11.7602 12.9298 11.7635L14.7631 10.451L16.4715 11.7327L18.1825 10.1817L17.1648 9.15938V9.16146V9.15896H9.385C9.22833 8.36785 8.81417 7.68528 8.1425 7.11125C7.47069 6.53708 6.70097 6.25 5.83333 6.25C4.79167 6.25 3.90625 6.61458 3.17708 7.34375C2.44792 8.07292 2.08333 8.95833 2.08333 10C2.08333 11.0417 2.44792 11.9271 3.17708 12.6563C3.90625 13.3854 4.79167 13.75 5.83333 13.75Z" fill="var(--fill-0, #1E729C)"/>
</g>
</svg>
