<svg preserveAspectRatio="none" width="100%" height="100%" overflow="visible" style="display: block;" viewBox="0 0 40 40" fill="none" xmlns="http://www.w3.org/2000/svg">
<g id="location_on">
<path id="Vector" d="M19.9995 3.57454C23.4601 3.57454 26.5043 4.78236 29.1508 7.21712C31.7686 9.62522 33.0922 12.8577 33.0922 16.9701C33.0922 18.663 32.719 20.3511 31.9643 22.0374C31.1984 23.749 30.2375 25.3871 29.0815 26.9525C27.9194 28.5261 26.6567 29.9949 25.2934 31.3587C23.9182 32.7348 22.6351 33.9531 21.4438 35.014L21.4379 35.0199L21.4321 35.0247C21.2448 35.2018 21.029 35.3303 20.7788 35.4115C20.5041 35.5006 20.2404 35.5433 19.9868 35.5433C19.7334 35.5433 19.4756 35.5003 19.2114 35.4124C18.9708 35.3324 18.7631 35.2061 18.5835 35.0306L18.5747 35.0218L18.5649 35.014L17.6499 34.1888C16.7184 33.3343 15.7378 32.3906 14.7065 31.3587C13.3432 29.9949 12.0805 28.5261 10.9184 26.9525C9.90696 25.5828 9.04651 24.1575 8.33639 22.6761L8.04049 22.0384L7.90474 21.722C7.24457 20.1407 6.91744 18.5576 6.91744 16.9701C6.91751 12.8574 8.24034 9.62518 10.8549 7.21712C13.4979 4.78272 16.5391 3.57465 19.9995 3.57454ZM19.9995 5.42318C16.8592 5.42319 14.1875 6.50417 12.0161 8.66341C9.83631 10.831 8.75638 13.6144 8.75631 16.9701C8.75631 19.2444 9.70838 21.7455 11.5297 24.4583C13.3517 27.1718 16.0667 30.2002 19.6596 33.5423L19.9956 33.8548L20.3354 33.5462C24.0128 30.2101 26.7535 27.1806 28.5366 24.4583C30.3156 21.7421 31.2436 19.241 31.2436 16.9701C31.2435 13.6144 30.1636 10.831 27.9838 8.66341C25.8118 6.5042 23.1397 5.42318 19.9995 5.42318ZM19.9965 14.1712C20.6946 14.1713 21.2751 14.4108 21.7661 14.8997C22.2561 15.3878 22.4965 15.9661 22.4965 16.6634C22.4965 17.3614 22.257 17.9398 21.769 18.4271C21.2811 18.9143 20.7018 19.1536 20.0034 19.1536C19.3044 19.1536 18.7258 18.9148 18.2387 18.43C17.7527 17.9457 17.5142 17.3692 17.5141 16.6712C17.5141 16.0595 17.6959 15.5377 18.0669 15.0882L18.2378 14.8997C18.7224 14.4105 19.2992 14.1712 19.9965 14.1712Z" fill="var(--fill-0, #2DA2DB)" stroke="var(--stroke-0, #2DA2DB)"/>
</g>
</svg>
