<svg preserveAspectRatio="none" width="100%" height="100%" overflow="visible" style="display: block;" viewBox="0 0 20 20" fill="none" xmlns="http://www.w3.org/2000/svg">
<g id="my_location">
<path id="Vector" d="M9.32021 18.5648V17.6821C7.41076 17.4843 5.815 16.7443 4.53292 15.4621C3.25069 14.18 2.51236 12.5859 2.31792 10.6798H1.43521C1.24257 10.6798 1.08111 10.6144 0.950833 10.4835C0.820555 10.3528 0.755417 10.1908 0.755417 9.99729C0.755417 9.80396 0.820555 9.64278 0.950833 9.51375C1.08111 9.38472 1.24257 9.32021 1.43521 9.32021H2.31792C2.51569 7.41076 3.25569 5.815 4.53792 4.53292C5.82 3.25069 7.4141 2.51236 9.32021 2.31792V1.43521C9.32021 1.24257 9.38563 1.08111 9.51646 0.950834C9.64715 0.820556 9.80924 0.755417 10.0027 0.755417C10.196 0.755417 10.3572 0.820556 10.4862 0.950834C10.6153 1.08111 10.6798 1.24257 10.6798 1.43521V2.31792C12.5859 2.51236 14.18 3.25069 15.4621 4.53292C16.7443 5.815 17.4843 7.41076 17.6821 9.32021H18.5648C18.7574 9.32021 18.9189 9.38563 19.0492 9.51646C19.1794 9.64715 19.2446 9.80924 19.2446 10.0027C19.2446 10.196 19.1794 10.3572 19.0492 10.4863C18.9189 10.6153 18.7574 10.6798 18.5648 10.6798H17.6821C17.4876 12.5859 16.7493 14.18 15.4671 15.4621C14.185 16.7443 12.5892 17.4843 10.6798 17.6821V18.5648C10.6798 18.7574 10.6144 18.9189 10.4835 19.0492C10.3528 19.1794 10.1908 19.2446 9.99729 19.2446C9.80396 19.2446 9.64278 19.1794 9.51375 19.0492C9.38472 18.9189 9.32021 18.7574 9.32021 18.5648ZM9.99917 16.2885C11.7258 16.2885 13.2058 15.6723 14.439 14.4398C15.672 13.2072 16.2885 11.7275 16.2885 10.0008C16.2885 8.27417 15.6723 6.79424 14.4398 5.56104C13.2072 4.32799 11.7275 3.71146 10.0008 3.71146C8.27417 3.71146 6.79424 4.32771 5.56104 5.56021C4.32799 6.79285 3.71146 8.2725 3.71146 9.99917C3.71146 11.7258 4.32771 13.2058 5.56021 14.439C6.79285 15.672 8.2725 16.2885 9.99917 16.2885ZM10 13.125C9.125 13.125 8.38542 12.8229 7.78125 12.2188C7.17708 11.6146 6.875 10.875 6.875 10C6.875 9.125 7.17708 8.38542 7.78125 7.78125C8.38542 7.17708 9.125 6.875 10 6.875C10.875 6.875 11.6146 7.17708 12.2187 7.78125C12.8229 8.38542 13.125 9.125 13.125 10C13.125 10.875 12.8229 11.6146 12.2187 12.2188C11.6146 12.8229 10.875 13.125 10 13.125ZM9.99812 11.7604C10.494 11.7604 10.9116 11.5913 11.251 11.2529C11.5906 10.9146 11.7604 10.4976 11.7604 10.0019C11.7604 9.50604 11.5913 9.0884 11.2529 8.74896C10.9146 8.40938 10.4976 8.23958 10.0019 8.23958C9.50604 8.23958 9.0884 8.40875 8.74896 8.74708C8.40938 9.08542 8.23958 9.50243 8.23958 9.99813C8.23958 10.494 8.40875 10.9116 8.74708 11.251C9.08542 11.5906 9.50243 11.7604 9.99812 11.7604Z" fill="var(--fill-0, #1E729C)"/>
</g>
</svg>
