<svg preserveAspectRatio="none" width="100%" height="100%" overflow="visible" style="display: block;" viewBox="0 0 40 40" fill="none" xmlns="http://www.w3.org/2000/svg">
<g id="circle-question-mark">
<path id="Vector" d="M15.1501 15.0001C15.542 13.8862 16.3154 12.947 17.3334 12.3487C18.3514 11.7504 19.5483 11.5317 20.7121 11.7313C21.8759 11.9309 22.9315 12.536 23.6919 13.4393C24.4524 14.3427 24.8686 15.486 24.8668 16.6668C24.8668 20.0001 19.8668 21.6668 19.8668 21.6668M20 28.3333H20.0167M36.6667 20C36.6667 29.2047 29.2047 36.6667 20 36.6667C10.7953 36.6667 3.33333 29.2047 3.33333 20C3.33333 10.7953 10.7953 3.33333 20 3.33333C29.2047 3.33333 36.6667 10.7953 36.6667 20Z" stroke="var(--stroke-0, #2DA2DB)" stroke-width="3" stroke-linecap="round" stroke-linejoin="round"/>
</g>
</svg>
