<svg preserveAspectRatio="none" width="100%" height="100%" overflow="visible" style="display: block;" viewBox="0 0 40 40" fill="none" xmlns="http://www.w3.org/2000/svg">
<g id="shield-cog">
<path id="Vector" d="M18.215 24.1113L17.5767 25.6513M18.215 14.8717L17.5767 13.3333M22.0416 14.8717L22.68 13.3333M22.6783 25.6513L22.0416 24.1113M24.7483 17.5784L26.2867 16.9401M24.7483 21.4046L26.2867 22.043M15.5083 17.5784L13.9699 16.9401M15.5083 21.4046L13.9699 22.043M33.3333 21.6666C33.3333 29.9999 27.5 34.1666 20.5667 36.5833C20.2036 36.7063 19.8092 36.7004 19.45 36.5666C12.5 34.1666 6.66667 29.9999 6.66667 21.6666V9.99994C6.66667 9.55791 6.84226 9.13399 7.15482 8.82142C7.46738 8.50886 7.89131 8.33327 8.33333 8.33327C11.6667 8.33327 15.8333 6.33327 18.7333 3.79994C19.0864 3.49827 19.5356 3.33252 20 3.33252C20.4644 3.33252 20.9136 3.49827 21.2667 3.79994C24.1833 6.34994 28.3333 8.33327 31.6667 8.33327C32.1087 8.33327 32.5326 8.50886 32.8452 8.82142C33.1577 9.13399 33.3333 9.55791 33.3333 9.99994V21.6666ZM25.1284 19.4914C25.1284 22.2528 22.8898 24.4914 20.1284 24.4914C17.367 24.4914 15.1284 22.2528 15.1284 19.4914C15.1284 16.73 17.367 14.4914 20.1284 14.4914C22.8898 14.4914 25.1284 16.73 25.1284 19.4914Z" stroke="var(--stroke-0, #1E729C)" stroke-width="3" stroke-linecap="round" stroke-linejoin="round"/>
</g>
</svg>
