<svg preserveAspectRatio="none" width="100%" height="100%" overflow="visible" style="display: block;" viewBox="0 0 20 20" fill="none" xmlns="http://www.w3.org/2000/svg">
<g id="eye_tracking">
<path id="Vector" d="M2.12812 19.2912C1.74479 19.2912 1.41243 19.1505 1.13104 18.869C0.849514 18.5876 0.70875 18.2552 0.70875 17.8719V16.009C0.70875 15.8087 0.777292 15.6403 0.914375 15.504C1.05146 15.3676 1.22069 15.2994 1.42208 15.2994C1.62347 15.2994 1.79153 15.3676 1.92625 15.504C2.06083 15.6403 2.12812 15.8087 2.12812 16.009V17.8719H3.99104C4.19132 17.8719 4.35965 17.9404 4.49604 18.0775C4.63243 18.2146 4.70062 18.3838 4.70062 18.5852C4.70062 18.7866 4.63243 18.9546 4.49604 19.0892C4.35965 19.2239 4.19132 19.2912 3.99104 19.2912H2.12812ZM17.8769 19.2912H16.014C15.8137 19.2912 15.6453 19.2227 15.509 19.0856C15.3726 18.9485 15.3044 18.7793 15.3044 18.5779C15.3044 18.3765 15.3726 18.2085 15.509 18.0737C15.6453 17.9392 15.8137 17.8719 16.014 17.8719H17.8769V16.009C17.8769 15.8087 17.9454 15.6403 18.0825 15.504C18.2196 15.3676 18.3888 15.2994 18.5902 15.2994C18.7916 15.2994 18.9596 15.3676 19.0942 15.504C19.2289 15.6403 19.2962 15.8087 19.2962 16.009V17.8719C19.2962 18.2552 19.1555 18.5876 18.874 18.869C18.5926 19.1505 18.2602 19.2912 17.8769 19.2912ZM9.97771 15.4171C8.45812 15.4171 7.06674 15.0169 5.80354 14.2167C4.54021 13.4164 3.53049 12.3149 2.77437 10.9121C2.69507 10.7739 2.63903 10.6281 2.60625 10.4746C2.57347 10.3211 2.55708 10.1646 2.55708 10.005C2.55708 9.8425 2.57521 9.68444 2.61146 9.53083C2.64771 9.37708 2.70201 9.22944 2.77437 9.08792C3.53049 7.67125 4.53944 6.56194 5.80125 5.76C7.06305 4.95805 8.45403 4.55708 9.97417 4.55708C11.4943 4.55708 12.8904 4.95722 14.1625 5.7575C15.4346 6.55778 16.4487 7.66625 17.2048 9.08292C17.2841 9.22444 17.341 9.37299 17.3754 9.52854C17.4099 9.6841 17.4271 9.83958 17.4271 9.995C17.4271 10.1506 17.409 10.3074 17.3729 10.4654C17.3368 10.6235 17.2791 10.774 17.1998 10.9171C16.447 12.3199 15.435 13.4206 14.1637 14.2192C12.8925 15.0178 11.4972 15.4171 9.97771 15.4171ZM9.97604 14.0327C11.2631 14.0327 12.4614 13.6706 13.5708 12.9463C14.6803 12.2221 15.5283 11.2392 16.115 9.9975C15.5283 8.75583 14.6805 7.76944 13.5715 7.03833C12.4624 6.30722 11.2633 5.94167 9.97417 5.94167C8.6875 5.94167 7.49417 6.30722 6.39417 7.03833C5.29417 7.76944 4.45083 8.75583 3.86417 9.9975C4.45083 11.2392 5.29438 12.2221 6.39479 12.9463C7.49521 13.6706 8.68896 14.0327 9.97604 14.0327ZM9.99958 12.76C10.7671 12.76 11.425 12.4891 11.9733 11.9473C12.5217 11.4055 12.7958 10.7549 12.7958 9.99542C12.7958 9.23597 12.5222 8.5834 11.9748 8.03771C11.4274 7.49201 10.768 7.21917 9.99646 7.21917C9.2316 7.21917 8.58347 7.48986 8.05208 8.03125C7.52069 8.57264 7.255 9.2284 7.255 9.99854C7.255 10.7687 7.52222 11.4215 8.05667 11.9569C8.59125 12.4923 9.23889 12.76 9.99958 12.76ZM9.99646 11.4152C9.60201 11.4152 9.26812 11.2776 8.99479 11.0025C8.72146 10.7272 8.58479 10.393 8.58479 9.99979C8.58479 9.60646 8.72132 9.26882 8.99437 8.98687C9.26743 8.70493 9.60167 8.56396 9.99708 8.56396C10.3925 8.56396 10.7303 8.70361 11.0106 8.98292C11.291 9.26222 11.4312 9.60132 11.4312 10.0002C11.4312 10.3935 11.2917 10.7277 11.0127 11.0027C10.7337 11.2777 10.3949 11.4152 9.99646 11.4152ZM19.2962 2.12312V3.98604C19.2962 4.18632 19.2277 4.35465 19.0906 4.49104C18.9535 4.62743 18.7843 4.69562 18.5829 4.69562C18.3815 4.69562 18.2135 4.62743 18.0787 4.49104C17.9442 4.35465 17.8769 4.18632 17.8769 3.98604V2.12312H16.014C15.8137 2.12312 15.6453 2.05458 15.509 1.9175C15.3726 1.78042 15.3044 1.61118 15.3044 1.40979C15.3044 1.2084 15.3726 1.04042 15.509 0.905833C15.6453 0.771111 15.8137 0.70375 16.014 0.70375H17.8769C18.2602 0.70375 18.5926 0.844513 18.874 1.12604C19.1555 1.40743 19.2962 1.73979 19.2962 2.12312ZM2.12812 0.70375H3.99104C4.19132 0.70375 4.35965 0.772292 4.49604 0.909375C4.63243 1.04646 4.70062 1.21569 4.70062 1.41708C4.70062 1.61847 4.63243 1.78653 4.49604 1.92125C4.35965 2.05583 4.19132 2.12312 3.99104 2.12312H2.12812V3.98604C2.12812 4.18632 2.05958 4.35465 1.9225 4.49104C1.78542 4.62743 1.61618 4.69562 1.41479 4.69562C1.2134 4.69562 1.04542 4.62743 0.910833 4.49104C0.776111 4.35465 0.70875 4.18632 0.70875 3.98604V2.12312C0.70875 1.73979 0.849514 1.40743 1.13104 1.12604C1.41243 0.844513 1.74479 0.70375 2.12812 0.70375Z" fill="var(--fill-0, #1E729C)"/>
</g>
</svg>
