<svg preserveAspectRatio="none" width="100%" height="100%" overflow="visible" style="display: block;" viewBox="0 0 20 20" fill="none" xmlns="http://www.w3.org/2000/svg">
<g id="cpu" clip-path="url(#clip0_0_560)">
<path id="Vector" d="M10 16.6667V18.3333M10 1.66667V3.33333M14.1667 16.6667V18.3333M14.1667 1.66667V3.33333M1.66667 10H3.33333M1.66667 14.1667H3.33333M1.66667 5.83333H3.33333M16.6667 10H18.3333M16.6667 14.1667H18.3333M16.6667 5.83333H18.3333M5.83333 16.6667V18.3333M5.83333 1.66667V3.33333M5 3.33333H15C15.9205 3.33333 16.6667 4.07953 16.6667 5V15C16.6667 15.9205 15.9205 16.6667 15 16.6667H5C4.07953 16.6667 3.33333 15.9205 3.33333 15V5C3.33333 4.07953 4.07953 3.33333 5 3.33333ZM7.5 6.66667H12.5C12.9602 6.66667 13.3333 7.03976 13.3333 7.5V12.5C13.3333 12.9602 12.9602 13.3333 12.5 13.3333H7.5C7.03976 13.3333 6.66667 12.9602 6.66667 12.5V7.5C6.66667 7.03976 7.03976 6.66667 7.5 6.66667Z" stroke="var(--stroke-0, #1E729C)" stroke-width="1.5" stroke-linecap="round" stroke-linejoin="round"/>
</g>
<defs>
<clipPath id="clip0_0_560">
<rect width="20" height="20" fill="white"/>
</clipPath>
</defs>
</svg>
