<svg preserveAspectRatio="none" width="100%" height="100%" overflow="visible" style="display: block;" viewBox="0 0 20 20" fill="none" xmlns="http://www.w3.org/2000/svg">
<g id="add_triangle">
<path id="Vector" d="M2.55292 17.6246C2.1325 17.6246 1.82194 17.4476 1.62125 17.0935C1.42056 16.7395 1.42208 16.3812 1.62583 16.0185L9.07792 3.13229C9.18111 2.95618 9.31569 2.825 9.48167 2.73875C9.64764 2.65236 9.81951 2.60917 9.99729 2.60917C10.1751 2.60917 10.3477 2.65236 10.5152 2.73875C10.6826 2.825 10.8199 2.95618 10.9271 3.13229L18.3742 16.0185C18.5779 16.3812 18.5794 16.7395 18.3787 17.0935C18.1781 17.4476 17.8675 17.6246 17.4471 17.6246H2.55292ZM3.10958 16.24H16.8954L10 4.30625L3.10958 16.24ZM9.31021 13.2106V14.25C9.31021 14.4433 9.37708 14.6066 9.51083 14.7398C9.64472 14.8731 9.80986 14.9398 10.0062 14.9398C10.2025 14.9398 10.3663 14.8731 10.4977 14.7398C10.6291 14.6066 10.6948 14.4433 10.6948 14.25V13.2106H11.75C11.9447 13.2106 12.1092 13.1436 12.2433 13.0096C12.3776 12.8754 12.4448 12.7111 12.4448 12.5167C12.4448 12.3222 12.3776 12.1585 12.2433 12.0256C12.1092 11.8926 11.9447 11.826 11.75 11.826H10.6948V10.7708C10.6948 10.5761 10.6278 10.4117 10.4938 10.2775C10.3597 10.1432 10.1956 10.076 10.0012 10.076C9.80319 10.076 9.63854 10.1432 9.50729 10.2775C9.3759 10.4117 9.31021 10.5761 9.31021 10.7708V11.826H8.26C8.06292 11.826 7.89785 11.8934 7.76479 12.0281C7.63174 12.1628 7.56521 12.328 7.56521 12.5235C7.56521 12.719 7.63174 12.8823 7.76479 13.0135C7.89785 13.1449 8.06292 13.2106 8.26 13.2106H9.31021Z" fill="var(--fill-0, #1E729C)"/>
</g>
</svg>
