<svg preserveAspectRatio="none" width="100%" height="100%" overflow="visible" style="display: block;" viewBox="0 0 20 20" fill="none" xmlns="http://www.w3.org/2000/svg">
<g id="shield">
<g id="Vector">
<mask id="path-1-inside-1_0_568" fill="white">
<path d="M10 18.3696C9.91611 18.3696 9.83757 18.3618 9.76437 18.3463C9.69104 18.3307 9.61937 18.3074 9.54937 18.2763C7.60215 17.6235 6.05861 16.4383 4.91875 14.7206C3.77875 13.0028 3.20875 11.1299 3.20875 9.10188V5.05562C3.20875 4.75174 3.2934 4.47701 3.46271 4.23146C3.63201 3.9859 3.85472 3.81 4.13083 3.70375L9.50271 1.69792C9.67215 1.63569 9.83792 1.60458 10 1.60458C10.1621 1.60458 10.3278 1.63569 10.4973 1.69792L15.8692 3.70375C16.1453 3.81 16.3688 3.9859 16.5398 4.23146C16.7108 4.47701 16.7962 4.75174 16.7962 5.05562V9.10188C16.7962 11.1299 16.2254 13.0028 15.0837 14.7206C13.9422 16.4383 12.3978 17.6235 10.4506 18.2763C10.3806 18.3074 10.309 18.3307 10.2356 18.3463C10.1624 18.3618 10.0839 18.3696 10 18.3696ZM10 16.981C11.5806 16.4366 12.871 15.4392 13.8715 13.989C14.8717 12.5385 15.3719 10.9108 15.3719 9.10563V5.05562L10 3.02896L4.62812 5.05812V9.10333C4.62812 10.91 5.12826 12.5385 6.12854 13.989C7.12896 15.4392 8.41944 16.4366 10 16.981Z"/>
</mask>
<path d="M9.76437 18.3463L10.0762 16.879L10.0756 16.8789L9.76437 18.3463ZM9.54937 18.2763L10.1586 16.9055L10.0936 16.8766L10.0261 16.854L9.54937 18.2763ZM4.91875 14.7206L6.16858 13.8912L6.16856 13.8912L4.91875 14.7206ZM4.13083 3.70375L3.60612 2.29852L3.59911 2.30114L3.59213 2.30382L4.13083 3.70375ZM9.50271 1.69792L8.98564 0.28983L8.978 0.292683L9.50271 1.69792ZM10.4973 1.69792L11.022 0.292662L11.0144 0.289851L10.4973 1.69792ZM15.8692 3.70375L16.4079 2.30382L16.4009 2.30114L16.3939 2.29852L15.8692 3.70375ZM15.0837 14.7206L13.8345 13.8903L13.8345 13.8904L15.0837 14.7206ZM10.4506 18.2763L9.97385 16.854L9.90641 16.8766L9.84142 16.9055L10.4506 18.2763ZM10.2356 18.3463L9.92437 16.8789L9.9238 16.879L10.2356 18.3463ZM10 16.981L9.51147 18.3993L10 18.5675L10.4885 18.3993L10 16.981ZM13.8715 13.989L15.1062 14.8407L15.1063 14.8406L13.8715 13.989ZM15.3719 5.05562H16.8719V4.01833L15.9014 3.65218L15.3719 5.05562ZM10 3.02896L10.5295 1.62552L9.99967 1.42563L9.46995 1.62573L10 3.02896ZM4.62812 5.05812L4.09807 3.6549L3.12812 4.02128V5.05812H4.62812ZM6.12854 13.989L4.89372 14.8406L4.89381 14.8407L6.12854 13.989ZM10 18.3696V16.8696C10.0085 16.8696 10.0354 16.8704 10.0762 16.879L9.76437 18.3463L9.45255 19.8135C9.63972 19.8533 9.82372 19.8696 10 19.8696V18.3696ZM9.76437 18.3463L10.0756 16.8789C10.1069 16.8855 10.135 16.8951 10.1586 16.9055L9.54937 18.2763L8.94017 19.647C9.10375 19.7197 9.27515 19.7759 9.45312 19.8136L9.76437 18.3463ZM9.54937 18.2763L10.0261 16.854C8.39668 16.3078 7.12464 15.3319 6.16858 13.8912L4.91875 14.7206L3.66892 15.55C4.99258 17.5446 6.80762 18.9392 9.0726 19.6985L9.54937 18.2763ZM4.91875 14.7206L6.16856 13.8912C5.18885 12.4149 4.70875 10.8297 4.70875 9.10188H3.20875H1.70875C1.70875 11.4302 2.36865 13.5908 3.66894 15.5501L4.91875 14.7206ZM3.20875 9.10188H4.70875V5.05562H3.20875H1.70875V9.10188H3.20875ZM3.20875 5.05562H4.70875C4.70875 5.04948 4.70916 5.04799 4.70882 5.05032C4.70847 5.05274 4.70758 5.05737 4.70573 5.06338C4.70387 5.06941 4.70166 5.07483 4.69959 5.07907C4.69754 5.08326 4.69648 5.08458 4.69763 5.08291L3.46271 4.23146L2.22779 3.38001C1.88241 3.88093 1.70875 4.45373 1.70875 5.05562H3.20875ZM3.46271 4.23146L4.69763 5.08291C4.70011 5.07931 4.70039 5.07941 4.69803 5.08195C4.69562 5.08455 4.6917 5.08833 4.68645 5.09248C4.68119 5.09664 4.67621 5.09988 4.67227 5.10211C4.66839 5.1043 4.66711 5.10461 4.66954 5.10368L4.13083 3.70375L3.59213 2.30382C3.03155 2.51954 2.56713 2.88784 2.22779 3.38001L3.46271 4.23146ZM4.13083 3.70375L4.65554 5.10898L10.0274 3.10315L9.50271 1.69792L8.978 0.292683L3.60612 2.29852L4.13083 3.70375ZM9.50271 1.69792L10.0198 3.10598C10.0318 3.10158 10.0352 3.10135 10.0308 3.10218C10.0261 3.10305 10.0155 3.10458 10 3.10458V1.60458V0.104584C9.6426 0.104584 9.30198 0.173691 8.98565 0.289851L9.50271 1.69792ZM10 1.60458V3.10458C9.98454 3.10458 9.97386 3.10305 9.96919 3.10218C9.96477 3.10135 9.96823 3.10158 9.98023 3.10598L10.4973 1.69792L11.0144 0.289851C10.698 0.173691 10.3574 0.104584 10 0.104584V1.60458ZM10.4973 1.69792L9.97258 3.10315L15.3445 5.10898L15.8692 3.70375L16.3939 2.29852L11.022 0.292683L10.4973 1.69792ZM15.8692 3.70375L15.3305 5.10368C15.3331 5.1047 15.3322 5.10455 15.3288 5.10263C15.3254 5.10068 15.321 5.09782 15.3163 5.09417C15.3117 5.09053 15.3084 5.08734 15.3066 5.08543C15.3049 5.08358 15.3058 5.08421 15.3088 5.08856L16.5398 4.23146L17.7708 3.37435C17.4306 2.88571 16.9672 2.51905 16.4079 2.30382L15.8692 3.70375ZM16.5398 4.23146L15.3088 5.08856C15.3099 5.09022 15.3088 5.08876 15.3066 5.08429C15.3043 5.07976 15.3019 5.07392 15.2999 5.06735C15.2978 5.06079 15.2968 5.05553 15.2963 5.05241C15.2959 5.04938 15.2962 5.05017 15.2962 5.05562H16.7962H18.2962C18.2962 4.45038 18.1198 3.87559 17.7708 3.37435L16.5398 4.23146ZM16.7962 5.05562H15.2962V9.10188H16.7962H18.2962V5.05562H16.7962ZM16.7962 9.10188H15.2962C15.2962 10.8292 14.8156 12.4141 13.8345 13.8903L15.0837 14.7206L16.333 15.5509C17.6352 13.5915 18.2962 11.4306 18.2962 9.10188H16.7962ZM15.0837 14.7206L13.8345 13.8904C12.8767 15.3316 11.6035 16.3077 9.97385 16.854L10.4506 18.2763L10.9274 19.6985C13.1922 18.9392 15.0078 17.5449 16.333 15.5509L15.0837 14.7206ZM10.4506 18.2763L9.84142 16.9055C9.865 16.8951 9.89307 16.8855 9.92437 16.8789L10.2356 18.3463L10.5469 19.8136C10.7248 19.7759 10.8963 19.7197 11.0598 19.647L10.4506 18.2763ZM10.2356 18.3463L9.9238 16.879C9.96458 16.8704 9.9915 16.8696 10 16.8696V18.3696V19.8696C10.1763 19.8696 10.3603 19.8533 10.5474 19.8135L10.2356 18.3463ZM10 16.981L10.4885 18.3993C12.3889 17.7447 13.9344 16.5395 15.1062 14.8407L13.8715 13.989L12.6367 13.1372C11.8077 14.339 10.7722 15.1285 9.51147 15.5628L10 16.981ZM13.8715 13.989L15.1063 14.8406C16.2837 13.1333 16.8719 11.207 16.8719 9.10563H15.3719H13.8719C13.8719 10.6145 13.4598 11.9438 12.6366 13.1374L13.8715 13.989ZM15.3719 9.10563H16.8719V5.05562H15.3719H13.8719V9.10563H15.3719ZM15.3719 5.05562L15.9014 3.65218L10.5295 1.62552L10 3.02896L9.47052 4.4324L14.8424 6.45907L15.3719 5.05562ZM10 3.02896L9.46995 1.62573L4.09807 3.6549L4.62812 5.05812L5.15818 6.46135L10.5301 4.43218L10 3.02896ZM4.62812 5.05812H3.12812V9.10333H4.62812H6.12812V5.05812H4.62812ZM4.62812 9.10333H3.12812C3.12812 11.206 3.71613 13.133 4.89372 14.8406L6.12854 13.989L7.36336 13.1374C6.5404 11.9441 6.12812 10.614 6.12812 9.10333H4.62812ZM6.12854 13.989L4.89381 14.8407C6.06565 16.5395 7.61112 17.7447 9.51147 18.3993L10 16.981L10.4885 15.5628C9.22776 15.1285 8.19227 14.339 7.36327 13.1372L6.12854 13.989Z" fill="var(--stroke-0, #1E729C)" mask="url(#path-1-inside-1_0_568)"/>
</g>
</g>
</svg>
