<svg preserveAspectRatio="none" width="100%" height="100%" overflow="visible" style="display: block;" viewBox="0 0 20 20" fill="none" xmlns="http://www.w3.org/2000/svg">
<g id="water_drop">
<g id="Vector">
<mask id="path-1-inside-1_0_532" fill="white">
<path d="M10 18.4579C8.06222 18.4579 6.4459 17.7931 5.15104 16.4635C3.85618 15.1338 3.20875 13.4793 3.20875 11.5C3.20875 10.6443 3.39771 9.78979 3.77562 8.93646C4.1534 8.08299 4.63778 7.25264 5.22875 6.44542C5.81958 5.63819 6.47319 4.86812 7.18958 4.13521C7.90583 3.40229 8.60604 2.73014 9.29021 2.11875C9.40076 2.02542 9.515 1.95889 9.63292 1.91917C9.75069 1.87944 9.87326 1.85958 10.0006 1.85958C10.128 1.85958 10.2503 1.87944 10.3677 1.91917C10.4852 1.95889 10.5992 2.02542 10.7098 2.11875C11.394 2.73014 12.0942 3.40229 12.8104 4.13521C13.5268 4.86812 14.1804 5.63819 14.7712 6.44542C15.3622 7.25264 15.8474 8.08299 16.2269 8.93646C16.6065 9.78979 16.7962 10.6443 16.7962 11.5C16.7962 13.4793 16.148 15.1338 14.8515 16.4635C13.5549 17.7931 11.9378 18.4579 10 18.4579ZM10.0006 17.0385C11.5424 17.0385 12.8231 16.5113 13.8427 15.4567C14.8622 14.4022 15.3719 13.0833 15.3719 11.5C15.3719 10.4194 14.9142 9.18868 13.999 7.80771C13.0835 6.42688 11.7506 4.95701 10 3.39812C8.24944 4.95701 6.91646 6.42688 6.00104 7.80771C5.08576 9.18868 4.62812 10.4194 4.62812 11.5C4.62812 13.0833 5.13812 14.4022 6.15812 15.4567C7.17799 16.5113 8.45882 17.0385 10.0006 17.0385ZM9.98917 15.6467C10.2214 15.6467 10.4015 15.6044 10.5294 15.52C10.6574 15.4356 10.7215 15.3134 10.7215 15.1535C10.7215 14.9908 10.6583 14.8635 10.5319 14.7719C10.4055 14.6803 10.2176 14.6346 9.96833 14.6346C9.36833 14.6346 8.78285 14.4522 8.21187 14.0875C7.64104 13.7226 7.27389 13.0949 7.11042 12.2042C7.08264 12.076 7.01771 11.9695 6.91562 11.8848C6.8134 11.8001 6.70007 11.7577 6.57562 11.7577C6.40687 11.7577 6.27819 11.8201 6.18958 11.9448C6.10097 12.0695 6.07056 12.1993 6.09833 12.3342C6.30667 13.5042 6.8 14.3488 7.57833 14.8679C8.35667 15.3871 9.16028 15.6467 9.98917 15.6467Z"/>
</mask>
<path d="M5.15104 16.4635L4.07639 17.51L4.07644 17.5101L5.15104 16.4635ZM3.77562 8.93646L5.14714 9.54386L5.14726 9.54359L3.77562 8.93646ZM5.22875 6.44542L6.43906 7.3315L6.43916 7.33136L5.22875 6.44542ZM7.18958 4.13521L8.26227 5.1837L8.26237 5.1836L7.18958 4.13521ZM9.29021 2.11875L8.32259 0.972579L8.30645 0.986201L8.29071 1.00027L9.29021 2.11875ZM9.63292 1.91917L10.1118 3.34068L10.1123 3.34051L9.63292 1.91917ZM10.3677 1.91917L9.88681 3.33999L9.88732 3.34016L10.3677 1.91917ZM10.7098 2.11875L11.7093 1.00027L11.6935 0.986201L11.6774 0.972579L10.7098 2.11875ZM12.8104 4.13521L11.7376 5.1836L11.7377 5.1837L12.8104 4.13521ZM14.7712 6.44542L13.5608 7.33136L13.5609 7.3315L14.7712 6.44542ZM16.2269 8.93646L14.8562 9.54583L14.8563 9.5461L16.2269 8.93646ZM14.8515 16.4635L15.9254 17.5108L15.9254 17.5107L14.8515 16.4635ZM13.8427 15.4567L14.9211 16.4993L14.9211 16.4993L13.8427 15.4567ZM13.999 7.80771L15.2493 6.97903L15.2492 6.97888L13.999 7.80771ZM10 3.39812L10.9976 2.27791L10 1.38957L9.00244 2.27791L10 3.39812ZM6.00104 7.80771L4.75082 6.97888L4.75073 6.97903L6.00104 7.80771ZM6.15812 15.4567L7.23639 14.4139L7.23625 14.4138L6.15812 15.4567ZM10.5294 15.52L9.7036 14.2678L9.70298 14.2682L10.5294 15.52ZM10.5319 14.7719L11.4125 13.5576L11.4117 13.557L10.5319 14.7719ZM8.21187 14.0875L7.40404 15.3514L7.40439 15.3516L8.21187 14.0875ZM7.11042 12.2042L8.58577 11.9334L8.58146 11.9099L8.5764 11.8865L7.11042 12.2042ZM6.91562 11.8848L7.87358 10.7305L7.87281 10.7299L6.91562 11.8848ZM6.09833 12.3342L7.5751 12.0712L7.57156 12.0513L7.56749 12.0316L6.09833 12.3342ZM10 18.4579V16.9579C8.44695 16.9579 7.2245 16.4427 6.22564 15.417L5.15104 16.4635L4.07644 17.5101C5.6673 19.1436 7.67749 19.9579 10 19.9579V18.4579ZM5.15104 16.4635L6.22569 15.4171C5.22292 14.3873 4.70875 13.117 4.70875 11.5H3.20875H1.70875C1.70875 13.8416 2.48944 15.8803 4.07639 17.51L5.15104 16.4635ZM3.20875 11.5H4.70875C4.70875 10.8719 4.84619 10.2234 5.14714 9.54386L3.77562 8.93646L2.40411 8.32905C1.94923 9.35616 1.70875 10.4167 1.70875 11.5H3.20875ZM3.77562 8.93646L5.14726 9.54359C5.47844 8.7954 5.9072 8.05799 6.43906 7.3315L5.22875 6.44542L4.01843 5.55934C3.36836 6.44729 2.82837 7.37057 2.40399 8.32932L3.77562 8.93646ZM5.22875 6.44542L6.43916 7.33136C6.98698 6.58291 7.59437 5.86701 8.26227 5.1837L7.18958 4.13521L6.1169 3.08671C5.35202 3.86924 4.65218 4.69348 4.01833 5.55947L5.22875 6.44542ZM7.18958 4.13521L8.26237 5.1836C8.95767 4.47212 9.63346 3.82367 10.2897 3.23723L9.29021 2.11875L8.29071 1.00027C7.57862 1.63661 6.85399 2.33246 6.1168 3.08682L7.18958 4.13521ZM9.29021 2.11875L10.2578 3.26492C10.2474 3.27376 10.1992 3.31121 10.1118 3.34068L9.63292 1.91917L9.15406 0.497656C8.83075 0.606567 8.55417 0.777072 8.32259 0.972579L9.29021 2.11875ZM9.63292 1.91917L10.1123 3.34051C10.0718 3.35416 10.0322 3.35958 10.0006 3.35958V1.85958V0.359583C9.71434 0.359583 9.4296 0.404725 9.15355 0.497827L9.63292 1.91917ZM10.0006 1.85958V3.35958C9.96907 3.35958 9.92869 3.35416 9.88681 3.33999L10.3677 1.91917L10.8486 0.498343C10.572 0.404725 10.2869 0.359583 10.0006 0.359583V1.85958ZM10.3677 1.91917L9.88732 3.34016C9.79957 3.3105 9.75179 3.27305 9.74217 3.26492L10.7098 2.11875L11.6774 0.972579C11.4467 0.777787 11.1709 0.607282 10.8481 0.49817L10.3677 1.91917ZM10.7098 2.11875L9.71029 3.23723C10.3665 3.82367 11.0423 4.47212 11.7376 5.1836L12.8104 4.13521L13.8832 3.08682C13.146 2.33246 12.4214 1.63661 11.7093 1.00027L10.7098 2.11875ZM12.8104 4.13521L11.7377 5.1837C12.4056 5.86701 13.013 6.58291 13.5608 7.33136L14.7712 6.44542L15.9817 5.55947C15.3478 4.69348 14.648 3.86924 13.8831 3.08671L12.8104 4.13521ZM14.7712 6.44542L13.5609 7.3315C14.0932 8.05854 14.5232 8.79669 14.8562 9.54583L16.2269 8.93646L17.5975 8.32709C17.1717 7.36928 16.6312 6.44674 15.9816 5.55934L14.7712 6.44542ZM16.2269 8.93646L14.8563 9.5461C15.1585 10.2253 15.2962 10.8729 15.2962 11.5H16.7962H18.2962C18.2962 10.4157 18.0545 9.35433 17.5974 8.32682L16.2269 8.93646ZM16.7962 11.5H15.2962C15.2962 13.1164 14.7817 14.3865 13.7775 15.4164L14.8515 16.4635L15.9254 17.5107C17.5143 15.8812 18.2962 13.8422 18.2962 11.5H16.7962ZM14.8515 16.4635L13.7775 15.4163C12.7768 16.4426 11.5531 16.9579 10 16.9579V18.4579V19.9579C12.3225 19.9579 14.3331 19.1436 15.9254 17.5108L14.8515 16.4635ZM10.0006 17.0385V18.5385C11.9258 18.5385 13.6032 17.8625 14.9211 16.4993L13.8427 15.4567L12.7643 14.4141C12.0431 15.16 11.1591 15.5385 10.0006 15.5385V17.0385ZM13.8427 15.4567L14.9211 16.4993C16.2337 15.1416 16.8719 13.4384 16.8719 11.5H15.3719H13.8719C13.8719 12.7283 13.4906 13.6628 12.7643 14.4141L13.8427 15.4567ZM15.3719 11.5H16.8719C16.8719 10.0064 16.2467 8.4839 15.2493 6.97903L13.999 7.80771L12.7486 8.63639C13.5818 9.89346 13.8719 10.8325 13.8719 11.5H15.3719ZM13.999 7.80771L15.2492 6.97888C14.2397 5.45624 12.8081 3.89023 10.9976 2.27791L10 3.39812L9.00244 4.51834C10.693 6.0238 11.9273 7.39751 12.7487 8.63654L13.999 7.80771ZM10 3.39812L9.00244 2.27791C7.19189 3.89023 5.76025 5.45624 4.75082 6.97888L6.00104 7.80771L7.25126 8.63654C8.07267 7.39751 9.307 6.0238 10.9976 4.51834L10 3.39812ZM6.00104 7.80771L4.75073 6.97903C3.75333 8.4839 3.12812 10.0064 3.12812 11.5H4.62812H6.12812C6.12812 10.8325 6.4182 9.89346 7.25136 8.63639L6.00104 7.80771ZM4.62812 11.5H3.12812C3.12812 13.4386 3.76671 15.1419 5.08 16.4996L6.15812 15.4567L7.23625 14.4138C6.50953 13.6625 6.12812 12.728 6.12812 11.5H4.62812ZM6.15812 15.4567L5.07986 16.4994C6.39804 17.8625 8.07546 18.5385 10.0006 18.5385V17.0385V15.5385C8.84218 15.5385 7.95793 15.16 7.23639 14.4139L6.15812 15.4567ZM9.98917 15.6467V17.1467C10.3739 17.1467 10.8866 17.0815 11.3558 16.7718L10.5294 15.52L9.70298 14.2682C9.81378 14.195 9.90823 14.1658 9.95596 14.1546C10.0024 14.1437 10.0179 14.1467 9.98917 14.1467V15.6467ZM10.5294 15.52L11.3551 16.7722C11.925 16.3965 12.2215 15.7921 12.2215 15.1535H10.7215H9.22146C9.22146 15.0296 9.24757 14.8543 9.34488 14.6687C9.44352 14.4805 9.57996 14.3493 9.7036 14.2678L10.5294 15.52ZM10.7215 15.1535H12.2215C12.2215 14.5343 11.9471 13.9453 11.4125 13.5576L10.5319 14.7719L9.6512 15.9861C9.53805 15.9041 9.41725 15.7777 9.33066 15.6033C9.24517 15.4312 9.22146 15.2698 9.22146 15.1535H10.7215ZM10.5319 14.7719L11.4117 13.557C10.9173 13.199 10.3594 13.1346 9.96833 13.1346V14.6346V16.1346C10.0059 16.1346 9.99127 16.1385 9.94115 16.1263C9.8898 16.1138 9.77917 16.0788 9.65208 15.9868L10.5319 14.7719ZM9.96833 14.6346V13.1346C9.69029 13.1346 9.38124 13.0546 9.01936 12.8234L8.21187 14.0875L7.40439 15.3516C8.18445 15.8499 9.04638 16.1346 9.96833 16.1346V14.6346ZM8.21187 14.0875L9.01971 12.8236C8.90618 12.7511 8.70052 12.5586 8.58577 11.9334L7.11042 12.2042L5.63506 12.4749C5.84725 13.6311 6.3759 14.6942 7.40404 15.3514L8.21187 14.0875ZM7.11042 12.2042L8.5764 11.8865C8.47671 11.4265 8.2306 11.0268 7.87358 10.7305L6.91562 11.8848L5.95767 13.0391C5.88947 12.9825 5.81939 12.9062 5.76028 12.8092C5.70106 12.7121 5.66417 12.6129 5.64444 12.5218L7.11042 12.2042ZM6.91562 11.8848L7.87281 10.7299C7.52088 10.4382 7.07399 10.2577 6.57562 10.2577V11.7577V13.2577C6.46373 13.2577 6.3449 13.2379 6.22878 13.1945C6.11395 13.1516 6.02383 13.0939 5.95844 13.0397L6.91562 11.8848ZM6.57562 11.7577V10.2577C5.97937 10.2577 5.36887 10.5101 4.96678 11.076L6.18958 11.9448L7.41239 12.8136C7.32114 12.942 7.18517 13.0678 7.00671 13.1543C6.83357 13.2382 6.67733 13.2577 6.57562 13.2577V11.7577ZM6.18958 11.9448L4.96678 11.076C4.66676 11.4983 4.5076 12.0466 4.62917 12.6368L6.09833 12.3342L7.56749 12.0316C7.596 12.17 7.59682 12.324 7.56074 12.4779C7.52555 12.6281 7.46418 12.7407 7.41239 12.8136L6.18958 11.9448ZM6.09833 12.3342L4.62156 12.5971C4.88107 14.0545 5.54137 15.3123 6.74597 16.1158L7.57833 14.8679L8.41069 13.62C8.05863 13.3852 7.73226 12.9538 7.5751 12.0712L6.09833 12.3342ZM7.57833 14.8679L6.74597 16.1158C7.73797 16.7775 8.8269 17.1467 9.98917 17.1467V15.6467V14.1467C9.49366 14.1467 8.97536 13.9967 8.41069 13.62L7.57833 14.8679Z" fill="var(--stroke-0, #1E729C)" mask="url(#path-1-inside-1_0_532)"/>
</g>
</g>
</svg>
