<svg preserveAspectRatio="none" width="100%" height="100%" overflow="visible" style="display: block;" viewBox="0 0 20 20" fill="none" xmlns="http://www.w3.org/2000/svg">
<g id="construction">
<path id="Vector" d="M15.4267 16.9806L10.7708 12.3506L12.0381 11.0783L16.6937 15.7342C16.8704 15.9149 16.9588 16.1236 16.9588 16.3604C16.9588 16.5972 16.8704 16.8047 16.6937 16.9829C16.5172 17.1613 16.306 17.2504 16.0602 17.2504C15.8145 17.2504 15.6033 17.1605 15.4267 16.9806ZM3.22292 16.9829C3.04625 16.8047 2.95792 16.5927 2.95792 16.3469C2.95792 16.1012 3.04625 15.89 3.22292 15.7133L8.67021 10.2658L6.42625 8.02667L6.38458 8.06833C6.25958 8.19278 6.11458 8.255 5.94958 8.255C5.78458 8.255 5.63792 8.19278 5.50958 8.06833L5.08521 7.64396V9.56021C5.08521 9.7191 5.01007 9.82611 4.85979 9.88125C4.70965 9.93653 4.57931 9.90896 4.46875 9.79854L2.00042 7.33021C1.89 7.21965 1.86236 7.08931 1.9175 6.93917C1.97278 6.78889 2.07986 6.71375 2.23875 6.71375H4.17562L3.69292 6.23104C3.56125 6.09938 3.49542 5.94354 3.49542 5.76354C3.49542 5.58368 3.56292 5.42792 3.69792 5.29625L5.99521 2.99458C6.23757 2.75181 6.50347 2.58708 6.79292 2.50042C7.08236 2.41375 7.39868 2.37042 7.74187 2.37042C8.02687 2.37042 8.27854 2.40861 8.49688 2.485C8.71521 2.56139 8.94076 2.68653 9.17354 2.86042C9.25285 2.93653 9.29597 3.02375 9.30292 3.12208C9.30986 3.22028 9.27368 3.3091 9.19437 3.38854L7.235 5.34542L7.7925 5.90375C7.9175 6.02903 7.98 6.17521 7.98 6.34229C7.98 6.50937 7.9175 6.65514 7.7925 6.77958L7.73 6.84208L9.91167 9.02437L12.4533 6.48771C12.3456 6.31049 12.2604 6.1041 12.1979 5.86854C12.1354 5.63299 12.1042 5.38438 12.1042 5.12271C12.1042 4.37229 12.3771 3.72333 12.9229 3.17583C13.4687 2.62833 14.1169 2.35458 14.8673 2.35458C14.9833 2.35458 15.0897 2.35965 15.1867 2.36979C15.2836 2.37979 15.3693 2.39826 15.4437 2.42521C15.5383 2.47243 15.5957 2.54674 15.6158 2.64812C15.6361 2.74951 15.6082 2.83826 15.5321 2.91438L14.321 4.13042C14.2449 4.20708 14.2069 4.29361 14.2069 4.39C14.2069 4.48625 14.2449 4.57243 14.321 4.64854L15.3256 5.65312C15.3984 5.72924 15.4835 5.76729 15.581 5.76729C15.6785 5.76729 15.7661 5.72924 15.8438 5.65312L17.0131 4.47875C17.0926 4.3993 17.1934 4.36708 17.3156 4.38208C17.4378 4.39694 17.5242 4.45806 17.5748 4.56542C17.6051 4.65667 17.6244 4.75049 17.6327 4.84688C17.6412 4.94326 17.6454 5.0491 17.6454 5.16438C17.6454 5.91715 17.3706 6.56583 16.8208 7.11042C16.2713 7.65514 15.6198 7.9275 14.8665 7.9275C14.6203 7.9275 14.4087 7.91097 14.2315 7.87792C14.0542 7.84486 13.8909 7.79528 13.7415 7.72917L4.47417 17.0015C4.29347 17.1813 4.08389 17.2678 3.84542 17.2608C3.60694 17.2539 3.39944 17.1613 3.22292 16.9829Z" fill="var(--fill-0, #1E729C)"/>
</g>
</svg>
