<svg preserveAspectRatio="none" width="100%" height="100%" overflow="visible" style="display: block;" viewBox="0 0 40 40" fill="none" xmlns="http://www.w3.org/2000/svg">
<g id="eye_tracking">
<path id="Vector" d="M4.25625 38.5825C3.48958 38.5825 2.82486 38.301 2.26208 37.7379C1.69903 37.1751 1.4175 36.5104 1.4175 35.7437V32.0179C1.4175 31.6174 1.55458 31.2807 1.82875 31.0079C2.10292 30.7351 2.44139 30.5987 2.84417 30.5987C3.24694 30.5987 3.58306 30.7351 3.8525 31.0079C4.12167 31.2807 4.25625 31.6174 4.25625 32.0179V35.7437H7.98208C8.38264 35.7437 8.7193 35.8808 8.99208 36.155C9.26486 36.4292 9.40125 36.7676 9.40125 37.1704C9.40125 37.5732 9.26486 37.9092 8.99208 38.1783C8.7193 38.4478 8.38264 38.5825 7.98208 38.5825H4.25625ZM35.7537 38.5825H32.0279C31.6274 38.5825 31.2907 38.4454 31.0179 38.1712C30.7451 37.8971 30.6087 37.5586 30.6087 37.1558C30.6087 36.7531 30.7451 36.4169 31.0179 36.1475C31.2907 35.8783 31.6274 35.7437 32.0279 35.7437H35.7537V32.0179C35.7537 31.6174 35.8908 31.2807 36.165 31.0079C36.4392 30.7351 36.7776 30.5987 37.1804 30.5987C37.5832 30.5987 37.9192 30.7351 38.1883 31.0079C38.4578 31.2807 38.5925 31.6174 38.5925 32.0179V35.7437C38.5925 36.5104 38.311 37.1751 37.7479 37.7379C37.1851 38.301 36.5204 38.5825 35.7537 38.5825ZM19.9554 30.8342C16.9162 30.8342 14.1335 30.0339 11.6071 28.4333C9.08042 26.8328 7.06097 24.6297 5.54875 21.8242C5.39014 21.5478 5.27806 21.2561 5.2125 20.9492C5.14694 20.6422 5.11417 20.3292 5.11417 20.01C5.11417 19.685 5.15042 19.3689 5.22292 19.0617C5.29542 18.7542 5.40403 18.4589 5.54875 18.1758C7.06097 15.3425 9.07889 13.1239 11.6025 11.52C14.1261 9.91611 16.9081 9.11417 19.9483 9.11417C22.9886 9.11417 25.7808 9.91444 28.325 11.515C30.8692 13.1156 32.8974 15.3325 34.4096 18.1658C34.5682 18.4489 34.6819 18.746 34.7508 19.0571C34.8197 19.3682 34.8542 19.6792 34.8542 19.99C34.8542 20.3011 34.8181 20.6147 34.7458 20.9308C34.6736 21.2469 34.5582 21.5481 34.3996 21.8342C32.894 24.6397 30.87 26.8411 28.3275 28.4383C25.785 30.0356 22.9943 30.8342 19.9554 30.8342ZM19.9521 28.0654C22.5262 28.0654 24.9228 27.3411 27.1417 25.8925C29.3606 24.4442 31.0567 22.4783 32.23 19.995C31.0567 17.5117 29.361 15.5389 27.1429 14.0767C24.9249 12.6144 22.5267 11.8833 19.9483 11.8833C17.375 11.8833 14.9883 12.6144 12.7883 14.0767C10.5883 15.5389 8.90167 17.5117 7.72833 19.995C8.90167 22.4783 10.5888 24.4442 12.7896 25.8925C14.9904 27.3411 17.3779 28.0654 19.9521 28.0654ZM19.9992 25.52C21.5342 25.52 22.85 24.9782 23.9467 23.8946C25.0433 22.811 25.5917 21.5097 25.5917 19.9908C25.5917 18.4719 25.0443 17.1668 23.9496 16.0754C22.8549 14.984 21.536 14.4383 19.9929 14.4383C18.4632 14.4383 17.1669 14.9797 16.1042 16.0625C15.0414 17.1453 14.51 18.4568 14.51 19.9971C14.51 21.5374 15.0444 22.8429 16.1133 23.9137C17.1825 24.9846 18.4778 25.52 19.9992 25.52ZM19.9929 22.8304C19.204 22.8304 18.5362 22.5553 17.9896 22.005C17.4429 21.4544 17.1696 20.786 17.1696 19.9996C17.1696 19.2129 17.4426 18.5376 17.9887 17.9737C18.5349 17.4099 19.2033 17.1279 19.9942 17.1279C20.785 17.1279 21.4607 17.4072 22.0212 17.9658C22.5821 18.5244 22.8625 19.2026 22.8625 20.0004C22.8625 20.7871 22.5835 21.4554 22.0254 22.0054C21.4674 22.5554 20.7899 22.8304 19.9929 22.8304ZM38.5925 4.24625V7.97208C38.5925 8.37264 38.4554 8.70931 38.1812 8.98208C37.9071 9.25486 37.5686 9.39125 37.1658 9.39125C36.7631 9.39125 36.4269 9.25486 36.1575 8.98208C35.8883 8.70931 35.7537 8.37264 35.7537 7.97208V4.24625H32.0279C31.6274 4.24625 31.2907 4.10917 31.0179 3.835C30.7451 3.56083 30.6087 3.22236 30.6087 2.81958C30.6087 2.4168 30.7451 2.08083 31.0179 1.81167C31.2907 1.54222 31.6274 1.4075 32.0279 1.4075H35.7537C36.5204 1.4075 37.1851 1.68903 37.7479 2.25208C38.311 2.81486 38.5925 3.47958 38.5925 4.24625ZM4.25625 1.4075H7.98208C8.38264 1.4075 8.7193 1.54458 8.99208 1.81875C9.26486 2.09292 9.40125 2.43139 9.40125 2.83417C9.40125 3.23694 9.26486 3.57305 8.99208 3.8425C8.7193 4.11166 8.38264 4.24625 7.98208 4.24625H4.25625V7.97208C4.25625 8.37264 4.11917 8.70931 3.845 8.98208C3.57083 9.25486 3.23236 9.39125 2.82958 9.39125C2.42681 9.39125 2.09083 9.25486 1.82167 8.98208C1.55222 8.70931 1.4175 8.37264 1.4175 7.97208V4.24625C1.4175 3.47958 1.69903 2.81486 2.26208 2.25208C2.82486 1.68903 3.48958 1.4075 4.25625 1.4075Z" fill="var(--fill-0, #1E729C)"/>
</g>
</svg>
