<svg preserveAspectRatio="none" width="100%" height="100%" overflow="visible" style="display: block;" viewBox="0 0 40 40" fill="none" xmlns="http://www.w3.org/2000/svg">
<g id="leaf">
<path id="Vector" d="M3.33333 35C3.33333 30 6.41667 26.0667 11.8 25C15.8333 24.2 20 21.6667 21.6667 20M18.3333 33.3333C15.4067 33.3422 12.5837 32.2508 10.4242 30.2757C8.2646 28.3006 6.92624 25.5859 6.67452 22.6702C6.42281 19.7544 7.27612 16.8506 9.06521 14.5346C10.8543 12.2185 13.4485 10.6595 16.3333 10.1667C25.8333 8.33333 28.3333 7.46667 31.6666 3.33333C33.3333 6.66667 35 10.3 35 16.6667C35 25.8333 27.0333 33.3333 18.3333 33.3333Z" stroke="var(--stroke-0, #1E729C)" stroke-width="3" stroke-linecap="round" stroke-linejoin="round"/>
</g>
</svg>
