<svg preserveAspectRatio="none" width="100%" height="100%" overflow="visible" style="display: block;" viewBox="0 0 40 40" fill="none" xmlns="http://www.w3.org/2000/svg">
<g id="e911_emergency">
<path id="Vector" d="M10 33.7321C9.59944 33.7321 9.26278 33.5949 8.99 33.3204C8.71694 33.0463 8.58042 32.7078 8.58042 32.305C8.58042 31.9025 8.71694 31.5665 8.99 31.2971C9.26278 31.0276 9.59944 30.8929 10 30.8929H11.1621L14.5925 19.6004C14.7789 18.9996 15.1174 18.5093 15.6079 18.1296C16.0982 17.7496 16.661 17.5596 17.2962 17.5596H22.7038C23.339 17.5596 23.9018 17.7496 24.3921 18.1296C24.8826 18.5093 25.2211 18.9996 25.4075 19.6004L28.8379 30.8929H30C30.4006 30.8929 30.7372 31.0301 31.01 31.3046C31.2831 31.5788 31.4196 31.9172 31.4196 32.32C31.4196 32.7225 31.2831 33.0585 31.01 33.3279C30.7372 33.5974 30.4006 33.7321 30 33.7321H10ZM14.1875 30.8929H25.8125L22.6621 20.3988H17.3379L14.1875 30.8929ZM18.5804 11.0208V6.02083C18.5804 5.62028 18.7176 5.28194 18.9921 5.00583C19.2663 4.72972 19.6047 4.59167 20.0075 4.59167C20.41 4.59167 20.746 4.72972 21.0154 5.00583C21.2849 5.28194 21.4196 5.62028 21.4196 6.02083V11.0208C21.4196 11.4214 21.2824 11.7581 21.0079 12.0308C20.7338 12.3039 20.3953 12.4404 19.9925 12.4404C19.59 12.4404 19.254 12.3039 18.9846 12.0308C18.7151 11.7581 18.5804 11.4214 18.5804 11.0208ZM27.7763 13.6775L31.3179 10.1358C31.6079 9.88056 31.9442 9.7475 32.3267 9.73667C32.7092 9.72611 33.0393 9.8625 33.3171 10.1458C33.6001 10.4292 33.7417 10.7607 33.7417 11.1404C33.7417 11.5201 33.6001 11.8517 33.3171 12.135L29.7754 15.7183C29.4921 16.0014 29.1589 16.1429 28.7758 16.1429C28.3928 16.1429 28.0596 16.0007 27.7763 15.7163C27.4865 15.4315 27.3417 15.0914 27.3417 14.6958C27.3417 14.3003 27.4865 13.9608 27.7763 13.6775ZM32.5417 21.9138H37.5417C37.9422 21.9138 38.2789 22.051 38.5517 22.3254C38.8247 22.5996 38.9613 22.9381 38.9613 23.3408C38.9613 23.7433 38.8247 24.0793 38.5517 24.3488C38.2789 24.6182 37.9422 24.7529 37.5417 24.7529H32.5417C32.1411 24.7529 31.8044 24.6157 31.5317 24.3413C31.2586 24.0671 31.1221 23.7286 31.1221 23.3258C31.1221 22.9233 31.2586 22.5874 31.5317 22.3179C31.8044 22.0485 32.1411 21.9138 32.5417 21.9138ZM10.2246 15.6767L6.68292 12.135C6.42764 11.8517 6.29472 11.5188 6.28417 11.1363C6.27333 10.7538 6.40958 10.4236 6.69292 10.1458C6.97625 9.85611 7.30778 9.71125 7.6875 9.71125C8.06722 9.71125 8.40208 9.85278 8.69208 10.1358L12.2654 13.6775C12.5488 13.9608 12.6904 14.294 12.6904 14.6771C12.6904 15.0601 12.5481 15.3933 12.2633 15.6767C11.9786 15.9664 11.6385 16.1096 11.2429 16.1063C10.8474 16.1029 10.5079 15.9597 10.2246 15.6767ZM2.45833 24.7529C2.05778 24.7529 1.72111 24.6157 1.44833 24.3413C1.17528 24.0671 1.03875 23.7286 1.03875 23.3258C1.03875 22.9233 1.17528 22.5874 1.44833 22.3179C1.72111 22.0485 2.05778 21.9138 2.45833 21.9138H7.45833C7.85889 21.9138 8.19722 22.051 8.47333 22.3254C8.74944 22.5996 8.8875 22.9381 8.8875 23.3408C8.8875 23.7433 8.74944 24.0793 8.47333 24.3488C8.19722 24.6182 7.85889 24.7529 7.45833 24.7529H2.45833Z" fill="var(--fill-0, #1E729C)"/>
</g>
</svg>
