<svg preserveAspectRatio="none" width="100%" height="100%" overflow="visible" style="display: block;" viewBox="0 0 20 20" fill="none" xmlns="http://www.w3.org/2000/svg">
<g id="chart-pie" clip-path="url(#clip0_0_613)">
<path id="Vector" d="M17.675 13.2417C17.1449 14.4955 16.3157 15.6002 15.2599 16.4595C14.2042 17.3187 12.954 17.9063 11.6187 18.1707C10.2835 18.4352 8.90372 18.3685 7.60015 17.9766C6.29659 17.5846 5.10889 16.8793 4.14088 15.9223C3.17288 14.9653 2.45404 13.7857 2.04723 12.4867C1.64041 11.1877 1.558 9.8088 1.8072 8.47059C2.05639 7.13238 2.62961 5.87559 3.47674 4.81009C4.32386 3.74459 5.4191 2.90283 6.6667 2.3584M17.5 9.99993C17.96 9.99993 18.3375 9.62577 18.2917 9.16827C18.0996 7.25507 17.2517 5.46718 15.892 4.1077C14.5322 2.74822 12.7441 1.9008 10.8309 1.7091C10.3725 1.66327 9.99919 2.04077 9.99919 2.50077V9.16743C9.99919 9.38845 10.087 9.60041 10.2433 9.75669C10.3995 9.91297 10.6115 10.0008 10.8325 10.0008L17.5 9.99993Z" stroke="var(--stroke-0, #1E729C)" stroke-width="2" stroke-linecap="round" stroke-linejoin="round"/>
</g>
<defs>
<clipPath id="clip0_0_613">
<rect width="20" height="20" fill="white"/>
</clipPath>
</defs>
</svg>
