<svg preserveAspectRatio="none" width="100%" height="100%" overflow="visible" style="display: block;" viewBox="0 0 20 20" fill="none" xmlns="http://www.w3.org/2000/svg">
<g id="ship" clip-path="url(#clip0_0_528)">
<path id="Vector" d="M10 8.4908V11.6666M10 8.4908C10.2331 8.4908 10.4636 8.5397 10.6766 8.63435L17.5 11.6668C17.5131 13.4253 17.0464 15.154 16.15 16.6668M10 8.4908C9.76689 8.4908 9.53633 8.5397 9.32329 8.63435L2.49996 11.6668C2.46138 14.0366 3.29472 16.3379 4.84163 18.1335M10 1.66667V4.16667M15.8333 10.8333V5.83333C15.8333 5.39131 15.6577 4.96738 15.3452 4.65482C15.0326 4.34226 14.6087 4.16667 14.1667 4.16667H5.83333C5.39131 4.16667 4.96738 4.34226 4.65482 4.65482C4.34226 4.96738 4.16667 5.39131 4.16667 5.83333V10.8333M1.66667 17.5C2.16667 17.9167 2.66667 18.3333 3.75 18.3333C5.83333 18.3333 5.83333 16.6667 7.91667 16.6667C9 16.6667 9.5 17.0833 10 17.5C10.5 17.9167 11 18.3333 12.0833 18.3333C14.1667 18.3333 14.1667 16.6667 16.25 16.6667C17.3333 16.6667 17.8333 17.0833 18.3333 17.5" stroke="var(--stroke-0, #1E729C)" stroke-width="1.5" stroke-linecap="round" stroke-linejoin="round"/>
</g>
<defs>
<clipPath id="clip0_0_528">
<rect width="20" height="20" fill="white"/>
</clipPath>
</defs>
</svg>
