<svg width="18" height="18" viewBox="0 0 18 18" fill="none" xmlns="http://www.w3.org/2000/svg">
<g clip-path="url(#clip0_10684_9068)">
<path d="M7.89131 7.36844L5.02174 2.39691M7.89131 9.85053L5.02174 14.8221M8.6087 15.7834V14.3486M8.6087 14.3486C11.7783 14.3486 14.3478 11.7791 14.3478 8.60946C14.3478 5.43983 11.7783 2.87033 8.6087 2.87033M8.6087 14.3486C5.43906 14.3486 2.86957 11.7791 2.86957 8.60946M8.6087 1.43555V2.87033M8.6087 2.87033C5.43906 2.87033 2.86957 5.43983 2.86957 8.60946M10.0435 8.60946H15.7826M10.0435 8.60946C10.0435 9.40187 9.4011 10.0442 8.6087 10.0442C7.81629 10.0442 7.17391 9.40187 7.17391 8.60946C7.17391 7.81705 7.81629 7.17468 8.6087 7.17468C9.4011 7.17468 10.0435 7.81705 10.0435 8.60946ZM12.1957 14.822L11.4783 13.5809M12.1957 2.39691L11.4783 3.638M1.43478 8.60946H2.86957M14.8213 12.1964L13.5803 11.479M14.8213 5.0225L13.5803 5.73989M2.39606 12.1964L3.63715 11.479M2.39606 5.0225L3.63715 5.73989" stroke="#2DA2DB" stroke-width="1.43478" stroke-linecap="round" stroke-linejoin="round"/>
</g>
<defs>
<clipPath id="clip0_10684_9068">
<rect width="17.2174" height="17.2174" fill="white"/>
</clipPath>
</defs>
</svg>
