<svg width="40" height="40" viewBox="0 0 40 40" fill="none" xmlns="http://www.w3.org/2000/svg">
<path d="M20 33.334V36.6673M20 3.33398V6.66732M28.3333 33.334V36.6673M28.3333 3.33398V6.66732M3.33333 20.0007H6.66666M3.33333 28.334H6.66666M3.33333 11.6673H6.66666M33.3333 20.0007H36.6667M33.3333 28.334H36.6667M33.3333 11.6673H36.6667M11.6667 33.334V36.6673M11.6667 3.33398V6.66732M9.99999 6.66732H30C31.8409 6.66732 33.3333 8.1597 33.3333 10.0007V30.0007C33.3333 31.8416 31.8409 33.334 30 33.334H9.99999C8.15905 33.334 6.66666 31.8416 6.66666 30.0007V10.0007C6.66666 8.1597 8.15905 6.66732 9.99999 6.66732ZM15 13.334H25C25.9205 13.334 26.6667 14.0802 26.6667 15.0007V25.0007C26.6667 25.9211 25.9205 26.6673 25 26.6673H15C14.0795 26.6673 13.3333 25.9211 13.3333 25.0007V15.0007C13.3333 14.0802 14.0795 13.334 15 13.334Z" stroke="#2DA2DB" stroke-width="3" stroke-linecap="round" stroke-linejoin="round"/>
</svg>
