<svg preserveAspectRatio="none" width="100%" height="100%" overflow="visible" style="display: block;" viewBox="0 0 24 24" fill="none" xmlns="http://www.w3.org/2000/svg">
<g id="analytics">
<path id="Vector" d="M7.8725 11.95C7.66083 11.95 7.48417 12.0218 7.3425 12.1655C7.20083 12.3093 7.13 12.4875 7.13 12.7V16.325C7.13 16.5375 7.20225 16.7156 7.34675 16.8592C7.49142 17.0031 7.66958 17.075 7.88125 17.075C8.09308 17.075 8.27083 17.0031 8.4145 16.8592C8.55817 16.7156 8.63 16.5375 8.63 16.325V12.7C8.63 12.4875 8.55667 12.3093 8.41 12.1655C8.2635 12.0218 8.08433 11.95 7.8725 11.95ZM16.1187 6.575C15.9069 6.575 15.7302 6.64683 15.5885 6.7905C15.4468 6.93433 15.376 7.1125 15.376 7.325V16.325C15.376 16.5375 15.4483 16.7156 15.593 16.8592C15.7375 17.0031 15.9157 17.075 16.1275 17.075C16.3392 17.075 16.5168 17.0031 16.6605 16.8592C16.8042 16.7156 16.876 16.5375 16.876 16.325V7.325C16.876 7.1125 16.8027 6.93433 16.6562 6.7905C16.5096 6.64683 16.3304 6.575 16.1187 6.575ZM11.9955 14.125C11.7818 14.125 11.6042 14.1968 11.4625 14.3405C11.3208 14.4843 11.25 14.6625 11.25 14.875V16.325C11.25 16.5375 11.3223 16.7156 11.467 16.8592C11.6115 17.0031 11.7907 17.075 12.0045 17.075C12.2182 17.075 12.3958 17.0031 12.5375 16.8592C12.6792 16.7156 12.75 16.5375 12.75 16.325V14.875C12.75 14.6625 12.6777 14.4843 12.533 14.3405C12.3885 14.1968 12.2093 14.125 11.9955 14.125ZM4.55375 21.1495C4.09375 21.1495 3.69492 20.9806 3.35725 20.6428C3.01942 20.3051 2.8505 19.9062 2.8505 19.4462V4.55375C2.8505 4.09208 3.01942 3.69183 3.35725 3.353C3.69492 3.014 4.09375 2.8445 4.55375 2.8445H19.4462C19.9079 2.8445 20.3082 3.014 20.647 3.353C20.986 3.69183 21.1555 4.09208 21.1555 4.55375V19.4462C21.1555 19.9062 20.986 20.3051 20.647 20.6428C20.3082 20.9806 19.9079 21.1495 19.4462 21.1495H4.55375ZM4.55375 19.4462H19.4462V4.55375H4.55375V19.4462ZM12.0045 11.95C12.2182 11.95 12.3958 11.8777 12.5375 11.733C12.6792 11.5885 12.75 11.4093 12.75 11.1955C12.75 10.9818 12.6777 10.8042 12.533 10.6625C12.3885 10.5208 12.2093 10.45 11.9955 10.45C11.7818 10.45 11.6042 10.5223 11.4625 10.667C11.3208 10.8115 11.25 10.9907 11.25 11.2045C11.25 11.4182 11.3223 11.5958 11.467 11.7375C11.6115 11.8792 11.7907 11.95 12.0045 11.95Z" fill="var(--fill-0, #2DA2DB)"/>
</g>
</svg>
