<svg preserveAspectRatio="none" width="100%" height="100%" overflow="visible" style="display: block;" viewBox="0 0 40 40" fill="none" xmlns="http://www.w3.org/2000/svg">
<g id="briefcase-business">
<path id="Vector" d="M20 20H20.0167M26.6667 10V6.66667C26.6667 5.78261 26.3155 4.93477 25.6904 4.30964C25.0652 3.68452 24.2174 3.33333 23.3333 3.33333H16.6667C15.7826 3.33333 14.9348 3.68452 14.3096 4.30964C13.6845 4.93477 13.3333 5.78261 13.3333 6.66667V10M36.6667 21.6667C31.7213 24.9316 25.9259 26.6722 20 26.6722C14.0741 26.6722 8.27868 24.9316 3.33333 21.6667M6.66667 10H33.3333C35.1743 10 36.6667 11.4924 36.6667 13.3333V30C36.6667 31.8409 35.1743 33.3333 33.3333 33.3333H6.66667C4.82572 33.3333 3.33333 31.8409 3.33333 30V13.3333C3.33333 11.4924 4.82572 10 6.66667 10Z" stroke="var(--stroke-0, #2DA2DB)" stroke-width="3" stroke-linecap="round" stroke-linejoin="round"/>
</g>
</svg>
