<svg preserveAspectRatio="none" width="100%" height="100%" overflow="visible" style="display: block;" viewBox="0 0 40 40" fill="none" xmlns="http://www.w3.org/2000/svg">
<g id="database-search">
<path id="Vector" d="M35 19.4883V8.33333M35 8.33333C35 11.0948 28.2843 13.3333 20 13.3333C11.7157 13.3333 5 11.0948 5 8.33333M35 8.33333C35 5.57191 28.2843 3.33333 20 3.33333C11.7157 3.33333 5 5.57191 5 8.33333M36.6667 36.6667L33.5417 33.5417M5 20C5.00039 21.2969 6.51239 22.5429 9.21685 23.4752C11.9213 24.4075 15.6067 24.953 19.495 24.9967M5 8.33333V31.6667C4.9997 32.3364 5.40309 32.9994 6.18622 33.6162C6.96935 34.233 8.11627 34.7911 9.55888 35.2573C11.0015 35.7235 12.7104 36.0883 14.5842 36.3301C16.4579 36.572 18.4583 36.6858 20.4667 36.665M35 30C35 32.7614 32.7614 35 30 35C27.2386 35 25 32.7614 25 30C25 27.2386 27.2386 25 30 25C32.7614 25 35 27.2386 35 30Z" stroke="var(--stroke-0, #2DA2DB)" stroke-width="3" stroke-linecap="round" stroke-linejoin="round"/>
</g>
</svg>
