<svg preserveAspectRatio="none" width="100%" height="100%" overflow="visible" style="display: block;" viewBox="0 0 40 40" fill="none" xmlns="http://www.w3.org/2000/svg">
<g id="document_scanner">
<g id="Vector">
<mask id="path-1-inside-1_0_28" fill="white">
<path d="M3.10417 7.60875V4.27625C3.10417 3.49569 3.38222 2.8275 3.93833 2.27167C4.49417 1.71556 5.16236 1.4375 5.94292 1.4375H9.28542C9.67264 1.4375 9.99611 1.56792 10.2558 1.82875C10.5153 2.08986 10.645 2.41514 10.645 2.80458C10.645 3.19403 10.5153 3.51833 10.2558 3.7775C9.99611 4.03694 9.67264 4.16667 9.28542 4.16667H5.83333V7.61875C5.83333 8.00597 5.70292 8.32945 5.44208 8.58917C5.18097 8.84861 4.85569 8.97833 4.46625 8.97833C4.07681 8.97833 3.7525 8.84695 3.49333 8.58417C3.23389 8.32111 3.10417 7.99597 3.10417 7.60875ZM34.1667 7.60875V4.16667H30.7146C30.3274 4.16667 30.0039 4.03458 29.7442 3.77042C29.4847 3.50625 29.355 3.17931 29.355 2.78958C29.355 2.40014 29.4864 2.0775 29.7492 1.82167C30.0122 1.56555 30.3374 1.4375 30.7246 1.4375H34.0571C34.8376 1.4375 35.5058 1.71556 36.0617 2.27167C36.6178 2.8275 36.8958 3.49569 36.8958 4.27625V7.61875C36.8958 8.00597 36.7654 8.32945 36.5046 8.58917C36.2435 8.84861 35.9182 8.97833 35.5287 8.97833C35.1393 8.97833 34.815 8.84695 34.5558 8.58417C34.2964 8.32111 34.1667 7.99597 34.1667 7.60875ZM3.10417 35.7238V32.3813C3.10417 31.994 3.23625 31.6706 3.50042 31.4108C3.76458 31.1514 4.09139 31.0217 4.48083 31.0217C4.87056 31.0217 5.19333 31.1514 5.44917 31.4108C5.70528 31.6706 5.83333 31.994 5.83333 32.3813V35.8333H9.28542C9.67264 35.8333 9.99611 35.9638 10.2558 36.2246C10.5153 36.4857 10.645 36.811 10.645 37.2004C10.645 37.5899 10.5153 37.9142 10.2558 38.1733C9.99611 38.4328 9.67264 38.5625 9.28542 38.5625H5.94292C5.16236 38.5625 4.49417 38.2844 3.93833 37.7283C3.38222 37.1725 3.10417 36.5043 3.10417 35.7238ZM34.0571 38.5625H30.7146C30.3274 38.5625 30.0039 38.4304 29.7442 38.1663C29.4847 37.9021 29.355 37.5753 29.355 37.1858C29.355 36.7961 29.4864 36.4733 29.7492 36.2175C30.0122 35.9614 30.3374 35.8333 30.7246 35.8333H34.1667V32.3813C34.1667 31.994 34.2987 31.6706 34.5629 31.4108C34.8271 31.1514 35.154 31.0217 35.5437 31.0217C35.9332 31.0217 36.2558 31.1514 36.5117 31.4108C36.7678 31.6706 36.8958 31.994 36.8958 32.3813V35.7238C36.8958 36.5043 36.6178 37.1725 36.0617 37.7283C35.5058 38.2844 34.8376 38.5625 34.0571 38.5625ZM11.0625 30.6042H28.9375V9.39583H11.0625V30.6042ZM11.0625 33.4429C10.3092 33.4429 9.64764 33.1582 9.07792 32.5888C8.50847 32.019 8.22375 31.3575 8.22375 30.6042V9.39583C8.22375 8.6425 8.50847 7.98097 9.07792 7.41125C9.64764 6.84181 10.3092 6.55708 11.0625 6.55708H28.9375C29.6908 6.55708 30.3524 6.84181 30.9221 7.41125C31.4915 7.98097 31.7762 8.6425 31.7762 9.39583V30.6042C31.7762 31.3575 31.4915 32.019 30.9221 32.5888C30.3524 33.1582 29.6908 33.4429 28.9375 33.4429H11.0625ZM16.6667 16.29H23.3333C23.7008 16.29 24.0093 16.1661 24.2587 15.9183C24.5085 15.6708 24.6333 15.3622 24.6333 14.9925C24.6333 14.6231 24.5078 14.3153 24.2567 14.0692C24.0058 13.8231 23.6981 13.7 23.3333 13.7H16.6667C16.2992 13.7 15.9924 13.8263 15.7462 14.0788C15.4999 14.331 15.3767 14.6406 15.3767 15.0075C15.3767 15.3769 15.4999 15.6831 15.7462 15.9258C15.9924 16.1686 16.2992 16.29 16.6667 16.29ZM16.6667 21.29H23.3333C23.7008 21.29 24.0093 21.1661 24.2587 20.9183C24.5085 20.6708 24.6333 20.3622 24.6333 19.9925C24.6333 19.6231 24.5078 19.3153 24.2567 19.0692C24.0058 18.8231 23.6981 18.7 23.3333 18.7H16.6667C16.2992 18.7 15.9924 18.8263 15.7462 19.0788C15.4999 19.331 15.3767 19.6406 15.3767 20.0075C15.3767 20.3769 15.4999 20.6831 15.7462 20.9258C15.9924 21.1686 16.2992 21.29 16.6667 21.29ZM16.6667 26.29H23.3333C23.7008 26.29 24.0093 26.1661 24.2587 25.9183C24.5085 25.6708 24.6333 25.3622 24.6333 24.9925C24.6333 24.6231 24.5078 24.3153 24.2567 24.0692C24.0058 23.8231 23.6981 23.7 23.3333 23.7H16.6667C16.2992 23.7 15.9924 23.8263 15.7462 24.0788C15.4999 24.331 15.3767 24.6406 15.3767 25.0075C15.3767 25.3769 15.4999 25.6831 15.7462 25.9258C15.9924 26.1686 16.2992 26.29 16.6667 26.29Z"/>
</mask>
<path d="M3.10417 7.60875V4.27625C3.10417 3.49569 3.38222 2.8275 3.93833 2.27167C4.49417 1.71556 5.16236 1.4375 5.94292 1.4375H9.28542C9.67264 1.4375 9.99611 1.56792 10.2558 1.82875C10.5153 2.08986 10.645 2.41514 10.645 2.80458C10.645 3.19403 10.5153 3.51833 10.2558 3.7775C9.99611 4.03694 9.67264 4.16667 9.28542 4.16667H5.83333V7.61875C5.83333 8.00597 5.70292 8.32945 5.44208 8.58917C5.18097 8.84861 4.85569 8.97833 4.46625 8.97833C4.07681 8.97833 3.7525 8.84695 3.49333 8.58417C3.23389 8.32111 3.10417 7.99597 3.10417 7.60875ZM34.1667 7.60875V4.16667H30.7146C30.3274 4.16667 30.0039 4.03458 29.7442 3.77042C29.4847 3.50625 29.355 3.17931 29.355 2.78958C29.355 2.40014 29.4864 2.0775 29.7492 1.82167C30.0122 1.56555 30.3374 1.4375 30.7246 1.4375H34.0571C34.8376 1.4375 35.5058 1.71556 36.0617 2.27167C36.6178 2.8275 36.8958 3.49569 36.8958 4.27625V7.61875C36.8958 8.00597 36.7654 8.32945 36.5046 8.58917C36.2435 8.84861 35.9182 8.97833 35.5287 8.97833C35.1393 8.97833 34.815 8.84695 34.5558 8.58417C34.2964 8.32111 34.1667 7.99597 34.1667 7.60875ZM3.10417 35.7238V32.3813C3.10417 31.994 3.23625 31.6706 3.50042 31.4108C3.76458 31.1514 4.09139 31.0217 4.48083 31.0217C4.87056 31.0217 5.19333 31.1514 5.44917 31.4108C5.70528 31.6706 5.83333 31.994 5.83333 32.3813V35.8333H9.28542C9.67264 35.8333 9.99611 35.9638 10.2558 36.2246C10.5153 36.4857 10.645 36.811 10.645 37.2004C10.645 37.5899 10.5153 37.9142 10.2558 38.1733C9.99611 38.4328 9.67264 38.5625 9.28542 38.5625H5.94292C5.16236 38.5625 4.49417 38.2844 3.93833 37.7283C3.38222 37.1725 3.10417 36.5043 3.10417 35.7238ZM34.0571 38.5625H30.7146C30.3274 38.5625 30.0039 38.4304 29.7442 38.1663C29.4847 37.9021 29.355 37.5753 29.355 37.1858C29.355 36.7961 29.4864 36.4733 29.7492 36.2175C30.0122 35.9614 30.3374 35.8333 30.7246 35.8333H34.1667V32.3813C34.1667 31.994 34.2987 31.6706 34.5629 31.4108C34.8271 31.1514 35.154 31.0217 35.5437 31.0217C35.9332 31.0217 36.2558 31.1514 36.5117 31.4108C36.7678 31.6706 36.8958 31.994 36.8958 32.3813V35.7238C36.8958 36.5043 36.6178 37.1725 36.0617 37.7283C35.5058 38.2844 34.8376 38.5625 34.0571 38.5625ZM11.0625 30.6042H28.9375V9.39583H11.0625V30.6042ZM11.0625 33.4429C10.3092 33.4429 9.64764 33.1582 9.07792 32.5888C8.50847 32.019 8.22375 31.3575 8.22375 30.6042V9.39583C8.22375 8.6425 8.50847 7.98097 9.07792 7.41125C9.64764 6.84181 10.3092 6.55708 11.0625 6.55708H28.9375C29.6908 6.55708 30.3524 6.84181 30.9221 7.41125C31.4915 7.98097 31.7762 8.6425 31.7762 9.39583V30.6042C31.7762 31.3575 31.4915 32.019 30.9221 32.5888C30.3524 33.1582 29.6908 33.4429 28.9375 33.4429H11.0625ZM16.6667 16.29H23.3333C23.7008 16.29 24.0093 16.1661 24.2587 15.9183C24.5085 15.6708 24.6333 15.3622 24.6333 14.9925C24.6333 14.6231 24.5078 14.3153 24.2567 14.0692C24.0058 13.8231 23.6981 13.7 23.3333 13.7H16.6667C16.2992 13.7 15.9924 13.8263 15.7462 14.0788C15.4999 14.331 15.3767 14.6406 15.3767 15.0075C15.3767 15.3769 15.4999 15.6831 15.7462 15.9258C15.9924 16.1686 16.2992 16.29 16.6667 16.29ZM16.6667 21.29H23.3333C23.7008 21.29 24.0093 21.1661 24.2587 20.9183C24.5085 20.6708 24.6333 20.3622 24.6333 19.9925C24.6333 19.6231 24.5078 19.3153 24.2567 19.0692C24.0058 18.8231 23.6981 18.7 23.3333 18.7H16.6667C16.2992 18.7 15.9924 18.8263 15.7462 19.0788C15.4999 19.331 15.3767 19.6406 15.3767 20.0075C15.3767 20.3769 15.4999 20.6831 15.7462 20.9258C15.9924 21.1686 16.2992 21.29 16.6667 21.29ZM16.6667 26.29H23.3333C23.7008 26.29 24.0093 26.1661 24.2587 25.9183C24.5085 25.6708 24.6333 25.3622 24.6333 24.9925C24.6333 24.6231 24.5078 24.3153 24.2567 24.0692C24.0058 23.8231 23.6981 23.7 23.3333 23.7H16.6667C16.2992 23.7 15.9924 23.8263 15.7462 24.0788C15.4999 24.331 15.3767 24.6406 15.3767 25.0075C15.3767 25.3769 15.4999 25.6831 15.7462 25.9258C15.9924 26.1686 16.2992 26.29 16.6667 26.29Z" stroke="var(--stroke-0, #2DA2DB)" stroke-width="6" mask="url(#path-1-inside-1_0_28)"/>
</g>
</g>
</svg>
