<svg preserveAspectRatio="none" width="100%" height="100%" overflow="visible" style="display: block;" viewBox="0 0 24 24" fill="none" xmlns="http://www.w3.org/2000/svg">
<g id="home_iot_device">
<path id="Vector" d="M5.18825 18.512C5.96558 18.512 6.61575 18.2512 7.13875 17.7297C7.66175 17.2081 7.92325 16.5582 7.92325 15.78C7.92325 15.3138 7.80933 14.8657 7.5815 14.4355C7.35367 14.0053 7.02575 13.6589 6.59775 13.3962L5.9175 12.9607V6.21325C5.9175 6.00075 5.85017 5.82675 5.7155 5.69125C5.58083 5.55575 5.40508 5.488 5.18825 5.488C4.97142 5.488 4.79575 5.55533 4.66125 5.69C4.52658 5.8245 4.45925 5.99925 4.45925 6.21425V12.9607L3.78475 13.3962C3.35692 13.6716 3.029 14.019 2.801 14.4385C2.57317 14.8582 2.45925 15.3087 2.45925 15.79C2.45925 16.5545 2.72308 17.1992 3.25075 17.7242C3.77825 18.2494 4.42408 18.512 5.18825 18.512ZM5.19125 20.1495C3.95942 20.1495 2.92317 19.7279 2.0825 18.8847C1.242 18.0417 0.82175 17.009 0.82175 15.7865C0.82175 15.0248 1.00408 14.3275 1.36875 13.6945C1.73342 13.0615 2.21775 12.5431 2.82175 12.1392V6.21425C2.82175 5.55442 3.05117 4.9945 3.51 4.5345C3.96883 4.0745 4.53058 3.8445 5.19525 3.8445C5.85392 3.8445 6.41183 4.07358 6.869 4.53175C7.32633 4.98992 7.555 5.55075 7.555 6.21425V12.1392C8.16283 12.5446 8.64908 13.0635 9.01375 13.696C9.37842 14.3285 9.56075 15.0253 9.56075 15.7865C9.56075 17.0013 9.13567 18.0322 8.2855 18.8792C7.43517 19.7261 6.40375 20.1495 5.19125 20.1495ZM13.805 15.0597C13.0345 14.5136 12.3704 13.8037 11.8128 12.9302C11.2549 12.0569 10.976 11.0684 10.976 9.96475C10.976 8.28242 11.576 6.84183 12.776 5.643C13.9758 4.444 15.4158 3.8445 17.0958 3.8445C18.8089 3.8445 20.2561 4.44008 21.4372 5.63125C22.6186 6.82242 23.2093 8.26692 23.2093 9.96475C23.2093 11.0676 22.9293 12.0562 22.3693 12.9305C21.8093 13.8047 21.1454 14.5144 20.3777 15.0597H13.805ZM14.3837 13.4162H19.7837C20.2717 13.0409 20.6908 12.5281 21.0408 11.8777C21.3908 11.2274 21.5658 10.5896 21.5658 9.96425C21.5658 8.71842 21.1351 7.66092 20.2738 6.79175C19.4124 5.92258 18.3522 5.488 17.0932 5.488C15.8616 5.488 14.8081 5.92633 13.9328 6.803C13.0573 7.6795 12.6195 8.73325 12.6195 9.96425C12.6195 10.5896 12.7905 11.2284 13.1325 11.8807C13.4747 12.5331 13.8917 13.0449 14.3837 13.4162ZM17.094 20.1495C16.7865 20.1495 16.5174 20.0521 16.2867 19.8572C16.0561 19.6624 15.9074 19.4185 15.8408 19.1255H18.3445C18.2778 19.4168 18.1297 19.6603 17.9 19.856C17.6702 20.0517 17.4015 20.1495 17.094 20.1495ZM15.0658 18.1255C14.8448 18.1255 14.6595 18.0498 14.51 17.8985C14.3605 17.7472 14.2857 17.5597 14.2857 17.336C14.2857 17.1138 14.3605 16.9289 14.51 16.7812C14.6595 16.6336 14.8448 16.5597 15.0658 16.5597H19.1195C19.3405 16.5597 19.5258 16.6348 19.6753 16.785C19.8248 16.9353 19.8995 17.1215 19.8995 17.3435C19.8995 17.5657 19.8248 17.7515 19.6753 17.901C19.5258 18.0507 19.3405 18.1255 19.1195 18.1255H15.0658Z" fill="var(--fill-0, #2DA2DB)"/>
</g>
</svg>
