<svg preserveAspectRatio="none" width="100%" height="100%" overflow="visible" style="display: block;" viewBox="0 0 24 24" fill="none" xmlns="http://www.w3.org/2000/svg">
<g id="personal_injury">
<g id="Vector">
<path d="M12.0019 11.3516C13.2455 11.3516 14.3979 11.507 15.4589 11.8174C16.5199 12.1281 17.4806 12.4766 18.3407 12.8633C18.8897 13.1091 19.3296 13.4679 19.6601 13.9395C19.9904 14.4111 20.1552 14.9783 20.1552 15.6397V20.5C20.1552 20.9599 19.9862 21.3587 19.6474 21.6963C19.3085 22.0341 18.9079 22.2031 18.4462 22.2031H9.81534C9.09019 22.203 8.47502 21.9504 7.97062 21.4453C7.46634 20.9402 7.21382 20.3246 7.21378 19.5986C7.21378 18.8727 7.46638 18.258 7.97062 17.7549C8.47502 17.252 9.09019 17.0001 9.81534 17H12.7353L14.4101 13.293C13.9968 13.2137 13.5865 13.1549 13.1796 13.1172C12.7729 13.0796 12.3787 13.0606 11.997 13.0606C10.8092 13.0606 9.74989 13.195 8.81925 13.4619C7.88842 13.7289 7.06595 14.0347 6.35245 14.3799C6.124 14.4974 5.93412 14.6747 5.78214 14.9111C5.63019 15.1475 5.55362 15.398 5.55362 15.6631V21.3516C5.55362 21.5919 5.47105 21.7944 5.30655 21.958C5.14221 22.1214 4.93947 22.203 4.69816 22.2031C4.45649 22.2031 4.25419 22.1217 4.09269 21.958C3.93103 21.7944 3.8505 21.5919 3.8505 21.3516V15.6397C3.8505 14.9783 4.01531 14.4116 4.34464 13.9404C4.67396 13.4692 5.10422 13.1095 5.63468 12.8613C6.48455 12.4796 7.44709 12.1326 8.52237 11.8203C9.59787 11.5082 10.758 11.3516 12.0019 11.3516ZM9.81534 18.6377C9.56168 18.6378 9.33786 18.7351 9.14347 18.9297C8.94914 19.1242 8.85148 19.3493 8.85148 19.6055C8.85148 19.8616 8.94919 20.0854 9.14347 20.2774C9.33786 20.4693 9.56168 20.5653 9.81534 20.5654H11.0526L11.9589 18.6377H9.81534ZM12.911 20.5H18.4462V15.6631C18.4462 15.398 18.3672 15.1476 18.2089 14.9121C18.0506 14.6765 17.8543 14.4992 17.621 14.3809C17.4322 14.2836 17.2043 14.1831 16.9374 14.0791C16.6704 13.975 16.3652 13.8579 16.0224 13.7285L12.911 20.5ZM11.997 1.80275C13.1428 1.80275 14.0806 2.16671 14.8105 2.89455C15.5404 3.62248 15.9051 4.55768 15.9052 5.70021C15.9052 6.84284 15.5404 7.77884 14.8105 8.50783C14.0806 9.23699 13.1437 9.60158 11.9999 9.60158C10.8561 9.60156 9.92011 9.23698 9.1923 8.50783C8.46442 7.77885 8.1005 6.84371 8.1005 5.70314C8.10058 4.55864 8.46454 3.62247 9.1923 2.89455C9.92013 2.16672 10.855 1.80275 11.997 1.80275ZM12.0038 3.50587C11.3675 3.50591 10.8417 3.71236 10.4267 4.12502C10.0117 4.53801 9.80363 5.0634 9.80362 5.70021C9.80362 6.33688 10.0114 6.86205 10.4257 7.27638C10.8398 7.69068 11.364 7.89844 11.9989 7.89845C12.6376 7.89845 13.1639 7.69151 13.5771 7.27736C13.9901 6.86303 14.1962 6.33797 14.1962 5.70314C14.1962 5.06436 13.9903 4.53799 13.578 4.12502C13.1656 3.71208 12.6404 3.50587 12.0038 3.50587Z" fill="var(--fill-0, #2DA2DB)"/>
<path d="M12.0019 11.3516C13.2455 11.3516 14.3979 11.507 15.4589 11.8174C16.5199 12.1281 17.4806 12.4766 18.3407 12.8633C18.8897 13.1091 19.3296 13.4679 19.6601 13.9395C19.9904 14.4111 20.1552 14.9783 20.1552 15.6397V20.5C20.1552 20.9599 19.9862 21.3587 19.6474 21.6963C19.3085 22.0341 18.9079 22.2031 18.4462 22.2031H9.81534C9.09019 22.203 8.47502 21.9504 7.97062 21.4453C7.46634 20.9402 7.21382 20.3246 7.21378 19.5986C7.21378 18.8727 7.46638 18.258 7.97062 17.7549C8.47502 17.252 9.09019 17.0001 9.81534 17H12.7353L14.4101 13.293C13.9968 13.2137 13.5865 13.1549 13.1796 13.1172C12.7729 13.0796 12.3787 13.0606 11.997 13.0606C10.8092 13.0606 9.74989 13.195 8.81925 13.4619C7.88842 13.7289 7.06595 14.0347 6.35245 14.3799C6.124 14.4974 5.93412 14.6747 5.78214 14.9111C5.63019 15.1475 5.55362 15.398 5.55362 15.6631V21.3516C5.55362 21.5919 5.47105 21.7944 5.30655 21.958C5.14221 22.1214 4.93947 22.203 4.69816 22.2031C4.45649 22.2031 4.25419 22.1217 4.09269 21.958C3.93103 21.7944 3.8505 21.5919 3.8505 21.3516V15.6397C3.8505 14.9783 4.01531 14.4116 4.34464 13.9404C4.67396 13.4692 5.10422 13.1095 5.63468 12.8613C6.48455 12.4796 7.44709 12.1326 8.52237 11.8203C9.59787 11.5082 10.758 11.3516 12.0019 11.3516ZM9.81534 18.6377C9.56168 18.6378 9.33786 18.7351 9.14347 18.9297C8.94914 19.1242 8.85148 19.3493 8.85148 19.6055C8.85148 19.8616 8.94919 20.0854 9.14347 20.2774C9.33786 20.4693 9.56168 20.5653 9.81534 20.5654H11.0526L11.9589 18.6377H9.81534ZM12.911 20.5H18.4462V15.6631C18.4462 15.398 18.3672 15.1476 18.2089 14.9121C18.0506 14.6765 17.8543 14.4992 17.621 14.3809C17.4322 14.2836 17.2043 14.1831 16.9374 14.0791C16.6704 13.975 16.3652 13.8579 16.0224 13.7285L12.911 20.5ZM11.997 1.80275C13.1428 1.80275 14.0806 2.16671 14.8105 2.89455C15.5404 3.62248 15.9051 4.55768 15.9052 5.70021C15.9052 6.84284 15.5404 7.77884 14.8105 8.50783C14.0806 9.23699 13.1437 9.60158 11.9999 9.60158C10.8561 9.60156 9.92011 9.23698 9.1923 8.50783C8.46442 7.77885 8.1005 6.84371 8.1005 5.70314C8.10058 4.55864 8.46454 3.62247 9.1923 2.89455C9.92013 2.16672 10.855 1.80275 11.997 1.80275ZM12.0038 3.50587C11.3675 3.50591 10.8417 3.71236 10.4267 4.12502C10.0117 4.53801 9.80363 5.0634 9.80362 5.70021C9.80362 6.33688 10.0114 6.86205 10.4257 7.27638C10.8398 7.69068 11.364 7.89844 11.9989 7.89845C12.6376 7.89845 13.1639 7.69151 13.5771 7.27736C13.9901 6.86303 14.1962 6.33797 14.1962 5.70314C14.1962 5.06436 13.9903 4.53799 13.578 4.12502C13.1656 3.71208 12.6404 3.50587 12.0038 3.50587Z" stroke="var(--stroke-0, #2DA2DB)"/>
</g>
</g>
</svg>
