<svg preserveAspectRatio="none" width="100%" height="100%" overflow="visible" style="display: block;" viewBox="0 0 40 40" fill="none" xmlns="http://www.w3.org/2000/svg">
<g id="server-cog">
<path id="Vector" d="M18.0867 24.62L17.4483 26.1583M24.6198 21.9142C24.3684 22.5209 24 23.0721 23.5357 23.5364C23.0713 24.0007 22.52 24.369 21.9133 24.6203C21.3066 24.8716 20.6565 25.0006 19.9998 25.0006C19.3431 25.0005 18.6933 24.8713 18.0867 24.62M18.0867 24.62C17.48 24.3686 16.9283 24.0001 16.464 23.5357C15.9997 23.0714 15.6314 22.5201 15.3801 21.9134M21.9133 24.6203L22.5501 26.16M24.6198 21.9142C24.8711 21.3075 25.0005 20.6573 25.0005 20.0006C25.0006 19.3439 24.8713 18.6937 24.62 18.087M24.6198 21.9142L26.1583 22.5516M24.62 18.087C24.3687 17.4803 24.0004 16.929 23.5361 16.4646C23.0718 16.0002 22.5206 15.6319 21.9139 15.3805M24.62 18.087L26.1583 17.4487M15.3804 18.0861C15.6317 17.4795 16.0001 16.9282 16.4644 16.4639C16.9288 15.9996 17.48 15.6316 18.0867 15.3803C18.6934 15.129 19.3436 14.9997 20.0003 14.9998C20.657 14.9998 21.3072 15.1292 21.9139 15.3805M21.9139 15.3805L22.5516 13.842M18.0867 15.3803L17.4483 13.842M15.3801 21.9134C15.1289 21.3067 14.9996 20.6564 14.9996 19.9997C14.9996 19.3431 15.129 18.6928 15.3804 18.0861M15.3801 21.9134L13.8416 22.5516M15.3804 18.0861L13.8416 17.4487M7.5 16.6667H6.66667C5.78261 16.6667 4.93477 16.3155 4.30964 15.6904C3.68452 15.0652 3.33333 14.2174 3.33333 13.3333V6.66667C3.33333 5.78261 3.68452 4.93477 4.30964 4.30964C4.93477 3.68452 5.78261 3.33333 6.66667 3.33333H33.3333C34.2174 3.33333 35.0652 3.68452 35.6904 4.30964C36.3155 4.93477 36.6667 5.78261 36.6667 6.66667V13.3333C36.6667 14.2174 36.3155 15.0652 35.6904 15.6904C35.0652 16.3155 34.2174 16.6667 33.3333 16.6667H32.5M7.5 23.3333H6.66667C5.78261 23.3333 4.93477 23.6845 4.30964 24.3096C3.68452 24.9348 3.33333 25.7826 3.33333 26.6667V33.3333C3.33333 34.2174 3.68452 35.0652 4.30964 35.6904C4.93477 36.3155 5.78261 36.6667 6.66667 36.6667H33.3333C34.2174 36.6667 35.0652 36.3155 35.6904 35.6904C36.3155 35.0652 36.6667 34.2174 36.6667 33.3333V26.6667C36.6667 25.7826 36.3155 24.9348 35.6904 24.3096C35.0652 23.6845 34.2174 23.3333 33.3333 23.3333H32.5M10 30H10.0167M10 10H10.0167" stroke="var(--stroke-0, #2DA2DB)" stroke-width="3" stroke-linecap="round" stroke-linejoin="round"/>
</g>
</svg>
