<svg preserveAspectRatio="none" width="100%" height="100%" overflow="visible" style="display: block;" viewBox="0 0 40 40" fill="none" xmlns="http://www.w3.org/2000/svg">
<g id="Pro/sale/tie">
<path id="Vector" d="M27.2667 21.2667C30.5167 22.3667 33.3333 24.1667 33.3333 26.6667V33C33.3333 34.1046 32.4379 35 31.3333 35H8.66666C7.5621 35 6.66667 34.1046 6.66667 33V26.6667C6.66667 24.1667 9.48333 22.3667 12.75 21.2667L13.7833 23.3333L14.1667 24.1667C11.6667 24.9333 9.83333 26.0333 9.83333 26.6667V30.8333C9.83333 31.3856 10.281 31.8333 10.8333 31.8333H16.8667L18.3333 23.3833L16.7667 20.25C17.8 20.1333 18.8833 20.05 20 20.05C21.1167 20.05 22.2 20.1333 23.2333 20.25L21.6667 23.3833L23.1333 31.8333H29.1667C29.719 31.8333 30.1667 31.3856 30.1667 30.8333V26.6667C30.1667 26.0333 28.3333 24.9333 25.8333 24.1667L26.2167 23.3333L27.2667 21.2667ZM20 8.33333C18.1667 8.33333 16.6667 9.83333 16.6667 11.6667C16.6667 13.5 18.1667 15 20 15C21.8333 15 23.3333 13.5 23.3333 11.6667C23.3333 9.83333 21.8333 8.33333 20 8.33333ZM20 18.3333C16.3167 18.3333 13.3333 15.35 13.3333 11.6667C13.3333 7.98333 16.3167 5 20 5C23.6833 5 26.6667 7.98333 26.6667 11.6667C26.6667 15.35 23.6833 18.3333 20 18.3333Z" fill="var(--fill-0, #2DA2DB)"/>
</g>
</svg>
