<svg preserveAspectRatio="none" width="100%" height="100%" overflow="visible" style="display: block;" viewBox="0 0 40 40" fill="none" xmlns="http://www.w3.org/2000/svg">
<g id="wifi_tethering">
<path id="Vector" d="M9.1675 33.0825C8.8975 33.3525 8.55847 33.4842 8.15042 33.4775C7.74208 33.4708 7.41694 33.3153 7.175 33.0108C5.82167 31.4842 4.76667 29.764 4.01 27.8504C3.25333 25.9365 2.875 23.8753 2.875 21.6667C2.875 19.3033 3.32417 17.079 4.2225 14.9937C5.12056 12.9085 6.34125 11.0943 7.88458 9.55125C9.42764 8.00792 11.2421 6.78722 13.3279 5.88917C15.4137 4.99083 17.6386 4.54167 20.0025 4.54167C22.3661 4.54167 24.59 4.99083 26.6742 5.88917C28.7586 6.78722 30.5724 8.00792 32.1154 9.55125C33.6588 11.0943 34.8794 12.9085 35.7775 14.9937C36.6758 17.079 37.125 19.3033 37.125 21.6667C37.125 23.8753 36.7467 25.9365 35.99 27.8504C35.2333 29.764 34.1783 31.4842 32.825 33.0108C32.5831 33.3153 32.2563 33.4761 31.8446 33.4933C31.4332 33.5106 31.0918 33.3835 30.8204 33.1121C30.5518 32.8435 30.4297 32.5138 30.4542 32.1229C30.4786 31.7318 30.6258 31.3807 30.8958 31.0696C32.0003 29.8065 32.8597 28.3783 33.4742 26.785C34.0886 25.1917 34.3958 23.4856 34.3958 21.6667C34.3958 17.6625 32.9976 14.2621 30.2013 11.4654C27.4046 8.66903 24.0042 7.27083 20 7.27083C15.9958 7.27083 12.5954 8.66903 9.79875 11.4654C7.00236 14.2621 5.60417 17.6625 5.60417 21.6667C5.60417 23.4856 5.90972 25.1933 6.52083 26.79C7.13194 28.3864 7.99306 29.8163 9.10417 31.0796C9.37417 31.3907 9.51972 31.7347 9.54083 32.1117C9.56194 32.4889 9.4375 32.8125 9.1675 33.0825ZM13.9679 28.2821C13.6899 28.5601 13.3569 28.6975 12.9692 28.6942C12.5814 28.6908 12.2665 28.5404 12.0246 28.2429C11.289 27.334 10.7113 26.3301 10.2913 25.2312C9.87125 24.1324 9.66125 22.9442 9.66125 21.6667C9.66125 18.7881 10.6646 16.3436 12.6712 14.3333C14.6782 12.3231 17.1207 11.3179 19.9988 11.3179C22.8771 11.3179 25.3217 12.3231 27.3325 14.3333C29.3433 16.3436 30.3488 18.7881 30.3488 21.6667C30.3488 22.9417 30.1371 24.1275 29.7138 25.2242C29.2904 26.3211 28.711 27.3274 27.9754 28.2429C27.7335 28.5471 27.4256 28.7044 27.0517 28.715C26.6778 28.7256 26.3551 28.5951 26.0838 28.3238C25.8088 28.0488 25.6712 27.7174 25.6712 27.3296C25.6712 26.9421 25.7857 26.5961 26.0146 26.2917C26.5087 25.6528 26.8982 24.9444 27.1829 24.1667C27.4674 23.3889 27.6096 22.5556 27.6096 21.6667C27.6096 19.5489 26.8708 17.7511 25.3933 16.2733C23.9161 14.7958 22.1188 14.0571 20.0013 14.0571C17.8838 14.0571 16.086 14.7958 14.6079 16.2733C13.1296 17.7511 12.3904 19.5489 12.3904 21.6667C12.3904 22.5556 12.5326 23.3883 12.8171 24.165C13.1018 24.9419 13.4912 25.6508 13.9854 26.2917C14.2143 26.5961 14.3357 26.9368 14.3496 27.3138C14.3635 27.691 14.2363 28.0138 13.9679 28.2821ZM19.9983 25.2292C19.0164 25.2292 18.1774 24.8807 17.4812 24.1838C16.7854 23.4868 16.4375 22.6472 16.4375 21.665C16.4375 20.6831 16.786 19.844 17.4829 19.1479C18.1799 18.4521 19.0194 18.1042 20.0017 18.1042C20.9836 18.1042 21.8226 18.4526 22.5188 19.1496C23.2146 19.8465 23.5625 20.6861 23.5625 21.6683C23.5625 22.6503 23.214 23.4893 22.5171 24.1854C21.8201 24.8813 20.9806 25.2292 19.9983 25.2292Z" fill="var(--fill-0, #2DA2DB)"/>
</g>
</svg>
