<svg preserveAspectRatio="none" width="100%" height="100%" overflow="visible" style="display: block;" viewBox="0 0 24 24" fill="none" xmlns="http://www.w3.org/2000/svg">
<g id="watch">
<path id="Vector" d="M10.318 22.3587C9.96867 22.3587 9.6525 22.2548 9.3695 22.0468C9.0865 21.8388 8.89942 21.5602 8.80825 21.211L8.16525 18.8643C8.07392 18.5696 7.94008 18.2855 7.76375 18.012C7.58758 17.7385 7.34825 17.4572 7.04575 17.168C6.35358 16.5433 5.81467 15.7883 5.429 14.903C5.04333 14.0177 4.8505 13.05 4.8505 12C4.8505 10.9707 5.03917 10.0082 5.4165 9.1125C5.79383 8.21683 6.32858 7.45667 7.02075 6.832C7.33125 6.523 7.57675 6.2325 7.75725 5.9605C7.93792 5.68867 8.07392 5.41375 8.16525 5.13575L8.80825 2.78325C8.89942 2.43792 9.0865 2.16125 9.3695 1.95325C9.6525 1.74525 9.96867 1.64125 10.318 1.64125H13.682C14.0313 1.64125 14.3475 1.74525 14.6305 1.95325C14.9135 2.16125 15.1006 2.43792 15.1917 2.78325L15.8407 5.13575C15.9281 5.43042 16.0641 5.7145 16.2488 5.988C16.4333 6.2615 16.6767 6.54283 16.9792 6.832C17.6714 7.44 18.2072 8.19083 18.5865 9.0845C18.9658 9.97817 19.1555 10.95 19.1555 12C19.1555 13.0293 18.9617 13.9877 18.574 14.875C18.1863 15.7623 17.6464 16.5267 16.9542 17.168C16.6437 17.477 16.4024 17.7643 16.2303 18.03C16.0579 18.2955 15.9281 18.5736 15.8407 18.8643L15.1917 21.211C15.1006 21.5602 14.9135 21.8388 14.6305 22.0468C14.3475 22.2548 14.0313 22.3587 13.682 22.3587H10.318ZM12 17.4462C13.5213 17.4462 14.8094 16.9189 15.8642 15.8643C16.9189 14.8094 17.4462 13.5213 17.4462 12C17.4462 10.4787 16.9189 9.19058 15.8642 8.13575C14.8094 7.08108 13.5213 6.55375 12 6.55375C10.4787 6.55375 9.19058 7.08108 8.13575 8.13575C7.08108 9.19058 6.55375 10.4787 6.55375 12C6.55375 13.5213 7.08108 14.8094 8.13575 15.8643C9.19058 16.9189 10.4787 17.4462 12 17.4462ZM9.87875 5.2325C10.2462 5.12383 10.6052 5.04133 10.9555 4.985C11.3058 4.92867 11.654 4.9005 12 4.9005C12.346 4.9005 12.6952 4.92867 13.0475 4.985C13.3998 5.04133 13.7577 5.12383 14.1212 5.2325L13.6473 3.27275H10.3527L9.87875 5.2325ZM10.3527 20.7212H13.6473L14.1212 18.7675C13.7537 18.8595 13.3948 18.9337 13.0445 18.99C12.6942 19.0463 12.346 19.0745 12 19.0745C11.654 19.0745 11.3058 19.0463 10.9555 18.99C10.6052 18.9337 10.2462 18.8595 9.87875 18.7675L10.3527 20.7212Z" fill="var(--fill-0, #2DA2DB)"/>
</g>
</svg>
