<svg preserveAspectRatio="none" width="100%" height="100%" overflow="visible" style="display: block;" viewBox="0 -960 960 960" fill="none" xmlns="http://www.w3.org/2000/svg">
<path d="M480-48 336-192H216q-30-2-51-22.56-21-20.57-21-49.44v-528q0-29.7 21.15-50.85Q186.3-864 216-864h528q29.7 0 50.85 21.15Q816-821.7 816-792v528q0 28.87-21 49.44Q774-194 744-192H624L480-48ZM216-317q56-46 124-68.5T480-408q72 0 140 22t124 69v-475H216v475Zm366-181.24q42-42.24 42-102T581.76-702q-42.24-42-102-42T378-701.76q-42 42.24-42 102T378.24-498q42.24 42 102 42T582-498.24ZM265-264h430q-46-35-101-53.5T480-336q-59 0-113.5 18.5T265-264Zm164-285q-21-21-21-51t21-51q21-21 51-21t51 21q21 21 21 51t-21 51q-21 21-51 21t-51-21Zm51-51Z" fill="var(--fill-0, #1E729C)"/>
</svg>
