<svg preserveAspectRatio="none" width="100%" height="100%" overflow="visible" style="display: block;" viewBox="-1.5625 -1.538 20 20" fill="none" xmlns="http://www.w3.org/2000/svg">
<g id="Vector">
<mask id="path-1-inside-1_0_42" fill="white">
<path d="M6.80396 12.2827C8.31479 12.2827 9.60479 11.7507 10.674 10.6867C11.7431 9.62278 12.2777 8.33146 12.2777 6.81271C12.2777 5.30562 11.7429 4.02417 10.6733 2.96833C9.60375 1.9125 8.31479 1.38458 6.80646 1.38458C5.29729 1.38458 4.01639 1.91271 2.96375 2.96896C1.91097 4.02521 1.38458 5.30562 1.38458 6.81021C1.38458 8.33062 1.91097 9.62278 2.96375 10.6867C4.01639 11.7507 5.29646 12.2827 6.80396 12.2827ZM6.82646 9.07979C6.63576 9.07979 6.47722 9.01465 6.35083 8.88437C6.22444 8.75424 6.16125 8.59444 6.16125 8.405V4.23187C6.16125 4.04243 6.22562 3.88264 6.35437 3.7525C6.48326 3.62222 6.64306 3.55708 6.83375 3.55708C7.02458 3.55708 7.18431 3.62222 7.31292 3.7525C7.44153 3.88264 7.50583 4.04243 7.50583 4.23187V8.405C7.50583 8.59444 7.44035 8.75424 7.30937 8.88437C7.17826 9.01465 7.01729 9.07979 6.82646 9.07979ZM3.78563 9.07979C3.59493 9.07979 3.43556 9.01465 3.3075 8.88437C3.17958 8.75424 3.11563 8.59444 3.11563 8.405V5.97104C3.11563 5.7816 3.18111 5.62181 3.31208 5.49167C3.44319 5.36139 3.60417 5.29625 3.795 5.29625C3.98569 5.29625 4.14507 5.36139 4.27313 5.49167C4.40118 5.62181 4.46521 5.7816 4.46521 5.97104V8.405C4.46521 8.59444 4.39965 8.75424 4.26854 8.88437C4.13743 9.01465 3.97646 9.07979 3.78563 9.07979ZM9.87229 9.07979C9.68146 9.07979 9.52201 9.01465 9.39396 8.88437C9.26604 8.75424 9.20208 8.59444 9.20208 8.405V6.82521C9.20208 6.63715 9.26764 6.47854 9.39875 6.34937C9.52986 6.22007 9.69076 6.15542 9.88146 6.15542C10.0723 6.15542 10.2317 6.22007 10.3596 6.34937C10.4876 6.47854 10.5517 6.63715 10.5517 6.82521V8.405C10.5517 8.59444 10.4861 8.75424 10.355 8.88437C10.2239 9.01465 10.063 9.07979 9.87229 9.07979ZM6.80417 13.6671C4.91125 13.6671 3.30396 13.0008 1.98229 11.6683C0.660764 10.3358 0 8.71903 0 6.81792C0 4.9168 0.659722 3.30521 1.97917 1.98312C3.29861 0.66104 4.90889 0 6.81 0C8.71111 0 10.3284 0.662499 11.6619 1.9875C12.9953 3.31236 13.6621 4.91993 13.6621 6.81021C13.6621 7.63285 13.5275 8.41021 13.2583 9.14229C12.9892 9.87437 12.6115 10.5373 12.1254 11.131L16.4027 15.4081C16.5442 15.5498 16.6124 15.7156 16.6071 15.9054C16.6018 16.0953 16.5319 16.261 16.3975 16.4027C16.2662 16.5442 16.1005 16.615 15.9002 16.615C15.6998 16.615 15.5288 16.5442 15.3873 16.4027L11.1308 12.1254C10.5343 12.6115 9.8691 12.99 9.13521 13.2608C8.40132 13.5317 7.62431 13.6671 6.80417 13.6671Z"/>
</mask>
<path d="M10.674 10.6867L9.61592 9.62338L9.61586 9.62345L10.674 10.6867ZM2.96375 2.96896L4.02615 4.02787L4.02623 4.0278L2.96375 2.96896ZM2.96375 10.6867L4.0301 9.63173L4.02996 9.63159L2.96375 10.6867ZM6.35083 8.88437L7.42744 7.83991L7.42688 7.83933L6.35083 8.88437ZM6.35437 3.7525L5.28805 2.69754L5.28804 2.69755L6.35437 3.7525ZM7.31292 3.7525L6.24545 4.80631L6.24601 4.80688L7.31292 3.7525ZM7.30937 8.88437L6.2521 7.82033L6.2521 7.82034L7.30937 8.88437ZM3.3075 8.88437L2.23775 9.93586L2.23776 9.93587L3.3075 8.88437ZM3.31208 5.49167L4.36935 6.55571L4.36936 6.5557L3.31208 5.49167ZM4.27313 5.49167L3.20338 6.54316L3.20394 6.54373L4.27313 5.49167ZM4.26854 8.88437L3.21184 7.81977L3.21127 7.82034L4.26854 8.88437ZM9.39396 8.88437L8.3242 9.93586L8.32421 9.93587L9.39396 8.88437ZM9.39875 6.34937L10.4515 7.41793L10.452 7.41736L9.39875 6.34937ZM10.3596 6.34937L9.29321 7.40429L9.29435 7.40544L10.3596 6.34937ZM10.355 8.88437L9.29829 7.81977L9.29773 7.82034L10.355 8.88437ZM1.98229 11.6683L0.917256 12.7246L0.917311 12.7247L1.98229 11.6683ZM11.6619 1.9875L10.6046 3.05153L10.6047 3.05159L11.6619 1.9875ZM12.1254 11.131L10.9648 10.1808L10.1045 11.2315L11.0648 12.1917L12.1254 11.131ZM16.4027 15.4081L17.4639 14.348L17.4633 14.3474L16.4027 15.4081ZM16.3975 16.4027L15.3095 15.3701L15.3035 15.3764L15.2977 15.3827L16.3975 16.4027ZM15.3873 16.4027L14.324 17.4608L14.3266 17.4634L15.3873 16.4027ZM11.1308 12.1254L12.1941 11.0673L11.2361 10.1047L10.1833 10.9626L11.1308 12.1254ZM6.80396 12.2827V13.7827C8.71064 13.7827 10.3813 13.0942 11.7321 11.7499L10.674 10.6867L9.61586 9.62345C8.82829 10.4072 7.91894 10.7827 6.80396 10.7827V12.2827ZM10.674 10.6867L11.732 11.7499C13.0863 10.4024 13.7777 8.72746 13.7777 6.81271H12.2777H10.7777C10.7777 7.93546 10.4 8.8432 9.61592 9.62338L10.674 10.6867ZM12.2777 6.81271H13.7777C13.7777 4.90569 13.0831 3.23939 11.7271 1.90083L10.6733 2.96833L9.61956 4.03583C10.4027 4.80895 10.7777 5.70556 10.7777 6.81271H12.2777ZM10.6733 2.96833L11.7271 1.90083C10.3757 0.566765 8.70766 -0.115417 6.80646 -0.115417V1.38458V2.88458C7.92192 2.88458 8.83183 3.25823 9.61956 4.03583L10.6733 2.96833ZM6.80646 1.38458V-0.115417C4.90397 -0.115417 3.23915 0.567649 1.90128 1.91012L2.96375 2.96896L4.02623 4.0278C4.79363 3.25777 5.69061 2.88458 6.80646 2.88458V1.38458ZM2.96375 2.96896L1.90135 1.91004C0.56554 3.25026 -0.115417 4.91263 -0.115417 6.81021H1.38458H2.88458C2.88458 5.69862 3.25641 4.80016 4.02615 4.02787L2.96375 2.96896ZM1.38458 6.81021H-0.115417C-0.115417 8.71871 0.561964 10.3921 1.89754 11.7417L2.96375 10.6867L4.02996 9.63159C3.25998 8.85348 2.88458 7.94253 2.88458 6.81021H1.38458ZM2.96375 10.6867L1.8974 11.7416C3.23407 13.0927 4.89908 13.7827 6.80396 13.7827V12.2827V10.7827C5.69383 10.7827 4.79871 10.4087 4.0301 9.63173L2.96375 10.6867ZM6.82646 9.07979V7.57979C6.90463 7.57979 7.01368 7.59381 7.13458 7.64348C7.25705 7.69379 7.35575 7.76601 7.42744 7.83991L6.35083 8.88437L5.27423 9.92884C5.69871 10.3664 6.25301 10.5798 6.82646 10.5798V9.07979ZM6.35083 8.88437L7.42688 7.83933C7.49365 7.90808 7.5584 8.00118 7.60353 8.11528C7.64817 8.22817 7.66125 8.33024 7.66125 8.405H6.16125H4.66125C4.66125 8.9655 4.86345 9.50588 5.27478 9.92942L6.35083 8.88437ZM6.16125 8.405H7.66125V4.23187H6.16125H4.66125V8.405H6.16125ZM6.16125 4.23187H7.66125C7.66125 4.31003 7.64729 4.41523 7.60087 4.53047C7.55403 4.64672 7.48752 4.73992 7.42071 4.80745L6.35437 3.7525L5.28804 2.69755C4.87084 3.11924 4.66125 3.66274 4.66125 4.23187H6.16125ZM6.35437 3.7525L7.4207 4.80746C7.35168 4.87723 7.25622 4.94641 7.13712 4.99496C7.01923 5.04302 6.91211 5.05708 6.83375 5.05708V3.55708V2.05708C6.2606 2.05708 5.71121 2.26982 5.28805 2.69754L6.35437 3.7525ZM6.83375 3.55708V5.05708C6.75562 5.05708 6.64841 5.04307 6.53022 4.99487C6.41076 4.94615 6.31488 4.87664 6.24545 4.80631L7.31292 3.7525L8.38038 2.69869C7.95685 2.26967 7.40674 2.05708 6.83375 2.05708V3.55708ZM7.31292 3.7525L6.24601 4.80688C6.1792 4.73928 6.11279 4.64607 6.06606 4.52995C6.01974 4.41484 6.00583 4.30983 6.00583 4.23187H7.50583H9.00583C9.00583 3.66325 8.79668 3.11993 8.37982 2.69812L7.31292 3.7525ZM7.50583 4.23187H6.00583V8.405H7.50583H9.00583V4.23187H7.50583ZM7.50583 8.405H6.00583C6.00583 8.32364 6.02064 8.21552 6.06875 8.09811C6.11719 7.97992 6.18533 7.88668 6.2521 7.82033L7.30937 8.88437L8.36664 9.94841C8.78916 9.52858 9.00583 8.98226 9.00583 8.405H7.50583ZM7.30937 8.88437L6.2521 7.82034C6.31883 7.75403 6.4115 7.68747 6.52765 7.64047C6.64285 7.59385 6.74816 7.57979 6.82646 7.57979V9.07979V10.5798C7.39909 10.5798 7.94448 10.3679 8.36665 9.94841L7.30937 8.88437ZM3.78563 9.07979V7.57979C3.86392 7.57979 3.97168 7.59384 4.09057 7.64243C4.21079 7.69157 4.30733 7.76175 4.37724 7.83288L3.3075 8.88437L2.23776 9.93587C2.66136 10.3668 3.21237 10.5798 3.78563 10.5798V9.07979ZM3.3075 8.88437L4.37725 7.83289C4.44406 7.90085 4.50995 7.99403 4.55618 8.10953C4.60198 8.22395 4.61563 8.32804 4.61563 8.405H3.11563H1.61563C1.61563 8.97108 1.82259 9.5135 2.23775 9.93586L3.3075 8.88437ZM3.11563 8.405H4.61563V5.97104H3.11563H1.61563V8.405H3.11563ZM3.11563 5.97104H4.61563C4.61563 6.0524 4.60082 6.16052 4.5527 6.27793C4.50427 6.39612 4.43612 6.48936 4.36935 6.55571L3.31208 5.49167L2.25481 4.42763C1.83229 4.84746 1.61563 5.39378 1.61563 5.97104H3.11563ZM3.31208 5.49167L4.36936 6.5557C4.30263 6.62201 4.20996 6.68857 4.09381 6.73557C3.97861 6.78219 3.8733 6.79625 3.795 6.79625V5.29625V3.79625C3.22236 3.79625 2.67698 4.00815 2.25481 4.42763L3.31208 5.49167ZM3.795 5.29625V6.79625C3.7167 6.79625 3.60894 6.7822 3.49005 6.73361C3.36983 6.68447 3.2733 6.61429 3.20338 6.54316L4.27313 5.49167L5.34287 4.44017C4.91926 4.00921 4.36826 3.79625 3.795 3.79625V5.29625ZM4.27313 5.49167L3.20394 6.54373C3.13713 6.47584 3.07114 6.38266 3.02481 6.26703C2.9789 6.15248 2.96521 6.0482 2.96521 5.97104H4.46521H5.96521C5.96521 5.40445 5.7578 4.86185 5.34231 4.4396L4.27313 5.49167ZM4.46521 5.97104H2.96521V8.405H4.46521H5.96521V5.97104H4.46521ZM4.46521 8.405H2.96521C2.96521 8.32344 2.98007 8.21514 3.02829 8.09759C3.07683 7.97928 3.14507 7.88605 3.21184 7.81978L4.26854 8.88437L5.32525 9.94897C5.74809 9.52927 5.96521 8.98277 5.96521 8.405H4.46521ZM4.26854 8.88437L3.21127 7.82034C3.278 7.75403 3.37067 7.68747 3.48681 7.64047C3.60202 7.59385 3.70733 7.57979 3.78563 7.57979V9.07979V10.5798C4.35826 10.5798 4.90365 10.3679 5.32582 9.94841L4.26854 8.88437ZM9.87229 9.07979V7.57979C9.95038 7.57979 10.058 7.59379 10.1769 7.64235C10.2971 7.69145 10.3937 7.76164 10.4637 7.83288L9.39396 8.88437L8.32421 9.93587C8.74805 10.3671 9.29924 10.5798 9.87229 10.5798V9.07979ZM9.39396 8.88437L10.4637 7.83289C10.5305 7.90085 10.5964 7.99403 10.6426 8.10953C10.6884 8.22394 10.7021 8.32804 10.7021 8.405H9.20208H7.70208C7.70208 8.97108 7.90905 9.5135 8.3242 9.93586L9.39396 8.88437ZM9.20208 8.405H10.7021V6.82521H9.20208H7.70208V8.405H9.20208ZM9.20208 6.82521H10.7021C10.7021 6.90886 10.6867 7.01908 10.6375 7.13816C10.588 7.2579 10.5187 7.35169 10.4515 7.41793L9.39875 6.34937L8.34604 5.28082C7.92184 5.69873 7.70208 6.24527 7.70208 6.82521H9.20208ZM9.39875 6.34937L10.452 7.41736C10.3849 7.48357 10.2923 7.54942 10.177 7.59575C10.0627 7.64167 9.95858 7.65542 9.88146 7.65542V6.15542V4.65542C9.31217 4.65542 8.76819 4.86448 8.34547 5.28139L9.39875 6.34937ZM9.88146 6.15542V7.65542C9.80477 7.65542 9.69831 7.64178 9.58025 7.59389C9.46073 7.5454 9.36394 7.47578 9.29321 7.40429L10.3596 6.34937L11.426 5.29446C11.0012 4.86508 10.4509 4.65542 9.88146 4.65542V6.15542ZM10.3596 6.34937L9.29435 7.40544C9.22704 7.33754 9.15996 7.24378 9.1127 7.1267C9.06583 7.0106 9.05167 6.90442 9.05167 6.82521H10.5517H12.0517C12.0517 6.25655 11.8417 5.71386 11.4248 5.29331L10.3596 6.34937ZM10.5517 6.82521H9.05167V8.405H10.5517H12.0517V6.82521H10.5517ZM10.5517 8.405H9.05167C9.05167 8.32344 9.06652 8.21514 9.11475 8.09759C9.16328 7.97928 9.23153 7.88605 9.29829 7.81978L10.355 8.88437L11.4117 9.94897C11.8345 9.52927 12.0517 8.98277 12.0517 8.405H10.5517ZM10.355 8.88437L9.29773 7.82034C9.36435 7.75414 9.45695 7.68758 9.57312 7.64055C9.68836 7.5939 9.79378 7.57979 9.87229 7.57979V9.07979V10.5798C10.4451 10.5798 10.9903 10.3677 11.4123 9.94841L10.355 8.88437ZM6.80417 13.6671V12.1671C5.30733 12.1671 4.08458 11.6578 3.04727 10.612L1.98229 11.6683L0.917311 12.7247C2.52334 14.3438 4.51517 15.1671 6.80417 15.1671V13.6671ZM1.98229 11.6683L3.04733 10.6121C2.00847 9.56458 1.5 8.32913 1.5 6.81792H0H-1.5C-1.5 9.10893 -0.686939 11.1071 0.917256 12.7246L1.98229 11.6683ZM0 6.81792H1.5C1.5 5.30617 2.00766 4.07802 3.04089 3.04272L1.97917 1.98312L0.917447 0.923524C-0.688211 2.53239 -1.5 4.52744 -1.5 6.81792H0ZM1.97917 1.98312L3.04089 3.04272C4.07336 2.00818 5.29927 1.5 6.81 1.5V0V-1.5C4.51851 -1.5 2.52386 -0.6861 0.917447 0.923524L1.97917 1.98312ZM6.81 0V1.5C8.31998 1.5 9.5557 2.0093 10.6046 3.05153L11.6619 1.9875L12.7191 0.923464C11.1011 -0.684304 9.10224 -1.5 6.81 -1.5V0ZM11.6619 1.9875L10.6047 3.05159C11.6529 4.0931 12.1621 5.31691 12.1621 6.81021H13.6621H15.1621C15.1621 4.52294 14.3378 2.53162 12.7191 0.923409L11.6619 1.9875ZM13.6621 6.81021H12.1621C12.1621 7.46597 12.0554 8.06726 11.8505 8.62466L13.2583 9.14229L14.6662 9.65992C14.9996 8.75315 15.1621 7.79972 15.1621 6.81021H13.6621ZM13.2583 9.14229L11.8505 8.62466C11.6381 9.2024 11.3432 9.71862 10.9648 10.1808L12.1254 11.131L13.286 12.0813C13.8799 11.356 14.3403 10.5463 14.6662 9.65992L13.2583 9.14229ZM12.1254 11.131L11.0648 12.1917L15.3421 16.4688L16.4027 15.4081L17.4633 14.3474L13.186 10.0704L12.1254 11.131ZM16.4027 15.4081L15.3415 16.4683C15.2887 16.4154 15.2222 16.3296 15.1725 16.2089C15.1222 16.0864 15.1048 15.9656 15.1077 15.8637L16.6071 15.9054L18.1065 15.9471C18.1239 15.3209 17.8789 14.7634 17.4639 14.348L16.4027 15.4081ZM16.6071 15.9054L15.1077 15.8637C15.1099 15.7832 15.1272 15.6876 15.1685 15.5896C15.2095 15.4922 15.263 15.4191 15.3095 15.3701L16.3975 16.4027L17.4855 17.4353C17.8666 17.0337 18.0906 16.518 18.1065 15.9471L16.6071 15.9054ZM16.3975 16.4027L15.2977 15.3827C15.3649 15.3102 15.4616 15.2354 15.5858 15.1824C15.7088 15.1299 15.8205 15.115 15.9002 15.115V16.615V18.115C16.5002 18.115 17.0704 17.8831 17.4973 17.4227L16.3975 16.4027ZM15.9002 16.615V15.115C15.9803 15.115 16.0843 15.13 16.1953 15.176C16.3064 15.2219 16.3908 15.2849 16.448 15.342L15.3873 16.4027L14.3266 17.4634C14.7499 17.8866 15.3026 18.115 15.9002 18.115V16.615ZM15.3873 16.4027L16.4505 15.3446L12.1941 11.0673L11.1308 12.1254L10.0676 13.1835L14.324 17.4608L15.3873 16.4027ZM11.1308 12.1254L10.1833 10.9626C9.71717 11.3424 9.19713 11.6391 8.61588 11.8536L9.13521 13.2608L9.65453 14.6681C10.5411 14.3409 11.3514 13.8806 12.0784 13.2882L11.1308 12.1254ZM9.13521 13.2608L8.61588 11.8536C8.05622 12.0601 7.45575 12.1671 6.80417 12.1671V13.6671V15.1671C7.79286 15.1671 8.74642 15.0032 9.65453 14.6681L9.13521 13.2608Z" fill="#1E729C" mask="url(#path-1-inside-1_0_42)"/>
</g>
</svg>
