<svg preserveAspectRatio="none" width="100%" height="100%" overflow="visible" style="display: block;" viewBox="-1.506 -2.652 20 20" fill="none" xmlns="http://www.w3.org/2000/svg">
<g id="Vector">
<mask id="path-1-inside-1_0_38" fill="white">
<path d="M3.11729 11.9688C2.89299 11.8443 2.71431 11.6707 2.58125 11.4479C2.44833 11.2253 2.38188 10.9793 2.38188 10.71V6.56458L0.378125 5.46875C0.251458 5.39083 0.156806 5.30028 0.0941668 5.19708C0.031389 5.09375 0 4.97903 0 4.85292C0 4.72667 0.0315973 4.61056 0.0947917 4.50458C0.157986 4.39875 0.252431 4.3075 0.378125 4.23083L7.78938 0.165625C7.8966 0.103403 8.00792 0.0602776 8.12333 0.0362498C8.23875 0.0120831 8.35556 0 8.47375 0C8.59208 0 8.70882 0.0128467 8.82396 0.0385412C8.93896 0.0643745 9.05174 0.106736 9.16229 0.165625L17.3923 4.63479C17.5158 4.71132 17.6097 4.80521 17.674 4.91646C17.7383 5.02771 17.7704 5.14625 17.7704 5.27208V10.8265C17.7704 11.0191 17.7047 11.1806 17.5733 11.3108C17.4418 11.4411 17.2789 11.5063 17.0846 11.5063C16.8914 11.5063 16.73 11.4411 16.6004 11.3108C16.4707 11.1806 16.4058 11.0191 16.4058 10.8265V5.64125L14.5698 6.56312V10.71C14.5698 10.9793 14.5024 11.2253 14.3677 11.4479C14.2331 11.6707 14.0537 11.8443 13.8294 11.9688L9.15729 14.519C9.05007 14.5845 8.93889 14.6285 8.82375 14.651C8.70861 14.6735 8.59174 14.6848 8.47313 14.6848C8.35465 14.6848 8.23785 14.6735 8.12271 14.651C8.00771 14.6285 7.8966 14.5845 7.78938 14.519L3.11729 11.9688ZM8.47333 8.35583L14.8963 4.84729L8.47333 1.40125L2.09208 4.84729L8.47333 8.35583ZM8.47333 13.3508L13.2002 10.74V7.37938L9.15729 9.54979C9.05007 9.60868 8.94035 9.65104 8.82813 9.67688C8.71604 9.70257 8.59778 9.71542 8.47333 9.71542C8.34889 9.71542 8.2341 9.70257 8.12896 9.67688C8.02368 9.65104 7.91743 9.60868 7.81021 9.54979L3.74646 7.33771V10.74L8.47333 13.3508Z"/>
</mask>
<path d="M3.11729 11.9688L2.38957 13.2804L2.39862 13.2854L3.11729 11.9688ZM2.58125 11.4479L1.29331 12.2168L1.29345 12.2171L2.58125 11.4479ZM2.38188 6.56458H3.88188V5.67526L3.10161 5.24854L2.38188 6.56458ZM0.378125 5.46875L-0.407787 6.74638L-0.375188 6.76643L-0.34161 6.7848L0.378125 5.46875ZM0.0941668 5.19708L1.37643 4.41875L1.37613 4.41826L0.0941668 5.19708ZM0.0947917 4.50458L-1.19309 3.73557L-1.19353 3.73632L0.0947917 4.50458ZM0.378125 4.23083L-0.343257 2.91569L-0.373507 2.93228L-0.402962 2.95025L0.378125 4.23083ZM7.78938 0.165625L8.51076 1.48077L8.52661 1.47207L8.54225 1.463L7.78938 0.165625ZM8.12333 0.0362498L8.42905 1.50477L8.43075 1.50441L8.12333 0.0362498ZM8.82396 0.0385412L9.15272 -1.42499L9.15066 -1.42545L8.82396 0.0385412ZM9.16229 0.165625L9.87813 -1.1526L9.86748 -1.15827L9.16229 0.165625ZM17.3923 4.63479L18.1825 3.35982L18.1459 3.33715L18.1081 3.31661L17.3923 4.63479ZM17.5733 11.3108L18.6289 12.3765L18.6295 12.376L17.5733 11.3108ZM16.6004 11.3108L17.6639 10.253L17.6633 10.2524L16.6004 11.3108ZM16.4058 5.64125H17.9058V3.20964L15.7328 4.30074L16.4058 5.64125ZM14.5698 6.56312L13.8967 5.22261L13.0698 5.63781V6.56312H14.5698ZM14.3677 11.4479L13.0844 10.6714L13.0838 10.6723L14.3677 11.4479ZM13.8294 11.9688L14.5481 13.2854L14.5571 13.2804L13.8294 11.9688ZM9.15729 14.519L8.43862 13.2023L8.40628 13.22L8.37485 13.2392L9.15729 14.519ZM8.12271 14.651L7.83469 16.1231L7.83503 16.1232L8.12271 14.651ZM7.78938 14.519L8.57182 13.2392L8.54038 13.22L8.50804 13.2023L7.78938 14.519ZM8.47333 8.35583L7.75064 9.67026L8.47099 10.0663L9.19242 9.67223L8.47333 8.35583ZM14.8963 4.84729L15.6153 6.16369L18.0469 4.83544L15.6054 3.52552L14.8963 4.84729ZM8.47333 1.40125L9.1825 0.0794754L8.47102 -0.302248L7.76058 0.0814065L8.47333 1.40125ZM2.09208 4.84729L1.37933 3.52745L-1.04278 4.83545L1.36939 6.16172L2.09208 4.84729ZM8.47333 13.3508L7.7481 14.6639L8.47333 15.0644L9.19857 14.6639L8.47333 13.3508ZM13.2002 10.74L13.9254 12.053L14.7002 11.6251V10.74H13.2002ZM13.2002 7.37937H14.7002V4.87162L12.4907 6.05778L13.2002 7.37937ZM9.15729 9.54979L8.4478 8.22819L8.44148 8.23159L8.4352 8.23504L9.15729 9.54979ZM8.82812 9.67688L9.1633 11.1389L9.16462 11.1386L8.82812 9.67688ZM8.12896 9.67688L7.77149 11.1337L7.77286 11.134L8.12896 9.67688ZM7.81021 9.54979L8.53231 8.23503L8.52736 8.23233L7.81021 9.54979ZM3.74646 7.33771L4.46361 6.02025L2.24646 4.81335V7.33771H3.74646ZM3.74646 10.74H2.24646V11.6251L3.02122 12.053L3.74646 10.74ZM3.11729 11.9688L3.845 10.6571C3.84457 10.6569 3.84634 10.6578 3.84958 10.6602C3.85285 10.6626 3.85659 10.6657 3.86034 10.6694C3.86409 10.673 3.86688 10.6763 3.86866 10.6785C3.8704 10.6807 3.87043 10.6811 3.86905 10.6788L2.58125 11.4479L1.29345 12.2171C1.56047 12.6641 1.93122 13.0261 2.38959 13.2804L3.11729 11.9688ZM2.58125 11.4479L3.86919 10.679C3.87018 10.6807 3.87211 10.6842 3.87429 10.6893C3.87648 10.6945 3.87837 10.6999 3.87979 10.7052C3.88122 10.7105 3.88181 10.7142 3.88201 10.7157C3.88221 10.7172 3.88188 10.7155 3.88188 10.71H2.38188H0.881875C0.881875 11.2391 1.01611 11.7525 1.29331 12.2168L2.58125 11.4479ZM2.38188 10.71H3.88188V6.56458H2.38188H0.881875V10.71H2.38188ZM2.38188 6.56458L3.10161 5.24854L1.09786 4.1527L0.378125 5.46875L-0.34161 6.7848L1.66214 7.88063L2.38188 6.56458ZM0.378125 5.46875L1.16404 4.19112C1.19386 4.20947 1.29019 4.27668 1.37643 4.41875L0.0941668 5.19708L-1.1881 5.97541C-0.976583 6.32387 -0.690948 6.5722 -0.407787 6.74638L0.378125 5.46875ZM0.0941668 5.19708L1.37613 4.41826C1.46226 4.56003 1.5 4.71672 1.5 4.85292H0H-1.5C-1.5 5.24133 -1.39948 5.62747 -1.1878 5.97591L0.0941668 5.19708ZM0 4.85292H1.5C1.5 4.99056 1.4618 5.1409 1.38311 5.27285L0.0947917 4.50458L-1.19353 3.73632C-1.3986 4.08021 -1.5 4.46278 -1.5 4.85292H0ZM0.0947917 4.50458L1.38267 5.27359C1.29887 5.41393 1.20125 5.48578 1.15921 5.51142L0.378125 4.23083L-0.402962 2.95025C-0.696392 3.12922 -0.982898 3.38357 -1.19309 3.73557L0.0947917 4.50458ZM0.378125 4.23083L1.09951 5.54598L8.51076 1.48077L7.78938 0.165625L7.06799 -1.14952L-0.343257 2.91569L0.378125 4.23083ZM7.78938 0.165625L8.54225 1.463C8.51776 1.47721 8.47885 1.4944 8.42905 1.50476L8.12333 0.0362498L7.81761 -1.43226C7.53698 -1.37384 7.27544 -1.27041 7.0365 -1.13175L7.78938 0.165625ZM8.12333 0.0362498L8.43075 1.50441C8.44482 1.50146 8.45861 1.5 8.47375 1.5V0V-1.5C8.25251 -1.5 8.03268 -1.4773 7.81592 -1.43191L8.12333 0.0362498ZM8.47375 0V1.5C8.48254 1.5 8.4897 1.50085 8.49725 1.50253L8.82396 0.0385412L9.15066 -1.42545C8.92793 -1.47515 8.70163 -1.5 8.47375 -1.5V0ZM8.82396 0.0385412L8.49519 1.50207C8.4837 1.49949 8.47431 1.49651 8.46735 1.4939C8.46045 1.4913 8.457 1.48947 8.4571 1.48952L9.16229 0.165625L9.86748 -1.15827C9.64571 -1.2764 9.40686 -1.3679 9.15272 -1.42499L8.82396 0.0385412ZM9.16229 0.165625L8.44648 1.48381L16.6765 5.95297L17.3923 4.63479L18.1081 3.31661L9.87811 -1.15256L9.16229 0.165625ZM17.3923 4.63479L16.6021 5.90976C16.5432 5.87329 16.4501 5.79646 16.3753 5.66712L17.674 4.91646L18.9726 4.1658C18.7692 3.81396 18.4883 3.54935 18.1825 3.35982L17.3923 4.63479ZM17.674 4.91646L16.3753 5.66712C16.3106 5.55525 16.2704 5.4156 16.2704 5.27208H17.7704H19.2704C19.2704 4.8769 19.1659 4.50017 18.9726 4.1658L17.674 4.91646ZM17.7704 5.27208H16.2704V10.8265H17.7704H19.2704V5.27208H17.7704ZM17.7704 10.8265H16.2704C16.2704 10.7494 16.2842 10.6435 16.3318 10.5267C16.3798 10.4087 16.4482 10.3141 16.5172 10.2457L17.5733 11.3108L18.6295 12.376C19.0577 11.9514 19.2704 11.4007 19.2704 10.8265H17.7704ZM17.5733 11.3108L16.5177 10.2451C16.5867 10.1769 16.6805 10.1106 16.7956 10.0646C16.9094 10.0191 17.0115 10.0063 17.0846 10.0063V11.5063V13.0063C17.6525 13.0063 18.2014 12.8 18.6289 12.3765L17.5733 11.3108ZM17.0846 11.5063V10.0063C17.1592 10.0063 17.2637 10.0195 17.3801 10.0664C17.4979 10.114 17.5937 10.1824 17.6639 10.253L16.6004 11.3108L15.5369 12.3687C15.9638 12.7978 16.515 13.0063 17.0846 13.0063V11.5063ZM16.6004 11.3108L17.6633 10.2524C17.7324 10.3218 17.7996 10.4164 17.8464 10.5329C17.8926 10.648 17.9058 10.7517 17.9058 10.8265H16.4058H14.9058C14.9058 11.3947 15.1133 11.9432 15.5375 12.3692L16.6004 11.3108ZM16.4058 10.8265H17.9058V5.64125H16.4058H14.9058V10.8265H16.4058ZM16.4058 5.64125L15.7328 4.30074L13.8967 5.22261L14.5698 6.56312L15.2429 7.90364L17.0789 6.98176L16.4058 5.64125ZM14.5698 6.56312H13.0698V10.71H14.5698H16.0698V6.56312H14.5698ZM14.5698 10.71H13.0698C13.0698 10.7183 13.0689 10.7134 13.0725 10.7003C13.0742 10.6943 13.0763 10.6882 13.0787 10.6826C13.0811 10.677 13.0833 10.6732 13.0844 10.6714L14.3677 11.4479L15.651 12.2245C15.9326 11.7592 16.0698 11.2431 16.0698 10.71H14.5698ZM14.3677 11.4479L13.0838 10.6723C13.0819 10.6754 13.0814 10.6758 13.0826 10.6743C13.0838 10.6728 13.086 10.6702 13.0892 10.6672C13.0924 10.6641 13.0955 10.6615 13.0983 10.6594C13.1011 10.6574 13.1024 10.6567 13.1017 10.6571L13.8294 11.9688L14.5571 13.2804C15.0139 13.027 15.3837 12.667 15.6516 12.2235L14.3677 11.4479ZM13.8294 11.9688L13.1107 10.6521L8.43862 13.2023L9.15729 14.519L9.87596 15.8356L14.548 13.2854L13.8294 11.9688ZM9.15729 14.519L8.37485 13.2392C8.40889 13.2184 8.46403 13.193 8.53607 13.1789L8.82375 14.651L9.11143 16.1232C9.41374 16.0641 9.69125 15.9506 9.93973 15.7987L9.15729 14.519ZM8.82375 14.651L8.53607 13.1789C8.51675 13.1827 8.49624 13.1848 8.47313 13.1848V14.6848V16.1848C8.68723 16.1848 8.90047 16.1644 9.11143 16.1232L8.82375 14.651ZM8.47313 14.6848V13.1848C8.45026 13.1848 8.42982 13.1827 8.41039 13.1789L8.12271 14.651L7.83503 16.1232C8.04587 16.1644 8.25904 16.1848 8.47313 16.1848V14.6848ZM8.12271 14.651L8.41073 13.179C8.48297 13.1931 8.53806 13.2186 8.57182 13.2392L7.78938 14.519L7.00693 15.7987C7.25514 15.9505 7.53245 16.064 7.83469 16.1231L8.12271 14.651ZM7.78938 14.519L8.50804 13.2023L3.83596 10.6521L3.11729 11.9688L2.39862 13.2854L7.07071 15.8356L7.78938 14.519ZM8.47333 8.35583L9.19242 9.67223L15.6153 6.16369L14.8963 4.84729L14.1772 3.53089L7.75424 7.03943L8.47333 8.35583ZM14.8963 4.84729L15.6054 3.52552L9.1825 0.0794754L8.47333 1.40125L7.76417 2.72303L14.1871 6.16907L14.8963 4.84729ZM8.47333 1.40125L7.76058 0.0814065L1.37933 3.52745L2.09208 4.84729L2.80483 6.16714L9.18608 2.72109L8.47333 1.40125ZM2.09208 4.84729L1.36939 6.16172L7.75064 9.67026L8.47333 8.35583L9.19603 7.04141L2.81478 3.53287L2.09208 4.84729ZM8.47333 13.3508L9.19857 14.6639L13.9254 12.053L13.2002 10.74L12.475 9.42698L7.7481 12.0378L8.47333 13.3508ZM13.2002 10.74H14.7002V7.37937H13.2002H11.7002V10.74H13.2002ZM13.2002 7.37937L12.4907 6.05778L8.4478 8.22819L9.15729 9.54979L9.86678 10.8714L13.9097 8.70097L13.2002 7.37937ZM9.15729 9.54979L8.4352 8.23504C8.44158 8.23153 8.46103 8.22215 8.49163 8.21511L8.82812 9.67688L9.16462 11.1386C9.41967 11.0799 9.65855 10.9858 9.87938 10.8645L9.15729 9.54979ZM8.82812 9.67688L8.49295 8.2148C8.4994 8.21332 8.49415 8.21542 8.47333 8.21542V9.71542V11.2154C8.7014 11.2154 8.93268 11.1918 9.1633 11.1389L8.82812 9.67688ZM8.47333 9.71542V8.21542C8.45139 8.21542 8.45779 8.21309 8.48506 8.21976L8.12896 9.67688L7.77286 11.134C8.0104 11.192 8.24639 11.2154 8.47333 11.2154V9.71542ZM8.12896 9.67688L8.48643 8.22009C8.52346 8.22918 8.53917 8.23881 8.5323 8.23504L7.81021 9.54979L7.08812 10.8645C7.29569 10.9786 7.5239 11.0729 7.77149 11.1337L8.12896 9.67688ZM7.81021 9.54979L8.52736 8.23233L4.46361 6.02025L3.74646 7.33771L3.02931 8.65517L7.09306 10.8672L7.81021 9.54979ZM3.74646 7.33771H2.24646V10.74H3.74646H5.24646V7.33771H3.74646ZM3.74646 10.74L3.02122 12.053L7.7481 14.6639L8.47333 13.3508L9.19857 12.0378L4.47169 9.42698L3.74646 10.74Z" fill="#1E729C" mask="url(#path-1-inside-1_0_38)"/>
</g>
</svg>
