<svg preserveAspectRatio="none" width="100%" height="100%" overflow="visible" style="display: block;" viewBox="0 0 20 20" fill="none" xmlns="http://www.w3.org/2000/svg">
<g id="lightbulb_2">
<path id="Vector" d="M8.09063 15.1096C7.69549 15.1096 7.35931 14.971 7.08208 14.6937C6.80486 14.4165 6.66625 14.0803 6.66625 13.6852V12.434C5.83486 11.8648 5.18965 11.1397 4.73063 10.2587C4.2716 9.37792 4.04208 8.4391 4.04208 7.44229C4.04208 5.79937 4.62292 4.40444 5.78458 3.2575C6.94625 2.11056 8.35382 1.53708 10.0073 1.53708C11.6606 1.53708 13.0665 2.11618 14.225 3.27437C15.3836 4.43257 15.9629 5.84146 15.9629 7.50104C15.9629 8.4991 15.7312 9.43201 15.2679 10.2998C14.8046 11.1676 14.1599 11.879 13.3338 12.434V13.6852C13.3338 14.0803 13.1948 14.4165 12.9169 14.6937C12.6388 14.971 12.3047 15.1096 11.9144 15.1096H8.09063ZM8.18979 13.6902H11.8102V12.1598C11.8102 12.0338 11.8378 11.924 11.8929 11.8302C11.9481 11.7365 12.024 11.6495 12.1208 11.5694L12.605 11.2344C13.2175 10.809 13.6937 10.2663 14.0335 9.60646C14.3735 8.9466 14.5435 8.24319 14.5435 7.49625C14.5435 6.23097 14.1036 5.15806 13.2237 4.2775C12.3439 3.39681 11.2693 2.95646 10 2.95646C8.73069 2.95646 7.65611 3.40062 6.77625 4.28896C5.89639 5.17729 5.45646 6.25361 5.45646 7.51792C5.45646 8.26653 5.62646 8.96764 5.96646 9.62125C6.30632 10.275 6.78368 10.8133 7.39854 11.236L7.87917 11.5694C7.97597 11.6495 8.05194 11.737 8.10708 11.8319C8.16222 11.9267 8.18979 12.036 8.18979 12.1598V13.6902ZM8.25583 18.4579C8.05431 18.4579 7.88653 18.3894 7.7525 18.2523C7.61833 18.1152 7.55125 17.9456 7.55125 17.7433C7.55125 17.5411 7.61833 17.3739 7.7525 17.2417C7.88653 17.1096 8.05431 17.0435 8.25583 17.0435H11.765C11.9661 17.0435 12.1347 17.1121 12.2706 17.2492C12.4066 17.3862 12.4746 17.5559 12.4746 17.7581C12.4746 17.9602 12.4066 18.1274 12.2706 18.2596C12.1347 18.3918 11.9661 18.4579 11.765 18.4579H8.25583Z" fill="var(--fill-0, #1E729C)"/>
</g>
</svg>
