<svg preserveAspectRatio="none" width="100%" height="100%" overflow="visible" style="display: block;" viewBox="0 0 20 20" fill="none" xmlns="http://www.w3.org/2000/svg">
<g id="chart-area">
<path id="Vector" d="M2.5 2.5V15.8333C2.5 16.2754 2.67559 16.6993 2.98816 17.0118C3.30072 17.3244 3.72464 17.5 4.16667 17.5H17.5M5.83333 9.3391C5.83336 9.22881 5.87711 9.12303 5.955 9.04494L7.62167 7.37827C7.66037 7.33947 7.70635 7.30868 7.75697 7.28768C7.80759 7.26667 7.86186 7.25586 7.91667 7.25586C7.97147 7.25586 8.02574 7.26667 8.07636 7.28768C8.12698 7.30868 8.17296 7.33947 8.21167 7.37827L10.955 10.1216C10.9937 10.1604 11.0397 10.1912 11.0903 10.2122C11.1409 10.2332 11.1952 10.244 11.25 10.244C11.3048 10.244 11.3591 10.2332 11.4097 10.2122C11.4603 10.1912 11.5063 10.1604 11.545 10.1216L15.1217 6.54494C15.1799 6.48657 15.2541 6.44678 15.335 6.43061C15.4158 6.41445 15.4996 6.42263 15.5758 6.45413C15.652 6.48562 15.7172 6.53901 15.763 6.60754C15.8088 6.67607 15.8333 6.75666 15.8333 6.8391V13.3333C15.8333 13.5543 15.7455 13.7662 15.5893 13.9225C15.433 14.0788 15.221 14.1666 15 14.1666H6.66667C6.44565 14.1666 6.23369 14.0788 6.07741 13.9225C5.92113 13.7662 5.83333 13.5543 5.83333 13.3333V9.3391Z" stroke="var(--stroke-0, #2DA2DB)" stroke-width="1.5" stroke-linecap="round" stroke-linejoin="round"/>
</g>
</svg>
