<svg preserveAspectRatio="none" width="100%" height="100%" overflow="visible" style="display: block;" viewBox="0 0 24 24" fill="none" xmlns="http://www.w3.org/2000/svg">
<g id="eye_tracking">
<g id="Vector">
<mask id="path-1-inside-1_0_33" fill="white">
<path d="M2.55375 23.1495C2.09375 23.1495 1.69492 22.9806 1.35725 22.6428C1.01942 22.3051 0.8505 21.9062 0.8505 21.4462V19.2107C0.8505 18.9704 0.93275 18.7684 1.09725 18.6048C1.26175 18.4411 1.46483 18.3592 1.7065 18.3592C1.94817 18.3592 2.14983 18.4411 2.3115 18.6048C2.473 18.7684 2.55375 18.9704 2.55375 19.2107V21.4462H4.78925C5.02958 21.4462 5.23158 21.5285 5.39525 21.693C5.55892 21.8575 5.64075 22.0606 5.64075 22.3022C5.64075 22.5439 5.55892 22.7455 5.39525 22.907C5.23158 23.0687 5.02958 23.1495 4.78925 23.1495H2.55375ZM21.4523 23.1495H19.2167C18.9764 23.1495 18.7744 23.0672 18.6107 22.9027C18.4471 22.7382 18.3652 22.5352 18.3652 22.2935C18.3652 22.0518 18.4471 21.8502 18.6107 21.6885C18.7744 21.527 18.9764 21.4462 19.2167 21.4462H21.4523V19.2107C21.4523 18.9704 21.5345 18.7684 21.699 18.6048C21.8635 18.4411 22.0666 18.3592 22.3083 18.3592C22.5499 18.3592 22.7515 18.4411 22.913 18.6048C23.0747 18.7684 23.1555 18.9704 23.1555 19.2107V21.4462C23.1555 21.9062 22.9866 22.3051 22.6488 22.6428C22.3111 22.9806 21.9123 23.1495 21.4523 23.1495ZM11.9733 18.5005C10.1498 18.5005 8.48008 18.0203 6.96425 17.06C5.44825 16.0997 4.23658 14.7778 3.32925 13.0945C3.23408 12.9287 3.16683 12.7537 3.1275 12.5695C3.08817 12.3853 3.0685 12.1975 3.0685 12.006C3.0685 11.811 3.09025 11.6213 3.13375 11.437C3.17725 11.2525 3.24242 11.0753 3.32925 10.9055C4.23658 9.2055 5.44733 7.87433 6.9615 6.912C8.47567 5.94967 10.1448 5.4685 11.969 5.4685C13.7932 5.4685 15.4685 5.94867 16.995 6.909C18.5215 7.86933 19.7384 9.1995 20.6458 10.8995C20.7409 11.0693 20.8092 11.2476 20.8505 11.4342C20.8918 11.6209 20.9125 11.8075 20.9125 11.994C20.9125 12.1807 20.8908 12.3688 20.8475 12.5585C20.8042 12.7482 20.7349 12.9288 20.6398 13.1005C19.7364 14.7838 18.522 16.1047 16.9965 17.063C15.471 18.0213 13.7966 18.5005 11.9733 18.5005ZM11.9713 16.8393C13.5158 16.8393 14.9537 16.4047 16.285 15.5355C17.6163 14.6665 18.634 13.487 19.338 11.997C18.634 10.507 17.6166 9.32333 16.2857 8.446C14.9549 7.56867 13.516 7.13 11.969 7.13C10.425 7.13 8.993 7.56867 7.673 8.446C6.353 9.32333 5.341 10.507 4.637 11.997C5.341 13.487 6.35325 14.6665 7.67375 15.5355C8.99425 16.4047 10.4268 16.8393 11.9713 16.8393ZM11.9995 15.312C12.9205 15.312 13.71 14.9869 14.368 14.3367C15.026 13.6866 15.355 12.9058 15.355 11.9945C15.355 11.0832 15.0266 10.3001 14.3697 9.64525C13.7129 8.99042 12.9216 8.663 11.9957 8.663C11.0779 8.663 10.3002 8.98783 9.6625 9.6375C9.02483 10.2872 8.706 11.0741 8.706 11.9982C8.706 12.9224 9.02667 13.7057 9.668 14.3482C10.3095 14.9907 11.0867 15.312 11.9995 15.312ZM11.9957 13.6982C11.5224 13.6982 11.1218 13.5332 10.7938 13.203C10.4658 12.8727 10.3018 12.4716 10.3018 11.9997C10.3018 11.5277 10.4656 11.1226 10.7933 10.7842C11.1209 10.4459 11.522 10.2768 11.9965 10.2768C12.471 10.2768 12.8764 10.4443 13.2128 10.7795C13.5493 11.1147 13.7175 11.5216 13.7175 12.0003C13.7175 12.4723 13.5501 12.8733 13.2152 13.2033C12.8804 13.5333 12.4739 13.6982 11.9957 13.6982ZM23.1555 2.54775V4.78325C23.1555 5.02358 23.0732 5.22558 22.9087 5.38925C22.7442 5.55292 22.5412 5.63475 22.2995 5.63475C22.0578 5.63475 21.8562 5.55292 21.6945 5.38925C21.533 5.22558 21.4523 5.02358 21.4523 4.78325V2.54775H19.2167C18.9764 2.54775 18.7744 2.4655 18.6107 2.301C18.4471 2.1365 18.3652 1.93342 18.3652 1.69175C18.3652 1.45008 18.4471 1.2485 18.6107 1.087C18.7744 0.925333 18.9764 0.844501 19.2167 0.844501H21.4523C21.9123 0.844501 22.3111 1.01342 22.6488 1.35125C22.9866 1.68892 23.1555 2.08775 23.1555 2.54775ZM2.55375 0.844501H4.78925C5.02958 0.844501 5.23158 0.92675 5.39525 1.09125C5.55892 1.25575 5.64075 1.45883 5.64075 1.7005C5.64075 1.94217 5.55892 2.14383 5.39525 2.3055C5.23158 2.467 5.02958 2.54775 4.78925 2.54775H2.55375V4.78325C2.55375 5.02358 2.4715 5.22558 2.307 5.38925C2.1425 5.55292 1.93942 5.63475 1.69775 5.63475C1.45608 5.63475 1.2545 5.55292 1.093 5.38925C0.931333 5.22558 0.8505 5.02358 0.8505 4.78325V2.54775C0.8505 2.08775 1.01942 1.68892 1.35725 1.35125C1.69492 1.01342 2.09375 0.844501 2.55375 0.844501Z"/>
</mask>
<path d="M1.35725 22.6428L3.47909 20.522L3.47805 20.5209L1.35725 22.6428ZM2.3115 18.6048L4.44691 16.4976L4.44582 16.4965L2.3115 18.6048ZM2.55375 21.4462H-0.44625V24.4462H2.55375V21.4462ZM5.39525 22.907L3.28811 20.7716L3.28701 20.7727L5.39525 22.907ZM18.6107 21.6885L16.5036 19.5531L16.5025 19.5542L18.6107 21.6885ZM21.4523 21.4462V24.4462H24.4523V21.4462H21.4523ZM22.913 18.6048L20.7776 20.7119L20.7787 20.713L22.913 18.6048ZM22.6488 22.6428L20.528 20.5209L20.5269 20.522L22.6488 22.6428ZM6.96425 17.06L8.56977 14.5258L8.56964 14.5257L6.96425 17.06ZM3.32925 13.0945L5.97006 11.6711L5.95111 11.6359L5.93124 11.6013L3.32925 13.0945ZM3.13375 11.437L6.05355 12.126L6.05369 12.1254L3.13375 11.437ZM3.32925 10.9055L0.682622 9.49293L0.670172 9.51625L0.658135 9.5398L3.32925 10.9055ZM20.6457 10.8995L17.9991 12.3121L18.0136 12.3392L18.0286 12.366L20.6457 10.8995ZM20.6398 13.1005L18.016 11.646L18.006 11.6639L17.9963 11.6819L20.6398 13.1005ZM16.285 15.5355L14.6452 13.0233L14.645 13.0235L16.285 15.5355ZM19.338 11.997L22.0505 13.2786L22.656 11.997L22.0505 10.7154L19.338 11.997ZM4.637 11.997L1.92453 10.7154L1.31899 11.997L1.92453 13.2786L4.637 11.997ZM7.67375 15.5355L9.32315 13.0296L9.32293 13.0295L7.67375 15.5355ZM9.668 14.3482L7.54475 16.4676L7.54503 16.4679L9.668 14.3482ZM10.7938 13.203L8.66492 15.3168L8.66546 15.3173L10.7938 13.203ZM13.2128 10.7795L11.0951 12.9045L11.0956 12.905L13.2128 10.7795ZM21.6945 5.38925L19.5591 7.49639L19.5602 7.49749L21.6945 5.38925ZM21.4523 2.54775H24.4523V-0.452251H21.4523V2.54775ZM18.6107 1.087L20.7179 3.22241L20.719 3.22132L18.6107 1.087ZM22.6488 1.35125L20.5269 3.47205L20.528 3.47309L22.6488 1.35125ZM5.39525 2.3055L7.50239 4.44091L7.50349 4.43982L5.39525 2.3055ZM2.55375 2.54775V-0.452251H-0.44625V2.54775H2.55375ZM1.093 5.38925L3.22841 3.28211L3.22732 3.28101L1.093 5.38925ZM1.35725 1.35125L3.47805 3.47309L3.47909 3.47205L1.35725 1.35125ZM2.55375 23.1495V20.1495C2.70041 20.1495 2.88626 20.1785 3.0796 20.2604C3.2707 20.3413 3.40302 20.4458 3.47909 20.522L1.35725 22.6428L-0.764594 24.7635C0.111629 25.6402 1.2644 26.1495 2.55375 26.1495V23.1495ZM1.35725 22.6428L3.47805 20.5209C3.55416 20.597 3.65871 20.7293 3.73964 20.9204C3.82153 21.1137 3.8505 21.2996 3.8505 21.4462H0.8505H-2.1495C-2.1495 22.7356 -1.6402 23.8884 -0.763547 24.7646L1.35725 22.6428ZM0.8505 21.4462H3.8505V19.2107H0.8505H-2.1495V21.4462H0.8505ZM0.8505 19.2107H3.8505C3.8505 19.4388 3.81008 19.7171 3.69069 20.0103C3.57043 20.3057 3.39782 20.5477 3.21318 20.7315L1.09725 18.6048L-1.01868 16.4781C-1.77127 17.2268 -2.1495 18.204 -2.1495 19.2107H0.8505ZM1.09725 18.6048L3.21318 20.7315C3.02833 20.9154 2.78668 21.0854 2.49419 21.2032C2.20411 21.3201 1.92997 21.3593 1.7065 21.3593V18.3593V15.3593C0.708446 15.3593 -0.266572 15.7298 -1.01868 16.4781L1.09725 18.6048ZM1.7065 18.3593V21.3593C1.48335 21.3593 1.206 21.3202 0.910977 21.2005C0.612949 21.0795 0.36608 20.9042 0.177179 20.713L2.3115 18.6048L4.44582 16.4965C3.68956 15.7309 2.70506 15.3593 1.7065 15.3593V18.3593ZM2.3115 18.6048L0.176092 20.7119C-0.00769848 20.5256 -0.176114 20.2837 -0.29248 19.9926C-0.407819 19.7041 -0.44625 19.432 -0.44625 19.2107H2.55375H5.55375C5.55375 18.2214 5.18964 17.2503 4.44691 16.4976L2.3115 18.6048ZM2.55375 19.2107H-0.44625V21.4462H2.55375H5.55375V19.2107H2.55375ZM2.55375 21.4462V24.4462H4.78925V21.4462V18.4462H2.55375V21.4462ZM4.78925 21.4462V24.4462C4.56116 24.4462 4.28287 24.4058 3.98966 24.2864C3.69432 24.1662 3.45226 23.9936 3.26855 23.8089L5.39525 21.693L7.52195 19.5771C6.77317 18.8245 5.79602 18.4462 4.78925 18.4462V21.4462ZM5.39525 21.693L3.26855 23.8089C3.08464 23.6241 2.91465 23.3824 2.79679 23.0899C2.6799 22.7999 2.64075 22.5257 2.64075 22.3022H5.64075H8.64075C8.64075 21.3042 8.27024 20.3292 7.52195 19.5771L5.39525 21.693ZM5.64075 22.3022H2.64075C2.64075 22.0791 2.6798 21.8016 2.79969 21.5063C2.9208 21.2079 3.09643 20.9607 3.28811 20.7716L5.39525 22.907L7.50239 25.0424C8.26904 24.2859 8.64075 23.3008 8.64075 22.3022H5.64075ZM5.39525 22.907L3.28701 20.7727C3.47313 20.5888 3.7151 20.4202 4.00644 20.3036C4.29523 20.188 4.5676 20.1495 4.78925 20.1495V23.1495V26.1495C5.77959 26.1495 6.75099 25.7846 7.50349 25.0413L5.39525 22.907ZM4.78925 23.1495V20.1495H2.55375V23.1495V26.1495H4.78925V23.1495ZM21.4523 23.1495V20.1495H19.2167V23.1495V26.1495H21.4523V23.1495ZM19.2167 23.1495V20.1495C19.4448 20.1495 19.7231 20.1899 20.0163 20.3093C20.3117 20.4296 20.5537 20.6022 20.7374 20.7868L18.6107 22.9027L16.484 25.0187C17.2328 25.7713 18.21 26.1495 19.2167 26.1495V23.1495ZM18.6107 22.9027L20.7374 20.7868C20.9214 20.9717 21.0914 21.2133 21.2092 21.5058C21.3261 21.7959 21.3652 22.07 21.3652 22.2935H18.3652H15.3652C15.3652 23.2916 15.7358 24.2666 16.484 25.0187L18.6107 22.9027ZM18.3652 22.2935H21.3652C21.3652 22.5167 21.3262 22.794 21.2065 23.089C21.0855 23.387 20.9102 23.6339 20.719 23.8228L18.6107 21.6885L16.5025 19.5542C15.7369 20.3104 15.3652 21.2949 15.3652 22.2935H18.3652ZM18.6107 21.6885L20.7179 23.8239C20.5316 24.0077 20.2897 24.1761 19.9986 24.2925C19.7101 24.4078 19.438 24.4462 19.2167 24.4462V21.4462V18.4462C18.2274 18.4462 17.2563 18.8104 16.5036 19.5531L18.6107 21.6885ZM19.2167 21.4462V24.4462H21.4523V21.4462V18.4462H19.2167V21.4462ZM21.4523 21.4462H24.4523V19.2107H21.4523H18.4523V21.4462H21.4523ZM21.4523 19.2107H24.4523C24.4523 19.4388 24.4118 19.7171 24.2924 20.0103C24.1722 20.3057 23.9996 20.5477 23.8149 20.7315L21.699 18.6048L19.5831 16.4781C18.8305 17.2268 18.4523 18.204 18.4523 19.2107H21.4523ZM21.699 18.6048L23.8149 20.7315C23.6301 20.9154 23.3884 21.0854 23.0959 21.2032C22.8059 21.3201 22.5317 21.3593 22.3083 21.3593V18.3593V15.3593C21.3102 15.3593 20.3352 15.7298 19.5831 16.4781L21.699 18.6048ZM22.3083 18.3593V21.3593C22.0851 21.3593 21.8076 21.3202 21.5123 21.2003C21.2139 21.0792 20.9667 20.9036 20.7776 20.7119L22.913 18.6048L25.0484 16.4976C24.2919 15.731 23.3068 15.3593 22.3083 15.3593V18.3593ZM22.913 18.6048L20.7787 20.713C20.5948 20.5269 20.4262 20.2849 20.3096 19.9936C20.194 19.7048 20.1555 19.4324 20.1555 19.2107H23.1555H26.1555C26.1555 18.2204 25.7906 17.249 25.0473 16.4965L22.913 18.6048ZM23.1555 19.2107H20.1555V21.4462H23.1555H26.1555V19.2107H23.1555ZM23.1555 21.4462H20.1555C20.1555 21.2996 20.1845 21.1137 20.2664 20.9204C20.3473 20.7293 20.4518 20.597 20.528 20.5209L22.6488 22.6428L24.7695 24.7646C25.6462 23.8884 26.1555 22.7356 26.1555 21.4462H23.1555ZM22.6488 22.6428L20.5269 20.522C20.603 20.4458 20.7353 20.3413 20.9264 20.2604C21.1197 20.1785 21.3056 20.1495 21.4523 20.1495V23.1495V26.1495C22.7416 26.1495 23.8944 25.6402 24.7706 24.7635L22.6488 22.6428ZM11.9733 18.5005V15.5005C10.7085 15.5005 9.5972 15.1767 8.56977 14.5258L6.96425 17.06L5.35873 19.5942C7.36296 20.864 9.591 21.5005 11.9733 21.5005V18.5005ZM6.96425 17.06L8.56964 14.5257C7.5169 13.8588 6.6498 12.9322 5.97006 11.6711L3.32925 13.0945L0.688441 14.5179C1.82337 16.6235 3.3796 18.3405 5.35886 19.5943L6.96425 17.06ZM3.32925 13.0945L5.93124 11.6013C5.98856 11.7012 6.03467 11.8181 6.06133 11.9429L3.1275 12.5695L0.193666 13.1961C0.298997 13.6893 0.479603 14.1561 0.72726 14.5877L3.32925 13.0945ZM3.1275 12.5695L6.06133 11.9429C6.06673 11.9682 6.0685 11.9905 6.0685 12.006H3.0685H0.0684999C0.0684999 12.4045 0.109605 12.8025 0.193666 13.1961L3.1275 12.5695ZM3.0685 12.006H6.0685C6.0685 12.0361 6.06489 12.078 6.05355 12.126L3.13375 11.437L0.213949 10.748C0.115605 11.1647 0.0684999 11.5859 0.0684999 12.006H3.0685ZM3.13375 11.437L6.05369 12.1254C6.04145 12.1774 6.02273 12.2275 6.00037 12.2712L3.32925 10.9055L0.658135 9.5398C0.462106 9.9232 0.31305 10.3276 0.21381 10.7486L3.13375 11.437ZM3.32925 10.9055L5.97588 12.3181C6.65828 11.0395 7.52523 10.1083 8.57067 9.44391L6.9615 6.912L5.35233 4.38009C3.36944 5.64032 1.81488 7.3715 0.682622 9.49293L3.32925 10.9055ZM6.9615 6.912L8.57067 9.44391C9.59533 8.79268 10.7047 8.4685 11.969 8.4685V5.4685V2.4685C9.58498 2.4685 7.356 3.10665 5.35233 4.38009L6.9615 6.912ZM11.969 5.4685V8.4685C13.2348 8.4685 14.3553 8.7926 15.3975 9.4483L16.995 6.909L18.5925 4.3697C16.5817 3.10473 14.3516 2.4685 11.969 2.4685V5.4685ZM16.995 6.909L15.3975 9.4483C16.452 10.1117 17.3201 11.0399 17.9991 12.3121L20.6457 10.8995L23.2924 9.48693C22.1567 7.35911 20.591 5.62701 18.5925 4.3697L16.995 6.909ZM20.6457 10.8995L18.0286 12.366C17.983 12.2846 17.9447 12.1878 17.9214 12.0828L20.8505 11.4342L23.7796 10.7857C23.6736 10.3073 23.4988 9.85402 23.2629 9.43299L20.6457 10.8995ZM20.8505 11.4342L17.9214 12.0828C17.9168 12.0619 17.9125 12.0311 17.9125 11.994H20.9125H23.9125C23.9125 11.5839 23.8669 11.1799 23.7796 10.7857L20.8505 11.4342ZM20.9125 11.994H17.9125C17.9125 11.9465 17.9182 11.9106 17.9229 11.8903L20.8475 12.5585L23.7721 13.2267C23.8634 12.8271 23.9125 12.4148 23.9125 11.994H20.9125ZM20.8475 12.5585L17.9229 11.8903C17.9429 11.8026 17.9756 11.7187 18.016 11.646L20.6398 13.1005L23.2635 14.555C23.4942 14.1389 23.6654 13.6938 23.7721 13.2267L20.8475 12.5585ZM20.6398 13.1005L17.9963 11.6819C17.3236 12.9356 16.4588 13.8579 15.4006 14.5227L16.9965 17.063L18.5924 19.6033C20.5852 18.3514 22.1492 16.6321 23.2832 14.5191L20.6398 13.1005ZM16.9965 17.063L15.4006 14.5227C14.3593 15.1768 13.2392 15.5005 11.9733 15.5005V18.5005V21.5005C14.354 21.5005 16.5827 20.8658 18.5924 19.6033L16.9965 17.063ZM11.9713 16.8393V19.8392C14.1161 19.8392 16.1211 19.2252 17.925 18.0476L16.285 15.5355L14.645 13.0235C13.7862 13.5841 12.9154 13.8393 11.9713 13.8393V16.8393ZM16.285 15.5355L17.9248 18.0477C19.7381 16.8641 21.1186 15.2508 22.0505 13.2786L19.338 11.997L16.6255 10.7154C16.1494 11.7232 15.4946 12.4689 14.6452 13.0233L16.285 15.5355ZM19.338 11.997L22.0505 10.7154C21.1199 8.74579 19.743 7.13191 17.9369 5.94129L16.2857 8.446L14.6346 10.9507C15.4902 11.5148 16.1481 12.2682 16.6255 13.2786L19.338 11.997ZM16.2857 8.446L17.9369 5.94129C16.1318 4.75127 14.1216 4.13 11.969 4.13V7.13V10.13C12.9104 10.13 13.778 10.3861 14.6346 10.9507L16.2857 8.446ZM11.969 7.13V4.13C9.81774 4.13 7.81062 4.75234 6.0124 5.94752L7.673 8.446L9.33361 10.9445C10.1754 10.385 11.0323 10.13 11.969 10.13V7.13ZM7.673 8.446L6.0124 5.94752C4.21898 7.13951 2.85214 8.75214 1.92453 10.7154L4.637 11.997L7.34947 13.2786C7.82986 12.2619 8.48702 11.5072 9.33361 10.9445L7.673 8.446ZM4.637 11.997L1.92453 13.2786C2.85336 15.2445 4.2239 16.8565 6.02457 18.0415L7.67375 15.5355L9.32293 13.0295C8.4826 12.4765 7.82864 11.7295 7.34947 10.7154L4.637 11.997ZM7.67375 15.5355L6.02435 18.0414C7.82233 19.2248 9.82601 19.8392 11.9713 19.8392V16.8393V13.8393C11.0275 13.8393 10.1662 13.5845 9.32315 13.0296L7.67375 15.5355ZM11.9995 15.312V18.312C13.7138 18.312 15.2598 17.673 16.4766 16.4707L14.368 14.3367L12.2594 12.2028C12.1845 12.2767 12.1451 12.2921 12.1401 12.2941C12.1354 12.2961 12.0993 12.312 11.9995 12.312V15.312ZM14.368 14.3367L16.4766 16.4707C17.6953 15.2665 18.355 13.7212 18.355 11.9945H15.355H12.355C12.355 12.0411 12.3509 12.0685 12.3485 12.0809C12.3462 12.0928 12.3442 12.0974 12.3437 12.0986C12.3431 12.0999 12.3402 12.1069 12.3303 12.1213C12.3201 12.1361 12.2989 12.1637 12.2594 12.2028L14.368 14.3367ZM15.355 11.9945H18.355C18.355 10.2702 17.698 8.7272 16.4878 7.5207L14.3697 9.64525L12.2517 11.7698C12.2923 11.8103 12.3147 11.8396 12.326 11.8561C12.337 11.8722 12.3409 11.881 12.3421 11.8839C12.3433 11.8868 12.3457 11.8929 12.3482 11.9059C12.3509 11.9194 12.355 11.9476 12.355 11.9945H15.355ZM14.3697 9.64525L16.4878 7.5207C15.2698 6.30636 13.7172 5.663 11.9958 5.663V8.663V11.663C12.0973 11.663 12.1333 11.6792 12.1367 11.6807C12.1402 11.6821 12.1782 11.6965 12.2517 11.7698L14.3697 9.64525ZM11.9958 8.663V5.663C10.2801 5.663 8.72853 6.3063 7.5215 7.53605L9.6625 9.6375L11.8035 11.739C11.8364 11.7054 11.8585 11.6889 11.8683 11.6821C11.8734 11.6786 11.8766 11.6767 11.878 11.676C11.8794 11.6752 11.88 11.675 11.8802 11.6749C11.8805 11.6748 11.8814 11.6744 11.8837 11.6737C11.8859 11.673 11.8905 11.6718 11.8981 11.6703C11.9127 11.6675 11.9438 11.663 11.9958 11.663V8.663ZM9.6625 9.6375L7.5215 7.53605C6.32397 8.75611 5.706 10.3015 5.706 11.9983H8.706H11.706C11.706 11.888 11.7235 11.8465 11.7256 11.8415C11.7273 11.8373 11.7395 11.8042 11.8035 11.739L9.6625 9.6375ZM8.706 11.9983H5.706C5.706 13.7011 6.33074 15.2514 7.54475 16.4676L9.668 14.3482L11.7912 12.2289C11.7585 12.196 11.7417 12.1734 11.734 12.1621C11.7267 12.1512 11.7241 12.1453 11.7229 12.1423C11.7216 12.1393 11.7182 12.1303 11.7146 12.1113C11.7109 12.0916 11.706 12.0553 11.706 11.9983H8.706ZM9.668 14.3482L7.54503 16.4679C8.75269 17.6775 10.2951 18.312 11.9995 18.312V15.312V12.312C11.9479 12.312 11.9162 12.3075 11.9005 12.3045C11.8854 12.3017 11.8792 12.2991 11.878 12.2986C11.8768 12.2981 11.8715 12.2959 11.8604 12.2883C11.8487 12.2805 11.8252 12.2629 11.791 12.2286L9.668 14.3482ZM11.9958 13.6982V10.6982C12.1148 10.6982 12.2887 10.7206 12.4831 10.8007C12.6785 10.8812 12.8258 10.9918 12.922 11.0887L10.7938 13.203L8.66546 15.3173C9.56732 16.2251 10.7387 16.6982 11.9958 16.6982V13.6982ZM10.7938 13.203L12.9226 11.0892C13.016 11.1833 13.1233 11.3275 13.2016 11.519C13.2796 11.7098 13.3018 11.8811 13.3018 11.9998H10.3018H7.30175C7.30175 13.2515 7.77047 14.416 8.66492 15.3168L10.7938 13.203ZM10.3018 11.9998H13.3018C13.3018 12.1181 13.2796 12.284 13.2059 12.4665C13.132 12.6491 13.0321 12.7847 12.9483 12.8713L10.7933 10.7843L8.63823 8.69717C7.76731 9.59644 7.30175 10.7506 7.30175 11.9998H10.3018ZM10.7933 10.7843L12.9483 12.8713C12.8546 12.9681 12.7067 13.083 12.5057 13.1678C12.3052 13.2524 12.1234 13.2768 11.9965 13.2768V10.2768V7.27675C10.7165 7.27675 9.53576 7.77043 8.63823 8.69717L10.7933 10.7843ZM11.9965 10.2768V13.2768C11.8729 13.2768 11.6999 13.2532 11.5104 13.1749C11.321 13.0966 11.1822 12.9913 11.0951 12.9045L13.2128 10.7795L15.3304 8.6545C14.4322 7.7594 13.2654 7.27675 11.9965 7.27675V10.2768ZM13.2128 10.7795L11.0956 12.905C11.0052 12.8149 10.898 12.6734 10.819 12.4824C10.7401 12.2918 10.7175 12.1198 10.7175 12.0002H13.7175H16.7175C16.7175 10.7309 16.2365 9.55704 15.3299 8.65397L13.2128 10.7795ZM13.7175 12.0002H10.7175C10.7175 11.8739 10.7416 11.6954 10.8235 11.4992C10.9055 11.3028 11.0165 11.1582 11.1094 11.0666L13.2152 13.2032L15.3211 15.3399C16.2306 14.4436 16.7175 13.2718 16.7175 12.0002H13.7175ZM13.2152 13.2032L11.1094 11.0666C11.2022 10.9751 11.3438 10.8707 11.5309 10.7948C11.7171 10.7192 11.883 10.6982 11.9958 10.6982V13.6982V16.6982C13.2469 16.6982 14.4143 16.2336 15.3211 15.3399L13.2152 13.2032ZM23.1555 2.54775H20.1555V4.78325H23.1555H26.1555V2.54775H23.1555ZM23.1555 4.78325H20.1555C20.1555 4.55516 20.1959 4.27687 20.3153 3.98366C20.4356 3.68832 20.6082 3.44626 20.7928 3.26255L22.9087 5.38925L25.0247 7.51595C25.7773 6.76717 26.1555 5.79002 26.1555 4.78325H23.1555ZM22.9087 5.38925L20.7928 3.26255C20.9777 3.07864 21.2193 2.90865 21.5118 2.79079C21.8019 2.6739 22.076 2.63475 22.2995 2.63475V5.63475V8.63475C23.2976 8.63475 24.2726 8.26425 25.0247 7.51595L22.9087 5.38925ZM22.2995 5.63475V2.63475C22.5227 2.63475 22.8 2.67381 23.095 2.79353C23.3931 2.91446 23.6399 3.08977 23.8288 3.28101L21.6945 5.38925L19.5602 7.49749C20.3164 8.2631 21.3009 8.63475 22.2995 8.63475V5.63475ZM21.6945 5.38925L23.8299 3.28211C24.0137 3.46837 24.1821 3.71033 24.2985 4.00142C24.4138 4.28995 24.4523 4.56197 24.4523 4.78325H21.4523H18.4523C18.4523 5.77264 18.8164 6.74369 19.5591 7.49639L21.6945 5.38925ZM21.4523 4.78325H24.4523V2.54775H21.4523H18.4523V4.78325H21.4523ZM21.4523 2.54775V-0.452251H19.2167V2.54775V5.54775H21.4523V2.54775ZM19.2167 2.54775V-0.452251C19.4448 -0.452251 19.7231 -0.41183 20.0163 -0.292438C20.3117 -0.172184 20.5537 0.000426114 20.7374 0.185073L18.6107 2.301L16.484 4.41693C17.2328 5.16952 18.21 5.54775 19.2167 5.54775V2.54775ZM18.6107 2.301L20.7374 0.185073C20.9214 0.369921 21.0914 0.611571 21.2092 0.904055C21.3261 1.19414 21.3652 1.46828 21.3652 1.69175H18.3652H15.3652C15.3652 2.6898 15.7358 3.66482 16.484 4.41693L18.6107 2.301ZM18.3652 1.69175H21.3652C21.3652 1.91488 21.3262 2.19242 21.2063 2.48774C21.0852 2.78609 20.9096 3.03327 20.7179 3.22241L18.6107 1.087L16.5036 -1.04841C15.737 -0.29191 15.3652 0.693166 15.3652 1.69175H18.3652ZM18.6107 1.087L20.719 3.22132C20.5329 3.40517 20.2909 3.57382 19.9996 3.6904C19.7108 3.80596 19.4384 3.8445 19.2167 3.8445V0.844501V-2.1555C18.2264 -2.1555 17.255 -1.79062 16.5025 -1.04732L18.6107 1.087ZM19.2167 0.844501V3.8445H21.4523V0.844501V-2.1555H19.2167V0.844501ZM21.4523 0.844501V3.8445C21.3056 3.8445 21.1197 3.81553 20.9264 3.73364C20.7353 3.65271 20.603 3.54816 20.5269 3.47205L22.6488 1.35125L24.7706 -0.769547C23.8944 -1.6462 22.7416 -2.1555 21.4523 -2.1555V0.844501ZM22.6488 1.35125L20.528 3.47309C20.4518 3.39702 20.3473 3.2647 20.2664 3.0736C20.1845 2.88026 20.1555 2.69441 20.1555 2.54775H23.1555H26.1555C26.1555 1.25839 25.6462 0.105628 24.7695 -0.770594L22.6488 1.35125ZM2.55375 0.844501V3.8445H4.78925V0.844501V-2.1555H2.55375V0.844501ZM4.78925 0.844501V3.8445C4.56116 3.8445 4.28287 3.80408 3.98966 3.68469C3.69432 3.56443 3.45226 3.39182 3.26855 3.20718L5.39525 1.09125L7.52195 -1.02468C6.77317 -1.77727 5.79602 -2.1555 4.78925 -2.1555V0.844501ZM5.39525 1.09125L3.26855 3.20718C3.08464 3.02233 2.91465 2.78068 2.79679 2.48819C2.6799 2.19811 2.64075 1.92397 2.64075 1.7005H5.64075H8.64075C8.64075 0.702446 8.27024 -0.272572 7.52195 -1.02468L5.39525 1.09125ZM5.64075 1.7005H2.64075C2.64075 1.47735 2.67981 1.2 2.79953 0.904974C2.92046 0.606945 3.09577 0.360077 3.28701 0.171178L5.39525 2.3055L7.50349 4.43982C8.2691 3.68357 8.64075 2.69906 8.64075 1.7005H5.64075ZM5.39525 2.3055L3.28811 0.170091C3.47437 -0.0136995 3.71633 -0.182115 4.00742 -0.298481C4.29595 -0.41382 4.56797 -0.452251 4.78925 -0.452251V2.54775V5.54775C5.77864 5.54775 6.74969 5.18364 7.50239 4.44091L5.39525 2.3055ZM4.78925 2.54775V-0.452251H2.55375V2.54775V5.54775H4.78925V2.54775ZM2.55375 2.54775H-0.44625V4.78325H2.55375H5.55375V2.54775H2.55375ZM2.55375 4.78325H-0.44625C-0.44625 4.55516 -0.405829 4.27687 -0.286436 3.98365C-0.166183 3.68832 0.00642741 3.44626 0.191073 3.26255L2.307 5.38925L4.42293 7.51595C5.17552 6.76717 5.55375 5.79002 5.55375 4.78325H2.55375ZM2.307 5.38925L0.191073 3.26255C0.375922 3.07864 0.617572 2.90865 0.910056 2.79079C1.20014 2.6739 1.47428 2.63475 1.69775 2.63475V5.63475V8.63475C2.6958 8.63475 3.67082 8.26425 4.42293 7.51595L2.307 5.38925ZM1.69775 5.63475V2.63475C1.92088 2.63475 2.19842 2.67381 2.49374 2.79369C2.79209 2.91481 3.03927 3.09044 3.22841 3.28211L1.093 5.38925L-1.04241 7.49639C-0.285909 8.26304 0.699167 8.63475 1.69775 8.63475V5.63475ZM1.093 5.38925L3.22732 3.28101C3.41116 3.46713 3.57981 3.7091 3.6964 4.00043C3.81196 4.28922 3.8505 4.56159 3.8505 4.78325H0.8505H-2.1495C-2.1495 5.77361 -1.78462 6.745 -1.04132 7.49749L1.093 5.38925ZM0.8505 4.78325H3.8505V2.54775H0.8505H-2.1495V4.78325H0.8505ZM0.8505 2.54775H3.8505C3.8505 2.69441 3.82153 2.88026 3.73964 3.0736C3.65871 3.2647 3.55416 3.39702 3.47805 3.47309L1.35725 1.35125L-0.763547 -0.770594C-1.6402 0.105625 -2.1495 1.25839 -2.1495 2.54775H0.8505ZM1.35725 1.35125L3.47909 3.47205C3.40302 3.54816 3.2707 3.65271 3.0796 3.73364C2.88626 3.81553 2.70041 3.8445 2.55375 3.8445V0.844501V-2.1555C1.2644 -2.1555 0.111629 -1.6462 -0.764594 -0.769547L1.35725 1.35125Z" fill="var(--stroke-0, #2DA2DB)" mask="url(#path-1-inside-1_0_33)"/>
</g>
</g>
</svg>
