<svg preserveAspectRatio="none" width="100%" height="100%" overflow="visible" style="display: block;" viewBox="0 0 24 24" fill="none" xmlns="http://www.w3.org/2000/svg">
<g id="lightbulb_2">
<g id="Vector">
<mask id="path-1-inside-1_0_41" fill="white">
<path d="M9.70875 18.1315C9.23458 18.1315 8.83117 17.9652 8.4985 17.6325C8.16583 17.2998 7.9995 16.8964 7.9995 16.4223V14.9207C7.00183 14.2377 6.22758 13.3677 5.67675 12.3105C5.12592 11.2535 4.8505 10.1269 4.8505 8.93075C4.8505 6.95925 5.5475 5.28533 6.9415 3.909C8.3355 2.53267 10.0246 1.8445 12.0088 1.8445C13.9928 1.8445 15.6798 2.53942 17.07 3.92925C18.4603 5.31908 19.1555 7.00975 19.1555 9.00125C19.1555 10.1989 18.8775 11.3184 18.3215 12.3598C17.7655 13.4011 16.9918 14.2547 16.0005 14.9207V16.4223C16.0005 16.8964 15.8338 17.2998 15.5003 17.6325C15.1666 17.9652 14.7656 18.1315 14.2973 18.1315H9.70875ZM9.82775 16.4283H14.1723V14.5918C14.1723 14.4406 14.2053 14.3088 14.2715 14.1963C14.3377 14.0838 14.4288 13.9794 14.545 13.8832L15.126 13.4812C15.861 12.9707 16.4324 12.3196 16.8402 11.5277C17.2482 10.7359 17.4523 9.89183 17.4523 8.9955C17.4523 7.47717 16.9243 6.18967 15.8685 5.133C14.8127 4.07617 13.5232 3.54775 12 3.54775C10.4768 3.54775 9.18733 4.08075 8.1315 5.14675C7.07567 6.21275 6.54775 7.50433 6.54775 9.0215C6.54775 9.91983 6.75175 10.7612 7.15975 11.5455C7.56758 12.33 8.14042 12.9759 8.87825 13.4832L9.455 13.8832C9.57117 13.9794 9.66233 14.0844 9.7285 14.1982C9.79467 14.3121 9.82775 14.4433 9.82775 14.5918V16.4283ZM9.907 22.1495C9.66517 22.1495 9.46383 22.0672 9.303 21.9027C9.142 21.7382 9.0615 21.5347 9.0615 21.292C9.0615 21.0493 9.142 20.8487 9.303 20.69C9.46383 20.5315 9.66517 20.4522 9.907 20.4522H14.118C14.3593 20.4522 14.5616 20.5345 14.7247 20.699C14.8879 20.8635 14.9695 21.0671 14.9695 21.3098C14.9695 21.5523 14.8879 21.7528 14.7247 21.9115C14.5616 22.0702 14.3593 22.1495 14.118 22.1495H9.907Z"/>
</mask>
<path d="M8.4985 17.6325L10.6198 15.5112L8.4985 17.6325ZM7.9995 14.9207H10.9995V13.3389L9.6942 12.4453L7.9995 14.9207ZM5.67675 12.3105L8.33726 10.9243L8.33717 10.9241L5.67675 12.3105ZM17.07 3.92925L14.9489 6.05082L14.9491 6.05095L17.07 3.92925ZM16.0005 14.9207L14.3275 12.4305L13.0005 13.3221V14.9207H16.0005ZM15.5002 17.6325L17.6184 19.757L17.6189 19.7565L15.5002 17.6325ZM9.82775 16.4283H6.82775V19.4283H9.82775V16.4283ZM14.1722 16.4283V19.4283H17.1722V16.4283H14.1722ZM14.545 13.8832L12.838 11.4162L12.7316 11.4898L12.632 11.5723L14.545 13.8832ZM15.126 13.4812L16.833 15.9483L16.8374 15.9452L15.126 13.4812ZM16.8402 11.5278L14.1734 10.1537L14.1732 10.1541L16.8402 11.5278ZM15.8685 5.133L13.7462 7.25332L13.7463 7.25348L15.8685 5.133ZM7.15975 11.5455L9.82155 10.1617L9.8212 10.161L7.15975 11.5455ZM8.87825 13.4832L10.5879 11.0181L10.578 11.0112L8.87825 13.4832ZM9.455 13.8832L11.368 11.5723L11.2696 11.4909L11.1647 11.4181L9.455 13.8832ZM9.303 21.9027L11.4481 19.8055L11.447 19.8044L9.303 21.9027ZM9.303 20.69L7.19724 18.5532L7.19722 18.5533L9.303 20.69ZM9.70875 18.1315V15.1315C9.82976 15.1315 10.0028 15.1544 10.1941 15.2333C10.3859 15.3123 10.5285 15.4199 10.6198 15.5112L8.4985 17.6325L6.37718 19.7538C7.27742 20.6541 8.44598 21.1315 9.70875 21.1315V18.1315ZM8.4985 17.6325L10.6198 15.5112C10.7112 15.6025 10.8187 15.7451 10.8978 15.9369C10.9766 16.1282 10.9995 16.3012 10.9995 16.4223H7.9995H4.9995C4.9995 17.685 5.47694 18.8536 6.37718 19.7538L8.4985 17.6325ZM7.9995 16.4223H10.9995V14.9207H7.9995H4.9995V16.4223H7.9995ZM7.9995 14.9207L9.6942 12.4453C9.09697 12.0364 8.65711 11.5381 8.33726 10.9243L5.67675 12.3105L3.01624 13.6968C3.79806 15.1972 4.9067 16.4391 6.3048 17.3962L7.9995 14.9207ZM5.67675 12.3105L8.33717 10.9241C8.01026 10.2968 7.8505 9.64598 7.8505 8.93075H4.8505H1.8505C1.8505 10.6079 2.24158 12.2102 3.01633 13.6969L5.67675 12.3105ZM4.8505 8.93075H7.8505C7.8505 7.75574 8.23026 6.85241 9.04925 6.0438L6.9415 3.909L4.83375 1.77419C2.86474 3.71825 1.8505 6.16276 1.8505 8.93075H4.8505ZM6.9415 3.909L9.04925 6.0438C9.87373 5.22977 10.8022 4.8445 12.0088 4.8445V1.8445V-1.1555C9.24694 -1.1555 6.79727 -0.164439 4.83375 1.77419L6.9415 3.909ZM12.0088 1.8445V4.8445C13.2055 4.8445 14.1272 5.22929 14.9489 6.05082L17.07 3.92925L19.1911 1.80767C17.2325 -0.150454 14.78 -1.1555 12.0088 -1.1555V1.8445ZM17.07 3.92925L14.9491 6.05095C15.7684 6.86996 16.1555 7.79393 16.1555 9.00125H19.1555H22.1555C22.1555 6.22557 21.1523 3.76821 19.1909 1.80755L17.07 3.92925ZM19.1555 9.00125H16.1555C16.1555 9.71351 15.9954 10.3468 15.6751 10.9468L18.3215 12.3598L20.9679 13.7727C21.7596 12.2901 22.1555 10.6843 22.1555 9.00125H19.1555ZM18.3215 12.3598L15.6751 10.9468C15.3533 11.5495 14.9161 12.0352 14.3275 12.4305L16.0005 14.9207L17.6735 17.411C19.0676 16.4743 20.1777 15.2527 20.9679 13.7727L18.3215 12.3598ZM16.0005 14.9207H13.0005V16.4223H16.0005H19.0005V14.9207H16.0005ZM16.0005 16.4223H13.0005C13.0005 16.3003 13.0236 16.1264 13.1029 15.9344C13.1825 15.7421 13.2904 15.5995 13.3816 15.5085L15.5002 17.6325L17.6189 19.7565C18.5208 18.8568 19.0005 17.6874 19.0005 16.4223H16.0005ZM15.5002 17.6325L13.3821 15.508C13.469 15.4214 13.6084 15.3151 13.7998 15.2357C13.9916 15.1561 14.1683 15.1315 14.2972 15.1315V18.1315V21.1315C15.5651 21.1315 16.7262 20.6465 17.6184 19.757L15.5002 17.6325ZM14.2972 18.1315V15.1315H9.70875V18.1315V21.1315H14.2972V18.1315ZM9.82775 16.4283V19.4283H14.1722V16.4283V13.4283H9.82775V16.4283ZM14.1722 16.4283H17.1722V14.5918H14.1722H11.1723V16.4283H14.1722ZM14.1722 14.5918H17.1722C17.1722 14.8896 17.1028 15.2999 16.8574 15.7171L14.2715 14.1962L11.6856 12.6754C11.3079 13.3176 11.1723 13.9916 11.1723 14.5918H14.1722ZM14.2715 14.1962L16.8574 15.7171C16.7217 15.9478 16.5693 16.102 16.458 16.1942L14.545 13.8832L12.632 11.5723C12.2884 11.8568 11.9536 12.2197 11.6856 12.6754L14.2715 14.1962ZM14.545 13.8832L16.252 16.3503L16.833 15.9483L15.126 13.4812L13.419 11.0142L12.838 11.4162L14.545 13.8832ZM15.126 13.4812L16.8374 15.9452C17.9733 15.1563 18.8737 14.1315 19.5073 12.9014L16.8402 11.5278L14.1732 10.1541C13.9911 10.5077 13.7487 10.7852 13.4146 11.0173L15.126 13.4812ZM16.8402 11.5278L19.5071 12.9018C20.1354 11.6823 20.4523 10.3668 20.4523 8.9955H17.4523H14.4523C14.4523 9.41691 14.3611 9.78952 14.1734 10.1537L16.8402 11.5278ZM17.4523 8.9955H20.4523C20.4523 6.69661 19.6189 4.64202 17.9907 3.01252L15.8685 5.133L13.7463 7.25348C14.2298 7.73731 14.4523 8.25773 14.4523 8.9955H17.4523ZM15.8685 5.133L17.9908 3.01268C16.36 1.38036 14.3018 0.547749 12 0.547749V3.54775V6.54775C12.7445 6.54775 13.2653 6.77197 13.7462 7.25332L15.8685 5.133ZM12 3.54775V0.547749C9.68987 0.547749 7.62883 1.39114 6.00004 3.03562L8.1315 5.14675L10.263 7.25788C10.7458 6.77036 11.2638 6.54775 12 6.54775V3.54775ZM8.1315 5.14675L6.00004 3.03562C4.38086 4.67039 3.54775 6.72359 3.54775 9.0215H6.54775H9.54775C9.54775 8.28508 9.77048 7.75511 10.263 7.25788L8.1315 5.14675ZM6.54775 9.0215H3.54775C3.54775 10.3937 3.86418 11.7109 4.4983 12.9299L7.15975 11.5455L9.8212 10.161C9.63932 9.81141 9.54775 9.44592 9.54775 9.0215H6.54775ZM7.15975 11.5455L4.49795 12.9293C5.13547 14.1556 6.04106 15.1732 7.1785 15.9553L8.87825 13.4832L10.578 11.0112C10.2398 10.7787 9.99969 10.5044 9.82155 10.1617L7.15975 11.5455ZM8.87825 13.4832L7.16857 15.9484L7.74532 16.3484L9.455 13.8832L11.1647 11.4181L10.5879 11.0181L8.87825 13.4832ZM9.455 13.8832L7.54196 16.1942C7.42474 16.0971 7.27023 15.9388 7.13483 15.7058L9.7285 14.1982L12.3222 12.6907C12.0544 12.23 11.7176 11.8617 11.368 11.5723L9.455 13.8832ZM9.7285 14.1982L7.13483 15.7058C6.90215 15.3056 6.82775 14.9037 6.82775 14.5918H9.82775H12.8277C12.8277 13.9828 12.6872 13.3186 12.3222 12.6907L9.7285 14.1982ZM9.82775 14.5918H6.82775V16.4283H9.82775H12.8277V14.5918H9.82775ZM9.907 22.1495V19.1495C10.1316 19.1495 10.4114 19.189 10.7092 19.3106C11.01 19.4335 11.2586 19.6116 11.4481 19.8055L9.303 21.9027L7.15791 24C7.91462 24.774 8.90393 25.1495 9.907 25.1495V22.1495ZM9.303 21.9027L11.447 19.8044C11.6313 19.9926 11.7976 20.235 11.9117 20.5235C12.0246 20.8091 12.0615 21.0766 12.0615 21.292H9.0615H6.0615C6.0615 22.272 6.41715 23.2432 7.15899 24.0011L9.303 21.9027ZM9.0615 21.292H12.0615C12.0615 21.5067 12.0248 21.7808 11.9062 22.0765C11.7858 22.3765 11.6085 22.6299 11.4088 22.8267L9.303 20.69L7.19722 18.5533C6.41909 19.3201 6.0615 20.3116 6.0615 21.292H9.0615ZM9.303 20.69L11.4088 22.8268C11.2139 23.0188 10.9655 23.1882 10.6734 23.3032C10.3853 23.4166 10.1181 23.4522 9.907 23.4522V20.4522V17.4522C8.93887 17.4522 7.96187 17.7997 7.19724 18.5532L9.303 20.69ZM9.907 20.4522V23.4522H14.118V20.4522V17.4522H9.907V20.4522ZM14.118 20.4522V23.4522C13.8921 23.4522 13.6143 23.4124 13.3205 23.2929C13.0243 23.1724 12.7804 22.9988 12.5948 22.8117L14.7247 20.699L16.8547 18.5863C16.1026 17.8281 15.1221 17.4522 14.118 17.4522V20.4522ZM14.7247 20.699L12.5948 22.8117C12.4098 22.6252 12.2405 22.3827 12.1236 22.091C12.0078 21.802 11.9695 21.53 11.9695 21.3098H14.9695H17.9695C17.9695 20.3173 17.6039 19.3416 16.8547 18.5863L14.7247 20.699ZM14.9695 21.3098H11.9695C11.9695 21.0899 12.0077 20.811 12.1294 20.5118C12.2527 20.2086 12.4331 19.9554 12.6333 19.7607L14.7247 21.9115L16.8162 24.0623C17.6012 23.2989 17.9695 22.3034 17.9695 21.3098H14.9695ZM14.7247 21.9115L12.6333 19.7607C12.8239 19.5754 13.0674 19.4101 13.3552 19.2972C13.6397 19.1856 13.9053 19.1495 14.118 19.1495V22.1495V25.1495C15.0883 25.1495 16.0567 24.8008 16.8162 24.0623L14.7247 21.9115ZM14.118 22.1495V19.1495H9.907V22.1495V25.1495H14.118V22.1495Z" fill="var(--stroke-0, #2DA2DB)" mask="url(#path-1-inside-1_0_41)"/>
</g>
</g>
</svg>
