<svg preserveAspectRatio="none" width="100%" height="100%" overflow="visible" style="display: block;" viewBox="0 0 32 32" fill="none" xmlns="http://www.w3.org/2000/svg">
<g id="target">
<path id="Vector" d="M15.998 29.7C14.1071 29.7 12.3282 29.3414 10.6613 28.6243C8.99422 27.9072 7.54322 26.932 6.30833 25.6987C5.07322 24.4653 4.09644 23.0143 3.378 21.3457C2.65933 19.677 2.3 17.8971 2.3 16.006C2.3 14.1111 2.65933 12.331 3.378 10.6657C4.09644 9.00011 5.07256 7.54867 6.30633 6.31133C7.54011 5.074 8.99156 4.09611 10.6607 3.37767C12.3296 2.65922 14.1098 2.3 16.0013 2.3C17.8927 2.3 19.6726 2.65922 21.341 3.37767C23.0097 4.09611 24.4607 5.074 25.694 6.31133C26.9276 7.54867 27.9036 9.00067 28.622 10.6673C29.3407 12.334 29.7 14.1148 29.7 16.0097C29.7 17.9008 29.341 19.6798 28.623 21.3467C27.905 23.0138 26.9284 24.4648 25.6933 25.6997C24.4582 26.9348 23.0063 27.9102 21.3377 28.626C19.669 29.342 17.8891 29.7 15.998 29.7ZM16.002 27.5167C19.2124 27.5167 21.9341 26.401 24.167 24.1697C26.4001 21.9383 27.5167 19.2178 27.5167 16.008C27.5167 12.7909 26.3994 10.0659 24.165 7.833C21.9308 5.59989 19.2084 4.48333 15.998 4.48333C12.7876 4.48333 10.0659 5.59989 7.833 7.833C5.59989 10.0659 4.48333 12.7896 4.48333 16.004C4.48333 19.2184 5.60056 21.9408 7.835 24.171C10.0692 26.4014 12.7916 27.5167 16.002 27.5167ZM16.001 24.279C13.6983 24.279 11.744 23.475 10.138 21.867C8.532 20.2588 7.729 18.3053 7.729 16.0067C7.729 13.7078 8.53167 11.7534 10.137 10.1437C11.7426 8.53389 13.6966 7.729 15.999 7.729C18.3017 7.729 20.2573 8.53356 21.866 10.1427C23.4747 11.7518 24.279 13.7058 24.279 16.0047C24.279 18.3036 23.475 20.2573 21.867 21.866C20.2588 23.4747 18.3034 24.279 16.001 24.279ZM15.999 22.0957C17.693 22.0957 19.1312 21.5047 20.3137 20.3227C21.4963 19.1409 22.0877 17.703 22.0877 16.009C22.0877 14.315 21.4967 12.8754 20.3147 11.6903C19.1329 10.505 17.695 9.91233 16.001 9.91233C14.307 9.91233 12.8688 10.505 11.6863 11.6903C10.5037 12.8754 9.91233 14.315 9.91233 16.009C9.91233 17.703 10.5033 19.1409 11.6853 20.3227C12.8671 21.5047 14.305 22.0957 15.999 22.0957ZM15.997 18.85C15.2126 18.85 14.5419 18.5723 13.985 18.017C13.4283 17.4619 13.15 16.792 13.15 16.0073C13.15 15.2229 13.4293 14.5506 13.988 13.9903C14.5467 13.4301 15.2183 13.15 16.003 13.15C16.7874 13.15 17.4581 13.4299 18.015 13.9897C18.5717 14.5494 18.85 15.2224 18.85 16.0087C18.85 16.7947 18.5707 17.4648 18.012 18.019C17.4533 18.573 16.7817 18.85 15.997 18.85Z" fill="var(--fill-0, #2DA2DB)"/>
</g>
</svg>
