<svg preserveAspectRatio="none" width="100%" height="100%" overflow="visible" style="display: block;" viewBox="0 0 20 20" fill="none" xmlns="http://www.w3.org/2000/svg">
<g id="globe">
<path id="Vector" d="M10.0062 18.4579C8.8368 18.4579 7.73931 18.2365 6.71375 17.7937C5.68819 17.351 4.79125 16.7454 4.02292 15.9771C3.25458 15.2087 2.64903 14.3115 2.20625 13.2854C1.76347 12.2593 1.54208 11.1609 1.54208 9.99021C1.54208 8.81965 1.76347 7.72104 2.20625 6.69437C2.64903 5.66785 3.25431 4.77382 4.02208 4.01229C4.78986 3.25063 5.68694 2.64771 6.71333 2.20354C7.73972 1.75924 8.8384 1.53708 10.0094 1.53708C11.1802 1.53708 12.2792 1.7591 13.3062 2.20312C14.3332 2.64715 15.2273 3.24972 15.9885 4.01083C16.7499 4.77194 17.3526 5.66694 17.7967 6.69583C18.2408 7.72472 18.4629 8.82424 18.4629 9.99437C18.4629 11.1644 18.2408 12.2621 17.7965 13.2875C17.3523 14.3131 16.7494 15.2085 15.9877 15.974C15.2262 16.7392 14.3312 17.3446 13.3029 17.79C12.2746 18.2353 11.1757 18.4579 10.0062 18.4579ZM10 17.0385C11.921 17.0385 13.5544 16.3799 14.9002 15.0627C16.246 13.7455 16.9488 12.1459 17.0085 10.264C17.0085 10.2284 17.0094 10.1985 17.011 10.1742C17.0127 10.15 17.0135 10.1229 17.0135 10.0929C16.9103 10.4142 16.7176 10.6806 16.4352 10.8921C16.153 11.1035 15.824 11.2092 15.4483 11.2092H13.8067C13.336 11.2092 12.9331 11.0415 12.5979 10.706C12.2628 10.3705 12.0952 9.96715 12.0952 9.49604V8.63958H8.67208V6.96C8.67208 6.48583 8.83986 6.08167 9.17542 5.7475C9.51083 5.41347 9.9141 5.24646 10.3852 5.24646H11.2419V4.78812C11.2419 4.54812 11.3381 4.2559 11.5306 3.91146C11.7231 3.56715 11.9424 3.36687 12.1883 3.31062C11.8444 3.20437 11.4908 3.11965 11.1273 3.05646C10.764 2.99313 10.3888 2.96146 10.0019 2.96146C8.05229 2.96146 6.39146 3.64354 5.01937 5.00771C3.64743 6.37174 2.96146 8.03583 2.96146 10C2.96146 10.0133 2.96229 10.0258 2.96396 10.0373C2.96562 10.049 2.96646 10.0615 2.96646 10.0748H5.86229C6.80549 10.0748 7.61181 10.4094 8.28125 11.0787C8.95069 11.7482 9.28542 12.5537 9.28542 13.4952V14.351H6.72062V16.2546C7.21271 16.5039 7.73403 16.6969 8.28458 16.8335C8.83528 16.9702 9.40708 17.0385 10 17.0385Z" fill="var(--fill-0, #2DA2DB)"/>
</g>
</svg>
