<svg preserveAspectRatio="none" width="100%" height="100%" overflow="visible" style="display: block;" viewBox="0 0 40 40" fill="none" xmlns="http://www.w3.org/2000/svg">
<g id="boxes">
<path id="Vector" d="M20 31.6667L13.3833 35.6333C12.8649 35.9448 12.2715 36.1094 11.6667 36.1094C11.0619 36.1094 10.4684 35.9448 9.95 35.6333L4.95 32.6333C4.45793 32.3377 4.05055 31.92 3.76731 31.4207C3.48408 30.9214 3.33459 30.3574 3.33333 29.7833V24.3833C3.33459 23.8093 3.48408 23.2453 3.76731 22.746C4.05055 22.2467 4.45793 21.829 4.95 21.5333L11.6667 17.5M20 31.6667V22.5M20 31.6667L26.6167 35.6333C27.1351 35.9448 27.7285 36.1094 28.3333 36.1094C28.9381 36.1094 29.5316 35.9448 30.05 35.6333L35.05 32.6333C35.5421 32.3377 35.9495 31.92 36.2327 31.4207C36.5159 30.9214 36.6654 30.3574 36.6667 29.7833V24.3833C36.6654 23.8093 36.5159 23.2453 36.2327 22.746C35.9495 22.2467 35.5421 21.829 35.05 21.5333L28.3333 17.5M20 22.5L11.6667 17.5M20 22.5L11.6667 27.4998M20 22.5L28.3333 17.5M20 22.5L28.3333 27.5M20 22.5L20 13.3332M11.6667 17.5V10.2168C11.6679 9.64277 11.8174 9.07878 12.1006 8.57947C12.3839 8.08016 12.7913 7.66245 13.2833 7.36682L18.2833 4.36682C18.8018 4.05534 19.3952 3.89079 20 3.89079C20.6048 3.89079 21.1982 4.05534 21.7167 4.36682L26.7167 7.36682C27.2087 7.66245 27.6161 8.08016 27.8994 8.57947C28.1826 9.07878 28.3321 9.64277 28.3333 10.2168V17.5M11.6667 27.4998L3.76668 22.7498M11.6667 27.4998L11.6667 36.1167M28.3333 27.5L36.2333 22.7498M28.3333 27.5V36.1167M20 13.3332L12.1 8.58317M20 13.3332L27.9 8.58317" stroke="var(--stroke-0, #2DA2DB)" stroke-width="2.5" stroke-linecap="round" stroke-linejoin="round"/>
</g>
</svg>
