<svg preserveAspectRatio="none" width="100%" height="100%" overflow="visible" style="display: block;" viewBox="0 0 32 32" fill="none" xmlns="http://www.w3.org/2000/svg">
<g id="hard-hat">
<path id="Vector" d="M13.3333 13.3333V6.66667C13.3333 6.31304 13.4738 5.97391 13.7239 5.72386C13.9739 5.47381 14.313 5.33333 14.6667 5.33333H17.3333C17.687 5.33333 18.0261 5.47381 18.2761 5.72386C18.5262 5.97391 18.6667 6.31304 18.6667 6.66667V13.3333M18.6667 8C20.7884 8 22.8232 8.84286 24.3235 10.3431C25.8238 11.8434 26.6667 13.8783 26.6667 16V20M5.33333 20V16C5.33333 13.8783 6.17619 11.8434 7.67648 10.3431C9.17677 8.84286 11.2116 8 13.3333 8M4 20H28C28.7364 20 29.3333 20.597 29.3333 21.3333V24C29.3333 24.7364 28.7364 25.3333 28 25.3333H4C3.26362 25.3333 2.66667 24.7364 2.66667 24V21.3333C2.66667 20.597 3.26362 20 4 20Z" stroke="var(--stroke-0, #2DA2DB)" stroke-width="2.5" stroke-linecap="round" stroke-linejoin="round"/>
</g>
</svg>
