<svg preserveAspectRatio="none" width="100%" height="100%" overflow="visible" style="display: block;" viewBox="0 0 40 40" fill="none" xmlns="http://www.w3.org/2000/svg">
<g id="engineering">
<g id="Vector">
<mask id="path-1-inside-1_0_44" fill="white">
<path d="M1.51083 33.8196V31.1467C1.51083 30.1194 1.75472 29.2775 2.2425 28.6208C2.73 27.9642 3.37986 27.4414 4.19208 27.0525C5.69208 26.3303 7.31444 25.7297 9.05917 25.2508C10.8042 24.7719 12.7617 24.5325 14.9317 24.5325C17.1017 24.5325 19.0574 24.7686 20.7987 25.2408C22.5404 25.7131 24.1646 26.3103 25.6712 27.0325C26.4768 27.4281 27.1233 27.9565 27.6108 28.6179C28.0986 29.279 28.3425 30.1219 28.3425 31.1467V33.8196C28.3425 34.2274 28.2078 34.5658 27.9383 34.835C27.6692 35.1044 27.3307 35.2392 26.9229 35.2392H2.93042C2.52264 35.2392 2.18417 35.1044 1.915 34.835C1.64556 34.5658 1.51083 34.2274 1.51083 33.8196ZM4.35958 32.3904H25.5037V31.1767C25.5037 30.76 25.3857 30.4247 25.1496 30.1708C24.9135 29.9169 24.6287 29.7206 24.2954 29.5817C23.101 29.0539 21.7743 28.5535 20.3154 28.0804C18.8562 27.6076 17.0617 27.3713 14.9317 27.3713C12.8014 27.3713 11.0068 27.6093 9.54792 28.0854C8.08903 28.5618 6.76236 29.0613 5.56792 29.5838C5.22792 29.7213 4.94153 29.9169 4.70875 30.1708C4.47597 30.4247 4.35958 30.76 4.35958 31.1767V32.3904ZM14.9317 22.0325C13.0286 22.0325 11.4687 21.4129 10.2521 20.1738C9.03569 18.9346 8.4275 17.4044 8.4275 15.5833H8.01083C7.76778 15.5833 7.55653 15.4933 7.37708 15.3133C7.19764 15.1336 7.10792 14.9218 7.10792 14.6779C7.10792 14.4371 7.19764 14.2267 7.37708 14.0467C7.55653 13.8669 7.76778 13.7771 8.01083 13.7771H8.4275C8.4275 12.6329 8.72361 11.5981 9.31583 10.6725C9.90778 9.74722 10.6847 9.01 11.6467 8.46083V10.0921C11.6467 10.2679 11.7085 10.4167 11.8321 10.5383C11.9554 10.66 12.1053 10.7208 12.2817 10.7208C12.4694 10.7208 12.6222 10.6603 12.74 10.5392C12.8578 10.4181 12.9167 10.2712 12.9167 10.0987V7.93917C13.1411 7.89028 13.4492 7.84333 13.8408 7.79833C14.2322 7.75333 14.61 7.73083 14.9742 7.73083C15.3314 7.73083 15.7044 7.75333 16.0933 7.79833C16.4822 7.84333 16.7904 7.89014 17.0179 7.93875V10.0987C17.0179 10.2712 17.0771 10.4181 17.1954 10.5392C17.314 10.6603 17.4706 10.7208 17.665 10.7208C17.8383 10.7208 17.9875 10.66 18.1125 10.5383C18.2375 10.4167 18.3 10.2692 18.3 10.0958V8.46083C19.2553 9.01 20.015 9.74708 20.5792 10.6721C21.1436 11.5974 21.4258 12.6324 21.4258 13.7771H21.8425C22.0856 13.7771 22.2968 13.8668 22.4762 14.0462C22.6557 14.2254 22.7454 14.4364 22.7454 14.6792C22.7454 14.9219 22.6557 15.1333 22.4762 15.3133C22.2968 15.4933 22.0856 15.5833 21.8425 15.5833H21.4258C21.4258 17.4075 20.8192 18.9385 19.6058 20.1763C18.3928 21.4138 16.8347 22.0325 14.9317 22.0325ZM14.9362 19.1838C16.0699 19.1838 16.9617 18.8453 17.6117 18.1683C18.2619 17.4917 18.5871 16.61 18.5871 15.5233H11.2762C11.2762 16.6081 11.6008 17.4893 12.25 18.1671C12.8989 18.8449 13.7943 19.1838 14.9362 19.1838ZM27.6475 23.8079L27.6058 23.3913C27.4114 23.2801 27.2096 23.1551 27.0004 23.0163C26.791 22.8774 26.6024 22.7351 26.4346 22.5896L25.9729 22.8396C25.7749 22.9507 25.5856 22.9789 25.405 22.9242C25.2242 22.8694 25.0683 22.76 24.9375 22.5958L24.8975 22.5163C24.7586 22.3218 24.71 22.1204 24.7517 21.9121C24.7933 21.7038 24.8975 21.5301 25.0642 21.3913L25.5225 21.0579C25.4669 20.9468 25.4392 20.8426 25.4392 20.7454V20.1204C25.4392 20.0232 25.4669 19.919 25.5225 19.8079L25.0642 19.4746C24.8975 19.3357 24.7933 19.169 24.7517 18.9746C24.71 18.7801 24.7586 18.5857 24.8975 18.3913L24.9392 18.2663C25.0714 18.0996 25.2289 17.9885 25.4117 17.9329C25.5944 17.8774 25.7842 17.9051 25.9808 18.0163L26.4392 18.2663L27.0225 17.8496C27.2169 17.7107 27.4114 17.5857 27.6058 17.4746L27.6475 17.0163C27.6753 16.794 27.7656 16.6135 27.9183 16.4746C28.0711 16.3357 28.2586 16.2663 28.4808 16.2663H28.5642C28.7797 16.2663 28.965 16.3426 29.12 16.4954C29.275 16.6482 29.3669 16.8357 29.3958 17.0579L29.4392 17.4746C29.6336 17.584 29.8264 17.7086 30.0175 17.8483C30.2086 17.9881 30.4047 18.1274 30.6058 18.2663L31.0642 18.0163C31.2586 17.9051 31.4461 17.8774 31.6267 17.9329C31.8072 17.9885 31.9669 18.0996 32.1058 18.2663L32.1475 18.3496C32.2797 18.544 32.3267 18.7454 32.2883 18.9538C32.25 19.1621 32.1475 19.3357 31.9808 19.4746L31.5225 19.8079C31.5714 19.919 31.5975 20.0232 31.6008 20.1204C31.6042 20.2176 31.6058 20.3218 31.6058 20.4329C31.6058 20.544 31.6042 20.6482 31.6008 20.7454C31.5975 20.8426 31.5714 20.9468 31.5225 21.0579L31.9808 21.3913C32.1475 21.5301 32.25 21.6968 32.2883 21.8913C32.3267 22.0857 32.2781 22.2801 32.1425 22.4746L32.1058 22.5996C31.9669 22.7663 31.8072 22.8774 31.6267 22.9329C31.4461 22.9885 31.2586 22.9607 31.0642 22.8496L30.6058 22.5996C30.4392 22.7385 30.2517 22.8774 30.0433 23.0163C29.835 23.1551 29.6336 23.2801 29.4392 23.3913L29.3958 23.8496C29.3669 24.0718 29.275 24.2524 29.12 24.3913C28.965 24.5301 28.7797 24.5996 28.5642 24.5996H28.4808C28.2586 24.5996 28.0711 24.5232 27.9183 24.3704C27.7656 24.2176 27.6753 24.0301 27.6475 23.8079ZM28.5225 22.0163C28.9669 22.0163 29.3419 21.8635 29.6475 21.5579C29.9531 21.2524 30.1058 20.8774 30.1058 20.4329C30.1058 19.9885 29.9531 19.6135 29.6475 19.3079C29.3419 19.0024 28.9653 18.8496 28.5175 18.8496C28.0697 18.8496 27.6947 19.0024 27.3925 19.3079C27.0903 19.6135 26.9392 19.9885 26.9392 20.4329C26.9392 20.8774 27.0903 21.2524 27.3925 21.5579C27.6947 21.8635 28.0714 22.0163 28.5225 22.0163ZM32.0725 14.905L31.8642 14.03C31.5864 13.9189 31.3017 13.7661 31.01 13.5717C30.7183 13.3772 30.4753 13.1689 30.2808 12.9467L29.1142 13.3658C28.9197 13.4264 28.7322 13.4272 28.5517 13.3683C28.3711 13.3094 28.2253 13.1967 28.1142 13.03L27.9475 12.78C27.8364 12.5856 27.8017 12.3911 27.8433 12.1967C27.885 12.0022 27.9892 11.8356 28.1558 11.6967L29.0725 10.9883C29.0169 10.8494 28.9683 10.6967 28.9267 10.53C28.885 10.3633 28.8642 10.1967 28.8642 10.03C28.8642 9.86333 28.885 9.69833 28.9267 9.535C28.9683 9.37167 29.0169 9.21722 29.0725 9.07167L28.1558 8.36333C27.9892 8.23111 27.885 8.05986 27.8433 7.84958C27.8017 7.63958 27.8364 7.45056 27.9475 7.2825L28.1142 7.07167C28.2253 6.905 28.3711 6.78694 28.5517 6.7175C28.7322 6.64805 28.9197 6.64111 29.1142 6.69667L30.2808 7.11333C30.4753 6.89778 30.7183 6.68458 31.01 6.47375C31.3017 6.26292 31.5864 6.115 31.8642 6.03L32.0725 5.155C32.1281 4.98833 32.2253 4.84944 32.3642 4.73833C32.5031 4.62722 32.6558 4.57167 32.8225 4.57167H33.2392C33.4058 4.57167 33.5586 4.62722 33.6975 4.73833C33.8364 4.84944 33.9336 4.98833 33.9892 5.155L34.1975 6.03C34.4753 6.11333 34.76 6.26083 35.0517 6.4725C35.3433 6.68417 35.5864 6.89778 35.7808 7.11333L36.9475 6.69667C37.1419 6.64111 37.3294 6.64111 37.51 6.69667C37.6906 6.75222 37.8364 6.86333 37.9475 7.03L38.1142 7.28C38.2253 7.47444 38.26 7.67056 38.2183 7.86833C38.1767 8.06611 38.0725 8.23111 37.9058 8.36333L36.9892 9.07167C37.0447 9.21722 37.0933 9.37236 37.135 9.53708C37.1767 9.70208 37.1975 9.86639 37.1975 10.03C37.1975 10.1967 37.1767 10.3633 37.135 10.53C37.0933 10.6967 37.0447 10.8494 36.9892 10.9883L37.9058 11.6967C38.0725 11.8356 38.1767 12.0092 38.2183 12.2175C38.26 12.4258 38.2253 12.6133 38.1142 12.78L37.9475 12.9883C37.8364 13.155 37.6906 13.2747 37.51 13.3475C37.3294 13.4203 37.1419 13.4264 36.9475 13.3658L35.7808 12.9467C35.5864 13.1689 35.3433 13.3772 35.0517 13.5717C34.76 13.7661 34.4753 13.9189 34.1975 14.03L33.9892 14.905C33.9336 15.0717 33.8364 15.2106 33.6975 15.3217C33.5586 15.4328 33.4058 15.4883 33.2392 15.4883H32.8225C32.6558 15.4883 32.5031 15.4328 32.3642 15.3217C32.2253 15.2106 32.1281 15.0717 32.0725 14.905ZM33.0308 12.4467C33.7253 12.4467 34.3017 12.2175 34.76 11.7592C35.2183 11.3008 35.4475 10.7244 35.4475 10.03C35.4475 9.33555 35.2183 8.75917 34.76 8.30083C34.3017 7.8425 33.7253 7.61333 33.0308 7.61333C32.3364 7.61333 31.76 7.8425 31.3017 8.30083C30.8433 8.75917 30.6142 9.33555 30.6142 10.03C30.6142 10.7244 30.8433 11.3008 31.3017 11.7592C31.76 12.2175 32.3364 12.4467 33.0308 12.4467Z"/>
</mask>
<path d="M1.51083 33.8196V31.1467C1.51083 30.1194 1.75472 29.2775 2.2425 28.6208C2.73 27.9642 3.37986 27.4414 4.19208 27.0525C5.69208 26.3303 7.31444 25.7297 9.05917 25.2508C10.8042 24.7719 12.7617 24.5325 14.9317 24.5325C17.1017 24.5325 19.0574 24.7686 20.7987 25.2408C22.5404 25.7131 24.1646 26.3103 25.6712 27.0325C26.4768 27.4281 27.1233 27.9565 27.6108 28.6179C28.0986 29.279 28.3425 30.1219 28.3425 31.1467V33.8196C28.3425 34.2274 28.2078 34.5658 27.9383 34.835C27.6692 35.1044 27.3307 35.2392 26.9229 35.2392H2.93042C2.52264 35.2392 2.18417 35.1044 1.915 34.835C1.64556 34.5658 1.51083 34.2274 1.51083 33.8196ZM4.35958 32.3904H25.5037V31.1767C25.5037 30.76 25.3857 30.4247 25.1496 30.1708C24.9135 29.9169 24.6287 29.7206 24.2954 29.5817C23.101 29.0539 21.7743 28.5535 20.3154 28.0804C18.8562 27.6076 17.0617 27.3713 14.9317 27.3713C12.8014 27.3713 11.0068 27.6093 9.54792 28.0854C8.08903 28.5618 6.76236 29.0613 5.56792 29.5838C5.22792 29.7213 4.94153 29.9169 4.70875 30.1708C4.47597 30.4247 4.35958 30.76 4.35958 31.1767V32.3904ZM14.9317 22.0325C13.0286 22.0325 11.4687 21.4129 10.2521 20.1738C9.03569 18.9346 8.4275 17.4044 8.4275 15.5833H8.01083C7.76778 15.5833 7.55653 15.4933 7.37708 15.3133C7.19764 15.1336 7.10792 14.9218 7.10792 14.6779C7.10792 14.4371 7.19764 14.2267 7.37708 14.0467C7.55653 13.8669 7.76778 13.7771 8.01083 13.7771H8.4275C8.4275 12.6329 8.72361 11.5981 9.31583 10.6725C9.90778 9.74722 10.6847 9.01 11.6467 8.46083V10.0921C11.6467 10.2679 11.7085 10.4167 11.8321 10.5383C11.9554 10.66 12.1053 10.7208 12.2817 10.7208C12.4694 10.7208 12.6222 10.6603 12.74 10.5392C12.8578 10.4181 12.9167 10.2712 12.9167 10.0987V7.93917C13.1411 7.89028 13.4492 7.84333 13.8408 7.79833C14.2322 7.75333 14.61 7.73083 14.9742 7.73083C15.3314 7.73083 15.7044 7.75333 16.0933 7.79833C16.4822 7.84333 16.7904 7.89014 17.0179 7.93875V10.0987C17.0179 10.2712 17.0771 10.4181 17.1954 10.5392C17.314 10.6603 17.4706 10.7208 17.665 10.7208C17.8383 10.7208 17.9875 10.66 18.1125 10.5383C18.2375 10.4167 18.3 10.2692 18.3 10.0958V8.46083C19.2553 9.01 20.015 9.74708 20.5792 10.6721C21.1436 11.5974 21.4258 12.6324 21.4258 13.7771H21.8425C22.0856 13.7771 22.2968 13.8668 22.4762 14.0462C22.6557 14.2254 22.7454 14.4364 22.7454 14.6792C22.7454 14.9219 22.6557 15.1333 22.4762 15.3133C22.2968 15.4933 22.0856 15.5833 21.8425 15.5833H21.4258C21.4258 17.4075 20.8192 18.9385 19.6058 20.1763C18.3928 21.4138 16.8347 22.0325 14.9317 22.0325ZM14.9362 19.1838C16.0699 19.1838 16.9617 18.8453 17.6117 18.1683C18.2619 17.4917 18.5871 16.61 18.5871 15.5233H11.2762C11.2762 16.6081 11.6008 17.4893 12.25 18.1671C12.8989 18.8449 13.7943 19.1838 14.9362 19.1838ZM27.6475 23.8079L27.6058 23.3913C27.4114 23.2801 27.2096 23.1551 27.0004 23.0163C26.791 22.8774 26.6024 22.7351 26.4346 22.5896L25.9729 22.8396C25.7749 22.9507 25.5856 22.9789 25.405 22.9242C25.2242 22.8694 25.0683 22.76 24.9375 22.5958L24.8975 22.5163C24.7586 22.3218 24.71 22.1204 24.7517 21.9121C24.7933 21.7038 24.8975 21.5301 25.0642 21.3913L25.5225 21.0579C25.4669 20.9468 25.4392 20.8426 25.4392 20.7454V20.1204C25.4392 20.0232 25.4669 19.919 25.5225 19.8079L25.0642 19.4746C24.8975 19.3357 24.7933 19.169 24.7517 18.9746C24.71 18.7801 24.7586 18.5857 24.8975 18.3913L24.9392 18.2663C25.0714 18.0996 25.2289 17.9885 25.4117 17.9329C25.5944 17.8774 25.7842 17.9051 25.9808 18.0163L26.4392 18.2663L27.0225 17.8496C27.2169 17.7107 27.4114 17.5857 27.6058 17.4746L27.6475 17.0163C27.6753 16.794 27.7656 16.6135 27.9183 16.4746C28.0711 16.3357 28.2586 16.2663 28.4808 16.2663H28.5642C28.7797 16.2663 28.965 16.3426 29.12 16.4954C29.275 16.6482 29.3669 16.8357 29.3958 17.0579L29.4392 17.4746C29.6336 17.584 29.8264 17.7086 30.0175 17.8483C30.2086 17.9881 30.4047 18.1274 30.6058 18.2663L31.0642 18.0163C31.2586 17.9051 31.4461 17.8774 31.6267 17.9329C31.8072 17.9885 31.9669 18.0996 32.1058 18.2663L32.1475 18.3496C32.2797 18.544 32.3267 18.7454 32.2883 18.9538C32.25 19.1621 32.1475 19.3357 31.9808 19.4746L31.5225 19.8079C31.5714 19.919 31.5975 20.0232 31.6008 20.1204C31.6042 20.2176 31.6058 20.3218 31.6058 20.4329C31.6058 20.544 31.6042 20.6482 31.6008 20.7454C31.5975 20.8426 31.5714 20.9468 31.5225 21.0579L31.9808 21.3913C32.1475 21.5301 32.25 21.6968 32.2883 21.8913C32.3267 22.0857 32.2781 22.2801 32.1425 22.4746L32.1058 22.5996C31.9669 22.7663 31.8072 22.8774 31.6267 22.9329C31.4461 22.9885 31.2586 22.9607 31.0642 22.8496L30.6058 22.5996C30.4392 22.7385 30.2517 22.8774 30.0433 23.0163C29.835 23.1551 29.6336 23.2801 29.4392 23.3913L29.3958 23.8496C29.3669 24.0718 29.275 24.2524 29.12 24.3913C28.965 24.5301 28.7797 24.5996 28.5642 24.5996H28.4808C28.2586 24.5996 28.0711 24.5232 27.9183 24.3704C27.7656 24.2176 27.6753 24.0301 27.6475 23.8079ZM28.5225 22.0163C28.9669 22.0163 29.3419 21.8635 29.6475 21.5579C29.9531 21.2524 30.1058 20.8774 30.1058 20.4329C30.1058 19.9885 29.9531 19.6135 29.6475 19.3079C29.3419 19.0024 28.9653 18.8496 28.5175 18.8496C28.0697 18.8496 27.6947 19.0024 27.3925 19.3079C27.0903 19.6135 26.9392 19.9885 26.9392 20.4329C26.9392 20.8774 27.0903 21.2524 27.3925 21.5579C27.6947 21.8635 28.0714 22.0163 28.5225 22.0163ZM32.0725 14.905L31.8642 14.03C31.5864 13.9189 31.3017 13.7661 31.01 13.5717C30.7183 13.3772 30.4753 13.1689 30.2808 12.9467L29.1142 13.3658C28.9197 13.4264 28.7322 13.4272 28.5517 13.3683C28.3711 13.3094 28.2253 13.1967 28.1142 13.03L27.9475 12.78C27.8364 12.5856 27.8017 12.3911 27.8433 12.1967C27.885 12.0022 27.9892 11.8356 28.1558 11.6967L29.0725 10.9883C29.0169 10.8494 28.9683 10.6967 28.9267 10.53C28.885 10.3633 28.8642 10.1967 28.8642 10.03C28.8642 9.86333 28.885 9.69833 28.9267 9.535C28.9683 9.37167 29.0169 9.21722 29.0725 9.07167L28.1558 8.36333C27.9892 8.23111 27.885 8.05986 27.8433 7.84958C27.8017 7.63958 27.8364 7.45056 27.9475 7.2825L28.1142 7.07167C28.2253 6.905 28.3711 6.78694 28.5517 6.7175C28.7322 6.64805 28.9197 6.64111 29.1142 6.69667L30.2808 7.11333C30.4753 6.89778 30.7183 6.68458 31.01 6.47375C31.3017 6.26292 31.5864 6.115 31.8642 6.03L32.0725 5.155C32.1281 4.98833 32.2253 4.84944 32.3642 4.73833C32.5031 4.62722 32.6558 4.57167 32.8225 4.57167H33.2392C33.4058 4.57167 33.5586 4.62722 33.6975 4.73833C33.8364 4.84944 33.9336 4.98833 33.9892 5.155L34.1975 6.03C34.4753 6.11333 34.76 6.26083 35.0517 6.4725C35.3433 6.68417 35.5864 6.89778 35.7808 7.11333L36.9475 6.69667C37.1419 6.64111 37.3294 6.64111 37.51 6.69667C37.6906 6.75222 37.8364 6.86333 37.9475 7.03L38.1142 7.28C38.2253 7.47444 38.26 7.67056 38.2183 7.86833C38.1767 8.06611 38.0725 8.23111 37.9058 8.36333L36.9892 9.07167C37.0447 9.21722 37.0933 9.37236 37.135 9.53708C37.1767 9.70208 37.1975 9.86639 37.1975 10.03C37.1975 10.1967 37.1767 10.3633 37.135 10.53C37.0933 10.6967 37.0447 10.8494 36.9892 10.9883L37.9058 11.6967C38.0725 11.8356 38.1767 12.0092 38.2183 12.2175C38.26 12.4258 38.2253 12.6133 38.1142 12.78L37.9475 12.9883C37.8364 13.155 37.6906 13.2747 37.51 13.3475C37.3294 13.4203 37.1419 13.4264 36.9475 13.3658L35.7808 12.9467C35.5864 13.1689 35.3433 13.3772 35.0517 13.5717C34.76 13.7661 34.4753 13.9189 34.1975 14.03L33.9892 14.905C33.9336 15.0717 33.8364 15.2106 33.6975 15.3217C33.5586 15.4328 33.4058 15.4883 33.2392 15.4883H32.8225C32.6558 15.4883 32.5031 15.4328 32.3642 15.3217C32.2253 15.2106 32.1281 15.0717 32.0725 14.905ZM33.0308 12.4467C33.7253 12.4467 34.3017 12.2175 34.76 11.7592C35.2183 11.3008 35.4475 10.7244 35.4475 10.03C35.4475 9.33555 35.2183 8.75917 34.76 8.30083C34.3017 7.8425 33.7253 7.61333 33.0308 7.61333C32.3364 7.61333 31.76 7.8425 31.3017 8.30083C30.8433 8.75917 30.6142 9.33555 30.6142 10.03C30.6142 10.7244 30.8433 11.3008 31.3017 11.7592C31.76 12.2175 32.3364 12.4467 33.0308 12.4467Z" stroke="var(--stroke-0, #2DA2DB)" stroke-width="6" mask="url(#path-1-inside-1_0_44)"/>
</g>
</g>
</svg>
