<svg preserveAspectRatio="none" width="100%" height="100%" overflow="visible" style="display: block;" viewBox="0 0 32 32" fill="none" xmlns="http://www.w3.org/2000/svg">
<g id="globe">
<path id="Vector" d="M16.01 29.5327C14.1389 29.5327 12.3829 29.1784 10.742 28.47C9.10111 27.7616 7.666 26.7927 6.43667 25.5633C5.20733 24.334 4.23844 22.8984 3.53 21.2567C2.82156 19.6149 2.46733 17.8574 2.46733 15.9843C2.46733 14.1114 2.82156 12.3537 3.53 10.711C4.23844 9.06856 5.20689 7.63811 6.43533 6.41967C7.66378 5.201 9.09911 4.23633 10.7413 3.52567C12.3836 2.81478 14.1414 2.45933 16.015 2.45933C17.8883 2.45933 19.6467 2.81456 21.29 3.525C22.9331 4.23544 24.3637 5.19956 25.5817 6.41733C26.7999 7.63511 27.7642 9.06711 28.4747 10.7133C29.1853 12.3596 29.5407 14.1188 29.5407 15.991C29.5407 17.863 29.1852 19.6193 28.4743 21.26C27.7637 22.9009 26.799 24.3337 25.5803 25.5583C24.3619 26.7828 22.93 27.7513 21.2847 28.464C19.6393 29.1764 17.8811 29.5327 16.01 29.5327ZM16 27.2617C19.0736 27.2617 21.687 26.2079 23.8403 24.1003C25.9937 21.9928 27.1181 19.4334 27.2137 16.4223C27.2137 16.3654 27.215 16.3176 27.2177 16.2787C27.2203 16.24 27.2217 16.1967 27.2217 16.1487C27.0566 16.6627 26.7481 17.0889 26.2963 17.4273C25.8448 17.7656 25.3184 17.9347 24.7173 17.9347H22.0907C21.3376 17.9347 20.6929 17.6663 20.1567 17.1297C19.6204 16.5928 19.3523 15.9474 19.3523 15.1937V13.8233H13.8753V11.136C13.8753 10.3773 14.1438 9.73067 14.6807 9.196C15.2173 8.66156 15.8626 8.39433 16.6163 8.39433H17.987V7.661C17.987 7.277 18.141 6.80944 18.449 6.25833C18.757 5.70744 19.1078 5.387 19.5013 5.297C18.9511 5.127 18.3852 4.99145 17.8037 4.89033C17.2223 4.789 16.6221 4.73833 16.003 4.73833C12.8837 4.73833 10.2263 5.82967 8.031 8.01233C5.83589 10.1948 4.73833 12.8573 4.73833 16C4.73833 16.0213 4.73967 16.0412 4.74233 16.0597C4.745 16.0783 4.74633 16.0983 4.74633 16.1197H9.37967C10.8888 16.1197 12.1789 16.6551 13.25 17.726C14.3211 18.7971 14.8567 20.0859 14.8567 21.5923V22.9617H10.753V26.0073C11.5403 26.4062 12.3744 26.715 13.2553 26.9337C14.1364 27.1523 15.0513 27.2617 16 27.2617Z" fill="var(--fill-0, #2DA2DB)"/>
</g>
</svg>
