<svg preserveAspectRatio="none" width="100%" height="100%" overflow="visible" style="display: block;" viewBox="0 0 16 16" fill="none" xmlns="http://www.w3.org/2000/svg">
<g id="arrow_right">
<path id="Vector" d="M6.89 11.0988C6.80922 11.0988 6.7405 11.0724 6.68383 11.0195C6.62717 10.9666 6.59883 10.8978 6.59883 10.813V5.187C6.59883 5.10222 6.62794 5.03339 6.68617 4.9805C6.74428 4.92761 6.813 4.90117 6.89233 4.90117C6.91222 4.90117 6.97878 4.93289 7.092 4.99633L9.79383 7.69833C9.83206 7.73644 9.86289 7.7815 9.88633 7.8335C9.90989 7.8855 9.92167 7.94111 9.92167 8.00033C9.92167 8.05956 9.90989 8.11506 9.88633 8.16683C9.86289 8.21861 9.83206 8.26361 9.79383 8.30183L7.0915 11.0042C7.06428 11.0314 7.0335 11.054 6.99917 11.072C6.96483 11.0899 6.92844 11.0988 6.89 11.0988Z" fill="var(--fill-0, #2DA2DB)" stroke="var(--stroke-0, #2DA2DB)" stroke-width="1.5" stroke-linecap="round" stroke-linejoin="round"/>
</g>
</svg>
