<svg preserveAspectRatio="none" width="100%" height="100%" overflow="visible" style="display: block;" viewBox="0 0 20 20" fill="none" xmlns="http://www.w3.org/2000/svg">
<g id="support">
<path id="Vector" d="M10.9854 16.8906C10.6673 16.934 10.3403 16.958 10.004 16.958C9.66451 16.958 9.3348 16.9339 9.01376 16.8896L9.99911 14.5322L10.9854 16.8906ZM16.8946 9.01169C16.9387 9.33181 16.963 9.66051 16.963 9.999C16.963 10.336 16.9392 10.6636 16.8956 10.9824L14.4884 9.999L16.8946 9.01169ZM5.46884 10.0107L3.10458 10.9492C3.06399 10.6412 3.04208 10.3249 3.04208 9.99997C3.04209 9.68142 3.06362 9.37154 3.10263 9.06931L5.46884 10.0107ZM10.006 3.03708C10.3431 3.0371 10.6707 3.05966 10.9893 3.10349L10.0108 5.52439L9.03915 3.10154C9.35266 3.05925 9.67487 3.03708 10.006 3.03708Z" fill="var(--fill-0, #2DA2DB)" stroke="var(--stroke-0, #2DA2DB)" stroke-width="3"/>
</g>
</svg>
