<svg preserveAspectRatio="none" width="100%" height="100%" overflow="visible" style="display: block;" viewBox="0 0 32 32" fill="none" xmlns="http://www.w3.org/2000/svg">
<g id="diversity_3">
<path id="Vector" d="M1.10233 25.9217V21.5883C1.10233 20.9068 1.34467 20.3249 1.82933 19.8427C2.31422 19.3607 2.89478 19.1197 3.571 19.1197H8.311C8.69922 19.1197 9.059 19.2088 9.39033 19.387C9.72144 19.5652 10.0039 19.813 10.2377 20.1303C10.8928 21.0797 11.7283 21.8152 12.7443 22.337C13.7601 22.8588 14.8453 23.1197 16 23.1197C17.1493 23.1197 18.2332 22.8588 19.2517 22.337C20.2703 21.8152 21.121 21.0797 21.8037 20.1303C22.0268 19.813 22.2997 19.5652 22.6223 19.387C22.9452 19.2088 23.3034 19.1197 23.697 19.1197H28.437C29.1186 19.1197 29.7004 19.3607 30.1827 19.8427C30.6647 20.3249 30.9057 20.9068 30.9057 21.5883V25.9217C30.9057 26.2479 30.798 26.5187 30.5827 26.734C30.3671 26.9496 30.0963 27.0573 29.7703 27.0573H23.1037C22.7774 27.0573 22.5067 26.9496 22.2913 26.734C22.0758 26.5187 21.968 26.2479 21.968 25.9217V23.0427C21.1627 23.7496 20.2473 24.2977 19.222 24.687C18.1967 25.0763 17.1227 25.271 16 25.271C14.8827 25.271 13.8156 25.0777 12.7987 24.691C11.7818 24.3043 10.8622 23.7549 10.04 23.0427V25.9217C10.04 26.2479 9.93222 26.5187 9.71667 26.734C9.50111 26.9496 9.23033 27.0573 8.90433 27.0573H2.23767C1.91167 27.0573 1.64089 26.9496 1.42533 26.734C1.21 26.5187 1.10233 26.2479 1.10233 25.9217ZM16 21C15.2382 21 14.5068 20.822 13.8057 20.466C13.1048 20.11 12.5374 19.615 12.1037 18.981C11.7214 18.4381 11.2684 18.0111 10.7447 17.7C10.2207 17.3889 9.64855 17.1778 9.02833 17.0667C9.71522 16.4053 10.7489 15.8929 12.1293 15.5293C13.5098 15.1658 14.8 14.984 16 14.984C17.2053 14.984 18.5024 15.1658 19.8913 15.5293C21.2802 15.8929 22.3208 16.4053 23.013 17.0667C22.3874 17.1778 21.8127 17.3889 21.2887 17.7C20.7649 18.0111 20.3146 18.4381 19.9377 18.981C19.5039 19.6097 18.9339 20.1033 18.2277 20.462C17.5212 20.8207 16.7787 21 16 21ZM5.33333 16.547C4.31733 16.547 3.44289 16.1806 2.71 15.4477C1.97733 14.715 1.611 13.838 1.611 12.8167C1.611 11.7838 1.97733 10.9051 2.71 10.1807C3.44289 9.45644 4.31733 9.09433 5.33333 9.09433C6.37156 9.09433 7.25289 9.45644 7.97733 10.1807C8.70155 10.9051 9.06367 11.7838 9.06367 12.8167C9.06367 13.838 8.70155 14.715 7.97733 15.4477C7.25289 16.1806 6.37156 16.547 5.33333 16.547ZM26.6667 16.547C25.6507 16.547 24.7762 16.1806 24.0433 15.4477C23.3107 14.715 22.9443 13.838 22.9443 12.8167C22.9443 11.7838 23.3107 10.9051 24.0433 10.1807C24.7762 9.45644 25.6507 9.09433 26.6667 9.09433C27.7049 9.09433 28.5862 9.45644 29.3107 10.1807C30.0349 10.9051 30.397 11.7838 30.397 12.8167C30.397 13.838 30.0349 14.715 29.3107 15.4477C28.5862 16.1806 27.7049 16.547 26.6667 16.547ZM16 12.4117C14.984 12.4117 14.1096 12.0439 13.3767 11.3083C12.644 10.5728 12.2777 9.697 12.2777 8.681C12.2777 7.643 12.644 6.76311 13.3767 6.04133C14.1096 5.31956 14.984 4.95867 16 4.95867C17.0382 4.95867 17.9196 5.31956 18.644 6.04133C19.3682 6.76311 19.7303 7.643 19.7303 8.681C19.7303 9.697 19.3682 10.5728 18.644 11.3083C17.9196 12.0439 17.0382 12.4117 16 12.4117Z" fill="var(--fill-0, #2DA2DB)"/>
</g>
</svg>
