<svg preserveAspectRatio="none" width="100%" height="100%" overflow="visible" style="display: block;" viewBox="0 0 40 40" fill="none" xmlns="http://www.w3.org/2000/svg">
<g id="chart-area">
<path id="Vector" d="M5 5V31.6667C5 32.5507 5.35119 33.3986 5.97631 34.0237C6.60143 34.6488 7.44928 35 8.33333 35H35M11.6667 18.6782C11.6667 18.4576 11.7542 18.2461 11.91 18.0899L15.2433 14.7565C15.3207 14.6789 15.4127 14.6174 15.5139 14.5754C15.6152 14.5333 15.7237 14.5117 15.8333 14.5117C15.9429 14.5117 16.0515 14.5333 16.1527 14.5754C16.254 14.6174 16.3459 14.6789 16.4233 14.7565L21.91 20.2432C21.9874 20.3208 22.0794 20.3824 22.1806 20.4244C22.2819 20.4664 22.3904 20.488 22.5 20.488C22.6096 20.488 22.7181 20.4664 22.8194 20.4244C22.9206 20.3824 23.0126 20.3208 23.09 20.2432L30.2433 13.0899C30.3598 12.9731 30.5082 12.8936 30.6699 12.8612C30.8316 12.8289 30.9993 12.8453 31.1517 12.9083C31.3041 12.9712 31.4343 13.078 31.526 13.2151C31.6177 13.3521 31.6666 13.5133 31.6667 13.6782V26.6665C31.6667 27.1086 31.4911 27.5325 31.1785 27.8451C30.866 28.1576 30.442 28.3332 30 28.3332H13.3333C12.8913 28.3332 12.4674 28.1576 12.1548 27.8451C11.8423 27.5325 11.6667 27.1086 11.6667 26.6665V18.6782Z" stroke="var(--stroke-0, #2DA2DB)" stroke-width="2" stroke-linecap="round" stroke-linejoin="round"/>
</g>
</svg>
