<svg preserveAspectRatio="none" width="100%" height="100%" overflow="visible" style="display: block;" viewBox="0 0 40 40" fill="none" xmlns="http://www.w3.org/2000/svg">
<g id="sparkles">
<path id="Vector" d="M33.3333 3.33333V10M36.6667 6.66667H30M18.3616 4.68992C18.433 4.30759 18.6359 3.96228 18.9351 3.71379C19.2343 3.46529 19.611 3.32926 19.9999 3.32926C20.3889 3.32926 20.7656 3.46529 21.0648 3.71379C21.364 3.96228 21.5668 4.30759 21.6383 4.68992L23.3899 13.9533C23.5143 14.6118 23.8344 15.2176 24.3083 15.6915C24.7822 16.1655 25.388 16.4855 26.0466 16.6099L35.3099 18.3616C35.6922 18.433 36.0376 18.6359 36.2861 18.9351C36.5345 19.2343 36.6706 19.611 36.6706 19.9999C36.6706 20.3889 36.5345 20.7656 36.2861 21.0648C36.0376 21.364 35.6922 21.5668 35.3099 21.6383L26.0466 23.3899C25.388 23.5143 24.7822 23.8344 24.3083 24.3083C23.8344 24.7822 23.5143 25.388 23.3899 26.0466L21.6383 35.3099C21.5668 35.6922 21.364 36.0376 21.0648 36.2861C20.7656 36.5345 20.3889 36.6706 19.9999 36.6706C19.611 36.6706 19.2343 36.5345 18.9351 36.2861C18.6359 36.0376 18.433 35.6922 18.3616 35.3099L16.6099 26.0466C16.4855 25.388 16.1655 24.7822 15.6915 24.3083C15.2176 23.8344 14.6118 23.5143 13.9533 23.3899L4.68992 21.6383C4.30759 21.5668 3.96228 21.364 3.71379 21.0648C3.46529 20.7656 3.32926 20.3889 3.32926 19.9999C3.32926 19.611 3.46529 19.2343 3.71379 18.9351C3.96228 18.6359 4.30759 18.433 4.68992 18.3616L13.9533 16.6099C14.6118 16.4855 15.2176 16.1655 15.6915 15.6915C16.1655 15.2176 16.4855 14.6118 16.6099 13.9533L18.3616 4.68992ZM10 33.3333C10 35.1743 8.50762 36.6667 6.66667 36.6667C4.82572 36.6667 3.33333 35.1743 3.33333 33.3333C3.33333 31.4924 4.82572 30 6.66667 30C8.50762 30 10 31.4924 10 33.3333Z" stroke="var(--stroke-0, #2DA2DB)" stroke-width="3" stroke-linecap="round" stroke-linejoin="round"/>
</g>
</svg>
