<svg width="40" height="40" viewBox="0 0 40 40" fill="none" xmlns="http://www.w3.org/2000/svg">
<path d="M10.5735 4.94336C10.8607 4.94339 11.122 5.04083 11.3938 5.30859L19.6614 13.5439L20.3684 14.249L21.0735 13.543L28.4309 6.18555C28.5942 6.0223 28.7608 5.91736 28.9319 5.85352C29.1419 5.77514 29.341 5.74023 29.5334 5.74023C29.7262 5.74025 29.9252 5.77525 30.135 5.85352C30.306 5.91735 30.4727 6.02237 30.636 6.18555L30.637 6.18652L33.8147 9.35449C33.9775 9.51751 34.082 9.68372 34.1458 9.85449C34.2241 10.0644 34.259 10.2633 34.259 10.4561C34.259 10.6576 34.2232 10.8598 34.1458 11.0674C34.0819 11.2384 33.977 11.4051 33.8137 11.5684L26.4573 18.915L25.7493 19.6221L26.4563 20.3301L34.6956 28.5693C34.9597 28.8394 35.0559 29.0992 35.0559 29.3848C35.0559 29.6705 34.96 29.9252 34.6985 30.1875L30.2053 34.6484C29.9334 34.9164 29.6723 35.0146 29.385 35.0146C29.1336 35.0146 28.9023 34.9393 28.6663 34.7412L28.5647 34.6484L20.3625 26.4463L19.6545 25.7393L18.9475 26.4473L11.2874 34.1162C11.2064 34.1971 11.1579 34.2209 11.1467 34.2256L11.1458 34.2266C11.1185 34.2378 11.0769 34.249 11.01 34.249H6.17017C6.00719 34.249 5.92992 34.2051 5.86255 34.1377L5.86157 34.1367C5.79426 34.0694 5.75122 33.992 5.75122 33.8291V28.9795C5.75123 28.895 5.7645 28.8448 5.77563 28.8164C5.77652 28.8142 5.79453 28.7711 5.87329 28.6924L13.4915 21.0732L14.1995 20.3662L13.4915 19.6592L5.30884 11.4863C5.04526 11.2187 4.95407 10.9648 4.95923 10.6846C4.96497 10.3744 5.07105 10.1005 5.32642 9.82812L5.32544 9.82715L9.77271 5.30762L9.77368 5.30859C10.0382 5.03985 10.292 4.94336 10.5735 4.94336ZM24.4954 20.8564L20.8049 24.5469L20.0999 25.2529L20.804 25.96L28.5833 33.7705L29.2942 34.4844L30.0032 33.7686L33.6829 30.0459L34.3831 29.3379L33.678 28.6348L30.6125 25.5791L29.9026 24.8711L29.1965 25.584L28.0735 26.7158C27.9925 26.7947 27.9404 26.8076 27.8762 26.8076C27.822 26.8076 27.7811 26.7994 27.7083 26.7246L27.6995 26.7158L27.6497 26.6592C27.6121 26.6077 27.6067 26.5693 27.6067 26.5273C27.6067 26.4716 27.616 26.4224 27.6985 26.3398L28.8342 25.2051L29.5393 24.499L28.8352 23.792L25.9114 20.8584L25.2043 20.1484L24.4954 20.8564ZM22.8284 12.7891L6.77271 28.877L6.47974 29.1689V33.5195H10.8215L11.1145 33.2256L27.1614 17.1279L27.8645 16.4219L27.1614 15.7158L25.7043 14.249L24.2434 12.7881L23.5364 12.0791L22.8284 12.7891ZM9.90552 6.28027L6.2356 9.9707L5.53052 10.6797L6.2395 11.3857L14.0305 19.1348L14.7375 19.8379L19.8313 14.7441L19.1213 14.0371L16.1555 11.0811L15.4553 10.3828L14.7493 11.0762L13.6047 12.2012L13.5901 12.2158C13.5069 12.301 13.4685 12.3004 13.4348 12.2998L13.387 12.2949C13.3408 12.2866 13.2941 12.2638 13.2327 12.2061C13.1624 12.1308 13.1506 12.081 13.1506 12.0195C13.1506 11.9564 13.1619 11.9126 13.2327 11.8418L14.3772 10.6963L15.0911 9.9834L14.3713 9.27637L11.3157 6.27246L10.6067 5.57617L9.90552 6.28027Z" stroke="#2DA2DB" stroke-width="2"/>
</svg>
