<svg width="24" height="24" viewBox="0 0 24 24" fill="none" xmlns="http://www.w3.org/2000/svg">
<path d="M11.5898 20.1497H2.70227C2.46177 20.1497 2.25969 20.0675 2.09602 19.903C1.93236 19.7385 1.85052 19.5354 1.85052 19.2937C1.85052 19.0521 1.93236 18.8504 2.09602 18.6887C2.25969 18.5272 2.46177 18.4465 2.70227 18.4465H11.5898C11.8296 18.4465 12.0325 18.5287 12.1985 18.6932C12.3644 18.8577 12.4473 19.0608 12.4473 19.3025C12.4473 19.5441 12.3644 19.7457 12.1985 19.9072C12.0325 20.0689 11.8296 20.1497 11.5898 20.1497ZM4.54778 16.9465C4.08628 16.9465 3.68603 16.777 3.34703 16.438C3.00803 16.0991 2.83852 15.6989 2.83852 15.2372V5.55398C2.83852 5.09231 3.00803 4.69206 3.34703 4.35323C3.68603 4.01423 4.08628 3.84473 4.54778 3.84473H20.3038C20.5443 3.84473 20.7464 3.92814 20.91 4.09498C21.0737 4.26198 21.1555 4.46606 21.1555 4.70723C21.1555 4.94856 21.0737 5.15006 20.91 5.31173C20.7464 5.47323 20.5443 5.55398 20.3038 5.55398H4.54778V15.2372H11.5898C11.8296 15.2372 12.0325 15.3206 12.1985 15.4875C12.3644 15.6543 12.4473 15.8584 12.4473 16.0997C12.4473 16.3411 12.3644 16.5425 12.1985 16.704C12.0325 16.8656 11.8296 16.9465 11.5898 16.9465H4.54778ZM20.5358 18.536V8.66773H15.5608V18.536H20.5358ZM15.2278 20.1497C14.8839 20.1497 14.5845 20.0222 14.3295 19.7672C14.0747 19.5124 13.9473 19.2131 13.9473 18.8692V8.32848C13.9473 7.98364 14.0747 7.68506 14.3295 7.43273C14.5845 7.18023 14.8839 7.05398 15.2278 7.05398H20.875C21.2189 7.05398 21.5182 7.18023 21.773 7.43273C22.028 7.68506 22.1555 7.98364 22.1555 8.32848V18.8692C22.1555 19.2131 22.028 19.5124 21.773 19.7672C21.5182 20.0222 21.2189 20.1497 20.875 20.1497H15.2278ZM18.0608 11.2572C18.2746 11.2572 18.4611 11.1782 18.6203 11.0202C18.7793 10.8624 18.8588 10.6775 18.8588 10.4655C18.8588 10.2516 18.7793 10.0652 18.6203 9.90623C18.4611 9.74723 18.2706 9.66773 18.0488 9.66773C17.8449 9.66773 17.664 9.74723 17.506 9.90623C17.348 10.0652 17.269 10.2556 17.269 10.4775C17.269 10.6815 17.348 10.8624 17.506 11.0202C17.664 11.1782 17.8489 11.2572 18.0608 11.2572Z" fill="#4CC4FE"/>
</svg>
