<svg width="24" height="24" viewBox="0 0 24 24" fill="none" xmlns="http://www.w3.org/2000/svg">
<path d="M13.7998 6.30273C14.0601 6.30273 14.2659 6.38493 14.4668 6.58594V6.58691C14.667 6.78713 14.75 6.99307 14.75 7.25586C14.7499 7.74544 14.535 8.27508 13.9072 8.86035C13.1809 9.53743 12.5447 10.1172 11.999 10.6016C11.4513 10.1159 10.814 9.53898 10.0869 8.87109H10.0859C9.4695 8.30423 9.25 7.77085 9.25 7.25293C9.25001 6.9928 9.33238 6.78775 9.5332 6.58691V6.58594C9.73414 6.38492 9.93993 6.30273 10.2002 6.30273C10.4968 6.30275 10.647 6.3601 10.7148 6.40039C10.8497 6.48048 11.0192 6.62524 11.2148 6.87305L12 7.86719L12.7852 6.87305C12.9807 6.62532 13.1504 6.4805 13.2852 6.40039C13.353 6.3601 13.5033 6.30277 13.7998 6.30273Z" stroke="#1E729C" stroke-width="2"/>
</svg>
