<svg width="24" height="24" viewBox="0 0 24 24" fill="none" xmlns="http://www.w3.org/2000/svg">
<path d="M6 20.2391C5.75967 20.2391 5.55767 20.1568 5.394 19.9921C5.23017 19.8276 5.14825 19.6246 5.14825 19.3829C5.14825 19.1414 5.23017 18.9398 5.394 18.7781C5.55767 18.6165 5.75967 18.5356 6 18.5356H6.69725L8.7555 11.7601C8.86734 11.3996 9.07042 11.1055 9.36475 10.8776C9.65892 10.6496 9.99659 10.5356 10.3778 10.5356H13.6223C14.0034 10.5356 14.3411 10.6496 14.6353 10.8776C14.9296 11.1055 15.1327 11.3996 15.2445 11.7601L17.3028 18.5356H18C18.2403 18.5356 18.4423 18.618 18.606 18.7826C18.7698 18.9471 18.8518 19.1502 18.8518 19.3919C18.8518 19.6334 18.7698 19.835 18.606 19.9966C18.4423 20.1583 18.2403 20.2391 18 20.2391H6ZM8.5125 18.5356H15.4875L13.5973 12.2391H10.4028L8.5125 18.5356ZM11.1483 6.61238V3.61238C11.1483 3.37205 11.2306 3.16905 11.3953 3.00338C11.5598 2.83772 11.7628 2.75488 12.0045 2.75488C12.246 2.75488 12.4476 2.83772 12.6093 3.00338C12.7709 3.16905 12.8518 3.37205 12.8518 3.61238V6.61238C12.8518 6.85272 12.7694 7.05472 12.6048 7.21838C12.4403 7.38222 12.2372 7.46413 11.9955 7.46413C11.754 7.46413 11.5524 7.38222 11.3908 7.21838C11.2291 7.05472 11.1483 6.85272 11.1483 6.61238ZM16.6658 8.20638L18.7908 6.08138C18.9648 5.92822 19.1665 5.84838 19.396 5.84188C19.6255 5.83555 19.8236 5.91738 19.9903 6.08738C20.1601 6.25738 20.245 6.4563 20.245 6.68413C20.245 6.91197 20.1601 7.11088 19.9903 7.28088L17.8653 9.43088C17.6953 9.60072 17.4953 9.68563 17.2655 9.68563C17.0357 9.68563 16.8358 9.6003 16.6658 9.42963C16.4919 9.2588 16.405 9.05472 16.405 8.81738C16.405 8.58005 16.4919 8.37638 16.6658 8.20638ZM19.525 13.1481H22.525C22.7653 13.1481 22.9673 13.2305 23.131 13.3951C23.2948 13.5596 23.3768 13.7627 23.3768 14.0044C23.3768 14.2459 23.2948 14.4475 23.131 14.6091C22.9673 14.7708 22.7653 14.8516 22.525 14.8516H19.525C19.2847 14.8516 19.0827 14.7693 18.919 14.6046C18.7552 14.4401 18.6733 14.2371 18.6733 13.9954C18.6733 13.7539 18.7552 13.5523 18.919 13.3906C19.0827 13.229 19.2847 13.1481 19.525 13.1481ZM6.13475 9.40588L4.00975 7.28088C3.85659 7.11088 3.77684 6.91113 3.7705 6.68163C3.764 6.45213 3.84575 6.25405 4.01575 6.08738C4.18575 5.91355 4.38467 5.82663 4.6125 5.82663C4.84034 5.82663 5.04125 5.91155 5.21525 6.08138L7.35925 8.20638C7.52925 8.37638 7.61425 8.5763 7.61425 8.80613C7.61425 9.03597 7.52884 9.23588 7.358 9.40588C7.18717 9.57972 6.98309 9.66563 6.74575 9.66363C6.50842 9.66163 6.30475 9.57572 6.13475 9.40588ZM1.475 14.8516C1.23467 14.8516 1.03267 14.7693 0.869003 14.6046C0.705169 14.4401 0.623253 14.2371 0.623253 13.9954C0.623253 13.7539 0.705169 13.5523 0.869003 13.3906C1.03267 13.229 1.23467 13.1481 1.475 13.1481H4.475C4.71534 13.1481 4.91834 13.2305 5.084 13.3951C5.24967 13.5596 5.3325 13.7627 5.3325 14.0044C5.3325 14.2459 5.24967 14.4475 5.084 14.6091C4.91834 14.7708 4.71534 14.8516 4.475 14.8516H1.475Z" fill="#4CC4FE"/>
</svg>
