<svg preserveAspectRatio="none" width="100%" height="100%" overflow="visible" style="display: block;" viewBox="0 0 24 24" fill="none" xmlns="http://www.w3.org/2000/svg">
<g id="battery_android_bolt">
<path id="Vector" d="M10.3652 12.774L9.67825 15.6912C9.64092 15.7906 9.66792 15.8683 9.75925 15.9243C9.85058 15.9803 9.93558 15.9729 10.0143 15.9022L14.0223 11.9717C14.1589 11.8431 14.194 11.6867 14.1275 11.5025C14.061 11.3182 13.9346 11.226 13.7483 11.226H11.6408L12.3218 8.30275C12.3591 8.20742 12.3321 8.13075 12.2408 8.07275C12.1494 8.01475 12.0644 8.02108 11.9857 8.09175L7.97175 12.0283C7.83508 12.1569 7.80042 12.3133 7.86775 12.4975C7.93508 12.6818 8.06308 12.774 8.25175 12.774H10.3652ZM3.55375 17.1902H18.4462V6.80375H3.55375V17.1902ZM3.55375 18.8995C3.09375 18.8995 2.69492 18.73 2.35725 18.391C2.01942 18.0522 1.8505 17.6519 1.8505 17.1902V6.80375C1.8505 6.34208 2.01942 5.94183 2.35725 5.603C2.69492 5.264 3.09375 5.0945 3.55375 5.0945H18.4462C18.9079 5.0945 19.3082 5.264 19.647 5.603C19.986 5.94183 20.1555 6.34208 20.1555 6.80375V9.64825H21.019C21.38 9.64825 21.6935 9.78225 21.9595 10.0503C22.2257 10.3183 22.3587 10.6313 22.3587 10.9895V13.0107C22.3587 13.3854 22.2257 13.7026 21.9595 13.9622C21.6935 14.2219 21.38 14.3518 21.019 14.3518H20.1555V17.1902C20.1555 17.6519 19.986 18.0522 19.647 18.391C19.3082 18.73 18.9079 18.8995 18.4462 18.8995H3.55375Z" fill="var(--fill-0, #4CC4FE)"/>
</g>
</svg>
