<svg preserveAspectRatio="none" width="100%" height="100%" overflow="visible" style="display: block;" viewBox="0 0 24 24" fill="none" xmlns="http://www.w3.org/2000/svg">
<g id="document_scanner">
<path id="Vector" d="M1.8625 4.56525V2.56575C1.8625 2.09742 2.02933 1.6965 2.363 1.363C2.6965 1.02933 3.09742 0.8625 3.56575 0.8625H5.57125C5.80358 0.8625 5.99767 0.94075 6.1535 1.09725C6.30917 1.25392 6.387 1.44908 6.387 1.68275C6.387 1.91642 6.30917 2.111 6.1535 2.2665C5.99767 2.42217 5.80358 2.5 5.57125 2.5H3.5V4.57125C3.5 4.80358 3.42175 4.99767 3.26525 5.1535C3.10858 5.30917 2.91342 5.387 2.67975 5.387C2.44608 5.387 2.2515 5.30817 2.096 5.1505C1.94033 4.99267 1.8625 4.79758 1.8625 4.56525ZM20.5 4.56525V2.5H18.4288C18.1964 2.5 18.0023 2.42075 17.8465 2.26225C17.6908 2.10375 17.613 1.90758 17.613 1.67375C17.613 1.44008 17.6918 1.2465 17.8495 1.093C18.0073 0.939332 18.2024 0.8625 18.4348 0.8625H20.4342C20.9026 0.8625 21.3035 1.02933 21.637 1.363C21.9707 1.6965 22.1375 2.09742 22.1375 2.56575V4.57125C22.1375 4.80358 22.0592 4.99767 21.9027 5.1535C21.7461 5.30917 21.5509 5.387 21.3173 5.387C21.0836 5.387 20.889 5.30817 20.7335 5.1505C20.5778 4.99267 20.5 4.79758 20.5 4.56525ZM1.8625 21.4343V19.4288C1.8625 19.1964 1.94175 19.0023 2.10025 18.8465C2.25875 18.6908 2.45483 18.613 2.6885 18.613C2.92233 18.613 3.116 18.6908 3.2695 18.8465C3.42317 19.0023 3.5 19.1964 3.5 19.4288V21.5H5.57125C5.80358 21.5 5.99767 21.5783 6.1535 21.7348C6.30917 21.8914 6.387 22.0866 6.387 22.3203C6.387 22.5539 6.30917 22.7485 6.1535 22.904C5.99767 23.0597 5.80358 23.1375 5.57125 23.1375H3.56575C3.09742 23.1375 2.6965 22.9707 2.363 22.637C2.02933 22.3035 1.8625 21.9026 1.8625 21.4343ZM20.4342 23.1375H18.4288C18.1964 23.1375 18.0023 23.0582 17.8465 22.8997C17.6908 22.7412 17.613 22.5452 17.613 22.3115C17.613 22.0777 17.6918 21.884 17.8495 21.7305C18.0073 21.5768 18.2024 21.5 18.4348 21.5H20.5V19.4288C20.5 19.1964 20.5793 19.0023 20.7378 18.8465C20.8963 18.6908 21.0924 18.613 21.3262 18.613C21.5599 18.613 21.7535 18.6908 21.907 18.8465C22.0607 19.0023 22.1375 19.1964 22.1375 19.4288V21.4343C22.1375 21.9026 21.9707 22.3035 21.637 22.637C21.3035 22.9707 20.9026 23.1375 20.4342 23.1375ZM6.6375 18.3625H17.3625V5.6375H6.6375V18.3625ZM6.6375 20.0658C6.1855 20.0658 5.78858 19.8949 5.44675 19.5533C5.10508 19.2114 4.93425 18.8145 4.93425 18.3625V5.6375C4.93425 5.1855 5.10508 4.78858 5.44675 4.44675C5.78858 4.10508 6.1855 3.93425 6.6375 3.93425H17.3625C17.8145 3.93425 18.2114 4.10508 18.5533 4.44675C18.8949 4.78858 19.0658 5.1855 19.0658 5.6375V18.3625C19.0658 18.8145 18.8949 19.2114 18.5533 19.5533C18.2114 19.8949 17.8145 20.0658 17.3625 20.0658H6.6375ZM10 9.774H14C14.2205 9.774 14.4056 9.69967 14.5553 9.551C14.7051 9.4025 14.78 9.21733 14.78 8.9955C14.78 8.77383 14.7047 8.58917 14.554 8.4415C14.4035 8.29383 14.2188 8.22 14 8.22H10C9.7795 8.22 9.59542 8.29575 9.44775 8.44725C9.29992 8.59858 9.226 8.78433 9.226 9.0045C9.226 9.22617 9.29992 9.40983 9.44775 9.5555C9.59542 9.70117 9.7795 9.774 10 9.774ZM10 12.774H14C14.2205 12.774 14.4056 12.6997 14.5553 12.551C14.7051 12.4025 14.78 12.2173 14.78 11.9955C14.78 11.7738 14.7047 11.5892 14.554 11.4415C14.4035 11.2938 14.2188 11.22 14 11.22H10C9.7795 11.22 9.59542 11.2958 9.44775 11.4473C9.29992 11.5986 9.226 11.7843 9.226 12.0045C9.226 12.2262 9.29992 12.4098 9.44775 12.5555C9.59542 12.7012 9.7795 12.774 10 12.774ZM10 15.774H14C14.2205 15.774 14.4056 15.6997 14.5553 15.551C14.7051 15.4025 14.78 15.2173 14.78 14.9955C14.78 14.7738 14.7047 14.5892 14.554 14.4415C14.4035 14.2938 14.2188 14.22 14 14.22H10C9.7795 14.22 9.59542 14.2958 9.44775 14.4473C9.29992 14.5986 9.226 14.7843 9.226 15.0045C9.226 15.2262 9.29992 15.4098 9.44775 15.5555C9.59542 15.7012 9.7795 15.774 10 15.774Z" fill="var(--fill-0, #1E729C)"/>
</g>
</svg>
