<svg preserveAspectRatio="none" width="100%" height="100%" overflow="visible" style="display: block;" viewBox="0 0 24 24" fill="none" xmlns="http://www.w3.org/2000/svg">
<g id="personal_injury">
<path id="Vector" d="M12 9.60175C10.8562 9.60175 9.92033 9.23717 9.1925 8.508C8.4645 7.779 8.1005 6.84417 8.1005 5.7035C8.1005 4.55883 8.46442 3.6225 9.19225 2.8945C9.92008 2.16667 10.855 1.80275 11.997 1.80275C13.1428 1.80275 14.0807 2.16667 14.8105 2.8945C15.5405 3.6225 15.9055 4.55783 15.9055 5.7005C15.9055 6.84317 15.5405 7.779 14.8105 8.508C14.0807 9.23717 13.1438 9.60175 12 9.60175ZM11.999 7.89825C12.6377 7.89825 13.1636 7.69117 13.5767 7.277C13.9897 6.86267 14.1962 6.33808 14.1962 5.70325C14.1962 5.06442 13.9901 4.5385 13.5777 4.1255C13.1652 3.7125 12.6407 3.506 12.004 3.506C11.3673 3.506 10.8414 3.7125 10.4262 4.1255C10.0112 4.5385 9.80375 5.06342 9.80375 5.70025C9.80375 6.33692 10.0109 6.86242 10.4252 7.27675C10.8394 7.69108 11.364 7.89825 11.999 7.89825ZM12.0015 11.3518C13.2453 11.3518 14.3978 11.507 15.459 11.8175C16.52 12.1282 17.4806 12.4768 18.3407 12.8635C18.8897 13.1093 19.3295 13.4681 19.66 13.9397C19.9903 14.4114 20.1555 14.9779 20.1555 15.6393V20.5C20.1555 20.96 19.986 21.3588 19.647 21.6965C19.3082 22.0343 18.9079 22.2033 18.4462 22.2033H9.81575C9.09042 22.2033 8.4755 21.9507 7.971 21.4455C7.4665 20.9403 7.21425 20.3247 7.21425 19.5985C7.21425 18.8723 7.4665 18.2577 7.971 17.7545C8.4755 17.2515 9.09042 17 9.81575 17H12.7357L14.4102 13.293C13.9969 13.2137 13.5867 13.1552 13.1797 13.1175C12.7729 13.0798 12.3786 13.061 11.9967 13.061C10.8089 13.061 9.74967 13.1945 8.819 13.4615C7.88817 13.7285 7.066 14.0346 6.3525 14.3798C6.124 14.4973 5.93375 14.6742 5.78175 14.9107C5.62975 15.1471 5.55375 15.3978 5.55375 15.663V21.3518C5.55375 21.5921 5.4715 21.7941 5.307 21.9578C5.1425 22.1214 4.93942 22.2033 4.69775 22.2033C4.45608 22.2033 4.2545 22.1214 4.093 21.9578C3.93133 21.7941 3.8505 21.5921 3.8505 21.3518V15.6393C3.8505 14.9779 4.01517 14.4117 4.3445 13.9405C4.67383 13.4692 5.10375 13.1094 5.63425 12.8613C6.48425 12.4794 7.447 12.1323 8.5225 11.82C9.598 11.5078 10.7577 11.3518 12.0015 11.3518ZM9.81575 20.5658H11.0522L11.9592 18.6375H9.81575C9.56192 18.6375 9.33775 18.7348 9.14325 18.9295C8.94892 19.124 8.85175 19.3493 8.85175 19.6055C8.85175 19.8617 8.94892 20.0857 9.14325 20.2777C9.33775 20.4697 9.56192 20.5658 9.81575 20.5658ZM12.9115 20.5H18.4462V15.663C18.4462 15.3978 18.3671 15.1475 18.2087 14.912C18.0504 14.6763 17.8546 14.4993 17.6212 14.381C17.4324 14.2837 17.2045 14.183 16.9375 14.079C16.6705 13.9748 16.3656 13.8581 16.0227 13.7287L12.9115 20.5Z" fill="var(--fill-0, #4CC4FE)"/>
</g>
</svg>
