<svg preserveAspectRatio="none" width="100%" height="100%" overflow="visible" style="display: block;" viewBox="0 0 24 24" fill="none" xmlns="http://www.w3.org/2000/svg">
<g id="release_alert">
<path id="Vector" d="M8.1925 22.0135L6.65425 19.3815L3.57825 18.7565C3.36708 18.7192 3.192 18.607 3.053 18.42C2.914 18.2328 2.86117 18.0342 2.8945 17.824L3.2445 14.8495L1.2875 12.5658C1.13817 12.4109 1.0635 12.2219 1.0635 11.9988C1.0635 11.7758 1.13817 11.5876 1.2875 11.4342L3.2445 9.1755L2.8945 6.201C2.86117 5.99083 2.914 5.79217 3.053 5.605C3.192 5.418 3.36708 5.30383 3.57825 5.2625L6.65625 4.64225L8.1925 1.9865C8.30383 1.80167 8.46425 1.6705 8.67375 1.593C8.88308 1.5155 9.0915 1.52433 9.299 1.6195L12 2.8825L14.701 1.6195C14.9083 1.52817 15.1168 1.51608 15.3263 1.58325C15.5356 1.65025 15.696 1.77633 15.8075 1.9615L17.3688 4.64225L20.4218 5.2625C20.6329 5.30383 20.808 5.418 20.947 5.605C21.086 5.79217 21.1388 5.99083 21.1055 6.201L20.7555 9.1755L22.7125 11.4342C22.8618 11.5891 22.9365 11.7781 22.9365 12.0012C22.9365 12.2242 22.8618 12.4124 22.7125 12.5658L20.7555 14.8495L21.1055 17.824C21.1388 18.0342 21.086 18.2328 20.947 18.42C20.808 18.607 20.6329 18.7192 20.4218 18.7565L17.3708 19.3815L15.8075 22.0385C15.696 22.2237 15.5356 22.3497 15.3263 22.4167C15.1168 22.4839 14.9083 22.4718 14.701 22.3805L12 21.1175L9.299 22.3805C9.09167 22.4718 8.88325 22.4797 8.67375 22.4042C8.46442 22.3289 8.304 22.1987 8.1925 22.0135ZM9.34725 20.4593L11.9992 19.3368L14.726 20.4593L16.3893 17.9773L19.2903 17.2333L18.9963 14.275L20.9973 11.9995L18.9963 9.674L19.2903 6.71675L16.3893 6.02275L14.6783 3.54075L12.001 4.6625L9.274 3.54075L7.6125 6.02425L4.71575 6.71425L5.00375 9.674L3.00275 12L5.00375 14.276L4.71575 17.286L7.6115 17.9758L9.34725 20.4593ZM12 17.1495C12.2732 17.1495 12.5009 17.0593 12.6832 16.879C12.8654 16.6988 12.9565 16.4722 12.9565 16.199C12.9565 15.9258 12.8654 15.6971 12.6832 15.5128C12.5009 15.3286 12.2732 15.2365 12 15.2365C11.7268 15.2365 11.4991 15.3286 11.3168 15.5128C11.1346 15.6971 11.0435 15.9258 11.0435 16.199C11.0435 16.4722 11.1346 16.6988 11.3168 16.879C11.4991 17.0593 11.7268 17.1495 12 17.1495ZM12.075 13.181C12.3195 13.181 12.5226 13.1002 12.6842 12.9385C12.8459 12.777 12.9267 12.5739 12.9267 12.3293V7.606C12.9267 7.3615 12.8459 7.15842 12.6842 6.99675C12.5226 6.83508 12.3195 6.75425 12.075 6.75425C11.8305 6.75425 11.6274 6.83508 11.4657 6.99675C11.3041 7.15842 11.2232 7.3615 11.2232 7.606V12.3293C11.2232 12.5739 11.3041 12.777 11.4657 12.9385C11.6274 13.1002 11.8305 13.181 12.075 13.181Z" fill="var(--fill-0, #4CC4FE)"/>
</g>
</svg>
