<svg preserveAspectRatio="none" width="100%" height="100%" overflow="visible" style="display: block;" viewBox="0 0 24 24" fill="none" xmlns="http://www.w3.org/2000/svg">
<g id="361">
<path id="Vector" d="M9.7245 16.8565C7.402 16.5985 5.50908 16.0366 4.04575 15.1707C2.58225 14.3047 1.8505 13.1978 1.8505 11.85C1.8505 10.4497 2.83433 9.282 4.802 8.347C6.7695 7.412 9.16883 6.9445 12 6.9445C14.8438 6.9445 17.2473 7.411 19.2105 8.344C21.1738 9.277 22.1555 10.4457 22.1555 11.85C22.1555 12.8018 21.6963 13.648 20.778 14.3885C19.8597 15.1292 18.6219 15.7162 17.0648 16.1495C16.8408 16.2202 16.6323 16.183 16.4395 16.038C16.2465 15.8932 16.15 15.6984 16.15 15.4537C16.15 15.1926 16.2288 14.9593 16.3865 14.754C16.544 14.5488 16.7514 14.4006 17.0087 14.3092C18.0729 13.9839 18.9118 13.5875 19.5255 13.12C20.1393 12.6527 20.4462 12.2293 20.4462 11.85C20.4462 11.3087 19.7623 10.6407 18.3945 9.846C17.0268 9.05117 14.8953 8.65375 12 8.65375C9.12133 8.65375 6.994 9.05117 5.618 9.846C4.24183 10.6407 3.55375 11.3087 3.55375 11.85C3.55375 12.6 4.015 13.2368 4.9375 13.7605C5.86 14.2843 7.50458 14.7712 9.87125 15.2212L8.35825 13.7272C8.20025 13.5732 8.12125 13.3881 8.12125 13.1717C8.12125 12.9554 8.20025 12.7682 8.35825 12.6102C8.51225 12.4522 8.69417 12.3732 8.904 12.3732C9.114 12.3732 9.298 12.4522 9.456 12.6102L12.243 15.3723C12.4128 15.5423 12.4978 15.7432 12.4978 15.975C12.4978 16.2068 12.4128 16.4077 12.243 16.5777L9.45 19.3708C9.292 19.5286 9.10483 19.6065 8.8885 19.6045C8.67233 19.6027 8.48525 19.5227 8.32725 19.3647C8.16925 19.2067 8.09125 19.0238 8.09325 18.8158C8.09525 18.6078 8.17525 18.4247 8.33325 18.2667L9.7245 16.8565Z" fill="var(--fill-0, #504E52)"/>
</g>
</svg>
