<svg preserveAspectRatio="none" width="100%" height="100%" overflow="visible" style="display: block;" viewBox="0 0 24 24" fill="none" xmlns="http://www.w3.org/2000/svg">
<g id="shield_locked">
<path id="Vector" d="M3.8505 10.881V6.06675C3.8505 5.70625 3.95317 5.37792 4.1585 5.08175C4.36367 4.78558 4.62983 4.57317 4.957 4.4445L11.4032 2.0375C11.6066 1.96283 11.8055 1.9255 12 1.9255C12.1945 1.9255 12.3934 1.96283 12.5967 2.0375L19.043 4.4445C19.3702 4.57317 19.6373 4.78558 19.8445 5.08175C20.0518 5.37792 20.1555 5.70625 20.1555 6.06675V10.925C20.1555 11.2088 20.0651 11.4217 19.8842 11.5637C19.7036 11.7057 19.5081 11.7768 19.2977 11.7768C19.0474 11.7768 18.8429 11.7008 18.6842 11.5488C18.5256 11.3968 18.4462 11.1888 18.4462 10.925V6.06975L12 3.63475L5.55375 6.06975V10.924C5.55375 13.092 6.15392 15.0462 7.35425 16.7867C8.55475 18.5271 10.1033 19.7239 12 20.3772C12.2793 20.2772 12.5785 20.1491 12.8975 19.9928C13.2165 19.8364 13.499 19.6812 13.745 19.5272C13.9523 19.4152 14.1731 19.3894 14.4072 19.4497C14.6416 19.5101 14.8167 19.6458 14.9325 19.857C15.0485 20.0683 15.0757 20.2862 15.014 20.5105C14.9523 20.735 14.8172 20.9047 14.6087 21.0195C14.3402 21.1733 14.0382 21.3273 13.7027 21.4815C13.3672 21.6357 13.0569 21.773 12.7717 21.8935C12.6804 21.9268 12.5879 21.9528 12.4942 21.9715C12.4006 21.9902 12.3065 21.9995 12.212 21.9995C12.1182 21.9995 12.0274 21.9902 11.9398 21.9715C11.8521 21.9528 11.7626 21.9268 11.6713 21.8935C9.33458 21.1062 7.473 19.6821 6.0865 17.6212C4.69983 15.5604 3.9545 13.3137 3.8505 10.881ZM16.9615 22.1495C16.7082 22.1495 16.4693 22.0346 16.245 21.8048C16.0208 21.5749 15.9087 21.3338 15.9087 21.0813V17.9897C15.9087 17.7357 16.0202 17.4952 16.2432 17.2682C16.4662 17.0412 16.7047 16.9277 16.9587 16.9277V15.9277C16.9587 15.3191 17.1579 14.8046 17.5562 14.3842C17.9547 13.9639 18.4504 13.7537 19.0432 13.7537C19.6314 13.7537 20.1222 13.9639 20.5155 14.3842C20.9088 14.8046 21.1055 15.3191 21.1055 15.9277V16.9277H21.1227C21.3612 16.9277 21.593 17.0412 21.818 17.2682C22.043 17.4952 22.1555 17.7357 22.1555 17.9897V21.083C22.1555 21.336 22.043 21.577 21.818 21.806C21.593 22.035 21.3616 22.1495 21.1237 22.1495H16.9615ZM17.9945 16.9277H20.0945V15.9277C20.0945 15.5944 19.9977 15.3194 19.804 15.1027C19.6103 14.8861 19.3562 14.7777 19.0415 14.7777C18.7102 14.7777 18.4528 14.8861 18.2695 15.1027C18.0862 15.3194 17.9945 15.5944 17.9945 15.9277V16.9277Z" fill="var(--fill-0, #1E729C)"/>
</g>
</svg>
