<svg preserveAspectRatio="none" width="100%" height="100%" overflow="visible" style="display: block;" viewBox="0 0 20 20" fill="none" xmlns="http://www.w3.org/2000/svg">
<g id="server" clip-path="url(#clip0_0_734)">
<path id="Vector" d="M5 5H5.00833M5 15H5.00833M3.33333 1.66667H16.6667C17.5871 1.66667 18.3333 2.41286 18.3333 3.33333V6.66667C18.3333 7.58714 17.5871 8.33333 16.6667 8.33333H3.33333C2.41286 8.33333 1.66667 7.58714 1.66667 6.66667V3.33333C1.66667 2.41286 2.41286 1.66667 3.33333 1.66667ZM3.33333 11.6667H16.6667C17.5871 11.6667 18.3333 12.4129 18.3333 13.3333V16.6667C18.3333 17.5871 17.5871 18.3333 16.6667 18.3333H3.33333C2.41286 18.3333 1.66667 17.5871 1.66667 16.6667V13.3333C1.66667 12.4129 2.41286 11.6667 3.33333 11.6667Z" stroke="var(--stroke-0, #F4813E)" stroke-width="1.5" stroke-linecap="round" stroke-linejoin="round"/>
</g>
<defs>
<clipPath id="clip0_0_734">
<rect width="20" height="20" fill="white"/>
</clipPath>
</defs>
</svg>
