<svg preserveAspectRatio="none" width="100%" height="100%" overflow="visible" style="display: block;" viewBox="0 0 24 24" fill="none" xmlns="http://www.w3.org/2000/svg">
<g id="track_changes">
<path id="Vector" d="M11.9985 22.275C10.5803 22.275 9.246 22.0058 7.9955 21.4673C6.74517 20.9286 5.65675 20.1961 4.73025 19.2698C3.80392 18.3433 3.07142 17.2543 2.53275 16.003C1.99425 14.7517 1.725 13.4168 1.725 11.9985C1.725 10.5803 1.99425 9.246 2.53275 7.9955C3.07142 6.74517 3.80392 5.65675 4.73025 4.73025C5.65675 3.80392 6.7455 3.07142 7.9965 2.53275C9.2475 1.99425 10.582 1.725 12 1.725C12.2353 1.725 12.4301 1.80217 12.5843 1.9565C12.7386 2.11067 12.8158 2.30542 12.8158 2.54075V10.0313C13.2024 10.1926 13.5193 10.4499 13.7665 10.8033C14.0138 11.1566 14.1375 11.5549 14.1375 11.9983C14.1375 12.5866 13.928 13.0902 13.509 13.509C13.09 13.928 12.5863 14.1375 11.9978 14.1375C11.4094 14.1375 10.9064 13.928 10.4888 13.509C10.0713 13.0902 9.8625 12.5866 9.8625 11.9983C9.8625 11.5549 9.98617 11.1566 10.2335 10.8033C10.4807 10.4499 10.7976 10.1923 11.1843 10.0305V7.50225C10.0969 7.69358 9.20008 8.20567 8.49375 9.0385C7.78742 9.8715 7.43425 10.8578 7.43425 11.9973C7.43425 13.2698 7.8775 14.3493 8.764 15.236C9.65033 16.1225 10.7288 16.5658 11.9993 16.5658C13.2698 16.5658 14.3484 16.1225 15.2353 15.236C16.1223 14.3493 16.5658 13.2707 16.5658 12C16.5658 11.4667 16.4804 10.967 16.3098 10.501C16.1389 10.0348 15.9053 9.6095 15.6088 9.225C15.4714 9.04233 15.4018 8.83475 15.3998 8.60225C15.3978 8.36958 15.4793 8.17075 15.6443 8.00575C15.8071 7.84292 16.0017 7.76567 16.228 7.774C16.4543 7.78233 16.6401 7.87575 16.7853 8.05425C17.2266 8.59958 17.5743 9.20192 17.8283 9.86125C18.0823 10.5206 18.2093 11.2339 18.2093 12.0013C18.2093 13.7276 17.6063 15.1928 16.4003 16.397C15.1941 17.6012 13.7276 18.2033 12.0008 18.2033C10.2738 18.2033 8.808 17.6012 7.6035 16.397C6.399 15.1928 5.79675 13.7273 5.79675 12.0003C5.79675 10.4034 6.30967 9.02525 7.3355 7.86575C8.3615 6.70642 9.64442 6.02708 11.1843 5.82775V3.3995C8.97692 3.59867 7.1215 4.51658 5.618 6.15325C4.11433 7.78975 3.3625 9.73817 3.3625 11.9985C3.3625 14.402 4.20192 16.4428 5.88075 18.1208C7.55975 19.7986 9.6 20.6375 12.0015 20.6375C14.403 20.6375 16.4428 19.7982 18.1208 18.1195C19.7986 16.441 20.6375 14.4012 20.6375 12C20.6375 10.9087 20.4542 9.884 20.0875 8.926C19.7208 7.96817 19.2042 7.11025 18.5375 6.35225C18.3755 6.16558 18.2913 5.95583 18.285 5.723C18.2787 5.49033 18.3565 5.29317 18.5185 5.1315C18.6805 4.9695 18.8798 4.89367 19.1163 4.904C19.3529 4.91433 19.5458 5.00883 19.695 5.1875C20.503 6.1075 21.135 7.14142 21.591 8.28925C22.047 9.43708 22.275 10.674 22.275 12C22.275 13.418 22.0058 14.7525 21.4673 16.0035C20.9286 17.2545 20.1961 18.3433 19.2698 19.2698C18.3433 20.1961 17.2543 20.9286 16.003 21.4673C14.7517 22.0058 13.4168 22.275 11.9985 22.275Z" fill="var(--fill-0, #4CC4FE)"/>
</g>
</svg>
