<svg preserveAspectRatio="none" width="100%" height="100%" overflow="visible" style="display: block;" viewBox="0 0 24 24" fill="none" xmlns="http://www.w3.org/2000/svg">
<g id="upload_file">
<path id="Vector" d="M11.3022 13.8652V18.166C11.3022 18.378 11.3742 18.5557 11.518 18.699C11.6618 18.8425 11.8407 18.9143 12.0545 18.9143C12.2682 18.9143 12.4458 18.8425 12.5875 18.699C12.7292 18.5557 12.8 18.378 12.8 18.166V13.8652L14.3352 15.4005C14.3824 15.4477 14.506 15.4296 14.706 15.3462C14.906 15.2629 15.0945 15.1879 15.2715 15.1212C15.4485 15.0546 15.5703 15.026 15.637 15.0355C15.7037 15.045 15.6203 15.1677 15.387 15.4035C15.537 15.2583 15.6068 15.0843 15.5965 14.8815C15.5862 14.6787 15.508 14.5022 15.362 14.3522L12.6027 11.674C12.5097 11.583 12.4131 11.5168 12.3127 11.4753C12.2122 11.4338 12.107 11.413 11.997 11.413C11.887 11.413 11.7827 11.4338 11.6842 11.4753C11.5859 11.5168 11.4902 11.583 11.3972 11.674L8.669 14.4022C8.515 14.5572 8.43808 14.7348 8.43825 14.9348C8.43842 15.1348 8.51533 15.3114 8.669 15.4647C8.818 15.6101 8.99275 15.6808 9.19325 15.677C9.39375 15.6732 9.569 15.5982 9.719 15.4522L11.3022 13.8652ZM5.55375 22.1495C5.09375 22.1495 4.69492 21.9806 4.35725 21.6428C4.01942 21.3051 3.8505 20.9062 3.8505 20.4462V3.55375C3.8505 3.09208 4.01942 2.69183 4.35725 2.353C4.69492 2.014 5.09375 1.8445 5.55375 1.8445H13.876C14.1118 1.8445 14.3366 1.89217 14.5502 1.9875C14.7639 2.08283 14.9473 2.20708 15.1005 2.36025L19.6397 6.8995C19.7929 7.05267 19.9172 7.23608 20.0125 7.44975C20.1078 7.66342 20.1555 7.88817 20.1555 8.124V20.4462C20.1555 20.9062 19.986 21.3051 19.647 21.6428C19.3082 21.9806 18.9079 22.1495 18.4462 22.1495H5.55375ZM13.7212 7.35225V3.55375H5.55375V20.4462H18.4462V8.20375H14.5727C14.3324 8.20375 14.1304 8.12192 13.9667 7.95825C13.8031 7.79458 13.7212 7.59258 13.7212 7.35225Z" fill="var(--fill-0, #1E729C)"/>
</g>
</svg>
