<svg preserveAspectRatio="none" width="100%" height="100%" overflow="visible" style="display: block;" viewBox="0 0 24 24" fill="none" xmlns="http://www.w3.org/2000/svg">
<g id="water_drop">
<g id="Vector">
<mask id="path-1-inside-1_0_697" fill="white">
<path d="M12 22.1495C9.67467 22.1495 7.73508 21.3518 6.18125 19.7563C4.62742 18.1606 3.8505 16.1752 3.8505 13.8C3.8505 12.7732 4.07725 11.7478 4.53075 10.7238C4.98408 9.69958 5.56533 8.70317 6.2745 7.7345C6.9835 6.76583 7.76783 5.84175 8.6275 4.96225C9.487 4.08275 10.3272 3.27617 11.1482 2.5425C11.2809 2.4305 11.418 2.35067 11.5595 2.303C11.7008 2.25533 11.8479 2.2315 12.0007 2.2315C12.1536 2.2315 12.3004 2.25533 12.4412 2.303C12.5822 2.35067 12.7191 2.4305 12.8517 2.5425C13.6727 3.27617 14.513 4.08275 15.3725 4.96225C16.2322 5.84175 17.0165 6.76583 17.7255 7.7345C18.4347 8.70317 19.0169 9.69958 19.4722 10.7238C19.9277 11.7478 20.1555 12.7732 20.1555 13.8C20.1555 16.1752 19.3776 18.1606 17.8217 19.7563C16.2659 21.3518 14.3253 22.1495 12 22.1495ZM12.0007 20.4462C13.8509 20.4462 15.3877 19.8135 16.6112 18.548C17.8346 17.2827 18.4462 15.7 18.4462 13.8C18.4462 12.5033 17.8971 11.0264 16.7987 9.36925C15.7002 7.71225 14.1007 5.94842 12 4.07775C9.89933 5.94842 8.29975 7.71225 7.20125 9.36925C6.10292 11.0264 5.55375 12.5033 5.55375 13.8C5.55375 15.7 6.16575 17.2827 7.38975 18.548C8.61358 19.8135 10.1506 20.4462 12.0007 20.4462ZM11.987 18.776C12.2657 18.776 12.4817 18.7253 12.6352 18.624C12.7889 18.5227 12.8657 18.3761 12.8657 18.1843C12.8657 17.9889 12.7899 17.8362 12.6382 17.7262C12.4866 17.6164 12.2612 17.5615 11.962 17.5615C11.242 17.5615 10.5394 17.3427 9.85425 16.905C9.16925 16.4672 8.72867 15.7138 8.5325 14.645C8.49917 14.4912 8.42125 14.3634 8.29875 14.2618C8.17608 14.1601 8.04008 14.1092 7.89075 14.1092C7.68825 14.1092 7.53383 14.1841 7.4275 14.3338C7.32117 14.4834 7.28467 14.6392 7.318 14.801C7.568 16.205 8.16 17.2185 9.094 17.8415C10.028 18.4645 10.9923 18.776 11.987 18.776Z"/>
</mask>
<path d="M6.18125 19.7562L4.74838 21.1516L4.74845 21.1516L6.18125 19.7562ZM4.53075 10.7238L6.35944 11.5336L6.3596 11.5333L4.53075 10.7238ZM6.2745 7.7345L7.88825 8.91594L7.88839 8.91576L6.2745 7.7345ZM8.6275 4.96225L10.0577 6.36024L10.0579 6.36011L8.6275 4.96225ZM11.1482 2.5425L9.85809 1.01427L9.83657 1.03243L9.81558 1.05119L11.1482 2.5425ZM11.5595 2.303L12.198 4.19835L12.1987 4.19812L11.5595 2.303ZM12.4412 2.303L11.8001 4.19743L11.8007 4.19766L12.4412 2.303ZM12.8517 2.5425L14.1844 1.05119L14.1634 1.03243L14.1419 1.01427L12.8517 2.5425ZM15.3725 4.96225L13.9421 6.36011L13.9423 6.36024L15.3725 4.96225ZM17.7255 7.7345L16.1116 8.91576L16.1117 8.91594L17.7255 7.7345ZM19.4722 10.7238L17.6447 11.5362L17.6449 11.5366L19.4722 10.7238ZM17.8217 19.7562L19.2536 21.1526L19.2537 21.1525L17.8217 19.7562ZM16.6112 18.548L18.0491 19.9382L18.0491 19.9381L16.6112 18.548ZM16.7987 9.36925L18.4658 8.26434L18.4657 8.26415L16.7987 9.36925ZM12 4.07775L13.3301 2.58413L12 1.39968L10.6699 2.58413L12 4.07775ZM7.20125 9.36925L5.53429 8.26415L5.53416 8.26434L7.20125 9.36925ZM7.38975 18.548L8.82743 17.1577L8.82725 17.1575L7.38975 18.548ZM12.6352 18.624L11.5342 16.9543L11.5334 16.9549L12.6352 18.624ZM12.6382 17.7263L13.8125 16.1072L13.8113 16.1064L12.6382 17.7263ZM9.85425 16.905L8.77713 18.5902L8.77761 18.5905L9.85425 16.905ZM8.5325 14.645L10.4996 14.284L10.4939 14.2526L10.4871 14.2215L8.5325 14.645ZM8.29875 14.2617L9.57603 12.7227L9.575 12.7219L8.29875 14.2617ZM7.318 14.801L9.28703 14.4504L9.28231 14.4239L9.27688 14.3975L7.318 14.801ZM12 22.1495V20.1495C10.1876 20.1495 8.77322 19.5511 7.61405 18.3609L6.18125 19.7562L4.74845 21.1516C6.69695 23.1524 9.16169 24.1495 12 24.1495V22.1495ZM6.18125 19.7562L7.61412 18.3609C6.44974 17.1652 5.8505 15.6921 5.8505 13.8H3.8505H1.8505C1.8505 16.6582 2.80509 19.156 4.74838 21.1516L6.18125 19.7562ZM3.8505 13.8H5.8505C5.8505 13.0766 6.00855 12.3259 6.35944 11.5336L4.53075 10.7238L2.70206 9.91388C2.14595 11.1696 1.8505 12.4698 1.8505 13.8H3.8505ZM4.53075 10.7238L6.3596 11.5333C6.7508 10.6495 7.25789 9.77697 7.88825 8.91594L6.2745 7.7345L4.66075 6.55306C3.87277 7.62937 3.21737 8.7497 2.7019 9.91424L4.53075 10.7238ZM6.2745 7.7345L7.88839 8.91576C8.54003 8.02545 9.26273 7.1736 10.0577 6.36024L8.6275 4.96225L7.19725 3.56425C6.27293 4.5099 5.42696 5.50622 4.66061 6.55324L6.2745 7.7345ZM8.6275 4.96225L10.0579 6.36011C10.8895 5.50919 11.6971 4.7342 12.4809 4.03381L11.1482 2.5425L9.81558 1.05119C8.95735 1.81813 8.08455 2.65631 7.19712 3.56439L8.6275 4.96225ZM11.1482 2.5425L12.4384 4.07073C12.4097 4.09496 12.3303 4.15376 12.198 4.19835L11.5595 2.303L10.921 0.407652C10.5057 0.54757 10.1521 0.76604 9.85809 1.01427L11.1482 2.5425ZM11.5595 2.303L12.1987 4.19812C12.129 4.22163 12.0598 4.2315 12.0007 4.2315V2.2315V0.2315C11.636 0.2315 11.2727 0.289041 10.9203 0.40788L11.5595 2.303ZM12.0007 2.2315V4.2315C11.9417 4.2315 11.8715 4.22162 11.8001 4.19743L12.4412 2.303L13.0824 0.408568C12.7293 0.289041 12.3655 0.2315 12.0007 0.2315V2.2315ZM12.4412 2.303L11.8007 4.19766C11.6681 4.15281 11.5892 4.09401 11.5616 4.07073L12.8517 2.5425L14.1419 1.01427C13.849 0.766993 13.4964 0.548524 13.0818 0.408338L12.4412 2.303ZM12.8517 2.5425L11.5191 4.03381C12.3029 4.73421 13.1105 5.50919 13.9421 6.36011L15.3725 4.96225L16.8029 3.56439C15.9155 2.65631 15.0426 1.81813 14.1844 1.05119L12.8517 2.5425ZM15.3725 4.96225L13.9423 6.36024C14.7373 7.1736 15.46 8.02545 16.1116 8.91576L17.7255 7.7345L19.3394 6.55324C18.573 5.50622 17.7271 4.5099 16.8027 3.56425L15.3725 4.96225ZM17.7255 7.7345L16.1117 8.91594C16.7426 9.7777 17.2512 10.6512 17.6447 11.5362L19.4722 10.7238L21.2998 9.91125C20.7826 8.74797 20.1267 7.62864 19.3393 6.55306L17.7255 7.7345ZM19.4722 10.7238L17.6449 11.5366C17.9971 12.3284 18.1555 13.078 18.1555 13.8H20.1555H22.1555C22.1555 12.4684 21.8584 11.1671 21.2996 9.91089L19.4722 10.7238ZM20.1555 13.8H18.1555C18.1555 15.6914 17.5558 17.1641 16.3898 18.36L17.8217 19.7562L19.2537 21.1525C21.1994 19.157 22.1555 16.659 22.1555 13.8H20.1555ZM17.8217 19.7562L16.3898 18.3599C15.2283 19.5511 13.8124 20.1495 12 20.1495V22.1495V24.1495C14.8383 24.1495 17.3035 23.1524 19.2536 21.1526L17.8217 19.7562ZM12.0007 20.4463V22.4463C14.3621 22.4463 16.4278 21.6151 18.0491 19.9382L16.6112 18.548L15.1734 17.1578C14.3477 18.0119 13.3398 18.4463 12.0007 18.4463V20.4463ZM16.6112 18.548L18.0491 19.9381C19.6634 18.2685 20.4462 16.1734 20.4462 13.8H18.4462H16.4462C16.4462 15.2266 16.0058 16.2968 15.1734 17.1579L16.6112 18.548ZM18.4462 13.8H20.4462C20.4462 11.9526 19.6737 10.0867 18.4658 8.26434L16.7987 9.36925L15.1317 10.4742C16.1205 11.9661 16.4462 13.0541 16.4462 13.8H18.4462ZM16.7987 9.36925L18.4657 8.26415C17.2419 6.41807 15.5107 4.52603 13.3301 2.58413L12 4.07775L10.6699 5.57136C12.6906 7.3708 14.1586 9.00643 15.1318 10.4744L16.7987 9.36925ZM12 4.07775L10.6699 2.58413C8.48926 4.52603 6.75814 6.41807 5.53429 8.26415L7.20125 9.36925L8.86821 10.4744C9.84136 9.00643 11.3094 7.3708 13.3301 5.57136L12 4.07775ZM7.20125 9.36925L5.53416 8.26434C4.32634 10.0867 3.55375 11.9526 3.55375 13.8H5.55375H7.55375C7.55375 13.0541 7.87949 11.9661 8.86834 10.4742L7.20125 9.36925ZM5.55375 13.8H3.55375C3.55375 16.1737 4.3372 18.269 5.95225 19.9385L7.38975 18.548L8.82725 17.1575C7.9943 16.2964 7.55375 15.2263 7.55375 13.8H5.55375ZM7.38975 18.548L5.95207 19.9383C7.57366 21.6151 9.63943 22.4463 12.0007 22.4463V20.4463V18.4463C10.6617 18.4463 9.65351 18.0118 8.82743 17.1577L7.38975 18.548ZM11.987 18.776V20.776C12.469 20.776 13.1286 20.6948 13.7371 20.2931L12.6352 18.624L11.5334 16.9549C11.6896 16.8517 11.8258 16.8085 11.9015 16.7908C11.9754 16.7735 12.0098 16.776 11.987 16.776V18.776ZM12.6352 18.624L13.7363 20.2937C14.479 19.8039 14.8657 19.0143 14.8657 18.1843H12.8657H10.8657C10.8657 18.0084 10.9027 17.7652 11.0367 17.5096C11.1725 17.2505 11.3608 17.0687 11.5342 16.9543L12.6352 18.624ZM12.8657 18.1843H14.8657C14.8657 17.3803 14.5084 16.612 13.8125 16.1072L12.6382 17.7263L11.464 19.3453C11.3047 19.2297 11.1373 19.0539 11.0177 18.813C10.8995 18.575 10.8657 18.3501 10.8657 18.1843H12.8657ZM12.6382 17.7263L13.8113 16.1064C13.169 15.6413 12.4501 15.5615 11.962 15.5615V17.5615V19.5615C11.9954 19.5615 11.9614 19.5652 11.882 19.5459C11.801 19.5261 11.6431 19.4749 11.4652 19.3461L12.6382 17.7263ZM11.962 17.5615V15.5615C11.6713 15.5615 11.3373 15.4791 10.9309 15.2195L9.85425 16.905L8.77761 18.5905C9.74156 19.2062 10.8127 19.5615 11.962 19.5615V17.5615ZM9.85425 16.905L10.9314 15.2198C10.8561 15.1717 10.6308 14.9989 10.4996 14.284L8.5325 14.645L6.56536 15.006C6.82648 16.4288 7.4824 17.7626 8.77713 18.5902L9.85425 16.905ZM8.5325 14.645L10.4871 14.2215C10.3579 13.6252 10.0384 13.1065 9.57603 12.7227L8.29875 14.2617L7.02147 15.8008C6.92374 15.7197 6.82473 15.6115 6.74159 15.4752C6.6583 15.3387 6.60602 15.1985 6.57786 15.0685L8.5325 14.645ZM8.29875 14.2617L9.575 12.7219C9.11939 12.3443 8.53865 12.1092 7.89075 12.1092V14.1092V16.1092C7.73325 16.1092 7.56689 16.0815 7.40452 16.0208C7.24385 15.9607 7.11651 15.8795 7.0225 15.8016L8.29875 14.2617ZM7.89075 14.1092V12.1092C7.11825 12.1092 6.3214 12.4374 5.79709 13.1754L7.4275 14.3338L9.05791 15.4921C8.93033 15.6717 8.7418 15.8457 8.49528 15.9652C8.25585 16.0812 8.03761 16.1092 7.89075 16.1092V14.1092ZM7.4275 14.3338L5.79709 13.1754C5.40888 13.7218 5.20073 14.4355 5.35912 15.2045L7.318 14.801L9.27688 14.3975C9.31674 14.5911 9.31774 14.8053 9.26762 15.0191C9.21866 15.2281 9.13287 15.3866 9.05791 15.4921L7.4275 14.3338ZM7.318 14.801L5.34897 15.1516C5.6672 16.9388 6.48182 18.5032 7.98419 19.5053L9.094 17.8415L10.2038 16.1777C9.83818 15.9338 9.4688 15.4712 9.28703 14.4504L7.318 14.801ZM9.094 17.8415L7.98419 19.5053C9.20307 20.3184 10.5478 20.776 11.987 20.776V18.776V16.776C11.4368 16.776 10.8529 16.6106 10.2038 16.1777L9.094 17.8415Z" fill="var(--stroke-0, #4CC4FE)" mask="url(#path-1-inside-1_0_697)"/>
</g>
</g>
</svg>
