<svg preserveAspectRatio="none" width="100%" height="100%" overflow="visible" style="display: block;" viewBox="0 0 40 40" fill="none" xmlns="http://www.w3.org/2000/svg">
<g id="airwave">
<g id="Vector">
<mask id="path-1-inside-1_0_56" fill="white">
<path d="M31.0779 13.4492C30.3424 14.1914 29.5201 14.7394 28.6113 15.0933C27.7026 15.4472 26.7661 15.6242 25.8017 15.6242C24.8306 15.6242 23.889 15.4456 22.9771 15.0883C22.0649 14.7311 21.241 14.1847 20.5054 13.4492L17.3804 10.3242C16.9282 9.87195 16.4274 9.53972 15.8779 9.3275C15.3282 9.11528 14.7578 9.00917 14.1667 9.00917C13.5756 9.00917 13.0051 9.11528 12.4554 9.3275C11.906 9.53972 11.4051 9.87195 10.9529 10.3242L8.99458 12.2825C8.71125 12.5725 8.37806 12.7106 7.995 12.6967C7.61194 12.6828 7.27875 12.5342 6.99542 12.2508C6.71236 11.9678 6.57083 11.6293 6.57083 11.2354C6.57083 10.8418 6.71236 10.5 6.99542 10.21L8.92208 8.29333C9.65764 7.56444 10.4799 7.01986 11.3887 6.65958C12.2974 6.29903 13.22 6.11875 14.1567 6.11875C15.1 6.11875 16.0207 6.29903 16.9187 6.65958C17.8171 7.01986 18.634 7.56444 19.3696 8.29333L22.4946 11.4183C22.9535 11.8772 23.4576 12.2199 24.0071 12.4463C24.5568 12.6724 25.1378 12.7854 25.75 12.7854C26.3622 12.7854 26.9501 12.6724 27.5138 12.4463C28.0771 12.2199 28.5882 11.8772 29.0471 11.4183L31.0054 9.46C31.2888 9.17694 31.6272 9.03542 32.0208 9.03542C32.4144 9.03542 32.7529 9.17694 33.0363 9.46C33.3196 9.75 33.4613 10.0918 33.4613 10.4854C33.4613 10.8793 33.3196 11.2178 33.0363 11.5008L31.0779 13.4492ZM31.0779 22.5779C30.3424 23.3135 29.5185 23.8599 28.6063 24.2171C27.6943 24.5743 26.7561 24.7529 25.7917 24.7529C24.8272 24.7529 23.889 24.5743 22.9771 24.2171C22.0649 23.8599 21.241 23.3135 20.5054 22.5779L17.3804 19.4529C16.9282 19.0007 16.4274 18.6668 15.8779 18.4513C15.3282 18.2357 14.7578 18.1279 14.1667 18.1279C13.5756 18.1279 13.0051 18.2357 12.4554 18.4513C11.906 18.6668 11.4051 19.0007 10.9529 19.4529L8.99458 21.4112C8.71125 21.6946 8.37972 21.8363 8 21.8363C7.62028 21.8363 7.28875 21.6946 7.00542 21.4112C6.72208 21.1279 6.57347 20.7894 6.55958 20.3958C6.54569 20.0022 6.68042 19.6638 6.96375 19.3804L8.92208 17.4221C9.65764 16.6865 10.4799 16.1401 11.3887 15.7829C12.2974 15.4257 13.22 15.2471 14.1567 15.2471C15.1 15.2471 16.0207 15.4257 16.9187 15.7829C17.8171 16.1401 18.634 16.6865 19.3696 17.4221L22.4946 20.5471C22.9535 21.006 23.4646 21.3485 24.0279 21.5746C24.5915 21.8007 25.1794 21.9137 25.7917 21.9137C26.4039 21.9137 26.9849 21.8007 27.5346 21.5746C28.084 21.3485 28.5882 21.006 29.0471 20.5471L31.0054 18.5888C31.2888 18.3054 31.6272 18.1637 32.0208 18.1637C32.4144 18.1637 32.7529 18.3054 33.0363 18.5888C33.3196 18.8721 33.4613 19.2122 33.4613 19.6092C33.4613 20.0061 33.3196 20.3462 33.0363 20.6296L31.0779 22.5779ZM31.0363 31.6967C30.3007 32.4322 29.4838 32.9801 28.5854 33.3404C27.6874 33.701 26.7561 33.8813 25.7917 33.8813C24.8272 33.8813 23.889 33.701 22.9771 33.3404C22.0649 32.9801 21.241 32.4322 20.5054 31.6967L17.3388 28.5717C16.8865 28.1194 16.3857 27.7871 15.8363 27.5746C15.2865 27.3624 14.7161 27.2563 14.125 27.2563C13.5339 27.2563 12.9635 27.3624 12.4137 27.5746C11.8643 27.7871 11.3635 28.1194 10.9112 28.5717L8.95292 30.53C8.66958 30.8197 8.33806 30.9646 7.95833 30.9646C7.57861 30.9646 7.24708 30.8197 6.96375 30.53C6.68042 30.2467 6.54569 29.9168 6.55958 29.5404C6.57347 29.1637 6.70819 28.8306 6.96375 28.5408L8.92208 26.5408C9.65764 25.8053 10.4729 25.2589 11.3679 24.9017C12.2626 24.5444 13.1783 24.3658 14.115 24.3658C15.0583 24.3658 15.986 24.5461 16.8979 24.9067C17.8101 25.2672 18.634 25.8119 19.3696 26.5408L22.4946 29.6658C22.9535 30.1247 23.4646 30.4672 24.0279 30.6933C24.5915 30.9194 25.1794 31.0325 25.7917 31.0325C26.4039 31.0325 26.9849 30.9194 27.5346 30.6933C28.084 30.4672 28.5882 30.1247 29.0471 29.6658L30.9954 27.7075C31.2788 27.4242 31.6119 27.2894 31.995 27.3033C32.3781 27.3172 32.7113 27.4658 32.9946 27.7492C33.2779 28.0389 33.4196 28.3737 33.4196 28.7537C33.4196 29.1335 33.2779 29.4617 32.9946 29.7383L31.0363 31.6967Z"/>
</mask>
<path d="M31.0779 13.4492L28.962 11.3224L28.9545 11.3299L28.947 11.3374L31.0779 13.4492ZM28.6113 15.0933L27.5228 12.2978L27.5225 12.2979L28.6113 15.0933ZM22.9771 15.0883L24.0713 12.295L24.071 12.2949L22.9771 15.0883ZM15.8779 9.3275L16.9588 6.529L16.9584 6.52881L15.8779 9.3275ZM12.4554 9.3275L11.375 6.52881L11.3745 6.529L12.4554 9.3275ZM10.9529 10.3242L8.8316 8.20285H8.8316L10.9529 10.3242ZM8.99458 12.2825L6.87326 10.1612L6.86093 10.1735L6.84874 10.186L8.99458 12.2825ZM6.99542 10.21L4.87962 8.08317L4.86397 8.09874L4.84855 8.11454L6.99542 10.21ZM8.92208 8.29333L6.81044 6.16237L6.80629 6.1665L8.92208 8.29333ZM11.3887 6.65958L12.4942 9.44847L12.4953 9.44806L11.3887 6.65958ZM16.9187 6.65958L15.801 9.44359L15.8021 9.444L16.9187 6.65958ZM19.3696 8.29333L21.4909 6.17199L21.4812 6.16238L19.3696 8.29333ZM24.0071 12.4463L22.8642 15.22L22.8659 15.2207L24.0071 12.4463ZM27.5138 12.4463L28.6308 15.2305L28.6324 15.2299L27.5138 12.4463ZM31.0054 9.46L28.8851 7.33764L28.8841 7.33868L31.0054 9.46ZM33.0363 9.46L35.1821 7.36349L35.1694 7.35049L35.1565 7.33764L33.0363 9.46ZM33.0363 11.5008L35.1521 13.6276L35.1565 13.6232L33.0363 11.5008ZM31.0779 22.5779L28.962 20.4512L28.9566 20.4566L31.0779 22.5779ZM28.6063 24.2171L27.5123 21.4236L27.5121 21.4237L28.6063 24.2171ZM22.9771 24.2171L24.0713 21.4237L24.071 21.4236L22.9771 24.2171ZM15.8779 18.4513L16.9736 15.6585L16.9731 15.6583L15.8779 18.4513ZM12.4554 18.4513L11.3602 15.6583L11.3598 15.6585L12.4554 18.4513ZM10.9529 19.4529L8.8316 17.3316H8.8316L10.9529 19.4529ZM8.99458 21.4113L11.1159 23.5326H11.1159L8.99458 21.4113ZM6.96375 19.3804L4.84243 17.2591L6.96375 19.3804ZM8.92208 17.4221L11.0434 19.5434L8.92208 17.4221ZM11.3887 15.7829L12.4861 18.575L12.4864 18.5749L11.3887 15.7829ZM16.9187 15.7829L15.8099 18.5705L15.8102 18.5706L16.9187 15.7829ZM24.0279 21.5746L22.9104 24.3587L22.9109 24.3589L24.0279 21.5746ZM27.5346 21.5746L28.6758 24.3491L28.6763 24.3489L27.5346 21.5746ZM33.0363 20.6296L35.1521 22.7563L35.1576 22.7509L33.0363 20.6296ZM28.5854 33.3404L27.4687 30.556L27.4677 30.5564L28.5854 33.3404ZM22.9771 33.3404L24.0801 30.5506L24.0791 30.5501L22.9771 33.3404ZM20.5054 31.6967L22.6267 29.5753L22.6197 29.5683L22.6126 29.5613L20.5054 31.6967ZM17.3388 28.5717L15.2174 30.693L15.2245 30.7L15.2315 30.707L17.3388 28.5717ZM15.8363 27.5746L16.9184 24.7766L16.9167 24.7759L15.8363 27.5746ZM12.4137 27.5746L11.3333 24.7759L11.3316 24.7766L12.4137 27.5746ZM10.9112 28.5717L8.78993 26.4503V26.4503L10.9112 28.5717ZM8.95292 30.53L6.8316 28.4087L6.81977 28.4205L6.80808 28.4325L8.95292 30.53ZM6.96375 30.53L9.10859 28.4325L9.0969 28.4205L9.08507 28.4087L6.96375 30.53ZM6.55958 29.5404L9.55754 29.651L9.55755 29.651L6.55958 29.5404ZM6.96375 28.5408L4.82022 26.442L4.76558 26.4978L4.71392 26.5563L6.96375 28.5408ZM8.92208 26.5408L6.80076 24.4195L6.7896 24.4307L6.77855 24.442L8.92208 26.5408ZM11.3679 24.9017L12.48 27.6879L12.4803 27.6878L11.3679 24.9017ZM16.8979 24.9067L15.7949 27.6965L15.7952 27.6966L16.8979 24.9067ZM19.3696 26.5408L21.4909 24.4195L21.4812 24.4099L19.3696 26.5408ZM22.4946 29.6658L24.6159 27.5445V27.5445L22.4946 29.6658ZM24.0279 30.6933L22.9104 33.4774L22.9109 33.4776L24.0279 30.6933ZM27.5346 30.6933L28.6758 33.4678L28.6763 33.4676L27.5346 30.6933ZM29.0471 29.6658L31.1684 31.7872L31.1738 31.7817L29.0471 29.6658ZM30.9954 27.7075L28.8741 25.5862L28.8687 25.5916L30.9954 27.7075ZM32.9946 27.7492L35.1394 25.6516L35.1277 25.6397L35.1159 25.6278L32.9946 27.7492ZM32.9946 29.7383L30.8987 27.5919L30.8859 27.6044L30.8733 27.617L32.9946 29.7383ZM31.0779 13.4492L28.947 11.3374C28.4858 11.8029 28.0127 12.107 27.5228 12.2978L28.6113 15.0933L29.6997 17.8889C31.0275 17.3719 32.1989 16.5799 33.2088 15.5609L31.0779 13.4492ZM28.6113 15.0933L27.5225 12.2979C26.957 12.5181 26.3894 12.6242 25.8017 12.6242V15.6242V18.6242C27.1428 18.6242 28.4483 18.3763 29.7 17.8888L28.6113 15.0933ZM25.8017 15.6242V12.6242C25.2083 12.6242 24.6376 12.5168 24.0713 12.295L22.9771 15.0883L21.8829 17.8817C23.1404 18.3743 24.4529 18.6242 25.8017 18.6242V15.6242ZM22.9771 15.0883L24.071 12.2949C23.5674 12.0977 23.0882 11.7893 22.6267 11.3278L20.5054 13.4492L18.3841 15.5705C19.3937 16.5801 20.5623 17.3645 21.8832 17.8818L22.9771 15.0883ZM20.5054 13.4492L22.6267 11.3278L19.5017 8.20285L17.3804 10.3242L15.2591 12.4455L18.3841 15.5705L20.5054 13.4492ZM17.3804 10.3242L19.5017 8.20285C18.7794 7.4805 17.931 6.90449 16.9588 6.529L15.8779 9.3275L14.797 12.126C14.9237 12.175 15.077 12.2634 15.2591 12.4455L17.3804 10.3242ZM15.8779 9.3275L16.9584 6.52881C16.0629 6.1831 15.1261 6.00917 14.1667 6.00917V9.00917V12.0092C14.3895 12.0092 14.5935 12.0475 14.7975 12.1262L15.8779 9.3275ZM14.1667 9.00917V6.00917C13.2073 6.00917 12.2705 6.1831 11.375 6.52881L12.4554 9.3275L13.5359 12.1262C13.7398 12.0475 13.9438 12.0092 14.1667 12.0092V9.00917ZM12.4554 9.3275L11.3745 6.529C10.4023 6.90449 9.55395 7.4805 8.8316 8.20285L10.9529 10.3242L13.0742 12.4455C13.2563 12.2634 13.4096 12.175 13.5363 12.126L12.4554 9.3275ZM10.9529 10.3242L8.8316 8.20285L6.87326 10.1612L8.99458 12.2825L11.1159 14.4038L13.0742 12.4455L10.9529 10.3242ZM8.99458 12.2825L6.84874 10.186C6.95536 10.0769 7.13188 9.93642 7.38385 9.83202C7.63985 9.72595 7.89236 9.69097 8.1037 9.69864L7.995 12.6967L7.8863 15.6947C9.16783 15.7412 10.3047 15.2344 11.1404 14.379L8.99458 12.2825ZM7.995 12.6967L8.1037 9.69864C8.27664 9.70491 8.47768 9.7448 8.67982 9.83496C8.87973 9.92412 9.02448 10.0373 9.11674 10.1295L6.99542 12.2508L4.8741 14.3722C5.66666 15.1647 6.70868 15.652 7.8863 15.6947L7.995 12.6967ZM6.99542 12.2508L9.11674 10.1295C9.22609 10.2389 9.35163 10.4046 9.44476 10.6274C9.5383 10.8511 9.57083 11.0646 9.57083 11.2354H6.57083H3.57083C3.57083 12.4394 4.03871 13.5368 4.8741 14.3722L6.99542 12.2508ZM6.57083 11.2354H9.57083C9.57083 11.4069 9.53814 11.6157 9.44877 11.8315C9.36009 12.0457 9.24196 12.2033 9.14229 12.3055L6.99542 10.21L4.84855 8.11454C4.03654 8.94647 3.57083 10.0333 3.57083 11.2354H6.57083ZM6.99542 10.21L9.11121 12.3368L11.0379 10.4202L8.92208 8.29333L6.80629 6.1665L4.87962 8.08317L6.99542 10.21ZM8.92208 8.29333L11.0337 10.4243C11.499 9.96322 11.9837 9.65086 12.4942 9.44847L11.3887 6.65958L10.2833 3.8707C8.97605 4.38887 7.81627 5.16566 6.81044 6.16238L8.92208 8.29333ZM11.3887 6.65958L12.4953 9.44806C13.0673 9.22106 13.6153 9.11875 14.1567 9.11875V6.11875V3.11875C12.8247 3.11875 11.5274 3.377 10.2822 3.87111L11.3887 6.65958ZM14.1567 6.11875V9.11875C14.7071 9.11875 15.2489 9.22194 15.801 9.44359L16.9187 6.65958L18.0365 3.87558C16.7924 3.37612 15.4929 3.11875 14.1567 3.11875V6.11875ZM16.9187 6.65958L15.8021 9.444C16.303 9.6449 16.7869 9.95753 17.2579 10.4243L19.3696 8.29333L21.4812 6.16238C20.4811 5.17136 19.3312 4.39483 18.0354 3.87516L16.9187 6.65958ZM19.3696 8.29333L17.2483 10.4147L20.3733 13.5397L22.4946 11.4183L24.6159 9.29701L21.4909 6.17201L19.3696 8.29333ZM22.4946 11.4183L20.3733 13.5397C21.0861 14.2525 21.9163 14.8295 22.8642 15.22L24.0071 12.4463L25.15 9.67248C24.999 9.61026 24.8208 9.50193 24.6159 9.29701L22.4946 11.4183ZM24.0071 12.4463L22.8659 15.2207C23.7886 15.6002 24.7583 15.7854 25.75 15.7854V12.7854V9.78542C25.5173 9.78542 25.325 9.74448 25.1483 9.67178L24.0071 12.4463ZM25.75 12.7854V15.7854C26.7417 15.7854 27.709 15.6003 28.6308 15.2305L27.5138 12.4463L26.3967 9.66196C26.1913 9.74439 25.9827 9.78542 25.75 9.78542V12.7854ZM27.5138 12.4463L28.6324 15.2299C29.5966 14.8424 30.4434 14.2647 31.1684 13.5397L29.0471 11.4183L26.9258 9.29701C26.733 9.48976 26.5576 9.59732 26.3951 9.66262L27.5138 12.4463ZM29.0471 11.4183L31.1684 13.5397L33.1267 11.5813L31.0054 9.46L28.8841 7.33868L26.9258 9.29701L29.0471 11.4183ZM31.0054 9.46L33.1257 11.5824C33.0168 11.6911 32.8515 11.8163 32.6291 11.9093C32.4056 12.0028 32.1921 12.0354 32.0208 12.0354V9.03542V6.03542C30.8166 6.03542 29.72 6.50364 28.8851 7.33764L31.0054 9.46ZM32.0208 9.03542V12.0354C31.8496 12.0354 31.636 12.0028 31.4126 11.9093C31.1902 11.8163 31.0248 11.6911 30.916 11.5824L33.0363 9.46L35.1565 7.33764C34.3217 6.50364 33.2251 6.03542 32.0208 6.03542V9.03542ZM33.0363 9.46L30.8904 11.5565C30.7908 11.4545 30.6725 11.2969 30.5836 11.0825C30.4941 10.8664 30.4613 10.6573 30.4613 10.4854H33.4613H36.4613C36.4613 9.28239 35.9947 8.1952 35.1821 7.36349L33.0363 9.46ZM33.4613 10.4854H30.4613C30.4613 10.3142 30.4939 10.1003 30.5876 9.87641C30.6809 9.65347 30.8066 9.48769 30.916 9.37847L33.0363 11.5008L35.1565 13.6232C35.9925 12.788 36.4613 11.6903 36.4613 10.4854H33.4613ZM33.0363 11.5008L30.9204 9.37409L28.962 11.3224L31.0779 13.4492L33.1938 15.5759L35.1521 13.6276L33.0363 11.5008ZM31.0779 22.5779L28.9566 20.4566C28.4951 20.9181 28.0159 21.2264 27.5123 21.4236L28.6063 24.2171L29.7002 27.0105C31.021 26.4933 32.1896 25.7089 33.1992 24.6992L31.0779 22.5779ZM28.6063 24.2171L27.5121 21.4237C26.9432 21.6466 26.3758 21.7529 25.7917 21.7529V24.7529V27.7529C27.1364 27.7529 28.4454 27.502 29.7004 27.0104L28.6063 24.2171ZM25.7917 24.7529V21.7529C25.2076 21.7529 24.6401 21.6466 24.0713 21.4237L22.9771 24.2171L21.8829 27.0104C23.1379 27.502 24.4469 27.7529 25.7917 27.7529V24.7529ZM22.9771 24.2171L24.071 21.4236C23.5674 21.2264 23.0882 20.9181 22.6267 20.4566L20.5054 22.5779L18.3841 24.6992C19.3937 25.7089 20.5623 26.4933 21.8832 27.0105L22.9771 24.2171ZM20.5054 22.5779L22.6267 20.4566L19.5017 17.3316L17.3804 19.4529L15.2591 21.5742L18.3841 24.6992L20.5054 22.5779ZM17.3804 19.4529L19.5017 17.3316C18.7822 16.612 17.9387 16.0371 16.9736 15.6585L15.8779 18.4513L14.7823 21.244C14.916 21.2965 15.0742 21.3894 15.2591 21.5742L17.3804 19.4529ZM15.8779 18.4513L16.9731 15.6583C16.0741 15.3058 15.1321 15.1279 14.1667 15.1279V18.1279V21.1279C14.3834 21.1279 14.5823 21.1656 14.7828 21.2442L15.8779 18.4513ZM14.1667 18.1279V15.1279C13.2012 15.1279 12.2593 15.3058 11.3602 15.6583L12.4554 18.4513L13.5506 21.2442C13.751 21.1656 13.9499 21.1279 14.1667 21.1279V18.1279ZM12.4554 18.4513L11.3598 15.6585C10.3947 16.0371 9.55118 16.612 8.8316 17.3316L10.9529 19.4529L13.0742 21.5742C13.2591 21.3894 13.4173 21.2965 13.5511 21.244L12.4554 18.4513ZM10.9529 19.4529L8.8316 17.3316L6.87326 19.2899L8.99458 21.4113L11.1159 23.5326L13.0742 21.5742L10.9529 19.4529ZM8.99458 21.4113L6.87326 19.2899C6.9721 19.1911 7.13126 19.0668 7.35461 18.9713C7.58113 18.8745 7.80661 18.8363 8 18.8363V21.8363V24.8363C9.22292 24.8363 10.3045 24.344 11.1159 23.5326L8.99458 21.4113ZM8 21.8363V18.8363C8.19339 18.8363 8.41887 18.8745 8.64539 18.9713C8.86874 19.0668 9.0279 19.1911 9.12674 19.2899L7.00542 21.4113L4.8841 23.5326C5.6955 24.344 6.77708 24.8363 8 24.8363V21.8363ZM7.00542 21.4113L9.12674 19.2899C9.22641 19.3896 9.34066 19.5391 9.42835 19.7388C9.51642 19.9394 9.55216 20.1326 9.55772 20.29L6.55958 20.3958L3.56145 20.5016C3.60262 21.6683 4.07438 22.7229 4.8841 23.5326L7.00542 21.4113ZM6.55958 20.3958L9.55772 20.29C9.56422 20.4744 9.53598 20.7089 9.43753 20.9562C9.33955 21.2024 9.20291 21.3839 9.08507 21.5017L6.96375 19.3804L4.84243 17.2591C3.98211 18.1194 3.51763 19.2599 3.56145 20.5016L6.55958 20.3958ZM6.96375 19.3804L9.08507 21.5017L11.0434 19.5434L8.92208 17.4221L6.80076 15.3008L4.84243 17.2591L6.96375 19.3804ZM8.92208 17.4221L11.0434 19.5434C11.5067 19.0801 11.9857 18.7717 12.4861 18.575L11.3887 15.7829L10.2914 12.9908C8.97407 13.5086 7.8086 14.2929 6.80076 15.3008L8.92208 17.4221ZM11.3887 15.7829L12.4864 18.5749C13.0604 18.3492 13.6115 18.2471 14.1567 18.2471V15.2471V12.2471C12.8285 12.2471 11.5343 12.5022 10.2911 12.9909L11.3887 15.7829ZM14.1567 15.2471V18.2471C14.7109 18.2471 15.2559 18.3501 15.8099 18.5705L16.9187 15.7829L18.0276 12.9953C16.7855 12.5013 15.4891 12.2471 14.1567 12.2471V15.2471ZM16.9187 15.7829L15.8102 18.5706C16.301 18.7657 16.7792 19.0744 17.2483 19.5434L19.3696 17.4221L21.4909 15.3008C20.4888 14.2987 19.3332 13.5145 18.0273 12.9952L16.9187 15.7829ZM19.3696 17.4221L17.2483 19.5434L20.3733 22.6684L22.4946 20.5471L24.6159 18.4258L21.4909 15.3008L19.3696 17.4221ZM22.4946 20.5471L20.3733 22.6684C21.0985 23.3937 21.9457 23.9715 22.9104 24.3587L24.0279 21.5746L25.1454 18.7905C24.9835 18.7255 24.8084 18.6183 24.6159 18.4258L22.4946 20.5471ZM24.0279 21.5746L22.9109 24.3589C23.8326 24.7287 24.8 24.9138 25.7917 24.9138V21.9137V18.9137C25.5589 18.9137 25.3504 18.8727 25.1449 18.7903L24.0279 21.5746ZM25.7917 21.9137V24.9138C26.7834 24.9138 27.7531 24.7286 28.6758 24.3491L27.5346 21.5746L26.3934 18.8001C26.2166 18.8728 26.0244 18.9137 25.7917 18.9137V21.9137ZM27.5346 21.5746L28.6763 24.3489C29.6247 23.9585 30.4553 23.3815 31.1684 22.6684L29.0471 20.5471L26.9258 18.4258C26.7211 18.6305 26.5433 18.7384 26.3929 18.8003L27.5346 21.5746ZM29.0471 20.5471L31.1684 22.6684L33.1267 20.7101L31.0054 18.5887L28.8841 16.4674L26.9258 18.4258L29.0471 20.5471ZM31.0054 18.5887L33.1267 20.7101C33.018 20.8188 32.8527 20.9442 32.6301 21.0374C32.4064 21.131 32.1925 21.1637 32.0208 21.1637V18.1637V15.1637C30.8157 15.1637 29.7187 15.6328 28.8841 16.4674L31.0054 18.5887ZM32.0208 18.1637V21.1637C31.8492 21.1637 31.6353 21.131 31.4116 21.0374C31.189 20.9442 31.0237 20.8188 30.9149 20.7101L33.0363 18.5887L35.1576 16.4674C34.323 15.6328 33.226 15.1637 32.0208 15.1637V18.1637ZM33.0363 18.5887L30.9149 20.7101C30.8038 20.599 30.6782 20.4322 30.5856 20.2098C30.4928 19.9869 30.4613 19.7757 30.4613 19.6092H33.4613H36.4613C36.4613 18.4082 35.9975 17.3074 35.1576 16.4674L33.0363 18.5887ZM33.4613 19.6092H30.4613C30.4613 19.4426 30.4928 19.2315 30.5856 19.0085C30.6782 18.7862 30.8038 18.6194 30.9149 18.5083L33.0363 20.6296L35.1576 22.7509C35.9975 21.9109 36.4613 20.8102 36.4613 19.6092H33.4613ZM33.0363 20.6296L30.9204 18.5028L28.962 20.4512L31.0779 22.5779L33.1938 24.7047L35.1521 22.7563L33.0363 20.6296ZM31.0363 31.6967L28.9149 29.5753C28.4443 30.0459 27.9634 30.3576 27.4687 30.556L28.5854 33.3404L29.7021 36.1248C31.0041 35.6027 32.1571 34.8185 33.1576 33.818L31.0363 31.6967ZM28.5854 33.3404L27.4677 30.5564C26.9238 30.7748 26.3718 30.8813 25.7917 30.8813V33.8813V36.8813C27.1404 36.8813 28.451 36.6272 29.7032 36.1244L28.5854 33.3404ZM25.7917 33.8813V30.8813C25.2113 30.8813 24.6469 30.7747 24.0801 30.5506L22.9771 33.3404L21.8741 36.1303C23.1311 36.6273 24.4432 36.8813 25.7917 36.8813V33.8813ZM22.9771 33.3404L24.0791 30.5501C23.5717 30.3498 23.0898 30.0384 22.6267 29.5753L20.5054 31.6967L18.3841 33.818C19.3922 34.8261 20.558 35.6105 21.8751 36.1307L22.9771 33.3404ZM20.5054 31.6967L22.6126 29.5613L19.446 26.4363L17.3388 28.5717L15.2315 30.707L18.3982 33.832L20.5054 31.6967ZM17.3388 28.5717L19.4601 26.4503C18.7379 25.7282 17.89 25.1523 16.9184 24.7766L15.8363 27.5746L14.7541 30.3726C14.8814 30.4219 15.0351 30.5107 15.2174 30.693L17.3388 28.5717ZM15.8363 27.5746L16.9167 24.7759C16.0212 24.4302 15.0844 24.2562 14.125 24.2562V27.2562V30.2562C14.3478 30.2562 14.5519 30.2945 14.7558 30.3733L15.8363 27.5746ZM14.125 27.2562V24.2562C13.1656 24.2562 12.2288 24.4302 11.3333 24.7759L12.4137 27.5746L13.4942 30.3733C13.6981 30.2945 13.9022 30.2562 14.125 30.2562V27.2562ZM12.4137 27.5746L11.3316 24.7766C10.36 25.1523 9.51206 25.7282 8.78993 26.4503L10.9112 28.5717L13.0326 30.693C13.2149 30.5107 13.3686 30.4219 13.4959 30.3726L12.4137 27.5746ZM10.9112 28.5717L8.78993 26.4503L6.8316 28.4087L8.95292 30.53L11.0742 32.6513L13.0326 30.693L10.9112 28.5717ZM8.95292 30.53L6.80808 28.4325C6.90384 28.3345 7.06282 28.2064 7.29058 28.1069C7.52232 28.0057 7.75567 27.9646 7.95833 27.9646V30.9646V33.9646C9.20369 33.9646 10.2922 33.4513 11.0978 32.6275L8.95292 30.53ZM7.95833 30.9646V27.9646C8.161 27.9646 8.39434 28.0057 8.62609 28.1069C8.85385 28.2064 9.01283 28.3345 9.10859 28.4325L6.96375 30.53L4.81891 32.6275C5.62448 33.4513 6.71297 33.9646 7.95833 33.9646V30.9646ZM6.96375 30.53L9.08507 28.4087C9.19044 28.514 9.32632 28.6881 9.4275 28.9358C9.53042 29.1878 9.5654 29.4381 9.55754 29.651L6.55958 29.5404L3.56162 29.4298C3.51484 30.6976 4.01159 31.8205 4.84243 32.6513L6.96375 30.53ZM6.55958 29.5404L9.55755 29.651C9.55229 29.7935 9.52176 29.9608 9.45229 30.1326C9.38321 30.3034 9.29344 30.4348 9.21358 30.5253L6.96375 28.5408L4.71392 26.5563C4.01254 27.3515 3.60172 28.3423 3.56162 29.4299L6.55958 29.5404ZM6.96375 28.5408L9.10728 30.6397L11.0656 28.6397L8.92208 26.5408L6.77855 24.442L4.82022 26.442L6.96375 28.5408ZM8.92208 26.5408L11.0434 28.6622C11.5143 28.1913 11.9923 27.8826 12.48 27.6879L11.3679 24.9017L10.2558 22.1154C8.95356 22.6352 7.80101 23.4193 6.80076 24.4195L8.92208 26.5408ZM11.3679 24.9017L12.4803 27.6878C13.0315 27.4678 13.5703 27.3658 14.115 27.3658V24.3658V21.3658C12.7864 21.3658 11.4938 21.6211 10.2555 22.1155L11.3679 24.9017ZM14.115 24.3658V27.3658C14.6658 27.3658 15.22 27.4692 15.7949 27.6965L16.8979 24.9067L18.0009 22.1168C16.7519 21.623 15.4509 21.3658 14.115 21.3658V24.3658ZM16.8979 24.9067L15.7952 27.6966C16.3092 27.8998 16.7943 28.2124 17.2579 28.6718L19.3696 26.5408L21.4812 24.4099C20.4737 23.4115 19.3111 22.6346 18.0007 22.1167L16.8979 24.9067ZM19.3696 26.5408L17.2483 28.6622L20.3733 31.7872L22.4946 29.6658L24.6159 27.5445L21.4909 24.4195L19.3696 26.5408ZM22.4946 29.6658L20.3733 31.7872C21.0985 32.5124 21.9457 33.0902 22.9104 33.4774L24.0279 30.6933L25.1454 27.9092C24.9835 27.8442 24.8084 27.737 24.6159 27.5445L22.4946 29.6658ZM24.0279 30.6933L22.9109 33.4776C23.8326 33.8474 24.8 34.0325 25.7917 34.0325V31.0325V28.0325C25.5589 28.0325 25.3504 27.9915 25.1449 27.909L24.0279 30.6933ZM25.7917 31.0325V34.0325C26.7834 34.0325 27.7531 33.8473 28.6758 33.4678L27.5346 30.6933L26.3934 27.9189C26.2166 27.9916 26.0244 28.0325 25.7917 28.0325V31.0325ZM27.5346 30.6933L28.6763 33.4676C29.6247 33.0773 30.4553 32.5002 31.1684 31.7872L29.0471 29.6658L26.9258 27.5445C26.7211 27.7492 26.5433 27.8572 26.3929 27.9191L27.5346 30.6933ZM29.0471 29.6658L31.1738 31.7817L33.1222 29.8234L30.9954 27.7075L28.8687 25.5916L26.9203 27.5499L29.0471 29.6658ZM30.9954 27.7075L33.1167 29.8288C33.0065 29.939 32.8296 30.0752 32.5824 30.1752C32.3321 30.2764 32.088 30.3087 31.8863 30.3014L31.995 27.3033L32.1037 24.3053C30.8462 24.2597 29.7166 24.7437 28.8741 25.5862L30.9954 27.7075ZM31.995 27.3033L31.8863 30.3014C31.7134 30.2951 31.5123 30.2552 31.3102 30.165C31.1103 30.0759 30.9655 29.9627 30.8733 29.8705L32.9946 27.7492L35.1159 25.6278C34.3233 24.8353 33.2813 24.348 32.1037 24.3053L31.995 27.3033ZM32.9946 27.7492L30.8497 29.8467C30.7591 29.754 30.6416 29.6019 30.5504 29.3865C30.4578 29.1675 30.4196 28.9469 30.4196 28.7537H33.4196H36.4196C36.4196 27.534 35.9307 26.4608 35.1394 25.6516L32.9946 27.7492ZM33.4196 28.7537H30.4196C30.4196 28.5606 30.4578 28.3301 30.559 28.0958C30.659 27.864 30.7908 27.6973 30.8987 27.5919L32.9946 29.7383L35.0905 31.8848C35.9242 31.0707 36.4196 29.9795 36.4196 28.7537H33.4196ZM32.9946 29.7383L30.8733 27.617L28.9149 29.5753L31.0363 31.6967L33.1576 33.818L35.1159 31.8597L32.9946 29.7383Z" fill="var(--stroke-0, #2DA2DB)" mask="url(#path-1-inside-1_0_56)"/>
</g>
</g>
</svg>
