<svg preserveAspectRatio="none" width="100%" height="100%" overflow="visible" style="display: block;" viewBox="0 0 48 48" fill="none" xmlns="http://www.w3.org/2000/svg">
<g id="cloud-fog">
<path id="Vector" d="M8.00019 29.798C6.51427 28.2799 5.39333 26.4435 4.72226 24.4279C4.05119 22.4124 3.8476 20.2705 4.12691 18.1646C4.40622 16.0588 5.1611 14.044 6.33438 12.2731C7.50766 10.5022 9.06856 9.02147 10.8989 7.94314C12.7292 6.86482 14.7808 6.21715 16.8985 6.0492C19.0162 5.88124 21.1443 6.19742 23.1217 6.97376C25.0991 7.7501 26.8739 8.96626 28.3117 10.5301C29.7494 12.094 30.8124 13.9645 31.4202 16H35.0002C36.9312 15.9998 38.8111 16.6207 40.3622 17.7709C41.9132 18.9212 43.0532 20.5398 43.6137 22.3877C44.1742 24.2355 44.1255 26.2147 43.4748 28.0328C42.8241 29.8509 41.6059 31.4115 40.0002 32.484M32 34H14M34 42H18" stroke="var(--stroke-0, #2DA2DB)" stroke-width="3" stroke-linecap="round" stroke-linejoin="round"/>
</g>
</svg>
