<svg preserveAspectRatio="none" width="100%" height="100%" overflow="visible" style="display: block;" viewBox="0 0 40 40" fill="none" xmlns="http://www.w3.org/2000/svg">
<g id="gas_meter">
<path id="Vector" d="M13.2537 36.9158C11.3704 36.9158 9.76014 36.2474 8.42292 34.9104C7.08597 33.5732 6.4175 31.9629 6.4175 30.0796V13.3433C6.4175 11.4572 7.08597 9.84472 8.42292 8.50583C9.76014 7.16667 11.3704 6.49708 13.2537 6.49708H15.1179V4.50375C15.1179 4.09681 15.2525 3.7568 15.5217 3.48375C15.7911 3.21069 16.1293 3.07417 16.5362 3.07417C16.9432 3.07417 17.2833 3.21069 17.5567 3.48375C17.83 3.7568 17.9667 4.09681 17.9667 4.50375V6.49708H22.0433V4.50375C22.0433 4.09681 22.1781 3.7568 22.4475 3.48375C22.7167 3.21069 23.0551 3.07417 23.4629 3.07417C23.8704 3.07417 24.2089 3.21069 24.4783 3.48375C24.7475 3.7568 24.8821 4.09681 24.8821 4.50375V6.49708H26.7462C28.6262 6.49708 30.2356 7.16667 31.5742 8.50583C32.9131 9.84472 33.5825 11.4572 33.5825 13.3433V30.0796C33.5825 31.9629 32.9131 33.5732 31.5742 34.9104C30.2356 36.2474 28.6262 36.9158 26.7462 36.9158H13.2537ZM13.2537 34.0771H26.7462C27.8601 34.0771 28.8032 33.69 29.5754 32.9158C30.3476 32.1417 30.7337 31.1962 30.7337 30.0796V13.3433C30.7337 12.2267 30.3476 11.2812 29.5754 10.5071C28.8032 9.73292 27.8601 9.34583 26.7462 9.34583H13.2537C12.1371 9.34583 11.1917 9.73292 10.4175 10.5071C9.64333 11.2812 9.25625 12.2267 9.25625 13.3433V30.0796C9.25625 31.1962 9.64333 32.1417 10.4175 32.9158C11.1917 33.69 12.1371 34.0771 13.2537 34.0771ZM14.6929 16.2021H25.2971C25.7046 16.2021 26.0431 16.0674 26.3125 15.7979C26.5819 15.5287 26.7167 15.1903 26.7167 14.7825C26.7167 14.375 26.5819 14.0365 26.3125 13.7671C26.0431 13.4979 25.7046 13.3633 25.2971 13.3633H14.6929C14.2854 13.3633 13.9469 13.4979 13.6775 13.7671C13.4083 14.0365 13.2737 14.375 13.2737 14.7825C13.2737 15.1903 13.4083 15.5287 13.6775 15.7979C13.9469 16.0674 14.2854 16.2021 14.6929 16.2021ZM20 29.0379C20.9167 29.0379 21.7014 28.7132 22.3542 28.0637C23.0069 27.4143 23.3333 26.6435 23.3333 25.7512C23.3333 25.3887 23.2917 25.0682 23.2083 24.7896C23.125 24.5107 22.9583 24.2046 22.7083 23.8712L20.8079 21.6575C20.5885 21.4022 20.3196 21.2746 20.0013 21.2746C19.6829 21.2746 19.4132 21.4022 19.1921 21.6575L17.2917 23.8712C17.0417 24.2074 16.875 24.5083 16.7917 24.7742C16.7083 25.04 16.6667 25.364 16.6667 25.7462C16.6667 26.6418 16.9931 27.4143 17.6458 28.0637C18.2986 28.7132 19.0833 29.0379 20 29.0379Z" fill="var(--fill-0, #2DA2DB)"/>
</g>
</svg>
