<svg preserveAspectRatio="none" width="100%" height="100%" overflow="visible" style="display: block;" viewBox="0 0 48 48" fill="none" xmlns="http://www.w3.org/2000/svg">
<g id="lightbulb_2">
<path id="Vector" d="M19.8143 42.4048H28.2362C28.3041 42.4048 28.332 42.4156 28.3367 42.4175C28.341 42.4192 28.3561 42.4259 28.3846 42.4546C28.4143 42.4847 28.4219 42.5015 28.4246 42.5083C28.4281 42.517 28.4393 42.5487 28.4393 42.6197C28.4393 42.6915 28.4279 42.7185 28.4276 42.7193C28.4269 42.721 28.4254 42.7226 28.4237 42.7251C28.4215 42.7282 28.4161 42.7359 28.4041 42.7476C28.377 42.7739 28.3611 42.7807 28.3533 42.7837C28.3435 42.7875 28.3099 42.7993 28.2362 42.7994H19.8143C19.7452 42.7994 19.7188 42.7875 19.7166 42.7867C19.7141 42.7856 19.7111 42.7846 19.7069 42.7818C19.7024 42.7787 19.6928 42.771 19.6785 42.7564H19.6776C19.6491 42.7273 19.6418 42.7101 19.6385 42.7017C19.6345 42.6916 19.6229 42.6575 19.6229 42.5835C19.6229 42.5092 19.6345 42.4797 19.6356 42.4771C19.6366 42.4746 19.6378 42.4728 19.6395 42.4703C19.6414 42.4674 19.6472 42.4605 19.659 42.4488C19.6822 42.4259 19.6941 42.4214 19.699 42.4195C19.7064 42.4166 19.7392 42.4048 19.8143 42.4048ZM29.7684 34.357C29.4269 34.6351 29.0533 34.7632 28.5946 34.7632H19.4178C18.9445 34.7632 18.5665 34.6326 18.2283 34.357H29.7684ZM17.4989 29.0503L16.8465 28.604C15.0514 27.3751 13.6696 25.8209 12.6834 23.9283C11.6938 22.0292 11.2011 20.0136 11.201 17.8619C11.201 14.3171 12.4368 11.3541 14.9373 8.88529C17.4405 6.41398 20.4381 5.18902 24.0174 5.189C27.5918 5.189 30.5838 6.42395 33.0799 8.91947C35.5749 11.4137 36.8113 14.4117 36.8114 18.0025C36.8114 20.1551 36.3143 22.1512 35.3201 24.0132C34.3253 25.8765 32.946 27.3996 31.1649 28.5962L30.5008 29.0425V32.8443C30.5008 33.3281 30.3655 33.7136 30.075 34.0581L29.9412 34.2027C29.9098 34.234 29.8765 34.262 29.8446 34.2906V29.1831C29.8446 29.1625 29.8454 29.1477 29.8465 29.1382H29.8455C29.8758 29.0906 29.9273 29.0257 30.0164 28.9478L31.1053 28.1958L31.1073 28.1949C32.7777 27.0346 34.085 25.5445 35.0135 23.7417C35.9395 21.9444 36.4041 20.0207 36.4041 17.9908C36.4041 14.5639 35.1955 11.6053 32.7977 9.2056C30.3986 6.80443 27.4353 5.59525 23.9998 5.59525C20.5601 5.59529 17.5952 6.81663 15.1971 9.23783C12.8039 11.6541 11.5956 14.618 11.5955 18.0425C11.5955 20.076 12.0601 21.9968 12.9891 23.7828C13.9185 25.5705 15.2286 27.0463 16.9012 28.1978V28.1988L17.9862 28.9517C18.072 29.0274 18.1216 29.0906 18.1512 29.1382C18.1524 29.1461 18.1551 29.1605 18.1551 29.1831V34.2935C18.1228 34.2646 18.0891 34.2363 18.0574 34.2046C17.6759 33.8231 17.4989 33.3983 17.4989 32.8443V29.0503Z" stroke="var(--stroke-0, #2DA2DB)" stroke-width="3"/>
</g>
</svg>
