<svg preserveAspectRatio="none" width="100%" height="100%" overflow="visible" style="display: block;" viewBox="0 0 40 40" fill="none" xmlns="http://www.w3.org/2000/svg">
<g id="snowing">
<path id="Vector" d="M14.7917 30.1501C14.8833 30.1501 14.9243 30.1644 14.9577 30.1901L14.9899 30.2194C15.0335 30.2632 15.0583 30.2958 15.0583 30.4167C15.0583 30.5361 15.0341 30.5687 14.989 30.614C14.9534 30.6496 14.9305 30.6599 14.9186 30.6647C14.9056 30.67 14.8691 30.6833 14.7917 30.6833C14.7161 30.6833 14.68 30.6711 14.6667 30.6657C14.6549 30.6609 14.6316 30.6502 14.5954 30.614L14.5944 30.613L14.5573 30.5681C14.5495 30.5564 14.5451 30.5476 14.5427 30.5417C14.5373 30.5284 14.5251 30.4924 14.5251 30.4167C14.5251 30.3393 14.5384 30.3028 14.5436 30.2897C14.5485 30.2779 14.5588 30.255 14.5944 30.2194C14.6396 30.1743 14.6723 30.1501 14.7917 30.1501ZM25.2087 30.1501C25.2997 30.1501 25.3404 30.1646 25.3737 30.1901L25.4069 30.2194C25.4504 30.2631 25.4743 30.296 25.4743 30.4167C25.4743 30.5363 25.4502 30.5686 25.405 30.614C25.3697 30.6492 25.3476 30.6599 25.3356 30.6647C25.3226 30.67 25.2859 30.6833 25.2087 30.6833C25.1322 30.6833 25.0957 30.671 25.0827 30.6657C25.0709 30.6609 25.0484 30.6499 25.0124 30.614L25.0114 30.613L24.9733 30.5681C24.9656 30.5565 24.962 30.5475 24.9597 30.5417C24.9544 30.5285 24.9421 30.4926 24.9421 30.4167C24.9421 30.3394 24.9544 30.3029 24.9597 30.2897C24.9644 30.2779 24.9756 30.2552 25.0114 30.2194C25.0566 30.1744 25.0894 30.1501 25.2087 30.1501ZM9.58368 23.1501C9.67467 23.1501 9.71538 23.1646 9.74872 23.1901L9.78193 23.2194C9.82541 23.2631 9.84931 23.296 9.84931 23.4167C9.84931 23.5363 9.82524 23.5686 9.77997 23.614C9.74473 23.6492 9.72257 23.6599 9.71064 23.6647C9.69758 23.67 9.66088 23.6833 9.58368 23.6833C9.50724 23.6833 9.47066 23.671 9.45771 23.6657C9.44591 23.6609 9.42338 23.6499 9.3874 23.614L9.38642 23.613L9.34833 23.5681C9.34063 23.5565 9.33703 23.5475 9.33466 23.5417C9.32936 23.5285 9.31709 23.4926 9.31708 23.4167C9.31708 23.3394 9.32935 23.3029 9.33466 23.2897C9.33945 23.2779 9.35063 23.2552 9.38642 23.2194C9.43155 23.1744 9.46441 23.1501 9.58368 23.1501ZM19.9997 23.1501C20.1214 23.1501 20.1538 23.1753 20.1979 23.2194C20.2416 23.2632 20.2663 23.2957 20.2663 23.4167C20.2663 23.5362 20.2422 23.5687 20.197 23.614C20.1612 23.6498 20.1385 23.66 20.1267 23.6647C20.1135 23.6701 20.0769 23.6833 19.9997 23.6833C19.9238 23.6833 19.8878 23.671 19.8747 23.6657C19.863 23.661 19.8404 23.6499 19.8044 23.614L19.8034 23.613L19.7653 23.5681C19.7576 23.5565 19.754 23.5476 19.7517 23.5417C19.7464 23.5286 19.7341 23.4928 19.7341 23.4167C19.7341 23.3393 19.7464 23.3028 19.7517 23.2897C19.7564 23.2779 19.7667 23.2551 19.8024 23.2194C19.8477 23.1742 19.8804 23.1501 19.9997 23.1501ZM30.4167 23.1501C30.5083 23.1501 30.5493 23.1644 30.5827 23.1901L30.6149 23.2194C30.6585 23.2632 30.6833 23.2958 30.6833 23.4167C30.6833 23.5361 30.6591 23.5687 30.614 23.614C30.5784 23.6496 30.5555 23.6599 30.5436 23.6647C30.5306 23.67 30.4941 23.6833 30.4167 23.6833C30.3411 23.6833 30.305 23.6711 30.2917 23.6657C30.2799 23.6609 30.2566 23.6502 30.2204 23.614L30.2194 23.613L30.1823 23.5681C30.1745 23.5564 30.1701 23.5476 30.1677 23.5417C30.1623 23.5284 30.1501 23.4924 30.1501 23.4167C30.1501 23.3393 30.1634 23.3028 30.1686 23.2897C30.1735 23.2779 30.1838 23.255 30.2194 23.2194C30.2646 23.1743 30.2973 23.1501 30.4167 23.1501ZM14.7917 16.3171C14.8834 16.3171 14.9242 16.3313 14.9577 16.3571L14.9899 16.3864C15.0334 16.4301 15.0583 16.463 15.0583 16.5837C15.0582 16.703 15.0341 16.7357 14.989 16.7809C14.9533 16.8167 14.9305 16.8269 14.9186 16.8317C14.9056 16.837 14.8691 16.8493 14.7917 16.8493C14.7156 16.8493 14.6798 16.837 14.6667 16.8317C14.6549 16.827 14.6317 16.8163 14.5954 16.78L14.5944 16.779C14.5584 16.7429 14.5474 16.7204 14.5427 16.7087C14.5374 16.6957 14.5251 16.6597 14.5251 16.5837C14.5251 16.5065 14.5383 16.4699 14.5436 16.4567C14.5484 16.4449 14.5586 16.4222 14.5944 16.3864C14.6397 16.3412 14.6721 16.3171 14.7917 16.3171ZM25.2087 16.3171C25.2998 16.3171 25.3404 16.3315 25.3737 16.3571L25.4069 16.3864C25.4503 16.43 25.4743 16.4631 25.4743 16.5837C25.4743 16.703 25.4502 16.7356 25.405 16.7809C25.3697 16.8162 25.3475 16.8269 25.3356 16.8317C25.3226 16.837 25.2859 16.8493 25.2087 16.8493C25.1322 16.8493 25.0957 16.837 25.0827 16.8317C25.0708 16.8269 25.0483 16.8159 25.0124 16.78L25.0114 16.779C24.9753 16.7429 24.9644 16.7205 24.9597 16.7087C24.9544 16.6957 24.9421 16.6599 24.9421 16.5837C24.9421 16.5069 24.9543 16.4701 24.9597 16.4567C24.9644 16.4449 24.9756 16.4222 25.0114 16.3864C25.0566 16.3413 25.0893 16.3171 25.2087 16.3171ZM9.58368 9.31708C9.67482 9.31712 9.71536 9.3315 9.74872 9.35712L9.78193 9.38642C9.82531 9.42998 9.84931 9.4631 9.84931 9.58368C9.84926 9.70303 9.8252 9.73565 9.77997 9.78095C9.74472 9.81621 9.72253 9.82689 9.71064 9.83173C9.69758 9.83701 9.66088 9.84927 9.58368 9.84931C9.50725 9.84931 9.47066 9.83698 9.45771 9.83173C9.44582 9.82688 9.42329 9.8159 9.3874 9.77997L9.38642 9.779C9.35031 9.74287 9.33944 9.72046 9.33466 9.70868C9.32942 9.69575 9.31712 9.65988 9.31708 9.58368C9.31708 9.50695 9.32929 9.47011 9.33466 9.45673C9.33945 9.4449 9.35063 9.42215 9.38642 9.38642C9.43164 9.3413 9.46426 9.31708 9.58368 9.31708ZM19.9997 9.31708C20.0913 9.31708 20.1323 9.33137 20.1657 9.35712L20.1979 9.38642C20.2415 9.43015 20.2663 9.4628 20.2663 9.58368C20.2663 9.70303 20.2422 9.73565 20.197 9.78095C20.1613 9.81668 20.1385 9.82695 20.1267 9.83173C20.1134 9.83707 20.0767 9.84931 19.9997 9.84931C19.9235 9.84928 19.8876 9.83697 19.8747 9.83173C19.8629 9.82694 19.8405 9.81612 19.8044 9.77997L19.8034 9.779L19.7653 9.73505C19.7575 9.72342 19.7541 9.7146 19.7517 9.70868C19.7464 9.69575 19.7341 9.65988 19.7341 9.58368C19.7341 9.50674 19.7463 9.47002 19.7517 9.45673C19.7564 9.44491 19.7667 9.42211 19.8024 9.38642C19.8477 9.34119 19.8803 9.31712 19.9997 9.31708ZM30.4167 9.31708C30.5084 9.31708 30.5492 9.33127 30.5827 9.35712L30.6149 9.38642C30.6584 9.43006 30.6833 9.46295 30.6833 9.58368C30.6832 9.70296 30.6591 9.73569 30.614 9.78095C30.5783 9.81669 30.5555 9.82693 30.5436 9.83173C30.5306 9.83702 30.4941 9.84931 30.4167 9.84931C30.3406 9.84931 30.3048 9.83702 30.2917 9.83173C30.2799 9.82695 30.2567 9.81627 30.2204 9.77997L30.2194 9.779C30.1834 9.74294 30.1724 9.72044 30.1677 9.70868C30.1624 9.69568 30.1501 9.65972 30.1501 9.58368C30.1501 9.50651 30.1633 9.46992 30.1686 9.45673C30.1734 9.4449 30.1836 9.42215 30.2194 9.38642C30.2647 9.3412 30.2971 9.31708 30.4167 9.31708Z" fill="var(--fill-0, #2DA2DB)" stroke="var(--stroke-0, #2DA2DB)" stroke-width="3"/>
</g>
</svg>
