<svg preserveAspectRatio="none" width="100%" height="100%" overflow="visible" style="display: block;" viewBox="0 0 40 40" fill="none" xmlns="http://www.w3.org/2000/svg">
<g id="air-vent">
<path id="Vector" d="M30 29.1667C30.5664 29.5916 31.0152 30.1538 31.304 30.8003C31.5928 31.4469 31.7121 32.1563 31.6506 32.8617C31.5891 33.5672 31.3488 34.2453 30.9525 34.832C30.5561 35.4188 30.0168 35.8949 29.3853 36.2153C28.7539 36.5358 28.0512 36.69 27.3436 36.6635C26.636 36.637 25.9469 36.4306 25.3412 36.0638C24.7355 35.6969 24.2333 35.1818 23.882 34.567C23.5307 33.9522 23.3419 33.258 23.3333 32.55V20M10 20H6.66667C5.78261 20 4.93477 19.6488 4.30964 19.0237C3.68452 18.3986 3.33333 17.5507 3.33333 16.6667V8.33333C3.33333 7.44928 3.68452 6.60143 4.30964 5.97631C4.93477 5.35119 5.78261 5 6.66667 5H33.3333C34.2174 5 35.0652 5.35119 35.6904 5.97631C36.3155 6.60143 36.6667 7.44928 36.6667 8.33333V16.6667C36.6667 17.5507 36.3155 18.3986 35.6904 19.0237C35.0652 19.6488 34.2174 20 33.3333 20H30M10 13.3333H30M11 25.9533C10.6075 26.3381 10.3162 26.8139 10.1521 27.3384C9.98798 27.8629 9.95609 28.4199 10.0593 28.9597C10.1625 29.4995 10.3976 30.0054 10.7436 30.4324C11.0896 30.8594 11.5358 31.1943 12.0426 31.4071C12.5493 31.6199 13.1008 31.7041 13.6479 31.6523C14.1951 31.6004 14.7209 31.414 15.1786 31.1098C15.6363 30.8055 16.0117 30.3928 16.2713 29.9084C16.5309 29.424 16.6667 28.8829 16.6667 28.3333V20" stroke="var(--stroke-0, #2DA2DB)" stroke-width="2" stroke-linecap="round" stroke-linejoin="round"/>
</g>
</svg>
