<svg preserveAspectRatio="none" width="100%" height="100%" overflow="visible" style="display: block;" viewBox="0 0 40 40" fill="none" xmlns="http://www.w3.org/2000/svg">
<g id="cloud-sun-rain">
<path id="Vector" d="M20 3.33333V6.66667M8.21655 8.21655L10.5666 10.5666M33.3333 20H36.6667M31.7832 8.21655L29.4332 10.5666M26.5783 21.0834C26.7834 19.8409 26.6324 18.5658 26.1428 17.4055C25.6531 16.2453 24.8449 15.2475 23.8116 14.5276C22.7784 13.8077 21.5623 13.3952 20.3043 13.3378C19.0463 13.2804 17.7978 13.5806 16.7033 14.2034M5.0001 33.3335C4.251 32.3337 3.73627 31.1783 3.49399 29.9527C3.25171 28.7272 3.28808 27.4628 3.60041 26.2532C3.91274 25.0436 4.49304 23.9197 5.29837 22.9646C6.10371 22.0095 7.11347 21.2478 8.25295 20.7356C9.39244 20.2235 10.6325 19.9741 11.8814 20.006C13.1302 20.0378 14.356 20.35 15.4679 20.9195C16.5798 21.489 17.5495 22.3012 18.3052 23.296C19.0608 24.2909 19.5831 25.4429 19.8334 26.6668H21.6668C22.6809 26.6653 23.6714 26.9722 24.507 27.5468C25.3427 28.1214 25.9838 28.9364 26.3454 29.8839C26.707 30.8313 26.772 31.8663 26.5317 32.8515C26.2915 33.8367 25.7573 34.7256 25.0001 35.4001M18.3333 33.3333V36.6667M11.6667 31.6667V35" stroke="var(--stroke-0, #2DA2DB)" stroke-width="2" stroke-linecap="round" stroke-linejoin="round"/>
</g>
</svg>
