<svg preserveAspectRatio="none" width="100%" height="100%" overflow="visible" style="display: block;" viewBox="0 0 40 40" fill="none" xmlns="http://www.w3.org/2000/svg">
<g id="masks">
<path id="Vector" d="M20 30.4083C18.9325 30.4083 17.9099 30.2576 16.9321 29.9563C15.9543 29.6546 15.0322 29.2193 14.1658 28.6504C12.9247 28.5604 11.6351 28.2901 10.2971 27.8396C8.95903 27.389 7.73 26.6508 6.61 25.625C5.49028 24.5992 4.56458 23.2454 3.83292 21.5638C3.10125 19.8824 2.73542 17.7868 2.73542 15.2771V13.5904C2.73542 12.4685 3.12847 11.5215 3.91458 10.7496C4.70042 9.97764 5.64375 9.59167 6.74458 9.59167C7.75653 9.59167 8.64028 9.97681 9.39583 10.7471C10.1514 11.5176 10.5874 12.4718 10.7038 13.6096C11.5726 13.3807 12.3579 13.129 13.0596 12.8546C13.7615 12.5801 14.3592 12.304 14.8525 12.0263C15.7122 11.5474 16.5304 11.164 17.3071 10.8763C18.0837 10.5885 18.9814 10.4446 20 10.4446C21.0119 10.4446 21.9079 10.5901 22.6879 10.8813C23.4679 11.1724 24.2878 11.5574 25.1475 12.0362C25.6408 12.3074 26.2385 12.5801 26.9404 12.8546C27.6421 13.129 28.4274 13.3807 29.2962 13.6096C29.4126 12.444 29.8486 11.4829 30.6042 10.7262C31.3597 9.96986 32.2468 9.59167 33.2654 9.59167C34.3807 9.59167 35.3261 9.97764 36.1017 10.7496C36.8769 11.5215 37.2646 12.4685 37.2646 13.5904V15.2771C37.2646 17.7868 36.8987 19.8824 36.1671 21.5638C35.4354 23.2454 34.5097 24.5992 33.39 25.625C32.27 26.6508 31.041 27.389 29.7029 27.8396C28.3649 28.2901 27.0753 28.5604 25.8342 28.6504C24.9678 29.2193 24.0457 29.6546 23.0679 29.9563C22.0901 30.2576 21.0675 30.4083 20 30.4083ZM11.1521 25.6696C10.4829 24.8271 9.91333 23.8404 9.44333 22.7096C8.97333 21.579 8.73833 20.3914 8.73833 19.1467V13.5904C8.73833 13.0337 8.54528 12.5624 8.15917 12.1762C7.77278 11.7901 7.30125 11.5971 6.74458 11.5971C6.20903 11.5971 5.74278 11.7901 5.34583 12.1762C4.94917 12.5624 4.75083 13.0337 4.75083 13.5904V15.2771C4.75083 18.794 5.49014 21.3533 6.96875 22.955C8.44736 24.5569 9.8418 25.4618 11.1521 25.6696ZM20 28.4029C22.4644 28.4029 24.6232 27.4694 26.4762 25.6025C28.3296 23.7353 29.2562 21.5833 29.2562 19.1467V15.6767C28.194 15.4478 27.2204 15.1633 26.3354 14.8233C25.4507 14.4833 24.7272 14.1433 24.165 13.8033C23.3461 13.3244 22.6156 12.9792 21.9733 12.7675C21.3311 12.5558 20.6733 12.45 20 12.45C19.3267 12.45 18.6689 12.5558 18.0267 12.7675C17.3844 12.9792 16.6539 13.3244 15.835 13.8033C15.2728 14.1433 14.551 14.485 13.6696 14.8283C12.7879 15.1717 11.8126 15.4544 10.7437 15.6767V19.1467C10.7437 21.5833 11.6757 23.7353 13.5396 25.6025C15.4032 27.4694 17.5567 28.4029 20 28.4029ZM20 16.3196C20.43 16.3196 20.8097 16.3976 21.1392 16.5537C21.4686 16.7099 21.831 16.9024 22.2262 17.1313C22.4485 17.2701 22.6793 17.4107 22.9187 17.5529C23.1582 17.6951 23.4307 17.8357 23.7362 17.9746C23.944 18.0646 24.1432 18.0699 24.3337 17.9904C24.5243 17.911 24.6751 17.7846 24.7862 17.6112C24.8696 17.4526 24.8749 17.285 24.8021 17.1083C24.7293 16.9317 24.6029 16.8089 24.4229 16.74C24.1729 16.6289 23.9421 16.5178 23.7304 16.4067C23.5187 16.2956 23.3018 16.1672 23.0796 16.0217C22.6285 15.7439 22.1672 15.4958 21.6958 15.2775C21.2242 15.0592 20.6589 14.95 20 14.95C19.3411 14.95 18.7758 15.0592 18.3042 15.2775C17.8328 15.4958 17.3576 15.7439 16.8787 16.0217C16.6565 16.1672 16.4412 16.2956 16.2329 16.4067C16.0246 16.5178 15.7954 16.6289 15.5454 16.74C15.3587 16.83 15.236 16.9581 15.1771 17.1242C15.1182 17.2903 15.1304 17.4526 15.2137 17.6112C15.3249 17.7912 15.4757 17.9124 15.6662 17.9746C15.8568 18.0368 16.056 18.0229 16.2637 17.9329C16.5693 17.794 16.8418 17.6604 17.0812 17.5321C17.3207 17.4038 17.5515 17.2701 17.7737 17.1313C18.1757 16.9024 18.5397 16.7099 18.8658 16.5537C19.1919 16.3976 19.57 16.3196 20 16.3196ZM28.8479 25.6696C30.1582 25.4618 31.5543 24.5569 33.0362 22.955C34.5182 21.3533 35.2592 18.794 35.2592 15.2771V13.5904C35.2592 13.0337 35.0661 12.5624 34.68 12.1762C34.2936 11.7901 33.8221 11.5971 33.2654 11.5971C32.7299 11.5971 32.2636 11.7901 31.8667 12.1762C31.47 12.5624 31.2717 13.0337 31.2717 13.5904V19.1467C31.2717 20.3914 31.0558 21.5774 30.6242 22.7046C30.1925 23.8321 29.6004 24.8204 28.8479 25.6696Z" fill="var(--fill-0, #2DA2DB)"/>
</g>
</svg>
