<svg preserveAspectRatio="none" width="100%" height="100%" overflow="visible" style="display: block;" viewBox="0 0 40 40" fill="none" xmlns="http://www.w3.org/2000/svg">
<g id="mode_fan_off">
<g id="Vector">
<mask id="path-1-inside-1_0_95" fill="white">
<path d="M26.9554 7.10958C26.9554 7.91542 26.7822 8.6818 26.4358 9.40875C26.0892 10.1357 25.5797 10.7274 24.9075 11.1837C24.0228 11.7962 23.4056 12.4169 23.0558 13.0458C22.7058 13.6747 22.3681 14.4792 22.0425 15.4592C21.8639 15.9581 21.5221 16.2458 21.0171 16.3225C20.5124 16.3992 20.0924 16.251 19.7571 15.8779C19.5671 15.6779 19.4529 15.4399 19.4146 15.1637C19.3762 14.8879 19.3947 14.6083 19.47 14.325C19.7208 13.1861 20.2029 12.1269 20.9162 11.1475C21.6296 10.1681 22.4618 9.36222 23.4129 8.73C23.6854 8.55556 23.8725 8.32556 23.9742 8.04C24.0758 7.75417 24.1267 7.44736 24.1267 7.11958C24.12 6.68347 23.9458 6.32014 23.6042 6.02958C23.2625 5.73931 22.8582 5.59417 22.3912 5.59417C20.9626 5.59417 19.6144 5.85444 18.3467 6.375C17.0786 6.89555 16.2575 7.82042 15.8833 9.14958C15.7044 9.62181 15.3961 9.93625 14.9583 10.0929C14.5206 10.2496 14.1085 10.144 13.7221 9.77625C13.4887 9.58292 13.3378 9.32639 13.2692 9.00666C13.2003 8.68694 13.2168 8.37889 13.3187 8.0825C13.9474 6.06917 15.1275 4.67639 16.8592 3.90417C18.5908 3.13167 20.4111 2.74542 22.32 2.74542C23.5553 2.74542 24.6367 3.16125 25.5642 3.99292C26.4917 4.82431 26.9554 5.86319 26.9554 7.10958ZM30.2267 13.0246C32.4047 13.0246 34.1206 13.9465 35.3742 15.7904C36.6278 17.6343 37.2546 19.7587 37.2546 22.1637C37.2546 23.4876 36.8644 24.5996 36.0842 25.4996C35.3042 26.3996 34.3201 26.855 33.1321 26.8658L31.7583 26.8442C31.5572 26.8775 31.3653 26.8743 31.1825 26.8346C30.9997 26.7951 30.8024 26.7093 30.5904 26.5771C30.1218 26.1949 29.9549 25.7206 30.0896 25.1542C30.2243 24.5875 30.5589 24.271 31.0933 24.2046L32.6442 24.2067C33.1572 24.1944 33.5842 23.9868 33.925 23.5837C34.2656 23.1804 34.4358 22.7039 34.4358 22.1542C34.4358 20.5561 34.0819 19.1237 33.3742 17.8571C32.6664 16.5901 31.5979 15.9289 30.1687 15.8733C29.909 15.8733 29.6504 15.8925 29.3929 15.9308C29.1357 15.9692 28.8787 16.0472 28.6221 16.165L23.6883 18.3133C23.3822 18.4378 23.0778 18.4844 22.775 18.4533C22.4722 18.4222 22.2069 18.2924 21.9792 18.0637C21.5994 17.6637 21.5097 17.2203 21.71 16.7333C21.9106 16.2464 22.2351 15.9096 22.6837 15.7229L27.4096 13.5862C27.846 13.3851 28.301 13.2412 28.7746 13.1546C29.2482 13.0679 29.7322 13.0246 30.2267 13.0246ZM17.6071 37.2446C16.1371 37.2446 15.0058 36.8043 14.2133 35.9237C13.4208 35.0435 13.0246 34.0078 13.0246 32.8167C13.0246 32.0494 13.1958 31.3106 13.5383 30.6C13.8811 29.8897 14.3992 29.3024 15.0925 28.8379C15.6831 28.4607 16.1799 27.9544 16.5829 27.3192C16.986 26.6836 17.2881 25.7997 17.4892 24.6675C17.4814 24.6253 17.476 24.6075 17.4729 24.6142C17.4699 24.6208 17.4703 24.6308 17.4742 24.6442L12.5904 26.3625C12.0785 26.5489 11.5908 26.6976 11.1275 26.8087C10.6639 26.9199 10.1967 26.9754 9.72583 26.9754C7.83972 26.9754 6.20653 26.1651 4.82625 24.5446C3.44569 22.9237 2.75542 20.6125 2.75542 17.6108C2.75542 16.145 3.19403 15.0142 4.07125 14.2183C4.94819 13.4225 5.96389 13.0246 7.11833 13.0246C7.74222 13.0246 8.36889 13.0993 8.99833 13.2487C9.62806 13.3982 10.1512 13.709 10.5679 14.1812L3.51917 7.13208C3.25583 6.87375 3.12417 6.56472 3.12417 6.205C3.12417 5.84555 3.25681 5.53417 3.52208 5.27083C3.78486 5.0075 4.0968 4.87583 4.45792 4.87583C4.81903 4.87583 5.12986 5.0075 5.39042 5.27083L34.7692 34.6496C35.0258 34.9104 35.1542 35.2147 35.1542 35.5625C35.1542 35.9103 35.0247 36.2142 34.7658 36.4742C34.5069 36.7342 34.1975 36.8642 33.8375 36.8642C33.4772 36.8642 33.1672 36.7325 32.9075 36.4692L26.9654 30.5471C26.8279 32.3757 25.9624 33.949 24.3687 35.2671C22.7751 36.5854 20.5212 37.2446 17.6071 37.2446ZM9.71958 24.1267C10.116 24.1267 10.6719 24.0156 11.3875 23.7933L15.2962 22.3967C15.0874 22.0344 14.936 21.6706 14.8421 21.305C14.7482 20.9392 14.7047 20.6029 14.7117 20.2962C13.4347 20.054 12.2882 19.614 11.2721 18.9762C10.2562 18.3387 9.40889 17.5424 8.73 16.5871C8.60333 16.3412 8.38014 16.1608 8.06042 16.0458C7.74097 15.9308 7.43403 15.8733 7.13958 15.8733C6.63681 15.8733 6.25361 16.0108 5.99 16.2858C5.72611 16.5608 5.59417 17.0012 5.59417 17.6071C5.59417 19.3674 5.9525 20.894 6.66917 22.1871C7.38583 23.4801 8.40264 24.1267 9.71958 24.1267ZM17.6071 34.4058C19.5265 34.4058 21.0914 34.0083 22.3017 33.2133C23.5117 32.4183 24.12 31.3958 24.1267 30.1458C24.1267 29.6617 24.0474 29.1374 23.8887 28.5729C23.7299 28.0085 23.5015 27.4458 23.2037 26.885L20.5162 24.1321C20.3176 25.5276 19.9406 26.8532 19.385 28.1087C18.8294 29.364 17.92 30.4011 16.6567 31.22C16.4494 31.3486 16.2671 31.5721 16.1096 31.8904C15.9521 32.2087 15.8733 32.5304 15.8733 32.8554C15.8878 33.311 16.0481 33.6833 16.3542 33.9725C16.6603 34.2614 17.0779 34.4058 17.6071 34.4058Z"/>
</mask>
<path d="M26.9554 7.10958C26.9554 7.91542 26.7822 8.6818 26.4358 9.40875C26.0892 10.1357 25.5797 10.7274 24.9075 11.1837C24.0228 11.7962 23.4056 12.4169 23.0558 13.0458C22.7058 13.6747 22.3681 14.4792 22.0425 15.4592C21.8639 15.9581 21.5221 16.2458 21.0171 16.3225C20.5124 16.3992 20.0924 16.251 19.7571 15.8779C19.5671 15.6779 19.4529 15.4399 19.4146 15.1637C19.3762 14.8879 19.3947 14.6083 19.47 14.325C19.7208 13.1861 20.2029 12.1269 20.9162 11.1475C21.6296 10.1681 22.4618 9.36222 23.4129 8.73C23.6854 8.55556 23.8725 8.32556 23.9742 8.04C24.0758 7.75417 24.1267 7.44736 24.1267 7.11958C24.12 6.68347 23.9458 6.32014 23.6042 6.02958C23.2625 5.73931 22.8582 5.59417 22.3912 5.59417C20.9626 5.59417 19.6144 5.85444 18.3467 6.375C17.0786 6.89555 16.2575 7.82042 15.8833 9.14958C15.7044 9.62181 15.3961 9.93625 14.9583 10.0929C14.5206 10.2496 14.1085 10.144 13.7221 9.77625C13.4887 9.58292 13.3378 9.32639 13.2692 9.00666C13.2003 8.68694 13.2168 8.37889 13.3187 8.0825C13.9474 6.06917 15.1275 4.67639 16.8592 3.90417C18.5908 3.13167 20.4111 2.74542 22.32 2.74542C23.5553 2.74542 24.6367 3.16125 25.5642 3.99292C26.4917 4.82431 26.9554 5.86319 26.9554 7.10958ZM30.2267 13.0246C32.4047 13.0246 34.1206 13.9465 35.3742 15.7904C36.6278 17.6343 37.2546 19.7587 37.2546 22.1637C37.2546 23.4876 36.8644 24.5996 36.0842 25.4996C35.3042 26.3996 34.3201 26.855 33.1321 26.8658L31.7583 26.8442C31.5572 26.8775 31.3653 26.8743 31.1825 26.8346C30.9997 26.7951 30.8024 26.7093 30.5904 26.5771C30.1218 26.1949 29.9549 25.7206 30.0896 25.1542C30.2243 24.5875 30.5589 24.271 31.0933 24.2046L32.6442 24.2067C33.1572 24.1944 33.5842 23.9868 33.925 23.5837C34.2656 23.1804 34.4358 22.7039 34.4358 22.1542C34.4358 20.5561 34.0819 19.1237 33.3742 17.8571C32.6664 16.5901 31.5979 15.9289 30.1687 15.8733C29.909 15.8733 29.6504 15.8925 29.3929 15.9308C29.1357 15.9692 28.8787 16.0472 28.6221 16.165L23.6883 18.3133C23.3822 18.4378 23.0778 18.4844 22.775 18.4533C22.4722 18.4222 22.2069 18.2924 21.9792 18.0637C21.5994 17.6637 21.5097 17.2203 21.71 16.7333C21.9106 16.2464 22.2351 15.9096 22.6837 15.7229L27.4096 13.5862C27.846 13.3851 28.301 13.2412 28.7746 13.1546C29.2482 13.0679 29.7322 13.0246 30.2267 13.0246ZM17.6071 37.2446C16.1371 37.2446 15.0058 36.8043 14.2133 35.9237C13.4208 35.0435 13.0246 34.0078 13.0246 32.8167C13.0246 32.0494 13.1958 31.3106 13.5383 30.6C13.8811 29.8897 14.3992 29.3024 15.0925 28.8379C15.6831 28.4607 16.1799 27.9544 16.5829 27.3192C16.986 26.6836 17.2881 25.7997 17.4892 24.6675C17.4814 24.6253 17.476 24.6075 17.4729 24.6142C17.4699 24.6208 17.4703 24.6308 17.4742 24.6442L12.5904 26.3625C12.0785 26.5489 11.5908 26.6976 11.1275 26.8087C10.6639 26.9199 10.1967 26.9754 9.72583 26.9754C7.83972 26.9754 6.20653 26.1651 4.82625 24.5446C3.44569 22.9237 2.75542 20.6125 2.75542 17.6108C2.75542 16.145 3.19403 15.0142 4.07125 14.2183C4.94819 13.4225 5.96389 13.0246 7.11833 13.0246C7.74222 13.0246 8.36889 13.0993 8.99833 13.2487C9.62806 13.3982 10.1512 13.709 10.5679 14.1812L3.51917 7.13208C3.25583 6.87375 3.12417 6.56472 3.12417 6.205C3.12417 5.84555 3.25681 5.53417 3.52208 5.27083C3.78486 5.0075 4.0968 4.87583 4.45792 4.87583C4.81903 4.87583 5.12986 5.0075 5.39042 5.27083L34.7692 34.6496C35.0258 34.9104 35.1542 35.2147 35.1542 35.5625C35.1542 35.9103 35.0247 36.2142 34.7658 36.4742C34.5069 36.7342 34.1975 36.8642 33.8375 36.8642C33.4772 36.8642 33.1672 36.7325 32.9075 36.4692L26.9654 30.5471C26.8279 32.3757 25.9624 33.949 24.3687 35.2671C22.7751 36.5854 20.5212 37.2446 17.6071 37.2446ZM9.71958 24.1267C10.116 24.1267 10.6719 24.0156 11.3875 23.7933L15.2962 22.3967C15.0874 22.0344 14.936 21.6706 14.8421 21.305C14.7482 20.9392 14.7047 20.6029 14.7117 20.2962C13.4347 20.054 12.2882 19.614 11.2721 18.9762C10.2562 18.3387 9.40889 17.5424 8.73 16.5871C8.60333 16.3412 8.38014 16.1608 8.06042 16.0458C7.74097 15.9308 7.43403 15.8733 7.13958 15.8733C6.63681 15.8733 6.25361 16.0108 5.99 16.2858C5.72611 16.5608 5.59417 17.0012 5.59417 17.6071C5.59417 19.3674 5.9525 20.894 6.66917 22.1871C7.38583 23.4801 8.40264 24.1267 9.71958 24.1267ZM17.6071 34.4058C19.5265 34.4058 21.0914 34.0083 22.3017 33.2133C23.5117 32.4183 24.12 31.3958 24.1267 30.1458C24.1267 29.6617 24.0474 29.1374 23.8887 28.5729C23.7299 28.0085 23.5015 27.4458 23.2037 26.885L20.5162 24.1321C20.3176 25.5276 19.9406 26.8532 19.385 28.1087C18.8294 29.364 17.92 30.4011 16.6567 31.22C16.4494 31.3486 16.2671 31.5721 16.1096 31.8904C15.9521 32.2087 15.8733 32.5304 15.8733 32.8554C15.8878 33.311 16.0481 33.6833 16.3542 33.9725C16.6603 34.2614 17.0779 34.4058 17.6071 34.4058Z" stroke="var(--stroke-0, #F4813E)" stroke-width="6" mask="url(#path-1-inside-1_0_95)"/>
</g>
</g>
</svg>
