<svg preserveAspectRatio="none" width="100%" height="100%" overflow="visible" style="display: block;" viewBox="0 0 48 48" fill="none" xmlns="http://www.w3.org/2000/svg">
<g id="snowing">
<path id="Vector" d="M17.7496 35.8805C17.9161 35.8805 18.0236 35.9133 18.1139 35.9772L18.1998 36.0514C18.311 36.163 18.3697 36.2788 18.3698 36.4996C18.3698 36.719 18.3118 36.8357 18.1989 36.9489C18.0866 37.0613 17.9702 37.1198 17.7496 37.1198C17.5316 37.1197 17.4158 37.0614 17.3024 36.9479H17.3014C17.1879 36.8344 17.1305 36.7179 17.1305 36.4996C17.1306 36.2793 17.189 36.1636 17.3014 36.0514C17.4145 35.9385 17.5305 35.8806 17.7496 35.8805ZM30.2496 35.8805C30.4161 35.8805 30.5236 35.9133 30.6139 35.9772L30.6998 36.0514C30.811 36.163 30.8697 36.2788 30.8698 36.4996C30.8698 36.719 30.8118 36.8357 30.6989 36.9489C30.5866 37.0613 30.4702 37.1198 30.2496 37.1198C30.0316 37.1197 29.9158 37.0614 29.8024 36.9479H29.8014C29.6879 36.8344 29.6305 36.7179 29.6305 36.4996C29.6306 36.2793 29.689 36.1636 29.8014 36.0514C29.9145 35.9385 30.0305 35.8806 30.2496 35.8805ZM11.4996 27.4801C11.666 27.4801 11.7736 27.513 11.8639 27.5768L11.9498 27.651C12.0612 27.7627 12.1198 27.879 12.1198 28.1002C12.1197 28.3193 12.0616 28.4354 11.9489 28.5485C11.8366 28.6609 11.7202 28.7194 11.4996 28.7194C11.2816 28.7193 11.1658 28.6619 11.0524 28.5485L11.0514 28.5475L10.9772 28.4606C10.913 28.3699 10.8805 28.2639 10.8805 28.1002C10.8805 27.8797 10.9391 27.7642 11.0514 27.652C11.1645 27.5391 11.2805 27.4802 11.4996 27.4801ZM23.9996 27.4801C24.166 27.4801 24.2736 27.513 24.3639 27.5768L24.4498 27.651C24.5612 27.7627 24.6198 27.879 24.6198 28.1002C24.6197 28.3193 24.5616 28.4354 24.4489 28.5485C24.3366 28.6609 24.2202 28.7194 23.9996 28.7194C23.7816 28.7193 23.6658 28.6619 23.5524 28.5485L23.5514 28.5475L23.4772 28.4606C23.413 28.3699 23.3805 28.2639 23.3805 28.1002C23.3805 27.8797 23.4391 27.7642 23.5514 27.652C23.6645 27.5391 23.7805 27.4802 23.9996 27.4801ZM36.4996 27.4801C36.666 27.4801 36.7736 27.513 36.8639 27.5768L36.9498 27.651C37.0612 27.7627 37.1198 27.879 37.1198 28.1002C37.1197 28.3193 37.0616 28.4354 36.9489 28.5485C36.8366 28.6609 36.7202 28.7194 36.4996 28.7194C36.2816 28.7193 36.1658 28.6619 36.0524 28.5485L36.0514 28.5475L35.9772 28.4606C35.913 28.3699 35.8805 28.2639 35.8805 28.1002C35.8805 27.8798 35.9391 27.7642 36.0514 27.652C36.1645 27.5391 36.2805 27.4802 36.4996 27.4801ZM17.7496 19.2809C17.9162 19.2809 18.0235 19.3136 18.1139 19.3776L18.1998 19.4508C18.3112 19.5626 18.3698 19.6788 18.3698 19.9C18.3698 20.1192 18.3116 20.2352 18.1989 20.3483C18.0866 20.4607 17.9702 20.5192 17.7496 20.5192C17.5316 20.5191 17.4158 20.4617 17.3024 20.3483L17.3014 20.3473C17.188 20.2339 17.1305 20.1181 17.1305 19.9C17.1305 19.6795 17.189 19.564 17.3014 19.4518C17.4145 19.3389 17.5305 19.281 17.7496 19.2809ZM30.2496 19.2809C30.4162 19.2809 30.5235 19.3136 30.6139 19.3776L30.6998 19.4508C30.8112 19.5626 30.8698 19.6788 30.8698 19.9C30.8698 20.1192 30.8116 20.2352 30.6989 20.3483C30.5866 20.4607 30.4702 20.5192 30.2496 20.5192C30.0316 20.5191 29.9158 20.4617 29.8024 20.3483L29.8014 20.3473C29.688 20.2339 29.6305 20.1181 29.6305 19.9C29.6305 19.6795 29.689 19.564 29.8014 19.4518C29.9145 19.3389 30.0305 19.281 30.2496 19.2809ZM11.4996 10.8805C11.6661 10.8805 11.7736 10.9133 11.8639 10.9772L11.9498 11.0514C12.061 11.163 12.1197 11.2788 12.1198 11.4996C12.1198 11.719 12.0618 11.8357 11.9489 11.9489C11.8366 12.0613 11.7202 12.1198 11.4996 12.1198C11.2816 12.1197 11.1658 12.0614 11.0524 11.9479H11.0514C10.9379 11.8344 10.8805 11.7179 10.8805 11.4996C10.8806 11.2793 10.939 11.1636 11.0514 11.0514C11.1645 10.9385 11.2805 10.8806 11.4996 10.8805ZM23.9996 10.8805C24.1661 10.8805 24.2736 10.9133 24.3639 10.9772L24.4498 11.0514C24.561 11.163 24.6197 11.2788 24.6198 11.4996C24.6198 11.719 24.5618 11.8357 24.4489 11.9489C24.3366 12.0613 24.2202 12.1198 23.9996 12.1198C23.7816 12.1197 23.6658 12.0614 23.5524 11.9479H23.5514C23.4379 11.8344 23.3805 11.7179 23.3805 11.4996C23.3806 11.2793 23.439 11.1636 23.5514 11.0514C23.6645 10.9385 23.7805 10.8806 23.9996 10.8805ZM36.4996 10.8805C36.6661 10.8805 36.7736 10.9133 36.8639 10.9772L36.9498 11.0514C37.061 11.163 37.1197 11.2788 37.1198 11.4996C37.1198 11.719 37.0618 11.8357 36.9489 11.9489C36.8366 12.0613 36.7202 12.1198 36.4996 12.1198C36.2816 12.1197 36.1658 12.0614 36.0524 11.9479H36.0514C35.9379 11.8344 35.8805 11.7179 35.8805 11.4996C35.8806 11.2793 35.939 11.1636 36.0514 11.0514C36.1645 10.9385 36.2805 10.8806 36.4996 10.8805Z" fill="var(--fill-0, #2DA2DB)" stroke="var(--stroke-0, #2DA2DB)" stroke-width="3"/>
</g>
</svg>
