<svg preserveAspectRatio="none" width="100%" height="100%" overflow="visible" style="display: block;" viewBox="0 0 40 40" fill="none" xmlns="http://www.w3.org/2000/svg">
<g id="triangle-alert">
<path id="Vector" d="M20 15V21.6667M20 28.3333H20.0167M36.2168 30.0004L22.8834 6.66704C22.5927 6.15405 22.1711 5.72735 21.6616 5.43049C21.1522 5.13362 20.5731 4.97721 19.9834 4.97721C19.3938 4.97721 18.8147 5.13362 18.3052 5.43049C17.7957 5.72735 17.3741 6.15405 17.0834 6.66704L3.75009 30.0004C3.45622 30.5093 3.30213 31.0869 3.30343 31.6746C3.30474 32.2622 3.46138 32.8391 3.7575 33.3467C4.05361 33.8544 4.47867 34.2747 4.98958 34.5651C5.50049 34.8555 6.0791 35.0057 6.66675 35.0004H33.3334C33.9183 34.9998 34.4926 34.8453 34.9989 34.5525C35.5051 34.2597 35.9254 33.8389 36.2176 33.3322C36.5098 32.8256 36.6635 32.251 36.6633 31.6662C36.6632 31.0814 36.5092 30.5069 36.2168 30.0004Z" stroke="var(--stroke-0, #F4813E)" stroke-width="3" stroke-linecap="round" stroke-linejoin="round"/>
</g>
</svg>
