<svg preserveAspectRatio="none" width="100%" height="100%" overflow="visible" style="display: block;" viewBox="0 0 48 48" fill="none" xmlns="http://www.w3.org/2000/svg">
<g id="thermostat">
<path id="Vector" d="M14.5176 7.189C15.4815 7.189 16.2572 7.51022 16.9297 8.18217V8.18314C17.601 8.8538 17.9239 9.63008 17.9239 10.6001V25.5835L18.6153 26.0269C19.8185 26.7978 20.7461 27.783 21.419 28.9937C22.0923 30.2056 22.4239 31.4836 22.4239 32.8501C22.4238 35.0617 21.6649 36.8969 20.1192 38.4429V38.4439C18.5728 39.9905 16.7377 40.7486 14.5283 40.7486C12.3194 40.7485 10.4829 39.9902 8.93362 38.4429C7.3855 36.8967 6.62603 35.0612 6.626 32.8501C6.626 31.4836 6.95761 30.2056 7.63088 28.9937C8.30379 27.7828 9.23208 26.7979 10.4356 26.0269L11.126 25.5835V10.6001C11.126 9.62779 11.4479 8.85029 12.1153 8.18021C12.7825 7.51037 13.5544 7.18909 14.5176 7.189ZM14.5254 7.60795C13.7235 7.60795 12.9804 7.89748 12.4014 8.48392L12.3994 8.4849C11.8267 9.06651 11.5449 9.80512 11.5449 10.6001V25.5572C10.1449 26.1614 9.03538 27.151 8.2344 28.4771C7.43607 29.7988 7.04494 31.2688 7.04494 32.8501V34.3501H22.0176V32.8501C22.0176 31.2408 21.6269 29.7542 20.8155 28.4351C20.0096 27.1256 18.9054 26.1465 17.5176 25.5513V10.6001C17.5176 9.79352 17.223 9.0512 16.6387 8.4722L16.6377 8.47123C16.0611 7.90074 15.3271 7.60805 14.5254 7.60795ZM27.8887 17.3687H36.5322C36.5628 17.3687 36.5825 17.3707 36.5928 17.3726C36.5981 17.3736 36.6016 17.375 36.6035 17.3755C36.6052 17.376 36.6061 17.3764 36.6065 17.3765H36.6074C36.6078 17.3767 36.6084 17.3778 36.6094 17.3785C36.6121 17.3803 36.6198 17.3858 36.6319 17.398H36.6328C36.645 17.4102 36.6504 17.4185 36.6524 17.4214C36.6541 17.424 36.655 17.4256 36.6553 17.4263C36.6559 17.4279 36.6574 17.4332 36.6592 17.4429C36.6613 17.4544 36.6641 17.4749 36.6641 17.5064C36.6641 17.538 36.6612 17.5581 36.6592 17.5689C36.6583 17.574 36.6578 17.5776 36.6572 17.5796L36.6563 17.5816V17.5826C36.6555 17.5838 36.6508 17.59 36.6397 17.6011C36.6275 17.6132 36.6197 17.619 36.6172 17.6206C36.615 17.6221 36.614 17.6223 36.6133 17.6226C36.6124 17.623 36.6075 17.6245 36.5967 17.6265C36.5852 17.6286 36.5639 17.6314 36.5322 17.6314H27.8936C27.8594 17.6314 27.8364 17.6289 27.8233 17.6265C27.8107 17.6242 27.8051 17.6212 27.8037 17.6206C27.8025 17.6201 27.8011 17.6202 27.7989 17.6187C27.7964 17.6171 27.7891 17.6119 27.7774 17.6001L27.7764 17.5992C27.7639 17.5866 27.7587 17.5785 27.7569 17.5757C27.7552 17.5732 27.7541 17.5722 27.7539 17.5718C27.7534 17.5705 27.7518 17.5657 27.75 17.5562C27.748 17.5451 27.7452 17.5249 27.7451 17.4937C27.7451 17.4628 27.7482 17.4433 27.75 17.4331C27.7513 17.4264 27.7525 17.4227 27.753 17.4214L27.7696 17.4029C27.7818 17.3908 27.7896 17.3846 27.793 17.3824C27.796 17.3804 27.798 17.3792 27.7998 17.3785C27.8008 17.3781 27.8249 17.3687 27.8887 17.3687ZM27.8887 11.0816H41.0322C41.0615 11.0816 41.0803 11.0837 41.0899 11.0855C41.0947 11.0864 41.098 11.0879 41.0996 11.0884H41.1026L41.1035 11.0894L41.127 11.1099C41.1396 11.1227 41.1458 11.1313 41.1485 11.1353C41.1509 11.139 41.1524 11.1417 41.1533 11.1441C41.1542 11.1463 41.1641 11.1713 41.1641 11.2359C41.1641 11.2684 41.1613 11.2897 41.1592 11.3013C41.1572 11.3121 41.1554 11.3166 41.1553 11.3169L41.1543 11.3179L41.1367 11.3384C41.1245 11.3506 41.1169 11.3562 41.1143 11.3579C41.112 11.3595 41.1107 11.3598 41.1104 11.3599C41.1091 11.3604 41.1043 11.3621 41.0947 11.3638C41.0836 11.3658 41.0633 11.3687 41.0322 11.3687H27.8887C27.8579 11.3687 27.8381 11.3658 27.8272 11.3638C27.8174 11.362 27.8126 11.3603 27.8115 11.3599C27.8111 11.3597 27.8096 11.3589 27.8067 11.357C27.8034 11.3547 27.7942 11.3485 27.7813 11.3355C27.7683 11.3223 27.7625 11.3131 27.7598 11.3091C27.7572 11.3053 27.7555 11.3029 27.7549 11.3013C27.7538 11.2985 27.7451 11.2753 27.7451 11.2183C27.7452 11.1867 27.748 11.1659 27.75 11.1548C27.7517 11.1459 27.7534 11.1415 27.7539 11.1402C27.754 11.14 27.7546 11.1392 27.7559 11.1372C27.7575 11.1349 27.762 11.1261 27.7744 11.1138C27.787 11.1014 27.7957 11.0964 27.7989 11.0943C27.8018 11.0923 27.8035 11.0918 27.8047 11.0913C27.8061 11.0908 27.8115 11.0886 27.8233 11.0865C27.8353 11.0843 27.8566 11.0816 27.8887 11.0816Z" stroke="var(--stroke-0, #2DA2DB)" stroke-width="3"/>
</g>
</svg>
