<svg preserveAspectRatio="none" width="100%" height="100%" overflow="visible" style="display: block;" viewBox="0 0 40 40" fill="none" xmlns="http://www.w3.org/2000/svg">
<g id="user-minus">
<path id="Vector" d="M26.6667 35V31.6667C26.6667 29.8986 25.9643 28.2029 24.714 26.9526C23.4638 25.7024 21.7681 25 20 25H10C8.23189 25 6.5362 25.7024 5.28595 26.9526C4.03571 28.2029 3.33333 29.8986 3.33333 31.6667V35M36.6667 18.3333H26.6667M21.6667 11.6667C21.6667 15.3486 18.6819 18.3333 15 18.3333C11.3181 18.3333 8.33333 15.3486 8.33333 11.6667C8.33333 7.98477 11.3181 5 15 5C18.6819 5 21.6667 7.98477 21.6667 11.6667Z" stroke="var(--stroke-0, #F4813E)" stroke-width="3" stroke-linecap="round" stroke-linejoin="round"/>
</g>
</svg>
