<svg preserveAspectRatio="none" width="100%" height="100%" overflow="visible" style="display: block;" viewBox="0 0 40 40" fill="none" xmlns="http://www.w3.org/2000/svg">
<g id="wind-arrow-down">
<path id="Vector" d="M16.6667 3.33333V16.6667M23.3333 10L16.6667 16.6667L10 10M21.3333 36C21.7559 36.3169 22.2477 36.5289 22.7682 36.6184C23.2887 36.708 23.8231 36.6725 24.3272 36.515C24.8314 36.3576 25.2909 36.0825 25.6679 35.7126C26.0449 35.3427 26.3286 34.8885 26.4956 34.3874C26.6626 33.8864 26.7082 33.3528 26.6285 32.8306C26.5489 32.3085 26.3463 31.8128 26.0375 31.3843C25.7286 30.9558 25.3224 30.6069 24.8523 30.3662C24.3821 30.1255 23.8615 30 23.3333 30H3.33333M29.1667 16.6667C29.5928 16.0985 30.1571 15.6487 30.806 15.3599C31.4549 15.0711 32.1668 14.9531 32.8742 15.0168C33.5816 15.0806 34.2609 15.3242 34.8476 15.7243C35.4344 16.1245 35.9092 16.668 36.2268 17.3033C36.5444 17.9385 36.6944 18.6444 36.6625 19.354C36.6305 20.0635 36.4178 20.7531 36.0444 21.3572C35.671 21.9614 35.1494 22.4601 34.529 22.8059C33.9087 23.1518 33.2102 23.3333 32.5 23.3333H3.33333" stroke="var(--stroke-0, #2DA2DB)" stroke-width="3" stroke-linecap="round" stroke-linejoin="round"/>
</g>
</svg>
