<svg preserveAspectRatio="none" width="100%" height="100%" overflow="visible" style="display: block;" viewBox="0 0 48 48" fill="none" xmlns="http://www.w3.org/2000/svg">
<g id="windshield_defrost_rear">
<g id="Vector">
<mask id="path-1-inside-1_0_28" fill="white">
<path d="M38.0715 36.299V32.8925H40.8925V11.1075H7.1075V32.8925H10.0285V36.299H7.1075C6.1875 36.299 5.38983 35.9612 4.7145 35.2855C4.03883 34.6102 3.701 33.8125 3.701 32.8925V11.1075C3.701 10.1842 4.03883 9.38367 4.7145 8.706C5.38983 8.028 6.1875 7.689 7.1075 7.689H40.8925C41.8158 7.689 42.6163 8.028 43.294 8.706C43.972 9.38367 44.311 10.1842 44.311 11.1075V32.8925C44.311 33.8125 43.972 34.6102 43.294 35.2855C42.6163 35.9612 41.8158 36.299 40.8925 36.299H38.0715ZM33.012 36.513C33.012 35.921 32.9037 35.3485 32.687 34.7955C32.4703 34.2428 32.1453 33.732 31.712 33.263C30.988 32.4803 30.4323 31.6165 30.045 30.6715C29.6577 29.7262 29.464 28.726 29.464 27.671C29.464 26.9207 29.5743 26.1837 29.795 25.46C30.0157 24.736 30.3465 24.0677 30.7875 23.455L31.2455 22.7535C31.4962 22.3715 31.8355 22.1452 32.2635 22.0745C32.6915 22.0038 33.0988 22.0932 33.4855 22.3425C33.8718 22.5918 34.092 22.9323 34.146 23.364C34.2 23.796 34.1032 24.2025 33.8555 24.5835L33.4055 25.2195C33.1388 25.5782 32.9388 25.9678 32.8055 26.3885C32.6722 26.8092 32.6055 27.2488 32.6055 27.7075C32.6055 28.3382 32.7222 28.9292 32.9555 29.4805C33.1888 30.0318 33.5208 30.541 33.9515 31.008C34.6702 31.7983 35.2272 32.6657 35.6225 33.61C36.0175 34.5543 36.215 35.5577 36.215 36.62C36.215 37.3757 36.1028 38.1127 35.8785 38.831C35.6538 39.5493 35.3168 40.2165 34.8675 40.8325L34.4175 41.469C34.1695 41.8497 33.8275 42.0773 33.3915 42.152C32.9555 42.2267 32.5455 42.1365 32.1615 41.8815C31.7778 41.6308 31.5493 41.2997 31.476 40.888C31.403 40.4763 31.495 40.0753 31.752 39.685L32.212 39.063C32.4787 38.6963 32.6787 38.2963 32.812 37.863C32.9453 37.4297 33.012 36.9797 33.012 36.513ZM24.2665 36.563C24.2665 35.9377 24.1498 35.3485 23.9165 34.7955C23.6832 34.2428 23.3498 33.732 22.9165 33.263C22.2005 32.4723 21.6468 31.6045 21.2555 30.6595C20.8642 29.7142 20.6685 28.7135 20.6685 27.6575C20.6685 26.9065 20.7788 26.1715 20.9995 25.4525C21.2202 24.7335 21.5552 24.066 22.0045 23.45L22.467 22.7515C22.7143 22.3708 23.054 22.1452 23.486 22.0745C23.9177 22.0038 24.3248 22.0932 24.7075 22.3425C25.0902 22.5918 25.3105 22.9322 25.3685 23.3635C25.4265 23.7952 25.3308 24.2027 25.0815 24.586L24.6715 25.2195C24.4048 25.5782 24.2048 25.9672 24.0715 26.3865C23.9382 26.8055 23.8715 27.2498 23.8715 27.7195C23.8715 28.3448 23.9863 28.932 24.216 29.481C24.4453 30.03 24.7767 30.5388 25.21 31.0075C25.9327 31.7868 26.49 32.6517 26.882 33.602C27.2737 34.552 27.4695 35.5547 27.4695 36.61C27.4695 37.3723 27.357 38.1127 27.132 38.831C26.907 39.5493 26.5745 40.2153 26.1345 40.829L25.69 41.4705C25.439 41.8535 25.0973 42.0815 24.665 42.1545C24.2327 42.2275 23.8212 42.1355 23.4305 41.8785C23.0512 41.6282 22.8253 41.2977 22.753 40.887C22.6807 40.476 22.7692 40.0753 23.0185 39.685L23.4665 39.063C23.7412 38.7043 23.9432 38.3153 24.0725 37.896C24.2018 37.477 24.2665 37.0327 24.2665 36.563ZM15.5445 36.575C15.5445 35.9417 15.4258 35.35 15.1885 34.8C14.9512 34.25 14.6198 33.7377 14.1945 33.263C13.4785 32.4803 12.9165 31.618 12.5085 30.676C12.1005 29.7343 11.8965 28.733 11.8965 27.672C11.8965 26.9217 12.0088 26.1843 12.2335 25.46C12.4582 24.736 12.8078 24.066 13.2825 23.45L13.7775 22.7545C14.0282 22.3748 14.3677 22.149 14.796 22.077C15.224 22.0047 15.6313 22.0932 16.018 22.3425C16.4047 22.5918 16.625 22.9323 16.679 23.364C16.733 23.796 16.636 24.2025 16.388 24.5835L15.938 25.2195C15.6633 25.5862 15.4613 25.978 15.332 26.395C15.2027 26.812 15.138 27.254 15.138 27.721C15.138 28.3433 15.2547 28.9295 15.488 29.4795C15.7213 30.0295 16.0547 30.5388 16.488 31.0075C17.203 31.7868 17.7563 32.6517 18.148 33.602C18.54 34.552 18.736 35.5547 18.736 36.61C18.736 37.3723 18.6245 38.1125 18.4015 38.8305C18.1785 39.5488 17.8447 40.2162 17.4 40.8325L16.952 41.4665C16.695 41.8488 16.3522 42.0773 15.9235 42.152C15.4948 42.2267 15.0898 42.1355 14.7085 41.8785C14.3182 41.6292 14.0877 41.2988 14.017 40.8875C13.9463 40.4762 14.0357 40.0753 14.285 39.685L14.748 39.064C15.0123 38.7127 15.2112 38.3273 15.3445 37.908C15.4778 37.489 15.5445 37.0447 15.5445 36.575Z"/>
</mask>
<path d="M38.0715 36.299V32.8925H40.8925V11.1075H7.1075V32.8925H10.0285V36.299H7.1075C6.1875 36.299 5.38983 35.9612 4.7145 35.2855C4.03883 34.6102 3.701 33.8125 3.701 32.8925V11.1075C3.701 10.1842 4.03883 9.38367 4.7145 8.706C5.38983 8.028 6.1875 7.689 7.1075 7.689H40.8925C41.8158 7.689 42.6163 8.028 43.294 8.706C43.972 9.38367 44.311 10.1842 44.311 11.1075V32.8925C44.311 33.8125 43.972 34.6102 43.294 35.2855C42.6163 35.9612 41.8158 36.299 40.8925 36.299H38.0715ZM33.012 36.513C33.012 35.921 32.9037 35.3485 32.687 34.7955C32.4703 34.2428 32.1453 33.732 31.712 33.263C30.988 32.4803 30.4323 31.6165 30.045 30.6715C29.6577 29.7262 29.464 28.726 29.464 27.671C29.464 26.9207 29.5743 26.1837 29.795 25.46C30.0157 24.736 30.3465 24.0677 30.7875 23.455L31.2455 22.7535C31.4962 22.3715 31.8355 22.1452 32.2635 22.0745C32.6915 22.0038 33.0988 22.0932 33.4855 22.3425C33.8718 22.5918 34.092 22.9323 34.146 23.364C34.2 23.796 34.1032 24.2025 33.8555 24.5835L33.4055 25.2195C33.1388 25.5782 32.9388 25.9678 32.8055 26.3885C32.6722 26.8092 32.6055 27.2488 32.6055 27.7075C32.6055 28.3382 32.7222 28.9292 32.9555 29.4805C33.1888 30.0318 33.5208 30.541 33.9515 31.008C34.6702 31.7983 35.2272 32.6657 35.6225 33.61C36.0175 34.5543 36.215 35.5577 36.215 36.62C36.215 37.3757 36.1028 38.1127 35.8785 38.831C35.6538 39.5493 35.3168 40.2165 34.8675 40.8325L34.4175 41.469C34.1695 41.8497 33.8275 42.0773 33.3915 42.152C32.9555 42.2267 32.5455 42.1365 32.1615 41.8815C31.7778 41.6308 31.5493 41.2997 31.476 40.888C31.403 40.4763 31.495 40.0753 31.752 39.685L32.212 39.063C32.4787 38.6963 32.6787 38.2963 32.812 37.863C32.9453 37.4297 33.012 36.9797 33.012 36.513ZM24.2665 36.563C24.2665 35.9377 24.1498 35.3485 23.9165 34.7955C23.6832 34.2428 23.3498 33.732 22.9165 33.263C22.2005 32.4723 21.6468 31.6045 21.2555 30.6595C20.8642 29.7142 20.6685 28.7135 20.6685 27.6575C20.6685 26.9065 20.7788 26.1715 20.9995 25.4525C21.2202 24.7335 21.5552 24.066 22.0045 23.45L22.467 22.7515C22.7143 22.3708 23.054 22.1452 23.486 22.0745C23.9177 22.0038 24.3248 22.0932 24.7075 22.3425C25.0902 22.5918 25.3105 22.9322 25.3685 23.3635C25.4265 23.7952 25.3308 24.2027 25.0815 24.586L24.6715 25.2195C24.4048 25.5782 24.2048 25.9672 24.0715 26.3865C23.9382 26.8055 23.8715 27.2498 23.8715 27.7195C23.8715 28.3448 23.9863 28.932 24.216 29.481C24.4453 30.03 24.7767 30.5388 25.21 31.0075C25.9327 31.7868 26.49 32.6517 26.882 33.602C27.2737 34.552 27.4695 35.5547 27.4695 36.61C27.4695 37.3723 27.357 38.1127 27.132 38.831C26.907 39.5493 26.5745 40.2153 26.1345 40.829L25.69 41.4705C25.439 41.8535 25.0973 42.0815 24.665 42.1545C24.2327 42.2275 23.8212 42.1355 23.4305 41.8785C23.0512 41.6282 22.8253 41.2977 22.753 40.887C22.6807 40.476 22.7692 40.0753 23.0185 39.685L23.4665 39.063C23.7412 38.7043 23.9432 38.3153 24.0725 37.896C24.2018 37.477 24.2665 37.0327 24.2665 36.563ZM15.5445 36.575C15.5445 35.9417 15.4258 35.35 15.1885 34.8C14.9512 34.25 14.6198 33.7377 14.1945 33.263C13.4785 32.4803 12.9165 31.618 12.5085 30.676C12.1005 29.7343 11.8965 28.733 11.8965 27.672C11.8965 26.9217 12.0088 26.1843 12.2335 25.46C12.4582 24.736 12.8078 24.066 13.2825 23.45L13.7775 22.7545C14.0282 22.3748 14.3677 22.149 14.796 22.077C15.224 22.0047 15.6313 22.0932 16.018 22.3425C16.4047 22.5918 16.625 22.9323 16.679 23.364C16.733 23.796 16.636 24.2025 16.388 24.5835L15.938 25.2195C15.6633 25.5862 15.4613 25.978 15.332 26.395C15.2027 26.812 15.138 27.254 15.138 27.721C15.138 28.3433 15.2547 28.9295 15.488 29.4795C15.7213 30.0295 16.0547 30.5388 16.488 31.0075C17.203 31.7868 17.7563 32.6517 18.148 33.602C18.54 34.552 18.736 35.5547 18.736 36.61C18.736 37.3723 18.6245 38.1125 18.4015 38.8305C18.1785 39.5488 17.8447 40.2162 17.4 40.8325L16.952 41.4665C16.695 41.8488 16.3522 42.0773 15.9235 42.152C15.4948 42.2267 15.0898 42.1355 14.7085 41.8785C14.3182 41.6292 14.0877 41.2988 14.017 40.8875C13.9463 40.4762 14.0357 40.0753 14.285 39.685L14.748 39.064C15.0123 38.7127 15.2112 38.3273 15.3445 37.908C15.4778 37.489 15.5445 37.0447 15.5445 36.575Z" stroke="var(--stroke-0, #2DA2DB)" stroke-width="6" mask="url(#path-1-inside-1_0_28)"/>
</g>
</g>
</svg>
