<svg preserveAspectRatio="none" width="100%" height="100%" overflow="visible" style="display: block;" viewBox="0 0 48 48" fill="none" xmlns="http://www.w3.org/2000/svg">
<g id="water_drop">
<path id="Vector" d="M24 44.299C19.3493 44.299 15.4702 42.7035 12.3625 39.5125C9.25483 36.3212 7.701 32.3503 7.701 27.6C7.701 25.5463 8.1545 23.4955 9.0615 21.4475C9.96817 19.3992 11.1307 17.4063 12.549 15.469C13.967 13.5317 15.5357 11.6835 17.255 9.9245C18.974 8.1655 20.6545 6.55233 22.2965 5.085C22.5618 4.861 22.836 4.70133 23.119 4.606C23.4017 4.51067 23.6958 4.463 24.0015 4.463C24.3072 4.463 24.6008 4.51067 24.8825 4.606C25.1645 4.70133 25.4382 4.861 25.7035 5.085C27.3455 6.55233 29.026 8.1655 30.745 9.9245C32.4643 11.6835 34.033 13.5317 35.451 15.469C36.8693 17.4063 38.0338 19.3992 38.9445 21.4475C39.8555 23.4955 40.311 25.5463 40.311 27.6C40.311 32.3503 38.7552 36.3212 35.6435 39.5125C32.5318 42.7035 28.6507 44.299 24 44.299ZM24.0015 40.8925C27.7018 40.8925 30.7755 39.627 33.2225 37.096C35.6692 34.5653 36.8925 31.4 36.8925 27.6C36.8925 25.0067 35.7942 22.0528 33.5975 18.7385C31.4005 15.4245 28.2013 11.8968 24 8.1555C19.7987 11.8968 16.5995 15.4245 14.4025 18.7385C12.2058 22.0528 11.1075 25.0067 11.1075 27.6C11.1075 31.4 12.3315 34.5653 14.7795 37.096C17.2272 39.627 20.3012 40.8925 24.0015 40.8925ZM23.974 37.552C24.5313 37.552 24.9635 37.4507 25.2705 37.248C25.5778 37.0453 25.7315 36.7522 25.7315 36.3685C25.7315 35.9778 25.5798 35.6725 25.2765 35.4525C24.9732 35.2328 24.5223 35.123 23.924 35.123C22.484 35.123 21.0788 34.6853 19.7085 33.81C18.3385 32.9343 17.4573 31.4277 17.065 29.29C16.9983 28.9823 16.8425 28.7268 16.5975 28.5235C16.3522 28.3202 16.0802 28.2185 15.7815 28.2185C15.3765 28.2185 15.0677 28.3682 14.855 28.6675C14.6423 28.9668 14.5693 29.2783 14.636 29.602C15.136 32.41 16.32 34.437 18.188 35.683C20.056 36.929 21.9847 37.552 23.974 37.552Z" fill="var(--fill-0, #2DA2DB)"/>
</g>
</svg>
