<svg preserveAspectRatio="none" width="100%" height="100%" overflow="visible" style="display: block;" viewBox="0 0 24 24" fill="none" xmlns="http://www.w3.org/2000/svg">
<g id="windshield_defrost_rear">
<g id="Vector">
<mask id="path-1-inside-1_0_49" fill="white">
<path d="M19.0357 18.1495V16.4463H20.4462V5.55375H3.55375V16.4463H5.01425V18.1495H3.55375C3.09375 18.1495 2.69492 17.9806 2.35725 17.6428C2.01942 17.3051 1.8505 16.9063 1.8505 16.4463V5.55375C1.8505 5.09208 2.01942 4.69183 2.35725 4.353C2.69492 4.014 3.09375 3.8445 3.55375 3.8445H20.4462C20.9079 3.8445 21.3082 4.014 21.647 4.353C21.986 4.69183 22.1555 5.09208 22.1555 5.55375V16.4463C22.1555 16.9063 21.986 17.3051 21.647 17.6428C21.3082 17.9806 20.9079 18.1495 20.4462 18.1495H19.0357ZM16.506 18.2565C16.506 17.9605 16.4518 17.6743 16.3435 17.3978C16.2352 17.1214 16.0727 16.866 15.856 16.6315C15.494 16.2402 15.2162 15.8082 15.0225 15.3357C14.8288 14.8631 14.732 14.363 14.732 13.8355C14.732 13.4603 14.7872 13.0918 14.8975 12.73C15.0078 12.368 15.1732 12.0338 15.3937 11.7275L15.6227 11.3768C15.7481 11.1858 15.9177 11.0726 16.1317 11.0372C16.3457 11.0019 16.5494 11.0466 16.7428 11.1712C16.9359 11.2959 17.046 11.4662 17.073 11.682C17.1 11.898 17.0516 12.1013 16.9277 12.2918L16.7027 12.6098C16.5694 12.7891 16.4694 12.9839 16.4027 13.1942C16.3361 13.4046 16.3027 13.6244 16.3027 13.8537C16.3027 14.1691 16.3611 14.4646 16.4777 14.7402C16.5944 15.0159 16.7604 15.2705 16.9758 15.504C17.3351 15.8992 17.6136 16.3328 17.8112 16.805C18.0087 17.2772 18.1075 17.7788 18.1075 18.31C18.1075 18.6878 18.0514 19.0563 17.9392 19.4155C17.8269 19.7747 17.6584 20.1083 17.4337 20.4163L17.2087 20.7345C17.0847 20.9248 16.9137 21.0387 16.6957 21.076C16.4777 21.1133 16.2727 21.0683 16.0807 20.9408C15.8889 20.8154 15.7747 20.6498 15.738 20.444C15.7015 20.2382 15.7475 20.0377 15.876 19.8425L16.106 19.5315C16.2393 19.3482 16.3393 19.1482 16.406 18.9315C16.4727 18.7148 16.506 18.4898 16.506 18.2565ZM12.1332 18.2815C12.1332 17.9688 12.0749 17.6743 11.9582 17.3978C11.8416 17.1214 11.6749 16.866 11.4582 16.6315C11.1002 16.2362 10.8234 15.8023 10.6277 15.3298C10.4321 14.8571 10.3343 14.3567 10.3343 13.8287C10.3343 13.4532 10.3894 13.0857 10.4997 12.7262C10.6101 12.3667 10.7776 12.033 11.0023 11.725L11.2335 11.3757C11.3572 11.1854 11.527 11.0726 11.743 11.0372C11.9588 11.0019 12.1624 11.0466 12.3538 11.1712C12.5451 11.2959 12.6553 11.4661 12.6843 11.6817C12.7133 11.8976 12.6654 12.1013 12.5408 12.293L12.3357 12.6098C12.2024 12.7891 12.1024 12.9836 12.0357 13.1933C11.9691 13.4028 11.9357 13.6249 11.9357 13.8598C11.9357 14.1724 11.9932 14.466 12.108 14.7405C12.2227 15.015 12.3883 15.2694 12.605 15.5037C12.9663 15.8934 13.245 16.3258 13.441 16.801C13.6368 17.276 13.7348 17.7773 13.7348 18.305C13.7348 18.6862 13.6785 19.0563 13.566 19.4155C13.4535 19.7747 13.2873 20.1077 13.0673 20.4145L12.845 20.7353C12.7195 20.9268 12.5487 21.0407 12.3325 21.0772C12.1163 21.1137 11.9106 21.0678 11.7152 20.9393C11.5256 20.8141 11.4127 20.6488 11.3765 20.4435C11.3403 20.238 11.3846 20.0377 11.5093 19.8425L11.7332 19.5315C11.8706 19.3522 11.9716 19.1577 12.0363 18.948C12.1009 18.7385 12.1332 18.5163 12.1332 18.2815ZM7.77225 18.2875C7.77225 17.9708 7.71292 17.675 7.59425 17.4C7.47558 17.125 7.30992 16.8688 7.09725 16.6315C6.73925 16.2402 6.45825 15.809 6.25425 15.338C6.05025 14.8672 5.94825 14.3665 5.94825 13.836C5.94825 13.4608 6.00442 13.0922 6.11675 12.73C6.22908 12.368 6.40392 12.033 6.64125 11.725L6.88875 11.3772C7.01408 11.1874 7.18383 11.0745 7.398 11.0385C7.612 11.0023 7.81567 11.0466 8.009 11.1712C8.20233 11.2959 8.3125 11.4662 8.3395 11.682C8.3665 11.898 8.318 12.1013 8.194 12.2918L7.969 12.6098C7.83167 12.7931 7.73067 12.989 7.666 13.1975C7.60133 13.406 7.569 13.627 7.569 13.8605C7.569 14.1717 7.62733 14.4647 7.744 14.7397C7.86067 15.0147 8.02733 15.2694 8.244 15.5037C8.6015 15.8934 8.87817 16.3258 9.074 16.801C9.27 17.276 9.368 17.7773 9.368 18.305C9.368 18.6862 9.31225 19.0562 9.20075 19.4152C9.08925 19.7744 8.92233 20.1081 8.7 20.4163L8.476 20.7333C8.3475 20.9244 8.17608 21.0387 7.96175 21.076C7.74742 21.1133 7.54492 21.0678 7.35425 20.9393C7.15908 20.8146 7.04383 20.6494 7.0085 20.4438C6.97317 20.2381 7.01783 20.0377 7.1425 19.8425L7.374 19.532C7.50617 19.3563 7.60558 19.1637 7.67225 18.954C7.73892 18.7445 7.77225 18.5223 7.77225 18.2875Z"/>
</mask>
<path d="M19.0357 18.1495V16.4463H20.4462V5.55375H3.55375V16.4463H5.01425V18.1495H3.55375C3.09375 18.1495 2.69492 17.9806 2.35725 17.6428C2.01942 17.3051 1.8505 16.9063 1.8505 16.4463V5.55375C1.8505 5.09208 2.01942 4.69183 2.35725 4.353C2.69492 4.014 3.09375 3.8445 3.55375 3.8445H20.4462C20.9079 3.8445 21.3082 4.014 21.647 4.353C21.986 4.69183 22.1555 5.09208 22.1555 5.55375V16.4463C22.1555 16.9063 21.986 17.3051 21.647 17.6428C21.3082 17.9806 20.9079 18.1495 20.4462 18.1495H19.0357ZM16.506 18.2565C16.506 17.9605 16.4518 17.6743 16.3435 17.3978C16.2352 17.1214 16.0727 16.866 15.856 16.6315C15.494 16.2402 15.2162 15.8082 15.0225 15.3357C14.8288 14.8631 14.732 14.363 14.732 13.8355C14.732 13.4603 14.7872 13.0918 14.8975 12.73C15.0078 12.368 15.1732 12.0338 15.3937 11.7275L15.6227 11.3768C15.7481 11.1858 15.9177 11.0726 16.1317 11.0372C16.3457 11.0019 16.5494 11.0466 16.7428 11.1712C16.9359 11.2959 17.046 11.4662 17.073 11.682C17.1 11.898 17.0516 12.1013 16.9277 12.2918L16.7027 12.6098C16.5694 12.7891 16.4694 12.9839 16.4027 13.1942C16.3361 13.4046 16.3027 13.6244 16.3027 13.8537C16.3027 14.1691 16.3611 14.4646 16.4777 14.7402C16.5944 15.0159 16.7604 15.2705 16.9758 15.504C17.3351 15.8992 17.6136 16.3328 17.8112 16.805C18.0087 17.2772 18.1075 17.7788 18.1075 18.31C18.1075 18.6878 18.0514 19.0563 17.9392 19.4155C17.8269 19.7747 17.6584 20.1083 17.4337 20.4163L17.2087 20.7345C17.0847 20.9248 16.9137 21.0387 16.6957 21.076C16.4777 21.1133 16.2727 21.0683 16.0807 20.9408C15.8889 20.8154 15.7747 20.6498 15.738 20.444C15.7015 20.2382 15.7475 20.0377 15.876 19.8425L16.106 19.5315C16.2393 19.3482 16.3393 19.1482 16.406 18.9315C16.4727 18.7148 16.506 18.4898 16.506 18.2565ZM12.1332 18.2815C12.1332 17.9688 12.0749 17.6743 11.9582 17.3978C11.8416 17.1214 11.6749 16.866 11.4582 16.6315C11.1002 16.2362 10.8234 15.8023 10.6277 15.3298C10.4321 14.8571 10.3343 14.3567 10.3343 13.8287C10.3343 13.4532 10.3894 13.0857 10.4997 12.7262C10.6101 12.3667 10.7776 12.033 11.0023 11.725L11.2335 11.3757C11.3572 11.1854 11.527 11.0726 11.743 11.0372C11.9588 11.0019 12.1624 11.0466 12.3538 11.1712C12.5451 11.2959 12.6553 11.4661 12.6843 11.6817C12.7133 11.8976 12.6654 12.1013 12.5408 12.293L12.3357 12.6098C12.2024 12.7891 12.1024 12.9836 12.0357 13.1933C11.9691 13.4028 11.9357 13.6249 11.9357 13.8598C11.9357 14.1724 11.9932 14.466 12.108 14.7405C12.2227 15.015 12.3883 15.2694 12.605 15.5037C12.9663 15.8934 13.245 16.3258 13.441 16.801C13.6368 17.276 13.7348 17.7773 13.7348 18.305C13.7348 18.6862 13.6785 19.0563 13.566 19.4155C13.4535 19.7747 13.2873 20.1077 13.0673 20.4145L12.845 20.7353C12.7195 20.9268 12.5487 21.0407 12.3325 21.0772C12.1163 21.1137 11.9106 21.0678 11.7152 20.9393C11.5256 20.8141 11.4127 20.6488 11.3765 20.4435C11.3403 20.238 11.3846 20.0377 11.5093 19.8425L11.7332 19.5315C11.8706 19.3522 11.9716 19.1577 12.0363 18.948C12.1009 18.7385 12.1332 18.5163 12.1332 18.2815ZM7.77225 18.2875C7.77225 17.9708 7.71292 17.675 7.59425 17.4C7.47558 17.125 7.30992 16.8688 7.09725 16.6315C6.73925 16.2402 6.45825 15.809 6.25425 15.338C6.05025 14.8672 5.94825 14.3665 5.94825 13.836C5.94825 13.4608 6.00442 13.0922 6.11675 12.73C6.22908 12.368 6.40392 12.033 6.64125 11.725L6.88875 11.3772C7.01408 11.1874 7.18383 11.0745 7.398 11.0385C7.612 11.0023 7.81567 11.0466 8.009 11.1712C8.20233 11.2959 8.3125 11.4662 8.3395 11.682C8.3665 11.898 8.318 12.1013 8.194 12.2918L7.969 12.6098C7.83167 12.7931 7.73067 12.989 7.666 13.1975C7.60133 13.406 7.569 13.627 7.569 13.8605C7.569 14.1717 7.62733 14.4647 7.744 14.7397C7.86067 15.0147 8.02733 15.2694 8.244 15.5037C8.6015 15.8934 8.87817 16.3258 9.074 16.801C9.27 17.276 9.368 17.7773 9.368 18.305C9.368 18.6862 9.31225 19.0562 9.20075 19.4152C9.08925 19.7744 8.92233 20.1081 8.7 20.4163L8.476 20.7333C8.3475 20.9244 8.17608 21.0387 7.96175 21.076C7.74742 21.1133 7.54492 21.0678 7.35425 20.9393C7.15908 20.8146 7.04383 20.6494 7.0085 20.4438C6.97317 20.2381 7.01783 20.0377 7.1425 19.8425L7.374 19.532C7.50617 19.3563 7.60558 19.1637 7.67225 18.954C7.73892 18.7445 7.77225 18.5223 7.77225 18.2875Z" stroke="var(--stroke-0, #1E729C)" stroke-width="4" mask="url(#path-1-inside-1_0_49)"/>
</g>
</g>
</svg>
