<svg width="40" height="40" viewBox="0 0 40 40" fill="none" xmlns="http://www.w3.org/2000/svg">
<mask id="path-1-inside-1_10553_17027" fill="white">
<path d="M1.51083 33.8202V31.1473C1.51083 30.12 1.75472 29.2781 2.2425 28.6214C2.73 27.9648 3.37986 27.442 4.19208 27.0531C5.69208 26.3309 7.31444 25.7303 9.05917 25.2514C10.8042 24.7725 12.7617 24.5331 14.9317 24.5331C17.1017 24.5331 19.0574 24.7692 20.7987 25.2414C22.5404 25.7137 24.1646 26.3109 25.6712 27.0331C26.4768 27.4287 27.1233 27.9571 27.6108 28.6185C28.0986 29.2796 28.3425 30.1225 28.3425 31.1473V33.8202C28.3425 34.228 28.2078 34.5664 27.9383 34.8356C27.6692 35.105 27.3307 35.2398 26.9229 35.2398H2.93042C2.52264 35.2398 2.18417 35.105 1.915 34.8356C1.64556 34.5664 1.51083 34.228 1.51083 33.8202ZM4.35958 32.391H25.5037V31.1773C25.5037 30.7606 25.3857 30.4253 25.1496 30.1714C24.9135 29.9175 24.6287 29.7212 24.2954 29.5823C23.101 29.0545 21.7743 28.5541 20.3154 28.081C18.8562 27.6082 17.0617 27.3719 14.9317 27.3719C12.8014 27.3719 11.0068 27.6099 9.54792 28.086C8.08903 28.5624 6.76236 29.0619 5.56792 29.5844C5.22792 29.7219 4.94153 29.9175 4.70875 30.1714C4.47597 30.4253 4.35958 30.7606 4.35958 31.1773V32.391ZM14.9317 22.0331C13.0286 22.0331 11.4688 21.4135 10.2521 20.1744C9.03569 18.9352 8.4275 17.405 8.4275 15.5839H8.01083C7.76778 15.5839 7.55653 15.4939 7.37708 15.3139C7.19764 15.1342 7.10792 14.9224 7.10792 14.6785C7.10792 14.4377 7.19764 14.2273 7.37708 14.0473C7.55653 13.8675 7.76778 13.7777 8.01083 13.7777H8.4275C8.4275 12.6335 8.72361 11.5987 9.31583 10.6731C9.90778 9.74782 10.6847 9.0106 11.6467 8.46143V10.0927C11.6467 10.2685 11.7085 10.4173 11.8321 10.5389C11.9554 10.6606 12.1053 10.7214 12.2817 10.7214C12.4694 10.7214 12.6222 10.6609 12.74 10.5398C12.8578 10.4187 12.9167 10.2719 12.9167 10.0994V7.93977C13.1411 7.89088 13.4492 7.84393 13.8408 7.79893C14.2322 7.75393 14.61 7.73143 14.9742 7.73143C15.3314 7.73143 15.7044 7.75393 16.0933 7.79893C16.4822 7.84393 16.7904 7.89074 17.0179 7.93935V10.0994C17.0179 10.2719 17.0771 10.4187 17.1954 10.5398C17.314 10.6609 17.4706 10.7214 17.665 10.7214C17.8383 10.7214 17.9875 10.6606 18.1125 10.5389C18.2375 10.4173 18.3 10.2698 18.3 10.0964V8.46143C19.2553 9.0106 20.015 9.74768 20.5792 10.6727C21.1436 11.598 21.4258 12.633 21.4258 13.7777H21.8425C22.0856 13.7777 22.2968 13.8674 22.4762 14.0468C22.6557 14.226 22.7454 14.437 22.7454 14.6798C22.7454 14.9225 22.6557 15.1339 22.4762 15.3139C22.2968 15.4939 22.0856 15.5839 21.8425 15.5839H21.4258C21.4258 17.4081 20.8192 18.9391 19.6058 20.1769C18.3928 21.4144 16.8347 22.0331 14.9317 22.0331ZM14.9362 19.1844C16.0699 19.1844 16.9617 18.8459 17.6117 18.1689C18.2619 17.4923 18.5871 16.6106 18.5871 15.5239H11.2763C11.2763 16.6087 11.6008 17.4899 12.25 18.1677C12.8989 18.8455 13.7943 19.1844 14.9362 19.1844ZM27.6475 23.8085L27.6058 23.3919C27.4114 23.2807 27.2096 23.1557 27.0004 23.0169C26.791 22.878 26.6024 22.7357 26.4346 22.5902L25.9729 22.8402C25.7749 22.9513 25.5856 22.9795 25.405 22.9248C25.2242 22.87 25.0683 22.7606 24.9375 22.5964L24.8975 22.5169C24.7586 22.3224 24.71 22.121 24.7517 21.9127C24.7933 21.7044 24.8975 21.5307 25.0642 21.3919L25.5225 21.0585C25.4669 20.9474 25.4392 20.8432 25.4392 20.746V20.121C25.4392 20.0238 25.4669 19.9196 25.5225 19.8085L25.0642 19.4752C24.8975 19.3363 24.7933 19.1696 24.7517 18.9752C24.71 18.7807 24.7586 18.5863 24.8975 18.3919L24.9392 18.2669C25.0714 18.1002 25.2289 17.9891 25.4117 17.9335C25.5944 17.878 25.7842 17.9057 25.9808 18.0169L26.4392 18.2669L27.0225 17.8502C27.2169 17.7113 27.4114 17.5863 27.6058 17.4752L27.6475 17.0169C27.6753 16.7946 27.7656 16.6141 27.9183 16.4752C28.0711 16.3363 28.2586 16.2669 28.4808 16.2669H28.5642C28.7797 16.2669 28.965 16.3432 29.12 16.496C29.275 16.6488 29.3669 16.8363 29.3958 17.0585L29.4392 17.4752C29.6336 17.5846 29.8264 17.7092 30.0175 17.8489C30.2086 17.9887 30.4047 18.128 30.6058 18.2669L31.0642 18.0169C31.2586 17.9057 31.4461 17.878 31.6267 17.9335C31.8072 17.9891 31.9669 18.1002 32.1058 18.2669L32.1475 18.3502C32.2797 18.5446 32.3267 18.746 32.2883 18.9544C32.25 19.1627 32.1475 19.3363 31.9808 19.4752L31.5225 19.8085C31.5714 19.9196 31.5975 20.0238 31.6008 20.121C31.6042 20.2182 31.6058 20.3224 31.6058 20.4335C31.6058 20.5446 31.6042 20.6488 31.6008 20.746C31.5975 20.8432 31.5714 20.9474 31.5225 21.0585L31.9808 21.3919C32.1475 21.5307 32.25 21.6974 32.2883 21.8919C32.3267 22.0863 32.2781 22.2807 32.1425 22.4752L32.1058 22.6002C31.9669 22.7669 31.8072 22.878 31.6267 22.9335C31.4461 22.9891 31.2586 22.9613 31.0642 22.8502L30.6058 22.6002C30.4392 22.7391 30.2517 22.878 30.0433 23.0169C29.835 23.1557 29.6336 23.2807 29.4392 23.3919L29.3958 23.8502C29.3669 24.0724 29.275 24.253 29.12 24.3919C28.965 24.5307 28.7797 24.6002 28.5642 24.6002H28.4808C28.2586 24.6002 28.0711 24.5238 27.9183 24.371C27.7656 24.2182 27.6753 24.0307 27.6475 23.8085ZM28.5225 22.0169C28.9669 22.0169 29.3419 21.8641 29.6475 21.5585C29.9531 21.253 30.1058 20.878 30.1058 20.4335C30.1058 19.9891 29.9531 19.6141 29.6475 19.3085C29.3419 19.003 28.9653 18.8502 28.5175 18.8502C28.0697 18.8502 27.6947 19.003 27.3925 19.3085C27.0903 19.6141 26.9392 19.9891 26.9392 20.4335C26.9392 20.878 27.0903 21.253 27.3925 21.5585C27.6947 21.8641 28.0714 22.0169 28.5225 22.0169ZM32.0725 14.9056L31.8642 14.0306C31.5864 13.9195 31.3017 13.7667 31.01 13.5723C30.7183 13.3778 30.4753 13.1695 30.2808 12.9473L29.1142 13.3664C28.9197 13.427 28.7322 13.4278 28.5517 13.3689C28.3711 13.31 28.2253 13.1973 28.1142 13.0306L27.9475 12.7806C27.8364 12.5862 27.8017 12.3917 27.8433 12.1973C27.885 12.0028 27.9892 11.8362 28.1558 11.6973L29.0725 10.9889C29.0169 10.85 28.9683 10.6973 28.9267 10.5306C28.885 10.3639 28.8642 10.1973 28.8642 10.0306C28.8642 9.86393 28.885 9.69893 28.9267 9.5356C28.9683 9.37227 29.0169 9.21782 29.0725 9.07227L28.1558 8.36393C27.9892 8.23171 27.885 8.06046 27.8433 7.85018C27.8017 7.64018 27.8364 7.45116 27.9475 7.2831L28.1142 7.07227C28.2253 6.9056 28.3711 6.78754 28.5517 6.7181C28.7322 6.64865 28.9197 6.64171 29.1142 6.69727L30.2808 7.11393C30.4753 6.89838 30.7183 6.68518 31.01 6.47435C31.3017 6.26352 31.5864 6.1156 31.8642 6.0306L32.0725 5.1556C32.1281 4.98893 32.2253 4.85004 32.3642 4.73893C32.5031 4.62782 32.6558 4.57227 32.8225 4.57227H33.2392C33.4058 4.57227 33.5586 4.62782 33.6975 4.73893C33.8364 4.85004 33.9336 4.98893 33.9892 5.1556L34.1975 6.0306C34.4753 6.11393 34.76 6.26143 35.0517 6.4731C35.3433 6.68477 35.5864 6.89838 35.7808 7.11393L36.9475 6.69727C37.1419 6.64171 37.3294 6.64171 37.51 6.69727C37.6906 6.75282 37.8364 6.86393 37.9475 7.0306L38.1142 7.2806C38.2253 7.47504 38.26 7.67116 38.2183 7.86893C38.1767 8.06671 38.0725 8.23171 37.9058 8.36393L36.9892 9.07227C37.0447 9.21782 37.0933 9.37296 37.135 9.53768C37.1767 9.70268 37.1975 9.86699 37.1975 10.0306C37.1975 10.1973 37.1767 10.3639 37.135 10.5306C37.0933 10.6973 37.0447 10.85 36.9892 10.9889L37.9058 11.6973C38.0725 11.8362 38.1767 12.0098 38.2183 12.2181C38.26 12.4264 38.2253 12.6139 38.1142 12.7806L37.9475 12.9889C37.8364 13.1556 37.6906 13.2753 37.51 13.3481C37.3294 13.4209 37.1419 13.427 36.9475 13.3664L35.7808 12.9473C35.5864 13.1695 35.3433 13.3778 35.0517 13.5723C34.76 13.7667 34.4753 13.9195 34.1975 14.0306L33.9892 14.9056C33.9336 15.0723 33.8364 15.2112 33.6975 15.3223C33.5586 15.4334 33.4058 15.4889 33.2392 15.4889H32.8225C32.6558 15.4889 32.5031 15.4334 32.3642 15.3223C32.2253 15.2112 32.1281 15.0723 32.0725 14.9056ZM33.0308 12.4473C33.7253 12.4473 34.3017 12.2181 34.76 11.7598C35.2183 11.3014 35.4475 10.725 35.4475 10.0306C35.4475 9.33615 35.2183 8.75977 34.76 8.30143C34.3017 7.8431 33.7253 7.61393 33.0308 7.61393C32.3364 7.61393 31.76 7.8431 31.3017 8.30143C30.8433 8.75977 30.6142 9.33615 30.6142 10.0306C30.6142 10.725 30.8433 11.3014 31.3017 11.7598C31.76 12.2181 32.3364 12.4473 33.0308 12.4473Z"/>
</mask>
<path d="M1.51083 33.8202V31.1473C1.51083 30.12 1.75472 29.2781 2.2425 28.6214C2.73 27.9648 3.37986 27.442 4.19208 27.0531C5.69208 26.3309 7.31444 25.7303 9.05917 25.2514C10.8042 24.7725 12.7617 24.5331 14.9317 24.5331C17.1017 24.5331 19.0574 24.7692 20.7987 25.2414C22.5404 25.7137 24.1646 26.3109 25.6712 27.0331C26.4768 27.4287 27.1233 27.9571 27.6108 28.6185C28.0986 29.2796 28.3425 30.1225 28.3425 31.1473V33.8202C28.3425 34.228 28.2078 34.5664 27.9383 34.8356C27.6692 35.105 27.3307 35.2398 26.9229 35.2398H2.93042C2.52264 35.2398 2.18417 35.105 1.915 34.8356C1.64556 34.5664 1.51083 34.228 1.51083 33.8202ZM4.35958 32.391H25.5037V31.1773C25.5037 30.7606 25.3857 30.4253 25.1496 30.1714C24.9135 29.9175 24.6287 29.7212 24.2954 29.5823C23.101 29.0545 21.7743 28.5541 20.3154 28.081C18.8562 27.6082 17.0617 27.3719 14.9317 27.3719C12.8014 27.3719 11.0068 27.6099 9.54792 28.086C8.08903 28.5624 6.76236 29.0619 5.56792 29.5844C5.22792 29.7219 4.94153 29.9175 4.70875 30.1714C4.47597 30.4253 4.35958 30.7606 4.35958 31.1773V32.391ZM14.9317 22.0331C13.0286 22.0331 11.4688 21.4135 10.2521 20.1744C9.03569 18.9352 8.4275 17.405 8.4275 15.5839H8.01083C7.76778 15.5839 7.55653 15.4939 7.37708 15.3139C7.19764 15.1342 7.10792 14.9224 7.10792 14.6785C7.10792 14.4377 7.19764 14.2273 7.37708 14.0473C7.55653 13.8675 7.76778 13.7777 8.01083 13.7777H8.4275C8.4275 12.6335 8.72361 11.5987 9.31583 10.6731C9.90778 9.74782 10.6847 9.0106 11.6467 8.46143V10.0927C11.6467 10.2685 11.7085 10.4173 11.8321 10.5389C11.9554 10.6606 12.1053 10.7214 12.2817 10.7214C12.4694 10.7214 12.6222 10.6609 12.74 10.5398C12.8578 10.4187 12.9167 10.2719 12.9167 10.0994V7.93977C13.1411 7.89088 13.4492 7.84393 13.8408 7.79893C14.2322 7.75393 14.61 7.73143 14.9742 7.73143C15.3314 7.73143 15.7044 7.75393 16.0933 7.79893C16.4822 7.84393 16.7904 7.89074 17.0179 7.93935V10.0994C17.0179 10.2719 17.0771 10.4187 17.1954 10.5398C17.314 10.6609 17.4706 10.7214 17.665 10.7214C17.8383 10.7214 17.9875 10.6606 18.1125 10.5389C18.2375 10.4173 18.3 10.2698 18.3 10.0964V8.46143C19.2553 9.0106 20.015 9.74768 20.5792 10.6727C21.1436 11.598 21.4258 12.633 21.4258 13.7777H21.8425C22.0856 13.7777 22.2968 13.8674 22.4762 14.0468C22.6557 14.226 22.7454 14.437 22.7454 14.6798C22.7454 14.9225 22.6557 15.1339 22.4762 15.3139C22.2968 15.4939 22.0856 15.5839 21.8425 15.5839H21.4258C21.4258 17.4081 20.8192 18.9391 19.6058 20.1769C18.3928 21.4144 16.8347 22.0331 14.9317 22.0331ZM14.9362 19.1844C16.0699 19.1844 16.9617 18.8459 17.6117 18.1689C18.2619 17.4923 18.5871 16.6106 18.5871 15.5239H11.2763C11.2763 16.6087 11.6008 17.4899 12.25 18.1677C12.8989 18.8455 13.7943 19.1844 14.9362 19.1844ZM27.6475 23.8085L27.6058 23.3919C27.4114 23.2807 27.2096 23.1557 27.0004 23.0169C26.791 22.878 26.6024 22.7357 26.4346 22.5902L25.9729 22.8402C25.7749 22.9513 25.5856 22.9795 25.405 22.9248C25.2242 22.87 25.0683 22.7606 24.9375 22.5964L24.8975 22.5169C24.7586 22.3224 24.71 22.121 24.7517 21.9127C24.7933 21.7044 24.8975 21.5307 25.0642 21.3919L25.5225 21.0585C25.4669 20.9474 25.4392 20.8432 25.4392 20.746V20.121C25.4392 20.0238 25.4669 19.9196 25.5225 19.8085L25.0642 19.4752C24.8975 19.3363 24.7933 19.1696 24.7517 18.9752C24.71 18.7807 24.7586 18.5863 24.8975 18.3919L24.9392 18.2669C25.0714 18.1002 25.2289 17.9891 25.4117 17.9335C25.5944 17.878 25.7842 17.9057 25.9808 18.0169L26.4392 18.2669L27.0225 17.8502C27.2169 17.7113 27.4114 17.5863 27.6058 17.4752L27.6475 17.0169C27.6753 16.7946 27.7656 16.6141 27.9183 16.4752C28.0711 16.3363 28.2586 16.2669 28.4808 16.2669H28.5642C28.7797 16.2669 28.965 16.3432 29.12 16.496C29.275 16.6488 29.3669 16.8363 29.3958 17.0585L29.4392 17.4752C29.6336 17.5846 29.8264 17.7092 30.0175 17.8489C30.2086 17.9887 30.4047 18.128 30.6058 18.2669L31.0642 18.0169C31.2586 17.9057 31.4461 17.878 31.6267 17.9335C31.8072 17.9891 31.9669 18.1002 32.1058 18.2669L32.1475 18.3502C32.2797 18.5446 32.3267 18.746 32.2883 18.9544C32.25 19.1627 32.1475 19.3363 31.9808 19.4752L31.5225 19.8085C31.5714 19.9196 31.5975 20.0238 31.6008 20.121C31.6042 20.2182 31.6058 20.3224 31.6058 20.4335C31.6058 20.5446 31.6042 20.6488 31.6008 20.746C31.5975 20.8432 31.5714 20.9474 31.5225 21.0585L31.9808 21.3919C32.1475 21.5307 32.25 21.6974 32.2883 21.8919C32.3267 22.0863 32.2781 22.2807 32.1425 22.4752L32.1058 22.6002C31.9669 22.7669 31.8072 22.878 31.6267 22.9335C31.4461 22.9891 31.2586 22.9613 31.0642 22.8502L30.6058 22.6002C30.4392 22.7391 30.2517 22.878 30.0433 23.0169C29.835 23.1557 29.6336 23.2807 29.4392 23.3919L29.3958 23.8502C29.3669 24.0724 29.275 24.253 29.12 24.3919C28.965 24.5307 28.7797 24.6002 28.5642 24.6002H28.4808C28.2586 24.6002 28.0711 24.5238 27.9183 24.371C27.7656 24.2182 27.6753 24.0307 27.6475 23.8085ZM28.5225 22.0169C28.9669 22.0169 29.3419 21.8641 29.6475 21.5585C29.9531 21.253 30.1058 20.878 30.1058 20.4335C30.1058 19.9891 29.9531 19.6141 29.6475 19.3085C29.3419 19.003 28.9653 18.8502 28.5175 18.8502C28.0697 18.8502 27.6947 19.003 27.3925 19.3085C27.0903 19.6141 26.9392 19.9891 26.9392 20.4335C26.9392 20.878 27.0903 21.253 27.3925 21.5585C27.6947 21.8641 28.0714 22.0169 28.5225 22.0169ZM32.0725 14.9056L31.8642 14.0306C31.5864 13.9195 31.3017 13.7667 31.01 13.5723C30.7183 13.3778 30.4753 13.1695 30.2808 12.9473L29.1142 13.3664C28.9197 13.427 28.7322 13.4278 28.5517 13.3689C28.3711 13.31 28.2253 13.1973 28.1142 13.0306L27.9475 12.7806C27.8364 12.5862 27.8017 12.3917 27.8433 12.1973C27.885 12.0028 27.9892 11.8362 28.1558 11.6973L29.0725 10.9889C29.0169 10.85 28.9683 10.6973 28.9267 10.5306C28.885 10.3639 28.8642 10.1973 28.8642 10.0306C28.8642 9.86393 28.885 9.69893 28.9267 9.5356C28.9683 9.37227 29.0169 9.21782 29.0725 9.07227L28.1558 8.36393C27.9892 8.23171 27.885 8.06046 27.8433 7.85018C27.8017 7.64018 27.8364 7.45116 27.9475 7.2831L28.1142 7.07227C28.2253 6.9056 28.3711 6.78754 28.5517 6.7181C28.7322 6.64865 28.9197 6.64171 29.1142 6.69727L30.2808 7.11393C30.4753 6.89838 30.7183 6.68518 31.01 6.47435C31.3017 6.26352 31.5864 6.1156 31.8642 6.0306L32.0725 5.1556C32.1281 4.98893 32.2253 4.85004 32.3642 4.73893C32.5031 4.62782 32.6558 4.57227 32.8225 4.57227H33.2392C33.4058 4.57227 33.5586 4.62782 33.6975 4.73893C33.8364 4.85004 33.9336 4.98893 33.9892 5.1556L34.1975 6.0306C34.4753 6.11393 34.76 6.26143 35.0517 6.4731C35.3433 6.68477 35.5864 6.89838 35.7808 7.11393L36.9475 6.69727C37.1419 6.64171 37.3294 6.64171 37.51 6.69727C37.6906 6.75282 37.8364 6.86393 37.9475 7.0306L38.1142 7.2806C38.2253 7.47504 38.26 7.67116 38.2183 7.86893C38.1767 8.06671 38.0725 8.23171 37.9058 8.36393L36.9892 9.07227C37.0447 9.21782 37.0933 9.37296 37.135 9.53768C37.1767 9.70268 37.1975 9.86699 37.1975 10.0306C37.1975 10.1973 37.1767 10.3639 37.135 10.5306C37.0933 10.6973 37.0447 10.85 36.9892 10.9889L37.9058 11.6973C38.0725 11.8362 38.1767 12.0098 38.2183 12.2181C38.26 12.4264 38.2253 12.6139 38.1142 12.7806L37.9475 12.9889C37.8364 13.1556 37.6906 13.2753 37.51 13.3481C37.3294 13.4209 37.1419 13.427 36.9475 13.3664L35.7808 12.9473C35.5864 13.1695 35.3433 13.3778 35.0517 13.5723C34.76 13.7667 34.4753 13.9195 34.1975 14.0306L33.9892 14.9056C33.9336 15.0723 33.8364 15.2112 33.6975 15.3223C33.5586 15.4334 33.4058 15.4889 33.2392 15.4889H32.8225C32.6558 15.4889 32.5031 15.4334 32.3642 15.3223C32.2253 15.2112 32.1281 15.0723 32.0725 14.9056ZM33.0308 12.4473C33.7253 12.4473 34.3017 12.2181 34.76 11.7598C35.2183 11.3014 35.4475 10.725 35.4475 10.0306C35.4475 9.33615 35.2183 8.75977 34.76 8.30143C34.3017 7.8431 33.7253 7.61393 33.0308 7.61393C32.3364 7.61393 31.76 7.8431 31.3017 8.30143C30.8433 8.75977 30.6142 9.33615 30.6142 10.0306C30.6142 10.725 30.8433 11.3014 31.3017 11.7598C31.76 12.2181 32.3364 12.4473 33.0308 12.4473Z" stroke="#2DA2DB" stroke-width="4" mask="url(#path-1-inside-1_10553_17027)"/>
</svg>
