<svg width="48" height="48" viewBox="0 0 48 48" fill="none" xmlns="http://www.w3.org/2000/svg">
<path d="M16.5234 34.627H18.5586C17.5528 35.4465 16.9132 36.7014 16.9131 38.0996C16.9131 39.6417 17.6942 41.0123 18.8877 41.8135H16.5234C15.9785 41.8135 15.1436 41.2094 15.1436 39.9189V36.5244C15.1436 35.2315 15.981 34.627 16.5234 34.627ZM41.917 34.627C42.4561 34.627 43.2939 35.2305 43.2939 36.5244V39.9189C43.2939 41.2085 42.4549 41.8135 41.917 41.8135H39.7178C40.8668 41.027 41.6348 39.7258 41.6348 38.2148C41.6347 36.7136 40.8794 35.417 39.7441 34.627H41.917ZM33.0713 40.0762C33.4078 40.7799 33.9283 41.3761 34.5674 41.8135H31.5566C32.2056 41.3839 32.7315 40.7835 33.0713 40.0762ZM25.2871 40.0547C25.6261 40.7713 26.1561 41.3795 26.8115 41.8135H23.7627C24.4141 41.3757 24.9418 40.7679 25.2871 40.0547ZM34.541 34.627C33.9166 35.0615 33.4072 35.6489 33.0752 36.3398C32.7442 35.6471 32.2349 35.0561 31.6064 34.627H34.541ZM26.7617 34.627C26.1605 35.0376 25.6688 35.5967 25.3379 36.251C25.0514 35.6164 24.6219 35.0608 24.0898 34.627H26.7617Z" stroke="#2DA2DB" stroke-width="3"/>
<path d="M13.7749 4.16016L13.0464 6.04785L12.9312 6.34473L13.1519 6.57422L19.8647 13.5732L22.0063 18.9648L22.1313 19.2803H33.9399L33.8901 24.0381L33.8853 24.5459L34.394 24.543L39.7563 24.5088H39.7964L39.8364 24.502C39.8386 24.5016 39.8429 24.5009 39.8491 24.5C39.8618 24.4982 39.8824 24.496 39.9097 24.4932C39.9646 24.4875 40.046 24.481 40.144 24.4795C40.3437 24.4764 40.5963 24.4936 40.8384 24.5645C41.0789 24.6349 41.2867 24.7512 41.4351 24.9316C41.579 25.1068 41.7046 25.3877 41.7046 25.8594V29.0449C41.7046 30.7944 41.1823 31.1673 40.9302 31.2598C40.7675 31.3192 40.5897 31.3159 40.4351 31.2871C40.3604 31.2732 40.2982 31.2546 40.2563 31.2402C40.2357 31.2331 40.2198 31.2271 40.2114 31.2236L40.2046 31.2207L40.1089 31.1768H24.0903L23.9683 31.2549L23.9673 31.2559C23.9648 31.2574 23.9596 31.2606 23.9526 31.2646C23.9387 31.2729 23.9166 31.2861 23.8872 31.3018C23.8277 31.3334 23.7414 31.3755 23.6382 31.415C23.4223 31.4978 23.1758 31.5522 22.9575 31.5225C22.7679 31.4965 22.5674 31.4045 22.395 31.1123C22.2071 30.7936 22.0435 30.2174 22.0435 29.21V26.3086C22.022 26.3086 22.0004 26.3086 21.979 26.3086L18.6772 14.4902L18.6431 14.3691L18.5562 14.2783L12.9067 8.38574L12.3413 7.7959L12.0737 8.56738L8.18213 19.7686L8.06689 20.1006L8.34033 20.3213C9.64537 21.3762 11.2189 23.7705 12.1802 26.0859C12.6587 27.2385 12.966 28.3263 13.0239 29.1768C13.0841 30.062 12.8689 30.4877 12.5708 30.6475V30.6484C11.2577 31.3541 9.56634 31.2775 7.97412 30.6289C6.48367 30.0217 5.1563 28.9419 4.40283 27.6758L4.26025 27.4199C2.8469 24.7071 3.85561 21.3469 6.5083 19.8535L6.67041 19.7617L6.73389 19.5869L12.4604 3.64941L13.7749 4.16016ZM23.3296 29.877H32.4155V20.71H23.3296V29.877Z" fill="#2DA2DB" stroke="#2DA2DB"/>
</svg>
