<svg width="48" height="48" viewBox="0 0 48 48" fill="none" xmlns="http://www.w3.org/2000/svg">
<path d="M9.10743 42.2994C8.18743 42.2994 7.38976 41.9616 6.71443 41.286C6.03876 40.6106 5.70093 39.813 5.70093 38.893V30.407C5.70093 29.9263 5.86543 29.5223 6.19443 29.195C6.52343 28.8676 6.92959 28.704 7.41293 28.704C7.89626 28.704 8.29959 28.8676 8.62293 29.195C8.94593 29.5223 9.10743 29.9263 9.10743 30.407V38.893H38.8924V9.10795H9.10743V17.582C9.10743 18.0706 8.94293 18.4786 8.61393 18.806C8.28493 19.1333 7.87876 19.297 7.39543 19.297C6.91209 19.297 6.50893 19.1333 6.18593 18.806C5.86259 18.4786 5.70093 18.0706 5.70093 17.582V9.10795C5.70093 8.18462 6.03876 7.38412 6.71443 6.70645C7.38976 6.02845 8.18743 5.68945 9.10743 5.68945H38.8924C39.8158 5.68945 40.6163 6.02845 41.2939 6.70645C41.9719 7.38412 42.3109 8.18462 42.3109 9.10795V38.893C42.3109 39.813 41.9719 40.6106 41.2939 41.286C40.6163 41.9616 39.8158 42.2994 38.8924 42.2994H9.10743ZM24.0489 25.704H7.40443C6.92343 25.704 6.51926 25.5393 6.19193 25.21C5.86459 24.881 5.70093 24.4748 5.70093 23.9915C5.70093 23.5085 5.86459 23.1053 6.19193 22.782C6.51926 22.4586 6.92343 22.297 7.40443 22.297H24.0489L19.5239 17.7605C19.1839 17.4255 19.0203 17.0121 19.0329 16.5205C19.0456 16.0288 19.2179 15.6128 19.5499 15.2725C19.8986 14.9318 20.3256 14.7638 20.8309 14.7685C21.3363 14.7731 21.7589 14.9455 22.0989 15.2855L29.6204 22.795C29.8024 22.979 29.9349 23.1726 30.0179 23.376C30.1009 23.579 30.1424 23.7898 30.1424 24.0085C30.1424 24.2271 30.1009 24.4355 30.0179 24.6335C29.9349 24.8318 29.8024 25.0226 29.6204 25.206L22.0489 32.7775C21.6979 33.1095 21.2809 33.2695 20.7979 33.2575C20.3149 33.2455 19.9004 33.0688 19.5544 32.7275C19.2194 32.3878 19.0539 31.9633 19.0579 31.454C19.0619 30.9443 19.2339 30.5231 19.5739 30.1905L24.0489 25.704Z" fill="#2DA2DB"/>
</svg>
