<svg width="18" height="18" viewBox="0 0 18 18" fill="none" xmlns="http://www.w3.org/2000/svg">
<mask id="path-1-inside-1_10684_9056" fill="white">
<path d="M1.83203 16.6069C1.50203 16.6069 1.21592 16.4857 0.973676 16.2433C0.731317 16.0011 0.610138 15.715 0.610138 15.385V13.7813C0.610138 13.6088 0.669143 13.4639 0.787154 13.3465C0.905165 13.2291 1.05086 13.1704 1.22422 13.1704C1.39759 13.1704 1.54227 13.2291 1.65825 13.3465C1.77411 13.4639 1.83203 13.6088 1.83203 13.7813V15.385H3.43576C3.60818 15.385 3.75309 15.444 3.8705 15.562C3.98792 15.68 4.04662 15.8257 4.04662 15.9991C4.04662 16.1724 3.98792 16.3171 3.8705 16.4329C3.75309 16.5489 3.60818 16.6069 3.43576 16.6069H1.83203ZM15.3897 16.6069H13.7859C13.6135 16.6069 13.4686 16.5479 13.3512 16.4299C13.2338 16.3119 13.1751 16.1662 13.1751 15.9928C13.1751 15.8194 13.2338 15.6748 13.3512 15.5588C13.4686 15.4429 13.6135 15.385 13.7859 15.385H15.3897V13.7813C15.3897 13.6088 15.4487 13.4639 15.5667 13.3465C15.6847 13.2291 15.8304 13.1704 16.0037 13.1704C16.1771 13.1704 16.3217 13.2291 16.4376 13.3465C16.5536 13.4639 16.6115 13.6088 16.6115 13.7813V15.385C16.6115 15.715 16.4904 16.0011 16.248 16.2433C16.0058 16.4857 15.7197 16.6069 15.3897 16.6069ZM8.5895 13.2717C7.28134 13.2717 6.08353 12.9273 4.99609 12.2383C3.90852 11.5494 3.03928 10.6011 2.38837 9.39351C2.3201 9.27454 2.27186 9.149 2.24364 9.01688C2.21542 8.88476 2.20131 8.75001 2.20131 8.61263C2.20131 8.47274 2.21692 8.33667 2.24812 8.20444C2.27933 8.07208 2.32608 7.94498 2.38837 7.82314C3.03928 6.60358 3.90787 5.64861 4.99412 4.95824C6.08037 4.26787 7.27781 3.92269 8.58645 3.92269C9.89509 3.92269 11.097 4.26715 12.1921 4.95609C13.2872 5.64502 14.1602 6.59927 14.8111 7.81884C14.8793 7.94067 14.9283 8.06855 14.958 8.20246C14.9876 8.33638 15.0024 8.47023 15.0024 8.60402C15.0024 8.73794 14.9869 8.87292 14.9558 9.00899C14.9247 9.14505 14.875 9.27466 14.8068 9.39782C14.1587 10.6054 13.2875 11.553 12.1931 12.2405C11.0988 12.928 9.89755 13.2717 8.5895 13.2717ZM8.58807 12.08C9.69608 12.08 10.7276 11.7682 11.6827 11.1447C12.6378 10.5213 13.3679 9.67509 13.8729 8.60617C13.3679 7.53726 12.638 6.68811 11.6833 6.05872C10.7285 5.42933 9.69626 5.11463 8.58645 5.11463C7.4788 5.11463 6.4515 5.42933 5.50454 6.05872C4.55758 6.68811 3.83158 7.53726 3.32654 8.60617C3.83158 9.67509 4.55776 10.5213 5.50508 11.1447C6.45239 11.7682 7.48006 12.08 8.58807 12.08ZM8.60833 10.9843C9.26905 10.9843 9.83543 10.7511 10.3075 10.2847C10.7795 9.81827 11.0155 9.25816 11.0155 8.60438C11.0155 7.9506 10.7799 7.38882 10.3087 6.91905C9.83752 6.44928 9.26983 6.21439 8.60564 6.21439C7.9472 6.21439 7.38925 6.44742 6.93179 6.91349C6.47433 7.37956 6.24561 7.94408 6.24561 8.60707C6.24561 9.27006 6.47565 9.83202 6.93574 10.2929C7.39594 10.7539 7.95347 10.9843 8.60833 10.9843ZM8.60564 9.82664C8.26608 9.82664 7.97864 9.70821 7.74334 9.47135C7.50803 9.23437 7.39038 8.94664 7.39038 8.60815C7.39038 8.26954 7.50792 7.97888 7.74298 7.73616C7.97805 7.49344 8.26578 7.37208 8.60618 7.37208C8.94658 7.37208 9.23743 7.4923 9.47871 7.73275C9.72011 7.9732 9.84081 8.26512 9.84081 8.60851C9.84081 8.94711 9.72071 9.23479 9.4805 9.47153C9.2403 9.70827 8.94868 9.82664 8.60564 9.82664ZM16.6115 1.82736V3.43109C16.6115 3.60351 16.5525 3.74842 16.4345 3.86583C16.3165 3.98325 16.1708 4.04195 15.9975 4.04195C15.8241 4.04195 15.6794 3.98325 15.5634 3.86583C15.4476 3.74842 15.3897 3.60351 15.3897 3.43109V1.82736H13.7859C13.6135 1.82736 13.4686 1.76836 13.3512 1.65035C13.2338 1.53234 13.1751 1.38665 13.1751 1.21328C13.1751 1.03991 13.2338 0.895294 13.3512 0.779435C13.4686 0.663457 13.6135 0.605469 13.7859 0.605469H15.3897C15.7197 0.605469 16.0058 0.726647 16.248 0.969006C16.4904 1.21125 16.6115 1.49736 16.6115 1.82736ZM1.83203 0.605469H3.43576C3.60818 0.605469 3.75309 0.664474 3.8705 0.782485C3.98792 0.900496 4.04662 1.04619 4.04662 1.21956C4.04662 1.39293 3.98792 1.5376 3.8705 1.65358C3.75309 1.76944 3.60818 1.82736 3.43576 1.82736H1.83203V3.43109C1.83203 3.60351 1.77303 3.74842 1.65502 3.86583C1.53701 3.98325 1.39132 4.04195 1.21795 4.04195C1.04458 4.04195 0.899964 3.98325 0.784105 3.86583C0.668127 3.74842 0.610138 3.60351 0.610138 3.43109V1.82736C0.610138 1.49736 0.731317 1.21125 0.973676 0.969006C1.21592 0.726647 1.50203 0.605469 1.83203 0.605469Z"/>
</mask>
<path d="M0.973676 16.2433L1.98847 15.229L1.98797 15.2285L0.973676 16.2433ZM1.65825 13.3465L2.67953 12.3388L2.67901 12.3382L1.65825 13.3465ZM1.83203 15.385H0.397252V16.8198H1.83203V15.385ZM3.8705 16.4329L2.86274 15.4116L2.86221 15.4122L3.8705 16.4329ZM13.3512 15.5588L12.3434 14.5375L12.3429 14.538L13.3512 15.5588ZM15.3897 15.385V16.8198H16.8244V15.385H15.3897ZM16.4376 13.3465L15.4163 14.3543L15.4168 14.3548L16.4376 13.3465ZM16.248 16.2433L15.2337 15.2285L15.2332 15.229L16.248 16.2433ZM4.99609 12.2383L5.76395 11.0263L5.76389 11.0263L4.99609 12.2383ZM2.38837 9.39351L3.65137 8.71274L3.64231 8.69593L3.6328 8.67937L2.38837 9.39351ZM2.24812 8.20444L3.64455 8.53397L3.64461 8.53369L2.24812 8.20444ZM2.38837 7.82314L1.12259 7.14756L1.11664 7.15872L1.11088 7.16998L2.38837 7.82314ZM14.8111 7.81884L13.5453 8.49442L13.5522 8.50739L13.5594 8.52021L14.8111 7.81884ZM14.8068 9.39782L13.5519 8.70216L13.5472 8.71074L13.5425 8.71938L14.8068 9.39782ZM11.6827 11.1447L10.8985 9.94318L10.8984 9.94325L11.6827 11.1447ZM13.8729 8.60617L15.1702 9.21911L15.4598 8.60617L15.1702 7.99324L13.8729 8.60617ZM3.32654 8.60617L2.02927 7.99324L1.73967 8.60617L2.02927 9.21911L3.32654 8.60617ZM5.50508 11.1447L6.29392 9.9462L6.29382 9.94613L5.50508 11.1447ZM6.93574 10.2929L5.92027 11.3066L5.9204 11.3067L6.93574 10.2929ZM7.74334 9.47135L6.72521 10.4823L6.72546 10.4825L7.74334 9.47135ZM9.47871 7.73275L8.46593 8.74906L8.46618 8.74931L9.47871 7.73275ZM15.5634 3.86583L14.5422 4.87359L14.5427 4.87412L15.5634 3.86583ZM15.3897 1.82736H16.8244V0.392582H15.3897V1.82736ZM13.3512 0.779435L14.3589 1.80072L14.3595 1.8002L13.3512 0.779435ZM16.248 0.969006L15.2332 1.9833L15.2337 1.9838L16.248 0.969006ZM3.8705 1.65358L4.87826 2.67486L4.87879 2.67434L3.8705 1.65358ZM1.83203 1.82736V0.392582H0.397252V1.82736H1.83203ZM0.784105 3.86583L1.80539 2.85807L1.80487 2.85754L0.784105 3.86583ZM0.973676 0.969006L1.98797 1.9838L1.98847 1.9833L0.973676 0.969006ZM1.83203 16.6069V15.1721C1.84718 15.1721 1.88472 15.1759 1.9295 15.1948C1.97321 15.2133 1.99246 15.233 1.98847 15.229L0.973676 16.2433L-0.0411187 17.2576C0.458691 17.7577 1.10539 18.0417 1.83203 18.0417V16.6069ZM0.973676 16.2433L1.98797 15.2285C1.98398 15.2246 2.00369 15.2438 2.0222 15.2875C2.04116 15.3323 2.04492 15.3698 2.04492 15.385H0.610138H-0.824645C-0.824645 16.1116 -0.540673 16.7583 -0.0406181 17.2581L0.973676 16.2433ZM0.610138 15.385H2.04492V13.7813H0.610138H-0.824645V15.385H0.610138ZM0.610138 13.7813H2.04492C2.04492 13.8616 2.03051 13.9683 1.98324 14.0843C1.93556 14.2014 1.86776 14.2953 1.79912 14.3636L0.787154 13.3465L-0.224811 12.3294C-0.624085 12.7267 -0.824645 13.2423 -0.824645 13.7813H0.610138ZM0.787154 13.3465L1.79912 14.3636C1.73038 14.432 1.63678 14.4986 1.52118 14.5452C1.40673 14.5913 1.30221 14.6052 1.22422 14.6052V13.1704V11.7356C0.689105 11.7356 0.174229 11.9324 -0.224811 12.3294L0.787154 13.3465ZM1.22422 13.1704V14.6052C1.1464 14.6052 1.04025 14.5914 0.923268 14.5439C0.804846 14.4959 0.708499 14.4267 0.637485 14.3548L1.65825 13.3465L2.67901 12.3382C2.27866 11.9329 1.75959 11.7356 1.22422 11.7356V13.1704ZM1.65825 13.3465L0.636965 14.3543C0.568375 14.2848 0.502311 14.1909 0.456312 14.0758C0.410805 13.962 0.397252 13.8584 0.397252 13.7813H1.83203H3.26682C3.26682 13.2506 3.07337 12.7379 2.67953 12.3388L1.65825 13.3465ZM1.83203 13.7813H0.397252V15.385H1.83203H3.26682V13.7813H1.83203ZM1.83203 15.385V16.8198H3.43576V15.385V13.9502H1.83203V15.385ZM3.43576 15.385V16.8198C3.35541 16.8198 3.24876 16.8054 3.13268 16.7581C3.01559 16.7104 2.92168 16.6426 2.85338 16.574L3.8705 15.562L4.88762 14.55C4.49037 14.1508 3.97473 13.9502 3.43576 13.9502V15.385ZM3.8705 15.562L2.85338 16.574C2.785 16.5052 2.71837 16.4116 2.67179 16.296C2.62567 16.1816 2.61184 16.0771 2.61184 15.9991H4.04662H5.4814C5.4814 15.464 5.28464 14.9491 4.88762 14.55L3.8705 15.562ZM4.04662 15.9991H2.61184C2.61184 15.9213 2.62563 15.815 2.67318 15.6979C2.72132 15.5793 2.79064 15.4828 2.86274 15.4116L3.8705 16.4329L4.87826 17.4542C5.28406 17.0538 5.4814 16.5344 5.4814 15.9991H4.04662ZM3.8705 16.4329L2.86221 15.4122C2.93166 15.3436 3.02552 15.2774 3.14071 15.2313C3.25467 15.1857 3.35849 15.1721 3.43576 15.1721V16.6069V18.0417C3.96688 18.0417 4.47976 17.8478 4.87879 17.4537L3.8705 16.4329ZM3.43576 16.6069V15.1721H1.83203V16.6069V18.0417H3.43576V16.6069ZM15.3897 16.6069V15.1721H13.7859V16.6069V18.0417H15.3897V16.6069ZM13.7859 16.6069V15.1721C13.8663 15.1721 13.9729 15.1865 14.089 15.2338C14.2061 15.2815 14.3 15.3493 14.3683 15.4179L13.3512 16.4299L12.3341 17.4418C12.7313 17.8411 13.247 18.0417 13.7859 18.0417V16.6069ZM13.3512 16.4299L14.3683 15.4179C14.4367 15.4866 14.5033 15.5802 14.5499 15.6958C14.596 15.8103 14.6098 15.9148 14.6098 15.9928H13.1751H11.7403C11.7403 16.5279 11.9371 17.0428 12.3341 17.4418L13.3512 16.4299ZM13.1751 15.9928H14.6098C14.6098 16.0706 14.5961 16.1768 14.5486 16.2937C14.5005 16.4122 14.4314 16.5085 14.3595 16.5795L13.3512 15.5588L12.3429 14.538C11.9376 14.9384 11.7403 15.4574 11.7403 15.9928H13.1751ZM13.3512 15.5588L14.3589 16.5801C14.2894 16.6486 14.1956 16.7147 14.0805 16.7607C13.9667 16.8062 13.863 16.8198 13.7859 16.8198V15.385V13.9502C13.2553 13.9502 12.7425 14.1436 12.3434 14.5375L13.3512 15.5588ZM13.7859 15.385V16.8198H15.3897V15.385V13.9502H13.7859V15.385ZM15.3897 15.385H16.8244V13.7813H15.3897H13.9549V15.385H15.3897ZM15.3897 13.7813H16.8244C16.8244 13.8616 16.81 13.9683 16.7628 14.0843C16.7151 14.2014 16.6473 14.2953 16.5786 14.3636L15.5667 13.3465L14.5547 12.3294C14.1554 12.7267 13.9549 13.2423 13.9549 13.7813H15.3897ZM15.5667 13.3465L16.5786 14.3636C16.5099 14.432 16.4163 14.4986 16.3007 14.5452C16.1862 14.5913 16.0817 14.6052 16.0037 14.6052V13.1704V11.7356C15.4686 11.7356 14.9537 11.9324 14.5547 12.3294L15.5667 13.3465ZM16.0037 13.1704V14.6052C15.9259 14.6052 15.8197 14.5914 15.7025 14.5438C15.584 14.4957 15.4874 14.4264 15.4163 14.3543L16.4376 13.3465L17.4589 12.3388C17.0584 11.933 16.5391 11.7356 16.0037 11.7356V13.1704ZM16.4376 13.3465L15.4168 14.3548C15.3482 14.2854 15.2821 14.1915 15.236 14.0763C15.1904 13.9623 15.1768 13.8585 15.1768 13.7813H16.6115H18.0463C18.0463 13.2501 17.8525 12.7373 17.4583 12.3382L16.4376 13.3465ZM16.6115 13.7813H15.1768V15.385H16.6115H18.0463V13.7813H16.6115ZM16.6115 15.385H15.1768C15.1768 15.3698 15.1805 15.3323 15.1995 15.2875C15.218 15.2438 15.2377 15.2246 15.2337 15.2285L16.248 16.2433L17.2623 17.2581C17.7624 16.7583 18.0463 16.1116 18.0463 15.385H16.6115ZM16.248 16.2433L15.2332 15.229C15.2292 15.233 15.2485 15.2133 15.2922 15.1948C15.337 15.1759 15.3745 15.1721 15.3897 15.1721V16.6069V18.0417C16.1163 18.0417 16.763 17.7577 17.2628 17.2576L16.248 16.2433ZM8.5895 13.2717V11.8369C7.54857 11.8369 6.61781 11.5673 5.76395 11.0263L4.99609 12.2383L4.22823 13.4503C5.54926 14.2873 7.01411 14.7065 8.5895 14.7065V13.2717ZM4.99609 12.2383L5.76389 11.0263C4.89788 10.4777 4.19343 9.71841 3.65137 8.71274L2.38837 9.39351L1.12538 10.0743C1.88514 11.4838 2.91917 12.6211 4.22829 13.4504L4.99609 12.2383ZM2.38837 9.39351L3.6328 8.67937C3.63464 8.68257 3.63743 8.68805 3.64028 8.69546C3.64314 8.70289 3.64532 8.71038 3.64678 8.71721L2.24364 9.01688L0.8405 9.31656C0.900282 9.59647 1.00274 9.8616 1.14394 10.1077L2.38837 9.39351ZM2.24364 9.01688L3.64678 8.71721C3.63995 8.68525 3.63609 8.65099 3.63609 8.61263H2.20131H0.766529C0.766529 8.84903 0.790891 9.08428 0.8405 9.31656L2.24364 9.01688ZM2.20131 8.61263H3.63609C3.63609 8.58041 3.63957 8.55506 3.64455 8.53397L2.24812 8.20444L0.851695 7.8749C0.794259 8.11829 0.766529 8.36507 0.766529 8.61263H2.20131ZM2.24812 8.20444L3.64461 8.53369C3.64916 8.5144 3.65579 8.496 3.66586 8.4763L2.38837 7.82314L1.11088 7.16998C0.996365 7.39396 0.909494 7.62975 0.851629 7.87518L2.24812 8.20444ZM2.38837 7.82314L3.65415 8.49872C4.19749 7.48071 4.90164 6.71705 5.76372 6.16915L4.99412 4.95824L4.22452 3.74732C2.91409 4.58017 1.88108 5.72645 1.12259 7.14756L2.38837 7.82314ZM4.99412 4.95824L5.76372 6.16915C6.61586 5.62757 7.54557 5.35747 8.58645 5.35747V3.92269V2.4879C7.01006 2.4879 5.54487 2.90817 4.22452 3.74732L4.99412 4.95824ZM8.58645 3.92269V5.35747C9.62804 5.35747 10.5645 5.6273 11.428 6.17053L12.1921 4.95609L12.9561 3.74164C11.6294 2.90701 10.1622 2.4879 8.58645 2.4879V3.92269ZM12.1921 4.95609L11.428 6.17053C12.2974 6.71744 13.0036 7.47946 13.5453 8.49442L14.8111 7.81884L16.0769 7.14326C15.3167 5.71909 14.2769 4.57261 12.9561 3.74164L12.1921 4.95609ZM14.8111 7.81884L13.5594 8.52021C13.5603 8.52178 13.5599 8.52134 13.5591 8.51916C13.5582 8.51697 13.5575 8.51461 13.5571 8.51265L14.958 8.20246L16.3588 7.89227C16.2983 7.61887 16.1983 7.35944 16.0627 7.11746L14.8111 7.81884ZM14.958 8.20246L13.5571 8.51265C13.5648 8.54727 13.5677 8.57715 13.5677 8.60402H15.0024H16.4372C16.4372 8.36331 16.4105 8.12548 16.3588 7.89227L14.958 8.20246ZM15.0024 8.60402H13.5677C13.5677 8.62595 13.5652 8.65377 13.5571 8.68942L14.9558 9.00899L16.3546 9.32856C16.4086 9.09208 16.4372 8.84992 16.4372 8.60402H15.0024ZM14.9558 9.00899L13.5571 8.68942C13.5563 8.69281 13.5554 8.69592 13.5519 8.70216L14.8068 9.39782L16.0616 10.0935C16.1947 9.8534 16.2932 9.5973 16.3546 9.32856L14.9558 9.00899ZM14.8068 9.39782L13.5425 8.71938C13.0048 9.72146 12.3008 10.4785 11.4299 11.0255L12.1931 12.2405L12.9564 13.4554C14.2743 12.6275 15.3127 11.4894 16.071 10.0763L14.8068 9.39782ZM12.1931 12.2405L11.4299 11.0255C10.5671 11.5676 9.63097 11.8369 8.5895 11.8369V13.2717V14.7065C10.1641 14.7065 11.6304 14.2884 12.9564 13.4554L12.1931 12.2405ZM8.58807 12.08V13.5147C9.98318 13.5147 11.286 13.1172 12.4671 12.3461L11.6827 11.1447L10.8984 9.94325C10.1693 10.4192 9.40897 10.6452 8.58807 10.6452V12.08ZM11.6827 11.1447L12.467 12.3461C13.6525 11.5723 14.5562 10.5187 15.1702 9.21911L13.8729 8.60617L12.5756 7.99324C12.1796 8.83152 11.6231 9.47022 10.8985 9.94318L11.6827 11.1447ZM13.8729 8.60617L15.1702 7.99324C14.5568 6.69494 13.655 5.64004 12.473 4.86082L11.6833 6.05872L10.8935 7.25662C11.621 7.73618 12.179 8.37958 12.5756 9.21911L13.8729 8.60617ZM11.6833 6.05872L12.473 4.86082C11.2914 4.08188 9.9859 3.67985 8.58645 3.67985V5.11463V6.54941C9.40662 6.54941 10.1657 6.77678 10.8935 7.25662L11.6833 6.05872ZM8.58645 5.11463V3.67985C7.18837 3.67985 5.88601 4.08239 4.71034 4.86379L5.50454 6.05872L6.29874 7.25364C7.01698 6.77627 7.76923 6.54941 8.58645 6.54941V5.11463ZM5.50454 6.05872L4.71034 4.86379C3.53697 5.64367 2.64126 6.69798 2.02927 7.99324L3.32654 8.60617L4.62381 9.21911C5.02191 8.37654 5.5782 7.73255 6.29874 7.25364L5.50454 6.05872ZM3.32654 8.60617L2.02927 9.21911C2.64184 10.5156 3.53938 11.5687 4.71634 12.3432L5.50508 11.1447L6.29382 9.94613C5.57615 9.47384 5.02132 8.83457 4.62381 7.99324L3.32654 8.60617ZM5.50508 11.1447L4.71623 12.3431C5.89191 13.117 7.19274 13.5147 8.58807 13.5147V12.08V10.6452C7.76737 10.6452 7.01288 10.4194 6.29392 9.9462L5.50508 11.1447ZM8.60833 10.9843V12.4191C9.64846 12.4191 10.5766 12.0358 11.3159 11.3053L10.3075 10.2847L9.29902 9.26409C9.09422 9.46645 8.88965 9.54954 8.60833 9.54954V10.9843ZM10.3075 10.2847L11.3159 11.3053C12.0562 10.5739 12.4503 9.64811 12.4503 8.60438H11.0155H9.58076C9.58076 8.86822 9.50288 9.06266 9.29902 9.26409L10.3075 10.2847ZM11.0155 8.60438H12.4503C12.4503 7.56179 12.0576 6.63657 11.3217 5.90296L10.3087 6.91905L9.29573 7.93514C9.50229 8.14107 9.58076 8.33941 9.58076 8.60438H11.0155ZM10.3087 6.91905L11.3217 5.90296C10.5821 5.1656 9.65036 4.77961 8.60564 4.77961V6.21439V7.64918C8.88929 7.64918 9.09293 7.73296 9.29573 7.93514L10.3087 6.91905ZM8.60564 6.21439V4.77961C7.56562 4.77961 6.63759 5.16495 5.90783 5.90845L6.93179 6.91349L7.95575 7.91853C8.1409 7.7299 8.32878 7.64918 8.60564 7.64918V6.21439ZM6.93179 6.91349L5.90783 5.90845C5.18262 6.64731 4.81082 7.57459 4.81082 8.60707H6.24561H7.68039C7.68039 8.31358 7.76605 8.1118 7.95575 7.91853L6.93179 6.91349ZM6.24561 8.60707H4.81082C4.81082 9.64246 5.18629 10.5713 5.92027 11.3066L6.93574 10.2929L7.9512 9.27932C7.765 9.09278 7.68039 8.89767 7.68039 8.60707H6.24561ZM6.93574 10.2929L5.9204 11.3067C6.65138 12.0388 7.57488 12.4191 8.60833 12.4191V10.9843V9.54954C8.33207 9.54954 8.14051 9.46892 7.95107 9.27919L6.93574 10.2929ZM8.60564 9.82664V8.39185C8.60441 8.39185 8.6122 8.39177 8.62704 8.39458C8.64216 8.39743 8.66114 8.40264 8.68198 8.41122C8.72752 8.42999 8.75438 8.45327 8.76122 8.46015L7.74334 9.47135L6.72546 10.4825C7.23522 10.9957 7.89123 11.2614 8.60564 11.2614V9.82664ZM7.74334 9.47135L8.76147 8.46041C8.76693 8.4659 8.78882 8.49113 8.80667 8.53478C8.81484 8.55475 8.81981 8.57299 8.82255 8.58757C8.82524 8.60189 8.82516 8.60939 8.82516 8.60815H7.39038H5.9556C5.9556 9.31963 6.21899 9.97247 6.72521 10.4823L7.74334 9.47135ZM7.39038 8.60815H8.82516C8.82516 8.60679 8.82525 8.61355 8.82281 8.62661C8.82033 8.6399 8.81586 8.65631 8.80869 8.67406C8.80151 8.69181 8.79325 8.70686 8.78562 8.71841C8.77811 8.72977 8.77308 8.73491 8.77364 8.73433L7.74298 7.73616L6.71232 6.73799C6.21744 7.24898 5.9556 7.89786 5.9556 8.60815H7.39038ZM7.74298 7.73616L8.77364 8.73433C8.768 8.74015 8.74083 8.76479 8.69267 8.78511C8.64473 8.80533 8.61013 8.80686 8.60618 8.80686V7.37208V5.9373C7.88055 5.9373 7.21993 6.21386 6.71232 6.73799L7.74298 7.73616ZM8.60618 7.37208V8.80686C8.60652 8.80686 8.59841 8.80686 8.58376 8.80407C8.56885 8.80123 8.55082 8.7962 8.53151 8.78822C8.51221 8.78024 8.49593 8.77109 8.48346 8.76264C8.4712 8.75433 8.46556 8.74869 8.46593 8.74906L9.47871 7.73275L10.4915 6.71644C9.98148 6.20821 9.32654 5.9373 8.60618 5.9373V7.37208ZM9.47871 7.73275L8.46618 8.74931C8.46316 8.74629 8.44204 8.72298 8.42437 8.68025C8.4068 8.63775 8.40603 8.60843 8.40603 8.60851H9.84081H11.2756C11.2756 7.88697 11.0053 7.22824 10.4912 6.71619L9.47871 7.73275ZM9.84081 8.60851H8.40603C8.40603 8.60453 8.40756 8.57132 8.42671 8.52544C8.44591 8.47944 8.46894 8.45399 8.47336 8.44964L9.4805 9.47153L10.4876 10.4934C11.0027 9.98582 11.2756 9.32953 11.2756 8.60851H9.84081ZM9.4805 9.47153L8.47336 8.44964C8.47769 8.44537 8.5011 8.42503 8.54201 8.40842C8.58245 8.39201 8.6089 8.39185 8.60564 8.39185V9.82664V11.2614C9.31837 11.2614 9.97389 10.9998 10.4876 10.4934L9.4805 9.47153ZM16.6115 1.82736H15.1768V3.43109H16.6115H18.0463V1.82736H16.6115ZM16.6115 3.43109H15.1768C15.1768 3.35074 15.1912 3.24409 15.2384 3.12801C15.2861 3.01092 15.3539 2.91701 15.4226 2.84872L16.4345 3.86583L17.4465 4.88295C17.8458 4.4857 18.0463 3.97006 18.0463 3.43109H16.6115ZM16.4345 3.86583L15.4226 2.84872C15.4913 2.78033 15.5849 2.7137 15.7005 2.66712C15.815 2.621 15.9195 2.60717 15.9975 2.60717V4.04195V5.47673C16.5326 5.47673 17.0475 5.27997 17.4465 4.88295L16.4345 3.86583ZM15.9975 4.04195V2.60717C16.0753 2.60717 16.1814 2.62096 16.2984 2.66843C16.4168 2.71648 16.5132 2.78565 16.5842 2.85754L15.5634 3.86583L14.5427 4.87412C14.943 5.27942 15.4621 5.47673 15.9975 5.47673V4.04195ZM15.5634 3.86583L16.5847 2.85807C16.6533 2.92758 16.7194 3.02144 16.7654 3.13651C16.8109 3.25034 16.8244 3.354 16.8244 3.43109H15.3897H13.9549C13.9549 3.96175 14.1483 4.47447 14.5422 4.87359L15.5634 3.86583ZM15.3897 3.43109H16.8244V1.82736H15.3897H13.9549V3.43109H15.3897ZM15.3897 1.82736V0.392582H13.7859V1.82736V3.26215H15.3897V1.82736ZM13.7859 1.82736V0.392582C13.8663 0.392582 13.9729 0.406997 14.089 0.454263C14.2061 0.501941 14.3 0.569743 14.3683 0.638383L13.3512 1.65035L12.3341 2.66231C12.7313 3.06159 13.247 3.26215 13.7859 3.26215V1.82736ZM13.3512 1.65035L14.3683 0.638383C14.4367 0.707121 14.5033 0.800717 14.5499 0.916319C14.596 1.03077 14.6098 1.13529 14.6098 1.21328H13.1751H11.7403C11.7403 1.7484 11.9371 2.26327 12.3341 2.66231L13.3512 1.65035ZM13.1751 1.21328H14.6098C14.6098 1.2911 14.5961 1.39734 14.5485 1.51447C14.5004 1.63306 14.4311 1.72957 14.3589 1.80072L13.3512 0.779435L12.3434 -0.241847C11.9376 0.158577 11.7403 0.677905 11.7403 1.21328H13.1751ZM13.3512 0.779435L14.3595 1.8002C14.29 1.86879 14.1962 1.93496 14.081 1.98105C13.967 2.02665 13.8632 2.04025 13.7859 2.04025V0.605469V-0.829314C13.2548 -0.829314 12.7419 -0.635479 12.3429 -0.241327L13.3512 0.779435ZM13.7859 0.605469V2.04025H15.3897V0.605469V-0.829314H13.7859V0.605469ZM15.3897 0.605469V2.04025C15.3745 2.04025 15.337 2.03649 15.2922 2.01753C15.2485 1.99902 15.2292 1.97931 15.2332 1.9833L16.248 0.969006L17.2628 -0.0452881C16.763 -0.545344 16.1163 -0.829314 15.3897 -0.829314V0.605469ZM16.248 0.969006L15.2337 1.9838C15.2377 1.98779 15.218 1.96854 15.1995 1.92483C15.1805 1.88005 15.1768 1.84251 15.1768 1.82736H16.6115H18.0463C18.0463 1.10072 17.7624 0.454021 17.2623 -0.0457886L16.248 0.969006ZM1.83203 0.605469V2.04025H3.43576V0.605469V-0.829314H1.83203V0.605469ZM3.43576 0.605469V2.04025C3.35541 2.04025 3.24876 2.02584 3.13268 1.97857C3.01559 1.93089 2.92168 1.86309 2.85338 1.79445L3.8705 0.782485L4.88762 -0.22948C4.49037 -0.628754 3.97473 -0.829314 3.43576 -0.829314V0.605469ZM3.8705 0.782485L2.85338 1.79445C2.785 1.72571 2.71837 1.63212 2.67179 1.51651C2.62567 1.40206 2.61184 1.29754 2.61184 1.21956H4.04662H5.4814C5.4814 0.684435 5.28464 0.169559 4.88762 -0.22948L3.8705 0.782485ZM4.04662 1.21956H2.61184C2.61184 1.14173 2.62563 1.03558 2.6731 0.918597C2.72115 0.800174 2.79032 0.703828 2.86221 0.632814L3.8705 1.65358L4.87879 2.67434C5.28409 2.27399 5.4814 1.75492 5.4814 1.21956H4.04662ZM3.8705 1.65358L2.86274 0.632294C2.93225 0.563704 3.02611 0.49764 3.14118 0.451642C3.25501 0.406135 3.35867 0.392582 3.43576 0.392582V1.82736V3.26215C3.96642 3.26215 4.47914 3.0687 4.87826 2.67486L3.8705 1.65358ZM3.43576 1.82736V0.392582H1.83203V1.82736V3.26215H3.43576V1.82736ZM1.83203 1.82736H0.397252V3.43109H1.83203H3.26682V1.82736H1.83203ZM1.83203 3.43109H0.397252C0.397252 3.35074 0.411667 3.24409 0.458933 3.12801C0.506612 3.01092 0.574413 2.91701 0.643053 2.84872L1.65502 3.86583L2.66698 4.88295C3.06626 4.4857 3.26682 3.97006 3.26682 3.43109H1.83203ZM1.65502 3.86583L0.643053 2.84872C0.711791 2.78033 0.805388 2.7137 0.920989 2.66712C1.03544 2.621 1.13996 2.60717 1.21795 2.60717V4.04195V5.47673C1.75307 5.47673 2.26794 5.27997 2.66698 4.88295L1.65502 3.86583ZM1.21795 4.04195V2.60717C1.29577 2.60717 1.40201 2.62096 1.51914 2.66851C1.63773 2.71665 1.73424 2.78597 1.80539 2.85807L0.784105 3.86583L-0.237177 4.87359C0.163247 5.27939 0.682575 5.47673 1.21795 5.47673V4.04195ZM0.784105 3.86583L1.80487 2.85754C1.87346 2.92699 1.93962 3.02085 1.98572 3.13603C2.03132 3.25 2.04492 3.35382 2.04492 3.43109H0.610138H-0.824645C-0.824645 3.96221 -0.630805 4.4751 -0.236657 4.87412L0.784105 3.86583ZM0.610138 3.43109H2.04492V1.82736H0.610138H-0.824645V3.43109H0.610138ZM0.610138 1.82736H2.04492C2.04492 1.84251 2.04116 1.88005 2.0222 1.92483C2.00368 1.96854 1.98398 1.98779 1.98797 1.9838L0.973676 0.969006L-0.0406181 -0.0457886C-0.540672 0.454019 -0.824645 1.10071 -0.824645 1.82736H0.610138ZM0.973676 0.969006L1.98847 1.9833C1.99246 1.97931 1.97321 1.99902 1.9295 2.01753C1.88472 2.03649 1.84718 2.04025 1.83203 2.04025V0.605469V-0.829314C1.10539 -0.829314 0.458691 -0.545344 -0.0411187 -0.0452881L0.973676 0.969006Z" fill="#2DA2DB" mask="url(#path-1-inside-1_10684_9056)"/>
</svg>
