<svg width="24" height="24" viewBox="0 0 24 24" fill="none" xmlns="http://www.w3.org/2000/svg">
<path d="M12.4615 18.0462L9.34501 15.6809C9.18784 15.5483 9.05009 15.4063 8.93176 15.2549C8.81342 15.1038 8.73367 14.9245 8.69251 14.7172L7.49025 9.4397L5.03851 11.5462L5.65176 14.4304C5.68892 14.6749 5.64542 14.8966 5.52126 15.0954C5.39692 15.2944 5.21251 15.4146 4.96801 15.4559C4.72334 15.4973 4.50259 15.4548 4.30576 15.3284C4.10876 15.2021 3.98959 15.0187 3.94826 14.7782L3.36026 11.9069C3.30226 11.6084 3.32092 11.3194 3.41626 11.0399C3.51159 10.7603 3.67317 10.5169 3.90101 10.3097L7.55926 7.05145C7.92126 6.72295 8.34551 6.58903 8.83201 6.6497C9.31867 6.71036 9.79692 6.83636 10.2668 7.0277C10.8216 7.25703 11.395 7.42586 11.987 7.5342C12.579 7.64253 13.171 7.65703 13.763 7.5777C14.1843 7.51503 14.5744 7.39303 14.9333 7.2117C15.2919 7.03036 15.6423 6.81661 15.9843 6.57045C16.1876 6.42528 16.4083 6.36203 16.6465 6.3807C16.8847 6.39936 17.0804 6.50195 17.2338 6.68845C17.3829 6.87911 17.4431 7.08936 17.4143 7.3192C17.3853 7.54903 17.2691 7.73661 17.0658 7.88195C16.6911 8.15261 16.3133 8.39411 15.9323 8.60645C15.5513 8.81878 15.1422 8.99161 14.705 9.12495C14.1415 9.28761 13.5604 9.35528 12.9618 9.32795C12.3629 9.30061 11.7798 9.21986 11.2125 9.0857L11.9838 12.5847L15.0653 11.9897C15.2931 11.9524 15.5158 11.9565 15.7335 12.0022C15.951 12.0477 16.1551 12.1368 16.3458 12.2694L20.0848 14.9204C20.2921 15.0698 20.4103 15.2594 20.4393 15.4892C20.4681 15.7192 20.4079 15.9358 20.2588 16.1389C20.1134 16.3296 19.93 16.4436 19.7085 16.4809C19.4868 16.5183 19.2808 16.4706 19.0903 16.3379L15.526 13.8369L11.551 14.6389L13.587 16.1347C13.8522 16.3419 14.0418 16.5926 14.1558 16.8869C14.2698 17.1811 14.2978 17.4878 14.2398 17.8069L13.5268 21.7782C13.4894 22.0227 13.3713 22.2061 13.1723 22.3284C12.9734 22.4508 12.7517 22.4913 12.507 22.4499C12.2625 22.4126 12.0781 22.2954 11.9538 22.0984C11.8296 21.9016 11.7881 21.6809 11.8293 21.4362L12.4615 18.0462ZM8.00001 4.9347C7.48484 4.9347 7.04742 4.75486 6.68776 4.3952C6.32809 4.0357 6.14826 3.59828 6.14826 3.08295C6.14826 2.56778 6.32809 2.13045 6.68776 1.77095C7.04742 1.41128 7.48484 1.23145 8.00001 1.23145C8.51517 1.23145 8.95259 1.41128 9.31226 1.77095C9.67192 2.13045 9.85176 2.56778 9.85176 3.08295C9.85176 3.59828 9.67192 4.0357 9.31226 4.3952C8.95259 4.75486 8.51517 4.9347 8.00001 4.9347Z" fill="#4CC4FE"/>
</svg>
