<svg width="18" height="18" viewBox="0 0 18 18" fill="none" xmlns="http://www.w3.org/2000/svg">
<mask id="path-1-inside-1_10684_9023" fill="white">
<path d="M3.85125 2.15234H13.3661C14.3045 2.15234 15.0652 2.91306 15.0652 3.85143V13.3663C15.0652 14.3047 14.3045 15.0654 13.3661 15.0654H3.85125C2.91287 15.0654 2.15216 14.3047 2.15216 13.3663V3.85143C2.15216 2.91306 2.91287 2.15234 3.85125 2.15234ZM3.85121 3.17179C3.47585 3.17179 3.17158 3.47607 3.17158 3.85143V13.3663C3.17158 13.7417 3.47585 14.0459 3.85121 14.0459H13.3661C13.7414 14.0459 14.0457 13.7417 14.0457 13.3663V3.85143C14.0457 3.47607 13.7414 3.17179 13.3661 3.17179H3.85121ZM8.60865 7.92923C8.98401 7.92923 9.28828 8.2335 9.28828 8.60887C9.28828 8.98423 8.98401 9.2885 8.60865 9.2885C8.23329 9.2885 7.92902 8.98423 7.92902 8.60887C7.92902 8.2335 8.23329 7.92923 8.60865 7.92923ZM12.8703 9.63746C12.4539 9.45919 12.0273 9.35011 11.6068 9.30957C11.1862 9.26906 10.7717 9.2971 10.3572 9.3251C10.4267 9.87577 10.4962 10.4264 10.4863 10.9853C10.4764 11.5441 10.387 12.111 10.2175 12.668C10.1304 12.9542 10.0221 13.2378 9.89295 13.5163L9.69691 13.5656C9.39325 13.6357 9.08966 13.6771 8.78896 13.6916C8.84163 13.4691 8.87775 13.2474 8.89763 13.0285C8.93854 12.5775 8.91044 12.138 8.81903 11.7255C8.72758 11.313 8.57287 10.9275 8.41811 10.5419C7.91586 10.7782 7.41362 11.0144 6.87908 11.1777C6.34458 11.3409 5.7778 11.4312 5.1957 11.4421C4.89598 11.4477 4.59222 11.4322 4.28686 11.3953C4.08497 11.0876 3.91452 10.7546 3.78104 10.3997C4.00882 10.381 4.23069 10.3469 4.44494 10.2982C4.88653 10.1977 5.29581 10.0352 5.65985 9.82076C6.02393 9.60636 6.34278 9.34005 6.66163 9.07374C6.28175 8.66908 5.90184 8.26443 5.58142 7.80649C5.26098 7.34859 5 6.83743 4.8098 6.28717C4.712 6.00434 4.63293 5.71118 4.57366 5.4099C4.8061 5.11966 5.07071 4.85406 5.36374 4.61911C5.45192 4.83017 5.55305 5.03083 5.6657 5.2197C5.89769 5.60866 6.17872 5.94766 6.49516 6.22763C6.8116 6.50761 7.16337 6.72856 7.51519 6.94954C7.78266 6.46319 8.05013 5.97681 8.38658 5.53057C8.72307 5.08432 9.12857 4.67817 9.5931 4.32724C9.83199 4.14673 10.0865 3.98087 10.3549 3.83135C10.7046 3.96408 11.0383 4.1347 11.3498 4.33937C11.1767 4.48825 11.0174 4.64616 10.8728 4.81138C10.5746 5.15221 10.339 5.52425 10.1705 5.91171C10.002 6.29916 9.90063 6.70202 9.7992 7.10487C10.3444 7.20896 10.8896 7.31304 11.418 7.49515C11.9464 7.67726 12.4579 7.93742 12.9353 8.27075C13.181 8.44239 13.4176 8.6334 13.643 8.84269C13.6252 9.21948 13.5654 9.58914 13.4674 9.94577C13.2721 9.82691 13.0724 9.72401 12.8703 9.63746ZM8.60865 7.41951C7.95178 7.41951 7.41929 7.952 7.41929 8.60887C7.41929 9.26573 7.95178 9.79823 8.60865 9.79823C9.26552 9.79823 9.79801 9.26573 9.79801 8.60887C9.79801 7.952 9.26552 7.41951 8.60865 7.41951Z"/>
</mask>
<path d="M12.8703 9.63746L15.2855 3.99723L15.2855 3.99723L12.8703 9.63746ZM11.6068 9.30957L12.1955 3.20229L12.195 3.20224L11.6068 9.30957ZM10.3572 9.3251L9.94368 3.20347L3.45618 3.64175L4.26989 10.0929L10.3572 9.3251ZM10.4863 10.9853L4.35166 10.8763L4.35165 10.8767L10.4863 10.9853ZM10.2175 12.668L16.0872 14.4547L16.0872 14.4546L10.2175 12.668ZM9.89295 13.5163L11.3895 19.4666L14.2282 18.7526L15.4594 16.0971L9.89295 13.5163ZM9.69691 13.5656L11.0771 19.544L11.1354 19.5305L11.1935 19.5159L9.69691 13.5656ZM8.78896 13.6916L2.81837 12.2783L0.94054 20.2112L9.0833 19.8201L8.78896 13.6916ZM8.89763 13.0285L15.0081 13.5834L15.0081 13.5828L8.89763 13.0285ZM8.81903 11.7255L14.8093 10.3981L14.8092 10.3976L8.81903 11.7255ZM8.41811 10.5419L14.1122 8.25647L11.6901 2.22206L5.80631 4.98999L8.41811 10.5419ZM6.87908 11.1777L5.08697 5.30965L5.08686 5.30969L6.87908 11.1777ZM5.1957 11.4421L5.0811 5.30754L5.08094 5.30754L5.1957 11.4421ZM4.28686 11.3953L-0.843134 14.7611L0.720869 17.1449L3.55137 17.4867L4.28686 11.3953ZM3.78104 10.3997L3.27928 4.28467L-4.82421 4.94958L-1.96174 12.5598L3.78104 10.3997ZM4.44494 10.2982L5.80566 16.281L5.80585 16.2809L4.44494 10.2982ZM5.65985 9.82076L2.54655 4.53372L2.54597 4.53406L5.65985 9.82076ZM6.66163 9.07374L10.5948 13.7828L15.5851 9.61474L11.1349 4.87431L6.66163 9.07374ZM5.58142 7.80649L10.6086 4.28902L10.6083 4.28859L5.58142 7.80649ZM4.8098 6.28717L10.6088 4.2828L10.6085 4.28204L4.8098 6.28717ZM4.57366 5.4099L-0.215454 1.57457L-1.99647 3.7985L-1.44656 6.59411L4.57366 5.4099ZM5.36374 4.61911L11.0251 2.25377L7.88344 -5.26553L1.52559 -0.16775L5.36374 4.61911ZM5.6657 5.2197L0.396215 8.36262L0.39625 8.36268L5.6657 5.2197ZM7.51519 6.94954L4.25166 12.1452L9.75793 15.6038L12.8914 9.90622L7.51519 6.94954ZM8.38658 5.53057L3.48762 1.83657L3.48744 1.83681L8.38658 5.53057ZM9.5931 4.32724L13.2915 9.22287L13.292 9.22247L9.5931 4.32724ZM10.3549 3.83135L12.5319 -1.90501L9.86261 -2.91807L7.36854 -1.52843L10.3549 3.83135ZM11.3498 4.33937L15.3505 8.99121L21.5234 3.68233L14.7189 -0.788434L11.3498 4.33937ZM10.8728 4.81138L6.2552 0.771202L6.25503 0.771393L10.8728 4.81138ZM10.1705 5.91171L15.797 8.35879L15.7972 8.35838L10.1705 5.91171ZM9.7992 7.10487L3.84933 5.60674L2.26164 11.9123L8.64862 13.1316L9.7992 7.10487ZM11.418 7.49515L13.4172 1.69442L13.4171 1.69438L11.418 7.49515ZM12.9353 8.27075L16.4488 3.24079L16.448 3.24026L12.9353 8.27075ZM13.643 8.84269L19.7717 9.13288L19.9065 6.28616L17.8182 4.34682L13.643 8.84269ZM13.4674 9.94577L10.2782 15.1873L17.228 19.416L19.3837 11.5716L13.4674 9.94577ZM3.85125 2.15234V8.28793H13.3661V2.15234V-3.98324H3.85125V2.15234ZM13.3661 2.15234V8.28793C10.9159 8.28793 8.92962 6.30165 8.92962 3.85143H15.0652H21.2008C21.2008 -0.475531 17.6931 -3.98324 13.3661 -3.98324V2.15234ZM15.0652 3.85143H8.92962V13.3663H15.0652H21.2008V3.85143H15.0652ZM15.0652 13.3663H8.92962C8.92962 10.9161 10.9159 8.9298 13.3661 8.9298V15.0654V21.201C17.6931 21.201 21.2008 17.6933 21.2008 13.3663H15.0652ZM13.3661 15.0654V8.9298H3.85125V15.0654V21.201H13.3661V15.0654ZM3.85125 15.0654V8.9298C6.30146 8.9298 8.28774 10.9161 8.28774 13.3663H2.15216H-3.98342C-3.98342 17.6933 -0.475714 21.201 3.85125 21.201V15.0654ZM2.15216 13.3663H8.28774V3.85143H2.15216H-3.98342V13.3663H2.15216ZM2.15216 3.85143H8.28774C8.28774 6.30165 6.30146 8.28793 3.85125 8.28793V2.15234V-3.98324C-0.475714 -3.98324 -3.98342 -0.475531 -3.98342 3.85143H2.15216ZM3.85121 3.17179V-2.96379C0.0872605 -2.96379 -2.96401 0.0874774 -2.96401 3.85143H3.17158H9.30716C9.30716 6.86466 6.86444 9.30738 3.85121 9.30738V3.17179ZM3.17158 3.85143H-2.96401V13.3663H3.17158H9.30716V3.85143H3.17158ZM3.17158 13.3663H-2.96401C-2.96401 17.1303 0.0872605 20.1815 3.85121 20.1815V14.0459V7.91035C6.86444 7.91035 9.30716 10.3531 9.30716 13.3663H3.17158ZM3.85121 14.0459V20.1815H13.3661V14.0459V7.91035H3.85121V14.0459ZM13.3661 14.0459V20.1815C17.1298 20.1815 20.1813 17.1305 20.1813 13.3663H14.0457H7.91014C7.91014 10.3529 10.353 7.91035 13.3661 7.91035V14.0459ZM14.0457 13.3663H20.1813V3.85143H14.0457H7.91014V13.3663H14.0457ZM14.0457 3.85143H20.1813C20.1813 0.0872777 17.1298 -2.96379 13.3661 -2.96379V3.17179V9.30738C10.353 9.30738 7.91014 6.86486 7.91014 3.85143H14.0457ZM13.3661 3.17179V-2.96379H3.85121V3.17179V9.30738H13.3661V3.17179ZM8.60865 7.92923V14.0648C5.59542 14.0648 3.1527 11.6221 3.1527 8.60887H9.28828H15.4239C15.4239 4.84491 12.3726 1.79365 8.60865 1.79365V7.92923ZM9.28828 8.60887H3.1527C3.1527 5.59564 5.59542 3.15292 8.60865 3.15292V9.2885V15.4241C12.3726 15.4241 15.4239 12.3728 15.4239 8.60887H9.28828ZM8.60865 9.2885V3.15292C11.6219 3.15292 14.0646 5.59564 14.0646 8.60887H7.92902H1.79343C1.79343 12.3728 4.8447 15.4241 8.60865 15.4241V9.2885ZM7.92902 8.60887H14.0646C14.0646 11.6221 11.6219 14.0648 8.60865 14.0648V7.92923V1.79365C4.8447 1.79365 1.79343 4.84491 1.79343 8.60887H7.92902ZM12.8703 9.63746L15.2855 3.99723C14.3085 3.57888 13.2671 3.30559 12.1955 3.20229L11.6068 9.30957L11.0181 15.4168C10.7876 15.3946 10.5994 15.3395 10.4551 15.2777L12.8703 9.63746ZM11.6068 9.30957L12.195 3.20224C11.1926 3.10571 10.2789 3.18082 9.94368 3.20347L10.3572 9.3251L10.7708 15.4467C10.8798 15.4394 10.9518 15.4346 11.0186 15.4307C11.0819 15.4271 11.1189 15.4257 11.1403 15.4251C11.1846 15.424 11.1303 15.4277 11.0186 15.4169L11.6068 9.30957ZM10.3572 9.3251L4.26989 10.0929C4.30695 10.3867 4.32722 10.5526 4.34053 10.7009C4.35266 10.836 4.35155 10.8824 4.35166 10.8763L10.4863 10.9853L16.6209 11.0942C16.6399 10.0225 16.505 9.03603 16.4446 8.55728L10.3572 9.3251ZM10.4863 10.9853L4.35165 10.8767C4.35184 10.8661 4.35266 10.8615 4.35246 10.8628C4.35227 10.864 4.35117 10.8703 4.3478 10.8814L10.2175 12.668L16.0872 14.4546C16.4194 13.3634 16.6008 12.232 16.6209 11.0938L10.4863 10.9853ZM10.2175 12.668L4.34785 10.8812C4.34434 10.8928 4.33783 10.9112 4.32655 10.9355L9.89295 13.5163L15.4594 16.0971C15.7063 15.5644 15.9164 15.0156 16.0872 14.4547L10.2175 12.668ZM9.89295 13.5163L8.39637 7.56607L8.20033 7.61538L9.69691 13.5656L11.1935 19.5159L11.3895 19.4666L9.89295 13.5163ZM9.69691 13.5656L8.31673 7.58731C8.37141 7.57468 8.43126 7.5661 8.49462 7.56306L8.78896 13.6916L9.0833 19.8201C9.74806 19.7882 10.4151 19.6968 11.0771 19.544L9.69691 13.5656ZM8.78896 13.6916L14.7595 15.1049C14.8777 14.6057 14.9614 14.0972 15.0081 13.5834L8.89763 13.0285L2.78719 12.4736C2.79409 12.3976 2.80554 12.3324 2.81837 12.2783L8.78896 13.6916ZM8.89763 13.0285L15.0081 13.5828C15.1042 12.524 15.0422 11.4491 14.8093 10.3981L8.81903 11.7255L2.82876 13.0529C2.77868 12.8269 2.77292 12.6309 2.78713 12.4742L8.89763 13.0285ZM8.81903 11.7255L14.8092 10.3976C14.5912 9.41446 14.2376 8.569 14.1122 8.25647L8.41811 10.5419L2.72407 12.8274C2.7647 12.9286 2.79151 12.9955 2.81576 13.0578C2.83872 13.1168 2.85151 13.1515 2.85864 13.1716C2.87342 13.2134 2.85314 13.1629 2.82887 13.0534L8.81903 11.7255ZM8.41811 10.5419L5.80631 4.98999C5.53865 5.11591 5.38711 5.18646 5.25039 5.24486C5.12573 5.29811 5.08124 5.3114 5.08697 5.30965L6.87908 11.1777L8.6712 17.0457C9.69634 16.7326 10.5927 16.2995 11.0299 16.0938L8.41811 10.5419ZM6.87908 11.1777L5.08686 5.30969C5.09683 5.30664 5.10132 5.30603 5.10005 5.30623C5.09881 5.30643 5.09248 5.30733 5.0811 5.30754L5.1957 11.4421L5.31029 17.5766C6.45102 17.5553 7.58295 17.3781 8.6713 17.0457L6.87908 11.1777ZM5.1957 11.4421L5.08094 5.30754C5.06945 5.30776 5.04979 5.3073 5.02235 5.30399L4.28686 11.3953L3.55137 17.4867C4.13465 17.5571 4.72251 17.5876 5.31046 17.5766L5.1957 11.4421ZM4.28686 11.3953L9.41685 8.02954C9.46035 8.09584 9.49638 8.16669 9.52382 8.23963L3.78104 10.3997L-1.96174 12.5598C-1.66734 13.3425 -1.29041 14.0794 -0.843134 14.7611L4.28686 11.3953ZM3.78104 10.3997L4.2828 16.5147C4.79324 16.4729 5.30235 16.3954 5.80566 16.281L4.44494 10.2982L3.08422 4.31537C3.15902 4.29836 3.2244 4.28917 3.27928 4.28467L3.78104 10.3997ZM4.44494 10.2982L5.80585 16.2809C6.84257 16.0451 7.84599 15.6539 8.77374 15.1074L5.65985 9.82076L2.54597 4.53406C2.74563 4.41646 2.9305 4.35034 3.08403 4.31541L4.44494 10.2982ZM5.65985 9.82076L8.77315 15.1078C9.64139 14.5965 10.3366 13.9985 10.5948 13.7828L6.66163 9.07374L2.72845 4.36465C2.64468 4.43462 2.58931 4.4808 2.53758 4.5231C2.48861 4.56315 2.45954 4.58603 2.44265 4.59899C2.40762 4.62587 2.4496 4.59081 2.54655 4.53372L5.65985 9.82076ZM6.66163 9.07374L11.1349 4.87431C10.9323 4.65846 10.8184 4.53618 10.7205 4.42415C10.6314 4.32204 10.6051 4.28393 10.6086 4.28902L5.58142 7.80649L0.554222 11.324C1.16886 12.2024 1.85806 12.9213 2.18836 13.2732L6.66163 9.07374ZM5.58142 7.80649L10.6083 4.28859C10.6143 4.29715 10.6163 4.30128 10.6158 4.3002C10.6152 4.29914 10.6124 4.29348 10.6088 4.2828L4.8098 6.28717L-0.989155 8.29154C-0.616378 9.37004 -0.0980208 10.3919 0.55452 11.3244L5.58142 7.80649ZM4.8098 6.28717L10.6085 4.28204C10.6048 4.27126 10.5992 4.25257 10.5939 4.22568L4.57366 5.4099L-1.44656 6.59411C-1.33332 7.16979 -1.18076 7.73742 -0.988894 8.29229L4.8098 6.28717ZM4.57366 5.4099L9.36278 9.24523C9.31669 9.30277 9.26304 9.35693 9.20188 9.40597L5.36374 4.61911L1.52559 -0.16775C0.878386 0.351184 0.295503 0.936544 -0.215454 1.57457L4.57366 5.4099ZM5.36374 4.61911L-0.297584 6.98445C-0.0995142 7.45852 0.131879 7.91943 0.396215 8.36262L5.6657 5.2197L10.9352 2.07678C10.9742 2.14223 11.0034 2.20182 11.0251 2.25377L5.36374 4.61911ZM5.6657 5.2197L0.39625 8.36268C0.94089 9.27581 1.623 10.1093 2.42948 10.8228L6.49516 6.22763L10.5608 1.63246C10.7344 1.78605 10.8545 1.9415 10.9351 2.07672L5.6657 5.2197ZM6.49516 6.22763L2.42948 10.8228C3.18365 11.4901 3.96684 11.9663 4.25166 12.1452L7.51519 6.94954L10.7787 1.75389C10.6863 1.69582 10.6252 1.6574 10.5689 1.62124C10.5157 1.58701 10.4849 1.56639 10.4672 1.55428C10.4307 1.52917 10.4768 1.55811 10.5608 1.63246L6.49516 6.22763ZM7.51519 6.94954L12.8914 9.90622C13.034 9.64684 13.1152 9.50065 13.1915 9.3729C13.2611 9.25644 13.2893 9.21952 13.2857 9.22432L8.38658 5.53057L3.48744 1.83681C2.84224 2.69256 2.37161 3.56989 2.13899 3.99286L7.51519 6.94954ZM8.38658 5.53057L13.2855 9.22456C13.2793 9.23289 13.276 9.23602 13.2769 9.2351C13.2778 9.23421 13.2824 9.22975 13.2915 9.22287L9.5931 4.32724L5.8947 -0.568391C4.98442 0.119276 4.17279 0.927903 3.48762 1.83657L8.38658 5.53057ZM9.5931 4.32724L13.292 9.22247C13.301 9.2157 13.3171 9.20458 13.3412 9.19112L10.3549 3.83135L7.36854 -1.52843C6.85597 -1.24285 6.36299 -0.922244 5.89417 -0.567993L9.5931 4.32724ZM10.3549 3.83135L8.17781 9.56771C8.10735 9.54096 8.04147 9.50713 7.98066 9.46718L11.3498 4.33937L14.7189 -0.788434C14.0351 -1.23773 13.3019 -1.61281 12.5319 -1.90501L10.3549 3.83135ZM11.3498 4.33937L7.34906 -0.312465C6.96091 0.0213556 6.59478 0.383085 6.2552 0.771202L10.8728 4.81138L15.4904 8.85155C15.44 8.90923 15.3925 8.95514 15.3505 8.99121L11.3498 4.33937ZM10.8728 4.81138L6.25503 0.771393C5.55531 1.57119 4.97339 2.47733 4.5439 3.46503L10.1705 5.91171L15.7972 8.35838C15.7047 8.57117 15.5939 8.73323 15.4906 8.85136L10.8728 4.81138ZM10.1705 5.91171L4.54408 3.46462C4.14228 4.38845 3.93135 5.28098 3.84933 5.60674L9.7992 7.10487L15.7491 8.603C15.7757 8.49706 15.7934 8.42713 15.8104 8.36242C15.8265 8.30117 15.8366 8.26553 15.8426 8.24508C15.8552 8.20265 15.8419 8.25565 15.797 8.35879L10.1705 5.91171ZM9.7992 7.10487L8.64862 13.1316C8.93928 13.1871 9.10337 13.2191 9.24839 13.2522C9.3806 13.2824 9.42446 13.2978 9.41886 13.2959L11.418 7.49515L13.4171 1.69438C12.4038 1.34518 11.4242 1.16871 10.9498 1.07813L9.7992 7.10487ZM11.418 7.49515L9.41875 13.2959C9.40877 13.2924 9.40475 13.2903 9.40596 13.2909C9.40713 13.2915 9.41293 13.2946 9.42249 13.3012L12.9353 8.27075L16.448 3.24026C15.5131 2.58737 14.4934 2.06532 13.4172 1.69442L11.418 7.49515ZM12.9353 8.27075L9.42174 13.3007C9.43181 13.3077 9.44766 13.3199 9.46778 13.3386L13.643 8.84269L17.8182 4.34682C17.3876 3.94691 16.9302 3.57704 16.4488 3.24079L12.9353 8.27075ZM13.643 8.84269L7.51429 8.55251C7.5181 8.47188 7.53088 8.39378 7.55115 8.32L13.4674 9.94577L19.3837 11.5716C19.6 10.7845 19.7322 9.96709 19.7717 9.13288L13.643 8.84269ZM13.4674 9.94577L16.6567 4.7042C16.2188 4.43776 15.7608 4.20077 15.2855 3.99723L12.8703 9.63746L10.4551 15.2777C10.384 15.2472 10.3253 15.2161 10.2782 15.1873L13.4674 9.94577ZM8.60865 7.41951V1.28392C4.56319 1.28392 1.28371 4.56341 1.28371 8.60887H7.41929H13.5549C13.5549 11.3406 11.3404 13.5551 8.60865 13.5551V7.41951ZM7.41929 8.60887H1.28371C1.28371 12.6543 4.56319 15.9338 8.60865 15.9338V9.79823V3.66264C11.3404 3.66264 13.5549 5.87714 13.5549 8.60887H7.41929ZM8.60865 9.79823V15.9338C12.6541 15.9338 15.9336 12.6543 15.9336 8.60887H9.79801H3.66242C3.66242 5.87714 5.87693 3.66264 8.60865 3.66264V9.79823ZM9.79801 8.60887H15.9336C15.9336 4.56341 12.6541 1.28392 8.60865 1.28392V7.41951V13.5551C5.87693 13.5551 3.66242 11.3406 3.66242 8.60887H9.79801Z" fill="#F4813E" mask="url(#path-1-inside-1_10684_9023)"/>
</svg>
