<svg preserveAspectRatio="none" width="100%" height="100%" overflow="visible" style="display: block;" viewBox="0 0 40 40" fill="none" xmlns="http://www.w3.org/2000/svg">
<g id="fast-forward">
<g id="Vector">
<path d="M20 10.0001C20.0001 9.34094 20.1957 8.69661 20.562 8.14857C20.9283 7.60054 21.4488 7.17341 22.0578 6.92118C22.6668 6.66894 23.3369 6.60293 23.9834 6.73149C24.6299 6.86005 25.2238 7.17741 25.69 7.64344L35.69 17.6434C36.3149 18.2685 36.666 19.1162 36.666 20.0001C36.666 20.884 36.3149 21.7317 35.69 22.3568L25.69 32.3568C25.2238 32.8228 24.6299 33.1402 23.9834 33.2687C23.3369 33.3973 22.6668 33.3313 22.0578 33.079C21.4488 32.8268 20.9283 32.3997 20.562 31.8516C20.1957 31.3036 20.0001 30.6593 20 30.0001V10.0001Z" stroke="var(--stroke-0, #2DA2DB)" stroke-width="2" stroke-linecap="round" stroke-linejoin="round"/>
<path d="M3.33333 10.0001C3.33347 9.34094 3.52905 8.69661 3.89533 8.14857C4.26161 7.60054 4.78215 7.17341 5.39115 6.92118C6.00015 6.66894 6.67026 6.60293 7.31677 6.73149C7.96328 6.86005 8.55716 7.17741 9.02333 7.64344L19.0233 17.6434C19.6482 18.2685 19.9993 19.1162 19.9993 20.0001C19.9993 20.884 19.6482 21.7317 19.0233 22.3568L9.02333 32.3568C8.55716 32.8228 7.96328 33.1402 7.31677 33.2687C6.67026 33.3973 6.00015 33.3313 5.39115 33.079C4.78215 32.8268 4.26161 32.3997 3.89533 31.8516C3.52905 31.3036 3.33347 30.6593 3.33333 30.0001V10.0001Z" stroke="var(--stroke-0, #2DA2DB)" stroke-width="2" stroke-linecap="round" stroke-linejoin="round"/>
</g>
</g>
</svg>
