<svg preserveAspectRatio="none" width="100%" height="100%" overflow="visible" style="display: block;" viewBox="0 0 40 40" fill="none" xmlns="http://www.w3.org/2000/svg">
<g id="breaking_news_alt_1">
<path id="Vector" d="M5.5897 4.76622H34.41C35.1725 4.76622 35.8342 5.04556 36.3944 5.60607C36.9547 6.16623 37.2342 6.82708 37.2342 7.58947V32.4108C37.2341 33.1703 36.9548 33.8291 36.3944 34.3873C35.8342 34.9459 35.1726 35.2242 34.41 35.2242H5.5897C4.83005 35.2242 4.17138 34.9457 3.61314 34.3873C3.05466 33.8291 2.77631 33.1704 2.77622 32.4108V7.58947C2.77625 6.82697 3.05462 6.16626 3.61314 5.60607C4.17143 5.04557 4.82997 4.76622 5.5897 4.76622ZM5.56431 32.4352H34.4354V7.56505H5.56431V32.4352ZM11.7167 25.3912H16.7167C17.0577 25.3912 17.3468 25.509 17.5848 25.7438C17.8228 25.9783 17.9413 26.2669 17.9413 26.61C17.9412 26.9595 17.8228 27.2518 17.5848 27.4879C17.3468 27.724 17.0577 27.8414 16.7167 27.8414H11.7167C11.3687 27.8414 11.0784 27.7259 10.8436 27.4947C10.6093 27.2637 10.4921 26.9758 10.492 26.6295C10.492 26.2828 10.6089 25.9899 10.8436 25.7506C11.0784 25.5112 11.369 25.3912 11.7167 25.3912ZM28.2811 25.3912C28.6276 25.3912 28.9204 25.5091 29.16 25.7438C29.3991 25.9783 29.5184 26.2669 29.5184 26.61C29.5183 26.9596 29.4012 27.2518 29.1668 27.4879C28.9322 27.7239 28.6436 27.8414 28.3006 27.8414C27.9505 27.8414 27.6585 27.7258 27.4227 27.4947C27.1867 27.2636 27.0683 26.9758 27.0682 26.6295C27.0682 26.2827 27.1845 25.9899 27.4159 25.7506C27.647 25.5114 27.9347 25.3913 28.2811 25.3912ZM11.7167 18.775H16.7167C17.0578 18.775 17.3469 18.8903 17.5848 19.1217C17.8228 19.3528 17.9413 19.643 17.9413 19.9928C17.9412 20.3426 17.8228 20.6349 17.5848 20.8707C17.3468 21.1071 17.0577 21.2252 16.7167 21.2252H11.7167C11.3687 21.2252 11.0784 21.1088 10.8436 20.8776C10.6093 20.6465 10.492 20.3572 10.492 20.0074C10.4921 19.6574 10.6091 19.3654 10.8436 19.1295C11.0784 18.8933 11.3688 18.775 11.7167 18.775ZM28.2811 12.1481C28.6274 12.1481 28.9194 12.2675 29.159 12.5055C29.3984 12.7438 29.5184 13.0327 29.5184 13.3736V19.9957C29.5184 20.3449 29.4012 20.6364 29.1668 20.8717C28.9323 21.1071 28.6437 21.2252 28.3006 21.2252C27.9506 21.2252 27.6586 21.107 27.4227 20.8717C27.1866 20.6363 27.0682 20.3449 27.0682 19.9957V13.3736C27.0682 13.0325 27.1844 12.7428 27.4159 12.5045C27.647 12.2671 27.9348 12.1481 28.2811 12.1481ZM11.7167 12.1481H16.7167C17.0577 12.1481 17.3468 12.2659 17.5848 12.5006C17.8228 12.7352 17.9413 13.023 17.9413 13.3658C17.9413 13.6722 17.8503 13.9341 17.6678 14.1529L17.5848 14.2438C17.3468 14.4801 17.0577 14.5983 16.7167 14.5983H11.7167C11.3688 14.5983 11.0783 14.4827 10.8436 14.2516C10.6092 14.0204 10.492 13.7321 10.492 13.3854C10.4921 13.039 10.6091 12.747 10.8436 12.5074C11.0784 12.2682 11.3689 12.1481 11.7167 12.1481Z" fill="var(--fill-0, white)" stroke="var(--stroke-0, white)" stroke-width="0.05"/>
</g>
</svg>
