<svg preserveAspectRatio="none" width="100%" height="100%" overflow="visible" style="display: block;" viewBox="0 0 40 40" fill="none" xmlns="http://www.w3.org/2000/svg">
<g id="scale-3d">
<path id="Vector" d="M8.33333 11.6667V30C8.33333 30.442 8.50893 30.866 8.82149 31.1785M8.33333 11.6667C10.1743 11.6667 11.6667 10.1743 11.6667 8.33333C11.6667 6.49238 10.1743 5 8.33333 5C6.49238 5 5 6.49238 5 8.33333C5 10.1743 6.49238 11.6667 8.33333 11.6667ZM8.82149 31.1785C9.13405 31.4911 9.55797 31.6667 10 31.6667H28.3333M8.82149 31.1785L18.3333 21.6667M28.3333 31.6667C28.3333 33.5076 29.8257 35 31.6667 35C33.5076 35 35 33.5076 35 31.6667C35 29.8257 33.5076 28.3333 31.6667 28.3333C29.8257 28.3333 28.3333 29.8257 28.3333 31.6667Z" stroke="var(--stroke-0, #2DA2DB)" stroke-width="2" stroke-linecap="round" stroke-linejoin="round"/>
</g>
</svg>
