<svg preserveAspectRatio="none" width="100%" height="100%" overflow="visible" style="display: block;" viewBox="0 0 40 40" fill="none" xmlns="http://www.w3.org/2000/svg">
<g id="monorail">
<path id="Vector" d="M11.0062 37.2646C10.619 37.2646 10.2922 37.1308 10.0258 36.8633C9.75972 36.5956 9.62667 36.2636 9.62667 35.8675C9.62667 35.4781 9.75972 35.1521 10.0258 34.8896C10.2922 34.6268 10.619 34.4954 11.0062 34.4954H18.6204V30.6004C18.6204 30.2132 18.7542 29.8865 19.0217 29.6204C19.2894 29.354 19.6181 29.2208 20.0075 29.2208C20.3969 29.2208 20.7246 29.354 20.9904 29.6204C21.2565 29.8865 21.3896 30.2132 21.3896 30.6004V34.4954H28.9838C29.371 34.4954 29.6994 34.6292 29.9692 34.8967C30.2386 35.1644 30.3733 35.4931 30.3733 35.8825C30.3733 36.2786 30.2386 36.6079 29.9692 36.8704C29.6994 37.1332 29.371 37.2646 28.9838 37.2646H11.0062ZM11.8063 2.73542H28.2038C29.7649 2.73542 31.1031 3.29139 32.2183 4.40333C33.3336 5.51555 33.8913 6.85542 33.8913 8.42292V27.0225C33.8913 28.3969 33.4044 29.5694 32.4308 30.54C31.4569 31.5103 30.2828 31.9954 28.9083 31.9954H25.2692C24.875 31.9954 24.5415 31.864 24.2688 31.6012C23.996 31.3385 23.8563 31.0067 23.8496 30.6058V30.4808C23.8099 29.4464 23.4182 28.5819 22.6746 27.8875C21.931 27.1931 21.0407 26.8458 20.0038 26.8458C18.9601 26.8458 18.0619 27.1931 17.3092 27.8875C16.5567 28.5819 16.1704 29.4464 16.1504 30.4808V30.6058C16.1437 31.0067 16.004 31.3385 15.7312 31.6012C15.4585 31.864 15.125 31.9954 14.7308 31.9954H11.0917C9.71056 31.9954 8.53639 31.5103 7.56917 30.54C6.60222 29.5694 6.11875 28.3969 6.11875 27.0225V8.42292C6.11875 6.85542 6.67472 5.51555 7.78667 4.40333C8.89861 3.29139 10.2385 2.73542 11.8063 2.73542ZM8.8875 19.5633V27.0225C8.8875 27.5967 9.07986 28.0942 9.46458 28.515C9.84903 28.9361 10.3249 29.1667 10.8921 29.2067H13.5362C13.8393 27.6878 14.6051 26.4532 15.8338 25.5029C17.0624 24.5524 18.4511 24.0771 20 24.0771C21.5489 24.0771 22.9376 24.5524 24.1662 25.5029C25.3949 26.4532 26.1626 27.6878 26.4696 29.2067H29.1079C29.6751 29.1667 30.1526 28.9361 30.5404 28.515C30.9282 28.0942 31.1221 27.5967 31.1221 27.0225V19.5633H8.8875ZM8.8875 10.8433V16.8742H31.1221V10.8433H8.8875ZM11.7262 5.50458C10.9787 5.50458 10.3371 5.76097 9.80125 6.27375C9.26514 6.78625 8.98056 7.41306 8.9475 8.15417H31.0625C31.0228 7.41306 30.7349 6.78625 30.1988 6.27375C29.6629 5.76097 29.0212 5.50458 28.2737 5.50458H11.7262ZM11.7262 8.15417H31.0625H8.9475H11.7262Z" fill="var(--fill-0, #2DA2DB)"/>
</g>
</svg>
