<svg preserveAspectRatio="none" width="100%" height="100%" overflow="visible" style="display: block;" viewBox="0 0 40 40" fill="none" xmlns="http://www.w3.org/2000/svg">
<g id="scan-eye">
<path id="Vector" d="M5 11.6667V8.33333C5 7.44928 5.35119 6.60143 5.97631 5.97631C6.60143 5.35119 7.44928 5 8.33333 5H11.6667M28.3333 5H31.6667C32.5507 5 33.3986 5.35119 34.0237 5.97631C34.6488 6.60143 35 7.44928 35 8.33333V11.6667M35 28.3333V31.6667C35 32.5507 34.6488 33.3986 34.0237 34.0237C33.3986 34.6488 32.5507 35 31.6667 35H28.3333M11.6667 35H8.33333C7.44928 35 6.60143 34.6488 5.97631 34.0237C5.35119 33.3986 5 32.5507 5 31.6667V28.3333M21.6667 20C21.6667 20.9205 20.9205 21.6667 20 21.6667C19.0795 21.6667 18.3333 20.9205 18.3333 20C18.3333 19.0795 19.0795 18.3333 20 18.3333C20.9205 18.3333 21.6667 19.0795 21.6667 20ZM31.5734 20.55C31.6979 20.1939 31.6979 19.8061 31.5734 19.45C30.635 17.1508 29.033 15.1831 26.9718 13.798C24.9105 12.4129 22.4834 11.6732 20 11.6732C17.5166 11.6732 15.0895 12.4129 13.0283 13.798C10.967 15.1831 9.36505 17.1508 8.4267 19.45C8.30221 19.8061 8.30221 20.1939 8.4267 20.55C9.36505 22.8493 10.967 24.817 13.0283 26.2021C15.0895 27.5872 17.5166 28.3269 20 28.3269C22.4834 28.3269 24.9105 27.5872 26.9718 26.2021C29.033 24.817 30.635 22.8493 31.5734 20.55Z" stroke="var(--stroke-0, #2DA2DB)" stroke-width="2" stroke-linecap="round" stroke-linejoin="round"/>
</g>
</svg>
