<svg preserveAspectRatio="none" width="100%" height="100%" overflow="visible" style="display: block;" viewBox="0 0 48 48" fill="none" xmlns="http://www.w3.org/2000/svg">
<g id="triangle-alert">
<path id="Vector" d="M24 18V26M24 34H24.02M43.4601 36.0005L27.4601 8.00045C27.1112 7.38486 26.6053 6.87282 25.994 6.51659C25.3826 6.16035 24.6877 5.97266 23.9801 5.97266C23.2725 5.97266 22.5776 6.16035 21.9663 6.51659C21.3549 6.87282 20.849 7.38486 20.5001 8.00045L4.5001 36.0005C4.14747 36.6112 3.96256 37.3043 3.96412 38.0095C3.96568 38.7147 4.15366 39.4069 4.509 40.0161C4.86433 40.6252 5.3744 41.1296 5.98749 41.4781C6.60059 41.8266 7.29492 42.0068 8.0001 42.0005H40.0001C40.7019 41.9997 41.3912 41.8144 41.9987 41.463C42.6062 41.1116 43.1105 40.6066 43.4611 39.9987C43.8117 39.3907 43.9962 38.7012 43.996 37.9994C43.9958 37.2976 43.811 36.6082 43.4601 36.0005Z" stroke="var(--stroke-0, #F4813E)" stroke-width="2.5" stroke-linecap="round" stroke-linejoin="round"/>
</g>
</svg>
