<svg preserveAspectRatio="none" width="100%" height="100%" overflow="visible" style="display: block;" viewBox="0 0 40 40" fill="none" xmlns="http://www.w3.org/2000/svg">
<g id="pickaxe">
<path id="Vector" d="M23.3333 21.6667L9.365 35.6334C9.0367 35.9618 8.64692 36.2223 8.21793 36.4001C7.78893 36.5779 7.32913 36.6694 6.86476 36.6695C5.92692 36.6697 5.02743 36.2972 4.36417 35.6342C3.7009 34.9712 3.3282 34.0718 3.32804 33.134C3.32789 32.1961 3.70029 31.2966 4.36333 30.6334L18.3333 16.665M26.6217 6.71169C24.1545 5.14365 21.3956 4.09107 18.511 3.61732C15.6264 3.14356 12.6757 3.25844 9.83667 3.95503C7.50667 4.52503 8.01667 7.55169 10.2983 8.29003C13.7893 9.42163 17.0683 11.1248 20.0017 13.33M26.6683 19.9985C28.8739 22.9328 30.577 26.213 31.7083 29.7052C32.4483 31.9868 35.475 32.4985 36.0466 30.1685C36.7404 27.3422 36.8578 24.405 36.3916 21.5323C35.9254 18.6597 34.8853 15.9104 33.3333 13.4485M30.5865 5.58649C30.2099 5.20992 29.6991 4.99837 29.1665 4.99837C28.6339 4.99837 28.1231 5.20992 27.7465 5.58649L18.9198 14.4132C18.5433 14.7898 18.3317 15.3006 18.3317 15.8332C18.3317 16.3658 18.5433 16.8765 18.9198 17.2532L22.7465 21.0798C23.1231 21.4564 23.6339 21.6679 24.1665 21.6679C24.6991 21.6679 25.2099 21.4564 25.5865 21.0798L34.4132 12.2532C34.7897 11.8765 35.0013 11.3658 35.0013 10.8332C35.0013 10.3006 34.7897 9.78979 34.4132 9.41316L30.5865 5.58649Z" stroke="var(--stroke-0, #2DA2DB)" stroke-width="3" stroke-linecap="round" stroke-linejoin="round"/>
</g>
</svg>
