<svg preserveAspectRatio="none" width="100%" height="100%" overflow="visible" style="display: block;" viewBox="0 0 40 40" fill="none" xmlns="http://www.w3.org/2000/svg">
<g id="cog">
<path id="Vector" d="M18.3333 17.1168L11.6667 5.56681M18.3333 22.8833L11.6667 34.4333M20 36.6667V33.3333M20 33.3333C27.3638 33.3333 33.3333 27.3638 33.3333 20C33.3333 12.6362 27.3638 6.66667 20 6.66667M20 33.3333C12.6362 33.3333 6.66667 27.3638 6.66667 20M20 3.33333V6.66667M20 6.66667C12.6362 6.66667 6.66667 12.6362 6.66667 20M23.3333 20H36.6667M23.3333 20C23.3333 21.8409 21.8409 23.3333 20 23.3333C18.1591 23.3333 16.6667 21.8409 16.6667 20C16.6667 18.1591 18.1591 16.6667 20 16.6667C21.8409 16.6667 23.3333 18.1591 23.3333 20ZM28.3333 34.4332L26.6667 31.5499M28.3333 5.56681L26.6667 8.45015M3.33333 20H6.66667M34.4334 28.3333L31.5501 26.6667M34.4334 11.6667L31.5501 13.3333M5.56661 28.3333L8.44994 26.6667M5.56661 11.6667L8.44994 13.3333" stroke="var(--stroke-0, #F4813E)" stroke-width="3" stroke-linecap="round" stroke-linejoin="round"/>
</g>
</svg>
