<svg preserveAspectRatio="none" width="100%" height="100%" overflow="visible" style="display: block;" viewBox="0 0 20 20" fill="none" xmlns="http://www.w3.org/2000/svg">
<g id="message-square-warning">
<path id="Vector" d="M10 12.5H10.0083M10 5.83333V9.16667M18.3333 14.1667C18.3333 14.6087 18.1577 15.0326 17.8452 15.3452C17.5326 15.6577 17.1087 15.8333 16.6667 15.8333H5.69C5.24801 15.8334 4.82415 16.0091 4.51167 16.3217L2.67667 18.1567C2.59392 18.2394 2.4885 18.2957 2.37374 18.3186C2.25898 18.3414 2.14003 18.3297 2.03192 18.2849C1.92382 18.2401 1.83142 18.1643 1.7664 18.067C1.70139 17.9697 1.66668 17.8553 1.66667 17.7383V4.16667C1.66667 3.72464 1.84226 3.30072 2.15482 2.98816C2.46738 2.67559 2.89131 2.5 3.33333 2.5H16.6667C17.1087 2.5 17.5326 2.67559 17.8452 2.98816C18.1577 3.30072 18.3333 3.72464 18.3333 4.16667V14.1667Z" stroke="var(--stroke-0, #2DA2DB)" stroke-width="1.43478" stroke-linecap="round" stroke-linejoin="round"/>
</g>
</svg>
