<svg preserveAspectRatio="none" width="100%" height="100%" overflow="visible" style="display: block;" viewBox="0 0 40 40" fill="none" xmlns="http://www.w3.org/2000/svg">
<g id="shield-user">
<path id="Vector" d="M10.6266 31.517C11.3378 29.604 12.6173 27.9544 14.2933 26.7897C15.9693 25.625 17.9616 25.0011 20.0025 25.0016C22.0435 25.0022 24.0354 25.6272 25.7108 26.7928C27.3862 27.9583 28.6648 29.6086 29.375 31.522M33.3333 21.6666C33.3333 29.9999 27.5 34.1666 20.5667 36.5833C20.2036 36.7063 19.8092 36.7004 19.45 36.5666C12.5 34.1666 6.66667 29.9999 6.66667 21.6666V9.99994C6.66667 9.55791 6.84226 9.13399 7.15482 8.82142C7.46738 8.50886 7.89131 8.33327 8.33333 8.33327C11.6667 8.33327 15.8333 6.33327 18.7333 3.79994C19.0864 3.49827 19.5356 3.33252 20 3.33252C20.4644 3.33252 20.9136 3.49827 21.2667 3.79994C24.1833 6.34994 28.3333 8.33327 31.6667 8.33327C32.1087 8.33327 32.5326 8.50886 32.8452 8.82142C33.1577 9.13399 33.3333 9.55791 33.3333 9.99994V21.6666ZM26.6667 18.3333C26.6667 22.0152 23.6819 25 20 25C16.3181 25 13.3333 22.0152 13.3333 18.3333C13.3333 14.6514 16.3181 11.6667 20 11.6667C23.6819 11.6667 26.6667 14.6514 26.6667 18.3333Z" stroke="var(--stroke-0, #2DA2DB)" stroke-width="2" stroke-linecap="round" stroke-linejoin="round"/>
</g>
</svg>
