<svg preserveAspectRatio="none" width="100%" height="100%" overflow="visible" style="display: block;" viewBox="0 0 24 24" fill="none" xmlns="http://www.w3.org/2000/svg">
<g id="arrow_right">
<path id="Vector" d="M10.335 16.6483C10.2138 16.6483 10.1107 16.6086 10.0257 16.5293C9.94075 16.4499 9.89825 16.3467 9.89825 16.2195V7.7805C9.89825 7.65333 9.94192 7.55008 10.0293 7.47075C10.1164 7.39142 10.2195 7.35175 10.3385 7.35175C10.3683 7.35175 10.4682 7.39933 10.638 7.4945L14.6908 11.5475C14.7481 11.6047 14.7943 11.6723 14.8295 11.7503C14.8648 11.8283 14.8825 11.9117 14.8825 12.0005C14.8825 12.0893 14.8648 12.1726 14.8295 12.2503C14.7943 12.3279 14.7481 12.3954 14.6908 12.4527L10.6372 16.5063C10.5964 16.5471 10.5503 16.581 10.4988 16.608C10.4473 16.6348 10.3927 16.6483 10.335 16.6483Z" fill="var(--fill-0, #D9D9DA)" stroke="var(--stroke-0, white)"/>
</g>
</svg>
