<svg preserveAspectRatio="none" width="100%" height="100%" overflow="visible" style="display: block;" viewBox="0 0 1020 302.531" fill="none" xmlns="http://www.w3.org/2000/svg">
<g id="Mid conectors">
<g id="2">
<path id="Line 9" d="M510 296.539L509 296.539L509 295.565L510 295.565L511 295.565L511 296.539L510 296.539ZM510 293.618L509 293.618L509 291.671L510 291.671L511 291.671L511 293.618L510 293.618ZM510 289.723L509 289.723L509 287.776L510 287.776L511 287.776L511 289.723L510 289.723ZM510 285.829L509 285.829L509 283.882L510 283.882L511 283.882L511 285.829L510 285.829ZM510 281.934L509 281.934L509 279.987L510 279.987L511 279.987L511 281.934L510 281.934ZM510 278.04L509 278.04L509 276.093L510 276.093L511 276.093L511 278.04L510 278.04ZM510 274.145L509 274.145L509 272.198L510 272.198L511 272.198L511 274.145L510 274.145ZM510 270.251L509 270.251L509 268.304L510 268.304L511 268.304L511 270.251L510 270.251ZM510 266.356L509 266.356L509 264.409L510 264.409L511 264.409L511 266.356L510 266.356ZM510 262.462L509 262.462L509 260.515L510 260.515L511 260.515L511 262.462L510 262.462ZM510 258.567L509 258.567L509 256.62L510 256.62L511 256.62L511 258.567L510 258.567ZM510 254.673L509 254.673L509 252.726L510 252.726L511 252.726L511 254.673L510 254.673ZM510 250.778L509 250.778L509 248.831L510 248.831L511 248.831L511 250.778L510 250.778ZM510 246.884L509 246.884L509 244.936L510 244.936L511 244.936L511 246.884L510 246.884ZM510 242.989L509 242.989L509 241.042L510 241.042L511 241.042L511 242.989L510 242.989ZM510 239.095L509 239.095L509 237.147L510 237.147L511 237.147L511 239.095L510 239.095ZM510 235.2L509 235.2L509 233.253L510 233.253L511 233.253L511 235.2L510 235.2ZM510 231.306L509 231.306L509 230.332L510 230.332L511 230.332L511 231.306L510 231.306Z" fill="var(--stroke-0, #D3E8F3)"/>
</g>
<g id="1">
<path id="Line 8" d="M179.883 5.02588L179.736 6.18362L180.872 6.54679L181.019 5.38905L181.166 4.2313L180.03 3.86813L179.883 5.02588ZM183.291 6.11539L183.144 7.27313L185.416 7.99947L185.563 6.84173L185.71 5.68399L183.438 4.95764L183.291 6.11539ZM187.835 7.56807L187.688 8.72581L189.96 9.45215L190.107 8.29441L190.254 7.13667L187.982 6.41033L187.835 7.56807ZM192.379 9.02075L192.232 10.1785L194.504 10.9048L194.651 9.74709L194.798 8.58935L192.526 7.86301L192.379 9.02075ZM196.923 10.4734L196.776 11.6312L199.048 12.3575L199.195 11.1998L199.342 10.042L197.07 9.31569L196.923 10.4734ZM201.467 11.9261L201.32 13.0839L203.592 13.8102L203.739 12.6525L203.886 11.4947L201.614 10.7684L201.467 11.9261ZM206.011 13.3788L205.864 14.5365L208.136 15.2629L208.283 14.1051L208.43 12.9474L206.158 12.2211L206.011 13.3788ZM210.555 14.8315L210.408 15.9892L212.68 16.7156L212.827 15.5578L212.974 14.4001L210.702 13.6737L210.555 14.8315ZM215.099 16.2842L214.952 17.4419L217.224 18.1682L217.371 17.0105L217.518 15.8528L215.246 15.1264L215.099 16.2842ZM219.643 17.7368L219.496 18.8946L221.768 19.6209L221.915 18.4632L222.063 17.3054L219.79 16.5791L219.643 17.7368ZM224.187 19.1895L224.04 20.3473L226.312 21.0736L226.459 19.9159L226.607 18.7581L224.335 18.0318L224.187 19.1895ZM228.731 20.6422L228.584 21.8L230.856 22.5263L231.003 21.3686L231.151 20.2108L228.879 19.4845L228.731 20.6422ZM233.276 22.0949L233.128 23.2526L235.4 23.979L235.548 22.8212L235.695 21.6635L233.423 20.9372L233.276 22.0949ZM237.82 23.5476L237.672 24.7053L239.944 25.4317L240.092 24.2739L240.239 23.1162L237.967 22.3898L237.82 23.5476ZM242.364 25.0003L242.216 26.158L244.488 26.8843L244.636 25.7266L244.783 24.5689L242.511 23.8425L242.364 25.0003ZM246.908 26.4529L246.761 27.6107L249.033 28.337L249.18 27.1793L249.327 26.0215L247.055 25.2952L246.908 26.4529ZM251.452 27.9056L251.305 29.0634L253.577 29.7897L253.724 28.632L253.871 27.4742L251.599 26.7479L251.452 27.9056ZM255.996 29.3583L255.849 30.516L258.121 31.2424L258.268 30.0846L258.415 28.9269L256.143 28.2006L255.996 29.3583ZM260.54 30.811L260.393 31.9687L262.665 32.6951L262.812 31.5373L262.959 30.3796L260.687 29.6532L260.54 30.811ZM265.084 32.2637L264.937 33.4214L267.209 34.1477L267.356 32.99L267.503 31.8323L265.231 31.1059L265.084 32.2637ZM269.628 33.7163L269.481 34.8741L271.753 35.6004L271.9 34.4427L272.047 33.2849L269.775 32.5586L269.628 33.7163ZM274.172 35.169L274.025 36.3268L276.297 37.0531L276.444 35.8954L276.591 34.7376L274.319 34.0113L274.172 35.169ZM278.716 36.6217L278.569 37.7794L280.841 38.5058L280.988 37.348L281.135 36.1903L278.863 35.464L278.716 36.6217ZM283.26 38.0744L283.113 39.2321L285.385 39.9585L285.532 38.8007L285.679 37.643L283.407 36.9166L283.26 38.0744ZM287.804 39.5271L287.657 40.6848L289.929 41.4111L290.076 40.2534L290.223 39.0957L287.951 38.3693L287.804 39.5271ZM292.348 40.9797L292.201 42.1375L294.473 42.8638L294.62 41.7061L294.767 40.5483L292.495 39.822L292.348 40.9797ZM296.892 42.4324L296.745 43.5902L299.017 44.3165L299.164 43.1588L299.311 42.001L297.039 41.2747L296.892 42.4324ZM301.436 43.8851L301.289 45.0428L303.561 45.7692L303.708 44.6115L303.855 43.4537L301.583 42.7274L301.436 43.8851ZM305.98 45.3378L305.833 46.4955L308.105 47.2219L308.252 46.0641L308.399 44.9064L306.127 44.18L305.98 45.3378ZM310.524 46.7905L310.377 47.9482L312.649 48.6746L312.796 47.5168L312.943 46.3591L310.671 45.6327L310.524 46.7905ZM315.068 48.2432L314.921 49.4009L317.193 50.1272L317.34 48.9695L317.487 47.8118L315.215 47.0854L315.068 48.2432ZM319.612 49.6958L319.465 50.8536L321.737 51.5799L321.884 50.4222L322.031 49.2644L319.759 48.5381L319.612 49.6958ZM324.156 51.1485L324.009 52.3063L326.281 53.0326L326.428 51.8749L326.575 50.7171L324.303 49.9908L324.156 51.1485ZM328.7 52.6012L328.553 53.7589L330.825 54.4853L330.972 53.3275L331.12 52.1698L328.848 51.4435L328.7 52.6012ZM333.244 54.0539L333.097 55.2116L335.369 55.938L335.516 54.7802L335.664 53.6225L333.392 52.8961L333.244 54.0539ZM337.788 55.5066L337.641 56.6643L339.913 57.3906L340.06 56.2329L340.208 55.0752L337.936 54.3488L337.788 55.5066ZM342.333 56.9592L342.185 58.117L344.457 58.8433L344.605 57.6856L344.752 56.5278L342.48 55.8015L342.333 56.9592ZM346.877 58.4119L346.729 59.5697L349.001 60.296L349.149 59.1383L349.296 57.9805L347.024 57.2542L346.877 58.4119ZM351.421 59.8646L351.273 61.0223L353.545 61.7487L353.693 60.5909L353.84 59.4332L351.568 58.7069L351.421 59.8646ZM355.965 61.3173L355.818 62.475L358.09 63.2014L358.237 62.0436L358.384 60.8859L356.112 60.1595L355.965 61.3173ZM360.509 62.77L360.362 63.9277L362.634 64.654L362.781 63.4963L362.928 62.3386L360.656 61.6122L360.509 62.77ZM365.053 64.2226L364.906 65.3804L367.178 66.1067L367.325 64.949L367.472 63.7912L365.2 63.0649L365.053 64.2226ZM369.597 65.6753L369.45 66.8331L371.722 67.5594L371.869 66.4017L372.016 65.2439L369.744 64.5176L369.597 65.6753ZM374.141 67.128L373.994 68.2857L376.266 69.0121L376.413 67.8543L376.56 66.6966L374.288 65.9703L374.141 67.128ZM378.685 68.5807L378.538 69.7384L380.81 70.4648L380.957 69.307L381.104 68.1493L378.832 67.4229L378.685 68.5807ZM383.229 70.0334L383.082 71.1911L385.354 71.9174L385.501 70.7597L385.648 69.602L383.376 68.8756L383.229 70.0334ZM387.773 71.486L387.626 72.6438L389.898 73.3701L390.045 72.2124L390.192 71.0546L387.92 70.3283L387.773 71.486ZM392.317 72.9387L392.17 74.0965L394.442 74.8228L394.589 73.6651L394.736 72.5073L392.464 71.781L392.317 72.9387ZM396.861 74.3914L396.714 75.5491L398.986 76.2755L399.133 75.1177L399.28 73.96L397.008 73.2337L396.861 74.3914ZM401.405 75.8441L401.258 77.0018L403.53 77.7282L403.677 76.5704L403.824 75.4127L401.552 74.6863L401.405 75.8441ZM405.949 77.2968L405.802 78.4545L408.074 79.1809L408.221 78.0231L408.368 76.8654L406.096 76.139L405.949 77.2968ZM410.493 78.7494L410.346 79.9072L412.618 80.6335L412.765 79.4758L412.912 78.318L410.64 77.5917L410.493 78.7494ZM415.037 80.2021L414.89 81.3599L417.162 82.0862L417.309 80.9285L417.456 79.7707L415.184 79.0444L415.037 80.2021ZM419.581 81.6548L419.434 82.8126L421.706 83.5389L421.853 82.3812L422 81.2234L419.728 80.4971L419.581 81.6548ZM424.125 83.1075L423.978 84.2652L426.25 84.9916L426.397 83.8338L426.544 82.6761L424.272 81.9497L424.125 83.1075ZM428.669 84.5602L428.522 85.7179L430.794 86.4443L430.941 85.2865L431.088 84.1288L428.816 83.4024L428.669 84.5602ZM433.213 86.0129L433.066 87.1706L435.338 87.897L435.485 86.7392L435.633 85.5815L433.36 84.8551L433.213 86.0129ZM437.757 87.4656L437.61 88.6233L439.882 89.3496L440.03 88.1919L440.177 87.0342L437.905 86.3078L437.757 87.4656ZM442.302 88.9182L442.154 90.076L444.426 90.8023L444.574 89.6446L444.721 88.4869L442.449 87.7605L442.302 88.9182ZM446.846 90.3709L446.698 91.5287L448.97 92.255L449.118 91.0973L449.265 89.9395L446.993 89.2132L446.846 90.3709ZM451.39 91.8236L451.243 92.9814L453.515 93.7077L453.662 92.55L453.809 91.3922L451.537 90.6659L451.39 91.8236ZM455.934 93.2763L455.787 94.4341L458.059 95.1604L458.206 94.0027L458.353 92.8449L456.081 92.1186L455.934 93.2763ZM460.478 94.729L460.331 95.8868L461.467 96.2499L461.614 95.0922L461.761 93.9344L460.625 93.5713L460.478 94.729Z" fill="var(--stroke-0, #D3E8F3)"/>
<path id="Line 8_2" d="M328.053 9.87565L327.737 10.9915L328.775 11.6002L329.092 10.4843L329.409 9.36847L328.37 8.75978L328.053 9.87565ZM331.169 11.7017L330.852 12.8176L332.928 14.035L333.245 12.9191L333.562 11.8033L331.485 10.5859L331.169 11.7017ZM335.322 14.1365L335.005 15.2524L337.082 16.4698L337.399 15.3539L337.715 14.238L335.639 13.0207L335.322 14.1365ZM339.475 16.5713L339.159 17.6872L341.235 18.9046L341.552 17.7887L341.869 16.6728L339.792 15.4554L339.475 16.5713ZM343.629 19.0061L343.312 20.122L345.389 21.3394L345.705 20.2235L346.022 19.1076L343.945 17.8902L343.629 19.0061ZM347.782 21.4409L347.465 22.5568L349.542 23.7742L349.859 22.6583L350.176 21.5424L348.099 20.325L347.782 21.4409ZM351.936 23.8757L351.619 24.9915L353.695 26.2089L354.012 25.0931L354.329 23.9772L352.252 22.7598L351.936 23.8757ZM356.089 26.3105L355.772 27.4263L357.849 28.6437L358.166 27.5279L358.482 26.412L356.406 25.1946L356.089 26.3105ZM360.242 28.7452L359.926 29.8611L362.002 31.0785L362.319 29.9626L362.636 28.8468L360.559 27.6294L360.242 28.7452ZM364.396 31.18L364.079 32.2959L366.156 33.5133L366.472 32.3974L366.789 31.2815L364.712 30.0642L364.396 31.18ZM368.549 33.6148L368.232 34.7307L370.309 35.9481L370.626 34.8322L370.943 33.7163L368.866 32.4989L368.549 33.6148ZM372.703 36.0496L372.386 37.1655L374.462 38.3829L374.779 37.267L375.096 36.1511L373.019 34.9337L372.703 36.0496ZM376.856 38.4844L376.539 39.6003L378.616 40.8177L378.933 39.7018L379.249 38.5859L377.173 37.3685L376.856 38.4844ZM381.009 40.9192L380.693 42.035L382.769 43.2524L383.086 42.1366L383.403 41.0207L381.326 39.8033L381.009 40.9192ZM385.163 43.354L384.846 44.4698L386.923 45.6872L387.239 44.5714L387.556 43.4555L385.479 42.2381L385.163 43.354ZM389.316 45.7887L388.999 46.9046L391.076 48.122L391.393 47.0061L391.71 45.8903L389.633 44.6729L389.316 45.7887ZM393.47 48.2235L393.153 49.3394L395.229 50.5568L395.546 49.4409L395.863 48.3251L393.786 47.1077L393.47 48.2235ZM397.623 50.6583L397.306 51.7742L399.383 52.9916L399.7 51.8757L400.016 50.7599L397.94 49.5425L397.623 50.6583ZM401.776 53.0931L401.46 54.209L403.536 55.4264L403.853 54.3105L404.17 53.1946L402.093 51.9772L401.776 53.0931ZM405.93 55.5279L405.613 56.6438L407.69 57.8612L408.006 56.7453L408.323 55.6294L406.246 54.412L405.93 55.5279ZM410.083 57.9627L409.766 59.0786L411.843 60.296L412.16 59.1801L412.477 58.0642L410.4 56.8468L410.083 57.9627ZM414.237 60.3975L413.92 61.5134L415.997 62.7308L416.313 61.6149L416.63 60.499L414.553 59.2816L414.237 60.3975ZM418.39 62.8323L418.073 63.9482L420.15 65.1655L420.467 64.0497L420.783 62.9338L418.707 61.7164L418.39 62.8323ZM422.543 65.2671L422.227 66.3829L424.303 67.6003L424.62 66.4845L424.937 65.3686L422.86 64.1512L422.543 65.2671ZM426.697 67.7019L426.38 68.8177L428.457 70.0351L428.773 68.9193L429.09 67.8034L427.013 66.586L426.697 67.7019ZM430.85 70.1366L430.533 71.2525L432.61 72.4699L432.927 71.354L433.244 70.2382L431.167 69.0208L430.85 70.1366ZM435.004 72.5714L434.687 73.6873L436.764 74.9047L437.08 73.7888L437.397 72.673L435.32 71.4556L435.004 72.5714ZM439.157 75.0062L438.84 76.1221L440.917 77.3395L441.234 76.2236L441.55 75.1077L439.474 73.8904L439.157 75.0062ZM443.31 77.441L442.994 78.5569L445.07 79.7743L445.387 78.6584L445.704 77.5425L443.627 76.3251L443.31 77.441ZM447.464 79.8758L447.147 80.9917L449.224 82.2091L449.54 81.0932L449.857 79.9773L447.78 78.7599L447.464 79.8758ZM451.617 82.3106L451.3 83.4264L453.377 84.6438L453.694 83.528L454.011 82.4121L451.934 81.1947L451.617 82.3106ZM455.771 84.7454L455.454 85.8612L457.531 87.0786L457.847 85.9628L458.164 84.8469L456.087 83.6295L455.771 84.7454ZM459.924 87.1801L459.607 88.296L461.684 89.5134L462.001 88.3975L462.317 87.2817L460.241 86.0643L459.924 87.1801ZM464.077 89.6149L463.761 90.7308L465.837 91.9482L466.154 90.8323L466.471 89.7164L464.394 88.499L464.077 89.6149ZM468.231 92.0497L467.914 93.1656L469.991 94.383L470.307 93.2671L470.624 92.1512L468.547 90.9338L468.231 92.0497ZM472.384 94.4845L472.067 95.6004L473.106 96.209L473.422 95.0932L473.739 93.9773L472.701 93.3686L472.384 94.4845Z" fill="var(--stroke-0, #D3E8F3)"/>
<path id="Line 9_2" d="M443.633 5.07109L442.602 5.60205L443.12 6.60723L444.15 6.07627L445.181 5.5453L444.663 4.54013L443.633 5.07109ZM445.186 8.08662L444.155 8.61758L445.191 10.6279L446.222 10.097L447.252 9.566L446.217 7.55565L445.186 8.08662ZM447.257 12.1073L446.227 12.6383L447.262 14.6486L448.293 14.1177L449.324 13.5867L448.288 11.5764L447.257 12.1073ZM449.328 16.128L448.298 16.659L449.333 18.6693L450.364 18.1384L451.395 17.6074L450.359 15.5971L449.328 16.128ZM451.4 20.1487L450.369 20.6797L451.405 22.69L452.435 22.1591L453.466 21.6281L452.43 19.6177L451.4 20.1487ZM453.471 24.1694L452.44 24.7004L453.476 26.7107L454.507 26.1798L455.537 25.6488L454.502 23.6384L453.471 24.1694ZM455.542 28.1901L454.512 28.7211L455.547 30.7314L456.578 30.2005L457.609 29.6695L456.573 27.6591L455.542 28.1901ZM457.614 32.2108L456.583 32.7418L457.619 34.7521L458.649 34.2212L459.68 33.6902L458.644 31.6798L457.614 32.2108ZM459.685 36.2315L458.654 36.7625L459.69 38.7728L460.72 38.2419L461.751 37.7109L460.716 35.7005L459.685 36.2315ZM461.756 40.2522L460.725 40.7832L461.761 42.7935L462.792 42.2626L463.822 41.7316L462.787 39.7212L461.756 40.2522ZM463.827 44.2729L462.797 44.8039L463.832 46.8142L464.863 46.2833L465.894 45.7523L464.858 43.7419L463.827 44.2729ZM465.899 48.2936L464.868 48.8246L465.904 50.8349L466.934 50.304L467.965 49.773L466.929 47.7626L465.899 48.2936ZM467.97 52.3143L466.939 52.8453L467.975 54.8556L469.006 54.3247L470.036 53.7937L469.001 51.7833L467.97 52.3143ZM470.041 56.335L469.01 56.866L470.046 58.8763L471.077 58.3453L472.108 57.8144L471.072 55.804L470.041 56.335ZM472.112 60.3557L471.082 60.8867L472.117 62.897L473.148 62.3661L474.179 61.8351L473.143 59.8247L472.112 60.3557ZM474.184 64.3764L473.153 64.9074L474.189 66.9177L475.219 66.3868L476.25 65.8558L475.214 63.8454L474.184 64.3764ZM476.255 68.3971L475.224 68.9281L476.26 70.9384L477.291 70.4075L478.321 69.8765L477.286 67.8661L476.255 68.3971ZM478.326 72.4178L477.296 72.9488L478.331 74.9591L479.362 74.4282L480.393 73.8972L479.357 71.8869L478.326 72.4178ZM480.398 76.4385L479.367 76.9695L480.402 78.9798L481.433 78.4489L482.464 77.9179L481.428 75.9076L480.398 76.4385ZM482.469 80.4592L481.438 80.9902L482.474 83.0005L483.504 82.4696L484.535 81.9386L483.5 79.9283L482.469 80.4592ZM484.54 84.4799L483.509 85.0109L484.027 86.016L485.058 85.4851L486.089 84.9541L485.571 83.949L484.54 84.4799Z" fill="var(--stroke-0, #D3E8F3)"/>
<path id="Line 12" d="M582.529 2.6343L581.474 2.15357L581 3.19521L582.055 3.67593L583.11 4.15666L583.584 3.11503L582.529 2.6343ZM581.106 5.7592L580.051 5.27847L579.101 7.36174L580.156 7.84247L581.211 8.3232L582.161 6.23993L581.106 5.7592ZM579.207 9.92574L578.152 9.44501L577.203 11.5283L578.258 12.009L579.313 12.4897L580.262 10.4065L579.207 9.92574ZM577.309 14.0923L576.254 13.6115L575.304 15.6948L576.359 16.1755L577.415 16.6563L578.364 14.573L577.309 14.0923ZM575.41 18.2588L574.355 17.7781L573.406 19.8613L574.461 20.3421L575.516 20.8228L576.465 18.7395L575.41 18.2588ZM573.512 22.4253L572.457 21.9446L571.508 24.0279L572.563 24.5086L573.618 24.9893L574.567 22.9061L573.512 22.4253ZM571.613 26.5919L570.558 26.1112L569.609 28.1944L570.664 28.6752L571.719 29.1559L572.668 27.0726L571.613 26.5919ZM569.715 30.7584L568.66 30.2777L567.711 32.361L568.766 32.8417L569.821 33.3224L570.77 31.2392L569.715 30.7584ZM567.816 34.925L566.761 34.4442L565.812 36.5275L566.867 37.0082L567.922 37.489L568.872 35.4057L567.816 34.925ZM565.918 39.0915L564.863 38.6108L563.914 40.694L564.969 41.1748L566.024 41.6555L566.973 39.5722L565.918 39.0915ZM564.02 43.258L562.965 42.7773L562.015 44.8606L563.07 45.3413L564.125 45.822L565.075 43.7388L564.02 43.258ZM562.121 47.4246L561.066 46.9438L560.117 49.0271L561.172 49.5078L562.227 49.9886L563.176 47.9053L562.121 47.4246ZM560.223 51.5911L559.168 51.1104L558.218 53.1936L559.273 53.6744L560.329 54.1551L561.278 52.0718L560.223 51.5911ZM558.324 55.7576L557.269 55.2769L556.32 57.3602L557.375 57.8409L558.43 58.3216L559.379 56.2384L558.324 55.7576ZM556.426 59.9242L555.371 59.4434L554.422 61.5267L555.477 62.0074L556.532 62.4882L557.481 60.4049L556.426 59.9242ZM554.527 64.0907L553.472 63.61L552.523 65.6933L553.578 66.174L554.633 66.6547L555.582 64.5714L554.527 64.0907ZM552.629 68.2572L551.574 67.7765L550.625 69.8598L551.68 70.3405L552.735 70.8212L553.684 68.738L552.629 68.2572ZM550.73 72.4238L549.675 71.9431L548.726 74.0263L549.781 74.5071L550.836 74.9878L551.786 72.9045L550.73 72.4238ZM548.832 76.5903L547.777 76.1096L546.828 78.1929L547.883 78.6736L548.938 79.1543L549.887 77.0711L548.832 76.5903ZM546.934 80.7569L545.879 80.2761L544.929 82.3594L545.984 82.8401L547.039 83.3209L547.989 81.2376L546.934 80.7569ZM545.035 84.9234L543.98 84.4427L543.505 85.4843L544.561 85.965L545.616 86.4458L546.09 85.4041L545.035 84.9234Z" fill="var(--stroke-0, #D3E8F3)"/>
<path id="Line 10" d="M671.287 9.8736L670.977 8.75513L669.941 9.34691L670.251 10.4654L670.561 11.5839L671.596 10.9921L671.287 9.8736ZM668.18 11.6489L667.87 10.5305L665.799 11.714L666.108 12.8325L666.418 13.951L668.49 12.7674L668.18 11.6489ZM664.037 14.0161L663.727 12.8976L661.656 14.0812L661.966 15.1996L662.276 16.3181L664.347 15.1345L664.037 14.0161ZM659.895 16.3832L659.585 15.2647L657.514 16.4483L657.824 17.5668L658.133 18.6852L660.205 17.5017L659.895 16.3832ZM655.752 18.7503L655.442 17.6319L653.371 18.8154L653.681 19.9339L653.991 21.0524L656.062 19.8688L655.752 18.7503ZM651.61 21.1175L651.3 19.999L649.229 21.1825L649.539 22.301L649.849 23.4195L651.92 22.2359L651.61 21.1175ZM647.467 23.4846L647.158 22.3661L645.086 23.5497L645.396 24.6681L645.706 25.7866L647.777 24.603L647.467 23.4846ZM643.325 25.8517L643.015 24.7332L640.944 25.9168L641.254 27.0353L641.564 28.1537L643.635 26.9702L643.325 25.8517ZM639.183 28.2188L638.873 27.1004L636.801 28.2839L637.111 29.4024L637.421 30.5209L639.492 29.3373L639.183 28.2188ZM635.04 30.586L634.73 29.4675L632.659 30.651L632.969 31.7695L633.279 32.888L635.35 31.7044L635.04 30.586ZM630.898 32.9531L630.588 31.8346L628.517 33.0182L628.826 34.1366L629.136 35.2551L631.208 34.0715L630.898 32.9531ZM626.755 35.3202L626.445 34.2017L624.374 35.3853L624.684 36.5038L624.994 37.6222L627.065 36.4387L626.755 35.3202ZM622.613 37.6873L622.303 36.5689L620.232 37.7524L620.542 38.8709L620.851 39.9894L622.923 38.8058L622.613 37.6873ZM618.47 40.0544L618.16 38.936L616.089 40.1195L616.399 41.238L616.709 42.3565L618.78 41.1729L618.47 40.0544ZM614.328 42.4216L614.018 41.3031L611.947 42.4867L612.257 43.6051L612.566 44.7236L614.638 43.54L614.328 42.4216ZM610.185 44.7887L609.875 43.6702L607.804 44.8538L608.114 45.9723L608.424 47.0907L610.495 45.9072L610.185 44.7887ZM606.043 47.1558L605.733 46.0374L603.662 47.2209L603.972 48.3394L604.282 49.4579L606.353 48.2743L606.043 47.1558ZM601.9 49.523L601.591 48.4045L599.519 49.5881L599.829 50.7065L600.139 51.825L602.21 50.6414L601.9 49.523ZM597.758 51.8901L597.448 50.7716L595.377 51.9552L595.687 53.0737L595.997 54.1921L598.068 53.0086L597.758 51.8901ZM593.616 54.2572L593.306 53.1387L591.234 54.3223L591.544 55.4408L591.854 56.5593L593.925 55.3757L593.616 54.2572ZM589.473 56.6243L589.163 55.5059L587.092 56.6894L587.402 57.8079L587.712 58.9264L589.783 57.7428L589.473 56.6243ZM585.331 58.9915L585.021 57.873L582.95 59.0566L583.259 60.175L583.569 61.2935L585.641 60.1099L585.331 58.9915ZM581.188 61.3586L580.878 60.2401L578.807 61.4237L579.117 62.5422L579.427 63.6606L581.498 62.4771L581.188 61.3586ZM577.046 63.7257L576.736 62.6073L574.665 63.7908L574.974 64.9093L575.284 66.0278L577.356 64.8442L577.046 63.7257ZM572.903 66.0929L572.593 64.9744L570.522 66.158L570.832 67.2764L571.142 68.3949L573.213 67.2113L572.903 66.0929ZM568.761 68.46L568.451 67.3415L566.38 68.5251L566.69 69.6436L566.999 70.762L569.071 69.5785L568.761 68.46ZM564.618 70.8271L564.308 69.7086L562.237 70.8922L562.547 72.0107L562.857 73.1292L564.928 71.9456L564.618 70.8271ZM560.476 73.1942L560.166 72.0758L558.095 73.2593L558.405 74.3778L558.715 75.4963L560.786 74.3127L560.476 73.1942ZM556.333 75.5614L556.024 74.4429L553.952 75.6265L554.262 76.7449L554.572 77.8634L556.643 76.6798L556.333 75.5614ZM552.191 77.9285L551.881 76.81L549.81 77.9936L550.12 79.112L550.43 80.2305L552.501 79.047L552.191 77.9285ZM548.049 80.2956L547.739 79.1771L545.667 80.3607L545.977 81.4792L546.287 82.5976L548.358 81.4141L548.049 80.2956ZM543.906 82.6627L543.596 81.5443L541.525 82.7278L541.835 83.8463L542.145 84.9648L544.216 83.7812L543.906 82.6627ZM539.764 85.0299L539.454 83.9114L537.383 85.0949L537.692 86.2134L538.002 87.3319L540.074 86.1483L539.764 85.0299ZM535.621 87.397L535.311 86.2785L533.24 87.4621L533.55 88.5805L533.86 89.699L535.931 88.5154L535.621 87.397ZM531.479 89.7641L531.169 88.6456L529.098 89.8292L529.408 90.9477L529.717 92.0661L531.789 90.8826L531.479 89.7641ZM527.336 92.1312L527.026 91.0127L524.955 92.1963L525.265 93.3148L525.575 94.4332L527.646 93.2497L527.336 92.1312ZM523.194 94.4983L522.884 93.3799L521.848 93.9717L522.158 95.0901L522.468 96.2086L523.504 95.6168L523.194 94.4983Z" fill="var(--stroke-0, #D3E8F3)"/>
<path id="Line 11" d="M838.76 4.54929L838.576 3.40367L837.448 3.76876L837.632 4.91438L837.817 6.06L838.945 5.69491L838.76 4.54929ZM835.377 5.64456L835.192 4.49894L832.937 5.22912L833.122 6.37474L833.306 7.52036L835.562 6.79018L835.377 5.64456ZM830.866 7.10492L830.682 5.9593L828.426 6.68948L828.611 7.8351L828.795 8.98071L831.051 8.25053L830.866 7.10492ZM826.355 8.56527L826.171 7.41966L823.915 8.14984L824.1 9.29545L824.284 10.4411L826.54 9.71089L826.355 8.56527ZM821.844 10.0256L821.66 8.88001L819.404 9.61019L819.589 10.7558L819.773 11.9014L822.029 11.1712L821.844 10.0256ZM817.333 11.486L817.149 10.3404L814.893 11.0706L815.078 12.2162L815.263 13.3618L817.518 12.6316L817.333 11.486ZM812.823 12.9463L812.638 11.8007L810.383 12.5309L810.567 13.6765L810.752 14.8221L813.007 14.092L812.823 12.9463ZM808.312 14.4067L808.127 13.2611L805.872 13.9913L806.056 15.1369L806.241 16.2825L808.496 15.5523L808.312 14.4067ZM803.801 15.8671L803.616 14.7214L801.361 15.4516L801.545 16.5972L801.73 17.7429L803.985 17.0127L803.801 15.8671ZM799.29 17.3274L799.105 16.1818L796.85 16.912L797.034 18.0576L797.219 19.2032L799.474 18.473L799.29 17.3274ZM794.779 18.7878L794.594 17.6422L792.339 18.3723L792.524 19.518L792.708 20.6636L794.964 19.9334L794.779 18.7878ZM790.268 20.2481L790.084 19.1025L787.828 19.8327L788.013 20.9783L788.197 22.1239L790.453 21.3938L790.268 20.2481ZM785.757 21.7085L785.573 20.5629L783.317 21.2931L783.502 22.4387L783.686 23.5843L785.942 22.8541L785.757 21.7085ZM781.246 23.1689L781.062 22.0232L778.806 22.7534L778.991 23.899L779.175 25.0446L781.431 24.3145L781.246 23.1689ZM776.735 24.6292L776.551 23.4836L774.295 24.2138L774.48 25.3594L774.665 26.505L776.92 25.7748L776.735 24.6292ZM772.225 26.0896L772.04 24.9439L769.785 25.6741L769.969 26.8197L770.154 27.9654L772.409 27.2352L772.225 26.0896ZM767.714 27.5499L767.529 26.4043L765.274 27.1345L765.458 28.2801L765.643 29.4257L767.898 28.6955L767.714 27.5499ZM763.203 29.0103L763.018 27.8647L760.763 28.5948L760.947 29.7405L761.132 30.8861L763.387 30.1559L763.203 29.0103ZM758.692 30.4706L758.507 29.325L756.252 30.0552L756.437 31.2008L756.621 32.3464L758.877 31.6163L758.692 30.4706ZM754.181 31.931L753.997 30.7854L751.741 31.5156L751.926 32.6612L752.11 33.8068L754.366 33.0766L754.181 31.931ZM749.67 33.3914L749.486 32.2457L747.23 32.9759L747.415 34.1215L747.599 35.2671L749.855 34.537L749.67 33.3914ZM745.159 34.8517L744.975 33.7061L742.719 34.4363L742.904 35.5819L743.088 36.7275L745.344 35.9973L745.159 34.8517ZM740.648 36.3121L740.464 35.1665L738.208 35.8966L738.393 37.0422L738.578 38.1879L740.833 37.4577L740.648 36.3121ZM736.138 37.7724L735.953 36.6268L733.698 37.357L733.882 38.5026L734.067 39.6482L736.322 38.918L736.138 37.7724ZM731.627 39.2328L731.442 38.0872L729.187 38.8173L729.371 39.963L729.556 41.1086L731.811 40.3784L731.627 39.2328ZM727.116 40.6931L726.931 39.5475L724.676 40.2777L724.86 41.4233L725.045 42.5689L727.3 41.8388L727.116 40.6931ZM722.605 42.1535L722.42 41.0079L720.165 41.7381L720.349 42.8837L720.534 44.0293L722.789 43.2991L722.605 42.1535ZM718.094 43.6139L717.909 42.4682L715.654 43.1984L715.839 44.344L716.023 45.4897L718.279 44.7595L718.094 43.6139ZM713.583 45.0742L713.399 43.9286L711.143 44.6588L711.328 45.8044L711.512 46.95L713.768 46.2198L713.583 45.0742ZM709.072 46.5346L708.888 45.389L706.632 46.1191L706.817 47.2648L707.001 48.4104L709.257 47.6802L709.072 46.5346ZM704.561 47.9949L704.377 46.8493L702.121 47.5795L702.306 48.7251L702.49 49.8707L704.746 49.1406L704.561 47.9949ZM700.05 49.4553L699.866 48.3097L697.61 49.0398L697.795 50.1855L697.98 51.3311L700.235 50.6009L700.05 49.4553ZM695.54 50.9156L695.355 49.77L693.1 50.5002L693.284 51.6458L693.469 52.7914L695.724 52.0613L695.54 50.9156ZM691.029 52.376L690.844 51.2304L688.589 51.9606L688.773 53.1062L688.958 54.2518L691.213 53.5216L691.029 52.376ZM686.518 53.8364L686.333 52.6907L684.078 53.4209L684.262 54.5665L684.447 55.7122L686.702 54.982L686.518 53.8364ZM682.007 55.2967L681.822 54.1511L679.567 54.8813L679.751 56.0269L679.936 57.1725L682.191 56.4423L682.007 55.2967ZM677.496 56.7571L677.311 55.6115L675.056 56.3416L675.241 57.4873L675.425 58.6329L677.681 57.9027L677.496 56.7571ZM672.985 58.2174L672.801 57.0718L670.545 57.802L670.73 58.9476L670.914 60.0932L673.17 59.3631L672.985 58.2174ZM668.474 59.6778L668.29 58.5322L666.034 59.2624L666.219 60.408L666.403 61.5536L668.659 60.8234L668.474 59.6778ZM663.963 61.1382L663.779 59.9925L661.523 60.7227L661.708 61.8683L661.892 63.0139L664.148 62.2838L663.963 61.1382ZM659.452 62.5985L659.268 61.4529L657.012 62.1831L657.197 63.3287L657.382 64.4743L659.637 63.7441L659.452 62.5985ZM654.942 64.0589L654.757 62.9133L652.502 63.6434L652.686 64.789L652.871 65.9347L655.126 65.2045L654.942 64.0589ZM650.431 65.5192L650.246 64.3736L647.991 65.1038L648.175 66.2494L648.36 67.395L650.615 66.6648L650.431 65.5192ZM645.92 66.9796L645.735 65.834L643.48 66.5641L643.664 67.7098L643.849 68.8554L646.104 68.1252L645.92 66.9796ZM641.409 68.4399L641.224 67.2943L638.969 68.0245L639.153 69.1701L639.338 70.3157L641.593 69.5856L641.409 68.4399ZM636.898 69.9003L636.713 68.7547L634.458 69.4849L634.643 70.6305L634.827 71.7761L637.083 71.0459L636.898 69.9003ZM632.387 71.3607L632.203 70.215L629.947 70.9452L630.132 72.0908L630.316 73.2364L632.572 72.5063L632.387 71.3607ZM627.876 72.821L627.692 71.6754L625.436 72.4056L625.621 73.5512L625.805 74.6968L628.061 73.9666L627.876 72.821ZM623.365 74.2814L623.181 73.1358L620.925 73.8659L621.11 75.0115L621.294 76.1572L623.55 75.427L623.365 74.2814ZM618.854 75.7417L618.67 74.5961L616.415 75.3263L616.599 76.4719L616.784 77.6175L619.039 76.8873L618.854 75.7417ZM614.344 77.2021L614.159 76.0565L611.904 76.7866L612.088 77.9323L612.273 79.0779L614.528 78.3477L614.344 77.2021ZM609.833 78.6624L609.648 77.5168L607.393 78.247L607.577 79.3926L607.762 80.5382L610.017 79.8081L609.833 78.6624ZM605.322 80.1228L605.137 78.9772L602.882 79.7074L603.066 80.853L603.251 81.9986L605.506 81.2684L605.322 80.1228ZM600.811 81.5832L600.626 80.4375L598.371 81.1677L598.556 82.3133L598.74 83.459L600.996 82.7288L600.811 81.5832ZM596.3 83.0435L596.116 81.8979L593.86 82.6281L594.045 83.7737L594.229 84.9193L596.485 84.1891L596.3 83.0435ZM591.789 84.5039L591.605 83.3583L589.349 84.0884L589.534 85.234L589.718 86.3797L591.974 85.6495L591.789 84.5039ZM587.278 85.9642L587.094 84.8186L584.838 85.5488L585.023 86.6944L585.207 87.84L587.463 87.1098L587.278 85.9642ZM582.767 87.4246L582.583 86.279L580.327 87.0091L580.512 88.1547L580.697 89.3004L582.952 88.5702L582.767 87.4246ZM578.257 88.8849L578.072 87.7393L575.817 88.4695L576.001 89.6151L576.186 90.7607L578.441 90.0305L578.257 88.8849ZM573.746 90.3453L573.561 89.1997L571.306 89.9298L571.49 91.0754L571.675 92.2211L573.93 91.4909L573.746 90.3453ZM569.235 91.8056L569.05 90.66L566.795 91.3902L566.979 92.5358L567.164 93.6814L569.419 92.9512L569.235 91.8056ZM564.724 93.266L564.539 92.1203L562.284 92.8505L562.469 93.9961L562.653 95.1418L564.909 94.4116L564.724 93.266ZM560.213 94.7263L560.029 93.5807L558.901 93.9458L559.085 95.0914L559.27 96.2371L560.398 95.8719L560.213 94.7263Z" fill="var(--stroke-0, #D3E8F3)"/>
</g>
</g>
</svg>
