<svg preserveAspectRatio="none" width="100%" height="100%" overflow="visible" style="display: block;" viewBox="0 0 24 24" fill="none" xmlns="http://www.w3.org/2000/svg">
<g id="article_person">
<path id="Vector" d="M4.55362 2.86208H19.4462C19.9029 2.86208 20.2991 3.03021 20.6347 3.36598C20.9702 3.70146 21.1375 4.09704 21.1376 4.55348V10.5105C21.1375 10.7503 21.056 10.9441 20.8935 11.0935C20.73 11.2436 20.5299 11.3191 20.2929 11.3191C20.0561 11.3191 19.8592 11.2389 19.7011 11.0789C19.5431 10.9188 19.4638 10.7211 19.4638 10.4851V4.53591H4.53605V19.4646H9.88468C10.1202 19.4647 10.3174 19.5449 10.4775 19.7058C10.6376 19.8668 10.7177 20.0654 10.7177 20.3025C10.7176 20.5395 10.6375 20.7364 10.4775 20.8943C10.3174 21.0523 10.1203 21.1315 9.88468 21.1316H4.55362C4.09864 21.1316 3.70445 20.9642 3.37003 20.6297C3.03552 20.2952 2.86808 19.901 2.86808 19.4461V4.55348C2.86814 4.09692 3.03556 3.7015 3.37003 3.36598C3.70445 3.03024 4.09866 2.86211 4.55362 2.86208ZM17.2421 16.9392C17.9291 16.9392 18.5915 17.0098 19.2294 17.1511C19.867 17.2924 20.4978 17.5313 21.121 17.8679L21.122 17.8689C21.4677 18.0292 21.7381 18.2737 21.9335 18.6033C22.1288 18.9333 22.2275 19.3235 22.2275 19.7732V20.2976C22.2275 20.5335 22.1456 20.7312 21.9833 20.8914C21.8208 21.0514 21.6227 21.1316 21.3876 21.1316H13.0878C12.852 21.1316 12.6542 21.0515 12.4941 20.8914C12.3338 20.7312 12.2538 20.5336 12.2538 20.2976V19.7732C12.2538 19.3242 12.3506 18.9377 12.5439 18.614C12.7374 18.2903 13.0071 18.0411 13.3534 17.8679H13.3544C13.9737 17.548 14.6045 17.3134 15.247 17.1638C15.8898 17.0142 16.5549 16.9392 17.2421 16.9392ZM7.70499 15.5125H12.5556C12.7635 15.5125 12.9371 15.5833 13.0771 15.7234C13.2171 15.8635 13.287 16.0367 13.287 16.2439C13.287 16.4509 13.217 16.6243 13.0771 16.7654C12.9371 16.9063 12.7635 16.9773 12.5556 16.9773H7.70402C7.49599 16.9772 7.32237 16.9074 7.18253 16.7693C7.04293 16.6313 6.97262 16.4596 6.97257 16.2527C6.97257 16.0454 7.04325 15.8703 7.18351 15.7273C7.3238 15.5844 7.49724 15.5125 7.70499 15.5125ZM17.2401 10.6013C17.9232 10.6013 18.4998 10.836 18.9706 11.3045C19.4412 11.7732 19.6766 12.3498 19.6767 13.0349C19.6767 13.7203 19.4413 14.2967 18.9706 14.7654C18.4998 15.2343 17.9234 15.4695 17.2401 15.4695C16.5571 15.4694 15.9805 15.2342 15.5097 14.7654C15.039 14.2968 14.8036 13.7202 14.8036 13.0349C14.8037 12.3498 15.0389 11.7732 15.5097 11.3045C15.9805 10.8358 16.5571 10.6014 17.2401 10.6013ZM7.70499 11.2683H12.5546C12.7627 11.2683 12.9369 11.3372 13.0771 11.4754C13.2171 11.6134 13.287 11.7868 13.287 11.9959C13.2869 12.2051 13.2163 12.3794 13.0761 12.5203C12.936 12.6613 12.7625 12.7322 12.5546 12.7322H7.70499C7.49715 12.7322 7.32372 12.6631 7.18351 12.5252C7.04351 12.3871 6.97261 12.2138 6.97257 12.0047C6.97257 11.7953 7.04336 11.6202 7.18351 11.4793C7.32376 11.3384 7.49721 11.2683 7.70499 11.2683ZM7.70695 7.01735H16.3007C16.5046 7.01735 16.6778 7.08702 16.8202 7.22731C16.9623 7.36748 17.0331 7.53998 17.0331 7.74489C17.033 7.95392 16.9621 8.12844 16.8202 8.26931C16.6778 8.41058 16.5045 8.48122 16.3007 8.48122H7.70695C7.49832 8.48121 7.32407 8.41222 7.18351 8.27419C7.0432 8.13615 6.97265 7.96374 6.97257 7.75661C6.97257 7.54953 7.04297 7.3744 7.18351 7.23122C7.32415 7.0883 7.49841 7.01736 7.70695 7.01735Z" fill="var(--fill-0, #2DA2DB)" stroke="var(--stroke-0, #2DA2DB)" stroke-width="0.0358696"/>
</g>
</svg>
