<svg preserveAspectRatio="none" width="100%" height="100%" overflow="visible" style="display: block;" viewBox="0 0 24 24" fill="none" xmlns="http://www.w3.org/2000/svg">
<g id="data_table">
<path id="Vector" d="M4.55362 2.85817H19.4462C19.9041 2.85817 20.3012 3.0256 20.6376 3.36208C20.9741 3.69843 21.1424 4.09565 21.1425 4.55348V19.4461C21.1425 19.9023 20.9742 20.2983 20.6376 20.6336C20.3012 20.9689 19.9041 21.1365 19.4462 21.1365H4.55362C4.09755 21.1365 3.70225 20.9687 3.3671 20.6336C3.03168 20.2983 2.86417 19.9023 2.86417 19.4461V4.55348C2.86424 4.09563 3.03174 3.69843 3.3671 3.36208C3.70225 3.02578 4.09758 2.8582 4.55362 2.85817ZM4.53995 19.4597H19.4599V15.4627H4.53995V19.4597ZM6.85831 16.7459C7.06016 16.7459 7.22979 16.813 7.3671 16.948C7.50451 17.083 7.57316 17.2536 7.57316 17.4597C7.5731 17.664 7.50337 17.8336 7.3632 17.9685C7.22284 18.1035 7.05141 18.1707 6.84952 18.1707C6.64768 18.1706 6.48045 18.1014 6.34757 17.9636C6.21474 17.8259 6.14839 17.6553 6.14835 17.4509C6.14835 17.2976 6.1866 17.1646 6.26261 17.0515L6.3505 16.9451C6.48553 16.8122 6.65459 16.746 6.85831 16.7459ZM4.53995 13.989H19.4599V10.0105H4.53995V13.989ZM6.85831 11.2879C7.0601 11.2879 7.22976 11.3562 7.3671 11.4939C7.50466 11.632 7.57316 11.8022 7.57316 12.0047C7.57312 12.2067 7.50332 12.3746 7.3632 12.5095C7.2228 12.6447 7.05151 12.7127 6.84952 12.7127C6.64767 12.7126 6.47955 12.6433 6.34464 12.5056C6.20978 12.3677 6.14257 12.1981 6.14249 11.9959C6.14249 11.7936 6.21157 11.625 6.34952 11.49C6.48725 11.3552 6.65646 11.288 6.85831 11.2879ZM4.53995 8.53786H19.4599V4.53981H4.53995V8.53786ZM6.85831 5.82888C7.06022 5.82888 7.22973 5.89837 7.3671 6.03591C7.50451 6.17338 7.57313 6.34315 7.57316 6.54665C7.57316 6.74857 7.50336 6.91652 7.3632 7.05153C7.2228 7.18669 7.05151 7.25466 6.84952 7.25466C6.64768 7.25455 6.48045 7.18541 6.34757 7.04763C6.21458 6.90964 6.14835 6.73981 6.14835 6.53786C6.14838 6.33613 6.21578 6.16821 6.3505 6.03298C6.48555 5.8976 6.65467 5.82897 6.85831 5.82888Z" fill="var(--fill-0, #2DA2DB)" stroke="var(--stroke-0, #4CC4FE)" stroke-width="0.0269022"/>
</g>
</svg>
