<svg preserveAspectRatio="none" width="100%" height="100%" overflow="visible" style="display: block;" viewBox="0 0 80 80" fill="none" xmlns="http://www.w3.org/2000/svg">
<g id="15">
<g clip-path="url(#clip0_0_69)">
<rect width="80" height="80" rx="40" fill="var(--fill-0, #F4813E)"/>
<path id="Vector" d="M79.8592 40.0001C79.8592 62.0527 61.9821 79.9298 39.9295 79.9298C17.8776 79.9298 0.000488281 62.0527 0.000488281 40.0001C0.000488281 17.9482 17.8776 0.0710921 39.9295 0.0710921C61.9821 0.0710921 79.8592 17.9482 79.8592 40.0001Z" fill="var(--fill-0, #F4813E)"/>
<path id="Union" d="M18.5601 81C15.3056 81 12.6667 78.389 12.6665 75.168V70.1123C12.6667 65.1136 14.9852 60.6943 18.5601 57.6992V81ZM38.2349 81H22.4888V55.2041C23.6599 54.6897 24.8879 54.3128 26.1479 54.083L38.2349 81ZM44.0952 69.335C47.3449 69.335 49.9878 71.9516 49.9878 75.168C49.9876 78.3841 47.3447 81 44.0952 81H42.5347L37.2964 69.335H44.0952ZM31.2183 53.7822C33.9485 55.0191 36.9735 55.7265 40.1665 55.7266C43.3595 55.7266 46.3845 55.019 49.1147 53.7822H51.1665C60.2793 53.7822 67.6662 61.0929 67.6665 70.1123V75.168C67.6663 78.3889 65.0283 80.9999 61.7739 81H51.9019C53.1479 79.3707 53.9164 77.3647 53.9165 75.168C53.9165 69.8082 49.5105 65.4473 44.0952 65.4473H35.5522L30.313 53.7822H31.2183ZM55.6831 32.3965C55.7641 33.0404 55.8813 33.675 55.8813 34.3408C55.8812 42.9302 48.8448 49.8936 40.1665 49.8936C31.4883 49.8934 24.4528 42.9301 24.4526 34.3408C24.4526 33.675 24.5676 33.0404 24.6499 32.3965H55.6831ZM40.1665 18.7871C42.5126 18.7871 44.7194 19.3306 46.7192 20.2432L35.5854 28.5078H25.6177C27.9515 22.8129 33.5753 18.7872 40.1665 18.7871ZM50.2358 22.4912C52.178 24.1097 53.7464 26.1421 54.7163 28.5078H42.1294L50.2358 22.4912Z" fill="var(--fill-0, white)"/>
</g>
</g>
<defs>
<clipPath id="clip0_0_69">
<rect width="80" height="80" rx="40" fill="white"/>
</clipPath>
</defs>
</svg>
