<svg preserveAspectRatio="none" width="100%" height="100%" overflow="visible" style="display: block;" viewBox="0 0 80 80.0001" fill="none" xmlns="http://www.w3.org/2000/svg">
<g id="3">
<path id="Vector" d="M79.9212 39.9998C79.9212 62.0523 62.044 79.9295 39.9914 79.9295C17.9395 79.9295 0.062378 62.0523 0.062378 39.9998C0.062378 17.9479 17.9395 0.0707721 39.9914 0.0707721C62.044 0.0707721 79.9212 17.9479 79.9212 39.9998Z" fill="var(--fill-0, white)"/>
<path id="Vector_2" d="M51.5422 73.1766C54.0733 67.3229 53.2812 60.2302 49.781 54.8994C50.1486 56.7374 50.233 58.6687 49.7152 60.4713C49.1967 62.2731 48.0221 63.9374 46.343 64.7732C47.2795 60.8604 47.5161 56.7227 46.5339 52.8216C45.5508 48.9206 43.2749 45.2711 39.9138 43.0602C40.5322 45.6379 40.1453 48.4428 38.8524 50.7565C37.8287 52.5894 36.2975 54.0635 34.7287 55.4297C33.1369 56.8173 31.4586 58.1265 30.0606 59.7191C28.5776 61.4092 27.5124 63.4529 27.1426 65.683C27.1115 65.8709 27.0849 66.0595 27.0627 66.2489C26.8194 68.317 27.1005 70.4413 27.7588 72.4103C28.599 74.9223 30.0443 77.2552 32.0466 78.9897C32.1576 79.0859 32.2737 79.1754 32.3876 79.2671C34.853 79.742 37.396 80.0001 39.9996 80.0001C42.3148 80.0001 44.5796 79.7923 46.7861 79.415C48.8897 77.8144 50.4926 75.6035 51.5422 73.1766Z" fill="var(--fill-0, #F4813E)"/>
<path id="Vector_3" d="M40 9.60774e-05C17.909 9.60774e-05 6.10352e-06 17.9083 6.10352e-06 40.0001C6.10352e-06 59.0599 13.3356 74.9954 31.1824 79.0126C29.7918 78.3373 28.4596 77.5391 27.2266 76.6116C23.1754 73.5656 20.0947 69.3273 18.0828 64.6748C13.2771 53.559 14.7809 40.091 21.4276 29.9679C20.7293 33.4599 20.5688 37.1264 21.5526 40.5489C22.5363 43.9714 24.7672 47.1312 27.9559 48.7171C26.177 41.2878 25.728 33.4318 27.5935 26.024C29.4589 18.6154 33.7808 11.6869 40.1627 7.48853C38.9896 12.3829 39.7241 17.7078 42.1783 22.1022C44.1229 25.5831 47.0299 28.3813 50.0085 30.9768C53.0316 33.6108 56.2188 36.0976 58.8728 39.1213C61.6894 42.33 63.7124 46.2111 64.4136 50.445C64.4728 50.803 64.5238 51.161 64.566 51.5205C65.0283 55.4474 64.4943 59.4808 63.2442 63.2198C61.6487 67.99 58.9038 72.4191 55.1019 75.7129C53.9561 76.7055 52.7105 77.5872 51.3947 78.3439C67.933 73.4354 80 58.1309 80 40.0001C80 17.9083 62.0911 9.60774e-05 40 9.60774e-05Z" fill="var(--fill-0, #F4813E)"/>
</g>
</svg>
