<svg preserveAspectRatio="none" width="100%" height="100%" overflow="visible" style="display: block;" viewBox="0 0 80 80" fill="none" xmlns="http://www.w3.org/2000/svg">
<g id="15">
<g clip-path="url(#clip0_0_552)">
<rect width="80" height="80" rx="40" fill="var(--fill-0, #F4813E)"/>
<path id="Vector" d="M79.8592 40.0001C79.8592 62.0527 61.9821 79.9298 39.9295 79.9298C17.8776 79.9298 0.000488281 62.0527 0.000488281 40.0001C0.000488281 17.9482 17.8776 0.0710921 39.9295 0.0710921C61.9821 0.0710921 79.8592 17.9482 79.8592 40.0001Z" fill="var(--fill-0, #F4813E)"/>
<path id="Union" d="M49.6855 24.9873C50.2789 24.9873 50.8412 25.1797 51.3115 25.543C51.874 25.9769 52.2336 26.6044 52.3242 27.3096C52.4148 28.0148 52.2255 28.7136 51.791 29.2764C51.7479 29.3322 47.5423 34.7808 47.4658 34.8662C46.9966 35.3782 46.3575 35.6803 45.665 35.7178L42.4004 36.0146L48.4893 43.001L52.6719 39.9492C52.6798 39.9434 52.6883 39.9372 52.6963 39.9316C53.1992 39.5855 53.7873 39.4033 54.3965 39.4033C54.6748 39.4033 54.9467 39.4453 55.208 39.5186C55.2487 39.5273 55.289 39.5431 55.3291 39.5566C55.5004 39.6127 55.6672 39.6811 55.8252 39.7666L65.0488 43.8643C66.5626 44.5458 67.2387 46.3262 66.5596 47.835L66.5215 47.917C66.0413 48.9832 64.9667 49.6777 63.7881 49.6777C63.3613 49.6777 62.9468 49.5883 62.5557 49.4121L54.791 45.9629L49.0078 50.3184C49.0078 50.3184 52.2974 54.2626 52.3184 54.293C52.7711 54.9546 52.9349 55.7518 52.792 56.541C52.7758 56.6298 52.767 56.7665 52.6992 56.9932C52.6901 57.0172 49.4652 65.5337 49.4541 65.5576C48.9634 66.6108 47.8948 67.2909 46.7324 67.291C46.2928 67.291 45.8664 67.1967 45.4658 67.0098L45.3867 66.9727C44.6659 66.6366 44.1148 66.0347 43.8408 65.2812C43.572 64.5419 43.6013 63.7426 43.9229 63.0264L46.3613 56.5869L35.6875 43.9404L35.4424 46.2236L38.7246 49.8623C39.8394 50.9627 39.8684 52.7639 38.7822 53.8984L38.7295 53.9541C38.1912 54.5165 37.4341 54.8397 36.6533 54.8398C35.9088 54.8398 35.2012 54.5562 34.6631 54.041C34.6446 54.0233 34.6263 54.0044 34.6094 53.9854C34.5911 53.965 30.0847 48.9508 30.0381 48.873C29.6597 48.3475 29.4694 47.7142 29.501 47.0576C29.5079 46.9806 30.689 36.1898 30.7354 36.0752C30.8993 35.4322 31.2513 34.853 31.7617 34.4082L34.5225 32.0029C34.9442 31.6354 35.4501 31.3867 35.9893 31.2695C36.0671 31.2455 44.1182 30.5029 44.1182 30.5029L47.5781 26.0225C48.0859 25.3649 48.8539 24.9873 49.6855 24.9873ZM23.6084 29.3379L20.542 28.707L22.5283 33.0166H20.542L23.6084 36.082V39.7607L7.66602 28.1113L18.0898 29.3379L16.8633 12.7832L23.6084 29.3379ZM57.0381 29.6689L63.7832 24.7637L59.4912 32.7344L66.2354 38.2529L57.0381 36.4141L55.6768 34.8398L57.0381 32.7344L54.084 33.248L52.7471 32.1221L57.0381 18.0195V29.6689ZM29.4629 22.415C29.6513 22.415 29.8424 22.4283 30.0303 22.4541C31.1234 22.6042 32.0926 23.1725 32.7529 24.0371C33.318 24.2051 33.814 24.5481 34.1777 25.0273C34.6299 25.6228 34.8237 26.3588 34.7217 27.0996L34.6982 28.2949C34.3796 30.6148 32.3753 32.3642 30.0371 32.3643C29.8227 32.3643 29.6057 32.3495 29.3926 32.3203C26.8204 31.9674 25.0148 29.5873 25.3672 27.0156V25.9912C25.647 23.9525 27.4077 22.4152 29.4629 22.415Z" fill="var(--fill-0, white)"/>
</g>
</g>
<defs>
<clipPath id="clip0_0_552">
<rect width="80" height="80" rx="40" fill="white"/>
</clipPath>
</defs>
</svg>
