<svg preserveAspectRatio="none" width="100%" height="100%" overflow="visible" style="display: block;" viewBox="0 0 20 20" fill="none" xmlns="http://www.w3.org/2000/svg">
<g id="lightbulb_2">
<path id="Vector" d="M5.00497 5.80857C5.18497 5.2496 5.46426 4.7346 5.84482 4.25974C5.46982 4.73426 5.18948 5.25161 5.00497 5.80857ZM5.00497 5.80857C4.99265 5.84684 4.98023 5.88512 4.96884 5.9238C4.98059 5.88525 4.99233 5.84675 5.00497 5.80857ZM12.5274 12.1718C12.5361 12.1615 12.5485 12.1489 12.5655 12.1338L12.6163 12.0986V13.6855C12.6163 13.8197 12.5857 13.9295 12.5274 14.0302V12.1718ZM7.38388 12.0986L7.43368 12.1338C7.45146 12.1495 7.46426 12.1622 7.47275 12.1728V14.0312C7.41441 13.9303 7.38392 13.8202 7.38388 13.6855V12.0986Z" stroke="var(--stroke-0, #2DA2DB)" stroke-width="1.43478"/>
</g>
</svg>
