<svg preserveAspectRatio="none" width="100%" height="100%" overflow="visible" style="display: block;" viewBox="0 0 40 40" fill="none" xmlns="http://www.w3.org/2000/svg">
<g id="ship">
<path id="Vector" d="M20 16.9816V23.3333M20 16.9816C20.4662 16.9816 20.9272 17.0794 21.3533 17.2687L34.9999 23.3337C35.0262 26.8506 34.0927 30.308 32.2999 33.3337M20 16.9816C19.5338 16.9816 19.0727 17.0794 18.6466 17.2687L4.99992 23.3337C4.92277 28.0732 6.58945 32.6758 9.68325 36.267M20 3.33333V8.33333M31.6667 21.6667V11.6667C31.6667 10.7826 31.3155 9.93476 30.6904 9.30964C30.0652 8.68452 29.2174 8.33333 28.3333 8.33333H11.6667C10.7826 8.33333 9.93476 8.68452 9.30964 9.30964C8.68452 9.93476 8.33333 10.7826 8.33333 11.6667V21.6667M3.33333 35C4.33333 35.8333 5.33333 36.6667 7.5 36.6667C11.6667 36.6667 11.6667 33.3333 15.8333 33.3333C18 33.3333 19 34.1667 20 35C21 35.8333 22 36.6667 24.1667 36.6667C28.3333 36.6667 28.3333 33.3333 32.5 33.3333C34.6667 33.3333 35.6667 34.1667 36.6667 35" stroke="var(--stroke-0, #2DA2DB)" stroke-width="3" stroke-linecap="round" stroke-linejoin="round"/>
</g>
</svg>
