<svg preserveAspectRatio="none" width="100%" height="100%" overflow="visible" style="display: block;" viewBox="0 0 40 40" fill="none" xmlns="http://www.w3.org/2000/svg">
<g id="component_exchange">
<g id="Vector">
<mask id="path-1-inside-1_0_96" fill="white">
<path d="M7.70292 35.4583L7.43292 33.3571C7.24403 33.259 7.06958 33.1683 6.90958 33.085C6.74958 33.0017 6.57681 32.8946 6.39125 32.7638L4.415 33.585L2.80333 30.7888L4.48833 29.5408V28.3325L2.80333 27.0425L4.415 24.2463L6.39125 25.0679C6.80792 24.7901 7.05792 24.6304 7.14125 24.5888L7.43292 24.4429L7.70292 22.3733H10.9158L11.1858 24.4846C11.2769 24.5335 11.3346 24.5589 11.3587 24.5608C11.3829 24.5625 11.4133 24.5779 11.45 24.6071C11.4869 24.636 11.5568 24.6796 11.6596 24.7379C11.7621 24.796 11.9514 24.906 12.2275 25.0679L14.2038 24.2463L15.8154 27.0425L14.1404 28.2908C14.1893 28.5197 14.2015 28.7869 14.1771 29.0925C14.1526 29.3981 14.0987 29.6031 14.0154 29.7075C14.0643 29.7564 14.1043 29.7808 14.1354 29.7808C14.1665 29.7808 14.2099 29.8019 14.2654 29.8442L24.8988 24.3558L23.2854 27.2908L23.355 27.3504L15.4204 31.4221L14.2038 33.585L12.2275 32.7638C11.8042 33.0138 11.5508 33.1665 11.4675 33.2221C11.3842 33.2776 11.2903 33.3332 11.1858 33.3888L10.9158 35.4583H7.70292ZM9.30417 26.0425C8.52 26.0425 7.84514 26.3253 7.27958 26.8908C6.71403 27.4564 6.43125 28.1314 6.43125 28.9158C6.43125 29.7069 6.71403 30.3853 7.27958 30.9508C7.84514 31.5161 8.52 31.7988 9.30417 31.7988C10.0953 31.7988 10.7736 31.5161 11.3392 30.9508C11.9047 30.3853 12.1875 29.7069 12.1875 28.9158C12.1875 28.1314 11.9047 27.4564 11.3392 26.8908C10.7736 26.3253 10.0953 26.0425 9.30417 26.0425ZM16.6821 15.95L16.4538 13.8904C16.2938 13.786 16.1337 13.6868 15.9737 13.5929C15.8137 13.499 15.6538 13.3965 15.4938 13.2854L15.4104 13.3271V24.9621L14.5037 23.3571L13.4575 23.8233V13.7138L11.8242 11.2908L13.4575 10.0325V8.82417L11.7825 7.54458L13.3942 4.74833L15.3704 5.56958C15.8071 5.27875 16.0654 5.1125 16.1454 5.07083C16.2254 5.02917 16.3143 4.98708 16.4121 4.94458L16.6821 2.875H19.895L20.165 4.97625C20.3472 5.07431 20.52 5.165 20.6833 5.24833C20.8467 5.33167 21.0211 5.43875 21.2067 5.56958L23.1829 4.74833L24.7946 7.54458L23.1096 8.7925V9.99084L24.7946 11.2908L23.1829 14.0771L21.2067 13.2654C20.79 13.5154 20.54 13.6665 20.4567 13.7188C20.3733 13.771 20.2761 13.8282 20.165 13.8904L19.895 15.95H16.6821ZM18.2933 6.53458C17.5025 6.53458 16.8243 6.81722 16.2587 7.3825C15.6932 7.94806 15.4104 8.62306 15.4104 9.4075C15.4104 10.1986 15.6932 10.8769 16.2587 11.4425C16.8243 12.0081 17.5025 12.2908 18.2933 12.2908C19.0778 12.2908 19.7528 12.0081 20.3183 11.4425C20.8839 10.8769 21.1667 10.1986 21.1667 9.4075C21.1667 8.62306 20.8839 7.94806 20.3183 7.3825C19.7528 6.81722 19.0778 6.53458 18.2933 6.53458ZM29.0842 35.4583L28.8242 33.3571C28.6353 33.259 28.4608 33.1683 28.3008 33.085C28.1408 33.0017 27.9681 32.8946 27.7825 32.7638L25.8062 33.585L24.1846 30.7888L25.8596 29.5408V28.3325L24.1846 27.0842L25.8062 24.2463L27.7825 25.0679C27.9492 24.9013 28.0964 24.7746 28.2242 24.6879C28.3519 24.6013 28.4588 24.5401 28.5446 24.5046L28.6696 24.0046L18.7979 16.6529H20.4946L20.6396 15.585L29.7592 22.3733H32.3071L32.5671 24.4846C32.6649 24.5335 32.7242 24.5589 32.745 24.5608C32.7658 24.5625 32.7964 24.5779 32.8367 24.6071C32.8767 24.636 32.9464 24.6796 33.0458 24.7379C33.145 24.796 33.3326 24.906 33.6087 25.0679L35.585 24.2563L37.1967 27.0425L35.5217 28.2908V29.4992L37.1967 30.7888L35.585 33.585L33.6087 32.7638C33.1921 33.0138 32.9421 33.1665 32.8587 33.2221C32.7754 33.2776 32.6782 33.3332 32.5671 33.3888L32.3071 35.4583H29.0842ZM30.6958 26.0425C29.9047 26.0425 29.2264 26.3253 28.6608 26.8908C28.0953 27.4564 27.8125 28.1314 27.8125 28.9158C27.8125 29.7069 28.0953 30.3853 28.6608 30.9508C29.2264 31.5161 29.9047 31.7988 30.6958 31.7988C31.48 31.7988 32.1549 31.5161 32.7204 30.9508C33.286 30.3853 33.5688 29.7069 33.5688 28.9158C33.5688 28.1314 33.286 27.4564 32.7204 26.8908C32.1549 26.3253 31.48 26.0425 30.6958 26.0425Z"/>
</mask>
<path d="M7.70292 35.4583L7.43292 33.3571C7.24403 33.259 7.06958 33.1683 6.90958 33.085C6.74958 33.0017 6.57681 32.8946 6.39125 32.7638L4.415 33.585L2.80333 30.7888L4.48833 29.5408V28.3325L2.80333 27.0425L4.415 24.2463L6.39125 25.0679C6.80792 24.7901 7.05792 24.6304 7.14125 24.5888L7.43292 24.4429L7.70292 22.3733H10.9158L11.1858 24.4846C11.2769 24.5335 11.3346 24.5589 11.3587 24.5608C11.3829 24.5625 11.4133 24.5779 11.45 24.6071C11.4869 24.636 11.5568 24.6796 11.6596 24.7379C11.7621 24.796 11.9514 24.906 12.2275 25.0679L14.2038 24.2463L15.8154 27.0425L14.1404 28.2908C14.1893 28.5197 14.2015 28.7869 14.1771 29.0925C14.1526 29.3981 14.0987 29.6031 14.0154 29.7075C14.0643 29.7564 14.1043 29.7808 14.1354 29.7808C14.1665 29.7808 14.2099 29.8019 14.2654 29.8442L24.8988 24.3558L23.2854 27.2908L23.355 27.3504L15.4204 31.4221L14.2038 33.585L12.2275 32.7638C11.8042 33.0138 11.5508 33.1665 11.4675 33.2221C11.3842 33.2776 11.2903 33.3332 11.1858 33.3888L10.9158 35.4583H7.70292ZM9.30417 26.0425C8.52 26.0425 7.84514 26.3253 7.27958 26.8908C6.71403 27.4564 6.43125 28.1314 6.43125 28.9158C6.43125 29.7069 6.71403 30.3853 7.27958 30.9508C7.84514 31.5161 8.52 31.7988 9.30417 31.7988C10.0953 31.7988 10.7736 31.5161 11.3392 30.9508C11.9047 30.3853 12.1875 29.7069 12.1875 28.9158C12.1875 28.1314 11.9047 27.4564 11.3392 26.8908C10.7736 26.3253 10.0953 26.0425 9.30417 26.0425ZM16.6821 15.95L16.4538 13.8904C16.2938 13.786 16.1337 13.6868 15.9737 13.5929C15.8137 13.499 15.6538 13.3965 15.4938 13.2854L15.4104 13.3271V24.9621L14.5037 23.3571L13.4575 23.8233V13.7138L11.8242 11.2908L13.4575 10.0325V8.82417L11.7825 7.54458L13.3942 4.74833L15.3704 5.56958C15.8071 5.27875 16.0654 5.1125 16.1454 5.07083C16.2254 5.02917 16.3143 4.98708 16.4121 4.94458L16.6821 2.875H19.895L20.165 4.97625C20.3472 5.07431 20.52 5.165 20.6833 5.24833C20.8467 5.33167 21.0211 5.43875 21.2067 5.56958L23.1829 4.74833L24.7946 7.54458L23.1096 8.7925V9.99084L24.7946 11.2908L23.1829 14.0771L21.2067 13.2654C20.79 13.5154 20.54 13.6665 20.4567 13.7188C20.3733 13.771 20.2761 13.8282 20.165 13.8904L19.895 15.95H16.6821ZM18.2933 6.53458C17.5025 6.53458 16.8243 6.81722 16.2587 7.3825C15.6932 7.94806 15.4104 8.62306 15.4104 9.4075C15.4104 10.1986 15.6932 10.8769 16.2587 11.4425C16.8243 12.0081 17.5025 12.2908 18.2933 12.2908C19.0778 12.2908 19.7528 12.0081 20.3183 11.4425C20.8839 10.8769 21.1667 10.1986 21.1667 9.4075C21.1667 8.62306 20.8839 7.94806 20.3183 7.3825C19.7528 6.81722 19.0778 6.53458 18.2933 6.53458ZM29.0842 35.4583L28.8242 33.3571C28.6353 33.259 28.4608 33.1683 28.3008 33.085C28.1408 33.0017 27.9681 32.8946 27.7825 32.7638L25.8062 33.585L24.1846 30.7888L25.8596 29.5408V28.3325L24.1846 27.0842L25.8062 24.2463L27.7825 25.0679C27.9492 24.9013 28.0964 24.7746 28.2242 24.6879C28.3519 24.6013 28.4588 24.5401 28.5446 24.5046L28.6696 24.0046L18.7979 16.6529H20.4946L20.6396 15.585L29.7592 22.3733H32.3071L32.5671 24.4846C32.6649 24.5335 32.7242 24.5589 32.745 24.5608C32.7658 24.5625 32.7964 24.5779 32.8367 24.6071C32.8767 24.636 32.9464 24.6796 33.0458 24.7379C33.145 24.796 33.3326 24.906 33.6087 25.0679L35.585 24.2563L37.1967 27.0425L35.5217 28.2908V29.4992L37.1967 30.7888L35.585 33.585L33.6087 32.7638C33.1921 33.0138 32.9421 33.1665 32.8587 33.2221C32.7754 33.2776 32.6782 33.3332 32.5671 33.3888L32.3071 35.4583H29.0842ZM30.6958 26.0425C29.9047 26.0425 29.2264 26.3253 28.6608 26.8908C28.0953 27.4564 27.8125 28.1314 27.8125 28.9158C27.8125 29.7069 28.0953 30.3853 28.6608 30.9508C29.2264 31.5161 29.9047 31.7988 30.6958 31.7988C31.48 31.7988 32.1549 31.5161 32.7204 30.9508C33.286 30.3853 33.5688 29.7069 33.5688 28.9158C33.5688 28.1314 33.286 27.4564 32.7204 26.8908C32.1549 26.3253 31.48 26.0425 30.6958 26.0425Z" fill="var(--fill-0, #F4813E)" stroke="var(--stroke-0, #F4813E)" stroke-width="0.1" mask="url(#path-1-inside-1_0_96)"/>
</g>
</g>
</svg>
