<svg preserveAspectRatio="none" width="100%" height="100%" overflow="visible" style="display: block;" viewBox="0 0 48 48" fill="none" xmlns="http://www.w3.org/2000/svg">
<g id="target">
<path id="Vector" d="M24.0018 4.7C26.6759 4.7 29.1773 5.20699 31.5174 6.21465C33.8802 7.23198 35.9228 8.61056 37.6561 10.3494C39.2823 11.9807 40.5935 13.8802 41.5896 16.0564L41.785 16.4959C42.7926 18.8327 43.2996 21.3347 43.2996 24.0145C43.2996 26.6882 42.7937 29.1877 41.7869 31.5252C40.77 33.8863 39.3924 35.9298 37.6561 37.6658C35.9202 39.4016 33.8763 40.7763 31.5135 41.7898C29.1727 42.7942 26.6713 43.2996 23.9969 43.2996C21.3232 43.2996 18.8238 42.7936 16.4861 41.7879C14.1249 40.7722 12.0815 39.3976 10.3455 37.6639C8.60966 35.9305 7.23219 33.8876 6.21465 31.5242C5.20666 29.1838 4.7 26.6823 4.7 24.0086C4.70005 21.329 5.20725 18.8284 6.21465 16.4939C7.23238 14.1346 8.60925 12.0897 10.3445 10.3494C11.9701 8.71922 13.8675 7.40606 16.0457 6.40996L16.4852 6.21465C18.8259 5.20698 21.3274 4.70003 24.0018 4.7ZM23.9969 5.47539C18.8559 5.47542 14.4541 7.27762 10.866 10.866C7.27734 14.4544 5.47547 18.8593 5.47539 24.0057C5.47539 29.1524 7.2777 33.5569 10.8689 37.1414C14.459 40.7254 18.8623 42.5251 24.0027 42.5252C29.1434 42.5252 33.5454 40.7241 37.1336 37.1385C40.7223 33.5527 42.5252 29.1516 42.5252 24.0115C42.5251 18.8613 40.7225 14.4535 37.1316 10.865C33.5416 7.27683 29.1379 5.47539 23.9969 5.47539ZM23.9988 12.8436C27.1255 12.8436 29.7395 13.9217 31.9148 16.0975C34.0907 18.2739 35.1687 20.8861 35.1687 24.0066C35.1687 27.1273 34.0914 29.7391 31.9168 31.9148C29.7421 34.0901 27.1283 35.1687 24.0018 35.1687C20.8746 35.1687 18.2627 34.0906 16.0916 31.9168C13.9197 29.7418 12.8436 27.1305 12.8436 24.0096C12.8437 20.8882 13.9194 18.2757 16.0906 16.0984C18.2611 13.9222 20.8725 12.8436 23.9988 12.8436ZM24.0018 13.6189C21.1332 13.6189 18.6556 14.6361 16.6443 16.6521C14.6334 18.6672 13.619 21.1458 13.6189 24.0135C13.6189 26.881 14.6333 29.3573 16.6443 31.368C18.6549 33.3788 21.1314 34.3934 23.9988 34.3934C26.8662 34.3933 29.3428 33.3787 31.3543 31.368C33.3662 29.3574 34.3816 26.8811 34.3816 24.0135C34.3816 21.1461 33.3669 18.6682 31.3572 16.6531C29.3469 14.6368 26.8703 13.619 24.0018 13.6189ZM24.0047 20.9754C24.741 20.9754 25.3594 21.1938 25.9061 21.6541L26.1365 21.866C26.7395 22.4725 27.0252 23.1661 27.0252 24.0135C27.0251 24.8586 26.7391 25.5446 26.1375 26.1414C25.5331 26.7406 24.8418 27.0251 23.9959 27.0252C23.1511 27.0252 22.4618 26.7404 21.8602 26.1404C21.2598 25.5418 20.9754 24.8547 20.9754 24.0105C20.9755 23.1682 21.2605 22.4761 21.867 21.868C22.4727 21.2606 23.1629 20.9754 24.0047 20.9754Z" stroke="var(--stroke-0, #2DA2DB)" stroke-width="2.5"/>
</g>
</svg>
