<svg preserveAspectRatio="none" width="100%" height="100%" overflow="visible" style="display: block;" viewBox="0 0 40 40" fill="none" xmlns="http://www.w3.org/2000/svg">
<g id="train-front-tunnel">
<path id="Vector" d="M3.33333 36.6667V20C3.33333 15.5797 5.08928 11.3405 8.21489 8.21489C11.3405 5.08928 15.5797 3.33333 20 3.33333C24.4203 3.33333 28.6595 5.08928 31.7851 8.21489C34.9107 11.3405 36.6667 15.5797 36.6667 20V36.6667M25 11.333V13.6663C25 14.904 24.4732 16.091 23.5355 16.9662C22.5979 17.8413 21.3261 18.333 20 18.333C18.6739 18.333 17.4021 17.8413 16.4645 16.9662C15.5268 16.091 15 14.904 15 13.6663V11.333M16.6667 25H16.6833M23.3333 25H23.35M15 31.6667L11.6667 36.6667M25 31.6667L28.3333 36.6667M16.6667 31.6667C14.8986 31.6667 13.2029 30.9643 11.9526 29.714C10.7024 28.4638 10 26.7681 10 25V20C10 17.3478 11.0536 14.8043 12.9289 12.9289C14.8043 11.0536 17.3478 10 20 10C22.6522 10 25.1957 11.0536 27.0711 12.9289C28.9464 14.8043 30 17.3478 30 20V25C30 26.7681 29.2976 28.4638 28.0474 29.714C26.7971 30.9643 25.1014 31.6667 23.3333 31.6667H16.6667Z" stroke="var(--stroke-0, #2DA2DB)" stroke-width="3" stroke-linecap="round" stroke-linejoin="round"/>
</g>
</svg>
