<svg preserveAspectRatio="none" width="100%" height="100%" overflow="visible" style="display: block;" viewBox="0 0 80 80" fill="none" xmlns="http://www.w3.org/2000/svg">
<g id="2b">
<g clip-path="url(#clip0_0_76)">
<path id="Vector" d="M79.944 39.9998C79.944 62.0524 62.0566 79.9296 39.9914 79.9296C17.9269 79.9296 0.0394719 62.0524 0.0394719 39.9998C0.0394719 17.948 17.9269 0.0708484 39.9914 0.0708484C62.0566 0.0708484 79.944 17.948 79.944 39.9998Z" fill="var(--fill-0, #F4813E)"/>
<g id="Group">
<path id="Vector_2" d="M80.211 51.7381C84.1516 51.1311 87.8392 53.8317 88.4467 57.7713C89.0541 61.7098 86.3513 65.3947 82.4106 66.0017C78.4694 66.6088 74.7818 63.9082 74.1745 59.9698C73.5668 56.0302 76.2697 52.3452 80.211 51.7381ZM81.7748 61.879C83.4375 61.6229 84.5777 60.068 84.3216 58.4069C84.0653 56.7452 82.5095 55.6056 80.8469 55.8617C79.1836 56.1179 78.0439 57.6727 78.3002 59.3344C78.5563 60.9955 80.1115 62.1352 81.7748 61.879Z" fill="var(--fill-0, white)"/>
<path id="Vector_3" d="M54.1865 55.7468C58.1277 55.1397 61.8146 57.8404 62.4222 61.78C63.0295 65.7184 60.3273 69.4032 56.3861 70.0103C52.4448 70.6174 48.7579 67.9167 48.1506 63.9783C47.543 60.0387 50.2452 56.3539 54.1865 55.7468ZM55.7503 65.8876C57.4129 65.6315 58.5532 64.0766 58.297 62.4155C58.0408 60.7538 56.485 59.6142 54.8224 59.8703C53.1596 60.1264 52.0188 61.6814 52.275 63.3431C52.5311 65.0042 54.0876 66.1437 55.7503 65.8876Z" fill="var(--fill-0, white)"/>
<path id="Vector_4" d="M42.0709 51.3838L45.0666 46.2888C45.8914 44.8864 47.3032 43.9293 48.9121 43.6815L58.1221 42.2628L59.319 50.0241L61.419 49.7006L61.322 49.0717L60.0279 40.6802L59.9309 40.0514L50.9055 41.4416L50.388 38.0858L63.1914 36.1136L63.7089 39.4695L63.8059 40.0984L90.9844 35.9119L92.3754 44.9323L75.8868 50.7706C72.8362 52.8174 71.0613 56.5007 71.6571 60.364C71.668 60.4351 71.6878 60.5012 71.6993 60.5716L64.9637 61.6091C64.9536 61.5387 64.9531 61.4694 64.9421 61.3984C64.1216 56.0777 59.1225 52.4158 53.7993 53.2358C48.9766 53.9787 45.5286 58.1504 45.531 62.8842L44.4624 63.0488C43.4768 63.2006 42.5545 62.525 42.4026 61.54L41.3866 54.9515C41.1964 53.7189 41.4382 52.4585 42.0709 51.3838ZM83.2376 45.4344L86.5255 44.6136L85.7064 39.302L82.3711 39.8158L83.2376 45.4344ZM76.0417 47.8896L79.3294 47.0673L78.3077 40.4417L74.9724 40.9555L76.0417 47.8896ZM68.8476 50.3512L72.1354 49.5297L70.9097 41.5814L67.5744 42.0951L68.8476 50.3512ZM55.3313 50.0794L54.6843 45.8837L49.2516 46.7205C48.7757 46.7938 48.3636 47.0733 48.1196 47.4877L45.7257 51.5591L55.3313 50.0794Z" fill="var(--fill-0, white)"/>
</g>
<g id="Group_2">
<path id="Vector_5" d="M2.12585 51.6737C6.86507 52.5951 9.96122 57.1817 9.03901 61.9203C8.11707 66.6579 3.52655 69.7504 -1.21271 68.8294C-5.95152 67.9083 -9.048 63.3214 -8.12605 58.5838C-7.20382 53.8451 -2.61303 50.7526 2.12585 51.6737ZM0.889072 58.0291C-0.340106 57.7902 -1.5305 58.5922 -1.76944 59.8194C-2.00813 61.0459 -1.20549 62.236 0.0238855 62.475C1.25377 62.7138 2.44275 61.9111 2.68144 60.6845C2.92013 59.4573 2.11867 58.2683 0.889072 58.0291Z" fill="var(--fill-0, white)" stroke="var(--stroke-0, #F4813E)" stroke-width="2"/>
<path id="Vector_6" d="M29.8451 57.0618C34.5845 57.9832 37.6794 62.5696 36.7573 67.3082C35.8354 72.0456 31.2459 75.1385 26.5066 74.2175C21.7671 73.2962 18.6713 68.7094 19.5932 63.9718C20.5154 59.2332 25.1055 56.1405 29.8451 57.0618ZM28.6083 63.4172C27.3792 63.1782 26.1888 63.9802 25.9498 65.2074C25.7111 66.434 26.5138 67.6241 27.7431 67.8631C28.9728 68.1019 30.1631 67.2988 30.4017 66.0728C30.6403 64.846 29.8377 63.6563 28.6083 63.4172Z" fill="var(--fill-0, white)" stroke="var(--stroke-0, #F4813E)" stroke-width="2"/>
<path id="Vector_7" d="M35.6391 38.4866L34.5614 44.0243L24.9484 42.1557L23.3303 50.4704L23.6035 50.5235L25.2123 42.2567L36.0034 44.3543C38.0116 44.7447 39.7377 46.0158 40.7048 47.8179L40.7057 47.8181L43.7018 53.4035L43.7008 53.4034C44.4428 54.7847 44.6846 56.3803 44.3849 57.9196L43.0194 64.9364C42.7096 66.5282 41.1675 67.5669 39.5761 67.2576L37.5956 66.8726L37.63 66.0158C37.8122 61.4266 34.6255 57.2532 29.9829 56.3507C24.8548 55.354 19.8695 58.7144 18.8723 63.839C18.8718 63.8423 18.8706 63.8532 18.8675 63.8789C18.8639 63.9089 18.8561 63.9794 18.8424 64.0541L18.6591 65.0471L9.50136 63.267L9.70479 62.2779C9.7196 62.2056 9.73762 62.1391 9.74548 62.1097C9.75418 62.0773 9.75644 62.0685 9.75675 62.0671C10.4721 58.3912 8.93698 54.7925 6.11289 52.6789L-11.1858 45.7807L-11.9549 45.474L-9.73594 34.0717L19.2125 39.6987L20.0385 35.4541L35.6391 38.4866ZM11.8366 49.9225L13.3974 50.3781L14.7081 43.6431L13.1187 43.3342L11.8366 49.9225ZM4.23096 46.9817L5.79162 47.4383L6.82824 42.1114L5.23885 41.8025L4.23096 46.9817ZM29.8375 51.1314L37.0195 52.5275L35.6206 49.9206C35.5186 49.731 35.3419 49.6009 35.1298 49.5596L30.3252 48.6257L29.8375 51.1314ZM-3.37655 44.0505L-1.8157 44.5061L-1.05162 40.5798L-2.64101 40.2708L-3.37655 44.0505Z" fill="var(--fill-0, white)" stroke="var(--stroke-0, #F4813E)" stroke-width="2"/>
</g>
<path id="Vector_8" d="M30.6537 21.4129C30.7975 21.4326 30.9435 21.4426 31.0882 21.4426C32.6653 21.4426 34.0169 20.2628 34.2318 18.6981L34.2476 17.8917C34.3164 17.3921 34.1863 16.8956 33.8812 16.494C33.6359 16.1707 33.3009 15.9399 32.9197 15.8266C32.4744 15.2434 31.821 14.8599 31.0837 14.7587C30.957 14.7413 30.8283 14.7325 30.7012 14.7325C29.315 14.7325 28.1273 15.7693 27.9386 17.1444V17.8352C27.7008 19.5698 28.9187 21.1749 30.6537 21.4129Z" fill="var(--fill-0, white)"/>
<path id="Vector_9" d="M54.7026 29.1995L48.4814 26.436C48.3748 26.3783 48.2622 26.3322 48.1467 26.2944C48.1196 26.2852 48.0927 26.2747 48.0653 26.2688C47.8889 26.2193 47.7054 26.1906 47.5176 26.1906C47.1067 26.1906 46.7102 26.3139 46.371 26.5474C46.3656 26.5512 46.36 26.555 46.3547 26.5589L43.5336 28.6176L39.4267 23.9051L41.6289 23.7051C42.096 23.6798 42.5268 23.4764 42.8433 23.131C42.8892 23.0809 45.7607 19.3603 45.7607 19.3603C46.0538 18.9807 46.1815 18.5098 46.1204 18.0341C46.0593 17.5585 45.8167 17.135 45.4373 16.8423C45.1201 16.5973 44.7407 16.4678 44.3405 16.4678C43.7795 16.4678 43.2612 16.7223 42.9187 17.1658L40.5853 20.1878C40.5853 20.1878 35.1522 20.689 35.1028 20.705C34.7391 20.784 34.3979 20.9516 34.1135 21.1994L32.2516 22.8221C31.9073 23.1221 31.6697 23.5122 31.5591 23.9459C31.5288 24.0131 30.7272 31.3397 30.7267 31.3537C30.7053 31.7965 30.8336 32.2232 31.0888 32.5777C31.1148 32.6241 34.1723 36.0258 34.1723 36.0258C34.1837 36.0387 34.1961 36.0514 34.2086 36.0635C34.5716 36.411 35.0483 36.6024 35.5504 36.6024C36.0772 36.6024 36.5877 36.3843 36.9508 36.0049L36.9869 35.9674C37.7195 35.2021 37.6996 33.9871 36.9476 33.2449L34.7339 30.7911L34.8993 29.2507L42.0981 37.7804L40.454 42.1235C40.2369 42.6066 40.2171 43.1455 40.3984 43.6443C40.5832 44.1526 40.9547 44.5585 41.4409 44.7852L41.4941 44.8103C41.7644 44.9365 42.0519 45.0003 42.3485 45.0003C43.1325 45.0003 43.8532 44.5413 44.1842 43.8309C44.1917 43.8147 46.3731 38.0546 46.3731 38.0546C46.4188 37.9017 46.4244 37.8094 46.4353 37.7495C46.5317 37.2173 46.4219 36.6794 46.1165 36.2332C46.1038 36.2144 43.8836 33.5525 43.8836 33.5525L47.7836 30.6151L53.021 32.9417C53.2848 33.0605 53.5642 33.1207 53.852 33.1207C54.647 33.1207 55.3718 32.6521 55.6956 31.9329L55.7211 31.8775C56.1791 30.8599 55.7236 29.6592 54.7026 29.1995Z" fill="var(--fill-0, white)"/>
<path id="Vector 4" d="M22.2031 8.23535L26.752 19.4009L24.6843 18.9754L26.024 21.8821H24.6843L26.752 23.9498V26.431L16 18.5738L23.0301 19.4009L22.2031 8.23535Z" fill="var(--fill-0, white)"/>
<path id="Vector 5" d="M55.5026 25.4153L49.2995 24.1747L48.3808 23.1135L49.2995 21.6935L47.3069 22.0395L46.4048 21.2799L49.2995 11.7686V19.6258L53.8485 16.3175L50.9537 21.6935L55.5026 25.4153Z" fill="var(--fill-0, white)"/>
<path id="Vector 8" d="M50.5 77H53.5L54.5 72.5L51.5 74L52 75L50.5 77Z" fill="var(--fill-0, #F4813E)"/>
</g>
</g>
<defs>
<clipPath id="clip0_0_76">
<rect width="80" height="80" rx="40" fill="white"/>
</clipPath>
</defs>
</svg>
