<svg preserveAspectRatio="none" width="100%" height="100%" overflow="visible" style="display: block;" viewBox="0 0 80 80" fill="none" xmlns="http://www.w3.org/2000/svg">
<g id="5">
<path id="Vector" d="M79.9107 39.9295C79.9107 61.9821 62.0219 79.8593 39.955 79.8593C17.8889 79.8593 0.000114515 61.9821 0.000114515 39.9295C0.000114515 17.8777 17.8889 0.000537382 39.955 0.000537382C62.0219 0.000537382 79.9107 17.8777 79.9107 39.9295Z" fill="var(--fill-0, white)"/>
<path id="Vector_2" d="M64.6724 44.2035C64.3948 47.1873 62.8568 49.9359 60.4579 51.7333L56.9067 45.7797C57.2893 45.3551 57.5728 44.8492 57.7342 44.3004L64.6724 44.2035ZM54.8898 44.58C54.4087 44.8662 53.8091 44.8744 53.3206 44.6014C53.2052 44.543 52.9047 44.3751 52.7026 44.0149C52.5213 43.6924 52.5146 43.3876 52.519 43.2567C52.5109 42.6968 52.8033 42.1738 53.2836 41.8876C53.8158 41.5702 54.4279 41.6331 54.8527 41.8661C55.1925 42.0532 55.3723 42.3284 55.4338 42.4312C55.6299 42.7589 55.6529 43.071 55.6543 43.2108C55.6632 43.7708 55.3709 44.2937 54.8898 44.58ZM47.953 51.9109C46.7459 51.058 45.723 49.9537 44.9584 48.6711C44.1931 47.3892 43.7083 45.9646 43.5314 44.4979L50.4688 44.401C50.5569 44.6717 50.6724 44.9335 50.8197 45.1798C50.9662 45.4261 51.1416 45.6525 51.3385 45.8581L47.953 51.9109ZM49.6361 33.5899C52.3599 32.3369 55.51 32.2918 58.2686 33.4671L54.8831 39.5199C54.6203 39.4644 54.3531 39.4348 54.0859 39.4348C53.784 39.4348 53.482 39.4725 53.1874 39.5435L49.6361 33.5899ZM57.3537 41.2869C57.2072 41.0414 57.0318 40.8143 56.8356 40.6087L61.3402 32.5536L60.3639 32.0092C58.4195 30.9241 56.2546 30.3834 54.0919 30.3834C51.8063 30.3834 49.5222 30.9877 47.5008 32.1919L46.5408 32.7637L51.2667 40.6878C50.884 41.1124 50.6013 41.6183 50.4392 42.1672L41.2066 42.2959L41.2214 43.412C41.2517 45.6591 41.8793 47.873 43.0377 49.8154C44.196 51.757 45.8458 53.3628 47.8095 54.4583L48.785 55.0027L53.2903 46.9469C53.8506 47.066 54.4309 47.0579 54.9867 46.924L59.7126 54.8474L60.6726 54.2756C64.6072 51.9316 67.0135 47.6326 66.952 43.0555L66.9372 41.9379L57.7046 42.0658C57.6172 41.7958 57.501 41.5333 57.3537 41.2869Z" fill="var(--fill-0, #F4813E)"/>
<path id="Vector_3" d="M74.9655 33.88C74.9655 33.0656 75.6257 32.4058 76.4406 32.4058C77.2548 32.4058 77.915 33.0656 77.915 33.88C77.915 34.6943 77.2548 35.3541 76.4406 35.3541C75.6257 35.3541 74.9655 34.6943 74.9655 33.88ZM68.7786 58.9756H36.14H34.9639H20.5591C17.0589 58.9756 14.2212 56.1404 14.2212 52.6417C14.2212 49.1438 17.0589 46.3079 20.5591 46.3079C21.1645 46.3079 21.7478 46.3982 22.3021 46.5565C22.3007 46.4758 22.2962 46.3967 22.2962 46.3161C22.2962 39.3247 27.9673 33.6566 34.9639 33.6566C35.5982 33.6566 36.2207 33.7047 36.8299 33.7949C39.5566 27.1267 46.1077 22.4269 53.7609 22.4269C63.8602 22.4269 72.0478 30.6084 72.0478 40.7012C72.0478 41.9121 71.9264 43.0948 71.7022 44.2398C74.4829 45.3885 76.4406 48.1246 76.4406 51.3192C76.4406 55.5472 73.01 58.9756 68.7786 58.9756ZM13.5698 45.7221C13.5698 44.9713 14.179 44.3626 14.9302 44.3626C15.6822 44.3626 16.2914 44.9713 16.2914 45.7221C16.2914 46.4729 15.6822 47.0824 14.9302 47.0824C14.179 47.0824 13.5698 46.4729 13.5698 45.7221ZM18.4252 38.7588C19.6035 38.7588 20.5591 39.7137 20.5591 40.8913C20.5591 42.0689 19.6035 43.0238 18.4252 43.0238C17.2469 43.0238 16.2914 42.0689 16.2914 40.8913C16.2914 39.7137 17.2469 38.7588 18.4252 38.7588ZM27.3411 23.2745C29.7688 23.2745 31.7376 25.2413 31.7376 27.6682C31.7376 30.0943 29.7688 32.0618 27.3411 32.0618C24.9127 32.0618 22.9446 30.0943 22.9446 27.6682C22.9446 25.2413 24.9127 23.2745 27.3411 23.2745ZM64.1859 18.153C65.7143 18.153 66.9533 19.3913 66.9533 20.9187C66.9533 22.4461 65.7143 23.6836 64.1859 23.6836C62.6575 23.6836 61.4185 22.4461 61.4185 20.9187C61.4185 19.3913 62.6575 18.153 64.1859 18.153ZM4.34086 41.1532C3.14995 41.1532 2.18479 40.1886 2.18479 38.9985C2.18479 37.8091 3.14995 36.8438 4.34086 36.8438C5.53177 36.8438 6.49693 37.8091 6.49693 38.9985C6.49693 40.1886 5.53177 41.1532 4.34086 41.1532ZM76.9957 40.1058C76.9957 38.4149 78.3273 37.0384 80 36.9563C78.442 16.2883 61.1809 0 40.1013 0C17.9952 0 0.0753587 17.9089 0.0753587 40C0.0753587 62.0918 17.9952 80 40.1013 80C61.1091 80 78.3243 63.8226 79.9837 43.2553C78.3191 43.1658 76.9957 41.7922 76.9957 40.1058Z" fill="var(--fill-0, #F4813E)"/>
</g>
</svg>
