<svg preserveAspectRatio="none" width="100%" height="100%" overflow="visible" style="display: block;" viewBox="0 0 80 80" fill="none" xmlns="http://www.w3.org/2000/svg">
<g id="2b">
<g clip-path="url(#clip0_0_692)">
<path id="Vector" d="M79.944 39.9998C79.944 62.0524 62.0566 79.9296 39.9914 79.9296C17.9269 79.9296 0.0394719 62.0524 0.0394719 39.9998C0.0394719 17.948 17.9269 0.0708484 39.9914 0.0708484C62.0566 0.0708484 79.944 17.948 79.944 39.9998Z" fill="var(--fill-0, #F4813E)"/>
<g id="Group">
<path id="Vector_2" d="M80.211 48.7385C84.1517 48.1315 87.8392 50.8321 88.4468 54.7717C89.0541 58.7101 86.3513 62.395 82.4107 63.002C78.4694 63.6091 74.7819 60.9086 74.1745 56.9701C73.5669 53.0305 76.2698 49.3456 80.211 48.7385ZM81.7749 58.8793C83.4375 58.6232 84.5778 57.0683 84.3216 55.4072C84.0654 53.7455 82.5096 52.6059 80.8469 52.862C79.1836 53.1182 78.044 54.673 78.3002 56.3347C78.5564 57.9958 80.1116 59.1355 81.7749 58.8793Z" fill="var(--fill-0, white)"/>
<path id="Vector_3" d="M54.1865 52.7471C58.1277 52.14 61.8147 54.8407 62.4222 58.7803C63.0296 62.7187 60.3274 66.4036 56.3861 67.0107C52.4449 67.6178 48.758 64.9171 48.1506 60.9787C47.5431 57.0391 50.2453 53.3542 54.1865 52.7471ZM55.7504 62.8879C57.413 62.6318 58.5532 61.0769 58.2971 59.4158C58.0408 57.7541 56.485 56.6145 54.8224 56.8706C53.1597 57.1268 52.0188 58.6818 52.2751 60.3435C52.5311 62.0046 54.0876 63.1441 55.7504 62.8879Z" fill="var(--fill-0, white)"/>
<path id="Vector_4" d="M42.071 48.3841L45.0667 43.2892C45.8915 41.8867 47.3033 40.9297 48.9122 40.6819L58.1221 39.2632L59.319 47.0244L61.419 46.7009L61.3221 46.0721L60.028 37.6806L59.931 37.0517L50.9056 38.442L50.388 35.0861L63.1915 33.1139L63.709 36.4699L63.806 37.0987L90.9844 32.9122L92.3755 41.9326L75.8869 47.7709C72.8362 49.8178 71.0613 53.501 71.6571 57.3644C71.6681 57.4354 71.6878 57.5016 71.6994 57.5719L64.9638 58.6094C64.9536 58.539 64.9531 58.4698 64.9422 58.3987C64.1216 53.078 59.1225 49.4162 53.7994 50.2361C48.9766 50.979 45.5287 55.1508 45.531 59.8845L44.4624 60.0491C43.4768 60.2009 42.5546 59.5254 42.4027 58.5403L41.3866 51.9519C41.1964 50.7192 41.4382 49.4589 42.071 48.3841ZM83.2376 42.4348L86.5255 41.6139L85.7064 36.3024L82.3712 36.8161L83.2376 42.4348ZM76.0418 44.89L79.3295 44.0677L78.3077 37.4421L74.9725 37.9558L76.0418 44.89ZM68.8477 47.3515L72.1355 46.5301L70.9098 38.5817L67.5745 39.0955L68.8477 47.3515ZM55.3314 47.0798L54.6843 42.884L49.2517 43.7209C48.7758 43.7942 48.3636 44.0736 48.1196 44.4881L45.7257 48.5594L55.3314 47.0798Z" fill="var(--fill-0, white)"/>
</g>
<g id="Group_2">
<path id="Vector_5" d="M2.12572 48.6742C6.86494 49.5956 9.96109 54.1821 9.03888 58.9208C8.11694 63.6583 3.52642 66.7509 -1.21284 65.8299C-5.95165 64.9088 -9.04813 60.3218 -8.12618 55.5842C-7.20394 50.8455 -2.61316 47.753 2.12572 48.6742ZM0.888944 55.0296C-0.340234 54.7906 -1.53063 55.5927 -1.76957 56.8198C-2.00825 58.0464 -1.20562 59.2365 0.0237577 59.4755C1.25364 59.7143 2.44262 58.9115 2.68131 57.685C2.92 56.4578 2.11854 55.2688 0.888944 55.0296Z" fill="var(--fill-0, white)" stroke="var(--stroke-0, #F4813E)" stroke-width="2"/>
<path id="Vector_6" d="M29.845 54.0622C34.5843 54.9837 37.6793 59.5701 36.7572 64.3087C35.8353 69.0461 31.2458 72.139 26.5064 71.2179C21.7669 70.2967 18.6711 65.7098 19.5931 60.9723C20.5153 56.2336 25.1054 53.141 29.845 54.0622ZM28.6082 60.4176C27.379 60.1787 26.1886 60.9807 25.9497 62.2079C25.711 63.4344 26.5136 64.6246 27.743 64.8635C28.9727 65.1023 30.163 64.2993 30.4015 63.0732C30.6401 61.8464 29.8375 60.6568 28.6082 60.4176Z" fill="var(--fill-0, white)" stroke="var(--stroke-0, #F4813E)" stroke-width="2"/>
<path id="Vector_7" d="M35.639 35.487L34.5613 41.0247L24.9482 39.1561L23.3302 47.4709L23.6034 47.524L25.2121 39.2572L36.0033 41.3548C38.0114 41.7451 39.7376 43.0162 40.7046 44.8184L40.7056 44.8186L43.7016 50.404L43.7007 50.4038C44.4426 51.7852 44.6845 53.3807 44.3848 54.9201L43.0193 61.9369C42.7095 63.5287 41.1674 64.5674 39.576 64.258L37.5954 63.8731L37.6299 63.0162C37.8121 58.4271 34.6254 54.2537 29.9827 53.3512C24.8547 52.3545 19.8694 55.7149 18.8721 60.8395C18.8717 60.8427 18.8704 60.8536 18.8674 60.8794C18.8638 60.9093 18.856 60.9799 18.8422 61.0545L18.6589 62.0476L9.50124 60.2675L9.70467 59.2784C9.71948 59.2061 9.73749 59.1395 9.74535 59.1102C9.75405 59.0777 9.75631 59.069 9.75662 59.0676C10.472 55.3917 8.93685 51.7929 6.11276 49.6793L-11.1859 42.7811L-11.955 42.4745L-9.73606 31.0722L19.2124 36.6992L20.0384 32.4546L35.639 35.487ZM11.8365 46.923L13.3973 47.3786L14.708 40.6436L13.1186 40.3347L11.8365 46.923ZM4.23083 43.9822L5.79149 44.4387L6.82811 39.1119L5.23872 38.803L4.23083 43.9822ZM29.8374 48.1319L37.0194 49.5279L35.6205 46.9211C35.5185 46.7314 35.3418 46.6013 35.1296 46.5601L30.325 45.6262L29.8374 48.1319ZM-3.37668 41.051L-1.81582 41.5066L-1.05174 37.5802L-2.64114 37.2713L-3.37668 41.051Z" fill="var(--fill-0, white)" stroke="var(--stroke-0, #F4813E)" stroke-width="2"/>
</g>
<path id="Vector_8" d="M34.7493 22.2818L38.7365 25.5687L40.4077 20.6926L42.2088 25.5225L46.1064 22.1311L45.2398 27.2102L50.3193 26.2125L47.0162 30.1801L53.0387 32.2239L64.8372 30.3124L56.5528 27.5009L64.7336 17.6735L52.1528 20.145L54.3003 7.56452L44.6461 15.9643L40.1835 4L36.0441 16.0781L26.1681 7.93759L28.6518 20.4565L16.0092 18.3204L24.4505 27.9271L18.5663 30.1001L27.4273 32.8L34.0559 30.3524L30.6477 26.474L35.7519 27.3363L34.7493 22.2818Z" fill="var(--fill-0, white)"/>
<path id="Vector 8" d="M50.5 77H53.5L54.5 72.5L51.5 74L52 75L50.5 77Z" fill="var(--fill-0, #F4813E)"/>
</g>
</g>
<defs>
<clipPath id="clip0_0_692">
<rect width="80" height="80" rx="40" fill="white"/>
</clipPath>
</defs>
</svg>
