<svg preserveAspectRatio="none" width="100%" height="100%" overflow="visible" style="display: block;" viewBox="0 0 40 40" fill="none" xmlns="http://www.w3.org/2000/svg">
<g id="key-square">
<path id="Vector" d="M23.3333 11.6667L28.3333 16.6667M15.6667 17.6668L4.31 29.0235C3.68484 29.6485 3.33352 30.4962 3.33333 31.3802V35.0002C3.33333 35.4422 3.50893 35.8661 3.82149 36.1787C4.13405 36.4912 4.55797 36.6668 5 36.6668H10C10.442 36.6668 10.866 36.4912 11.1785 36.1787C11.4911 35.8661 11.6667 35.4422 11.6667 35.0002V33.3335C11.6667 32.8915 11.8423 32.4675 12.1548 32.155C12.4674 31.8424 12.8913 31.6668 13.3333 31.6668H15C15.442 31.6668 15.866 31.4912 16.1785 31.1787C16.4911 30.8661 16.6667 30.4422 16.6667 30.0002V28.3335C16.6667 27.8915 16.8423 27.4675 17.1548 27.155C17.4674 26.8424 17.8913 26.6668 18.3333 26.6668H18.62C19.504 26.6666 20.3517 26.3153 20.9767 25.6902L22.3333 24.3335M20.6665 4.49988C21.437 3.78532 22.4491 3.38826 23.4999 3.38826C24.5507 3.38826 25.5627 3.78532 26.3332 4.49988L35.4999 13.6665C36.2144 14.437 36.6115 15.4491 36.6115 16.4999C36.6115 17.5507 36.2144 18.5627 35.4999 19.3332L29.3332 25.4999C28.5627 26.2144 27.5507 26.6115 26.4999 26.6115C25.4491 26.6115 24.437 26.2144 23.6665 25.4999L14.4999 16.3332C13.7853 15.5627 13.3883 14.5507 13.3883 13.4999C13.3883 12.4491 13.7853 11.437 14.4999 10.6665L20.6665 4.49988Z" stroke="var(--stroke-0, #2DA2DB)" stroke-width="2" stroke-linecap="round" stroke-linejoin="round"/>
</g>
</svg>
