<svg preserveAspectRatio="none" width="100%" height="100%" overflow="visible" style="display: block;" viewBox="0 0 40 40" fill="none" xmlns="http://www.w3.org/2000/svg">
<g id="water_ec">
<path id="Vector" d="M18.75 22.9167V28.7529C18.75 29.1049 18.9157 29.3361 19.2471 29.4467C19.5787 29.5572 19.8412 29.4675 20.0346 29.1775L25.1604 21.5046C25.3193 21.2557 25.3279 21.0122 25.1862 20.7742C25.0446 20.5358 24.8321 20.4167 24.5487 20.4167H21.25V14.5708C21.25 14.2253 21.0843 13.9972 20.7529 13.8867C20.4212 13.7761 20.1587 13.8658 19.9654 14.1558L14.8396 21.8188C14.6807 22.0743 14.6721 22.3211 14.8137 22.5592C14.9554 22.7975 15.1712 22.9167 15.4612 22.9167H18.75ZM20 36.9158C16.1214 36.9158 12.8881 35.5869 10.3 32.9292C7.71167 30.2717 6.4175 26.9619 6.4175 23C6.4175 21.2886 6.79542 19.5796 7.55125 17.8729C8.3068 16.166 9.27555 14.5053 10.4575 12.8908C11.6392 11.2764 12.9464 9.73625 14.3792 8.27042C15.8117 6.80458 17.2121 5.46028 18.5804 4.2375C18.8015 4.05083 19.0296 3.91778 19.2646 3.83833C19.4993 3.75889 19.7444 3.71917 20 3.71917C20.2556 3.71917 20.5007 3.75889 20.7354 3.83833C20.9704 3.91778 21.1985 4.05083 21.4196 4.2375C22.7879 5.46028 24.1883 6.80458 25.6208 8.27042C27.0536 9.73625 28.3608 11.2764 29.5425 12.8908C30.7244 14.5053 31.6949 16.166 32.4537 17.8729C33.2129 19.5796 33.5925 21.2886 33.5925 23C33.5925 26.9619 32.2967 30.2717 29.705 32.9292C27.1136 35.5869 23.8786 36.9158 20 36.9158ZM20 34.0771C23.0844 34.0771 25.6462 33.0229 27.6854 30.9146C29.7243 28.806 30.7437 26.1678 30.7437 23C30.7437 20.8389 29.8285 18.3774 27.9979 15.6154C26.1671 12.8538 23.5011 9.91403 20 6.79625C16.4989 9.91403 13.8329 12.8538 12.0021 15.6154C10.1715 18.3774 9.25625 20.8389 9.25625 23C9.25625 26.1678 10.2757 28.806 12.3146 30.9146C14.3537 33.0229 16.9156 34.0771 20 34.0771Z" fill="var(--fill-0, #2DA2DB)"/>
</g>
</svg>
