<svg preserveAspectRatio="none" width="100%" height="100%" overflow="visible" style="display: block;" viewBox="0 0 80 80" fill="none" xmlns="http://www.w3.org/2000/svg">
<g id="4">
<path id="Vector" d="M79.8566 39.9294C79.8566 61.9822 61.98 79.8595 39.928 79.8595C17.876 79.8595 9.91785e-05 61.9822 9.91785e-05 39.9294C9.91785e-05 17.8773 17.876 3.95144e-05 39.928 3.95144e-05C61.98 3.95144e-05 79.8566 17.8773 79.8566 39.9294Z" fill="var(--fill-0, white)"/>
<path id="Vector_2" d="M24.3418 49.5008C23.3913 49.8706 22.3617 50.0822 21.2804 50.0822C16.6176 50.0822 12.838 46.3024 12.838 41.6395C12.838 36.9766 16.6176 33.1968 21.2804 33.1968C23.395 33.1968 25.3226 33.9794 26.8041 35.2642L24.3418 49.5008ZM43.4618 31.2048L43.4729 31.2115C44.0506 30.2322 45.1046 29.5672 46.3242 29.5672C48.1578 29.5672 49.6445 31.054 49.6445 32.8884C49.6445 33.5156 49.4604 34.0962 49.1571 34.5978L49.1645 34.6015L41.9359 46.9031L36.8397 42.6299L43.4618 31.2048ZM51.0151 8.01516C51.0151 6.87088 51.9427 5.94258 53.0869 5.94258C54.2311 5.94258 55.1587 6.87088 55.1587 8.01516V23.3901C55.1587 24.5344 54.2311 25.462 53.0869 25.462C51.9427 25.462 51.0151 24.5344 51.0151 23.3901V8.01516ZM59.3606 65.4083L48.4685 70.6956C46.8649 71.4722 45.0106 71.1209 43.7954 69.9574L43.6733 70.0816L29.0378 58.3215C27.7605 57.6979 26.9446 56.3303 27.1155 54.8376L30.8219 22.4056C31.0379 20.5106 32.7531 19.1481 34.6451 19.367C36.5394 19.583 37.9003 21.2954 37.6836 23.1904L35.1762 45.1345L45.2126 53.7991L55.8436 42.661L70.0671 45.1234C72.3223 45.5132 73.8341 47.6583 73.4436 49.9135C73.0531 52.1688 70.9103 53.6793 68.6536 53.2902L58.7859 51.5823L51.4944 59.2217L52.081 59.7291L60.3643 55.7082L71.6566 64.4379C76.8822 57.678 79.9999 49.2057 79.9999 39.9996C79.9999 31.0828 77.0797 22.8494 72.147 16.199V26.6033C72.147 27.7476 71.2195 28.6759 70.0745 28.6759C68.9302 28.6759 68.0027 27.7476 68.0027 26.6033V11.4473C66.6432 10.1136 65.1906 8.87689 63.6528 7.7474V35.3204C63.6528 36.4647 62.7253 37.3923 61.5811 37.3923C60.4368 37.3923 59.5085 36.4647 59.5085 35.3204V5.08159C53.737 1.84994 47.0868 1.59822e-06 40.001 1.59822e-06C17.9105 1.59822e-06 0.00205223 17.9084 0.00205223 39.9996C0.00205223 62.0916 17.9105 80 40.001 80C49.8849 80 58.925 76.4074 65.9051 70.467L59.3606 65.4083Z" fill="var(--fill-0, #F4813E)"/>
</g>
</svg>
