<svg width="100%" height="100%" overflow="visible" style="display: block;" viewBox="0 0 24 15.0153" fill="none" xmlns="http://www.w3.org/2000/svg">
<g id="Group">
<path id="Vector" d="M6.03679 8.34045C4.19375 8.34045 2.69938 9.83456 2.69938 11.6782C2.69938 13.5212 4.19375 15.0153 6.03679 15.0153C7.8801 15.0153 9.37448 13.5212 9.37448 11.6782C9.37453 9.83456 7.8801 8.34045 6.03679 8.34045ZM6.03679 13.086C5.25918 13.086 4.62871 12.4555 4.62871 11.6782C4.62871 10.9006 5.25918 10.2701 6.03679 10.2701C6.81473 10.2701 7.44492 10.9006 7.44492 11.6782C7.44492 12.4555 6.81473 13.086 6.03679 13.086Z" fill="var(--fill-0, #2DA2DB)"/>
<path id="Vector_2" d="M18.2084 8.34045C16.3651 8.34045 14.871 9.83456 14.871 11.6782C14.871 13.5212 16.3651 15.0153 18.2084 15.0153C20.0518 15.0153 21.5459 13.5212 21.5459 11.6782C21.5459 9.83456 20.0518 8.34045 18.2084 8.34045ZM18.2084 13.086C17.4308 13.086 16.8004 12.4555 16.8004 11.6782C16.8004 10.9006 17.4308 10.2701 18.2084 10.2701C18.9861 10.2701 19.6168 10.9006 19.6168 11.6782C19.6169 12.4555 18.9861 13.086 18.2084 13.086Z" fill="var(--fill-0, #2DA2DB)"/>
<path id="Vector_3" d="M23.436 5.49299L21.7085 3.37497C21.2329 2.79198 20.5205 2.45392 19.768 2.45392H15.4605V6.08591H14.4783V5.79163V1.8647V1.57042H18.6995V0H12.7114V1.57046V1.86475H0V6.08596L7.94411 7.5937C9.48199 8.31455 10.5523 9.8732 10.5523 11.6811C10.5523 11.7144 10.548 11.746 10.5476 11.779H13.6979C13.6976 11.7461 13.6929 11.7144 13.6929 11.6811C13.6929 9.19121 15.7188 7.16535 18.2084 7.16535C20.464 7.16535 22.3331 8.82952 22.6655 10.9935H23.1653C23.6263 10.9935 24 10.6198 24 10.1588V7.07564C24 6.49879 23.8008 5.93971 23.436 5.49299ZM4.20999 5.6721L2.65008 5.52838V3.04277H4.20999V5.6721ZM7.67036 6.28771L6.11045 6.14333V3.04277H7.67036V6.28771ZM11.1304 6.90637L9.57049 6.76237V3.04281H11.1304V6.90637ZM17.2861 5.83044V3.86698H19.827C20.0496 3.86698 20.2575 3.96569 20.3982 4.13796L21.7787 5.83044H17.2861Z" fill="var(--fill-0, #2DA2DB)"/>
</g>
</svg>
