<svg preserveAspectRatio="none" width="100%" height="100%" overflow="visible" style="display: block;" viewBox="0 0 40 40" fill="none" xmlns="http://www.w3.org/2000/svg">
<g id="query_stats">
<path id="Vector" d="M24.5211 18.7416C26.6128 18.7417 28.39 19.4738 29.8541 20.9379C31.3181 22.402 32.0504 24.1792 32.0504 26.2709C32.0504 27.0696 31.9352 27.8182 31.7066 28.516C31.478 29.214 31.1521 29.868 30.7291 30.477L30.7174 30.4936L30.732 30.5082L34.2057 33.9496C34.4842 34.2285 34.6226 34.5522 34.6227 34.9213C34.6227 35.2906 34.4835 35.6165 34.2047 35.8988C33.9258 36.1806 33.6007 36.3223 33.2281 36.3256C32.8554 36.3289 32.5302 36.1889 32.2516 35.9037L28.7643 32.4164L28.7467 32.4272C28.1376 32.8292 27.4801 33.1447 26.774 33.3734C26.0684 33.602 25.3164 33.7162 24.5191 33.7162C22.4509 33.7161 20.6934 32.9926 19.2457 31.5443C17.7983 30.0961 17.0748 28.3374 17.0748 26.268C17.0749 24.1988 17.7989 22.4272 19.2467 20.9525C20.6947 19.4783 22.4526 18.7416 24.5211 18.7416ZM24.526 21.5404C23.2207 21.5404 22.1181 22.006 21.2203 22.9359C20.3229 23.8656 19.8736 24.9822 19.8736 26.2846C19.8736 27.5871 20.3221 28.6872 21.2184 29.5834C22.1146 30.4796 23.2147 30.9281 24.5172 30.9281C25.8196 30.9281 26.9362 30.4769 27.8658 29.5756C28.7957 28.6736 29.2613 27.5661 29.2613 26.2553C29.2613 24.9444 28.8041 23.8303 27.8902 22.9145C26.9763 21.9985 25.8543 21.5405 24.526 21.5404ZM32.9879 2.02188C33.3807 1.94906 33.7417 2.03773 34.0719 2.28946L34.0728 2.29044C34.3867 2.50847 34.5669 2.79907 34.6148 3.16348C34.657 3.48395 34.6051 3.78359 34.4596 4.0629L34.3922 4.18106L29.1822 12.2143C28.6944 12.985 28.0025 13.3828 27.1051 13.4096C26.2073 13.4366 25.4987 13.0857 24.9771 12.3559L21.9352 8.01602L21.9137 7.98477L21.8941 8.017L17.0504 15.7104C16.6011 16.4216 15.9519 16.812 15.1002 16.8822C14.2486 16.9527 13.5353 16.6782 12.9586 16.058H12.9596L10.0807 12.7797L10.0582 12.7543L10.0406 12.7826L4.45566 21.5131C4.23849 21.8464 3.93661 22.0541 3.54941 22.1361C3.16348 22.2178 2.8087 22.1312 2.48398 21.8754L2.48203 21.8744L2.36972 21.7904C2.12153 21.5861 1.97305 21.3211 1.92344 20.9955C1.8669 20.6225 1.93687 20.2836 2.1334 19.9779L7.87558 10.9779C8.33729 10.261 8.98157 9.87103 9.81015 9.80606C10.6386 9.74143 11.3406 10.0177 11.9176 10.6371V10.6381L14.8082 13.9486L14.8307 13.974L14.8482 13.9457L19.7018 6.18009C20.1926 5.40884 20.8915 5.0121 21.8014 4.98868C22.7114 4.96528 23.4293 5.31469 23.9576 6.03751L27.0094 10.4301L27.0309 10.4604L27.0514 10.4291L32.0816 2.62638C32.2664 2.33736 32.5204 2.14683 32.8443 2.05509L32.9879 2.02188Z" fill="var(--fill-0, white)" stroke="var(--stroke-0, white)" stroke-width="0.05"/>
</g>
</svg>
