<svg preserveAspectRatio="none" width="100%" height="100%" overflow="visible" style="display: block;" viewBox="0 0 48 48" fill="none" xmlns="http://www.w3.org/2000/svg">
<g id="checklist">
<path id="Vector" d="M20.038 26.0203C20.0975 26.0225 20.1595 26.0353 20.2567 26.117C20.2864 26.1511 20.2967 26.1688 20.2987 26.1737C20.3006 26.1783 20.3079 26.1946 20.3075 26.2371C20.3071 26.2751 20.3002 26.2899 20.2977 26.2957C20.2943 26.3037 20.28 26.3327 20.2313 26.3817L11.2811 35.3201V35.3211C11.2321 35.3701 11.2025 35.3839 11.1942 35.3875C11.1877 35.3903 11.1706 35.3969 11.1288 35.3973C11.1079 35.3975 11.0956 35.3955 11.0897 35.3944C11.0842 35.3933 11.0805 35.3925 11.078 35.3914C11.0748 35.3901 11.0495 35.3795 11.0038 35.3338H11.0048L6.01648 30.3338L6.00281 30.3201L5.93738 30.2391C5.93636 30.2368 5.93515 30.2347 5.93445 30.2313C5.9337 30.2276 5.9325 30.2178 5.9325 30.2C5.9325 30.1823 5.9337 30.1725 5.93445 30.1688C5.93515 30.1653 5.93636 30.1633 5.93738 30.161C5.93837 30.1587 5.95064 30.1309 6.00281 30.0799L6.00965 30.0731L6.01551 30.0662C6.0385 30.0432 6.05487 30.031 6.06336 30.0252C6.06632 30.0232 6.06866 30.0212 6.0702 30.0203C6.07359 30.02 6.08146 30.0199 6.09363 30.0203C6.19059 30.0239 6.2508 30.0471 6.32508 30.1112L10.0946 33.8309L11.1561 34.8778L12.2098 33.8231L19.954 26.0662C19.9766 26.0436 19.9927 26.0317 20.0009 26.0262C20.0056 26.023 20.0086 26.0218 20.0096 26.0213H20.0077C20.0095 26.021 20.0191 26.0196 20.038 26.0203ZM27.7509 31.7967H42.5477C42.6138 31.7967 42.6406 31.8075 42.6454 31.8094C42.6494 31.811 42.6658 31.8169 42.6962 31.8475V31.8485C42.7266 31.8791 42.7347 31.8959 42.7372 31.9022C42.7401 31.9094 42.7508 31.9394 42.7509 32.0086C42.7509 32.0774 42.7398 32.1052 42.7382 32.1092C42.7373 32.1114 42.7331 32.1244 42.7059 32.1512C42.6764 32.1804 42.6601 32.1869 42.6542 32.1893C42.6471 32.1921 42.6172 32.2039 42.5477 32.2039H27.7509C27.6849 32.2039 27.658 32.1932 27.6532 32.1912C27.649 32.1895 27.6326 32.1825 27.6024 32.1522V32.1512C27.5719 32.1205 27.5649 32.1036 27.5624 32.0975C27.5595 32.0902 27.5477 32.0605 27.5477 31.991C27.5477 31.9217 27.5589 31.8941 27.5604 31.8904C27.5614 31.8881 27.5658 31.875 27.5927 31.8485C27.6218 31.8196 27.6383 31.8128 27.6444 31.8104C27.6515 31.8075 27.6815 31.7967 27.7509 31.7967ZM20.038 10.0203C20.0975 10.0225 20.1595 10.0353 20.2567 10.117C20.2864 10.1511 20.2967 10.1688 20.2987 10.1737C20.3006 10.1783 20.3079 10.1946 20.3075 10.2371C20.3071 10.2751 20.3002 10.2899 20.2977 10.2957C20.2943 10.3037 20.28 10.3327 20.2313 10.3817L11.2811 19.3201V19.3211C11.2321 19.3701 11.2025 19.3839 11.1942 19.3875C11.1877 19.3903 11.1706 19.3969 11.1288 19.3973C11.1079 19.3975 11.0956 19.3955 11.0897 19.3944C11.0842 19.3933 11.0805 19.3925 11.078 19.3914C11.0748 19.3901 11.0495 19.3795 11.0038 19.3338H11.0048L6.01648 14.3338L6.00281 14.3201L5.93738 14.2391C5.93636 14.2368 5.93515 14.2347 5.93445 14.2313C5.9337 14.2276 5.9325 14.2178 5.9325 14.2C5.9325 14.1823 5.9337 14.1725 5.93445 14.1688C5.93515 14.1653 5.93636 14.1633 5.93738 14.161C5.93837 14.1587 5.95064 14.1309 6.00281 14.0799L6.00965 14.0731L6.01551 14.0662C6.0385 14.0432 6.05487 14.031 6.06336 14.0252C6.06632 14.0232 6.06866 14.0212 6.0702 14.0203C6.07359 14.02 6.08146 14.0199 6.09363 14.0203C6.19059 14.0239 6.2508 14.0471 6.32508 14.1112L10.0946 17.8309L11.1561 18.8778L12.2098 17.8231L19.954 10.0662C19.9766 10.0436 19.9927 10.0317 20.0009 10.0262C20.0056 10.023 20.0086 10.0218 20.0096 10.0213H20.0077C20.0095 10.021 20.0191 10.0196 20.038 10.0203ZM27.7509 15.7967H42.5477C42.6138 15.7967 42.6406 15.8075 42.6454 15.8094C42.6494 15.811 42.6658 15.8169 42.6962 15.8475V15.8485C42.7266 15.8791 42.7347 15.8959 42.7372 15.9022C42.7401 15.9094 42.7508 15.9394 42.7509 16.0086C42.7509 16.0774 42.7398 16.1052 42.7382 16.1092C42.7373 16.1114 42.7331 16.1244 42.7059 16.1512C42.6764 16.1804 42.6601 16.1869 42.6542 16.1893C42.6471 16.1921 42.6172 16.2039 42.5477 16.2039H27.7509C27.6849 16.2039 27.658 16.1932 27.6532 16.1912C27.649 16.1895 27.6326 16.1825 27.6024 16.1522V16.1512C27.5719 16.1205 27.5649 16.1036 27.5624 16.0975C27.5595 16.0902 27.5477 16.0605 27.5477 15.991C27.5477 15.9217 27.5589 15.8941 27.5604 15.8904C27.5614 15.8881 27.5658 15.875 27.5927 15.8485C27.6218 15.8196 27.6383 15.8128 27.6444 15.8104C27.6515 15.8075 27.6815 15.7967 27.7509 15.7967Z" stroke="var(--stroke-0, #2DA2DB)" stroke-width="3"/>
</g>
</svg>
