<svg width="20" height="20" viewBox="0 0 20 20" fill="none" xmlns="http://www.w3.org/2000/svg">
<g id="conversion_path">
<path id="Vector" d="M15.9583 17.6144C15.3523 17.6144 14.8292 17.4344 14.3889 17.0742C13.9487 16.7139 13.6714 16.2824 13.557 15.7796H9.22908C8.30145 15.7796 7.53332 15.4751 6.92471 14.8661C6.3161 14.2569 6.01179 13.4882 6.01179 12.5598C6.01179 11.6348 6.3161 10.8678 6.92471 10.2586C7.53332 9.64956 8.30145 9.34505 9.22908 9.34505H10.8333C11.3917 9.34505 11.8493 9.16657 12.206 8.80963C12.5626 8.45282 12.741 7.99505 12.741 7.4363C12.741 6.87755 12.5626 6.42011 12.206 6.064C11.8493 5.70775 11.3917 5.52963 10.8333 5.52963H6.44783C6.31617 6.03241 6.03374 6.46393 5.60054 6.82421C5.16721 7.18435 4.64756 7.36442 4.04159 7.36442C3.34534 7.36442 2.75631 7.12352 2.2745 6.64171C1.79284 6.15991 1.552 5.57088 1.552 4.87463C1.552 4.17824 1.79284 3.58921 2.2745 3.10755C2.75631 2.62602 3.34534 2.38525 4.04159 2.38525C4.64756 2.38525 5.16721 2.56532 5.60054 2.92546C6.03374 3.28574 6.31617 3.71727 6.44783 4.22005H10.8333C11.7599 4.22005 12.5278 4.52456 13.137 5.13359C13.746 5.74275 14.0505 6.51067 14.0505 7.43734C14.0505 8.364 13.746 9.13192 13.137 9.74109C12.5278 10.3501 11.7599 10.6546 10.8333 10.6546H9.22908C8.66964 10.6546 8.21186 10.8328 7.85575 11.189C7.4995 11.5451 7.32138 12.0021 7.32138 12.5598C7.32138 13.1209 7.4995 13.5796 7.85575 13.9357C8.21186 14.2919 8.66964 14.47 9.22908 14.47H13.557C13.6853 13.9673 13.9661 13.5357 14.3993 13.1755C14.8326 12.8153 15.3523 12.6353 15.9583 12.6353C16.6545 12.6353 17.2435 12.8762 17.7253 13.358C18.207 13.8398 18.4478 14.4288 18.4478 15.125C18.4478 15.8214 18.207 16.4105 17.7253 16.8921C17.2435 17.3737 16.6545 17.6144 15.9583 17.6144ZM4.04159 5.99984C4.36103 5.99984 4.62839 5.8922 4.84367 5.67692C5.05895 5.46164 5.16658 5.19428 5.16658 4.87484C5.16658 4.55539 5.05895 4.28803 4.84367 4.07275C4.62839 3.85748 4.36103 3.74984 4.04159 3.74984C3.72214 3.74984 3.45478 3.85748 3.2395 4.07275C3.02422 4.28803 2.91659 4.55539 2.91659 4.87484C2.91659 5.19428 3.02422 5.46164 3.2395 5.67692C3.45478 5.8922 3.72214 5.99984 4.04159 5.99984Z" fill="#2DA2DB"/>
</g>
</svg>