<svg width="20" height="20" viewBox="0 0 20 20" fill="none" xmlns="http://www.w3.org/2000/svg">
<g id="data_info_alert">
<path id="Vector" d="M3.12507 16.901C2.9248 16.901 2.75646 16.8324 2.62007 16.6953C2.48355 16.5583 2.41528 16.389 2.41528 16.1876C2.41528 15.9862 2.48355 15.8182 2.62007 15.6835C2.75646 15.5489 2.9248 15.4816 3.12507 15.4816H11.8751C12.0754 15.4816 12.2437 15.5501 12.3801 15.6872C12.5166 15.8243 12.5849 15.9935 12.5849 16.1949C12.5849 16.3963 12.5166 16.5643 12.3801 16.6989C12.2437 16.8336 12.0754 16.901 11.8751 16.901H3.12507ZM13.3311 10.7197C12.2056 10.7197 11.249 10.3253 10.4615 9.53639C9.67417 8.7475 9.28049 7.79021 9.28049 6.66451C9.28049 5.53896 9.67494 4.5816 10.4638 3.79243C11.2527 3.0034 12.21 2.60889 13.3357 2.60889C14.4613 2.60889 15.4186 3.00458 16.2078 3.79597C16.9968 4.58736 17.3913 5.54507 17.3913 6.6691C17.3913 7.79465 16.9956 8.75118 16.2042 9.53868C15.4129 10.326 14.4551 10.7197 13.3311 10.7197ZM3.12507 9.66826C2.9248 9.66826 2.75646 9.59965 2.62007 9.46243C2.48355 9.32535 2.41528 9.15611 2.41528 8.95472C2.41528 8.75347 2.48355 8.58548 2.62007 8.45076C2.75646 8.31604 2.9248 8.24868 3.12507 8.24868H7.3782C7.5782 8.24868 7.7473 8.31951 7.88549 8.46118C8.02382 8.60285 8.09299 8.77104 8.09299 8.96576C8.09299 9.15076 8.02396 9.3141 7.88591 9.45576C7.74785 9.59743 7.57862 9.66826 7.3782 9.66826H3.12507ZM3.12507 13.2845C2.9248 13.2845 2.75646 13.216 2.62007 13.0789C2.48355 12.9418 2.41528 12.7726 2.41528 12.5712C2.41528 12.3698 2.48355 12.2018 2.62007 12.0672C2.75646 11.9325 2.9248 11.8651 3.12507 11.8651H10.6401C10.8385 11.8651 11.0065 11.936 11.1438 12.0776C11.281 12.2192 11.3497 12.3874 11.3497 12.5822C11.3497 12.7639 11.2841 12.9264 11.153 13.0697C11.0217 13.2129 10.8508 13.2845 10.6401 13.2845H3.12507ZM13.3334 9.2316C13.4644 9.2316 13.5782 9.1841 13.6749 9.0891C13.7715 8.9941 13.8199 8.88111 13.8199 8.75014V6.38472C13.8199 6.25236 13.7719 6.13819 13.6759 6.04222C13.5799 5.94625 13.4658 5.89826 13.3334 5.89826C13.2024 5.89826 13.0894 5.94625 12.9944 6.04222C12.8994 6.13819 12.8519 6.25236 12.8519 6.38472V8.75014C12.8519 8.88111 12.8994 8.9941 12.9944 9.0891C13.0894 9.1841 13.2024 9.2316 13.3334 9.2316ZM13.3334 5.06493C13.4644 5.06493 13.5782 5.01743 13.6749 4.92243C13.7715 4.82743 13.8199 4.71444 13.8199 4.58347C13.8199 4.4525 13.7719 4.33868 13.6759 4.24201C13.5799 4.14535 13.4658 4.09701 13.3334 4.09701C13.2024 4.09701 13.0894 4.145 12.9944 4.24097C12.8994 4.33694 12.8519 4.45111 12.8519 4.58347C12.8519 4.71444 12.8994 4.82743 12.9944 4.92243C13.0894 5.01743 13.2024 5.06493 13.3334 5.06493Z" fill="#2DA2DB"/>
</g>
</svg>