<svg preserveAspectRatio="none" width="100%" height="100%" overflow="visible" style="display: block;" viewBox="0 0 40 40" fill="none" xmlns="http://www.w3.org/2000/svg">
<g id="lightbulb_2">
<path id="Vector" d="M16.5119 35.0869H23.5305C23.678 35.0869 23.7558 35.1261 23.8312 35.2021C23.9078 35.2793 23.9494 35.362 23.9494 35.5166C23.9493 35.6701 23.9085 35.7399 23.8439 35.8027C23.7709 35.8736 23.6892 35.9159 23.5305 35.916H16.5119C16.3626 35.916 16.2893 35.8766 16.2199 35.8056V35.8046C16.1453 35.7283 16.1027 35.6449 16.1027 35.4863C16.1028 35.328 16.1446 35.2569 16.2072 35.1953C16.2739 35.1296 16.3512 35.0869 16.5119 35.0869ZM20.0002 4.91303C17.1993 4.91303 14.7927 5.90455 12.842 7.87397C10.8945 9.84023 9.91327 12.2472 9.91327 15.0361C9.91331 16.6912 10.2907 18.252 11.0461 19.7041C11.8016 21.1572 12.8659 22.3563 14.2267 23.2929V23.2939L15.1418 23.9287C15.2445 24.0172 15.3095 24.0967 15.3498 24.166C15.3604 24.1843 15.38 24.2255 15.3801 24.3193V28.3808H24.6203V24.3193C24.6203 24.2172 24.6412 24.1779 24.6476 24.1669C24.6879 24.0985 24.7529 24.0177 24.8576 23.9277L25.7785 23.291L25.7805 23.29C27.0542 22.4053 28.067 21.2865 28.8107 19.9423L28.9562 19.6708C29.7096 18.2086 30.0871 16.6443 30.0871 14.9921C30.087 12.2015 29.1049 9.80055 27.1545 7.84858C25.2032 5.89544 22.7982 4.91308 20.0002 4.91303ZM14.3322 24.3408L13.8976 24.0429C12.3684 22.996 11.1889 21.6698 10.3478 20.0556C9.50444 18.4372 9.08419 16.718 9.08417 14.8847C9.08417 11.8644 10.14 9.33116 12.2717 7.22651C14.4052 5.12006 16.9671 4.07417 20.0148 4.07417C23.059 4.07422 25.6159 5.12891 27.7433 7.25581C29.8701 9.38186 30.9259 11.9442 30.926 15.0019C30.926 16.8362 30.5016 18.5404 29.6535 20.1289C28.8049 21.7181 27.6274 23.0183 26.1096 24.038L25.6672 24.3349V27.3701C25.6672 27.8308 25.5347 28.2082 25.256 28.54L25.1271 28.6796C24.7573 29.0482 24.3422 29.2187 23.8283 29.2187H16.1808C15.6537 29.2186 15.2364 29.0457 14.8713 28.6806C14.506 28.3154 14.3322 27.8975 14.3322 27.3701V24.3408Z" stroke="var(--stroke-0, #2DA2DB)" stroke-width="2"/>
</g>
</svg>
