<svg width="20" height="20" viewBox="0 0 20 20" fill="none" xmlns="http://www.w3.org/2000/svg">
<g id="my_location">
<path id="Vector" d="M10.0005 3.21143C8.25633 3.21149 6.73521 3.80001 5.45947 4.96533L5.20752 5.20654C3.88169 6.53193 3.21143 8.13876 3.21143 9.99951C3.21151 11.7437 3.8 13.2648 4.96533 14.5405L5.20654 14.7925C6.53192 16.1183 8.13878 16.7886 9.99951 16.7886C11.86 16.7885 13.4666 16.1185 14.7925 14.7935C16.1183 13.4681 16.7886 11.8612 16.7886 10.0005C16.7885 8.25635 16.2 6.7352 15.0347 5.45947L14.7935 5.20752C13.4681 3.88169 11.8612 3.21143 10.0005 3.21143ZM9.99951 7.37451C10.7453 7.37451 11.3569 7.62668 11.8647 8.13428C12.3725 8.64208 12.6244 9.25374 12.6245 9.99951C12.6245 10.7455 12.3726 11.3568 11.8647 11.8647C11.3568 12.3726 10.7455 12.6245 9.99951 12.6245C9.25374 12.6244 8.64208 12.3725 8.13428 11.8647C7.62668 11.3569 7.37451 10.7453 7.37451 9.99951C7.37461 9.25374 7.62648 8.64208 8.13428 8.13428C8.64208 7.62648 9.25374 7.37461 9.99951 7.37451ZM10.0015 7.73975C9.45651 7.73982 8.97044 7.90655 8.56494 8.23975L8.396 8.39307C7.9588 8.82871 7.73975 9.37504 7.73975 9.99854C7.73985 10.6214 7.95788 11.1674 8.39307 11.604C8.82871 12.0412 9.37506 12.2603 9.99854 12.2603C10.6214 12.2601 11.1674 12.0421 11.604 11.6069C12.0412 11.1713 12.2603 10.625 12.2603 10.0015C12.2602 9.45653 12.0934 8.97043 11.7603 8.56494L11.6069 8.396C11.1713 7.95877 10.625 7.73975 10.0015 7.73975ZM9.81982 17.231L9.37158 17.1851C7.56919 16.9984 6.08211 16.3049 4.88623 15.1089C3.69031 13.9131 2.99847 12.4279 2.81494 10.6294L2.76904 10.1802H1.43506C1.36904 10.1802 1.33717 10.1625 1.30518 10.1304C1.27329 10.0984 1.25542 10.0656 1.25537 9.99756C1.25537 9.92962 1.2724 9.89823 1.30225 9.86865C1.33375 9.83745 1.36685 9.81984 1.43506 9.81982H2.76904L2.81494 9.37158C3.00165 7.56918 3.69512 6.08212 4.89111 4.88623C6.08692 3.69029 7.57211 2.99846 9.37061 2.81494L9.81982 2.76904V1.43506C9.81984 1.36904 9.8375 1.33717 9.86963 1.30518C9.90163 1.27327 9.93432 1.25541 10.0024 1.25537C10.0704 1.25537 10.1018 1.27237 10.1313 1.30225C10.1625 1.33375 10.1802 1.36686 10.1802 1.43506V2.76904L10.6294 2.81494C12.4279 2.99847 13.9131 3.69031 15.1089 4.88623C16.3049 6.08211 16.9984 7.56919 17.1851 9.37158L17.231 9.81982H18.5649C18.5976 9.81984 18.622 9.82441 18.6421 9.83252L18.6948 9.86963C18.7267 9.90163 18.7446 9.93434 18.7446 10.0024C18.7446 10.0704 18.7276 10.1018 18.6978 10.1313C18.6663 10.1625 18.6331 10.1801 18.5649 10.1802H17.23L17.1851 10.6294C17.0015 12.4279 16.3097 13.9131 15.1138 15.1089C13.9179 16.3049 12.4308 16.9983 10.6284 17.1851L10.1802 17.231V18.5649C10.1802 18.5976 10.1756 18.622 10.1675 18.6421L10.1304 18.6948C10.0984 18.7267 10.0656 18.7446 9.99756 18.7446C9.92965 18.7446 9.89821 18.7276 9.86865 18.6978C9.83747 18.6663 9.81986 18.6331 9.81982 18.5649V17.231Z" stroke="#2DA2DB"/>
</g>
</svg>