<svg width="20" height="20" viewBox="0 0 20 20" fill="none" xmlns="http://www.w3.org/2000/svg">
<g id="road">
<path id="Vector" d="M10 14.1667V17.5M10 4.16667V2.5M10 7.5V10M1.73076 15.3742C1.65965 15.6223 1.64714 15.8835 1.69422 16.1373C1.74129 16.3911 1.84667 16.6305 2.00204 16.8366C2.15741 17.0427 2.35853 17.2099 2.58954 17.325C2.82055 17.4402 3.07515 17.5001 3.33326 17.5H16.6666C16.9247 17.5001 17.1793 17.4403 17.4103 17.3253C17.6413 17.2103 17.8425 17.0432 17.998 16.8372C18.1534 16.6311 18.2589 16.3918 18.3061 16.1381C18.3533 15.8844 18.3409 15.6231 18.2699 15.375L14.9366 3.70833C14.837 3.36004 14.6266 3.05369 14.3373 2.83566C14.048 2.61763 13.6955 2.4998 13.3333 2.5H6.66659C6.30433 2.4998 5.95187 2.61763 5.66257 2.83566C5.37327 3.05369 5.16288 3.36004 5.06326 3.70833L1.73076 15.3742Z" stroke="#2DA2DB" stroke-width="1.5" stroke-linecap="round" stroke-linejoin="round"/>
</g>
</svg>