<svg width="20" height="20" viewBox="0 0 20 20" fill="none" xmlns="http://www.w3.org/2000/svg">
<g id="truck-svgrepo-com 1">
<g id="Group">
<path id="Vector" d="M5.03069 10.7002C3.49483 10.7002 2.24951 11.9453 2.24951 13.4816C2.24951 15.0175 3.49483 16.2626 5.03069 16.2626C6.56679 16.2626 7.8121 15.0175 7.8121 13.4816C7.81214 11.9453 6.56679 10.7002 5.03069 10.7002ZM5.03069 14.6548C4.38268 14.6548 3.85729 14.1294 3.85729 13.4817C3.85729 12.8336 4.38268 12.3083 5.03069 12.3083C5.67897 12.3083 6.20413 12.8336 6.20413 13.4817C6.20413 14.1294 5.67897 14.6548 5.03069 14.6548Z" fill="#2DA2DB"/>
<path id="Vector_2" d="M15.1738 10.7002C13.6377 10.7002 12.3926 11.9453 12.3926 13.4816C12.3926 15.0175 13.6377 16.2626 15.1738 16.2626C16.7099 16.2626 17.9549 15.0175 17.9549 13.4816C17.9549 11.9453 16.7099 10.7002 15.1738 10.7002ZM15.1738 14.6548C14.5257 14.6548 14.0004 14.1294 14.0004 13.4817C14.0004 12.8336 14.5257 12.3083 15.1738 12.3083C15.8218 12.3083 16.3474 12.8336 16.3474 13.4817C16.3475 14.1294 15.8218 14.6548 15.1738 14.6548Z" fill="#2DA2DB"/>
<path id="Vector_3" d="M19.53 8.32749L18.0904 6.56248C17.6941 6.07665 17.1004 5.79493 16.4733 5.79493H12.8837V8.82159H12.0653V8.57636V5.30392V5.05868H15.5829V3.75H10.5928V5.05872V5.30395H0V8.82163L6.62009 10.0781C7.90166 10.6788 8.79361 11.9777 8.79361 13.4843C8.79361 13.512 8.78998 13.5383 8.7897 13.5658H11.4149C11.4146 13.5384 11.4108 13.512 11.4108 13.4843C11.4108 11.4093 13.099 9.72113 15.1737 9.72113C17.0533 9.72113 18.6109 11.1079 18.8879 12.9113H19.3044C19.6886 12.9113 20 12.5998 20 12.2157V9.64636C20 9.16566 19.834 8.69976 19.53 8.32749ZM3.50833 8.47675L2.2084 8.35698V6.28564H3.50833V8.47675ZM6.39196 8.98976L5.09204 8.86944V6.28564H6.39196V8.98976ZM9.27533 9.50531L7.97541 9.38531V6.28568H9.27533V9.50531ZM14.4051 8.6087V6.97248H16.5225C16.708 6.97248 16.8813 7.05475 16.9985 7.1983L18.1489 8.6087H14.4051Z" fill="#2DA2DB"/>
</g>
</g>
</svg>