<svg width="48" height="48" viewBox="0 0 48 48" fill="none" xmlns="http://www.w3.org/2000/svg">
<path d="M24 26V4L40 12L24 20M41.1218 20.4438C42.1861 23.724 42.2857 27.241 41.4087 30.5763C40.5318 33.9115 38.7151 36.9246 36.175 39.2571C33.6348 41.5896 30.4781 43.1434 27.0803 43.7334C23.6826 44.3235 20.1868 43.9251 17.009 42.5856C13.8311 41.2461 11.105 39.0219 9.15482 36.1776C7.20468 33.3333 6.11266 29.9887 6.00868 26.5416C5.90469 23.0946 6.79311 19.6902 8.56826 16.7335C10.3434 13.7769 12.9305 11.3924 16.0218 9.86377M16.0038 19.9941C15.0016 21.3282 14.3492 22.8918 14.1059 24.5425C13.8626 26.1932 14.0363 27.8786 14.611 29.445C15.1857 31.0115 16.1433 32.4092 17.3964 33.5109C18.6496 34.6126 20.1585 35.3832 21.7857 35.7525C23.4128 36.1218 25.1065 36.0781 26.7125 35.6253C28.3184 35.1726 29.7856 34.3251 30.9802 33.1603C32.1749 31.9955 33.0591 30.5502 33.5522 28.9562C34.0454 27.3622 34.1319 25.6701 33.8038 24.0341" stroke="#2DA2DB" stroke-width="3" stroke-linecap="round" stroke-linejoin="round"/>
</svg>
