<svg width="41" height="40" viewBox="0 0 41 40" fill="none" xmlns="http://www.w3.org/2000/svg">
<path d="M34.2334 25.5557C35.7994 25.5964 36.9361 25.8981 37.7344 26.3652C38.5437 26.839 38.7393 27.3038 38.7393 27.793V28.6211H34.3887V27.2891C34.3887 26.6932 34.3358 26.1146 34.2334 25.5557ZM6.02148 25.5527C5.90861 26.1185 5.85059 26.6982 5.85059 27.291V28.6211H1.5V27.793C1.5 27.3387 1.68551 26.8723 2.52441 26.3789H2.52539C3.33483 25.9027 4.47101 25.5942 6.02148 25.5527ZM6.36914 18.3457C6.79747 18.3457 7.12331 18.4795 7.42871 18.7832H7.42969C7.72798 19.08 7.86619 19.4059 7.86621 19.8506C7.86621 20.2584 7.73637 20.579 7.42676 20.8896C7.12825 21.1889 6.80063 21.3281 6.35352 21.3281C5.94462 21.3281 5.6269 21.199 5.32129 20.8916C5.01694 20.5854 4.88379 20.2595 4.88379 19.834C4.88388 19.4048 5.01787 19.0828 5.31934 18.7822C5.62485 18.4779 5.94763 18.3458 6.36914 18.3457ZM33.8691 18.3457C34.2975 18.3457 34.6233 18.4795 34.9287 18.7832H34.9297C35.228 19.08 35.3662 19.4059 35.3662 19.8506C35.3662 20.2584 35.2364 20.579 34.9268 20.8896C34.6282 21.1889 34.3006 21.3281 33.8535 21.3281C33.4446 21.3281 33.1269 21.199 32.8213 20.8916C32.5169 20.5854 32.3838 20.2595 32.3838 19.834C32.3839 19.4048 32.5179 19.0828 32.8193 18.7822C33.1249 18.4779 33.4476 18.3458 33.8691 18.3457Z" stroke="#2DA2DB" stroke-width="3"/>
</svg>
