<svg width="20" height="20" viewBox="0 0 20 20" fill="none" xmlns="http://www.w3.org/2000/svg">
<path d="M9.1665 14.1671L10.8332 15.8337C10.9973 15.9979 11.1922 16.1281 11.4067 16.2169C11.6212 16.3058 11.851 16.3515 12.0832 16.3515C12.3153 16.3515 12.5452 16.3058 12.7597 16.2169C12.9741 16.1281 13.169 15.9979 13.3332 15.8337C13.4973 15.6696 13.6275 15.4747 13.7164 15.2602C13.8052 15.0458 13.8509 14.8159 13.8509 14.5837C13.8509 14.3516 13.8052 14.1217 13.7164 13.9072C13.6275 13.6928 13.4973 13.4979 13.3332 13.3337M11.6665 11.6671L13.7498 13.7504C14.0813 14.0819 14.531 14.2682 14.9998 14.2682C15.4687 14.2682 15.9183 14.0819 16.2498 13.7504C16.5813 13.4189 16.7676 12.9693 16.7676 12.5004C16.7676 12.0316 16.5813 11.5819 16.2498 11.2504L13.0165 8.01709C12.5477 7.54892 11.9123 7.28595 11.2498 7.28595C10.5873 7.28595 9.95191 7.54892 9.48316 8.01709L8.74982 8.75042C8.4183 9.08194 7.96866 9.26819 7.49982 9.26819C7.03098 9.26819 6.58134 9.08194 6.24982 8.75042C5.9183 8.4189 5.73206 7.96926 5.73206 7.50042C5.73206 7.03158 5.9183 6.58194 6.24982 6.25042L8.59149 3.90875C9.35169 3.15054 10.3431 2.66755 11.4087 2.53623C12.4743 2.40491 13.5533 2.63278 14.4748 3.18375L14.8665 3.41709C15.2213 3.63124 15.6432 3.70552 16.0498 3.62542L17.4998 3.33375M17.4998 2.50041L18.3332 11.6671H16.6665M2.49984 2.50041L1.6665 11.6671L7.08317 17.0837C7.41469 17.4153 7.86433 17.6015 8.33317 17.6015C8.80201 17.6015 9.25165 17.4153 9.58317 17.0837C9.91469 16.7522 10.1009 16.3026 10.1009 15.8337C10.1009 15.3649 9.91469 14.9153 9.58317 14.5837M2.49984 3.33374H9.1665" stroke="#1E729C" stroke-width="1.5" stroke-linecap="round" stroke-linejoin="round"/>
</svg>
