<svg preserveAspectRatio="none" width="100%" height="100%" overflow="visible" style="display: block;" viewBox="0 0 24 24" fill="none" xmlns="http://www.w3.org/2000/svg">
<g id="smoke-industrial-polution-pollute-svgrepo-com (1) 1">
<path id="Vector" d="M20.6597 9.6525C20.8153 9.22312 20.8941 8.77219 20.8941 8.30813C20.8941 6.12469 19.1175 4.34813 16.9341 4.34813C16.7128 4.34813 16.4925 4.36594 16.2769 4.4025C15.7453 3.16312 14.7056 2.1975 13.4138 1.76719C10.9303 0.939375 8.23594 2.28656 7.40625 4.77188C7.40063 4.78688 7.39594 4.80281 7.39031 4.81781C6.72 5.09719 6.17438 5.57719 5.81156 6.17344C4.365 5.90625 2.85563 6.405 1.85906 7.51219C1.09594 8.35969 0.707812 9.45375 0.767812 10.5919C0.826875 11.73 1.32656 12.7772 2.17313 13.5403C2.44594 13.7859 2.74406 13.9931 3.06375 14.1591C2.85656 14.9194 2.95687 15.7378 3.36 16.4353C3.75938 17.1263 4.40344 17.6213 5.17406 17.8275C5.43187 17.8969 5.69344 17.9306 5.95312 17.9306C6.47062 17.9306 6.98156 17.7947 7.44187 17.5294C7.80281 17.3203 8.11875 17.0325 8.36813 16.6875H11.3438C11.6541 16.6875 11.9063 16.4353 11.9063 16.125C11.9063 15.8147 11.6541 15.5625 11.3438 15.5625H8.0625C7.86 15.5625 7.67344 15.6713 7.57406 15.8466C7.40531 16.1419 7.15875 16.3931 6.87937 16.5553C6.44812 16.8038 5.94656 16.8694 5.46562 16.7409C4.98469 16.6125 4.58344 16.3041 4.33406 15.8728C4.02094 15.33 4.00172 14.6712 4.28156 14.1094C4.36331 13.9453 4.36847 13.7522 4.30472 13.6172C4.24097 13.4813 4.10812 13.3781 3.9675 13.3275C3.58312 13.1906 3.23344 12.9816 2.92687 12.705C2.3025 12.1425 1.935 11.3719 1.89094 10.5328C1.84688 9.69469 2.13281 8.88938 2.69531 8.265C3.37969 7.50563 4.39219 7.13625 5.38875 7.24969C5.34375 7.47094 5.31844 7.69969 5.31844 7.93313C5.31844 9.57375 6.4725 10.9378 8.03063 11.2453C8.11313 12.8381 9.37406 14.0625 10.9688 14.0625H15.1875C16.3284 14.0625 17.2556 14.2397 17.2556 15.3787V15.1875H18.3806V15.3787C18.3806 13.6191 16.9481 12.9375 15.1875 12.9375H10.9688C9.94969 12.9375 9.15094 12.1209 9.15094 11.0784V10.7456C9.15094 10.4428 8.91187 10.1944 8.61 10.1831C7.395 10.1381 6.44344 9.15 6.44344 7.93313C6.44344 6.94406 7.07719 6.08063 8.02031 5.78531C8.20688 5.72625 8.34937 5.57531 8.39719 5.38594C8.41781 5.30344 8.44406 5.21531 8.47406 5.12625C9.10687 3.23063 11.1628 2.20312 13.0584 2.835C14.1731 3.20625 15.0422 4.09969 15.3816 5.22656C15.4247 5.37094 15.5241 5.49094 15.6563 5.56125C15.7894 5.63156 15.945 5.64656 16.0884 5.60063C16.3594 5.51625 16.6444 5.47313 16.9341 5.47313C18.4978 5.47313 19.7691 6.74437 19.7691 8.30813C19.7691 8.56875 19.7344 8.82375 19.6659 9.06937C19.2403 8.90156 18.7763 8.80969 18.2878 8.80969H17.7563C17.2369 7.42781 15.75 6.61781 14.2791 6.97875C13.6397 7.13719 13.0856 7.49156 12.6769 8.00437C12.4838 8.24719 12.5241 8.60156 12.7669 8.79469C13.0097 8.98875 13.3641 8.94844 13.5572 8.70562C13.8094 8.38875 14.1525 8.16937 14.5491 8.07094C15.5316 7.83 16.5302 8.43206 16.7681 9.41625C16.8545 9.77344 17.0801 9.93469 17.3494 9.93469H18.2878C19.8084 9.93469 21 11.2125 21 12.8437V14.4375H22.125V12.8437C22.125 11.5312 21.5569 10.3847 20.6597 9.6525ZM13.8791 16.1308L23.25 15.375V19.3125H22.125V22.3125H15V19.3125H13.875L13.8791 16.1308Z" fill="#FFFFFF"/>
</g>
</svg>
