<svg preserveAspectRatio="none" width="100%" height="100%" overflow="visible" style="display: block;" viewBox="0 0 40.2392 40" fill="none" xmlns="http://www.w3.org/2000/svg">
<g id="groups">
<path id="Vector" d="M6.38574 24.0721C6.68644 24.0722 6.97209 24.0772 7.24219 24.0878C7.50051 24.0979 7.75965 24.1209 8.01953 24.1571C7.79036 24.6508 7.61873 25.1526 7.50293 25.662C7.38472 26.1822 7.3252 26.7249 7.3252 27.2899V30.0946H1.41992C1.02543 30.0946 0.694647 29.9602 0.426758 29.6923C0.159073 29.4244 0.0254083 29.0944 0.0253906 28.7001V27.7919C0.0253906 26.6902 0.606046 25.7947 1.77637 25.1063C2.94713 24.4174 4.48352 24.0721 6.38574 24.0721ZM20.1162 21.1552C21.6083 21.1552 22.9761 21.298 24.2188 21.5819C25.4611 21.8658 26.5331 22.2881 27.4355 22.8485C28.3352 23.4091 29.0235 24.0636 29.5 24.8124C29.9763 25.5611 30.2139 26.3876 30.2139 27.2919V28.7001C30.2138 29.0944 30.0802 29.4245 29.8125 29.6923C29.5446 29.9602 29.2138 30.0946 28.8193 30.0946H11.4199C11.0254 30.0946 10.6946 29.9602 10.4268 29.6923C10.1591 29.4244 10.0254 29.0944 10.0254 28.7001V27.2919C10.0254 26.3878 10.2681 25.5611 10.7549 24.8124C11.242 24.0635 11.9354 23.4091 12.835 22.8485C13.7343 22.2881 14.8064 21.8659 16.0518 21.5819C17.2976 21.298 18.6527 21.1552 20.1162 21.1552ZM33.8691 24.0721C35.7826 24.0721 37.3193 24.4127 38.4795 25.0917C39.6383 25.7701 40.2139 26.6702 40.2139 27.7919V28.7001C40.2138 29.0944 40.0802 29.4245 39.8125 29.6923C39.5446 29.9602 39.2138 30.0946 38.8193 30.0946H32.9141V27.288C32.9141 26.7084 32.8595 26.161 32.752 25.6464C32.6465 25.1418 32.4814 24.6469 32.2588 24.161C32.5196 24.1225 32.7803 24.0979 33.04 24.0878C33.3106 24.0772 33.5869 24.0722 33.8691 24.0721ZM6.36914 16.869C7.18808 16.869 7.88829 17.1578 8.46973 17.7362C9.05074 18.3142 9.3408 19.0183 9.34082 19.8495C9.34082 20.6555 9.05127 21.349 8.47168 21.9305C7.89205 22.5117 7.18631 22.8016 6.35352 22.8016C5.54538 22.8016 4.85252 22.5113 4.27441 21.9296C3.69679 21.3482 3.4082 20.6494 3.4082 19.8329C3.40831 19.0125 3.69842 18.3142 4.27832 17.7362C4.85855 17.1582 5.5549 16.8691 6.36914 16.869ZM33.8691 16.869C34.6881 16.869 35.3883 17.1578 35.9697 17.7362C36.5507 18.3142 36.8408 19.0183 36.8408 19.8495C36.8408 20.6555 36.5513 21.349 35.9717 21.9305C35.392 22.5117 34.6863 22.8016 33.8535 22.8016C33.0454 22.8016 32.3525 22.5113 31.7744 21.9296C31.1968 21.3482 30.9082 20.6494 30.9082 19.8329C30.9083 19.0125 31.1984 18.3142 31.7783 17.7362C32.3585 17.1582 33.0549 16.8691 33.8691 16.869ZM20.125 9.67664C21.5652 9.67673 22.7726 10.1648 23.749 11.1415C24.7257 12.1179 25.2138 13.3253 25.2139 14.7655C25.2139 16.1825 24.7258 17.3863 23.749 18.3778C22.7726 19.3692 21.565 19.865 20.125 19.8651C18.708 19.8651 17.5043 19.3694 16.5127 18.3778C15.521 17.3862 15.0254 16.1826 15.0254 14.7655C15.0255 13.3255 15.5205 12.1179 16.5117 11.1415C17.5033 10.1645 18.7078 9.67664 20.125 9.67664ZM20.1338 12.3153C19.4435 12.3154 18.86 12.549 18.3857 13.0165C17.9112 13.4838 17.6739 14.0637 17.6738 14.7538C17.6738 15.4391 17.9096 16.022 18.3799 16.4999C18.8501 16.9775 19.4376 17.2167 20.1396 17.2167C20.8283 17.2166 21.407 16.979 21.874 16.5048C22.3414 16.0304 22.5752 15.4447 22.5752 14.7499C22.5752 14.0553 22.3385 13.4754 21.8662 13.0116C21.3942 12.5478 20.8162 12.3153 20.1338 12.3153ZM27.4258 27.1688C27.3719 26.1608 26.6601 25.3476 25.3066 24.7264C23.9526 24.1047 22.2227 23.7948 20.1191 23.7948C18.0158 23.7948 16.2866 24.1064 14.9326 24.7313C13.5788 25.356 12.8672 26.1818 12.8135 27.2108V27.4452H27.4258V27.1688Z" fill="var(--fill-0, white)" stroke="var(--stroke-0, white)" stroke-width="0.05"/>
</g>
</svg>
