<svg xmlns="http://www.w3.org/2000/svg" width="36" height="36" viewBox="0 0 36 36" fill="none">
  <path d="M9.05469 19.8457C11.4961 19.8457 13.4756 21.8249 13.4756 24.2666C13.4754 26.7073 11.4961 28.6865 9.05469 28.6865C6.61389 28.6864 4.63491 26.7073 4.63477 24.2666C4.63477 21.8249 6.61386 19.8458 9.05469 19.8457ZM9.05469 21.5684C7.56478 21.5685 6.35645 22.7767 6.35645 24.2666C6.35656 25.7561 7.56493 26.9637 9.05469 26.9639C10.5451 26.9639 11.7528 25.7561 11.7529 24.2666C11.7529 22.7766 10.5453 21.5684 9.05469 21.5684Z" fill="white" stroke="white" stroke-width="1.17188"/>
  <path d="M27.3128 19.2598C24.5478 19.2598 22.3066 21.5009 22.3066 24.2663C22.3066 27.0309 24.5478 29.272 27.3128 29.272C30.0777 29.272 32.3189 27.0309 32.3189 24.2663C32.3189 21.5009 30.0777 19.2598 27.3128 19.2598ZM27.3128 26.3781C26.1463 26.3781 25.2006 25.4324 25.2006 24.2664C25.2006 23.1 26.1463 22.1543 27.3128 22.1543C28.4792 22.1543 29.4254 23.1 29.4254 24.2664C29.4254 25.4324 28.4792 26.3781 27.3128 26.3781Z" fill="white"/>
  <path d="M35.154 14.9895L32.5627 11.8125C31.8493 10.938 30.7807 10.4309 29.652 10.4309H23.1907V15.8789H21.7175V15.4374V9.54705V9.10562H28.0493V6.75H19.067V9.10569V9.54712H0V15.8789L11.9162 18.1405C14.223 19.2218 15.8285 21.5598 15.8285 24.2717C15.8285 24.3215 15.822 24.369 15.8215 24.4184H20.5468C20.5463 24.3691 20.5394 24.3215 20.5394 24.2717C20.5394 20.5368 23.5781 17.498 27.3126 17.498C30.696 17.498 33.4996 19.9943 33.9983 23.2403H34.7479C35.4394 23.2403 36 22.6797 36 21.9882V17.3635C36.0001 16.4982 35.7012 15.6596 35.154 14.9895ZM6.31499 15.2581L3.97512 15.0426V11.3142H6.31499V15.2581ZM11.5055 16.1816L9.16567 15.965V11.3142H11.5055V16.1816ZM16.6956 17.1096L14.3557 16.8936V11.3142H16.6956V17.1096ZM25.9292 15.4957V12.5505H29.7405C30.0743 12.5505 30.3863 12.6985 30.5973 12.9569L32.668 15.4957H25.9292Z" fill="white"/>
</svg>
