<svg preserveAspectRatio="none" width="100%" height="100%" overflow="visible" style="display: block;" viewBox="0 0 40 40" fill="none" xmlns="http://www.w3.org/2000/svg">
<g id="key">
<path id="Vector" d="M11.6704 22.9429C10.8635 22.9429 10.1707 22.6547 9.59208 22.0783C9.01319 21.5022 8.72375 20.8107 8.72375 20.0037C8.72375 19.1968 9.01194 18.504 9.58833 17.9254C10.1644 17.3465 10.856 17.0571 11.6629 17.0571C12.4699 17.0571 13.1626 17.3453 13.7413 17.9217C14.3201 18.4978 14.6096 19.1893 14.6096 19.9963C14.6096 20.8032 14.3214 21.496 13.745 22.0746C13.1689 22.6535 12.4774 22.9429 11.6704 22.9429ZM11.6667 30.2292C8.83139 30.2292 6.41764 29.2329 4.42542 27.2404C2.43347 25.2479 1.4375 22.8336 1.4375 19.9975C1.4375 17.1617 2.43347 14.7482 4.42542 12.7571C6.41764 10.7662 8.83139 9.77083 11.6667 9.77083C13.7197 9.77083 15.5163 10.2564 17.0563 11.2275C18.596 12.1983 19.7974 13.6554 20.6604 15.5987H34.8813C35.0649 15.5987 35.2378 15.6315 35.4 15.6971C35.5622 15.7626 35.7208 15.8715 35.8758 16.0238L39.2429 19.3804C39.3938 19.5299 39.5022 19.6929 39.5683 19.8696C39.6344 20.046 39.6675 20.2283 39.6675 20.4167C39.6675 20.605 39.6275 20.7804 39.5475 20.9429C39.4675 21.1057 39.3521 21.2618 39.2013 21.4112L34.0625 26.1233C33.9372 26.2531 33.7951 26.3513 33.6363 26.4179C33.4776 26.4846 33.3199 26.5176 33.1629 26.5171C33.0062 26.5165 32.8546 26.499 32.7079 26.4646C32.5615 26.4301 32.4122 26.3646 32.26 26.2679L29.4846 24.2646L26.6775 26.3096C26.5531 26.4062 26.4182 26.4718 26.2729 26.5062C26.1274 26.5407 25.9749 26.5579 25.8154 26.5579C25.6649 26.5579 25.5179 26.5337 25.3746 26.4854C25.2315 26.4371 25.0994 26.3679 24.9783 26.2779L22.6592 24.4013H20.6575C19.9631 26.0879 18.8535 27.4808 17.3288 28.58C15.8038 29.6794 13.9164 30.2292 11.6667 30.2292ZM11.6667 27.5C13.2978 27.5 14.7956 26.9569 16.16 25.8708C17.5244 24.7847 18.3944 23.3885 18.77 21.6821H23.6496L25.8596 23.5271C25.8318 23.5271 25.8318 23.5254 25.8596 23.5221C25.8874 23.5188 25.8874 23.5204 25.8596 23.5271L29.5263 20.9021L32.9429 23.4654L36.365 20.3633L34.3296 18.3188V18.3229V18.3179H18.77C18.4567 16.7357 17.6283 15.3706 16.285 14.2225C14.9414 13.0742 13.4019 12.5 11.6667 12.5C9.58333 12.5 7.8125 13.2292 6.35417 14.6875C4.89583 16.1458 4.16667 17.9167 4.16667 20C4.16667 22.0833 4.89583 23.8542 6.35417 25.3125C7.8125 26.7708 9.58333 27.5 11.6667 27.5Z" fill="var(--fill-0, white)"/>
</g>
</svg>
