<svg preserveAspectRatio="none" width="100%" height="100%" overflow="visible" style="display: block;" viewBox="0 0 34 34" fill="none" xmlns="http://www.w3.org/2000/svg">
<g id="sparkles">
<path id="Vector" d="M28.3333 2.83333V8.5M31.1667 5.66667H25.5M15.6074 3.98643C15.6681 3.66145 15.8405 3.36794 16.0948 3.15672C16.3491 2.9455 16.6693 2.82987 16.9999 2.82987C17.3305 2.82987 17.6507 2.9455 17.905 3.15672C18.1594 3.36794 18.3318 3.66145 18.3925 3.98643L19.8814 11.8603C19.9872 12.4201 20.2592 12.935 20.6621 13.3378C21.0649 13.7406 21.5798 14.0127 22.1396 14.1184L30.0134 15.6074C30.3384 15.6681 30.6319 15.8405 30.8431 16.0948C31.0544 16.3491 31.17 16.6693 31.17 16.9999C31.17 17.3305 31.0544 17.6507 30.8431 17.905C30.6319 18.1594 30.3384 18.3318 30.0134 18.3925L22.1396 19.8814C21.5798 19.9872 21.0649 20.2592 20.6621 20.6621C20.2592 21.0649 19.9872 21.5798 19.8814 22.1396L18.3925 30.0134C18.3318 30.3384 18.1594 30.6319 17.905 30.8431C17.6507 31.0544 17.3305 31.17 16.9999 31.17C16.6693 31.17 16.3491 31.0544 16.0948 30.8431C15.8405 30.6319 15.6681 30.3384 15.6074 30.0134L14.1184 22.1396C14.0127 21.5798 13.7406 21.0649 13.3378 20.6621C12.935 20.2592 12.4201 19.9872 11.8603 19.8814L3.98643 18.3925C3.66145 18.3318 3.36794 18.1594 3.15672 17.905C2.9455 17.6507 2.82987 17.3305 2.82987 16.9999C2.82987 16.6693 2.9455 16.3491 3.15672 16.0948C3.36794 15.8405 3.66145 15.6681 3.98643 15.6074L11.8603 14.1184C12.4201 14.0127 12.935 13.7406 13.3378 13.3378C13.7406 12.935 14.0127 12.4201 14.1184 11.8603L15.6074 3.98643ZM8.5 28.3333C8.5 29.8981 7.23147 31.1667 5.66667 31.1667C4.10186 31.1667 2.83333 29.8981 2.83333 28.3333C2.83333 26.7685 4.10186 25.5 5.66667 25.5C7.23147 25.5 8.5 26.7685 8.5 28.3333Z" stroke="var(--stroke-0, white)" stroke-width="2" stroke-linecap="round" stroke-linejoin="round"/>
</g>
</svg>
