<svg preserveAspectRatio="none" width="100%" height="100%" overflow="visible" style="display: block;" viewBox="0 0 60 9.5" fill="none" xmlns="http://www.w3.org/2000/svg">
<g id="Circle">
<ellipse id="Ellipse 17" cx="29.5" cy="4" rx="7" ry="1.5" fill="var(--fill-0, white)"/>
<path id="Ellipse 16" d="M29.5 1C34.164 1 38.3688 1.50136 41.3926 2.30176C42.9079 2.70287 44.0986 3.17144 44.8984 3.67188C45.7241 4.18863 46 4.65065 46 5C46 5.34935 45.7241 5.81137 44.8984 6.32812C44.0986 6.82856 42.9079 7.29713 41.3926 7.69824C38.3688 8.49864 34.164 9 29.5 9C24.836 9 20.6312 8.49864 17.6074 7.69824C16.0921 7.29713 14.9014 6.82856 14.1016 6.32812C13.2759 5.81137 13 5.34935 13 5C13 4.65065 13.2759 4.18863 14.1016 3.67188C14.9014 3.17144 16.0921 2.70287 17.6074 2.30176C20.6312 1.50136 24.836 1 29.5 1Z" stroke="var(--stroke-0, white)"/>
</g>
</svg>
