<svg preserveAspectRatio="none" width="100%" height="100%" overflow="visible" style="display: block;" viewBox="0 0 36 36" fill="none" xmlns="http://www.w3.org/2000/svg">
<g id="destruction">
<path id="Vector" d="M7.05354 21.1053H28.9471C29.7098 21.1054 30.3601 21.3743 30.8992 21.9119C31.4388 22.4495 31.7078 23.0979 31.7078 23.8582V30.4471C31.7077 31.2039 31.4387 31.8512 30.8992 32.3904C30.36 32.9296 29.7098 33.1989 28.9471 33.199H7.05354C6.29647 33.199 5.64855 32.9298 5.1092 32.3904C4.57008 31.8512 4.30072 31.2039 4.30061 30.4471V23.8582C4.30062 23.0979 4.56992 22.4495 5.1092 21.9119C5.64855 21.3741 6.29645 21.1053 7.05354 21.1053ZM6.80549 30.6941H29.1942V23.6102H6.80549V30.6941ZM20.2342 3.1795C20.4035 3.0976 20.5811 3.08218 20.7684 3.1336C20.9582 3.18574 21.129 3.27154 21.2801 3.39043C21.3913 3.47795 21.4724 3.59347 21.5223 3.73809L21.5614 3.89239L22.659 10.5379L22.6639 10.5652L22.6912 10.5574L29.0828 8.76543V8.76446C29.2982 8.70391 29.4948 8.71846 29.6737 8.80547C29.8559 8.89379 30.0018 9.00765 30.1112 9.14727C30.22 9.28629 30.2816 9.44696 30.2967 9.62872C30.3115 9.80753 30.2534 9.99112 30.119 10.1805L26.243 15.7371L26.2274 15.7596L26.2508 15.7732L28.0711 16.824V16.825C28.3514 16.9999 28.5262 17.2471 28.5965 17.5682C28.6671 17.8898 28.612 18.1937 28.4315 18.4813C28.2511 18.7682 27.9955 18.9454 27.6629 19.0125C27.3297 19.0796 27.0197 19.0241 26.7323 18.8465H26.7313L24.0408 17.1023H24.0399C23.7328 16.9134 23.5507 16.649 23.491 16.3084C23.4315 15.9671 23.4989 15.6445 23.6942 15.3387L25.6805 12.3445L25.7147 12.2938L25.6541 12.3065L20.7694 13.3436L19.9012 8.57208L19.8895 8.50567L19.8553 8.56329L17.2313 13.0164L13.0301 9.93633L12.9725 9.89434L12.991 9.9627L14.327 15.0047L9.20979 15.9109L9.14436 15.9227L9.201 15.9578L10.7772 16.9148C11.0586 17.0796 11.2389 17.3135 11.3182 17.618C11.3975 17.9228 11.3551 18.2172 11.1903 18.5018C11.0257 18.7855 10.784 18.9654 10.4637 19.0418C10.1432 19.1183 9.84265 19.0743 9.56135 18.91V18.909L4.42659 15.9481C4.23113 15.8404 4.0939 15.7015 4.01252 15.532C3.93139 15.3625 3.91415 15.1843 3.96272 14.9969C4.01168 14.8081 4.10215 14.6492 4.23225 14.5193C4.3617 14.39 4.53833 14.2962 4.76448 14.241L11.3338 13.1063L11.3612 13.1014L11.3543 13.075L9.59944 6.5711L9.59846 6.57012C9.53778 6.35408 9.54534 6.1639 9.61702 5.99786C9.68962 5.82895 9.79675 5.68923 9.93928 5.57989C10.0811 5.4712 10.249 5.40949 10.4432 5.39434C10.6353 5.37966 10.8254 5.4381 11.0145 5.57208L16.4959 9.48614L16.5184 9.50176L16.5321 9.47735L19.8182 3.59258C19.9258 3.39896 20.0646 3.26162 20.2342 3.1795Z" fill="var(--fill-0, white)" stroke="var(--stroke-0, white)" stroke-width="0.05"/>
</g>
</svg>
