<svg preserveAspectRatio="none" width="100%" height="100%" overflow="visible" style="display: block;" viewBox="0 0 24 24" fill="none" xmlns="http://www.w3.org/2000/svg">
<g id="hourglass_empty">
<path id="Vector" d="M7.75375 20.4462H16.2462V17.325C16.2462 16.141 15.8346 15.1414 15.0112 14.3262C14.1877 13.5112 13.184 13.1037 12 13.1037C10.816 13.1037 9.81225 13.5112 8.98875 14.3262C8.16542 15.1414 7.75375 16.141 7.75375 17.325V20.4462ZM12 10.8962C13.184 10.8962 14.1877 10.4846 15.0112 9.66125C15.8346 8.83775 16.2462 7.834 16.2462 6.65V3.55375H7.75375V6.65C7.75375 7.834 8.16542 8.83775 8.98875 9.66125C9.81225 10.4846 10.816 10.8962 12 10.8962ZM4.70225 22.1495C4.46175 22.1495 4.25967 22.0672 4.096 21.9027C3.93233 21.7382 3.8505 21.5352 3.8505 21.2935C3.8505 21.0518 3.93233 20.8502 4.096 20.6885C4.25967 20.527 4.46175 20.4462 4.70225 20.4462H6.0505V17.327C6.0505 16.1543 6.37492 15.0867 7.02375 14.124C7.67242 13.1613 8.53475 12.4533 9.61075 12C8.53475 11.53 7.67242 10.8137 7.02375 9.851C6.37492 8.88833 6.0505 7.82067 6.0505 6.648V3.55375H4.70225C4.46175 3.55375 4.25967 3.4715 4.096 3.307C3.93233 3.1425 3.8505 2.93958 3.8505 2.69825C3.8505 2.45692 3.93233 2.25433 4.096 2.0905C4.25967 1.9265 4.46175 1.8445 4.70225 1.8445H19.2977C19.5377 1.8445 19.7407 1.92792 19.9065 2.09475C20.0725 2.26175 20.1555 2.46583 20.1555 2.707C20.1555 2.94833 20.0725 3.14983 19.9065 3.3115C19.7407 3.473 19.5377 3.55375 19.2977 3.55375H17.9555V6.648C17.9555 7.82067 17.6311 8.88833 16.9822 9.851C16.3336 10.8137 15.4712 11.53 14.395 12C15.4712 12.4533 16.3336 13.1613 16.9822 14.124C17.6311 15.0867 17.9555 16.1543 17.9555 17.327V20.4462H19.2977C19.5377 20.4462 19.7407 20.5285 19.9065 20.693C20.0725 20.8575 20.1555 21.0606 20.1555 21.3022C20.1555 21.5439 20.0725 21.7455 19.9065 21.907C19.7407 22.0687 19.5377 22.1495 19.2977 22.1495H4.70225Z" fill="var(--fill-0, #F4813E)"/>
</g>
</svg>
