<svg width="24" height="24" viewBox="0 0 24 24" fill="none" xmlns="http://www.w3.org/2000/svg">
<g id="electric_bolt">
<path id="Vector" d="M11.2037 14.5541L4.49947 13.7601C4.13897 13.7187 3.90172 13.524 3.78772 13.1758C3.67372 12.8276 3.74938 12.5293 4.01472 12.2808L15.188 2.01331C15.2586 1.95931 15.3365 1.91365 15.4215 1.87631C15.5065 1.83898 15.6319 1.82031 15.7977 1.82031C16.0717 1.82031 16.2814 1.93548 16.4267 2.16581C16.5719 2.39598 16.5738 2.62939 16.4325 2.86606L12.7722 9.47756L19.4825 10.2596C19.843 10.3009 20.0802 10.4966 20.1942 10.8468C20.3082 11.197 20.2326 11.4943 19.9675 11.7388L8.81197 21.9823C8.7413 22.0403 8.66347 22.087 8.57847 22.1223C8.49347 22.1576 8.36805 22.1753 8.20222 22.1753C7.92822 22.1753 7.71764 22.0611 7.57047 21.8328C7.42314 21.6046 7.42013 21.3722 7.56147 21.1356L11.2037 14.5541ZM11.355 17.3151L17.6907 11.6981L10.2537 10.7981L12.651 6.69256L6.27222 12.3466L13.7092 13.2333L11.355 17.3151Z" fill="#2DA2DB"/>
</g>
</svg>
