<svg width="24" height="24" viewBox="0 0 24 24" fill="none" xmlns="http://www.w3.org/2000/svg">
<g id="boxes">
<path id="Vector" d="M12 18.9995L8.03 21.3795C7.71894 21.5664 7.36289 21.6651 7 21.6651C6.63711 21.6651 6.28106 21.5664 5.97 21.3795L2.97 19.5795C2.67476 19.4021 2.43033 19.1515 2.26039 18.8519C2.09045 18.5523 2.00075 18.2139 2 17.8695V14.6295C2.00075 14.2851 2.09045 13.9467 2.26039 13.6471C2.43033 13.3475 2.67476 13.0969 2.97 12.9195L7 10.4995M12 18.9995V13.4995M12 18.9995L15.97 21.3795C16.2811 21.5664 16.6371 21.6651 17 21.6651C17.3629 21.6651 17.7189 21.5664 18.03 21.3795L21.03 19.5795C21.3252 19.4021 21.5697 19.1515 21.7396 18.8519C21.9096 18.5523 21.9992 18.2139 22 17.8695V14.6295C21.9992 14.2851 21.9096 13.9467 21.7396 13.6471C21.5697 13.3475 21.3252 13.0969 21.03 12.9195L17 10.4995M12 13.4995L7 10.4995M12 13.4995L7.00001 16.4994M12 13.4995L17 10.4995M12 13.4995L17 16.4995M12 13.4995L12 7.99941M7 10.4995V6.1296C7.00075 5.78518 7.09045 5.44678 7.26039 5.14719C7.43033 4.84761 7.67476 4.59698 7.97 4.4196L10.97 2.6196C11.2811 2.43272 11.6371 2.33398 12 2.33398C12.3629 2.33398 12.7189 2.43272 13.03 2.6196L16.03 4.4196C16.3252 4.59698 16.5697 4.84761 16.7396 5.14719C16.9096 5.44678 16.9992 5.78518 17 6.1296V10.4995M7.00001 16.4994L2.26001 13.6494M7.00001 16.4994L7 21.6695M17 16.4995L21.74 13.6494M17 16.4995V21.6695M12 7.99941L7.26001 5.14941M12 7.99941L16.74 5.14941" stroke="#2DA2DB" stroke-width="1.43478" stroke-linecap="round" stroke-linejoin="round"/>
</g>
</svg>
