<svg width="40" height="40" viewBox="0 0 40 40" fill="none" xmlns="http://www.w3.org/2000/svg">
<g id="Atlas">
<path id="Vector" d="M29.4446 0C23.644 0 18.9844 4.70507 18.9844 10.5624C18.9844 11.2346 19.0795 11.9067 19.1746 12.5789L10.1407 15.8436C8.52412 13.251 5.19586 12.3868 2.62834 14.0192C0.0608183 15.6516 -0.795021 19.0123 0.821564 21.6049C2.15287 23.9095 5.00567 24.8697 7.47809 23.9095L13.7543 33.7997C12.518 35.5281 12.8984 38.0247 14.7052 39.273C16.4169 40.5212 18.8893 40.1372 20.1255 38.3127C21.1715 36.7764 21.0764 34.6639 19.7451 33.3196L25.5458 20.3566C26.782 20.8368 28.1133 21.1248 29.5397 21.1248C35.3404 21.1248 40 16.4197 40 10.5624C40 4.70507 35.2453 0 29.4446 0ZM17.558 32.1673C17.2727 32.0713 17.0825 32.0713 16.7972 32.0713C16.3218 32.0713 15.8463 32.1673 15.4659 32.3594L9.28487 22.6612C10.3309 21.6049 10.9015 20.1646 10.9015 18.7243C10.9015 18.5322 10.9015 18.2442 10.8064 18.0521L19.8402 14.8834C20.601 16.7078 21.8372 18.2442 23.4538 19.3964L17.558 32.1673ZM29.4446 17.668C25.5458 17.668 22.4077 14.4993 22.4077 10.5624C22.4077 6.62551 25.5458 3.45679 29.4446 3.45679C33.3435 3.45679 36.4815 6.62551 36.4815 10.5624C36.4815 14.4993 33.3435 17.668 29.4446 17.668Z" fill="#2DA2DB"/>
</g>
</svg>
