<svg width="24" height="24" viewBox="0 0 24 24" fill="none" xmlns="http://www.w3.org/2000/svg">
<g id="factory">
<path id="Vector" d="M12.9756 7.26758C13.2559 7.15777 13.5162 7.18685 13.7578 7.35449C13.9992 7.52211 14.1191 7.75261 14.1191 8.04688V9.88086H22.1191V20.4346C22.1191 20.898 21.9542 21.2939 21.624 21.624C21.2939 21.9544 20.8971 22.1201 20.4336 22.1201H3.56543C3.10195 22.1201 2.70611 21.9543 2.37598 21.624H2.375C2.04502 21.294 1.87991 20.8978 1.87988 20.4346V11.0166C1.87994 10.6738 1.9747 10.36 2.16309 10.0742C2.32829 9.82396 2.54206 9.63274 2.80469 9.50098L2.91992 9.44824L8.01074 7.29395C8.27951 7.18414 8.53095 7.20446 8.7666 7.35449C9.0019 7.50456 9.11914 7.72281 9.11914 8.01172V8.82324L9.14355 8.81348L12.9756 7.26758ZM12.457 9.28516L7.48242 11.2744V9.29297L7.45703 9.30469L3.55859 11.0254L3.54785 11.0303V20.4521H20.4521V11.5547H12.4824V9.27539L12.457 9.28516ZM16.8691 14.0186V17.9824H15.2676V14.0186H16.8691ZM12.7979 14.0186V17.9824H11.2021V14.0186H12.7979ZM8.73145 14.0186V17.9824H7.12988V14.0186H8.73145ZM19.2217 1.91602H20.3799C20.5858 1.91603 20.7644 1.98445 20.916 2.12012C21.0299 2.22204 21.1107 2.34394 21.1582 2.48633L21.1943 2.63477L22.1162 9.84473H17.5029L18.4121 2.64062C18.4449 2.43357 18.5367 2.26114 18.6875 2.12305C18.8382 1.98509 19.0163 1.91602 19.2217 1.91602Z" fill="#2DA2DB" stroke="#2DA2DB" stroke-width="0.0358696"/>
</g>
</svg>
