<svg width="24" height="24" viewBox="0 0 24 24" fill="none" xmlns="http://www.w3.org/2000/svg">
<g id="smoke-industrial-polution-pollute-svgrepo-com (1) 1">
<path id="Vector" d="M20.6596 9.65273C20.8153 9.22336 20.894 8.77242 20.894 8.30836C20.894 6.12492 19.1175 4.34836 16.934 4.34836C16.7128 4.34836 16.4925 4.36617 16.2768 4.40273C15.7453 3.16336 14.7056 2.19773 13.4137 1.76742C10.9303 0.939608 8.23589 2.2868 7.4062 4.77211C7.40058 4.78711 7.39589 4.80305 7.39027 4.81805C6.71995 5.09742 6.17433 5.57742 5.81152 6.17367C4.36495 5.90648 2.85558 6.40523 1.85902 7.51242C1.09589 8.35992 0.707766 9.45398 0.767766 10.5921C0.826828 11.7302 1.32652 12.7774 2.17308 13.5405C2.44589 13.7862 2.74402 13.9934 3.0637 14.1593C2.85652 14.9196 2.95683 15.738 3.35995 16.4355C3.75933 17.1265 4.40339 17.6215 5.17402 17.8277C5.43183 17.8971 5.69339 17.9309 5.95308 17.9309C6.47058 17.9309 6.98152 17.7949 7.44183 17.5296C7.80277 17.3205 8.1187 17.0327 8.36808 16.6877H11.3437C11.654 16.6877 11.9062 16.4355 11.9062 16.1252C11.9062 15.8149 11.654 15.5627 11.3437 15.5627H8.06245C7.85995 15.5627 7.67339 15.6715 7.57402 15.8468C7.40527 16.1421 7.1587 16.3934 6.87933 16.5555C6.44808 16.804 5.94652 16.8696 5.46558 16.7412C4.98464 16.6127 4.58339 16.3043 4.33402 15.873C4.02089 15.3302 4.00167 14.6715 4.28152 14.1096C4.36327 13.9455 4.36842 13.7524 4.30467 13.6174C4.24092 13.4815 4.10808 13.3784 3.96745 13.3277C3.58308 13.1909 3.23339 12.9818 2.92683 12.7052C2.30245 12.1427 1.93495 11.3721 1.89089 10.533C1.84683 9.69492 2.13277 8.88961 2.69527 8.26523C3.37964 7.50586 4.39214 7.13648 5.3887 7.24992C5.3437 7.47117 5.31839 7.69992 5.31839 7.93336C5.31839 9.57398 6.47245 10.938 8.03058 11.2455C8.11308 12.8384 9.37402 14.0627 10.9687 14.0627H15.1875C16.3284 14.0627 17.2556 14.2399 17.2556 15.379V15.1877H18.3806V15.379C18.3806 13.6193 16.9481 12.9377 15.1875 12.9377H10.9687C9.94964 12.9377 9.15089 12.1212 9.15089 11.0787V10.7459C9.15089 10.443 8.91183 10.1946 8.60995 10.1834C7.39495 10.1384 6.44339 9.15023 6.44339 7.93336C6.44339 6.9443 7.07714 6.08086 8.02027 5.78555C8.20683 5.72648 8.34933 5.57555 8.39714 5.38617C8.41777 5.30367 8.44402 5.21555 8.47402 5.12648C9.10683 3.23086 11.1628 2.20336 13.0584 2.83523C14.1731 3.20648 15.0421 4.09992 15.3815 5.2268C15.4246 5.37117 15.524 5.49117 15.6562 5.56148C15.7893 5.6318 15.945 5.6468 16.0884 5.60086C16.3593 5.51648 16.6443 5.47336 16.934 5.47336C18.4978 5.47336 19.769 6.74461 19.769 8.30836C19.769 8.56898 19.7343 8.82398 19.6659 9.06961C19.2403 8.90179 18.7762 8.80992 18.2878 8.80992H17.7562C17.2368 7.42805 15.75 6.61805 14.279 6.97898C13.6396 7.13742 13.0856 7.49179 12.6768 8.00461C12.4837 8.24742 12.524 8.60179 12.7668 8.79492C13.0096 8.98898 13.364 8.94867 13.5571 8.70586C13.8093 8.38898 14.1525 8.16961 14.549 8.07117C15.5315 7.83023 16.5301 8.4323 16.7681 9.41648C16.8544 9.77367 17.0801 9.93492 17.3493 9.93492H18.2878C19.8084 9.93492 21 11.2127 21 12.844V14.4377H22.125V12.844C22.125 11.5315 21.5568 10.3849 20.6596 9.65273ZM13.8791 16.131L23.25 15.3752V19.3127H22.125V22.3127H15V19.3127H13.875L13.8791 16.131Z" fill="#2DA2DB"/>
</g>
</svg>
