<svg width="24" height="24" viewBox="0 0 24 24" fill="none" xmlns="http://www.w3.org/2000/svg">
<g id="truck-svgrepo-com 1">
<g id="Group">
<path id="Vector" d="M6.03663 12.8398C4.1936 12.8398 2.69922 14.3339 2.69922 16.1776C2.69922 18.0206 4.1936 19.5147 6.03663 19.5147C7.87995 19.5147 9.37433 18.0206 9.37433 16.1776C9.37437 14.3339 7.87995 12.8398 6.03663 12.8398ZM6.03663 17.5854C5.25902 17.5854 4.62855 16.9549 4.62855 16.1776C4.62855 15.4 5.25902 14.7695 6.03663 14.7695C6.81457 14.7695 7.44476 15.4 7.44476 16.1776C7.44476 16.9549 6.81457 17.5854 6.03663 17.5854Z" fill="#2DA2DB"/>
<path id="Vector_2" d="M18.208 12.8398C16.3647 12.8398 14.8706 14.3339 14.8706 16.1776C14.8706 18.0206 16.3647 19.5147 18.208 19.5147C20.0513 19.5147 21.5454 18.0206 21.5454 16.1776C21.5454 14.3339 20.0513 12.8398 18.208 12.8398ZM18.208 17.5854C17.4304 17.5854 16.7999 16.9549 16.7999 16.1776C16.7999 15.4 17.4304 14.7695 18.208 14.7695C18.9857 14.7695 19.6164 15.4 19.6164 16.1776C19.6165 16.9549 18.9857 17.5854 18.208 17.5854Z" fill="#2DA2DB"/>
<path id="Vector_3" d="M23.436 9.99299L21.7085 7.87497C21.2329 7.29199 20.5205 6.95392 19.768 6.95392H15.4605V10.5859H14.4783V10.2916V6.3647V6.07042H18.6995V4.5H12.7114V6.07046V6.36475H0V10.586L7.94411 12.0937C9.48199 12.8145 10.5523 14.3732 10.5523 16.1811C10.5523 16.2144 10.548 16.246 10.5476 16.279H13.6979C13.6976 16.2461 13.6929 16.2144 13.6929 16.1811C13.6929 13.6912 15.7188 11.6654 18.2084 11.6654C20.464 11.6654 22.3331 13.3295 22.6655 15.4935H23.1653C23.6263 15.4935 24 15.1198 24 14.6588V11.5756C24 10.9988 23.8008 10.4397 23.436 9.99299ZM4.20999 10.1721L2.65008 10.0284V7.54277H4.20999V10.1721ZM7.67036 10.7877L6.11045 10.6433V7.54277H7.67036V10.7877ZM11.1304 11.4064L9.57049 11.2624V7.54281H11.1304V11.4064ZM17.2861 10.3304V8.36698H19.827C20.0496 8.36698 20.2575 8.46569 20.3982 8.63796L21.7787 10.3304H17.2861Z" fill="#2DA2DB"/>
</g>
</g>
</svg>
