<svg width="16" height="16" viewBox="0 0 16 16" fill="none" xmlns="http://www.w3.org/2000/svg">
<path d="M1.37468 7.76824C1.31912 7.91792 1.31912 8.08256 1.37468 8.23224C1.91581 9.54434 2.83435 10.6662 4.01386 11.4556C5.19336 12.2451 6.58071 12.6665 8.00001 12.6665C9.41932 12.6665 10.8067 12.2451 11.9862 11.4556C13.1657 10.6662 14.0842 9.54434 14.6253 8.23224C14.6809 8.08256 14.6809 7.91792 14.6253 7.76824C14.0842 6.45614 13.1657 5.33427 11.9862 4.54484C10.8067 3.75541 9.41932 3.33398 8.00001 3.33398C6.58071 3.33398 5.19336 3.75541 4.01386 4.54484C2.83435 5.33427 1.91581 6.45614 1.37468 7.76824Z" stroke="#2DA2DB" stroke-width="0.75" stroke-linecap="round" stroke-linejoin="round"/>
<path d="M8 10C9.10457 10 10 9.10457 10 8C10 6.89543 9.10457 6 8 6C6.89543 6 6 6.89543 6 8C6 9.10457 6.89543 10 8 10Z" stroke="#2DA2DB" stroke-width="0.75" stroke-linecap="round" stroke-linejoin="round"/>
</svg>
