<svg preserveAspectRatio="none" width="100%" height="100%" overflow="visible" style="display: block;" viewBox="0 0 24 15.0153" fill="none" xmlns="http://www.w3.org/2000/svg">
<g id="Group">
<g id="Vector">
<mask id="path-1-inside-1_0_21" fill="white">
<path d="M6.03679 8.34045C4.19375 8.34045 2.69938 9.83456 2.69938 11.6782C2.69938 13.5212 4.19375 15.0153 6.03679 15.0153C7.8801 15.0153 9.37448 13.5212 9.37448 11.6782C9.37453 9.83456 7.8801 8.34045 6.03679 8.34045ZM6.03679 13.086C5.25918 13.086 4.62871 12.4555 4.62871 11.6782C4.62871 10.9006 5.25918 10.2701 6.03679 10.2701C6.81473 10.2701 7.44492 10.9006 7.44492 11.6782C7.44492 12.4555 6.81473 13.086 6.03679 13.086Z"/>
</mask>
<path d="M6.03679 8.34045C4.19375 8.34045 2.69938 9.83456 2.69938 11.6782C2.69938 13.5212 4.19375 15.0153 6.03679 15.0153C7.8801 15.0153 9.37448 13.5212 9.37448 11.6782C9.37453 9.83456 7.8801 8.34045 6.03679 8.34045ZM6.03679 13.086C5.25918 13.086 4.62871 12.4555 4.62871 11.6782C4.62871 10.9006 5.25918 10.2701 6.03679 10.2701C6.81473 10.2701 7.44492 10.9006 7.44492 11.6782C7.44492 12.4555 6.81473 13.086 6.03679 13.086Z" fill="var(--fill-0, #1E729C)"/>
<path d="M9.37448 11.6782L7.37448 11.6781V11.6782H9.37448ZM6.03679 8.34045V6.34045C3.08918 6.34045 0.699375 8.72999 0.699375 11.6782H2.69938H4.69938C4.69938 10.9391 5.29833 10.3405 6.03679 10.3405V8.34045ZM2.69938 11.6782H0.699375C0.699375 14.626 3.0894 17.0153 6.03679 17.0153V15.0153V13.0153C5.29811 13.0153 4.69938 12.4164 4.69938 11.6782H2.69938ZM6.03679 15.0153V17.0153C8.98435 17.0153 11.3745 14.6261 11.3745 11.6782H9.37448H7.37448C7.37448 12.4163 6.77586 13.0153 6.03679 13.0153V15.0153ZM9.37448 11.6782L11.3745 11.6782C11.3746 8.72985 8.98452 6.34045 6.03679 6.34045V8.34045V10.3405C6.77568 10.3405 7.3745 10.9393 7.37448 11.6781L9.37448 11.6782ZM6.03679 13.086V11.086C6.36349 11.086 6.62871 11.3507 6.62871 11.6782H4.62871H2.62871C2.62871 13.5604 4.15486 15.086 6.03679 15.086V13.086ZM4.62871 11.6782H6.62871C6.62871 12.0052 6.36375 12.2701 6.03679 12.2701V10.2701V8.27012C4.1546 8.27012 2.62871 9.79603 2.62871 11.6782H4.62871ZM6.03679 10.2701V12.2701C5.70993 12.2701 5.44492 12.0049 5.44492 11.6782H7.44492H9.44492C9.44492 9.79625 7.91952 8.27012 6.03679 8.27012V10.2701ZM7.44492 11.6782H5.44492C5.44492 11.3509 5.7102 11.086 6.03679 11.086V13.086V15.086C7.91926 15.086 9.44492 13.5601 9.44492 11.6782H7.44492Z" fill="var(--stroke-0, #1E729C)" mask="url(#path-1-inside-1_0_21)"/>
</g>
<path id="Vector_2" d="M18.2084 8.34045C16.3651 8.34045 14.871 9.83456 14.871 11.6782C14.871 13.5212 16.3651 15.0153 18.2084 15.0153C20.0518 15.0153 21.5459 13.5212 21.5459 11.6782C21.5459 9.83456 20.0518 8.34045 18.2084 8.34045ZM18.2084 13.086C17.4308 13.086 16.8004 12.4555 16.8004 11.6782C16.8004 10.9006 17.4308 10.2701 18.2084 10.2701C18.9861 10.2701 19.6168 10.9006 19.6168 11.6782C19.6169 12.4555 18.9861 13.086 18.2084 13.086Z" fill="var(--fill-0, #1E729C)"/>
<path id="Vector_3" d="M23.436 5.49299L21.7085 3.37497C21.2329 2.79198 20.5205 2.45392 19.768 2.45392H15.4605V6.08591H14.4783V5.79163V1.8647V1.57042H18.6995V0H12.7114V1.57046V1.86475H0V6.08596L7.94411 7.5937C9.48199 8.31455 10.5523 9.8732 10.5523 11.6811C10.5523 11.7144 10.548 11.746 10.5476 11.779H13.6979C13.6976 11.7461 13.6929 11.7144 13.6929 11.6811C13.6929 9.19121 15.7188 7.16535 18.2084 7.16535C20.464 7.16535 22.3331 8.82952 22.6655 10.9935H23.1653C23.6263 10.9935 24 10.6198 24 10.1588V7.07564C24 6.49879 23.8008 5.93971 23.436 5.49299ZM4.20999 5.6721L2.65008 5.52838V3.04277H4.20999V5.6721ZM7.67036 6.28771L6.11045 6.14333V3.04277H7.67036V6.28771ZM11.1304 6.90637L9.57049 6.76237V3.04281H11.1304V6.90637ZM17.2861 5.83044V3.86698H19.827C20.0496 3.86698 20.2575 3.96569 20.3982 4.13796L21.7787 5.83044H17.2861Z" fill="var(--fill-0, #1E729C)"/>
</g>
</svg>
