<svg preserveAspectRatio="none" width="100%" height="100%" overflow="visible" style="display: block;" viewBox="0 0 24 24" fill="none" xmlns="http://www.w3.org/2000/svg">
<g id="water_ec">
<path id="Vector" d="M11.25 13.75V17.2518C11.25 17.4629 11.3494 17.6017 11.5482 17.668C11.7472 17.7343 11.9047 17.6805 12.0207 17.5065L15.0962 12.9027C15.1916 12.7534 15.1967 12.6073 15.1117 12.4645C15.0267 12.3215 14.8992 12.25 14.7292 12.25H12.75V8.7425C12.75 8.53517 12.6506 8.39833 12.4517 8.332C12.2527 8.26567 12.0952 8.3195 11.9792 8.4935L8.90375 13.0912C8.80842 13.2446 8.80325 13.3927 8.88825 13.5355C8.97325 13.6785 9.10275 13.75 9.27675 13.75H11.25ZM12 22.1495C9.67283 22.1495 7.73283 21.3522 6.18 19.7575C4.627 18.163 3.8505 16.1772 3.8505 13.8C3.8505 12.7732 4.07725 11.7478 4.53075 10.7238C4.98408 9.69958 5.56533 8.70317 6.2745 7.7345C6.9835 6.76583 7.76783 5.84175 8.6275 4.96225C9.487 4.08275 10.3272 3.27617 11.1482 2.5425C11.2809 2.4305 11.4177 2.35067 11.5587 2.303C11.6996 2.25533 11.8467 2.2315 12 2.2315C12.1533 2.2315 12.3004 2.25533 12.4412 2.303C12.5822 2.35067 12.7191 2.4305 12.8517 2.5425C13.6727 3.27617 14.513 4.08275 15.3725 4.96225C16.2322 5.84175 17.0165 6.76583 17.7255 7.7345C18.4347 8.70317 19.0169 9.69958 19.4722 10.7238C19.9277 11.7478 20.1555 12.7732 20.1555 13.8C20.1555 16.1772 19.378 18.163 17.823 19.7575C16.2682 21.3522 14.3272 22.1495 12 22.1495ZM12 20.4462C13.8507 20.4462 15.3877 19.8138 16.6112 18.5488C17.8346 17.2836 18.4462 15.7007 18.4462 13.8C18.4462 12.5033 17.8971 11.0264 16.7987 9.36925C15.7002 7.71225 14.1007 5.94842 12 4.07775C9.89933 5.94842 8.29975 7.71225 7.20125 9.36925C6.10292 11.0264 5.55375 12.5033 5.55375 13.8C5.55375 15.7007 6.16542 17.2836 7.38875 18.5488C8.61225 19.8138 10.1493 20.4462 12 20.4462Z" fill="var(--fill-0, #1E729C)"/>
</g>
</svg>
