<svg preserveAspectRatio="none" width="100%" height="100%" overflow="visible" style="display: block;" viewBox="0 0 24 24" fill="none" xmlns="http://www.w3.org/2000/svg">
<g id="electrical_services">
<path id="Vector" d="M18.7625 15C18.5355 15 18.3477 14.9254 18.1992 14.7762C18.0509 14.6269 17.9768 14.4397 17.9768 14.2147C17.9768 13.9897 18.0511 13.8034 18.1997 13.6558C18.3486 13.5081 18.5353 13.4342 18.7598 13.4342H20.4595C20.684 13.4342 20.8711 13.5071 21.0208 13.6527C21.1703 13.7984 21.245 13.9846 21.245 14.2113C21.245 14.4211 21.1703 14.605 21.021 14.763C20.8717 14.921 20.6844 15 20.4593 15H18.7625ZM18.7625 19.0658C18.5355 19.0658 18.3477 18.9912 18.1992 18.842C18.0509 18.6927 17.9768 18.5055 17.9768 18.2805C17.9768 18.0555 18.0512 17.8692 18.2 17.7215C18.349 17.5738 18.5358 17.5 18.7605 17.5H20.4613C20.6859 17.5 20.8728 17.5738 21.0218 17.7215C21.1706 17.8692 21.245 18.0563 21.245 18.283C21.245 18.4928 21.1703 18.6758 21.021 18.8318C20.8717 18.9878 20.6844 19.0658 20.4593 19.0658H18.7625ZM14 20.1018C13.5057 20.1018 13.0814 19.9078 12.7273 19.52C12.3733 19.1323 12.1843 18.6596 12.1603 18.1018H10.625C10.3805 18.1018 10.1774 18.0209 10.0158 17.8592C9.85408 17.6976 9.77325 17.4945 9.77325 17.25V15.25C9.77325 15.0055 9.85408 14.8024 10.0158 14.6408C10.1774 14.4791 10.3805 14.3982 10.625 14.3982H12.1603C12.1843 13.8404 12.3733 13.3677 12.7273 12.98C13.0814 12.5922 13.5057 12.3982 14 12.3982H16.375C16.6195 12.3982 16.8226 12.4791 16.9843 12.6408C17.1459 12.8024 17.2268 13.0055 17.2268 13.25V19.25C17.2268 19.4945 17.1459 19.6976 16.9843 19.8592C16.8226 20.0209 16.6195 20.1018 16.375 20.1018H14ZM6.67175 17.1018C5.52742 17.1018 4.57758 16.729 3.82225 15.9835C3.06675 15.238 2.689 14.2859 2.689 13.1272C2.689 11.9646 3.06675 11.0108 3.82225 10.2658C4.57758 9.52075 5.52742 9.14825 6.67175 9.14825H8.29675C8.81925 9.14825 9.24442 8.983 9.57225 8.6525C9.90008 8.32183 10.064 7.89667 10.064 7.377C10.064 6.8535 9.90008 6.42675 9.57225 6.09675C9.24442 5.76675 8.81925 5.60175 8.29675 5.60175H4.54675C4.31942 5.60175 4.11967 5.51675 3.9475 5.34675C3.77517 5.17675 3.689 4.97783 3.689 4.75C3.689 4.5055 3.77517 4.30242 3.9475 4.14075C4.11967 3.97908 4.31942 3.89825 4.54675 3.89825H8.29675C9.29125 3.89825 10.1193 4.22875 10.781 4.88975C11.4425 5.55075 11.7732 6.37983 11.7732 7.377C11.7732 8.37017 11.4425 9.19758 10.781 9.85925C10.1193 10.5209 9.29125 10.8518 8.29675 10.8518H6.67175C5.99958 10.8518 5.45267 11.0582 5.031 11.471C4.60917 11.8838 4.39825 12.4359 4.39825 13.1272C4.39825 13.8146 4.60917 14.3649 5.031 14.7783C5.45267 15.1916 5.99958 15.3982 6.67175 15.3982H8.17175C8.41625 15.3982 8.61933 15.4791 8.781 15.6408C8.9425 15.8024 9.02325 16.0055 9.02325 16.25C9.02325 16.4945 8.9425 16.6976 8.781 16.8592C8.61933 17.0209 8.41625 17.1018 8.17175 17.1018H6.67175Z" fill="var(--fill-0, #1E729C)"/>
</g>
</svg>
