<svg preserveAspectRatio="none" width="100%" height="100%" overflow="visible" style="display: block;" viewBox="0 0 20 20" fill="none" xmlns="http://www.w3.org/2000/svg">
<g id="Icon">
<path id="Vector" d="M4.08333 15.9167C0.833334 12.6667 0.833334 7.33333 4.08333 4.08333" stroke="var(--stroke-0, #1E729C)" stroke-width="1.66667" stroke-linecap="round" stroke-linejoin="round"/>
<path id="Vector_2" d="M6.5 13.5C4.58333 11.5833 4.58333 8.41667 6.5 6.41667" stroke="var(--stroke-0, #1E729C)" stroke-width="1.66667" stroke-linecap="round" stroke-linejoin="round"/>
<path id="Vector_3" d="M10 11.6667C10.9205 11.6667 11.6667 10.9205 11.6667 10C11.6667 9.07953 10.9205 8.33333 10 8.33333C9.07953 8.33333 8.33333 9.07953 8.33333 10C8.33333 10.9205 9.07953 11.6667 10 11.6667Z" stroke="var(--stroke-0, #1E729C)" stroke-width="1.66667" stroke-linecap="round" stroke-linejoin="round"/>
<path id="Vector_4" d="M13.5 6.5C15.4167 8.41667 15.4167 11.5833 13.5 13.5833" stroke="var(--stroke-0, #1E729C)" stroke-width="1.66667" stroke-linecap="round" stroke-linejoin="round"/>
<path id="Vector_5" d="M15.9167 4.08333C19.1667 7.33333 19.1667 12.5833 15.9167 15.8333" stroke="var(--stroke-0, #1E729C)" stroke-width="1.66667" stroke-linecap="round" stroke-linejoin="round"/>
</g>
</svg>
