<svg preserveAspectRatio="none" width="100%" height="100%" overflow="visible" style="display: block;" viewBox="0 0 24 24" fill="none" xmlns="http://www.w3.org/2000/svg">
<g id="health_cross">
<path id="Vector" d="M8.907 21.1495C8.66667 21.1495 8.46467 21.0677 8.301 20.904C8.13733 20.7403 8.0555 20.5383 8.0555 20.2978V15.9445H3.70225C3.46175 15.9445 3.25967 15.8627 3.096 15.699C2.93233 15.5353 2.8505 15.3333 2.8505 15.093V8.882C2.8505 8.64167 2.93233 8.43967 3.096 8.276C3.25967 8.11233 3.46175 8.0305 3.70225 8.0305H8.0555V3.70225C8.0555 3.46175 8.13733 3.25867 8.301 3.093C8.46467 2.92733 8.66667 2.8445 8.907 2.8445H15.118C15.3583 2.8445 15.5603 2.92733 15.724 3.093C15.8877 3.25867 15.9695 3.46175 15.9695 3.70225V8.0305H20.2977C20.5382 8.0305 20.7413 8.11233 20.907 8.276C21.0727 8.43967 21.1555 8.64167 21.1555 8.882V15.093C21.1555 15.3333 21.0727 15.5353 20.907 15.699C20.7413 15.8627 20.5382 15.9445 20.2977 15.9445H15.9695V20.2978C15.9695 20.5383 15.8877 20.7403 15.724 20.904C15.5603 21.0677 15.3583 21.1495 15.118 21.1495H8.907ZM9.75875 19.4462H14.2663V14.2412H19.4462V9.73375H14.2663V4.55375H9.75875V9.73375H4.55375V14.2412H9.75875V19.4462Z" fill="var(--fill-0, #1E729C)"/>
</g>
</svg>
