<svg preserveAspectRatio="none" width="100%" height="100%" overflow="visible" style="display: block;" viewBox="0 0 40 40" fill="none" xmlns="http://www.w3.org/2000/svg">
<g id="my_location">
<g id="Vector">
<mask id="path-1-inside-1_0_88" fill="white">
<path d="M18.6404 37.1296V35.3642C14.8215 34.9686 11.63 33.4886 9.06583 30.9242C6.50139 28.36 5.02472 25.1718 4.63583 21.3596H2.87042C2.48514 21.3596 2.16222 21.2288 1.90167 20.9671C1.64111 20.7057 1.51083 20.3815 1.51083 19.9946C1.51083 19.6079 1.64111 19.2856 1.90167 19.0275C2.16222 18.7694 2.48514 18.6404 2.87042 18.6404H4.63583C5.03139 14.8215 6.51139 11.63 9.07583 9.06583C11.64 6.50139 14.8282 5.02472 18.6404 4.63583V2.87042C18.6404 2.48514 18.7713 2.16222 19.0329 1.90167C19.2943 1.64111 19.6185 1.51083 20.0054 1.51083C20.3921 1.51083 20.7144 1.64111 20.9725 1.90167C21.2306 2.16222 21.3596 2.48514 21.3596 2.87042V4.63583C25.1718 5.02472 28.36 6.50139 30.9242 9.06583C33.4886 11.63 34.9686 14.8215 35.3642 18.6404H37.1296C37.5149 18.6404 37.8378 18.7713 38.0983 19.0329C38.3589 19.2943 38.4892 19.6185 38.4892 20.0054C38.4892 20.3921 38.3589 20.7144 38.0983 20.9725C37.8378 21.2306 37.5149 21.3596 37.1296 21.3596H35.3642C34.9753 25.1718 33.4986 28.36 30.9342 30.9242C28.37 33.4886 25.1785 34.9686 21.3596 35.3642V37.1296C21.3596 37.5149 21.2287 37.8378 20.9671 38.0983C20.7057 38.3589 20.3815 38.4892 19.9946 38.4892C19.6079 38.4892 19.2856 38.3589 19.0275 38.0983C18.7694 37.8378 18.6404 37.5149 18.6404 37.1296ZM19.9983 32.5771C23.4517 32.5771 26.4115 31.3446 28.8779 28.8796C31.344 26.4143 32.5771 23.455 32.5771 20.0017C32.5771 16.5483 31.3446 13.5885 28.8796 11.1221C26.4143 8.65597 23.455 7.42292 20.0017 7.42292C16.5483 7.42292 13.5885 8.65542 11.1221 11.1204C8.65597 13.5857 7.42292 16.545 7.42292 19.9983C7.42292 23.4517 8.65542 26.4115 11.1204 28.8779C13.5857 31.344 16.545 32.5771 19.9983 32.5771ZM20 26.25C18.25 26.25 16.7708 25.6458 15.5625 24.4375C14.3542 23.2292 13.75 21.75 13.75 20C13.75 18.25 14.3542 16.7708 15.5625 15.5625C16.7708 14.3542 18.25 13.75 20 13.75C21.75 13.75 23.2292 14.3542 24.4375 15.5625C25.6458 16.7708 26.25 18.25 26.25 20C26.25 21.75 25.6458 23.2292 24.4375 24.4375C23.2292 25.6458 21.75 26.25 20 26.25ZM19.9962 23.5208C20.9879 23.5208 21.8232 23.1825 22.5021 22.5058C23.1812 21.8292 23.5208 20.9951 23.5208 20.0038C23.5208 19.0121 23.1825 18.1768 22.5058 17.4979C21.8292 16.8188 20.9951 16.4792 20.0037 16.4792C19.0121 16.4792 18.1768 16.8175 17.4979 17.4942C16.8188 18.1708 16.4792 19.0049 16.4792 19.9963C16.4792 20.9879 16.8175 21.8232 17.4942 22.5021C18.1708 23.1812 19.0049 23.5208 19.9962 23.5208Z"/>
</mask>
<path d="M18.6404 35.3642H21.6404V32.6589L18.9495 32.3801L18.6404 35.3642ZM9.06583 30.9242L11.1873 28.803L11.187 28.8027L9.06583 30.9242ZM4.63583 21.3596L7.62034 21.0551L7.34537 18.3596H4.63583V21.3596ZM1.90167 20.9671L4.0275 18.8503L4.02637 18.8492L1.90167 20.9671ZM4.63583 18.6404V21.6404H7.34115L7.61987 18.9495L4.63583 18.6404ZM9.07583 9.06583L11.197 11.1873L11.1973 11.187L9.07583 9.06583ZM18.6404 4.63583L18.9449 7.62034L21.6404 7.34537V4.63583H18.6404ZM19.0329 1.90167L21.1497 4.0275L21.1508 4.02637L19.0329 1.90167ZM21.3596 4.63583H18.3596V7.34537L21.0551 7.62034L21.3596 4.63583ZM30.9242 9.06583L28.8027 11.187L28.803 11.1873L30.9242 9.06583ZM35.3642 18.6404L32.3801 18.9495L32.6589 21.6404H35.3642V18.6404ZM38.0983 19.0329L35.9725 21.1497L35.9736 21.1508L38.0983 19.0329ZM35.3642 21.3596V18.3596H32.6546L32.3797 21.0551L35.3642 21.3596ZM30.9342 30.9242L28.813 28.8027L28.8127 28.803L30.9342 30.9242ZM21.3596 35.3642L21.0505 32.3801L18.3596 32.6589V35.3642H21.3596ZM20.9671 38.0983L18.8503 35.9725L18.8492 35.9736L20.9671 38.0983ZM28.8779 28.8796L30.9986 31.0015L30.9989 31.0013L28.8779 28.8796ZM28.8796 11.1221L31.0015 9.00136L31.0013 9.00112L28.8796 11.1221ZM11.1221 11.1204L9.00136 8.9985L9.00112 8.99874L11.1221 11.1204ZM11.1204 28.8779L8.9985 30.9986L8.99874 30.9989L11.1204 28.8779ZM22.5021 22.5058L20.3847 20.3806L20.3842 20.381L22.5021 22.5058ZM22.5058 17.4979L20.3806 19.6153L20.381 19.6158L22.5058 17.4979ZM17.4979 17.4942L19.6153 19.6194L19.6158 19.619L17.4979 17.4942ZM17.4942 22.5021L19.6194 20.3847L19.619 20.3842L17.4942 22.5021ZM18.6404 37.1296H21.6404V35.3642H18.6404H15.6404V37.1296H18.6404ZM18.6404 35.3642L18.9495 32.3801C15.7725 32.0511 13.2344 30.8503 11.1873 28.803L9.06583 30.9242L6.9444 33.0454C10.0256 36.1269 13.8705 37.8862 18.3313 38.3482L18.6404 35.3642ZM9.06583 30.9242L11.187 28.8027C9.13994 26.7559 7.94344 24.2224 7.62034 21.0551L4.63583 21.3596L1.65132 21.664C2.10601 26.1212 3.86284 29.9641 6.94463 33.0456L9.06583 30.9242ZM4.63583 21.3596V18.3596H2.87042V21.3596V24.3596H4.63583V21.3596ZM2.87042 21.3596V18.3596C3.02302 18.3596 3.23333 18.3868 3.46581 18.481C3.70083 18.5762 3.89008 18.7123 4.0275 18.8503L1.90167 20.9671L-0.224163 23.0839C0.626018 23.9377 1.72586 24.3596 2.87042 24.3596V21.3596ZM1.90167 20.9671L4.02637 18.8492C4.16431 18.9875 4.29863 19.1765 4.39216 19.4092C4.48456 19.6392 4.51083 19.846 4.51083 19.9946H1.51083H-1.48917C-1.48917 21.1327 -1.07363 22.2317 -0.223038 23.085L1.90167 20.9671ZM1.51083 19.9946H4.51083C4.51083 20.1433 4.48454 20.3529 4.38999 20.5869C4.29414 20.8241 4.1559 21.0172 4.01274 21.159L1.90167 19.0275L-0.209403 16.896C-1.07239 17.7507 -1.48917 18.8557 -1.48917 19.9946H1.51083ZM1.90167 19.0275L4.01274 21.159C3.87338 21.297 3.68422 21.4304 3.45241 21.523C3.22349 21.6145 3.01791 21.6404 2.87042 21.6404V18.6404V15.6404C1.73895 15.6404 0.643722 16.051 -0.209403 16.896L1.90167 19.0275ZM2.87042 18.6404V21.6404H4.63583V18.6404V15.6404H2.87042V18.6404ZM4.63583 18.6404L7.61987 18.9495C7.94893 15.7725 9.14971 13.2344 11.197 11.1873L9.07583 9.06583L6.95463 6.9444C3.87306 10.0256 2.11384 13.8705 1.6518 18.3313L4.63583 18.6404ZM9.07583 9.06583L11.1973 11.187C13.2441 9.13994 15.7776 7.94344 18.9449 7.62034L18.6404 4.63583L18.336 1.65132C13.8788 2.10601 10.0359 3.86284 6.9544 6.94463L9.07583 9.06583ZM18.6404 4.63583H21.6404V2.87042H18.6404H15.6404V4.63583H18.6404ZM18.6404 2.87042H21.6404C21.6404 3.02302 21.6132 3.23333 21.519 3.46581C21.4238 3.70084 21.2877 3.89008 21.1497 4.0275L19.0329 1.90167L16.9161 -0.224162C16.0623 0.626018 15.6404 1.72586 15.6404 2.87042H18.6404ZM19.0329 1.90167L21.1508 4.02637C21.0125 4.16431 20.8235 4.29863 20.5908 4.39216C20.3608 4.48456 20.154 4.51083 20.0054 4.51083V1.51083V-1.48917C18.8673 -1.48917 17.7683 -1.07363 16.915 -0.223037L19.0329 1.90167ZM20.0054 1.51083V4.51083C19.8567 4.51083 19.6471 4.48454 19.4131 4.38999C19.1759 4.29414 18.9828 4.1559 18.841 4.01274L20.9725 1.90167L23.104 -0.209403C22.2493 -1.07238 21.1443 -1.48917 20.0054 -1.48917V1.51083ZM20.9725 1.90167L18.841 4.01274C18.703 3.87338 18.5696 3.68422 18.477 3.45241C18.3855 3.22349 18.3596 3.01791 18.3596 2.87042H21.3596H24.3596C24.3596 1.73895 23.949 0.643723 23.104 -0.209403L20.9725 1.90167ZM21.3596 2.87042H18.3596V4.63583H21.3596H24.3596V2.87042H21.3596ZM21.3596 4.63583L21.0551 7.62034C24.2224 7.94344 26.7559 9.13994 28.8027 11.187L30.9242 9.06583L33.0456 6.94463C29.9641 3.86284 26.1212 2.10601 21.664 1.65132L21.3596 4.63583ZM30.9242 9.06583L28.803 11.1873C30.8503 13.2344 32.0511 15.7725 32.3801 18.9495L35.3642 18.6404L38.3482 18.3313C37.8862 13.8705 36.1269 10.0256 33.0454 6.9444L30.9242 9.06583ZM35.3642 18.6404V21.6404H37.1296V18.6404V15.6404H35.3642V18.6404ZM37.1296 18.6404V21.6404C36.977 21.6404 36.7667 21.6132 36.5342 21.519C36.2992 21.4238 36.1099 21.2877 35.9725 21.1497L38.0983 19.0329L40.2242 16.9161C39.374 16.0623 38.2741 15.6404 37.1296 15.6404V18.6404ZM38.0983 19.0329L35.9736 21.1508C35.8357 21.0125 35.7014 20.8235 35.6078 20.5908C35.5154 20.3608 35.4892 20.154 35.4892 20.0054H38.4892H41.4892C41.4892 18.8673 41.0736 17.7683 40.223 16.915L38.0983 19.0329ZM38.4892 20.0054H35.4892C35.4892 19.8567 35.5155 19.6471 35.61 19.4131C35.7059 19.1759 35.8441 18.9828 35.9873 18.841L38.0983 20.9725L40.2094 23.104C41.0724 22.2493 41.4892 21.1443 41.4892 20.0054H38.4892ZM38.0983 20.9725L35.9873 18.841C36.1266 18.703 36.3158 18.5696 36.5476 18.477C36.7765 18.3855 36.9821 18.3596 37.1296 18.3596V21.3596V24.3596C38.261 24.3596 39.3563 23.949 40.2094 23.104L38.0983 20.9725ZM37.1296 21.3596V18.3596H35.3642V21.3596V24.3596H37.1296V21.3596ZM35.3642 21.3596L32.3797 21.0551C32.0566 24.2224 30.8601 26.7559 28.813 28.8027L30.9342 30.9242L33.0554 33.0456C36.1372 29.9641 37.894 26.1212 38.3487 21.664L35.3642 21.3596ZM30.9342 30.9242L28.8127 28.803C26.7656 30.8503 24.2275 32.0511 21.0505 32.3801L21.3596 35.3642L21.6687 38.3482C26.1295 37.8862 29.9744 36.1269 33.0556 33.0454L30.9342 30.9242ZM21.3596 35.3642H18.3596V37.1296H21.3596H24.3596V35.3642H21.3596ZM21.3596 37.1296H18.3596C18.3596 36.977 18.3868 36.7667 18.481 36.5342C18.5762 36.2992 18.7123 36.1099 18.8503 35.9725L20.9671 38.0983L23.0839 40.2242C23.9377 39.374 24.3596 38.2741 24.3596 37.1296H21.3596ZM20.9671 38.0983L18.8492 35.9736C18.9875 35.8357 19.1765 35.7014 19.4092 35.6078C19.6392 35.5154 19.846 35.4892 19.9946 35.4892V38.4892V41.4892C21.1327 41.4892 22.2317 41.0736 23.085 40.223L20.9671 38.0983ZM19.9946 38.4892V35.4892C20.1433 35.4892 20.3529 35.5155 20.5869 35.61C20.8241 35.7059 21.0172 35.8441 21.159 35.9873L19.0275 38.0983L16.896 40.2094C17.7507 41.0724 18.8557 41.4892 19.9946 41.4892V38.4892ZM19.0275 38.0983L21.159 35.9873C21.297 36.1266 21.4304 36.3158 21.523 36.5476C21.6145 36.7765 21.6404 36.9821 21.6404 37.1296H18.6404H15.6404C15.6404 38.261 16.051 39.3563 16.896 40.2094L19.0275 38.0983ZM19.9983 32.5771V35.5771C24.2557 35.5771 27.9759 34.0226 30.9986 31.0015L28.8779 28.8796L26.7572 26.7577C24.8472 28.6666 22.6476 29.5771 19.9983 29.5771V32.5771ZM28.8779 28.8796L30.9989 31.0013C34.0216 27.9795 35.5771 24.2595 35.5771 20.0017H32.5771H29.5771C29.5771 22.6505 28.6664 24.8491 26.757 26.7579L28.8779 28.8796ZM32.5771 20.0017H35.5771C35.5771 15.7443 34.0226 12.0241 31.0015 9.00136L28.8796 11.1221L26.7577 13.2428C28.6666 15.1528 29.5771 17.3524 29.5771 20.0017H32.5771ZM28.8796 11.1221L31.0013 9.00112C27.9795 5.97835 24.2595 4.42292 20.0017 4.42292V7.42292V10.4229C22.6505 10.4229 24.8491 11.3336 26.7579 13.243L28.8796 11.1221ZM20.0017 7.42292V4.42292C15.7443 4.42292 12.0241 5.97742 9.00136 8.9985L11.1221 11.1204L13.2428 13.2423C15.1528 11.3334 17.3524 10.4229 20.0017 10.4229V7.42292ZM11.1221 11.1204L9.00112 8.99874C5.97835 12.0205 4.42292 15.7405 4.42292 19.9983H7.42292H10.4229C10.4229 17.3495 11.3336 15.1509 13.243 13.2421L11.1221 11.1204ZM7.42292 19.9983H4.42292C4.42292 24.2557 5.97742 27.9759 8.9985 30.9986L11.1204 28.8779L13.2423 26.7572C11.3334 24.8472 10.4229 22.6476 10.4229 19.9983H7.42292ZM11.1204 28.8779L8.99874 30.9989C12.0205 34.0216 15.7405 35.5771 19.9983 35.5771V32.5771V29.5771C17.3495 29.5771 15.1509 28.6664 13.2421 26.757L11.1204 28.8779ZM20 26.25V23.25C19.0242 23.25 18.3145 22.9469 17.6838 22.3162L15.5625 24.4375L13.4412 26.5588C15.2271 28.3448 17.4758 29.25 20 29.25V26.25ZM15.5625 24.4375L17.6838 22.3162C17.0531 21.6855 16.75 20.9758 16.75 20H13.75H10.75C10.75 22.5242 11.6552 24.7729 13.4412 26.5588L15.5625 24.4375ZM13.75 20H16.75C16.75 19.0242 17.0531 18.3145 17.6838 17.6838L15.5625 15.5625L13.4412 13.4412C11.6552 15.2271 10.75 17.4758 10.75 20H13.75ZM15.5625 15.5625L17.6838 17.6838C18.3145 17.0531 19.0242 16.75 20 16.75V13.75V10.75C17.4758 10.75 15.2271 11.6552 13.4412 13.4412L15.5625 15.5625ZM20 13.75V16.75C20.9758 16.75 21.6855 17.0531 22.3162 17.6838L24.4375 15.5625L26.5588 13.4412C24.7729 11.6552 22.5242 10.75 20 10.75V13.75ZM24.4375 15.5625L22.3162 17.6838C22.9469 18.3145 23.25 19.0242 23.25 20H26.25H29.25C29.25 17.4758 28.3448 15.2271 26.5588 13.4412L24.4375 15.5625ZM26.25 20H23.25C23.25 20.9758 22.9469 21.6855 22.3162 22.3162L24.4375 24.4375L26.5588 26.5588C28.3448 24.7729 29.25 22.5242 29.25 20H26.25ZM24.4375 24.4375L22.3162 22.3162C21.6855 22.9469 20.9758 23.25 20 23.25V26.25V29.25C22.5242 29.25 24.7729 28.3448 26.5588 26.5588L24.4375 24.4375ZM19.9962 23.5208V26.5208C21.7512 26.5208 23.3574 25.8891 24.6199 24.6306L22.5021 22.5058L20.3842 20.381C20.31 20.4551 20.2637 20.477 20.2402 20.4865C20.2147 20.4969 20.1449 20.5208 19.9962 20.5208V23.5208ZM22.5021 22.5058L24.6195 24.6311C25.8848 23.3704 26.5208 21.7623 26.5208 20.0037H23.5208H20.5208C20.5208 20.1508 20.497 20.2184 20.4876 20.2415C20.479 20.2626 20.4582 20.3074 20.3847 20.3806L22.5021 22.5058ZM23.5208 20.0037H26.5208C26.5208 18.2488 25.8891 16.6426 24.6306 15.3801L22.5058 17.4979L20.381 19.6158C20.4551 19.69 20.477 19.7363 20.4865 19.7598C20.4969 19.7853 20.5208 19.8551 20.5208 20.0037H23.5208ZM22.5058 17.4979L24.6311 15.3805C23.3704 14.1152 21.7623 13.4792 20.0037 13.4792V16.4792V19.4792C20.1508 19.4792 20.2184 19.503 20.2415 19.5124C20.2626 19.521 20.3074 19.5418 20.3806 19.6153L22.5058 17.4979ZM20.0037 16.4792V13.4792C18.2488 13.4792 16.6426 14.1109 15.3801 15.3694L17.4979 17.4942L19.6158 19.619C19.69 19.5449 19.7363 19.523 19.7598 19.5135C19.7853 19.5031 19.8551 19.4792 20.0037 19.4792V16.4792ZM17.4979 17.4942L15.3805 15.3689C14.1152 16.6296 13.4792 18.2377 13.4792 19.9962H16.4792H19.4792C19.4792 19.8492 19.503 19.7816 19.5124 19.7585C19.521 19.7374 19.5418 19.6926 19.6153 19.6194L17.4979 17.4942ZM16.4792 19.9962H13.4792C13.4792 21.7512 14.1109 23.3574 15.3694 24.6199L17.4942 22.5021L19.619 20.3842C19.5449 20.31 19.523 20.2637 19.5135 20.2402C19.5031 20.2147 19.4792 20.1449 19.4792 19.9962H16.4792ZM17.4942 22.5021L15.3689 24.6195C16.6296 25.8848 18.2377 26.5208 19.9962 26.5208V23.5208V20.5208C19.8492 20.5208 19.7816 20.497 19.7585 20.4876C19.7374 20.479 19.6926 20.4582 19.6194 20.3847L17.4942 22.5021Z" fill="var(--stroke-0, #2DA2DB)" mask="url(#path-1-inside-1_0_88)"/>
</g>
</g>
</svg>
