<svg preserveAspectRatio="none" width="100%" height="100%" overflow="visible" style="display: block;" viewBox="0 0 24 24" fill="none" xmlns="http://www.w3.org/2000/svg">
<g id="pickaxe" clip-path="url(#clip0_0_57)">
<path id="Vector" d="M14 13L5.619 21.38C5.42202 21.5771 5.18815 21.7334 4.93076 21.8401C4.67336 21.9467 4.39748 22.0017 4.11885 22.0017C3.55615 22.0018 3.01646 21.7783 2.6185 21.3805C2.22054 20.9827 1.99692 20.4431 1.99683 19.8804C1.99673 19.3177 2.22018 18.778 2.618 18.38L11 9.99902M15.973 4.02702C14.4927 3.08619 12.8374 2.45464 11.1066 2.17039C9.37583 1.88614 7.60544 1.95506 5.902 2.37302C4.504 2.71502 4.81 4.53102 6.179 4.97402C8.27361 5.65298 10.241 6.67486 12.001 7.99802M16.001 11.9991C17.3243 13.7597 18.3462 15.7278 19.025 17.8231C19.469 19.1921 21.285 19.4991 21.628 18.1011C22.0443 16.4053 22.1147 14.643 21.835 12.9194C21.5552 11.1958 20.9312 9.54622 20 8.06909M18.3519 3.3519C18.1259 3.12595 17.8195 2.99902 17.4999 2.99902C17.1803 2.99902 16.8739 3.12595 16.6479 3.3519L11.3519 8.6479C11.126 8.87387 10.999 9.18034 10.999 9.4999C10.999 9.81945 11.126 10.1259 11.3519 10.3519L13.6479 12.6479C13.8739 12.8738 14.1803 13.0008 14.4999 13.0008C14.8195 13.0008 15.1259 12.8738 15.3519 12.6479L20.6479 7.3519C20.8738 7.12592 21.0008 6.81945 21.0008 6.4999C21.0008 6.18034 20.8738 5.87387 20.6479 5.6479L18.3519 3.3519Z" stroke="var(--stroke-0, #1E729C)" stroke-width="2" stroke-linecap="round" stroke-linejoin="round"/>
</g>
<defs>
<clipPath id="clip0_0_57">
<rect width="24" height="24" fill="white"/>
</clipPath>
</defs>
</svg>
