<svg width="20" height="11" viewBox="0 0 20 11" fill="none" xmlns="http://www.w3.org/2000/svg">
<path d="M12.2109 7.22363V7.62305M12.2676 7.34961L12.2109 7.22363L12.1084 7L11.8281 7.33594L12.1826 7.62305C12.1927 7.62356 12.2022 7.62294 12.2109 7.62305M12.2109 7.22363V7.62305M12.2109 7.62305C12.2192 7.62315 12.2267 7.62316 12.2334 7.62305L12.2949 7.57715M12.2676 7.34961L12.2949 7.57715M12.2676 7.34961L12.2949 7.57715M12.2676 7.34961L12.3525 7.53516L12.2949 7.57715M12.2109 7.62793H12.2266L12.208 7.64062L12.2061 7.6416L12.1885 7.62695C12.1991 7.62721 12.2071 7.62793 12.2109 7.62793ZM5.1123 4.39355C5.31468 4.39355 5.4724 4.45638 5.62305 4.60645V4.60742C5.77266 4.75644 5.83585 4.91141 5.83594 5.1123C5.83594 5.26416 5.80002 5.39062 5.71875 5.50781L5.62207 5.62305C5.4729 5.77287 5.31738 5.83594 5.11621 5.83594C4.96456 5.8359 4.83875 5.79987 4.72168 5.71875L4.60645 5.62207C4.45651 5.47285 4.39355 5.31745 4.39355 5.11621C4.39361 4.91399 4.4565 4.75701 4.60645 4.60645H4.60742C4.75649 4.45672 4.91133 4.39364 5.1123 4.39355Z" stroke="#1E729C" stroke-width="1.5"/>
</svg>
