<svg preserveAspectRatio="none" width="100%" height="100%" overflow="visible" style="display: block;" viewBox="0 0 24 24" fill="none" xmlns="http://www.w3.org/2000/svg">
<g id="manufacturing">
<path id="Vector" d="M5.4095 10.2867C5.08283 10.2024 4.77567 10.0841 4.488 9.93175C4.20033 9.77942 3.94583 9.58858 3.7245 9.35925L3.19825 9.57225C3.01975 9.64292 2.84633 9.65092 2.678 9.59625C2.5095 9.54158 2.3805 9.43367 2.291 9.2725L2.1275 9.00325C2.03567 8.85875 2.00008 8.69733 2.02075 8.519C2.04142 8.34083 2.12233 8.18742 2.2635 8.05875L2.74575 7.604C2.66242 7.284 2.62075 6.97133 2.62075 6.666C2.62075 6.36083 2.66242 6.04725 2.74575 5.72525L2.2635 5.26025C2.12233 5.13458 2.04142 4.97858 2.02075 4.79225C2.00008 4.60575 2.03542 4.43983 2.12675 4.2945L2.2575 4.07675C2.34483 3.91475 2.47883 3.80258 2.6595 3.74025C2.84017 3.67792 3.02242 3.68208 3.20625 3.75275L3.7245 3.96575C3.94983 3.73642 4.205 3.5455 4.49 3.393C4.77517 3.24067 5.0815 3.12258 5.409 3.03875L5.47675 2.4885C5.51008 2.28933 5.59892 2.12325 5.74325 1.99025C5.88758 1.85725 6.05883 1.79075 6.257 1.79075H6.48225C6.67558 1.79075 6.84417 1.85717 6.988 1.99C7.13183 2.12283 7.22192 2.287 7.25825 2.4825L7.32525 3.03825C7.64792 3.12258 7.95308 3.24092 8.24075 3.39325C8.52842 3.54558 8.78292 3.73642 9.00425 3.96575L9.5305 3.75275C9.70767 3.68208 9.88175 3.67375 10.0527 3.72775C10.2237 3.78175 10.3549 3.88975 10.4463 4.05175L10.6082 4.2945C10.6956 4.43983 10.7299 4.607 10.7113 4.796C10.6926 4.98483 10.6106 5.14158 10.4652 5.26625L9.95825 5.72325C10.0456 6.02908 10.0893 6.339 10.0893 6.653C10.0893 6.967 10.0456 7.28325 9.95825 7.60175L10.4652 8.06475C10.6066 8.18942 10.6876 8.342 10.7082 8.5225C10.7289 8.70317 10.6956 8.8725 10.6082 9.0305L10.4713 9.2475C10.3799 9.41 10.2449 9.52242 10.0662 9.58475C9.88758 9.64708 9.711 9.64292 9.5365 9.57225L9.00425 9.35925C8.78292 9.60525 8.52875 9.80033 8.24175 9.9445C7.95458 10.0885 7.64925 10.2024 7.32575 10.2863L7.25825 10.8345C7.22092 11.035 7.13042 11.2018 6.98675 11.3348C6.84308 11.4678 6.67275 11.5342 6.47575 11.5342H6.252C6.055 11.5342 5.88475 11.4687 5.74125 11.3375C5.59775 11.2065 5.50958 11.0415 5.47675 10.8425L5.4095 10.2867ZM6.36275 8.92675C6.98658 8.92675 7.52067 8.70583 7.965 8.264C8.40933 7.82233 8.6315 7.28867 8.6315 6.663C8.6315 6.03733 8.40942 5.5035 7.96525 5.0615C7.52108 4.61933 6.98642 4.39825 6.36125 4.39825C5.73592 4.39825 5.20225 4.62 4.76025 5.0635C4.31825 5.50683 4.09725 6.0405 4.09725 6.6645C4.09725 7.2885 4.31883 7.8215 4.762 8.2635C5.20533 8.70567 5.73892 8.92675 6.36275 8.92675ZM15.7857 21.7125C15.3119 21.5958 14.8608 21.4148 14.4325 21.1695C14.0043 20.9243 13.6343 20.6064 13.3223 20.2158L12.6723 20.4218C12.4723 20.4884 12.2712 20.4852 12.0692 20.4122C11.8672 20.3392 11.7106 20.2098 11.5992 20.0238L11.3952 19.6758C11.2799 19.4898 11.2389 19.2889 11.2723 19.0732C11.3056 18.8576 11.4056 18.6751 11.5723 18.5258L12.0723 18.0777C11.9269 17.6204 11.8543 17.1485 11.8543 16.662C11.8543 16.1753 11.9269 15.7054 12.0723 15.2522L11.5723 14.8272C11.4056 14.6939 11.3056 14.5157 11.2723 14.2927C11.2389 14.0697 11.2809 13.8653 11.3982 13.6795L11.6242 13.3003C11.7229 13.1183 11.8681 12.9939 12.0598 12.9272C12.2514 12.8606 12.4473 12.8522 12.6473 12.9022L13.3223 13.0832C13.6509 12.7092 14.0252 12.3964 14.445 12.1448C14.865 11.8933 15.3128 11.7155 15.7885 11.6115L15.9617 10.8865C16.0111 10.6865 16.1149 10.5198 16.2732 10.3865C16.4316 10.2532 16.6191 10.1865 16.8357 10.1865H17.2857C17.5024 10.1865 17.6941 10.2532 17.8607 10.3865C18.0274 10.5198 18.1357 10.6865 18.1857 10.8865L18.3607 11.6115C18.8641 11.6822 19.3216 11.8484 19.7333 12.1103C20.1448 12.3723 20.5148 12.6966 20.8435 13.0832L21.5185 12.9022C21.7225 12.8522 21.9203 12.8647 22.112 12.9397C22.3037 13.0147 22.4488 13.1439 22.5475 13.3272L22.7705 13.6772C22.8858 13.8606 22.9227 14.0606 22.881 14.2772C22.8393 14.4939 22.7352 14.6772 22.5685 14.8272L22.0935 15.2522C22.2388 15.7054 22.3115 16.1753 22.3115 16.662C22.3115 17.1485 22.2388 17.6204 22.0935 18.0777L22.5935 18.5238C22.7602 18.6724 22.8602 18.8551 22.8935 19.0718C22.9268 19.2884 22.8858 19.4891 22.7705 19.6738L22.5725 20.0258C22.4572 20.2104 22.2985 20.3434 22.0965 20.4247C21.8945 20.5061 21.6852 20.5051 21.4685 20.4218L20.8435 20.2158C20.5315 20.6231 20.1624 20.9452 19.7363 21.182C19.3099 21.419 18.8514 21.5958 18.3607 21.7125L18.1857 22.4375C18.1357 22.6375 18.0316 22.8042 17.8732 22.9375C17.7149 23.0708 17.5274 23.1375 17.3107 23.1375H16.8607C16.6441 23.1375 16.4524 23.0708 16.2857 22.9375C16.1191 22.8042 16.0107 22.6375 15.9607 22.4375L15.7857 21.7125ZM17.083 20.0833C18.0357 20.0833 18.8435 19.7511 19.5065 19.0867C20.1695 18.4224 20.501 17.6145 20.501 16.663C20.501 15.7115 20.1693 14.9033 19.506 14.2383C18.8427 13.5733 18.0359 13.2408 17.0857 13.2408C16.1311 13.2408 15.3222 13.573 14.6592 14.2375C13.9962 14.9022 13.6648 15.7103 13.6648 16.662C13.6648 17.6167 13.9962 18.4255 14.6592 19.0885C15.3222 19.7517 16.1302 20.0833 17.083 20.0833Z" fill="var(--fill-0, #F4813E)"/>
</g>
</svg>
