<svg preserveAspectRatio="none" width="100%" height="100%" overflow="visible" style="display: block;" viewBox="0 0 48 48" fill="none" xmlns="http://www.w3.org/2000/svg">
<g id="event">
<path id="Vector" d="M40.0457 42.3921C39.6945 42.6766 39.3249 42.7994 38.8924 42.7994H9.10725C8.67843 42.7993 8.31146 42.677 7.96174 42.3921H40.0457ZM7.60725 42.0376C7.32267 41.6881 7.201 41.3208 7.201 40.8921V10.1079C7.201 9.67569 7.32312 9.30566 7.60725 8.95463V42.0376ZM29.8592 28.8003C30.7719 28.8004 31.497 29.0805 32.1141 29.649L32.2362 29.7661C32.8818 30.4163 33.2 31.1827 33.2 32.1587C33.2 33.1321 32.8813 33.8926 32.2342 34.5357C31.584 35.1816 30.8169 35.4995 29.8406 35.4995C28.8675 35.4995 28.1077 35.1808 27.4647 34.5337C26.8188 33.8835 26.4999 33.1174 26.4998 32.1411C26.4998 31.1676 26.8183 30.4064 27.4656 29.7632C28.1158 29.1175 28.8831 28.8003 29.8592 28.8003ZM34.0067 5.189C34.0795 5.18902 34.1141 5.2006 34.1268 5.2056C34.1379 5.21006 34.1595 5.22041 34.1942 5.25443H34.1951C34.2309 5.28955 34.238 5.30836 34.2391 5.31107C34.2407 5.31497 34.2498 5.33778 34.2498 5.39603V8.189H38.8924C39.329 8.189 39.7021 8.31442 40.0574 8.60795H7.94905C8.30313 8.31354 8.6741 8.18905 9.10725 8.189H13.7498V5.39603C13.7499 5.33407 13.7596 5.30903 13.7615 5.30424C13.7633 5.29999 13.771 5.28204 13.8045 5.24857C13.8399 5.21339 13.8606 5.20434 13.867 5.2017C13.8734 5.19911 13.899 5.18902 13.9598 5.189C14.0333 5.189 14.0685 5.20064 14.0809 5.2056C14.0922 5.21017 14.1137 5.22058 14.1483 5.25443C14.1841 5.28955 14.1911 5.30836 14.1922 5.31107C14.1937 5.31456 14.2039 5.33709 14.2039 5.39603V8.189H33.7967V5.39603C33.7968 5.33505 33.8063 5.31033 33.8084 5.30521C33.8101 5.30117 33.8179 5.28282 33.8524 5.24857V5.24759C33.8875 5.2127 33.9077 5.20424 33.9139 5.2017C33.92 5.19919 33.9457 5.189 34.0067 5.189ZM40.3924 8.94193C40.686 9.29734 40.8114 9.67125 40.8114 10.1079V40.8921C40.8114 41.3252 40.6865 41.6963 40.3924 42.0503V8.94193Z" stroke="var(--stroke-0, #2DA2DB)" stroke-width="3"/>
</g>
</svg>
