<svg preserveAspectRatio="none" width="100%" height="100%" overflow="visible" style="display: block;" viewBox="0 0 20 20" fill="none" xmlns="http://www.w3.org/2000/svg">
<g id="eye_tracking">
<g id="Vector">
<mask id="path-1-inside-1_0_573" fill="white">
<path d="M2.12812 19.2912C1.74479 19.2912 1.41243 19.1505 1.13104 18.869C0.849514 18.5876 0.70875 18.2552 0.70875 17.8719V16.009C0.70875 15.8087 0.777292 15.6403 0.914375 15.504C1.05146 15.3676 1.22069 15.2994 1.42208 15.2994C1.62347 15.2994 1.79153 15.3676 1.92625 15.504C2.06083 15.6403 2.12812 15.8087 2.12812 16.009V17.8719H3.99104C4.19132 17.8719 4.35965 17.9404 4.49604 18.0775C4.63243 18.2146 4.70062 18.3838 4.70062 18.5852C4.70062 18.7866 4.63243 18.9546 4.49604 19.0892C4.35965 19.2239 4.19132 19.2912 3.99104 19.2912H2.12812ZM17.8769 19.2912H16.014C15.8137 19.2912 15.6453 19.2227 15.509 19.0856C15.3726 18.9485 15.3044 18.7793 15.3044 18.5779C15.3044 18.3765 15.3726 18.2085 15.509 18.0737C15.6453 17.9392 15.8137 17.8719 16.014 17.8719H17.8769V16.009C17.8769 15.8087 17.9454 15.6403 18.0825 15.504C18.2196 15.3676 18.3888 15.2994 18.5902 15.2994C18.7916 15.2994 18.9596 15.3676 19.0942 15.504C19.2289 15.6403 19.2962 15.8087 19.2962 16.009V17.8719C19.2962 18.2552 19.1555 18.5876 18.874 18.869C18.5926 19.1505 18.2602 19.2912 17.8769 19.2912ZM9.97771 15.4171C8.45812 15.4171 7.06674 15.0169 5.80354 14.2167C4.54021 13.4164 3.53049 12.3149 2.77437 10.9121C2.69507 10.7739 2.63903 10.6281 2.60625 10.4746C2.57347 10.3211 2.55708 10.1646 2.55708 10.005C2.55708 9.8425 2.57521 9.68444 2.61146 9.53083C2.64771 9.37708 2.70201 9.22944 2.77437 9.08792C3.53049 7.67125 4.53944 6.56194 5.80125 5.76C7.06305 4.95805 8.45403 4.55708 9.97417 4.55708C11.4943 4.55708 12.8904 4.95722 14.1625 5.7575C15.4346 6.55778 16.4487 7.66625 17.2048 9.08292C17.2841 9.22444 17.341 9.37299 17.3754 9.52854C17.4099 9.6841 17.4271 9.83958 17.4271 9.995C17.4271 10.1506 17.409 10.3074 17.3729 10.4654C17.3368 10.6235 17.2791 10.774 17.1998 10.9171C16.447 12.3199 15.435 13.4206 14.1637 14.2192C12.8925 15.0178 11.4972 15.4171 9.97771 15.4171ZM9.97604 14.0327C11.2631 14.0327 12.4614 13.6706 13.5708 12.9463C14.6803 12.2221 15.5283 11.2392 16.115 9.9975C15.5283 8.75583 14.6805 7.76944 13.5715 7.03833C12.4624 6.30722 11.2633 5.94167 9.97417 5.94167C8.6875 5.94167 7.49417 6.30722 6.39417 7.03833C5.29417 7.76944 4.45083 8.75583 3.86417 9.9975C4.45083 11.2392 5.29438 12.2221 6.39479 12.9463C7.49521 13.6706 8.68896 14.0327 9.97604 14.0327ZM9.99958 12.76C10.7671 12.76 11.425 12.4891 11.9733 11.9473C12.5217 11.4055 12.7958 10.7549 12.7958 9.99542C12.7958 9.23597 12.5222 8.5834 11.9748 8.03771C11.4274 7.49201 10.768 7.21917 9.99646 7.21917C9.2316 7.21917 8.58347 7.48986 8.05208 8.03125C7.52069 8.57264 7.255 9.2284 7.255 9.99854C7.255 10.7687 7.52222 11.4215 8.05667 11.9569C8.59125 12.4923 9.23889 12.76 9.99958 12.76ZM9.99646 11.4152C9.60201 11.4152 9.26812 11.2776 8.99479 11.0025C8.72146 10.7272 8.58479 10.393 8.58479 9.99979C8.58479 9.60646 8.72132 9.26882 8.99437 8.98687C9.26743 8.70493 9.60167 8.56396 9.99708 8.56396C10.3925 8.56396 10.7303 8.70361 11.0106 8.98292C11.291 9.26222 11.4312 9.60132 11.4312 10.0002C11.4312 10.3935 11.2917 10.7277 11.0127 11.0027C10.7337 11.2777 10.3949 11.4152 9.99646 11.4152ZM19.2962 2.12312V3.98604C19.2962 4.18632 19.2277 4.35465 19.0906 4.49104C18.9535 4.62743 18.7843 4.69562 18.5829 4.69562C18.3815 4.69562 18.2135 4.62743 18.0787 4.49104C17.9442 4.35465 17.8769 4.18632 17.8769 3.98604V2.12312H16.014C15.8137 2.12312 15.6453 2.05458 15.509 1.9175C15.3726 1.78042 15.3044 1.61118 15.3044 1.40979C15.3044 1.2084 15.3726 1.04042 15.509 0.905833C15.6453 0.771111 15.8137 0.70375 16.014 0.70375H17.8769C18.2602 0.70375 18.5926 0.844513 18.874 1.12604C19.1555 1.40743 19.2962 1.73979 19.2962 2.12312ZM2.12812 0.70375H3.99104C4.19132 0.70375 4.35965 0.772292 4.49604 0.909375C4.63243 1.04646 4.70062 1.21569 4.70062 1.41708C4.70062 1.61847 4.63243 1.78653 4.49604 1.92125C4.35965 2.05583 4.19132 2.12312 3.99104 2.12312H2.12812V3.98604C2.12812 4.18632 2.05958 4.35465 1.9225 4.49104C1.78542 4.62743 1.61618 4.69562 1.41479 4.69562C1.2134 4.69562 1.04542 4.62743 0.910833 4.49104C0.776111 4.35465 0.70875 4.18632 0.70875 3.98604V2.12312C0.70875 1.73979 0.849514 1.40743 1.13104 1.12604C1.41243 0.844513 1.74479 0.70375 2.12812 0.70375Z"/>
</mask>
<path d="M1.13104 18.869L2.19196 17.8086L2.19144 17.808L1.13104 18.869ZM1.92625 15.504L2.99395 14.4504L2.99341 14.4498L1.92625 15.504ZM2.12812 17.8719H0.628125V19.3719H2.12812V17.8719ZM4.49604 19.0892L3.44247 18.0215L3.44192 18.022L4.49604 19.0892ZM15.509 18.0737L14.4554 17.006L14.4548 17.0066L15.509 18.0737ZM17.8769 17.8719V19.3719H19.3769V17.8719H17.8769ZM19.0942 15.504L18.0265 16.5575L18.027 16.5581L19.0942 15.504ZM18.874 18.869L17.8136 17.808L17.813 17.8086L18.874 18.869ZM5.80354 14.2167L6.6063 12.9496L6.60624 12.9495L5.80354 14.2167ZM2.77437 10.9121L4.09478 10.2004L4.08531 10.1828L4.07537 10.1655L2.77437 10.9121ZM2.61146 9.53083L4.07136 9.87535L4.07143 9.87505L2.61146 9.53083ZM2.77437 9.08792L1.45106 8.38163L1.44484 8.39329L1.43882 8.40506L2.77437 9.08792ZM17.2048 9.08292L15.8815 9.7892L15.8887 9.80276L15.8962 9.81617L17.2048 9.08292ZM17.1998 10.9171L15.8879 10.1898L15.8829 10.1988L15.8781 10.2078L17.1998 10.9171ZM13.5708 12.9462L12.7509 11.6902L12.7508 11.6902L13.5708 12.9462ZM16.115 9.9975L17.4712 10.6383L17.774 9.9975L17.4712 9.3567L16.115 9.9975ZM3.86417 9.9975L2.50793 9.3567L2.20516 9.9975L2.50793 10.6383L3.86417 9.9975ZM6.39479 12.9462L7.21949 11.6933L7.21938 11.6932L6.39479 12.9462ZM8.05667 11.9569L6.99504 13.0166L6.99518 13.0167L8.05667 11.9569ZM8.99479 11.0025L7.93038 12.0594L7.93065 12.0597L8.99479 11.0025ZM11.0106 8.98292L9.95181 10.0454L9.95207 10.0457L11.0106 8.98292ZM18.0787 4.49104L17.011 5.54461L17.0116 5.54516L18.0787 4.49104ZM17.8769 2.12312H19.3769V0.623124H17.8769V2.12312ZM15.509 0.905833L16.5625 1.97354L16.5631 1.97299L15.509 0.905833ZM18.874 1.12604L17.813 2.18644L17.8136 2.18696L18.874 1.12604ZM4.49604 1.92125L5.54961 2.98895L5.55016 2.98841L4.49604 1.92125ZM2.12812 2.12312V0.623124H0.628125V2.12312H2.12812ZM0.910833 4.49104L1.97854 3.43747L1.97799 3.43692L0.910833 4.49104ZM1.13104 1.12604L2.19144 2.18696L2.19196 2.18644L1.13104 1.12604ZM2.12812 19.2912V17.7912C2.12453 17.7912 2.12904 17.791 2.13966 17.7931C2.15049 17.7952 2.16332 17.7989 2.17634 17.8044C2.18928 17.8099 2.19799 17.8153 2.2019 17.818C2.20555 17.8205 2.20198 17.8186 2.19196 17.8086L1.13104 18.869L0.0701197 19.9294C0.620787 20.4803 1.33011 20.7912 2.12812 20.7912V19.2912ZM1.13104 18.869L2.19144 17.808C2.18142 17.798 2.17952 17.7944 2.18203 17.7981C2.18472 17.802 2.19007 17.8107 2.19555 17.8237C2.20107 17.8367 2.20481 17.8495 2.20695 17.8603C2.20903 17.871 2.20875 17.8755 2.20875 17.8719H0.70875H-0.79125C-0.79125 18.6699 -0.480295 19.3792 0.0706431 19.9299L1.13104 18.869ZM0.70875 17.8719H2.20875V16.009H0.70875H-0.79125V17.8719H0.70875ZM0.70875 16.009H2.20875C2.20875 16.0829 2.19539 16.1852 2.14941 16.2982C2.10299 16.4122 2.03724 16.5027 1.97234 16.5673L0.914375 15.504L-0.143588 14.4406C-0.57472 14.8696 -0.79125 15.4255 -0.79125 16.009H0.70875ZM0.914375 15.504L1.97234 16.5673C1.90733 16.632 1.81714 16.6965 1.70474 16.7418C1.59355 16.7866 1.49354 16.7994 1.42208 16.7994V15.2994V13.7994C0.842501 13.7994 0.287297 14.0119 -0.143588 14.4406L0.914375 15.504ZM1.42208 15.2994V16.7994C1.35079 16.7994 1.24905 16.7867 1.13515 16.7404C1.01975 16.6936 0.926596 16.6264 0.859089 16.5581L1.92625 15.504L2.99341 14.4498C2.56139 14.0125 2.00192 13.7994 1.42208 13.7994V15.2994ZM1.92625 15.504L0.858546 16.5575C0.793567 16.4917 0.729547 16.4012 0.684823 16.2893C0.640611 16.1787 0.628125 16.0795 0.628125 16.009H2.12812H3.62812C3.62812 15.4341 3.41915 14.8813 2.99395 14.4504L1.92625 15.504ZM2.12812 16.009H0.628125V17.8719H2.12812H3.62812V16.009H2.12812ZM2.12812 17.8719V19.3719H3.99104V17.8719V16.3719H2.12812V17.8719ZM3.99104 17.8719V19.3719C3.91705 19.3719 3.81477 19.3585 3.70183 19.3125C3.58783 19.2661 3.49727 19.2004 3.43269 19.1355L4.49604 18.0775L5.55939 17.0195C5.13044 16.5884 4.57454 16.3719 3.99104 16.3719V17.8719ZM4.49604 18.0775L3.43269 19.1355C3.36801 19.0705 3.30348 18.9803 3.25819 18.8679C3.21338 18.7567 3.20062 18.6567 3.20062 18.5852H4.70062H6.20062C6.20062 18.0056 5.98809 17.4504 5.55939 17.0195L4.49604 18.0775ZM4.70062 18.5852H3.20062C3.20062 18.5139 3.21333 18.4121 3.25963 18.298C3.30655 18.1824 3.37391 18.0891 3.44247 18.0215L4.49604 19.0892L5.54961 20.1569C5.98749 19.7248 6.20062 19.1651 6.20062 18.5852H4.70062ZM4.49604 19.0892L3.44192 18.022C3.5077 17.957 3.59822 17.8929 3.71022 17.8481C3.82095 17.8038 3.92027 17.7912 3.99104 17.7912V19.2912V20.7912C4.56632 20.7912 5.11936 20.5819 5.55016 20.1563L4.49604 19.0892ZM3.99104 19.2912V17.7912H2.12812V19.2912V20.7912H3.99104V19.2912ZM17.8769 19.2912V17.7912H16.014V19.2912V20.7912H17.8769V19.2912ZM16.014 19.2912V17.7912C16.0879 17.7912 16.1902 17.8046 16.3032 17.8506C16.4172 17.897 16.5077 17.9628 16.5723 18.0277L15.509 19.0856L14.4456 20.1436C14.8746 20.5747 15.4305 20.7912 16.014 20.7912V19.2912ZM15.509 19.0856L16.5723 18.0277C16.637 18.0927 16.7015 18.1829 16.7468 18.2953C16.7916 18.4065 16.8044 18.5065 16.8044 18.5779H15.3044H13.8044C13.8044 19.1575 14.0169 19.7127 14.4456 20.1436L15.509 19.0856ZM15.3044 18.5779H16.8044C16.8044 18.6492 16.7917 18.7509 16.7454 18.8648C16.6986 18.9802 16.6314 19.0734 16.5631 19.1409L15.509 18.0737L14.4548 17.0066C14.0175 17.4386 13.8044 17.9981 13.8044 18.5779H15.3044ZM15.509 18.0737L16.5625 19.1415C16.4967 19.2064 16.4062 19.2705 16.2943 19.3152C16.1837 19.3594 16.0845 19.3719 16.014 19.3719V17.8719V16.3719C15.4391 16.3719 14.8863 16.5808 14.4554 17.006L15.509 18.0737ZM16.014 17.8719V19.3719H17.8769V17.8719V16.3719H16.014V17.8719ZM17.8769 17.8719H19.3769V16.009H17.8769H16.3769V17.8719H17.8769ZM17.8769 16.009H19.3769C19.3769 16.0829 19.3635 16.1852 19.3175 16.2982C19.2711 16.4122 19.2054 16.5027 19.1405 16.5673L18.0825 15.504L17.0245 14.4406C16.5934 14.8696 16.3769 15.4255 16.3769 16.009H17.8769ZM18.0825 15.504L19.1405 16.5673C19.0755 16.632 18.9853 16.6965 18.8729 16.7418C18.7617 16.7866 18.6617 16.7994 18.5902 16.7994V15.2994V13.7994C18.0106 13.7994 17.4554 14.0119 17.0245 14.4406L18.0825 15.504ZM18.5902 15.2994V16.7994C18.5189 16.7994 18.4171 16.7867 18.303 16.7404C18.1874 16.6934 18.0941 16.6261 18.0265 16.5575L19.0942 15.504L20.1619 14.4504C19.7298 14.0125 19.1701 13.7994 18.5902 13.7994V15.2994ZM19.0942 15.504L18.027 16.5581C17.962 16.4923 17.8979 16.4018 17.8531 16.2898C17.8088 16.1791 17.7962 16.0797 17.7962 16.009H19.2962H20.7962C20.7962 15.4337 20.5869 14.8806 20.1613 14.4498L19.0942 15.504ZM19.2962 16.009H17.7962V17.8719H19.2962H20.7962V16.009H19.2962ZM19.2962 17.8719H17.7962C17.7962 17.8755 17.796 17.871 17.7981 17.8603C17.8002 17.8495 17.8039 17.8367 17.8094 17.8237C17.8149 17.8107 17.8203 17.802 17.823 17.7981C17.8255 17.7944 17.8236 17.798 17.8136 17.808L18.874 18.869L19.9344 19.9299C20.4853 19.3792 20.7962 18.6699 20.7962 17.8719H19.2962ZM18.874 18.869L17.813 17.8086C17.803 17.8186 17.7994 17.8205 17.8031 17.818C17.807 17.8153 17.8157 17.8099 17.8287 17.8044C17.8417 17.7989 17.8545 17.7952 17.8653 17.7931C17.876 17.791 17.8805 17.7912 17.8769 17.7912V19.2912V20.7912C18.6749 20.7912 19.3842 20.4803 19.9349 19.9294L18.874 18.869ZM9.97771 15.4171V13.9171C8.7375 13.9171 7.6253 13.5951 6.6063 12.9496L5.80354 14.2167L5.00078 15.4838C6.50818 16.4388 8.17875 16.9171 9.97771 16.9171V15.4171ZM5.80354 14.2167L6.60624 12.9495C5.57453 12.296 4.73709 11.392 4.09478 10.2004L2.77437 10.9121L1.45397 11.6238C2.32388 13.2377 3.50588 14.5368 5.00084 15.4838L5.80354 14.2167ZM2.77437 10.9121L4.07537 10.1655C4.07332 10.1619 4.07286 10.1605 4.07304 10.161C4.07322 10.1615 4.07328 10.1618 4.07317 10.1613L2.60625 10.4746L1.13933 10.7879C1.20511 11.0959 1.31783 11.3876 1.47338 11.6587L2.77437 10.9121ZM2.60625 10.4746L4.07317 10.1613C4.06275 10.1125 4.05708 10.0611 4.05708 10.005H2.55708H1.05708C1.05708 10.2681 1.08419 10.5297 1.13933 10.7879L2.60625 10.4746ZM2.55708 10.005H4.05708C4.05708 9.95506 4.06253 9.91276 4.07136 9.87535L2.61146 9.53083L1.15156 9.18632C1.08789 9.45613 1.05708 9.72994 1.05708 10.005H2.55708ZM2.61146 9.53083L4.07143 9.87505C4.07981 9.83951 4.09217 9.80551 4.10993 9.77077L2.77437 9.08792L1.43882 8.40506C1.31186 8.65338 1.21561 8.91465 1.15149 9.18661L2.61146 9.53083ZM2.77437 9.08792L4.09769 9.7942C4.74134 8.58825 5.57839 7.67895 6.60583 7.02596L5.80125 5.76L4.99667 4.49404C3.5005 5.44494 2.31964 6.75425 1.45106 8.38163L2.77437 9.08792ZM5.80125 5.76L6.60583 7.02596C7.62289 6.37956 8.73395 6.05708 9.97417 6.05708V4.55708V3.05708C8.1741 3.05708 6.50322 3.53655 4.99667 4.49404L5.80125 5.76ZM9.97417 4.55708V6.05708C11.2151 6.05708 12.3338 6.37919 13.3638 7.02715L14.1625 5.7575L14.9612 4.48785C13.447 3.53525 11.7735 3.05708 9.97417 3.05708V4.55708ZM14.1625 5.7575L13.3638 7.02715C14.3998 7.67894 15.2395 8.58644 15.8815 9.7892L17.2048 9.08292L18.5281 8.37663C17.6578 6.74606 16.4694 5.43661 14.9612 4.48785L14.1625 5.7575ZM17.2048 9.08292L15.8962 9.81617C15.9052 9.8321 15.9087 9.84311 15.9109 9.85283L17.3754 9.52854L18.8399 9.20425C18.7732 8.90286 18.663 8.61679 18.5134 8.34966L17.2048 9.08292ZM17.3754 9.52854L15.9109 9.85283C15.9223 9.90458 15.9271 9.95136 15.9271 9.995H17.4271H18.9271C18.9271 9.72781 18.8974 9.46361 18.8399 9.20425L17.3754 9.52854ZM17.4271 9.995H15.9271C15.9271 10.0335 15.9227 10.0782 15.9106 10.1313L17.3729 10.4654L18.8352 10.7995C18.8953 10.5365 18.9271 10.2676 18.9271 9.995H17.4271ZM17.3729 10.4654L15.9106 10.1313C15.9062 10.1507 15.8994 10.169 15.8879 10.1898L17.1998 10.9171L18.5117 11.6444C18.6588 11.3791 18.7674 11.0963 18.8352 10.7995L17.3729 10.4654ZM17.1998 10.9171L15.8781 10.2078C15.2406 11.3957 14.4034 12.2972 13.3658 12.949L14.1637 14.2192L14.9617 15.4893C16.4666 14.5439 17.6534 13.244 18.5215 11.6264L17.1998 10.9171ZM14.1637 14.2192L13.3658 12.949C12.3367 13.5955 11.2185 13.9171 9.97771 13.9171V15.4171V16.9171C11.7758 16.9171 13.4483 16.44 14.9617 15.4893L14.1637 14.2192ZM9.97604 14.0327V15.5327C11.5633 15.5327 13.0451 15.0808 14.3908 14.2023L13.5708 12.9462L12.7508 11.6902C11.8777 12.2603 10.963 12.5327 9.97604 12.5327V14.0327ZM13.5708 12.9462L14.3907 14.2023C15.7411 13.3209 16.7706 12.1211 17.4712 10.6383L16.115 9.9975L14.7588 9.3567C14.286 10.3573 13.6194 11.1233 12.7509 11.6902L13.5708 12.9462ZM16.115 9.9975L17.4712 9.3567C16.7713 7.87523 15.7437 6.67373 14.3971 5.78598L13.5715 7.03833L12.7459 8.29069C13.6173 8.86515 14.2854 9.63644 14.7588 10.6383L16.115 9.9975ZM13.5715 7.03833L14.3971 5.78598C13.0509 4.89852 11.5661 4.44167 9.97417 4.44167V5.94167V7.44167C10.9605 7.44167 11.874 7.71592 12.7459 8.29069L13.5715 7.03833ZM9.97417 5.94167V4.44167C8.38387 4.44167 6.90297 4.89906 5.56386 5.78909L6.39417 7.03833L7.22447 8.28757C8.08536 7.71539 8.99113 7.44167 9.97417 7.44167V5.94167ZM6.39417 7.03833L5.56386 5.78909C4.22716 6.67753 3.2064 7.8784 2.50793 9.3567L3.86417 9.9975L5.2204 10.6383C5.69526 9.63326 6.36118 8.86136 7.22447 8.28757L6.39417 7.03833ZM3.86417 9.9975L2.50793 10.6383C3.20701 12.1179 4.2297 13.3171 5.5702 14.1993L6.39479 12.9462L7.21938 11.6932C6.35905 11.1271 5.69465 10.3604 5.2204 9.3567L3.86417 9.9975ZM6.39479 12.9462L5.57009 14.1992C6.90925 15.0806 8.38859 15.5327 9.97604 15.5327V14.0327V12.5327C8.98933 12.5327 8.08117 12.2605 7.21949 11.6933L6.39479 12.9462ZM9.99958 12.76V14.26C11.1637 14.26 12.1999 13.8322 13.0276 13.0143L11.9733 11.9473L10.919 10.8803C10.6501 11.146 10.3704 11.26 9.99958 11.26V12.76ZM11.9733 11.9473L13.0276 13.0143C13.8563 12.1954 14.2958 11.1625 14.2958 9.99542H12.7958H11.2958C11.2958 10.3472 11.187 10.6155 10.919 10.8803L11.9733 11.9473ZM12.7958 9.99542H14.2958C14.2958 8.82949 13.8579 7.79696 13.0338 6.97543L11.9748 8.03771L10.9157 9.09998C11.1864 9.36984 11.2958 9.64245 11.2958 9.99542H12.7958ZM11.9748 8.03771L13.0338 6.97543C12.2059 6.14999 11.1658 5.71917 9.99646 5.71917V7.21917V8.71917C10.3702 8.71917 10.649 8.83404 10.9157 9.09998L11.9748 8.03771ZM9.99646 7.21917V5.71917C8.83267 5.71917 7.79765 6.1491 6.98158 6.98052L8.05208 8.03125L9.12258 9.08198C9.36929 8.83063 9.63052 8.71917 9.99646 8.71917V7.21917ZM8.05208 8.03125L6.98158 6.98052C6.17026 7.80711 5.755 8.84211 5.755 9.99854H7.255H8.755C8.755 9.61469 8.87112 9.33817 9.12258 9.08198L8.05208 8.03125ZM7.255 9.99854H5.755C5.755 11.158 6.17426 12.1943 6.99504 13.0166L8.05667 11.9569L9.11829 10.8972C8.87018 10.6486 8.755 10.3794 8.755 9.99854H7.255ZM8.05667 11.9569L6.99518 13.0167C7.81284 13.8356 8.84308 14.26 9.99958 14.26V12.76V11.26C9.63469 11.26 9.36966 11.1489 9.11815 10.897L8.05667 11.9569ZM9.99646 11.4152V9.91521C9.9853 9.91521 9.98397 9.91426 9.99038 9.91548C9.99708 9.91674 10.0082 9.9196 10.0216 9.92514C10.0351 9.93069 10.0463 9.93704 10.0543 9.94248C10.0621 9.94776 10.0634 9.94987 10.0589 9.94534L8.99479 11.0025L7.93065 12.0597C8.49091 12.6236 9.21013 12.9152 9.99646 12.9152V11.4152ZM8.99479 11.0025L10.0592 9.94561C10.054 9.94039 10.0554 9.94092 10.06 9.94777C10.0648 9.95483 10.0706 9.9651 10.0757 9.97765C10.0808 9.99017 10.0835 10.0005 10.0846 10.0067C10.0857 10.0125 10.0848 10.0109 10.0848 9.99979H8.58479H7.08479C7.08479 10.7829 7.37382 11.4989 7.93038 12.0594L8.99479 11.0025ZM8.58479 9.99979H10.0848C10.0848 9.98854 10.0857 9.98612 10.0849 9.99063C10.084 9.9954 10.0819 10.0038 10.0778 10.0139C10.0737 10.024 10.0694 10.0316 10.0665 10.036C10.0638 10.0401 10.0645 10.0381 10.0719 10.0304L8.99437 8.98687L7.91687 7.94334C7.37218 8.50575 7.08479 9.21788 7.08479 9.99979H8.58479ZM8.99437 8.98687L10.0719 10.0304C10.077 10.0252 10.0759 10.0272 10.0679 10.0328C10.0596 10.0385 10.0476 10.0455 10.0328 10.0518C10.018 10.058 10.0052 10.0615 9.99654 10.0632C9.9882 10.0648 9.98766 10.064 9.99708 10.064V8.56396V7.06396C9.19893 7.06396 8.47485 7.36719 7.91687 7.94334L8.99437 8.98687ZM9.99708 8.56396V10.064C10.0073 10.064 10.0084 10.0648 10.0022 10.0637C9.9958 10.0624 9.98575 10.0598 9.97402 10.0549C9.96228 10.0501 9.95335 10.0449 9.94804 10.0413C9.94295 10.0378 9.94442 10.0381 9.95181 10.0454L11.0106 8.98292L12.0694 7.92041C11.5082 7.36114 10.7897 7.06396 9.99708 7.06396V8.56396ZM11.0106 8.98292L9.95207 10.0457C9.95869 10.0523 9.95829 10.053 9.95436 10.0472C9.95028 10.0412 9.94485 10.0318 9.93991 10.0199C9.93498 10.0079 9.93243 9.99805 9.93132 9.99222C9.93027 9.98668 9.93125 9.98865 9.93125 10.0002H11.4312H12.9312C12.9312 9.20599 12.6347 8.48341 12.0692 7.92015L11.0106 8.98292ZM11.4312 10.0002H9.93125C9.93125 10.0096 9.93045 10.0093 9.93193 10.0016C9.93347 9.9936 9.93666 9.98168 9.94241 9.96793C9.94815 9.95417 9.95451 9.94321 9.95951 9.93593C9.96435 9.92889 9.96564 9.92859 9.95979 9.93437L11.0127 11.0027L12.0656 12.0711C12.632 11.5129 12.9312 10.7933 12.9312 10.0002H11.4312ZM11.0127 11.0027L9.95979 9.93437C9.95386 9.94021 9.95351 9.93956 9.95928 9.93571C9.96525 9.93172 9.97422 9.92668 9.98522 9.92222C9.99619 9.91776 10.0048 9.91565 10.0091 9.91485C10.0131 9.91411 10.0095 9.91521 9.99646 9.91521V11.4152V12.9152C10.7814 12.9152 11.5006 12.6279 12.0656 12.0711L11.0127 11.0027ZM19.2962 2.12312H17.7962V3.98604H19.2962H20.7962V2.12312H19.2962ZM19.2962 3.98604H17.7962C17.7962 3.91205 17.8096 3.80977 17.8556 3.69683C17.902 3.58283 17.9678 3.49227 18.0327 3.42769L19.0906 4.49104L20.1486 5.55439C20.5797 5.12544 20.7962 4.56954 20.7962 3.98604H19.2962ZM19.0906 4.49104L18.0327 3.42769C18.0977 3.36301 18.1879 3.29848 18.3003 3.25319C18.4114 3.20838 18.5115 3.19562 18.5829 3.19562V4.69562V6.19563C19.1625 6.19563 19.7177 5.98309 20.1486 5.55439L19.0906 4.49104ZM18.5829 4.69562V3.19562C18.6542 3.19562 18.7559 3.20834 18.8698 3.25455C18.9852 3.30138 19.0784 3.36858 19.1459 3.43692L18.0787 4.49104L17.0116 5.54516C17.4436 5.98252 18.0031 6.19563 18.5829 6.19563V4.69562ZM18.0787 4.49104L19.1465 3.43747C19.2114 3.50332 19.2755 3.59383 19.3202 3.70571C19.3644 3.81631 19.3769 3.91546 19.3769 3.98604H17.8769H16.3769C16.3769 4.56085 16.5858 5.1137 17.011 5.54461L18.0787 4.49104ZM17.8769 3.98604H19.3769V2.12312H17.8769H16.3769V3.98604H17.8769ZM17.8769 2.12312V0.623124H16.014V2.12312V3.62312H17.8769V2.12312ZM16.014 2.12312V0.623124C16.0879 0.623124 16.1902 0.636481 16.3032 0.682468C16.4172 0.728887 16.5077 0.794629 16.5723 0.859536L15.509 1.9175L14.4456 2.97546C14.8746 3.40659 15.4305 3.62312 16.014 3.62312V2.12312ZM15.509 1.9175L16.5723 0.859536C16.637 0.924544 16.7015 1.01474 16.7468 1.12713C16.7916 1.23833 16.8044 1.33833 16.8044 1.40979H15.3044H13.8044C13.8044 1.98937 14.0169 2.54458 14.4456 2.97546L15.509 1.9175ZM15.3044 1.40979H16.8044C16.8044 1.48108 16.7917 1.58291 16.7454 1.69697C16.6984 1.81255 16.6311 1.90588 16.5625 1.97354L15.509 0.905833L14.4554 -0.161871C14.0175 0.270211 13.8044 0.829944 13.8044 1.40979H15.3044ZM15.509 0.905833L16.5631 1.97299C16.4973 2.03797 16.4068 2.10209 16.2948 2.14691C16.1841 2.19122 16.0847 2.20375 16.014 2.20375V0.70375V-0.79625C15.4387 -0.79625 14.8856 -0.586868 14.4548 -0.161328L15.509 0.905833ZM16.014 0.70375V2.20375H17.8769V0.70375V-0.79625H16.014V0.70375ZM17.8769 0.70375V2.20375C17.8805 2.20375 17.876 2.20403 17.8653 2.20195C17.8545 2.19982 17.8417 2.19607 17.8287 2.19055C17.8157 2.18507 17.807 2.17972 17.8031 2.17703C17.7994 2.17452 17.803 2.17642 17.813 2.18644L18.874 1.12604L19.9349 0.0656428C19.3842 -0.485296 18.6749 -0.79625 17.8769 -0.79625V0.70375ZM18.874 1.12604L17.8136 2.18696C17.8236 2.19698 17.8255 2.20055 17.823 2.1969C17.8203 2.19299 17.8149 2.18428 17.8094 2.17134C17.8039 2.15832 17.8002 2.14549 17.7981 2.13466C17.796 2.12404 17.7962 2.11953 17.7962 2.12312H19.2962H20.7962C20.7962 1.32511 20.4853 0.615786 19.9344 0.0651194L18.874 1.12604ZM2.12812 0.70375V2.20375H3.99104V0.70375V-0.79625H2.12812V0.70375ZM3.99104 0.70375V2.20375C3.91705 2.20375 3.81477 2.19039 3.70183 2.14441C3.58783 2.09799 3.49727 2.03225 3.43269 1.96734L4.49604 0.909375L5.55939 -0.148588C5.13044 -0.57972 4.57454 -0.79625 3.99104 -0.79625V0.70375ZM4.49604 0.909375L3.43269 1.96734C3.36801 1.90233 3.30348 1.81214 3.25819 1.69974C3.21338 1.58855 3.20062 1.48854 3.20062 1.41708H4.70062H6.20062C6.20062 0.837501 5.98809 0.282298 5.55939 -0.148588L4.49604 0.909375ZM4.70062 1.41708H3.20062C3.20062 1.34579 3.21334 1.24405 3.25955 1.13015C3.30638 1.01475 3.37358 0.921594 3.44192 0.854089L4.49604 1.92125L5.55016 2.98841C5.98752 2.55639 6.20062 1.99692 6.20062 1.41708H4.70062ZM4.49604 1.92125L3.44247 0.853545C3.50832 0.788567 3.59883 0.724546 3.71071 0.679822C3.82131 0.635611 3.92046 0.623124 3.99104 0.623124V2.12312V3.62312C4.56585 3.62312 5.1187 3.41415 5.54961 2.98895L4.49604 1.92125ZM3.99104 2.12312V0.623124H2.12812V2.12312V3.62312H3.99104V2.12312ZM2.12812 2.12312H0.628125V3.98604H2.12812H3.62812V2.12312H2.12812ZM2.12812 3.98604H0.628125C0.628125 3.91205 0.641481 3.80977 0.687469 3.69683C0.733888 3.58283 0.79963 3.49227 0.864536 3.42769L1.9225 4.49104L2.98046 5.55439C3.41159 5.12544 3.62812 4.56954 3.62812 3.98604H2.12812ZM1.9225 4.49104L0.864536 3.42769C0.929544 3.36301 1.01974 3.29848 1.13213 3.25319C1.24333 3.20838 1.34333 3.19562 1.41479 3.19562V4.69562V6.19563C1.99437 6.19563 2.54958 5.98309 2.98046 5.55439L1.9225 4.49104ZM1.41479 4.69562V3.19562C1.48608 3.19562 1.58791 3.20833 1.70197 3.25464C1.81755 3.30156 1.91088 3.36891 1.97854 3.43747L0.910833 4.49104L-0.156871 5.54461C0.275212 5.98249 0.834944 6.19563 1.41479 6.19563V4.69562ZM0.910833 4.49104L1.97799 3.43692C2.04297 3.5027 2.10709 3.59321 2.15191 3.70522C2.19622 3.81594 2.20875 3.91527 2.20875 3.98604H0.70875H-0.79125C-0.79125 4.56133 -0.581864 5.11436 -0.156327 5.54516L0.910833 4.49104ZM0.70875 3.98604H2.20875V2.12312H0.70875H-0.79125V3.98604H0.70875ZM0.70875 2.12312H2.20875C2.20875 2.11953 2.20903 2.12405 2.20695 2.13466C2.20481 2.14549 2.20107 2.15832 2.19555 2.17134C2.19007 2.18428 2.18472 2.19299 2.18203 2.1969C2.17952 2.20055 2.18142 2.19698 2.19144 2.18696L1.13104 1.12604L0.0706431 0.0651194C-0.480294 0.615784 -0.79125 1.32511 -0.79125 2.12312H0.70875ZM1.13104 1.12604L2.19196 2.18644C2.20198 2.17642 2.20555 2.17452 2.2019 2.17703C2.19799 2.17972 2.18928 2.18507 2.17634 2.19055C2.16332 2.19607 2.15049 2.19982 2.13966 2.20195C2.12904 2.20403 2.12453 2.20375 2.12812 2.20375V0.70375V-0.79625C1.33011 -0.79625 0.620787 -0.485296 0.0701197 0.0656428L1.13104 1.12604Z" fill="var(--stroke-0, #1E729C)" mask="url(#path-1-inside-1_0_573)"/>
</g>
</g>
</svg>
