<svg preserveAspectRatio="none" width="100%" height="100%" overflow="visible" style="display: block;" viewBox="0 0 48 48" fill="none" xmlns="http://www.w3.org/2000/svg">
<g id="factory">
<path id="Vector" d="M24 32H24.02M32 32H32.02M16 32H16.02M6 38C6 39.0609 6.42143 40.0783 7.17157 40.8284C7.92172 41.5786 8.93913 42 10 42H38C39.0609 42 40.0783 41.5786 40.8284 40.8284C41.5786 40.0783 42 39.0609 42 38V17C42.0002 16.8206 41.9521 16.6445 41.8608 16.49C41.7695 16.3356 41.6384 16.2086 41.4811 16.1223C41.3238 16.036 41.1462 15.9936 40.9669 15.9995C40.7876 16.0054 40.6132 16.0595 40.462 16.156L31.538 21.844C31.3868 21.9405 31.2124 21.9946 31.0331 22.0005C30.8538 22.0064 30.6762 21.964 30.5189 21.8777C30.3616 21.7914 30.2305 21.6644 30.1392 21.51C30.0479 21.3555 29.9998 21.1794 30 21V17C30.0002 16.8206 29.9521 16.6445 29.8608 16.49C29.7695 16.3356 29.6384 16.2086 29.4811 16.1223C29.3238 16.036 29.1462 15.9936 28.9669 15.9995C28.7876 16.0054 28.6132 16.0595 28.462 16.156L19.54 21.844C19.3887 21.941 19.2141 21.9955 19.0345 22.0017C18.8549 22.0079 18.677 21.9656 18.5194 21.8793C18.3618 21.7929 18.2304 21.6657 18.139 21.5109C18.0476 21.3562 17.9996 21.1797 18 21V10C18 8.93913 17.5786 7.92172 16.8284 7.17157C16.0783 6.42143 15.0609 6 14 6H10C8.93913 6 7.92172 6.42143 7.17157 7.17157C6.42143 7.92172 6 8.93913 6 10V38Z" stroke="var(--stroke-0, #2DA2DB)" stroke-width="3" stroke-linecap="round" stroke-linejoin="round"/>
</g>
</svg>
