<svg preserveAspectRatio="none" width="100%" height="100%" overflow="visible" style="display: block;" viewBox="0 0 20 20" fill="none" xmlns="http://www.w3.org/2000/svg">
<g id="leaf">
<path id="Vector" d="M1.66667 17.5C1.66667 15 3.20833 13.0333 5.9 12.5C7.91667 12.1 10 10.8333 10.8333 10M9.16665 16.6667C7.70337 16.6711 6.29186 16.1254 5.21208 15.1378C4.1323 14.1503 3.46312 12.793 3.33726 11.3351C3.2114 9.87722 3.63806 8.4253 4.53261 7.26728C5.42716 6.10927 6.72426 5.32975 8.16665 5.08333C12.9166 4.16667 14.1666 3.73333 15.8333 1.66667C16.6666 3.33333 17.5 5.15 17.5 8.33333C17.5 12.9167 13.5166 16.6667 9.16665 16.6667Z" stroke="var(--stroke-0, #1E729C)" stroke-width="1.5" stroke-linecap="round" stroke-linejoin="round"/>
</g>
</svg>
