<svg preserveAspectRatio="none" width="100%" height="100%" overflow="visible" style="display: block;" viewBox="0 0 20 20" fill="none" xmlns="http://www.w3.org/2000/svg">
<g id="personal_injury">
<g id="Vector">
<mask id="path-1-inside-1_0_517" fill="white">
<path d="M10 8.00146C9.0468 8.00146 8.26694 7.69764 7.66042 7.09C7.05375 6.4825 6.75042 5.70347 6.75042 4.75292C6.75042 3.79903 7.05368 3.01875 7.66021 2.41208C8.26674 1.80556 9.04583 1.50229 9.9975 1.50229C10.9524 1.50229 11.7339 1.80556 12.3421 2.41208C12.9504 3.01875 13.2546 3.79819 13.2546 4.75042C13.2546 5.70264 12.9504 6.4825 12.3421 7.09C11.7339 7.69764 10.9532 8.00146 10 8.00146ZM9.99917 6.58187C10.5314 6.58187 10.9697 6.40931 11.314 6.06417C11.6581 5.71889 11.8302 5.28174 11.8302 4.75271C11.8302 4.22035 11.6584 3.78208 11.3148 3.43792C10.971 3.09375 10.5339 2.92167 10.0033 2.92167C9.47278 2.92167 9.03451 3.09375 8.68854 3.43792C8.34271 3.78208 8.16979 4.21951 8.16979 4.75021C8.16979 5.28076 8.34243 5.71868 8.68771 6.06396C9.03285 6.40924 9.47 6.58187 9.99917 6.58187ZM10.0012 9.45979C11.0378 9.45979 11.9982 9.58917 12.8825 9.84792C13.7667 10.1068 14.5672 10.3974 15.284 10.7196C15.7415 10.9244 16.1079 11.2234 16.3833 11.6165C16.6586 12.0095 16.7962 12.4816 16.7962 13.0327V17.0833C16.7962 17.4667 16.655 17.799 16.3725 18.0804C16.0901 18.3619 15.7566 18.5027 15.3719 18.5027H8.17979C7.57535 18.5027 7.06292 18.2922 6.6425 17.8713C6.22208 17.4503 6.01187 16.9372 6.01187 16.3321C6.01187 15.7269 6.22208 15.2147 6.6425 14.7954C7.06292 14.3763 7.57535 14.1667 8.17979 14.1667H10.6131L12.0085 11.0775C11.6641 11.0114 11.3223 10.9626 10.9831 10.9313C10.6441 10.8999 10.3155 10.8842 9.99729 10.8842C9.00743 10.8842 8.12472 10.9954 7.34917 11.2179C6.57347 11.4404 5.88833 11.6955 5.29375 11.9831C5.10333 12.081 4.94479 12.2285 4.81812 12.4256C4.69146 12.6226 4.62812 12.8315 4.62812 13.0525V17.7931C4.62812 17.9934 4.55958 18.1617 4.4225 18.2981C4.28542 18.4345 4.11618 18.5027 3.91479 18.5027C3.7134 18.5027 3.54542 18.4345 3.41083 18.2981C3.27611 18.1617 3.20875 17.9934 3.20875 17.7931V13.0327C3.20875 12.4816 3.34597 12.0097 3.62042 11.6171C3.89486 11.2243 4.25312 10.9245 4.69521 10.7177C5.40354 10.3995 6.20583 10.1103 7.10208 9.85C7.99833 9.58986 8.96472 9.45979 10.0012 9.45979ZM8.17979 17.1381H9.21021L9.96604 15.5313H8.17979C7.96826 15.5313 7.78146 15.6124 7.61937 15.7746C7.45743 15.9367 7.37646 16.1244 7.37646 16.3379C7.37646 16.5514 7.45743 16.7381 7.61937 16.8981C7.78146 17.0581 7.96826 17.1381 8.17979 17.1381ZM10.7596 17.0833H15.3719V13.0525C15.3719 12.8315 15.3059 12.6229 15.174 12.4267C15.042 12.2303 14.8788 12.0828 14.6844 11.9842C14.527 11.9031 14.3371 11.8192 14.1146 11.7325C13.8921 11.6457 13.638 11.5484 13.3523 11.4406L10.7596 17.0833Z"/>
</mask>
<path d="M7.66042 7.09L8.72205 6.03031L8.7218 6.03007L7.66042 7.09ZM7.66021 2.41208L6.59955 1.35142L6.59943 1.35155L7.66021 2.41208ZM12.3421 2.41208L13.4013 1.34997V1.34997L12.3421 2.41208ZM12.3421 7.09L11.2821 6.02861L11.2819 6.02886L12.3421 7.09ZM11.314 6.06417L12.3759 7.12354L12.3763 7.12312L11.314 6.06417ZM11.3148 3.43792L12.3763 2.37811L12.3761 2.3779L11.3148 3.43792ZM8.68854 3.43792L7.63066 2.37449L7.63045 2.3747L8.68854 3.43792ZM8.68771 6.06396L9.74858 5.00351L9.74837 5.0033L8.68771 6.06396ZM12.8825 9.84792L13.304 8.40836L13.3037 8.40828L12.8825 9.84792ZM15.284 10.7196L14.6689 12.0877L14.6709 12.0886L15.284 10.7196ZM16.3833 11.6165L17.612 10.756L17.6118 10.7557L16.3833 11.6165ZM16.3725 18.0804L15.3139 17.0177L15.3134 17.0182L16.3725 18.0804ZM6.6425 14.7954L5.58342 13.7332L5.58324 13.7334L6.6425 14.7954ZM10.6131 14.1667V15.6667H11.5815L11.9801 14.7842L10.6131 14.1667ZM12.0085 11.0775L13.3755 11.695L14.158 9.96269L12.2913 9.60439L12.0085 11.0775ZM10.9831 10.9313L10.8448 12.4249L10.8449 12.4249L10.9831 10.9313ZM7.34917 11.2179L7.76275 12.6598L7.76282 12.6598L7.34917 11.2179ZM5.29375 11.9831L4.64052 10.6328L4.62406 10.6408L4.60779 10.6492L5.29375 11.9831ZM4.81812 12.4256L6.07972 13.237L6.07998 13.2366L4.81812 12.4256ZM3.41083 18.2981L4.47854 17.2446L4.47799 17.244L3.41083 18.2981ZM3.62042 11.6171L4.84986 12.4764L4.85 12.4762L3.62042 11.6171ZM4.69521 10.7177L4.08055 9.34943L4.07005 9.35414L4.05962 9.35902L4.69521 10.7177ZM7.10208 9.85L6.68396 8.40945L6.68375 8.40951L7.10208 9.85ZM9.21021 17.1381V18.6381H10.1623L10.5675 17.7766L9.21021 17.1381ZM9.96604 15.5313L11.3234 16.1697L12.3293 14.0313H9.96604V15.5313ZM7.61937 15.7746L6.55826 14.7144H6.55826L7.61937 15.7746ZM7.61937 16.8981L6.56514 17.9652L6.5656 17.9656L7.61937 16.8981ZM10.7596 17.0833L9.39658 16.4571L8.4196 18.5833H10.7596V17.0833ZM15.3719 17.0833V18.5833H16.8719V17.0833H15.3719ZM15.174 12.4267L13.9289 13.2632L13.9291 13.2636L15.174 12.4267ZM14.6844 11.9842L13.9971 13.3175L14.0059 13.322L14.6844 11.9842ZM14.1146 11.7325L13.5694 13.1299L13.5702 13.1302L14.1146 11.7325ZM13.3523 11.4406L13.8817 10.0372L12.5732 9.54353L11.9893 10.8144L13.3523 11.4406ZM10 8.00146V6.50146C9.39698 6.50146 9.01492 6.32372 8.72205 6.03031L7.66042 7.09L6.59879 8.14969C7.51897 9.07156 8.69663 9.50146 10 9.50146V8.00146ZM7.66042 7.09L8.7218 6.03007C8.42736 5.73522 8.25042 5.35271 8.25042 4.75292H6.75042H5.25042C5.25042 6.05424 5.68014 7.22978 6.59903 8.14993L7.66042 7.09ZM6.75042 4.75292H8.25042C8.25042 4.14803 8.42839 3.76529 8.72099 3.47262L7.66021 2.41208L6.59943 1.35155C5.67897 2.27221 5.25042 3.45003 5.25042 4.75292H6.75042ZM7.66021 2.41208L8.72087 3.47274C9.01405 3.17957 9.39593 3.00229 9.9975 3.00229V1.50229V0.0022912C8.69574 0.0022912 7.51942 0.431547 6.59955 1.35142L7.66021 2.41208ZM9.9975 1.50229V3.00229C10.6038 3.00229 10.9885 3.1806 11.2829 3.4742L12.3421 2.41208L13.4013 1.34997C12.4793 0.430508 11.3009 0.0022912 9.9975 0.0022912V1.50229ZM12.3421 2.41208L11.2829 3.4742C11.5772 3.76768 11.7546 4.14937 11.7546 4.75042H13.2546H14.7546C14.7546 3.44702 14.3237 2.26983 13.4013 1.34997L12.3421 2.41208ZM13.2546 4.75042H11.7546C11.7546 5.35144 11.5771 5.73403 11.2821 6.02861L12.3421 7.09L13.402 8.15139C14.3237 7.23098 14.7546 6.05384 14.7546 4.75042H13.2546ZM12.3421 7.09L11.2819 6.02886C10.9868 6.32368 10.603 6.50146 10 6.50146V8.00146V9.50146C11.3034 9.50146 12.481 9.07159 13.4023 8.15114L12.3421 7.09ZM9.99917 6.58187V8.08187C10.8896 8.08187 11.723 7.77805 12.3759 7.12354L11.314 6.06417L10.252 5.00479C10.2163 5.04057 10.1732 5.08187 9.99917 5.08187V6.58187ZM11.314 6.06417L12.3763 7.12312C13.026 6.47134 13.3302 5.64146 13.3302 4.75271H11.8302H10.3302C10.3302 4.92202 10.2902 4.96644 10.2516 5.00522L11.314 6.06417ZM11.8302 4.75271H13.3302C13.3302 3.86431 13.0286 3.0315 12.3763 2.37811L11.3148 3.43792L10.2533 4.49772C10.2882 4.53267 10.3302 4.57638 10.3302 4.75271H11.8302ZM11.3148 3.43792L12.3761 2.3779C11.7241 1.72508 10.8922 1.42167 10.0033 1.42167V2.92167V4.42167C10.1755 4.42167 10.218 4.46242 10.2535 4.49793L11.3148 3.43792ZM10.0033 2.92167V1.42167C9.11439 1.42167 8.2836 1.72496 7.63066 2.37449L8.68854 3.43792L9.74642 4.50135C9.78543 4.46254 9.83117 4.42167 10.0033 4.42167V2.92167ZM8.68854 3.43792L7.63045 2.3747C6.9755 3.02649 6.66979 3.85904 6.66979 4.75021H8.16979H9.66979C9.66979 4.57999 9.70991 4.53768 9.74664 4.50114L8.68854 3.43792ZM8.16979 4.75021H6.66979C6.66979 5.64063 6.97472 6.47229 7.62705 7.12462L8.68771 6.06396L9.74837 5.0033C9.71014 4.96507 9.66979 4.9209 9.66979 4.75021H8.16979ZM8.68771 6.06396L7.62683 7.12441C8.27831 7.77615 9.10891 8.08187 9.99917 8.08187V6.58187V5.08187C9.83109 5.08187 9.78738 5.04233 9.74858 5.00351L8.68771 6.06396ZM10.0012 9.45979V10.9598C10.9127 10.9598 11.7296 11.0735 12.4613 11.2876L12.8825 9.84792L13.3037 8.40828C12.2667 8.10485 11.1628 7.95979 10.0012 7.95979V9.45979ZM12.8825 9.84792L12.461 11.2875C13.29 11.5302 14.0245 11.798 14.669 12.0877L15.284 10.7196L15.899 9.35146C15.1098 8.9967 14.2433 8.68339 13.304 8.40836L12.8825 9.84792ZM15.284 10.7196L14.6709 12.0886C14.8926 12.1879 15.042 12.3161 15.1549 12.4772L16.3833 11.6165L17.6118 10.7557C17.1738 10.1307 16.5903 9.66101 15.897 9.35057L15.284 10.7196ZM16.3833 11.6165L15.1547 12.4769C15.228 12.5817 15.2962 12.7422 15.2962 13.0327H16.7962H18.2962C18.2962 12.221 18.0892 11.4373 17.612 10.756L16.3833 11.6165ZM16.7962 13.0327H15.2962V17.0833H16.7962H18.2962V13.0327H16.7962ZM16.7962 17.0833H15.2962C15.2962 17.0866 15.296 17.0818 15.2982 17.0708C15.3004 17.0597 15.3042 17.0466 15.3098 17.0334C15.3154 17.0203 15.3208 17.0115 15.3235 17.0076C15.326 17.0039 15.3241 17.0075 15.3139 17.0177L16.3725 18.0804L17.4311 19.1432C17.9835 18.5929 18.2962 17.883 18.2962 17.0833H16.7962ZM16.3725 18.0804L15.3134 17.0182C15.3033 17.0283 15.2995 17.0304 15.3029 17.028C15.3065 17.0255 15.3149 17.0204 15.3273 17.0152C15.3399 17.0099 15.3521 17.0063 15.3623 17.0043C15.3723 17.0024 15.3762 17.0027 15.3719 17.0027V18.5027V20.0027C16.1695 20.0027 16.8795 19.6931 17.4316 19.1426L16.3725 18.0804ZM15.3719 18.5027V17.0027H8.17979V18.5027V20.0027H15.3719V18.5027ZM8.17979 18.5027V17.0027C7.96638 17.0027 7.83791 16.9455 7.70386 16.8113L6.6425 17.8713L5.58114 18.9312C6.28792 19.6389 7.18431 20.0027 8.17979 20.0027V18.5027ZM6.6425 17.8713L7.70386 16.8113C7.56967 16.6769 7.51187 16.5474 7.51187 16.3321H6.01187H4.51187C4.51187 17.3271 4.8745 18.2236 5.58114 18.9312L6.6425 17.8713ZM6.01187 16.3321H7.51187C7.51187 16.1169 7.56951 15.9894 7.70176 15.8575L6.6425 14.7954L5.58324 13.7334C4.87466 14.4401 4.51187 15.337 4.51187 16.3321H6.01187ZM6.6425 14.7954L7.70158 15.8577C7.83515 15.7245 7.96432 15.6667 8.17979 15.6667V14.1667V12.6667C7.18637 12.6667 6.29068 13.028 5.58342 13.7332L6.6425 14.7954ZM8.17979 14.1667V15.6667H10.6131V14.1667V12.6667H8.17979V14.1667ZM10.6131 14.1667L11.9801 14.7842L13.3755 11.695L12.0085 11.0775L10.6415 10.46L9.24612 13.5492L10.6131 14.1667ZM12.0085 11.0775L12.2913 9.60439C11.9004 9.52937 11.5104 9.47364 11.1214 9.43763L10.9831 10.9313L10.8449 12.4249C11.1342 12.4516 11.4278 12.4934 11.7258 12.5506L12.0085 11.0775ZM10.9831 10.9313L11.1214 9.43764C10.7396 9.40229 10.3647 9.38417 9.99729 9.38417V10.8842V12.3842C10.2662 12.3842 10.5486 12.3974 10.8448 12.4249L10.9831 10.9313ZM9.99729 10.8842V9.38417C8.89791 9.38417 7.87195 9.50742 6.93552 9.77608L7.34917 11.2179L7.76282 12.6598C8.37749 12.4834 9.11695 12.3842 9.99729 12.3842V10.8842ZM7.34917 11.2179L6.93558 9.77606C6.09489 10.0172 5.32693 10.3008 4.64052 10.6328L5.29375 11.9831L5.94698 13.3334C6.44973 13.0902 7.05205 12.8636 7.76275 12.6598L7.34917 11.2179ZM5.29375 11.9831L4.60779 10.6492C4.16103 10.8789 3.81176 11.2171 3.55627 11.6146L4.81812 12.4256L6.07998 13.2366C6.08108 13.2349 6.07337 13.2472 6.05376 13.2654C6.03358 13.2842 6.00808 13.3025 5.97971 13.3171L5.29375 11.9831ZM4.81812 12.4256L3.55653 11.6142C3.28396 12.038 3.12812 12.5263 3.12812 13.0525H4.62812H6.12812C6.12812 13.0876 6.12275 13.1268 6.11114 13.1651C6.09972 13.2028 6.08608 13.2271 6.07972 13.237L4.81812 12.4256ZM4.62812 13.0525H3.12812V17.7931H4.62812H6.12812V13.0525H4.62812ZM4.62812 17.7931H3.12812C3.12812 17.7191 3.14148 17.6169 3.18747 17.5039C3.23389 17.3899 3.29963 17.2994 3.36454 17.2348L4.4225 18.2981L5.48046 19.3615C5.91159 18.9325 6.12812 18.3766 6.12812 17.7931H4.62812ZM4.4225 18.2981L3.36454 17.2348C3.42954 17.1701 3.51974 17.1056 3.63213 17.0603C3.74333 17.0155 3.84333 17.0027 3.91479 17.0027V18.5027V20.0027C4.49437 20.0027 5.04958 19.7902 5.48046 19.3615L4.4225 18.2981ZM3.91479 18.5027V17.0027C3.98608 17.0027 4.08791 17.0154 4.20197 17.0617C4.31755 17.1086 4.41088 17.176 4.47854 17.2446L3.41083 18.2981L2.34313 19.3517C2.77521 19.7896 3.33494 20.0027 3.91479 20.0027V18.5027ZM3.41083 18.2981L4.47799 17.244C4.54297 17.3098 4.60709 17.4003 4.65191 17.5123C4.69622 17.623 4.70875 17.7224 4.70875 17.7931H3.20875H1.70875C1.70875 18.3684 1.91814 18.9214 2.34367 19.3522L3.41083 18.2981ZM3.20875 17.7931H4.70875V13.0327H3.20875H1.70875V17.7931H3.20875ZM3.20875 13.0327H4.70875C4.70875 12.7412 4.77705 12.5806 4.84986 12.4764L3.62042 11.6171L2.39098 10.7577C1.91489 11.4389 1.70875 12.222 1.70875 13.0327H3.20875ZM3.62042 11.6171L4.85 12.4762C4.97079 12.3034 5.12246 12.1739 5.3308 12.0764L4.69521 10.7177L4.05962 9.35902C3.38379 9.67518 2.81893 10.1453 2.39083 10.7579L3.62042 11.6171ZM4.69521 10.7177L5.30986 12.086C5.94333 11.8014 6.6783 11.535 7.52041 11.2905L7.10208 9.85L6.68375 8.40951C5.73336 8.68551 4.86375 8.9976 4.08055 9.34943L4.69521 10.7177ZM7.10208 9.85L7.52021 11.2905C8.2665 11.0739 9.09074 10.9598 10.0012 10.9598V9.45979V7.95979C8.8387 7.95979 7.73017 8.10579 6.68396 8.40945L7.10208 9.85ZM8.17979 17.1381V18.6381H9.21021V17.1381V15.6381H8.17979V17.1381ZM9.21021 17.1381L10.5675 17.7766L11.3234 16.1697L9.96604 15.5313L8.6087 14.8928L7.85287 16.4997L9.21021 17.1381ZM9.96604 15.5313V14.0313H8.17979V15.5313V17.0313H9.96604V15.5313ZM8.17979 15.5313V14.0313C7.53474 14.0313 6.97558 14.2967 6.55826 14.7144L7.61937 15.7746L8.68049 16.8348C8.64491 16.8704 8.57854 16.9245 8.47846 16.968C8.37602 17.0125 8.27144 17.0313 8.17979 17.0313V15.5313ZM7.61937 15.7746L6.55826 14.7144C6.13808 15.1349 5.87646 15.6957 5.87646 16.3379H7.37646H8.87646C8.87646 16.4263 8.85853 16.529 8.81458 16.6309C8.77153 16.7308 8.71737 16.7979 8.68049 16.8348L7.61937 15.7746ZM7.37646 16.3379H5.87646C5.87646 16.981 6.139 17.5441 6.56514 17.9652L7.61937 16.8981L8.67361 15.8311C8.7129 15.8699 8.76906 15.9391 8.81338 16.0413C8.85853 16.1455 8.87646 16.2496 8.87646 16.3379H7.37646ZM7.61937 16.8981L6.5656 17.9656C6.98465 18.3793 7.54163 18.6381 8.17979 18.6381V17.1381V15.6381C8.26855 15.6381 8.3707 15.6561 8.47155 15.6992C8.57029 15.7415 8.63668 15.7946 8.67315 15.8306L7.61937 16.8981ZM10.7596 17.0833V18.5833H15.3719V17.0833V15.5833H10.7596V17.0833ZM15.3719 17.0833H16.8719V13.0525H15.3719H13.8719V17.0833H15.3719ZM15.3719 13.0525H16.8719C16.8719 12.5121 16.7048 12.0152 16.4188 11.5897L15.174 12.4267L13.9291 13.2636C13.9217 13.2525 13.9057 13.2252 13.8922 13.1826C13.8785 13.1391 13.8719 13.0939 13.8719 13.0525H15.3719ZM15.174 12.4267L16.419 11.5902C16.1567 11.1996 15.8051 10.8707 15.3628 10.6464L14.6844 11.9842L14.0059 13.322C13.9835 13.3106 13.963 13.2962 13.9468 13.2816C13.9311 13.2674 13.926 13.2589 13.9289 13.2632L15.174 12.4267ZM14.6844 11.9842L15.3716 10.6509C15.155 10.5392 14.9146 10.4344 14.659 10.3348L14.1146 11.7325L13.5702 13.1302C13.7595 13.204 13.899 13.2669 13.9971 13.3175L14.6844 11.9842ZM14.1146 11.7325L14.6598 10.3351C14.4308 10.2458 14.1713 10.1464 13.8817 10.0372L13.3523 11.4406L12.8228 12.8441C13.1046 12.9504 13.3533 13.0456 13.5694 13.1299L14.1146 11.7325ZM13.3523 11.4406L11.9893 10.8144L9.39658 16.4571L10.7596 17.0833L12.1226 17.7096L14.7153 12.0669L13.3523 11.4406Z" fill="var(--stroke-0, #1E729C)" mask="url(#path-1-inside-1_0_517)"/>
</g>
</g>
</svg>
