<svg preserveAspectRatio="none" width="100%" height="100%" overflow="visible" style="display: block;" viewBox="0 0 20 20" fill="none" xmlns="http://www.w3.org/2000/svg">
<g id="rule">
<path id="Vector" d="M14.2029 14.5583L12.4525 16.309C12.3108 16.4538 12.1451 16.5263 11.9552 16.5263C11.7652 16.5263 11.5994 16.4538 11.4579 16.309C11.3162 16.1673 11.2454 16.0024 11.2454 15.8142C11.2454 15.6258 11.3162 15.4592 11.4579 15.3144L13.2083 13.564L11.4579 11.8133C11.3162 11.6718 11.2454 11.506 11.2454 11.316C11.2454 11.1262 11.3162 10.9604 11.4579 10.8187C11.5994 10.6772 11.7652 10.6065 11.9552 10.6065C12.1451 10.6065 12.3108 10.6772 12.4525 10.8187L14.2029 12.5694L15.9583 10.8187C16.1 10.6772 16.2649 10.6065 16.4531 10.6065C16.6413 10.6065 16.8079 10.6772 16.9529 10.8187C17.0944 10.9604 17.1652 11.1262 17.1652 11.316C17.1652 11.506 17.0944 11.6718 16.9529 11.8133L15.1975 13.564L16.9529 15.3144C17.0944 15.4592 17.1652 15.6258 17.1652 15.8142C17.1652 16.0024 17.0944 16.1673 16.9529 16.309C16.8079 16.4538 16.6413 16.5263 16.4531 16.5263C16.2649 16.5263 16.1 16.4538 15.9583 16.309L14.2029 14.5583ZM13.7142 6.98458L16.941 3.75271C17.0827 3.61104 17.2501 3.54368 17.4433 3.55062C17.6367 3.55757 17.8041 3.63187 17.9456 3.77354C18.0873 3.91521 18.1573 4.08097 18.1556 4.27083C18.154 4.46069 18.0823 4.62646 17.9406 4.76812L14.2115 8.49229C14.0699 8.63396 13.9033 8.70563 13.7117 8.70729C13.5201 8.70896 13.3535 8.63896 13.2119 8.49729L11.1335 6.41396C10.9887 6.27229 10.9162 6.10653 10.9162 5.91667C10.9162 5.72681 10.9887 5.56104 11.1335 5.41937C11.2752 5.27771 11.441 5.21035 11.6308 5.21729C11.8208 5.22424 11.9866 5.2916 12.1281 5.41937L13.7142 6.98458ZM2.27167 12.6235H8.43708C8.64083 12.6235 8.81007 12.6909 8.94479 12.8256C9.07937 12.9603 9.14667 13.1296 9.14667 13.3333C9.14667 13.5371 9.07937 13.7063 8.94479 13.841C8.81007 13.9758 8.64083 14.0431 8.43708 14.0431H2.27167C2.06792 14.0431 1.89868 13.9758 1.76396 13.841C1.62937 13.7063 1.56208 13.5371 1.56208 13.3333C1.56208 13.1296 1.62937 12.9603 1.76396 12.8256C1.89868 12.6909 2.06792 12.6235 2.27167 12.6235ZM2.27167 5.95687H8.43708C8.64083 5.95687 8.81007 6.02424 8.94479 6.15896C9.07937 6.29368 9.14667 6.46292 9.14667 6.66667C9.14667 6.87042 9.07937 7.03965 8.94479 7.17437C8.81007 7.3091 8.64083 7.37646 8.43708 7.37646H2.27167C2.06792 7.37646 1.89868 7.3091 1.76396 7.17437C1.62937 7.03965 1.56208 6.87042 1.56208 6.66667C1.56208 6.46292 1.62937 6.29368 1.76396 6.15896C1.89868 6.02424 2.06792 5.95687 2.27167 5.95687Z" fill="var(--fill-0, #1E729C)"/>
</g>
</svg>
