<svg preserveAspectRatio="none" width="100%" height="100%" overflow="visible" style="display: block;" viewBox="0 0 40 40" fill="none" xmlns="http://www.w3.org/2000/svg">
<g id="delivery_truck_speed">
<path id="Vector" d="M11.1704 33.8813C9.73431 33.8813 8.55542 33.3649 7.63375 32.3321C6.71181 31.299 6.32028 30.0785 6.45917 28.6704H3.97375C3.57319 28.6704 3.23639 28.5333 2.96333 28.2592C2.69056 27.9847 2.55417 27.6463 2.55417 27.2438C2.55417 26.841 2.69056 26.5049 2.96333 26.2354C3.23639 25.9663 3.57319 25.8317 3.97375 25.8317H7.82958C8.23292 25.3847 8.71958 25.0304 9.28958 24.7688C9.85958 24.5068 10.4861 24.3758 11.1692 24.3758C11.8522 24.3758 12.4774 24.5069 13.0446 24.7692C13.6115 25.0317 14.1003 25.3858 14.5108 25.8317H22.8108L26.6938 8.9575H9.32958C8.91542 8.9575 8.58056 8.82042 8.325 8.54625C8.06972 8.27208 7.94208 7.93389 7.94208 7.53167C7.94208 7.12944 8.07847 6.79167 8.35125 6.51833C8.62403 6.24528 8.96403 6.10875 9.37125 6.10875H28.4546C28.8968 6.10875 29.2664 6.29 29.5633 6.6525C29.8606 7.01528 29.9642 7.41764 29.8742 7.85958L28.5425 13.5804H32.3217C32.7756 13.5804 33.2015 13.679 33.5996 13.8763C33.9979 14.0732 34.3315 14.3511 34.6004 14.71L37.8242 19.0388C38.0758 19.3846 38.2424 19.7426 38.3238 20.1129C38.4051 20.4835 38.4114 20.8713 38.3425 21.2763L37.1042 27.4992C37.0364 27.8353 36.8693 28.1144 36.6029 28.3367C36.3365 28.5592 36.0338 28.6704 35.6946 28.6704H33.4229C33.5618 30.0846 33.1635 31.3067 32.2279 32.3367C31.2921 33.3664 30.1063 33.8813 28.6704 33.8813C27.2343 33.8813 26.0554 33.3649 25.1338 32.3321C24.2118 31.299 23.8203 30.0785 23.9592 28.6704H15.9229C16.0618 30.0846 15.6635 31.3067 14.7279 32.3367C13.7921 33.3664 12.6062 33.8813 11.1704 33.8813ZM26.5763 22.1233H35.2454L35.5154 20.6883L32.3217 16.4196H27.8842L26.5763 22.1233ZM23.1442 24.3317L23.415 23.2433C23.5956 22.5178 23.7969 21.6239 24.0192 20.5617C24.1411 20.0778 24.2476 19.6161 24.3388 19.1767C24.4299 18.7369 24.52 18.3549 24.6092 18.0304L24.8758 16.9433C25.0533 16.2183 25.2549 15.3242 25.4804 14.2608C25.706 13.1975 25.9038 12.3014 26.0738 11.5725L26.3288 10.4792L26.6938 8.9575L22.8108 25.8317L23.1442 24.3317ZM2.47833 21.9808C2.06417 21.9808 1.72931 21.8444 1.47375 21.5717C1.21819 21.2989 1.09042 20.9622 1.09042 20.5617C1.09042 20.1608 1.22514 19.824 1.49458 19.5513C1.76403 19.2785 2.10583 19.1421 2.52 19.1421H9.19667C9.59722 19.1421 9.93389 19.2792 10.2067 19.5533C10.4794 19.8278 10.6158 20.1663 10.6158 20.5688C10.6158 20.9715 10.4794 21.3076 10.2067 21.5771C9.93389 21.8463 9.59722 21.9808 9.19667 21.9808H2.47833ZM5.81167 15.6783C5.40444 15.6783 5.06431 15.5412 4.79125 15.2671C4.51847 14.9929 4.38208 14.6547 4.38208 14.2525C4.38208 13.8506 4.51847 13.5129 4.79125 13.2396C5.06431 12.9663 5.40444 12.8296 5.81167 12.8296H14.1867C14.5864 12.8296 14.9246 12.9686 15.2012 13.2467C15.4776 13.525 15.6158 13.8651 15.6158 14.2671C15.6158 14.6693 15.4776 15.0051 15.2012 15.2746C14.9246 15.5438 14.5864 15.6783 14.1867 15.6783H5.81167ZM11.1896 31.0425C11.7107 31.0425 12.1567 30.8506 12.5275 30.4667C12.8986 30.0828 13.0842 29.6303 13.0842 29.1092C13.0842 28.5883 12.901 28.1424 12.5346 27.7713C12.1679 27.4001 11.7136 27.2146 11.1717 27.2146C10.6647 27.2146 10.2187 27.3979 9.83375 27.7646C9.44875 28.131 9.25625 28.5851 9.25625 29.1271C9.25625 29.6343 9.44819 30.0803 9.83208 30.465C10.216 30.85 10.6685 31.0425 11.1896 31.0425ZM28.6896 31.0425C29.2107 31.0425 29.6567 30.8506 30.0275 30.4667C30.3986 30.0828 30.5842 29.6303 30.5842 29.1092C30.5842 28.5883 30.401 28.1424 30.0346 27.7713C29.6679 27.4001 29.2136 27.2146 28.6717 27.2146C28.1647 27.2146 27.7188 27.3979 27.3338 27.7646C26.9488 28.131 26.7563 28.5851 26.7563 29.1271C26.7563 29.6343 26.9482 30.0803 27.3321 30.465C27.716 30.85 28.1685 31.0425 28.6896 31.0425Z" fill="var(--fill-0, #2DA2DB)"/>
</g>
</svg>
