<svg preserveAspectRatio="none" width="100%" height="100%" overflow="visible" style="display: block;" viewBox="0 0 48 48" fill="none" xmlns="http://www.w3.org/2000/svg">
<g id="zoom_in_map">
<path id="Vector" d="M7.40484 30.2738H16.0484C16.5225 30.2739 16.9204 30.4349 17.2427 30.7572C17.5651 31.0796 17.726 31.4774 17.7261 31.9516V40.5951C17.7261 41.0697 17.5639 41.468 17.2398 41.7904C16.9157 42.1128 16.5156 42.2738 16.0386 42.2738C15.5618 42.2737 15.1652 42.1126 14.8472 41.7904C14.5288 41.468 14.3697 41.0698 14.3697 40.5951V36.0443L14.3267 36.0873L8.37359 42.0394C8.03007 42.383 7.63691 42.5441 7.19293 42.5238C6.80345 42.506 6.45646 42.3643 6.15093 42.099L6.02203 41.9779C5.67869 41.6428 5.50738 41.2425 5.50738 40.7767C5.50744 40.3115 5.67856 39.9073 6.02203 39.5639L11.9136 33.6732L11.9556 33.6303H7.40484C6.93022 33.6303 6.53198 33.468 6.20953 33.1439C5.88733 32.8199 5.72618 32.4205 5.72613 31.9437C5.72613 31.4667 5.88725 31.0697 6.20953 30.7514C6.53195 30.4332 6.93008 30.2738 7.40484 30.2738ZM31.9517 30.2738H40.5953C41.0699 30.2738 41.47 30.436 41.7964 30.7601C42.1229 31.0843 42.2857 31.4844 42.2857 31.9613C42.2856 32.4381 42.1226 32.8347 41.7964 33.1527C41.47 33.4712 41.07 33.6303 40.5953 33.6303H36.0445L36.0865 33.6732L42.0396 39.6264C42.3834 39.9701 42.5543 40.3636 42.5543 40.808C42.5543 41.2527 42.3832 41.6426 42.0396 41.9779C41.6964 42.3214 41.2942 42.4926 40.8326 42.4926C40.4291 42.4925 40.0707 42.3618 39.7574 42.099L39.6265 41.9779L33.6851 36.0863L33.6421 36.0443V40.5951C33.6421 41.0696 33.4789 41.468 33.1509 41.7904C32.8229 42.1129 32.4208 42.2737 31.9439 42.2738C31.4669 42.2738 31.0699 42.1127 30.7515 41.7904C30.4334 41.468 30.274 41.0699 30.274 40.5951V31.9516C30.2741 31.4774 30.435 31.0796 30.7574 30.7572C31.0797 30.4349 31.4776 30.2739 31.9517 30.2738ZM7.2232 5.44569C7.68851 5.44574 8.09261 5.61686 8.43609 5.96034L14.3267 11.9135L14.3697 11.9564V7.40468C14.3697 6.93006 14.5318 6.53 14.856 6.20351C15.18 5.87728 15.5795 5.71432 16.0562 5.71425C16.5331 5.71425 16.9302 5.87723 17.2486 6.20351C17.5668 6.52996 17.7261 6.92992 17.7261 7.40468V16.0482C17.7261 16.5224 17.5651 16.9202 17.2427 17.2426C16.9204 17.5649 16.5225 17.7259 16.0484 17.726H7.40484C6.93022 17.726 6.53198 17.5637 6.20953 17.2396C5.88731 16.9157 5.72623 16.5162 5.72613 16.0394C5.72613 15.5625 5.88717 15.1633 6.20953 14.8412C6.53197 14.5188 6.93018 14.3578 7.40484 14.3578H11.9556L11.9136 14.3148L5.9605 8.37343C5.61727 8.03018 5.45586 7.62917 5.47613 7.16835C5.4965 6.70632 5.67831 6.30379 6.02203 5.96034C6.35714 5.61701 6.75748 5.44569 7.2232 5.44569ZM40.8834 5.39589C41.3449 5.39598 41.7463 5.56707 42.0894 5.91054C42.4329 6.25367 42.604 6.65509 42.6041 7.11659C42.6041 7.57793 42.433 7.98005 42.0894 8.32362L36.0865 14.3148L36.0445 14.3578H40.5953C41.0698 14.3578 41.4699 14.5218 41.7964 14.85C42.1227 15.178 42.2856 15.5794 42.2857 16.056C42.2857 16.533 42.1227 16.93 41.7964 17.2484C41.47 17.5667 41.07 17.726 40.5953 17.726H31.9517C31.4775 17.7259 31.0798 17.565 30.7574 17.2426C30.435 16.9202 30.274 16.5224 30.274 16.0482V7.40468C30.274 6.93006 30.4361 6.53 30.7603 6.20351C31.0844 5.87714 31.4846 5.71425 31.9615 5.71425C32.4382 5.71436 32.8368 5.87725 33.1587 6.20351C33.4813 6.52999 33.6421 6.93002 33.6421 7.40468V11.9555L33.6851 11.9135L39.6763 5.91054C40.0199 5.56696 40.422 5.39589 40.8834 5.39589Z" fill="var(--fill-0, #F4813E)" stroke="var(--stroke-0, #F4813E)" stroke-width="0.05"/>
</g>
</svg>
