<svg width="24" height="24" viewBox="0 0 24 24" fill="none" xmlns="http://www.w3.org/2000/svg">
<path d="M16.3902 23.1497C15.9949 23.1497 15.6141 23.0747 15.2477 22.9247C14.8814 22.7747 14.5731 22.5426 14.3227 22.2282L9.82924 16.7742C9.68407 16.6041 9.6209 16.411 9.63973 16.195C9.6584 15.979 9.74223 15.7968 9.89123 15.6485L10.1482 15.3665C10.4229 15.0918 10.7486 14.9376 11.1252 14.904C11.5019 14.8703 11.8752 14.9141 12.245 15.0355L15.6055 16.298V7.28598H17.444C18.5375 7.28598 19.4763 7.65848 20.2605 8.40348C21.0445 9.14848 21.4365 10.0659 21.4365 11.1557V19.346C21.4365 20.4133 21.068 21.3141 20.331 22.0482C19.594 22.7826 18.6926 23.1497 17.6267 23.1497H16.3902ZM5.76898 22.1497C5.29648 22.1497 4.89448 21.984 4.56298 21.6525C4.23148 21.321 4.06573 20.919 4.06573 20.4465V3.55398C4.06573 3.07981 4.23148 2.67639 4.56298 2.34373C4.89448 2.01106 5.29648 1.84473 5.76898 1.84473H15.6055C16.0738 1.84473 16.4747 2.01106 16.8082 2.34373C17.1419 2.67639 17.3087 3.07981 17.3087 3.55398V7.28598H15.6055V3.54798H5.76298V20.4525H12.8717L14.2412 22.1497H5.76898ZM10.6887 7.09598C10.9159 7.09598 11.1029 7.02023 11.2497 6.86873C11.3966 6.71723 11.47 6.52956 11.47 6.30573C11.47 6.07839 11.3952 5.89131 11.2455 5.74448C11.0957 5.59764 10.9081 5.52423 10.6827 5.52423C10.4576 5.52423 10.2706 5.59906 10.1217 5.74873C9.97273 5.89856 9.89823 6.08614 9.89823 6.31148C9.89823 6.53681 9.97398 6.72389 10.1255 6.87273C10.277 7.02156 10.4647 7.09598 10.6887 7.09598ZM16.4212 21.536H17.6267C18.2436 21.536 18.7628 21.3209 19.1845 20.8907C19.606 20.4606 19.8167 19.9456 19.8167 19.346V11.1557C19.8167 10.5264 19.6012 9.99406 19.1702 9.55873C18.7394 9.12339 18.2089 8.90573 17.5787 8.90573H17.2727V17.615C17.2727 17.9325 17.1513 18.1746 16.9085 18.3415C16.6655 18.5081 16.4051 18.5351 16.1272 18.4225L11.8675 16.6067L15.4855 21.1087C15.5958 21.2516 15.7353 21.3585 15.904 21.4295C16.0727 21.5005 16.2451 21.536 16.4212 21.536Z" fill="#4CC4FE"/>
</svg>
