<svg width="18" height="18" viewBox="0 0 18 18" fill="none" xmlns="http://www.w3.org/2000/svg">
<mask id="path-1-inside-1_10684_9061" fill="white">
<path d="M8.02348 15.9819V15.222C6.3797 15.0518 5.00596 14.4147 3.90225 13.3109C2.79842 12.2072 2.16281 10.8349 1.99542 9.19398H1.23553C1.06969 9.19398 0.930695 9.13767 0.818543 9.02504C0.70639 8.91253 0.650314 8.77299 0.650314 8.60644C0.650314 8.44 0.70639 8.30125 0.818543 8.19017C0.930695 8.0791 1.06969 8.02356 1.23553 8.02356H1.99542C2.16568 6.37978 2.80273 5.00603 3.90655 3.90233C5.01026 2.7985 6.38257 2.16289 8.02348 1.9955V1.2356C8.02348 1.06977 8.0798 0.930771 8.19243 0.818619C8.30494 0.706467 8.44447 0.650391 8.61103 0.650391C8.77746 0.650391 8.91621 0.706467 9.02729 0.818619C9.13837 0.930771 9.19391 1.06977 9.19391 1.2356V1.9955C10.8348 2.16289 12.2071 2.7985 13.3108 3.90233C14.4147 5.00603 15.0517 6.37978 15.222 8.02356H15.9819C16.1477 8.02356 16.2867 8.07987 16.3988 8.1925C16.511 8.30501 16.5671 8.44455 16.5671 8.6111C16.5671 8.77754 16.511 8.91629 16.3988 9.02737C16.2867 9.13844 16.1477 9.19398 15.9819 9.19398H15.222C15.0546 10.8349 14.419 12.2072 13.3151 13.3109C12.2114 14.4147 10.8377 15.0518 9.19391 15.222V15.9819C9.19391 16.1478 9.13759 16.2868 9.02496 16.3989C8.91245 16.5111 8.77292 16.5671 8.60636 16.5671C8.43993 16.5671 8.30117 16.5111 8.1901 16.3989C8.07902 16.2868 8.02348 16.1478 8.02348 15.9819ZM8.60798 14.0224C10.0944 14.0224 11.3684 13.4919 12.4301 12.4309C13.4916 11.3697 14.0223 10.0959 14.0223 8.60949C14.0223 7.12305 13.4918 5.84903 12.4308 4.78741C11.3696 3.72591 10.0958 3.19516 8.60941 3.19516C7.12298 3.19516 5.84895 3.72567 4.78733 4.78669C3.72583 5.84783 3.19508 7.12162 3.19508 8.60805C3.19508 10.0945 3.72559 11.3685 4.78661 12.4301C5.84775 13.4916 7.12154 14.0224 8.60798 14.0224ZM8.60869 11.299C7.85543 11.299 7.21875 11.0389 6.69864 10.5188C6.17853 9.99872 5.91848 9.36203 5.91848 8.60877C5.91848 7.85551 6.17853 7.21882 6.69864 6.69872C7.21875 6.17861 7.85543 5.91855 8.60869 5.91855C9.36195 5.91855 9.99864 6.17861 10.5187 6.69872C11.0389 7.21882 11.2989 7.85551 11.2989 8.60877C11.2989 9.36203 11.0389 9.99872 10.5187 10.5188C9.99864 11.0389 9.36195 11.299 8.60869 11.299ZM8.60708 10.1243C9.03393 10.1243 9.39346 9.97863 9.68568 9.68737C9.97801 9.39611 10.1242 9.03711 10.1242 8.61038C10.1242 8.18354 9.97855 7.824 9.68729 7.53179C9.39603 7.23945 9.03704 7.09328 8.61031 7.09328C8.18346 7.09328 7.82393 7.23891 7.53171 7.53017C7.23937 7.82143 7.0932 8.18043 7.0932 8.60716C7.0932 9.034 7.23883 9.39354 7.5301 9.68575C7.82136 9.97809 8.18035 10.1243 8.60708 10.1243Z"/>
</mask>
<path d="M8.02348 15.222H9.45826V13.9282L8.1713 13.7949L8.02348 15.222ZM3.90225 13.3109L4.91685 12.2964L4.91674 12.2963L3.90225 13.3109ZM1.99542 9.19398L3.4228 9.04837L3.29129 7.7592H1.99542V9.19398ZM0.818543 9.02504L1.83524 8.01265L1.83471 8.01211L0.818543 9.02504ZM1.99542 8.02356V9.45834H3.28927L3.42257 8.17138L1.99542 8.02356ZM3.90655 3.90233L4.92104 4.91692L4.92115 4.91681L3.90655 3.90233ZM8.02348 1.9955L8.16909 3.42287L9.45826 3.29136V1.9955H8.02348ZM8.19243 0.818619L9.20481 1.83532L9.20535 1.83478L8.19243 0.818619ZM9.19391 1.9955H7.75912V3.29136L9.0483 3.42287L9.19391 1.9955ZM13.3108 3.90233L12.2962 4.91681L12.2963 4.91692L13.3108 3.90233ZM15.222 8.02356L13.7948 8.17138L13.9281 9.45834H15.222V8.02356ZM16.3988 8.1925L15.3821 9.20489L15.3827 9.20543L16.3988 8.1925ZM15.222 9.19398V7.7592H13.9261L13.7946 9.04837L15.222 9.19398ZM13.3151 13.3109L12.3006 12.2963L12.3005 12.2964L13.3151 13.3109ZM9.19391 15.222L9.04608 13.7949L7.75912 13.9282V15.222H9.19391ZM9.02496 16.3989L8.01258 15.3822L8.01204 15.3828L9.02496 16.3989ZM12.4301 12.4309L13.4443 13.4457L13.4444 13.4456L12.4301 12.4309ZM12.4308 4.78741L13.4456 3.77315L13.4455 3.77303L12.4308 4.78741ZM4.78733 4.78669L3.77307 3.77186L3.77296 3.77197L4.78733 4.78669ZM4.78661 12.4301L3.77178 13.4444L3.7719 13.4445L4.78661 12.4301ZM9.68568 9.68737L8.67301 8.67095L8.6728 8.67116L9.68568 9.68737ZM9.68729 7.53179L8.67088 8.54446L8.67109 8.54467L9.68729 7.53179ZM7.53171 7.53017L8.54438 8.54659L8.54459 8.54638L7.53171 7.53017ZM7.5301 9.68575L8.54651 8.67308L8.5463 8.67287L7.5301 9.68575ZM8.02348 15.9819H9.45826V15.222H8.02348H6.5887V15.9819H8.02348ZM8.02348 15.222L8.1713 13.7949C6.83453 13.6564 5.77326 13.1529 4.91685 12.2964L3.90225 13.3109L2.88765 14.3254C4.23865 15.6765 5.92487 16.4471 7.87566 16.6492L8.02348 15.222ZM3.90225 13.3109L4.91674 12.2963C4.06034 11.44 3.55872 10.3808 3.4228 9.04837L1.99542 9.19398L0.568048 9.33959C0.766906 11.289 1.53651 12.9744 2.88776 14.3255L3.90225 13.3109ZM1.99542 9.19398V7.7592H1.23553V9.19398V10.6288H1.99542V9.19398ZM1.23553 9.19398V7.7592C1.31772 7.7592 1.42677 7.77379 1.54568 7.82196C1.66581 7.87063 1.76329 7.94039 1.83524 8.01265L0.818543 9.02504L-0.198158 10.0374C0.195988 10.4332 0.706556 10.6288 1.23553 10.6288V9.19398ZM0.818543 9.02504L1.83471 8.01211C1.90691 8.08454 1.97582 8.18192 2.02367 8.30098C2.07098 8.41869 2.0851 8.52612 2.0851 8.60644H0.650314H-0.784468C-0.784468 9.13226 -0.591965 9.64235 -0.19762 10.038L0.818543 9.02504ZM0.650314 8.60644H2.0851C2.0851 8.68683 2.07096 8.79555 2.02263 8.91515C1.97367 9.03629 1.90289 9.13561 1.82818 9.2096L0.818543 8.19017L-0.191099 7.17075C-0.591369 7.56718 -0.784468 8.08027 -0.784468 8.60644H0.650314ZM0.818543 8.19017L1.82818 9.2096C1.75531 9.28177 1.65786 9.35019 1.53927 9.39757C1.42207 9.4444 1.31528 9.45834 1.23553 9.45834V8.02356V6.58878C0.712818 6.58878 0.204456 6.77899 -0.191099 7.17075L0.818543 8.19017ZM1.23553 8.02356V9.45834H1.99542V8.02356V6.58878H1.23553V8.02356ZM1.99542 8.02356L3.42257 8.17138C3.56103 6.83461 4.06454 5.77334 4.92104 4.91692L3.90655 3.90233L2.89206 2.88773C1.54092 4.23872 0.770336 5.92494 0.568276 7.87574L1.99542 8.02356ZM3.90655 3.90233L4.92115 4.91681C5.77746 4.06041 6.83664 3.5588 8.16909 3.42287L8.02348 1.9955L7.87787 0.568124C5.92849 0.766983 4.24306 1.53659 2.89195 2.88784L3.90655 3.90233ZM8.02348 1.9955H9.45826V1.2356H8.02348H6.5887V1.9955H8.02348ZM8.02348 1.2356H9.45826C9.45826 1.3178 9.44368 1.42685 9.3955 1.54576C9.34683 1.66588 9.27707 1.76337 9.20481 1.83532L8.19243 0.818619L7.18004 -0.198082C6.78422 0.196065 6.5887 0.706633 6.5887 1.2356H8.02348ZM8.19243 0.818619L9.20535 1.83478C9.13292 1.90698 9.03555 1.97589 8.91649 2.02374C8.79877 2.07105 8.69134 2.08517 8.61103 2.08517V0.650391V-0.784392C8.0852 -0.784392 7.57511 -0.591888 7.1795 -0.197544L8.19243 0.818619ZM8.61103 0.650391V2.08517C8.53063 2.08517 8.42191 2.07104 8.30231 2.0227C8.18117 1.97375 8.08185 1.90296 8.00787 1.82826L9.02729 0.818619L10.0467 -0.191023C9.65029 -0.591292 9.1372 -0.784392 8.61103 -0.784392V0.650391ZM9.02729 0.818619L8.00787 1.82826C7.93569 1.75538 7.86728 1.65794 7.81989 1.53935C7.77306 1.42215 7.75912 1.31535 7.75912 1.2356H9.19391H10.6287C10.6287 0.712895 10.4385 0.204532 10.0467 -0.191023L9.02729 0.818619ZM9.19391 1.2356H7.75912V1.9955H9.19391H10.6287V1.2356H9.19391ZM9.19391 1.9955L9.0483 3.42287C10.3807 3.5588 11.4399 4.06041 12.2962 4.91681L13.3108 3.90233L14.3254 2.88784C12.9743 1.53659 11.2889 0.766983 9.33951 0.568124L9.19391 1.9955ZM13.3108 3.90233L12.2963 4.91692C13.1529 5.77334 13.6564 6.83461 13.7948 8.17138L15.222 8.02356L16.6491 7.87574C16.4471 5.92494 15.6765 4.23872 14.3253 2.88773L13.3108 3.90233ZM15.222 8.02356V9.45834H15.9819V8.02356V6.58878H15.222V8.02356ZM15.9819 8.02356V9.45834C15.8997 9.45834 15.7906 9.44375 15.6717 9.39558C15.5516 9.34691 15.4541 9.27715 15.3821 9.20489L16.3988 8.1925L17.4155 7.18012C17.0214 6.78429 16.5108 6.58878 15.9819 6.58878V8.02356ZM16.3988 8.1925L15.3827 9.20543C15.3105 9.133 15.2416 9.03562 15.1937 8.91656C15.1464 8.79885 15.1323 8.69142 15.1323 8.6111H16.5671H18.0019C18.0019 8.08528 17.8094 7.57519 17.415 7.17958L16.3988 8.1925ZM16.5671 8.6111H15.1323C15.1323 8.53071 15.1464 8.42199 15.1948 8.30239C15.2437 8.18125 15.3145 8.08193 15.3892 8.00794L16.3988 9.02737L17.4085 10.0468C17.8088 9.65036 18.0019 9.13727 18.0019 8.6111H16.5671ZM16.3988 9.02737L15.3892 8.00794C15.4621 7.93577 15.5595 7.86735 15.6781 7.81997C15.7953 7.77314 15.9021 7.7592 15.9819 7.7592V9.19398V10.6288C16.5046 10.6288 17.0129 10.4386 17.4085 10.0468L16.3988 9.02737ZM15.9819 9.19398V7.7592H15.222V9.19398V10.6288H15.9819V9.19398ZM15.222 9.19398L13.7946 9.04837C13.6587 10.3808 13.1571 11.44 12.3006 12.2963L13.3151 13.3109L14.3296 14.3255C15.6809 12.9744 16.4505 11.289 16.6493 9.33959L15.222 9.19398ZM13.3151 13.3109L12.3005 12.2964C11.4441 13.1529 10.3829 13.6564 9.04608 13.7949L9.19391 15.222L9.34173 16.6492C11.2925 16.4471 12.9787 15.6765 14.3297 14.3254L13.3151 13.3109ZM9.19391 15.222H7.75912V15.9819H9.19391H10.6287V15.222H9.19391ZM9.19391 15.9819H7.75912C7.75912 15.8997 7.77371 15.7907 7.82189 15.6718C7.87056 15.5517 7.94032 15.4542 8.01258 15.3822L9.02496 16.3989L10.0373 17.4156C10.4332 17.0215 10.6287 16.5109 10.6287 15.9819H9.19391ZM9.02496 16.3989L8.01204 15.3828C8.08447 15.3106 8.18184 15.2416 8.3009 15.1938C8.41862 15.1465 8.52605 15.1324 8.60636 15.1324V16.5671V18.0019C9.13219 18.0019 9.64228 17.8094 10.0379 17.4151L9.02496 16.3989ZM8.60636 16.5671V15.1324C8.68675 15.1324 8.79548 15.1465 8.91507 15.1948C9.03621 15.2438 9.13553 15.3146 9.20952 15.3893L8.1901 16.3989L7.17067 17.4086C7.5671 17.8088 8.08019 18.0019 8.60636 18.0019V16.5671ZM8.1901 16.3989L9.20952 15.3893C9.2817 15.4622 9.35011 15.5596 9.39749 15.6782C9.44433 15.7954 9.45826 15.9022 9.45826 15.9819H8.02348H6.5887C6.5887 16.5046 6.77891 17.013 7.17067 17.4086L8.1901 16.3989ZM8.60798 14.0224V15.4572C10.4789 15.4572 12.1166 14.7727 13.4443 13.4457L12.4301 12.4309L11.4158 11.416C10.6203 12.2111 9.70987 12.5876 8.60798 12.5876V14.0224ZM12.4301 12.4309L13.4444 13.4456C14.7722 12.1183 15.4571 10.4807 15.4571 8.60949H14.0223H12.5875C12.5875 9.71116 12.211 10.6211 11.4157 11.4161L12.4301 12.4309ZM14.0223 8.60949H15.4571C15.4571 6.73851 14.7726 5.10087 13.4456 3.77315L12.4308 4.78741L11.4159 5.80166C12.211 6.59718 12.5875 7.50759 12.5875 8.60949H14.0223ZM12.4308 4.78741L13.4455 3.77303C12.1182 2.44531 10.4806 1.76037 8.60941 1.76037V3.19516V4.62994C9.71108 4.62994 10.6211 5.00651 11.4161 5.80178L12.4308 4.78741ZM8.60941 3.19516V1.76037C6.73844 1.76037 5.10079 2.44489 3.77307 3.77186L4.78733 4.78669L5.80159 5.80152C6.59711 5.00645 7.50752 4.62994 8.60941 4.62994V3.19516ZM4.78733 4.78669L3.77296 3.77197C2.44523 5.09925 1.7603 6.73685 1.7603 8.60805H3.19508H4.62986C4.62986 7.50638 5.00643 6.59641 5.8017 5.8014L4.78733 4.78669ZM3.19508 8.60805H1.7603C1.7603 10.479 2.44481 12.1167 3.77178 13.4444L4.78661 12.4301L5.80144 11.4159C5.00637 10.6204 4.62986 9.70995 4.62986 8.60805H3.19508ZM4.78661 12.4301L3.7719 13.4445C5.09918 14.7722 6.73678 15.4572 8.60798 15.4572V14.0224V12.5876C7.50631 12.5876 6.59633 12.211 5.80133 11.4158L4.78661 12.4301ZM8.60869 11.299V9.8642C8.22569 9.8642 7.95705 9.74814 7.71318 9.50428L6.69864 10.5188L5.68409 11.5334C6.48045 12.3297 7.48517 12.7338 8.60869 12.7338V11.299ZM6.69864 10.5188L7.71318 9.50428C7.46932 9.26042 7.35326 8.99177 7.35326 8.60877H5.91848H4.48369C4.48369 9.73229 4.88774 10.737 5.68409 11.5334L6.69864 10.5188ZM5.91848 8.60877H7.35326C7.35326 8.22577 7.46932 7.95712 7.71318 7.71326L6.69864 6.69872L5.68409 5.68417C4.88774 6.48053 4.48369 7.48525 4.48369 8.60877H5.91848ZM6.69864 6.69872L7.71318 7.71326C7.95705 7.4694 8.22569 7.35334 8.60869 7.35334V5.91855V4.48377C7.48517 4.48377 6.48045 4.88781 5.68409 5.68417L6.69864 6.69872ZM8.60869 5.91855V7.35334C8.99169 7.35334 9.26034 7.4694 9.5042 7.71326L10.5187 6.69872L11.5333 5.68417C10.7369 4.88781 9.73222 4.48377 8.60869 4.48377V5.91855ZM10.5187 6.69872L9.5042 7.71326C9.74806 7.95712 9.86413 8.22577 9.86413 8.60877H11.2989H12.7337C12.7337 7.48525 12.3296 6.48053 11.5333 5.68417L10.5187 6.69872ZM11.2989 8.60877H9.86413C9.86413 8.99177 9.74806 9.26042 9.5042 9.50428L10.5187 10.5188L11.5333 11.5334C12.3296 10.737 12.7337 9.73229 12.7337 8.60877H11.2989ZM10.5187 10.5188L9.5042 9.50428C9.26034 9.74814 8.99169 9.8642 8.60869 9.8642V11.299V12.7338C9.73222 12.7338 10.7369 12.3297 11.5333 11.5334L10.5187 10.5188ZM8.60708 10.1243V11.559C9.39898 11.559 10.1272 11.2731 10.6986 10.7036L9.68568 9.68737L8.6728 8.67116C8.66188 8.68204 8.6558 8.68618 8.65499 8.68672C8.65437 8.68713 8.6558 8.68618 8.65821 8.6852C8.66055 8.68426 8.6596 8.685 8.65333 8.68616C8.64677 8.68737 8.632 8.68948 8.60708 8.68948V10.1243ZM9.68568 9.68737L10.6983 10.7038C11.271 10.1332 11.559 9.40403 11.559 8.61038H10.1242H8.6894C8.6894 8.63495 8.68732 8.64927 8.68619 8.65532C8.68512 8.66108 8.68453 8.66149 8.6857 8.65862C8.6869 8.65568 8.68811 8.65379 8.68795 8.65402C8.68767 8.65445 8.68375 8.66025 8.67301 8.67095L9.68568 9.68737ZM10.1242 8.61038H11.559C11.559 7.81848 11.273 7.09027 10.7035 6.51891L9.68729 7.53179L8.67109 8.54467C8.68197 8.55558 8.6861 8.56167 8.68664 8.56247C8.68706 8.56309 8.6861 8.56166 8.68513 8.55925C8.68418 8.55691 8.68492 8.55786 8.68608 8.56414C8.6873 8.57069 8.6894 8.58546 8.6894 8.61038H10.1242ZM9.68729 7.53179L10.7037 6.51911C10.1331 5.94644 9.40395 5.6585 8.61031 5.6585V7.09328V8.52806C8.63487 8.52806 8.64919 8.53014 8.65524 8.53127C8.661 8.53234 8.66141 8.53293 8.65854 8.53176C8.6556 8.53057 8.65371 8.52935 8.65395 8.52951C8.65437 8.5298 8.66017 8.53371 8.67088 8.54446L9.68729 7.53179ZM8.61031 7.09328V5.6585C7.81841 5.6585 7.09019 5.94447 6.51883 6.51397L7.53171 7.53017L8.54459 8.54638C8.55551 8.5355 8.56159 8.53136 8.56239 8.53082C8.56301 8.53041 8.56159 8.53136 8.55918 8.53234C8.55684 8.53328 8.55778 8.53254 8.56406 8.53138C8.57062 8.53017 8.58539 8.52806 8.61031 8.52806V7.09328ZM7.53171 7.53017L6.51904 6.51376C5.94636 7.08433 5.65842 7.81351 5.65842 8.60716H7.0932H8.52799C8.52799 8.58259 8.53007 8.56827 8.53119 8.56222C8.53226 8.55646 8.53286 8.55605 8.53169 8.55892C8.53049 8.56186 8.52928 8.56375 8.52944 8.56352C8.52972 8.56309 8.53364 8.55729 8.54438 8.54659L7.53171 7.53017ZM7.0932 8.60716H5.65842C5.65842 9.39906 5.9444 10.1273 6.51389 10.6986L7.5301 9.68575L8.5463 8.67287C8.53542 8.66196 8.53128 8.65587 8.53075 8.65507C8.53033 8.65445 8.53128 8.65588 8.53226 8.65829C8.53321 8.66063 8.53247 8.65968 8.5313 8.6534C8.53009 8.64685 8.52799 8.63208 8.52799 8.60716H7.0932ZM7.5301 9.68575L6.51368 10.6984C7.08425 11.2711 7.81344 11.559 8.60708 11.559V10.1243V8.68948C8.58251 8.68948 8.56819 8.6874 8.56215 8.68627C8.55639 8.6852 8.55598 8.68461 8.55885 8.68578C8.56178 8.68697 8.56367 8.68819 8.56344 8.68803C8.56302 8.68774 8.55722 8.68383 8.54651 8.67308L7.5301 9.68575Z" fill="#2DA2DB" mask="url(#path-1-inside-1_10684_9061)"/>
</svg>
