<svg preserveAspectRatio="none" width="100%" height="100%" overflow="visible" style="display: block;" viewBox="0 0 40 40" fill="none" xmlns="http://www.w3.org/2000/svg">
<g id="double_arrow">
<g id="Vector">
<mask id="path-1-inside-1_0_73" fill="white">
<path d="M18.405 20L11.2029 10.3913C10.851 9.94264 10.8043 9.45931 11.0629 8.94125C11.3218 8.42292 11.7483 8.16375 12.3425 8.16375C12.5633 8.16375 12.7704 8.21736 12.9637 8.32458C13.1571 8.4318 13.3299 8.56819 13.4821 8.73375L21.9167 20L13.4821 31.2663C13.3299 31.4318 13.1571 31.5682 12.9637 31.6754C12.7704 31.7826 12.5633 31.8363 12.3425 31.8363C11.7694 31.8363 11.3551 31.584 11.0996 31.0796C10.8443 30.5754 10.8926 30.0818 11.2446 29.5988L18.405 20ZM29.3333 20L22.1212 10.3913C21.776 9.94264 21.731 9.45931 21.9862 8.94125C22.2418 8.42292 22.67 8.16375 23.2708 8.16375C23.4853 8.16375 23.689 8.21569 23.8821 8.31958C24.0754 8.42347 24.2482 8.55819 24.4004 8.72375L32.845 20L24.4004 31.2663C24.2482 31.4385 24.0754 31.5765 23.8821 31.6804C23.689 31.7843 23.4853 31.8363 23.2708 31.8363C22.6978 31.8363 22.2818 31.584 22.0229 31.0796C21.7643 30.5754 21.811 30.0851 22.1629 29.6088L29.3333 20Z"/>
</mask>
<path d="M18.405 20L20.8096 21.7938L22.151 19.9957L20.8055 18.2007L18.405 20ZM11.2029 10.3913L13.6035 8.59197L13.5836 8.56553L13.5632 8.53953L11.2029 10.3913ZM11.0629 8.94125L8.37906 7.60076L8.37877 7.60134L11.0629 8.94125ZM13.4821 8.73375L15.8836 6.93581L15.7929 6.81464L15.6905 6.70322L13.4821 8.73375ZM21.9167 20L24.3182 21.7979L25.6643 20L24.3182 18.2021L21.9167 20ZM13.4821 31.2663L15.6905 33.2968L15.7929 33.1854L15.8836 33.0642L13.4821 31.2663ZM11.0996 31.0796L8.42312 32.4348L8.42341 32.4354L11.0996 31.0796ZM11.2446 29.5988L8.83994 27.805L8.82984 27.8185L8.81988 27.8322L11.2446 29.5988ZM29.3333 20L31.7377 21.7942L33.0805 19.9948L31.7327 18.1991L29.3333 20ZM22.1212 10.3913L24.5206 8.59037L24.5097 8.57586L24.4986 8.56148L22.1212 10.3913ZM21.9862 8.94125L19.2955 7.61463L19.2952 7.61522L21.9862 8.94125ZM23.8821 8.31958L22.4605 10.9614L22.462 10.9622L23.8821 8.31958ZM24.4004 8.72375L26.8017 6.92547L26.7111 6.80449L26.6088 6.69322L24.4004 8.72375ZM32.845 20L35.2455 21.7993L36.5936 20.0008L35.2463 18.2017L32.845 20ZM24.4004 31.2663L26.6482 33.253L26.7284 33.1624L26.8009 33.0656L24.4004 31.2663ZM23.8821 31.6804L22.462 29.0378L22.4605 29.0386L23.8821 31.6804ZM22.0229 31.0796L19.3536 32.4488L19.3539 32.4494L22.0229 31.0796ZM22.1629 29.6087L19.7586 27.8145L19.7543 27.8203L19.75 27.8261L22.1629 29.6087ZM18.405 20L20.8055 18.2007L13.6035 8.59197L11.2029 10.3913L8.80238 12.1905L16.0045 21.7993L18.405 20ZM11.2029 10.3913L13.5632 8.53953C13.6782 8.68603 13.8493 8.98216 13.8901 9.40398C13.9305 9.82242 13.8203 10.1345 13.7471 10.2812L11.0629 8.94125L8.37877 7.60134C8.04693 8.2661 7.83078 9.07883 7.91784 9.98061C8.00524 10.8858 8.37572 11.6479 8.84259 12.243L11.2029 10.3913ZM11.0629 8.94125L13.7468 10.2817C13.665 10.4454 13.4782 10.7133 13.1348 10.9219C12.7959 11.1279 12.4893 11.1637 12.3425 11.1637V8.16375V5.16375C11.6015 5.16375 10.7846 5.3292 10.0191 5.79431C9.24925 6.26212 8.71967 6.91881 8.37906 7.60076L11.0629 8.94125ZM12.3425 8.16375V11.1637C12.0537 11.1637 11.7601 11.0875 11.5087 10.9481L12.9637 8.32458L14.4188 5.70104C13.7807 5.34719 13.073 5.16375 12.3425 5.16375V8.16375ZM12.9637 8.32458L11.5087 10.9481C11.4159 10.8966 11.3354 10.8313 11.2737 10.7643L13.4821 8.73375L15.6905 6.70322C15.3244 6.30505 14.8983 5.96699 14.4188 5.70104L12.9637 8.32458ZM13.4821 8.73375L11.0805 10.5317L19.5151 21.7979L21.9167 20L24.3182 18.2021L15.8836 6.93581L13.4821 8.73375ZM21.9167 20L19.5151 18.2021L11.0805 29.4683L13.4821 31.2663L15.8836 33.0642L24.3182 21.7979L21.9167 20ZM13.4821 31.2663L11.2737 29.2357C11.3354 29.1687 11.4159 29.1034 11.5087 29.0519L12.9637 31.6754L14.4188 34.299C14.8983 34.033 15.3244 33.695 15.6905 33.2968L13.4821 31.2663ZM12.9637 31.6754L11.5087 29.0519C11.7601 28.9125 12.0537 28.8363 12.3425 28.8363V31.8363V34.8363C13.073 34.8363 13.7807 34.6528 14.4188 34.299L12.9637 31.6754ZM12.3425 31.8363V28.8363C12.5053 28.8363 12.8198 28.8763 13.162 29.0846C13.5065 29.2943 13.6936 29.5617 13.7758 29.7238L11.0996 31.0796L8.42341 32.4354C8.76108 33.1019 9.28316 33.7476 10.042 34.2096C10.7985 34.6701 11.6066 34.8363 12.3425 34.8363V31.8363ZM11.0996 31.0796L13.776 29.7244C13.8691 29.9082 13.9689 30.227 13.9301 30.6236C13.8923 31.0091 13.7438 31.2631 13.6693 31.3653L11.2446 29.5988L8.81988 27.8322C8.39346 28.4174 8.04473 29.1598 7.95865 30.0389C7.87148 30.9291 8.07477 31.7468 8.42312 32.4348L11.0996 31.0796ZM11.2446 29.5988L13.6492 31.3925L20.8096 21.7938L18.405 20L16.0004 18.2062L8.83994 27.805L11.2446 29.5988ZM29.3333 20L31.7327 18.1991L24.5206 8.59037L22.1212 10.3913L19.7219 12.1921L26.934 21.8009L29.3333 20ZM22.1212 10.3913L24.4986 8.56148C24.6132 8.71038 24.7773 9.00296 24.8156 9.41419C24.8535 9.82122 24.7477 10.1244 24.6773 10.2673L21.9862 8.94125L19.2952 7.61522C18.9695 8.27614 18.7586 9.08003 18.8415 9.9704C18.9247 10.865 19.284 11.6235 19.7439 12.221L22.1212 10.3913ZM21.9862 8.94125L24.677 10.2679C24.5917 10.4409 24.4 10.7143 24.0525 10.9246C23.7119 11.1308 23.4078 11.1637 23.2708 11.1637V8.16375V5.16375C22.5331 5.16375 21.7145 5.32631 20.9457 5.79162C20.1699 6.26115 19.6364 6.92329 19.2955 7.61463L21.9862 8.94125ZM23.2708 8.16375V11.1637C22.9777 11.1637 22.6942 11.0871 22.4605 10.9614L23.8821 8.31958L25.3037 5.6778C24.6839 5.34424 23.9929 5.16375 23.2708 5.16375V8.16375ZM23.8821 8.31958L22.462 10.9622C22.3529 10.9036 22.2609 10.8292 22.192 10.7543L24.4004 8.72375L26.6088 6.69322C26.2355 6.28723 25.7979 5.94335 25.3021 5.67695L23.8821 8.31958ZM24.4004 8.72375L21.9991 10.522L30.4437 21.7983L32.845 20L35.2463 18.2017L26.8017 6.92547L24.4004 8.72375ZM32.845 20L30.4445 18.2007L21.9999 29.4669L24.4004 31.2663L26.8009 33.0656L35.2455 21.7993L32.845 20ZM24.4004 31.2663L22.1526 29.2795C22.2241 29.1986 22.3282 29.1097 22.462 29.0378L23.8821 31.6804L25.3021 34.323C25.8226 34.0434 26.2723 33.6784 26.6482 33.253L24.4004 31.2663ZM23.8821 31.6804L22.4605 29.0386C22.6942 28.9129 22.9777 28.8363 23.2708 28.8363V31.8363V34.8363C23.9929 34.8363 24.6839 34.6558 25.3037 34.3222L23.8821 31.6804ZM23.2708 31.8363V28.8363C23.4341 28.8363 23.7457 28.8764 24.0845 29.0818C24.4251 29.2883 24.6106 29.5512 24.6919 29.7098L22.0229 31.0796L19.3539 32.4494C19.6942 33.1124 20.217 33.7536 20.9736 34.2124C21.7284 34.67 22.5345 34.8363 23.2708 34.8363V31.8363ZM22.0229 31.0796L24.6922 29.7104C24.784 29.8894 24.8892 30.2111 24.8505 30.618C24.8126 31.0158 24.6577 31.2806 24.5759 31.3914L22.1629 29.6087L19.75 27.8261C19.3162 28.4133 18.962 29.1615 18.8775 30.0495C18.7921 30.9467 19.0032 31.7656 19.3536 32.4488L22.0229 31.0796ZM22.1629 29.6087L24.5672 31.403L31.7377 21.7942L29.3333 20L26.929 18.2058L19.7586 27.8145L22.1629 29.6087Z" fill="var(--stroke-0, #2DA2DB)" mask="url(#path-1-inside-1_0_73)"/>
</g>
</g>
</svg>
