<svg preserveAspectRatio="none" width="100%" height="100%" overflow="visible" style="display: block;" viewBox="0 0 40 40" fill="none" xmlns="http://www.w3.org/2000/svg">
<g id="location_on">
<path id="Vector" d="M19.9995 4.07454C23.33 4.07454 26.2541 5.23214 28.812 7.58529C31.3122 9.88518 32.5922 12.9762 32.5922 16.9701C32.5922 18.587 32.2366 20.206 31.5083 21.8333C30.7576 23.5108 29.8155 25.1181 28.6801 26.6556C27.5326 28.2095 26.2854 29.6592 24.9399 31.0052C23.57 32.376 22.2936 33.5876 21.1108 34.641L21.1001 34.6507L21.0893 34.6615C20.9566 34.787 20.8049 34.8773 20.6245 34.9359C20.3954 35.0102 20.1837 35.0433 19.9868 35.0433C19.7902 35.0433 19.5851 35.0099 19.3686 34.9378C19.1999 34.8816 19.0581 34.7953 18.9331 34.6732L18.9155 34.6556L18.8969 34.639L17.9887 33.8197C17.0634 32.9708 16.0871 32.0329 15.06 31.0052C13.7145 29.6592 12.4673 28.2095 11.3198 26.6556C10.3266 25.3106 9.4826 23.9123 8.78658 22.4603L8.49752 21.8343C7.77226 20.2068 7.41744 18.5876 7.41744 16.9701C7.41751 12.9758 8.6958 9.8841 11.1928 7.58431C13.747 5.23165 16.6692 4.07465 19.9995 4.07454ZM19.9995 4.92318C16.7315 4.92319 13.9317 6.05348 11.6635 8.30892C9.3789 10.5808 8.25638 13.4969 8.25631 16.9701C8.25631 19.382 9.26421 21.9804 11.1147 24.7367C12.966 27.494 15.7106 30.5522 19.3188 33.9085L19.9917 34.5345L20.6723 33.9173C24.366 30.5664 27.1392 27.5043 28.9545 24.7327C30.7622 21.9728 31.7436 19.3755 31.7436 16.9701C31.7435 13.4969 30.621 10.5808 28.3364 8.30892C26.0677 6.05356 23.2675 4.92318 19.9995 4.92318ZM19.9965 14.6712C20.563 14.6713 21.0167 14.8581 21.4135 15.2533C21.809 15.647 21.9965 16.0982 21.9965 16.6634C21.9965 17.2298 21.8088 17.6808 21.4155 18.0736C21.0222 18.4662 20.5704 18.6536 20.0034 18.6536C19.435 18.6536 18.9835 18.4659 18.5913 18.0755C18.2007 17.6862 18.0142 17.2377 18.0141 16.6712C18.0141 16.1028 18.2001 15.6477 18.5922 15.2513L18.5932 15.2523C18.9832 14.8585 19.4314 14.6712 19.9965 14.6712Z" stroke="var(--stroke-0, #2DA2DB)" stroke-width="2"/>
</g>
</svg>
