<svg preserveAspectRatio="none" width="100%" height="100%" overflow="visible" style="display: block;" viewBox="0 0 40 40" fill="none" xmlns="http://www.w3.org/2000/svg">
<g id="data_object">
<g id="Vector">
<mask id="path-1-inside-1_0_92" fill="white">
<path d="M25.3187 33.5825C24.9157 33.5825 24.5785 33.4454 24.3071 33.1712C24.0354 32.8971 23.8996 32.5578 23.8996 32.1533C23.8996 31.7489 24.0337 31.4144 24.3021 31.15C24.5704 30.8858 24.9093 30.7537 25.3187 30.7537H28.5708C29.1875 30.7537 29.7054 30.544 30.1246 30.1246C30.544 29.7051 30.7537 29.1839 30.7537 28.5608V24.6233C30.7537 23.5919 31.0662 22.6678 31.6912 21.8508C32.3162 21.0336 33.1215 20.4722 34.1071 20.1667V19.8333C33.1215 19.5556 32.3162 19.0011 31.6912 18.17C31.0662 17.3392 30.7537 16.4081 30.7537 15.3767V11.4292C30.7537 10.8125 30.544 10.2946 30.1246 9.87542C29.7054 9.45597 29.1875 9.24625 28.5708 9.24625H25.3187C24.9157 9.24625 24.5785 9.10917 24.3071 8.835C24.0354 8.56083 23.8996 8.22153 23.8996 7.81708C23.8996 7.41292 24.0337 7.07694 24.3021 6.80917C24.5704 6.54139 24.9093 6.4075 25.3187 6.4075H28.8196C30.1487 6.4075 31.2765 6.87305 32.2029 7.80417C33.1293 8.73528 33.5925 9.86403 33.5925 11.1904V15.1279C33.5925 15.751 33.8006 16.2722 34.2167 16.6917C34.6328 17.1111 35.1524 17.3208 35.7754 17.3208C36.0968 17.3208 36.3689 17.4308 36.5917 17.6508C36.8144 17.8708 36.9258 18.1419 36.9258 18.4642V21.5379C36.9258 21.8668 36.8144 22.1393 36.5917 22.3554C36.3689 22.5712 36.0968 22.6792 35.7754 22.6792C35.1524 22.6792 34.6328 22.8889 34.2167 23.3083C33.8006 23.7275 33.5925 24.2456 33.5925 24.8625V28.8096C33.5925 30.136 33.1293 31.2631 32.2029 32.1908C31.2765 33.1186 30.1487 33.5825 28.8196 33.5825H25.3187ZM11.1804 33.5825C9.85125 33.5825 8.72514 33.1186 7.80208 32.1908C6.87903 31.2631 6.4175 30.136 6.4175 28.8096V24.8625C6.4175 24.2456 6.20792 23.7275 5.78875 23.3083C5.36958 22.8889 4.85153 22.6792 4.23458 22.6792C3.90375 22.6792 3.62931 22.5699 3.41125 22.3512C3.19319 22.1326 3.08417 21.8575 3.08417 21.5258V18.4621C3.08417 18.1304 3.19319 17.8572 3.41125 17.6425C3.62931 17.4281 3.90375 17.3208 4.23458 17.3208C4.85153 17.3208 5.36958 17.1111 5.78875 16.6917C6.20792 16.2722 6.4175 15.751 6.4175 15.1279V11.1904C6.4175 9.86403 6.87903 8.73528 7.80208 7.80417C8.72514 6.87305 9.85125 6.4075 11.1804 6.4075H14.6812C15.0776 6.4075 15.4117 6.54625 15.6833 6.82375C15.9547 7.10125 16.0904 7.44222 16.0904 7.84667C16.0904 8.25111 15.9562 8.58556 15.6879 8.85C15.4199 9.11417 15.0843 9.24625 14.6812 9.24625H11.4392C10.8161 9.24625 10.2949 9.45597 9.87542 9.87542C9.45597 10.2946 9.24625 10.8125 9.24625 11.4292V15.3767C9.24625 16.4092 8.93361 17.3412 8.30833 18.1729C7.68305 19.0049 6.88125 19.5583 5.90292 19.8333V20.1712C6.88125 20.4732 7.68305 21.0321 8.30833 21.8479C8.93361 22.6637 9.24625 23.5889 9.24625 24.6233V28.5608C9.24625 29.1839 9.45597 29.7051 9.87542 30.1246C10.2949 30.544 10.8161 30.7537 11.4392 30.7537H14.6812C15.0776 30.7537 15.4117 30.8908 15.6833 31.165C15.9547 31.4392 16.0904 31.7785 16.0904 32.1829C16.0904 32.5871 15.9562 32.9214 15.6879 33.1858C15.4199 33.4503 15.0843 33.5825 14.6812 33.5825H11.1804Z"/>
</mask>
<path d="M24.3071 33.1712L26.4392 31.0608L26.4381 31.0597L24.3071 33.1712ZM24.3021 31.15L22.1974 29.0121L22.1963 29.0132L24.3021 31.15ZM30.1246 30.1246L28.0033 28.0033L28.0026 28.004L30.1246 30.1246ZM31.6912 21.8508L34.0739 23.6737L34.0742 23.6733L31.6912 21.8508ZM34.1071 20.1667L34.9955 23.0321L37.1071 22.3774V20.1667H34.1071ZM34.1071 19.8333H37.1071V17.562L34.9209 16.9458L34.1071 19.8333ZM31.6912 18.17L34.0889 16.3669L34.0886 16.3665L31.6912 18.17ZM30.1246 9.87542L28.0026 11.996L28.004 11.9974L30.1246 9.87542ZM24.3071 8.835L26.4392 6.72451L26.4381 6.72342L24.3071 8.835ZM25.3187 6.4075V9.4075V6.4075ZM36.5917 22.3554L38.6791 24.5101L38.6805 24.5087L36.5917 22.3554ZM34.2167 23.3083L36.3457 25.4219L36.3464 25.4212L34.2167 23.3083ZM5.78875 23.3083L3.66673 25.4289L3.66743 25.4297L5.78875 23.3083ZM3.41125 17.6425L1.30771 15.5035L1.30633 15.5049L3.41125 17.6425ZM15.6833 6.82375L17.8281 4.72618L17.8271 4.72508L15.6833 6.82375ZM15.6879 8.85L17.7937 10.9868L17.7937 10.9867L15.6879 8.85ZM9.87542 9.87542L11.996 11.9974L11.9967 11.9967L9.87542 9.87542ZM8.30833 18.1729L5.91045 16.3701L5.91016 16.3705L8.30833 18.1729ZM5.90292 19.8333L5.09111 16.9453L2.90292 17.5603V19.8333H5.90292ZM5.90292 20.1712H2.90292V22.385L5.0182 23.0378L5.90292 20.1712ZM15.6833 31.165L17.8154 29.0545L17.8143 29.0534L15.6833 31.165ZM15.6879 33.1858L13.5821 31.0491L13.581 31.0502L15.6879 33.1858ZM25.3187 33.5825V30.5825C25.463 30.5825 25.6665 30.6083 25.8933 30.7005C26.1227 30.7938 26.3067 30.927 26.4392 31.0608L24.3071 33.1712L22.175 35.2817C23.0374 36.153 24.1548 36.5825 25.3187 36.5825V33.5825ZM24.3071 33.1712L26.4381 31.0597C26.5687 31.1915 26.6971 31.3726 26.7866 31.5962C26.875 31.8171 26.8996 32.0143 26.8996 32.1533H23.8996H20.8996C20.8996 33.3066 21.3188 34.4176 22.1761 35.2828L24.3071 33.1712ZM23.8996 32.1533H26.8996C26.8996 32.2871 26.8763 32.4873 26.7845 32.7161C26.691 32.9493 26.554 33.1428 26.4079 33.2867L24.3021 31.15L22.1963 29.0132C21.3108 29.8859 20.8996 31.0111 20.8996 32.1533H23.8996ZM24.3021 31.15L26.4067 33.2879C26.2611 33.4312 26.0705 33.5609 25.8469 33.648C25.6282 33.7333 25.4402 33.7537 25.3187 33.7537V30.7537V27.7537C24.1974 27.7537 23.0787 28.1446 22.1974 29.0121L24.3021 31.15ZM25.3187 30.7537V33.7537H28.5708V30.7537V27.7537H25.3187V30.7537ZM28.5708 30.7537V33.7537C29.948 33.7537 31.2402 33.2523 32.2466 32.2452L30.1246 30.1246L28.0026 28.004C28.0597 27.9468 28.1593 27.871 28.2958 27.8158C28.4299 27.7615 28.5333 27.7537 28.5708 27.7537V30.7537ZM30.1246 30.1246L32.2459 32.2459C33.2587 31.2331 33.7537 29.935 33.7537 28.5608H30.7537H27.7537C27.7537 28.5305 27.7601 28.4314 27.8133 28.2993C27.8676 28.1642 27.9433 28.0632 28.0033 28.0033L30.1246 30.1246ZM30.7537 28.5608H33.7537V24.6233H30.7537H27.7537V28.5608H30.7537ZM30.7537 24.6233H33.7537C33.7537 24.2489 33.8505 23.9658 34.0739 23.6737L31.6912 21.8508L29.3086 20.028C28.282 21.3698 27.7537 22.935 27.7537 24.6233H30.7537ZM31.6912 21.8508L34.0742 23.6733C34.3201 23.3519 34.6023 23.154 34.9955 23.0321L34.1071 20.1667L33.2187 17.3012C31.6407 17.7905 30.3124 18.7154 29.3083 20.0284L31.6912 21.8508ZM34.1071 20.1667H37.1071V19.8333H34.1071H31.1071V20.1667H34.1071ZM34.1071 19.8333L34.9209 16.9458C34.5784 16.8493 34.3256 16.6817 34.0889 16.3669L31.6912 18.17L29.2936 19.9731C30.3069 21.3205 31.6647 22.2618 33.2932 22.7208L34.1071 19.8333ZM31.6912 18.17L34.0886 16.3665C33.8514 16.0511 33.7537 15.7518 33.7537 15.3767H30.7537H27.7537C27.7537 17.0643 28.2811 18.6272 29.2938 19.9735L31.6912 18.17ZM30.7537 15.3767H33.7537V11.4292H30.7537H27.7537V15.3767H30.7537ZM30.7537 11.4292H33.7537C33.7537 10.052 33.2523 8.75981 32.2452 7.75339L30.1246 9.87542L28.004 11.9974C27.9468 11.9403 27.871 11.8407 27.8158 11.7042C27.7615 11.5701 27.7537 11.4667 27.7537 11.4292H30.7537ZM30.1246 9.87542L32.2466 7.7548C31.2402 6.74772 29.948 6.24625 28.5708 6.24625V9.24625V12.2462C28.5333 12.2462 28.4299 12.2385 28.2958 12.1842C28.1593 12.129 28.0597 12.0532 28.0026 11.996L30.1246 9.87542ZM28.5708 9.24625V6.24625H25.3187V9.24625V12.2462H28.5708V9.24625ZM25.3187 9.24625V6.24625C25.463 6.24625 25.6665 6.27209 25.8933 6.36429C26.1227 6.45756 26.3067 6.59072 26.4392 6.72451L24.3071 8.835L22.175 10.9455C23.0374 11.8167 24.1548 12.2462 25.3187 12.2462V9.24625ZM24.3071 8.835L26.4381 6.72342C26.5687 6.8552 26.6971 7.03632 26.7866 7.25994C26.875 7.48082 26.8996 7.6781 26.8996 7.81708H23.8996H20.8996C20.8996 8.97031 21.3188 10.0814 22.1761 10.9466L24.3071 8.835ZM23.8996 7.81708H26.8996C26.8996 7.95153 26.8762 8.14949 26.7863 8.37456C26.6949 8.60344 26.5617 8.7925 26.4212 8.93268L24.3021 6.80917L22.183 4.68565C21.3106 5.55619 20.8996 6.67463 20.8996 7.81708H23.8996ZM24.3021 6.80917L26.4212 8.93268C26.2774 9.07614 26.0867 9.20844 25.8598 9.29806C25.6375 9.38588 25.4449 9.4075 25.3187 9.4075V6.4075V3.4075C24.185 3.4075 23.0616 3.80886 22.183 4.68565L24.3021 6.80917ZM25.3187 6.4075V9.4075H28.8196V6.4075V3.4075H25.3187V6.4075ZM28.8196 6.4075V9.4075C29.3612 9.4075 29.7204 9.56246 30.0762 9.92009L32.2029 7.80417L34.3296 5.68824C32.8327 4.18365 30.9363 3.4075 28.8196 3.4075V6.4075ZM32.2029 7.80417L30.0762 9.92009C30.4371 10.2828 30.5925 10.6483 30.5925 11.1904H33.5925H36.5925C36.5925 9.07979 35.8215 7.18771 34.3296 5.68824L32.2029 7.80417ZM33.5925 11.1904H30.5925V15.1279H33.5925H36.5925V11.1904H33.5925ZM33.5925 15.1279H30.5925C30.5925 16.4946 31.0805 17.79 32.0869 18.8045L34.2167 16.6917L36.3464 14.5788C36.407 14.6398 36.4816 14.7408 36.5348 14.874C36.5867 15.0041 36.5925 15.1005 36.5925 15.1279H33.5925ZM34.2167 16.6917L32.0869 18.8045C33.0996 19.8253 34.4011 20.3208 35.7754 20.3208V17.3208V14.3208C35.8056 14.3208 35.9064 14.3272 36.0413 14.3816C36.1795 14.4374 36.2836 14.5155 36.3464 14.5788L34.2167 16.6917ZM35.7754 17.3208V20.3208C35.5875 20.3208 35.3499 20.2873 35.0961 20.1846C34.8407 20.0814 34.6351 19.935 34.4837 19.7854L36.5917 17.6508L38.6996 15.5162C37.899 14.7256 36.8626 14.3208 35.7754 14.3208V17.3208ZM36.5917 17.6508L34.4837 19.7854C34.328 19.6317 34.1752 19.4216 34.0674 19.1593C33.9603 18.8987 33.9258 18.6551 33.9258 18.4642H36.9258H39.9258C39.9258 17.366 39.5116 16.3181 38.6996 15.5162L36.5917 17.6508ZM36.9258 18.4642H33.9258V21.5379H36.9258H39.9258V18.4642H36.9258ZM36.9258 21.5379H33.9258C33.9258 21.3587 33.9574 21.1178 34.0653 20.8538C34.1747 20.5862 34.3335 20.3664 34.5028 20.2021L36.5917 22.3554L38.6805 24.5087C39.5234 23.6911 39.9258 22.6243 39.9258 21.5379H36.9258ZM36.5917 22.3554L34.5042 20.2008C34.6581 20.0516 34.8635 19.9091 35.1145 19.8096C35.3635 19.7108 35.5946 19.6792 35.7754 19.6792V22.6792V25.6792C36.8447 25.6792 37.8746 25.2895 38.6791 24.5101L36.5917 22.3554ZM35.7754 22.6792V19.6792C34.4011 19.6792 33.0996 20.1747 32.0869 21.1955L34.2167 23.3083L36.3464 25.4212C36.2836 25.4845 36.1795 25.5626 36.0413 25.6184C35.9064 25.6728 35.8056 25.6792 35.7754 25.6792V22.6792ZM34.2167 23.3083L32.0876 21.1948C31.0866 22.2032 30.5925 23.493 30.5925 24.8625H33.5925H36.5925C36.5925 24.8968 36.5854 24.9973 36.5324 25.1293C36.4784 25.2638 36.4037 25.3635 36.3457 25.4219L34.2167 23.3083ZM33.5925 24.8625H30.5925V28.8096H33.5925H36.5925V24.8625H33.5925ZM33.5925 28.8096H30.5925C30.5925 29.3515 30.4374 29.7131 30.08 30.0711L32.2029 32.1908L34.3258 34.3106C35.8212 32.813 36.5925 30.9204 36.5925 28.8096H33.5925ZM32.2029 32.1908L30.08 30.0711C29.725 30.4266 29.3647 30.5825 28.8196 30.5825V33.5825V36.5825C30.9328 36.5825 32.828 35.8106 34.3258 34.3106L32.2029 32.1908ZM28.8196 33.5825V30.5825H25.3187V33.5825V36.5825H28.8196V33.5825ZM11.1804 33.5825V30.5825C10.6356 30.5825 10.279 30.4269 9.92881 30.0749L7.80208 32.1908L5.67536 34.3067C7.17125 35.8103 9.06695 36.5825 11.1804 36.5825V33.5825ZM7.80208 32.1908L9.92881 30.0749C9.57346 29.7178 9.4175 29.355 9.4175 28.8096H6.4175H3.4175C3.4175 30.917 4.18459 32.8083 5.67536 34.3067L7.80208 32.1908ZM6.4175 28.8096H9.4175V24.8625H6.4175H3.4175V28.8096H6.4175ZM6.4175 24.8625H9.4175C9.4175 23.4861 8.91691 22.1939 7.91007 21.187L5.78875 23.3083L3.66743 25.4297C3.61007 25.3723 3.5344 25.2726 3.47927 25.1363C3.42511 25.0025 3.4175 24.8995 3.4175 24.8625H6.4175ZM5.78875 23.3083L7.91077 21.1877C6.90408 20.1804 5.61164 19.6792 4.23458 19.6792V22.6792V25.6792C4.19735 25.6792 4.09414 25.6715 3.9601 25.6172C3.82369 25.562 3.72399 25.4862 3.66673 25.4289L5.78875 23.3083ZM4.23458 22.6792V19.6792C4.40389 19.6792 4.63481 19.7082 4.89066 19.8101C5.15062 19.9136 5.36874 20.0657 5.53527 20.2326L3.41125 22.3512L1.28723 24.4699C2.11113 25.2959 3.16983 25.6792 4.23458 25.6792V22.6792ZM3.41125 22.3512L5.53527 20.2326C5.70181 20.3996 5.85255 20.6174 5.95494 20.8758C6.05567 21.1299 6.08417 21.3588 6.08417 21.5258H3.08417H0.0841663C0.0841663 22.5867 0.463847 23.6444 1.28723 24.4699L3.41125 22.3512ZM3.08417 21.5258H6.08417V18.4621H3.08417H0.0841663V21.5258H3.08417ZM3.08417 18.4621H6.08417C6.08417 18.6288 6.05577 18.861 5.95225 19.1204C5.84676 19.3847 5.69054 19.6084 5.51617 19.7801L3.41125 17.6425L1.30633 15.5049C0.464676 16.3337 0.0841663 17.4012 0.0841663 18.4621H3.08417ZM3.41125 17.6425L5.51479 19.7815C5.34558 19.9479 5.12765 20.0958 4.87232 20.1956C4.62149 20.2936 4.39705 20.3208 4.23458 20.3208V17.3208V14.3208C3.18761 14.3208 2.13543 14.6895 1.30771 15.5035L3.41125 17.6425ZM4.23458 17.3208V20.3208C5.61165 20.3208 6.90408 19.8196 7.91077 18.8123L5.78875 16.6917L3.66673 14.571C3.72399 14.5137 3.82369 14.438 3.9601 14.3828C4.09414 14.3285 4.19734 14.3208 4.23458 14.3208V17.3208ZM5.78875 16.6917L7.91077 18.8123C8.92305 17.7993 9.4175 16.5014 9.4175 15.1279H6.4175H3.4175C3.4175 15.0978 3.42381 14.999 3.47688 14.867C3.53114 14.732 3.60676 14.6311 3.66673 14.571L5.78875 16.6917ZM6.4175 15.1279H9.4175V11.1904H6.4175H3.4175V15.1279H6.4175ZM6.4175 11.1904H9.4175C9.4175 10.6448 9.57377 10.2782 9.9326 9.91625L7.80208 7.80417L5.67157 5.69208C4.18429 7.19234 3.4175 9.08324 3.4175 11.1904H6.4175ZM7.80208 7.80417L9.9326 9.91625C10.2836 9.56214 10.639 9.4075 11.1804 9.4075V6.4075V3.4075C9.06348 3.4075 7.16663 4.18397 5.67157 5.69208L7.80208 7.80417ZM11.1804 6.4075V9.4075H14.6812V6.4075V3.4075H11.1804V6.4075ZM14.6812 6.4075V9.4075C14.5225 9.4075 14.3096 9.37814 14.0782 9.28205C13.8456 9.18543 13.6651 9.05063 13.5396 8.92242L15.6833 6.82375L17.8271 4.72508C16.978 3.85783 15.8655 3.4075 14.6812 3.4075V6.4075ZM15.6833 6.82375L13.5385 8.92132C13.413 8.79299 13.2885 8.61608 13.2013 8.39688C13.115 8.18004 13.0904 7.9855 13.0904 7.84667H16.0904H19.0904C19.0904 6.69472 18.6728 5.58986 17.8281 4.72618L15.6833 6.82375ZM16.0904 7.84667H13.0904C13.0904 7.71288 13.1137 7.51268 13.2055 7.28387C13.299 7.05073 13.436 6.85723 13.5821 6.71325L15.6879 8.85L17.7937 10.9867C18.6792 10.1141 19.0904 8.98886 19.0904 7.84667H16.0904ZM15.6879 8.85L13.5822 6.71324C13.7234 6.57405 13.9114 6.44421 14.1364 6.35566C14.3574 6.26866 14.5508 6.24625 14.6812 6.24625V9.24625V12.2462C15.8106 12.2462 16.9218 11.846 17.7937 10.9868L15.6879 8.85ZM14.6812 9.24625V6.24625H11.4392V9.24625V12.2462H14.6812V9.24625ZM11.4392 9.24625V6.24625C10.065 6.24625 8.76691 6.74128 7.7541 7.7541L9.87542 9.87542L11.9967 11.9967C11.9368 12.0567 11.8358 12.1324 11.7007 12.1867C11.5686 12.2399 11.4695 12.2462 11.4392 12.2462V9.24625ZM9.87542 9.87542L7.7548 7.75339C6.74771 8.75981 6.24625 10.052 6.24625 11.4292H9.24625H12.2462C12.2462 11.4667 12.2385 11.5701 12.1842 11.7042C12.129 11.8407 12.0532 11.9403 11.996 11.9974L9.87542 9.87542ZM9.24625 11.4292H6.24625V15.3767H9.24625H12.2462V11.4292H9.24625ZM9.24625 15.3767H6.24625C6.24625 15.7534 6.1482 16.0539 5.91045 16.3701L8.30833 18.1729L10.7062 19.9757C11.719 18.6286 12.2462 17.0649 12.2462 15.3767H9.24625ZM8.30833 18.1729L5.91016 16.3705C5.67001 16.69 5.41963 16.8529 5.09111 16.9453L5.90292 19.8333L6.71473 22.7214C8.34287 22.2637 9.6961 21.3197 10.7065 19.9753L8.30833 18.1729ZM5.90292 19.8333H2.90292V20.1712H5.90292H8.90292V19.8333H5.90292ZM5.90292 20.1712L5.0182 23.0378C5.39925 23.1554 5.67901 23.349 5.92724 23.6729L8.30833 21.8479L10.6894 20.023C9.6871 18.7152 8.36325 17.791 6.78763 17.3047L5.90292 20.1712ZM8.30833 21.8479L5.92724 23.6729C6.14838 23.9614 6.24625 24.2441 6.24625 24.6233H9.24625H12.2462C12.2462 22.9336 11.7188 21.3661 10.6894 20.023L8.30833 21.8479ZM9.24625 24.6233H6.24625V28.5608H9.24625H12.2462V24.6233H9.24625ZM9.24625 28.5608H6.24625C6.24625 29.9349 6.74128 31.2331 7.7541 32.2459L9.87542 30.1246L11.9967 28.0033C12.0567 28.0632 12.1324 28.1642 12.1867 28.2993C12.2399 28.4314 12.2462 28.5305 12.2462 28.5608H9.24625ZM9.87542 30.1246L7.7541 32.2459C8.76691 33.2587 10.0651 33.7537 11.4392 33.7537V30.7537V27.7537C11.4695 27.7537 11.5686 27.7601 11.7007 27.8133C11.8358 27.8676 11.9368 27.9433 11.9967 28.0033L9.87542 30.1246ZM11.4392 30.7537V33.7537H14.6812V30.7537V27.7537H11.4392V30.7537ZM14.6812 30.7537V33.7537C14.5271 33.7537 14.3183 33.7256 14.0901 33.6319C13.8601 33.5376 13.6796 33.405 13.5523 33.2766L15.6833 31.165L17.8143 29.0534C16.9625 28.1937 15.8538 27.7537 14.6812 27.7537V30.7537ZM15.6833 31.165L13.5512 33.2755C13.4207 33.1436 13.2925 32.9625 13.2031 32.7391C13.1149 32.5185 13.0904 32.3215 13.0904 32.1829H16.0904H19.0904C19.0904 31.0306 18.672 29.9199 17.8154 29.0545L15.6833 31.165ZM16.0904 32.1829H13.0904C13.0904 32.0487 13.1138 31.8483 13.2056 31.6194C13.2992 31.3862 13.4363 31.1929 13.5821 31.0491L15.6879 33.1858L17.7937 35.3226C18.6787 34.4504 19.0904 33.3255 19.0904 32.1829H16.0904ZM15.6879 33.1858L13.581 31.0502C13.7221 30.911 13.9102 30.7809 14.1354 30.6922C14.3567 30.605 14.5504 30.5825 14.6812 30.5825V33.5825V36.5825C15.8116 36.5825 16.9231 36.1814 17.7948 35.3215L15.6879 33.1858ZM14.6812 33.5825V30.5825H11.1804V33.5825V36.5825H14.6812V33.5825Z" fill="var(--stroke-0, #2DA2DB)" mask="url(#path-1-inside-1_0_92)"/>
</g>
</g>
</svg>
