<svg width="100%" height="100%" overflow="visible" style="display: block;" viewBox="0 0 20.1116 20" fill="none" xmlns="http://www.w3.org/2000/svg">
<g id="zone_person_urgent">
<g id="Vector">
<mask id="path-1-inside-1_0_17" fill="white">
<path d="M1.54208 4.12354V2.12813C1.54208 1.7434 1.68285 1.40986 1.96437 1.1275C2.24576 0.845 2.57812 0.70375 2.96146 0.70375H4.95687C5.15729 0.70375 5.32569 0.773263 5.46208 0.912291C5.59847 1.05146 5.66667 1.22153 5.66667 1.4225C5.66667 1.62361 5.59847 1.79153 5.46208 1.92625C5.32569 2.06083 5.15729 2.12813 4.95687 2.12813H2.96146V4.12354C2.96146 4.32396 2.89292 4.49236 2.75583 4.62875C2.61875 4.76514 2.44951 4.83333 2.24812 4.83333C2.04674 4.83333 1.87875 4.76514 1.74417 4.62875C1.60944 4.49236 1.54208 4.32396 1.54208 4.12354ZM2.96146 17.6246C2.57812 17.6246 2.24576 17.4838 1.96437 17.2023C1.68285 16.9209 1.54208 16.5885 1.54208 16.2052V14.2098C1.54208 14.0094 1.61062 13.841 1.74771 13.7046C1.88479 13.5682 2.05403 13.5 2.25542 13.5C2.45681 13.5 2.62486 13.5682 2.75958 13.7046C2.89417 13.841 2.96146 14.0094 2.96146 14.2098V16.2052H4.95687C5.15729 16.2052 5.32569 16.2737 5.46208 16.4108C5.59847 16.5479 5.66667 16.7172 5.66667 16.9185C5.66667 17.1199 5.59847 17.2879 5.46208 17.4225C5.32569 17.5572 5.15729 17.6246 4.95687 17.6246H2.96146ZM17.0385 4.12354V2.12813H15.0431C14.8427 2.12813 14.6743 2.05958 14.5379 1.9225C14.4015 1.78542 14.3333 1.61632 14.3333 1.41521C14.3333 1.2141 14.4015 1.04528 14.5379 0.90875C14.6743 0.772083 14.8427 0.70375 15.0431 0.70375H17.0385C17.4233 0.70375 17.7568 0.845 18.0392 1.1275C18.3217 1.40986 18.4629 1.7434 18.4629 2.12813V4.12354C18.4629 4.32396 18.3934 4.49236 18.2544 4.62875C18.1152 4.76514 17.9451 4.83333 17.7442 4.83333C17.5431 4.83333 17.3751 4.76514 17.2404 4.62875C17.1058 4.49236 17.0385 4.32396 17.0385 4.12354ZM11.2394 6.73687C10.8033 6.73687 10.4309 6.58236 10.1223 6.27333C9.81368 5.96431 9.65937 5.59174 9.65937 5.15562C9.65937 4.71951 9.81312 4.34715 10.1206 4.03854C10.4281 3.72993 10.7999 3.57563 11.236 3.57563C11.6723 3.57563 12.0446 3.72958 12.3529 4.0375C12.6614 4.34528 12.8156 4.71764 12.8156 5.15458C12.8156 5.59014 12.6619 5.96271 12.3546 6.27229C12.0474 6.58201 11.6756 6.73687 11.2394 6.73687ZM7.36271 14.2608L8.30125 9.45979L6.3175 10.399V12.491C6.3175 12.6847 6.25146 12.8463 6.11937 12.976C5.98729 13.1059 5.82472 13.1708 5.63167 13.1708C5.43847 13.1708 5.27708 13.1051 5.1475 12.9735C5.01778 12.8422 4.95292 12.6797 4.95292 12.486V9.94646C4.95292 9.79674 4.99174 9.66313 5.06937 9.54563C5.14701 9.42826 5.25312 9.33924 5.38771 9.27854L8.43771 8.01917C8.8909 7.82403 9.21264 7.70042 9.40292 7.64833C9.59319 7.59625 9.7825 7.57021 9.97083 7.57021C10.2647 7.57021 10.5235 7.6334 10.7471 7.75979C10.9707 7.88618 11.1606 8.07069 11.3167 8.31333L12.2015 9.70917C12.4277 10.0571 12.699 10.384 13.0154 10.6898C13.3318 10.9956 13.6831 11.2424 14.0694 11.4302L13.3896 12.5923C13.0133 12.3834 12.6554 12.1222 12.3158 11.8088C11.9762 11.4953 11.6468 11.1197 11.3275 10.6821L10.4615 14.2608H7.36271ZM12.7083 18.4579C12.439 18.4579 12.2362 18.3335 12.0998 18.0848C11.9635 17.8359 11.9609 17.5993 12.0919 17.375L15.4252 11.5575C15.5497 11.2915 15.7508 11.168 16.0287 11.1869C16.3067 11.2058 16.5234 11.324 16.679 11.5417L20.0123 17.375C20.1505 17.6132 20.1444 17.8533 19.9942 18.0952C19.8437 18.337 19.6374 18.4579 19.375 18.4579H12.7083ZM16.0417 17.6346C16.1417 17.6346 16.2278 17.5976 16.3002 17.5238C16.3727 17.4499 16.409 17.3636 16.409 17.265C16.409 17.1665 16.3727 17.0802 16.3002 17.006C16.2278 16.932 16.1417 16.895 16.0417 16.895C15.9417 16.895 15.8555 16.9322 15.7831 17.0067C15.7106 17.0811 15.6744 17.168 15.6744 17.2673C15.6744 17.3652 15.7106 17.4509 15.7831 17.5244C15.8555 17.5978 15.9417 17.6346 16.0417 17.6346ZM16.0417 16.1608C16.1417 16.1608 16.2278 16.1241 16.3002 16.0506C16.3727 15.9772 16.409 15.8915 16.409 15.7935V13.0606C16.409 12.9627 16.3727 12.877 16.3002 12.8035C16.2278 12.7301 16.1417 12.6933 16.0417 12.6933C15.9417 12.6933 15.8555 12.7301 15.7831 12.8035C15.7106 12.877 15.6744 12.9627 15.6744 13.0606V15.7935C15.6744 15.8915 15.7106 15.9772 15.7831 16.0506C15.8555 16.1241 15.9417 16.1608 16.0417 16.1608Z"/>
</mask>
<path d="M1.54208 4.12354V2.12813C1.54208 1.7434 1.68285 1.40986 1.96437 1.1275C2.24576 0.845 2.57812 0.70375 2.96146 0.70375H4.95687C5.15729 0.70375 5.32569 0.773263 5.46208 0.912291C5.59847 1.05146 5.66667 1.22153 5.66667 1.4225C5.66667 1.62361 5.59847 1.79153 5.46208 1.92625C5.32569 2.06083 5.15729 2.12813 4.95687 2.12813H2.96146V4.12354C2.96146 4.32396 2.89292 4.49236 2.75583 4.62875C2.61875 4.76514 2.44951 4.83333 2.24812 4.83333C2.04674 4.83333 1.87875 4.76514 1.74417 4.62875C1.60944 4.49236 1.54208 4.32396 1.54208 4.12354ZM2.96146 17.6246C2.57812 17.6246 2.24576 17.4838 1.96437 17.2023C1.68285 16.9209 1.54208 16.5885 1.54208 16.2052V14.2098C1.54208 14.0094 1.61062 13.841 1.74771 13.7046C1.88479 13.5682 2.05403 13.5 2.25542 13.5C2.45681 13.5 2.62486 13.5682 2.75958 13.7046C2.89417 13.841 2.96146 14.0094 2.96146 14.2098V16.2052H4.95687C5.15729 16.2052 5.32569 16.2737 5.46208 16.4108C5.59847 16.5479 5.66667 16.7172 5.66667 16.9185C5.66667 17.1199 5.59847 17.2879 5.46208 17.4225C5.32569 17.5572 5.15729 17.6246 4.95687 17.6246H2.96146ZM17.0385 4.12354V2.12813H15.0431C14.8427 2.12813 14.6743 2.05958 14.5379 1.9225C14.4015 1.78542 14.3333 1.61632 14.3333 1.41521C14.3333 1.2141 14.4015 1.04528 14.5379 0.90875C14.6743 0.772083 14.8427 0.70375 15.0431 0.70375H17.0385C17.4233 0.70375 17.7568 0.845 18.0392 1.1275C18.3217 1.40986 18.4629 1.7434 18.4629 2.12813V4.12354C18.4629 4.32396 18.3934 4.49236 18.2544 4.62875C18.1152 4.76514 17.9451 4.83333 17.7442 4.83333C17.5431 4.83333 17.3751 4.76514 17.2404 4.62875C17.1058 4.49236 17.0385 4.32396 17.0385 4.12354ZM11.2394 6.73687C10.8033 6.73687 10.4309 6.58236 10.1223 6.27333C9.81368 5.96431 9.65937 5.59174 9.65937 5.15562C9.65937 4.71951 9.81312 4.34715 10.1206 4.03854C10.4281 3.72993 10.7999 3.57563 11.236 3.57563C11.6723 3.57563 12.0446 3.72958 12.3529 4.0375C12.6614 4.34528 12.8156 4.71764 12.8156 5.15458C12.8156 5.59014 12.6619 5.96271 12.3546 6.27229C12.0474 6.58201 11.6756 6.73687 11.2394 6.73687ZM7.36271 14.2608L8.30125 9.45979L6.3175 10.399V12.491C6.3175 12.6847 6.25146 12.8463 6.11937 12.976C5.98729 13.1059 5.82472 13.1708 5.63167 13.1708C5.43847 13.1708 5.27708 13.1051 5.1475 12.9735C5.01778 12.8422 4.95292 12.6797 4.95292 12.486V9.94646C4.95292 9.79674 4.99174 9.66313 5.06937 9.54563C5.14701 9.42826 5.25312 9.33924 5.38771 9.27854L8.43771 8.01917C8.8909 7.82403 9.21264 7.70042 9.40292 7.64833C9.59319 7.59625 9.7825 7.57021 9.97083 7.57021C10.2647 7.57021 10.5235 7.6334 10.7471 7.75979C10.9707 7.88618 11.1606 8.07069 11.3167 8.31333L12.2015 9.70917C12.4277 10.0571 12.699 10.384 13.0154 10.6898C13.3318 10.9956 13.6831 11.2424 14.0694 11.4302L13.3896 12.5923C13.0133 12.3834 12.6554 12.1222 12.3158 11.8088C11.9762 11.4953 11.6468 11.1197 11.3275 10.6821L10.4615 14.2608H7.36271ZM12.7083 18.4579C12.439 18.4579 12.2362 18.3335 12.0998 18.0848C11.9635 17.8359 11.9609 17.5993 12.0919 17.375L15.4252 11.5575C15.5497 11.2915 15.7508 11.168 16.0287 11.1869C16.3067 11.2058 16.5234 11.324 16.679 11.5417L20.0123 17.375C20.1505 17.6132 20.1444 17.8533 19.9942 18.0952C19.8437 18.337 19.6374 18.4579 19.375 18.4579H12.7083ZM16.0417 17.6346C16.1417 17.6346 16.2278 17.5976 16.3002 17.5238C16.3727 17.4499 16.409 17.3636 16.409 17.265C16.409 17.1665 16.3727 17.0802 16.3002 17.006C16.2278 16.932 16.1417 16.895 16.0417 16.895C15.9417 16.895 15.8555 16.9322 15.7831 17.0067C15.7106 17.0811 15.6744 17.168 15.6744 17.2673C15.6744 17.3652 15.7106 17.4509 15.7831 17.5244C15.8555 17.5978 15.9417 17.6346 16.0417 17.6346ZM16.0417 16.1608C16.1417 16.1608 16.2278 16.1241 16.3002 16.0506C16.3727 15.9772 16.409 15.8915 16.409 15.7935V13.0606C16.409 12.9627 16.3727 12.877 16.3002 12.8035C16.2278 12.7301 16.1417 12.6933 16.0417 12.6933C15.9417 12.6933 15.8555 12.7301 15.7831 12.8035C15.7106 12.877 15.6744 12.9627 15.6744 13.0606V15.7935C15.6744 15.8915 15.7106 15.9772 15.7831 16.0506C15.8555 16.1241 15.9417 16.1608 16.0417 16.1608Z" stroke="var(--stroke-0, #1E729C)" stroke-width="3" mask="url(#path-1-inside-1_0_17)"/>
</g>
</g>
</svg>
