<svg preserveAspectRatio="none" width="100%" height="100%" overflow="visible" style="display: block;" viewBox="0 0 24 24" fill="none" xmlns="http://www.w3.org/2000/svg">
<g id="detection_and_zone">
<path id="Vector" d="M2.70695 17.2254C2.94204 17.2255 3.13727 17.3042 3.29386 17.4627C3.45046 17.6214 3.52916 17.8174 3.52921 18.0515V20.4715H5.94816C6.18227 20.4715 6.37824 20.5511 6.53702 20.7107C6.69571 20.8703 6.7753 21.0672 6.7753 21.3025C6.77525 21.5378 6.69561 21.7329 6.53702 21.8894C6.37828 22.0462 6.18238 22.1248 5.94816 22.1248H3.55362C3.10059 22.1247 2.70806 21.9581 2.37491 21.6248C2.04167 21.2916 1.87589 20.8991 1.87589 20.4461V18.0515C1.87594 17.8175 1.95565 17.6224 2.11515 17.4636C2.27475 17.3048 2.47158 17.2254 2.70695 17.2254ZM21.3017 17.2254C21.5367 17.2254 21.7326 17.3049 21.8915 17.4636C22.0505 17.6224 22.1307 17.8175 22.1308 18.0515V20.4461C22.1308 20.899 21.9641 21.2917 21.6298 21.6248C21.2955 21.9581 20.901 22.1248 20.4462 22.1248H18.0517C17.8176 22.1248 17.6216 22.0451 17.4628 21.8855C17.3041 21.726 17.2246 21.529 17.2245 21.2937C17.2245 21.0584 17.3042 20.8625 17.4628 20.7058C17.6215 20.5493 17.8175 20.4715 18.0517 20.4715H20.4716V18.0515C20.4716 17.8176 20.5514 17.6224 20.7109 17.4636C20.8704 17.3049 21.0667 17.2254 21.3017 17.2254ZM11.9648 10.1091C12.3137 10.1091 12.6206 10.1845 12.8847 10.3338C13.1487 10.4831 13.3733 10.7013 13.5585 10.989L14.621 12.6648V12.6638C14.9981 13.2672 15.4805 13.8027 16.0692 14.2693C16.6594 14.7369 17.3532 15.0366 18.1493 15.1707V15.1716C18.3761 15.2174 18.5651 15.3173 18.7177 15.4705C18.869 15.6225 18.9452 15.8065 18.9452 16.0242C18.9452 16.2418 18.8696 16.4302 18.7177 16.5896C18.5667 16.7479 18.3892 16.8081 18.1835 16.7722H18.1816C17.2515 16.6686 16.423 16.3705 15.6962 15.8787C14.9688 15.3861 14.2746 14.6944 13.6132 13.8035L13.581 13.7605L13.5683 13.8123L12.5341 18.0877H8.86612L9.98624 12.3562L9.99601 12.3084L9.95109 12.3289L7.57023 13.4558L7.55558 13.4627V15.989C7.55558 16.2149 7.47946 16.4028 7.32609 16.5535C7.17248 16.7045 6.98314 16.78 6.75773 16.78C6.53243 16.78 6.34571 16.7032 6.19523 16.5506C6.04442 16.3978 5.96866 16.2093 5.96866 15.9832V12.9353C5.96874 12.7604 6.01419 12.6051 6.10441 12.4685C6.19483 12.3319 6.31814 12.228 6.4755 12.157L6.47452 12.156L10.1347 10.6463C10.6785 10.4121 11.0635 10.2639 11.29 10.2019C11.5162 10.14 11.7412 10.1092 11.9648 10.1091ZM13.4833 5.31618C14.0002 5.31619 14.4403 5.49826 14.8056 5.86306C15.171 6.22763 15.3534 6.66771 15.3534 7.18532C15.3534 7.70138 15.1717 8.14271 14.8075 8.50954C14.4436 8.87627 14.0039 9.05934 13.4872 9.05934C12.9705 9.05934 12.5296 8.87665 12.164 8.51052C11.7984 8.14439 11.6161 7.70293 11.6161 7.1863C11.6162 6.6699 11.798 6.22951 12.162 5.86403C12.5263 5.49841 12.9666 5.31618 13.4833 5.31618ZM3.55362 1.86989H5.94816C6.18216 1.86989 6.37821 1.95019 6.53702 2.11208C6.69584 2.27418 6.77526 2.47209 6.7753 2.70681C6.7753 2.9418 6.69565 3.13701 6.53702 3.29372C6.37827 3.45037 6.18242 3.52907 5.94816 3.52907H3.52921V5.94802C3.52921 6.18213 3.44857 6.3781 3.28898 6.53688C3.12951 6.69542 2.93322 6.77507 2.69816 6.77516C2.46289 6.77516 2.26775 6.6954 2.11124 6.53688C1.95443 6.37813 1.87589 6.18227 1.87589 5.94802V3.55348C1.87596 3.09887 2.04171 2.70511 2.37491 2.37087C2.70807 2.0364 3.10062 1.86992 3.55362 1.86989ZM18.0517 1.86989H20.4462C20.901 1.86989 21.2955 2.03636 21.6298 2.37087C21.964 2.70508 22.1307 3.09899 22.1308 3.55348V5.94802C22.1308 6.18202 22.0495 6.37807 21.8876 6.53688C21.7255 6.69569 21.5276 6.77516 21.2929 6.77516C21.0579 6.77514 20.8627 6.69551 20.706 6.53688C20.5494 6.37816 20.4716 6.18219 20.4716 5.94802V3.52907H18.0517C17.8176 3.52905 17.6216 3.44938 17.4628 3.28981C17.304 3.1302 17.2245 2.93304 17.2245 2.69802C17.2246 2.4632 17.3042 2.26702 17.4628 2.10817C17.6216 1.94909 17.8176 1.86991 18.0517 1.86989Z" fill="var(--fill-0, #F4813E)" stroke="var(--stroke-0, #F4813E)" stroke-width="0.05"/>
</g>
</svg>
