<svg preserveAspectRatio="none" width="100%" height="100%" overflow="visible" style="display: block;" viewBox="0 0 20 20" fill="none" xmlns="http://www.w3.org/2000/svg">
<g id="settings_input_component">
<g id="Vector">
<mask id="path-1-inside-1_0_37" fill="white">
<path d="M2.45292 18.6115V15.7125C1.97736 15.5301 1.56861 15.2294 1.22667 14.8104C0.884722 14.3915 0.71375 13.9316 0.71375 13.4306V5.73417C0.71375 5.53431 0.781944 5.36521 0.918333 5.22688C1.05472 5.08854 1.22312 5.01937 1.42354 5.01937H2.45292V1.38354C2.45292 1.17674 2.51292 1.0134 2.63292 0.893542C2.75306 0.773681 2.91833 0.71375 3.12875 0.71375C3.33583 0.71375 3.49986 0.773681 3.62083 0.893542C3.74194 1.0134 3.8025 1.17674 3.8025 1.38354V5.01937H4.83187C5.03229 5.01937 5.20069 5.08854 5.33708 5.22688C5.47347 5.36521 5.54167 5.53431 5.54167 5.73417V13.4306C5.54167 13.9316 5.37333 14.3915 5.03667 14.8104C4.7 15.2294 4.28861 15.5301 3.8025 15.7125V18.6115C3.8025 18.8009 3.73694 18.9607 3.60583 19.0908C3.47472 19.2211 3.31382 19.2863 3.12313 19.2863C2.93229 19.2863 2.77292 19.2211 2.645 19.0908C2.51694 18.9607 2.45292 18.8009 2.45292 18.6115ZM9.32521 18.6115V15.7125C8.84965 15.5301 8.44007 15.2294 8.09646 14.8104C7.75285 14.3915 7.58104 13.9316 7.58104 13.4306V5.73417C7.58104 5.53431 7.64924 5.36521 7.78562 5.22688C7.92201 5.08854 8.09208 5.01937 8.29583 5.01937H9.32521V1.38354C9.32521 1.17674 9.38604 1.0134 9.50771 0.893542C9.62951 0.773681 9.79396 0.71375 10.001 0.71375C10.2115 0.71375 10.3763 0.773681 10.4956 0.893542C10.6151 1.0134 10.6748 1.17674 10.6748 1.38354V5.01937H11.6994C11.8997 5.01937 12.068 5.08854 12.2044 5.22688C12.3408 5.36521 12.409 5.53431 12.409 5.73417V13.4306C12.409 13.9316 12.2415 14.3915 11.9065 14.8104C11.5715 15.2294 11.1609 15.5301 10.6748 15.7125V18.6115C10.6748 18.8009 10.6092 18.9607 10.4781 19.0908C10.347 19.2211 10.1861 19.2863 9.99542 19.2863C9.80458 19.2863 9.64521 19.2211 9.51729 19.0908C9.38924 18.9607 9.32521 18.8009 9.32521 18.6115ZM16.1975 18.6115V15.7125C15.7186 15.5301 15.3082 15.2294 14.9663 14.8104C14.6243 14.3915 14.4533 13.9316 14.4533 13.4306V5.73417C14.4533 5.53431 14.5215 5.36521 14.6579 5.22688C14.7943 5.08854 14.9644 5.01937 15.1681 5.01937H16.1975V1.38354C16.1975 1.17674 16.2572 1.0134 16.3767 0.893542C16.496 0.773681 16.6592 0.71375 16.8663 0.71375C17.0767 0.71375 17.2419 0.773681 17.3621 0.893542C17.4821 1.0134 17.5421 1.17674 17.5421 1.38354V5.01937H18.5765C18.7769 5.01937 18.9453 5.08854 19.0817 5.22688C19.2181 5.36521 19.2862 5.53431 19.2862 5.73417V13.4306C19.2862 13.9316 19.1144 14.3915 18.7708 14.8104C18.4272 15.2294 18.0176 15.5301 17.5421 15.7125V18.6115C17.5421 18.8009 17.4765 18.9607 17.3454 19.0908C17.2143 19.2211 17.0534 19.2863 16.8627 19.2863C16.6719 19.2863 16.5133 19.2211 16.3871 19.0908C16.2607 18.9607 16.1975 18.8009 16.1975 18.6115ZM2.06333 6.36417V10.1477H4.19708V6.36417H2.06333ZM8.93063 6.36417V10.1477H11.0644V6.36417H8.93063ZM15.8029 6.36417V10.1477H17.9417V6.36417H15.8029ZM3.12833 14.4375C3.42681 14.4375 3.67951 14.3367 3.88646 14.135C4.09354 13.9333 4.19708 13.6981 4.19708 13.4294V11.4923H2.06333V13.4294C2.06333 13.6981 2.16701 13.9333 2.37438 14.135C2.58174 14.3367 2.83306 14.4375 3.12833 14.4375ZM9.99563 14.4375C10.2941 14.4375 10.5468 14.3367 10.7537 14.135C10.9608 13.9333 11.0644 13.6981 11.0644 13.4294V11.4923H8.93063V13.4294C8.93063 13.6981 9.03431 13.9333 9.24167 14.135C9.44903 14.3367 9.70035 14.4375 9.99563 14.4375ZM16.8698 14.4375C17.1637 14.4375 17.4158 14.3367 17.626 14.135C17.8365 13.9333 17.9417 13.6981 17.9417 13.4294V11.4923H15.8029V13.4294C15.8029 13.6981 15.9065 13.9333 16.1135 14.135C16.3205 14.3367 16.5726 14.4375 16.8698 14.4375Z"/>
</mask>
<path d="M2.45292 18.6115V15.7125C1.97736 15.5301 1.56861 15.2294 1.22667 14.8104C0.884722 14.3915 0.71375 13.9316 0.71375 13.4306V5.73417C0.71375 5.53431 0.781944 5.36521 0.918333 5.22688C1.05472 5.08854 1.22312 5.01937 1.42354 5.01937H2.45292V1.38354C2.45292 1.17674 2.51292 1.0134 2.63292 0.893542C2.75306 0.773681 2.91833 0.71375 3.12875 0.71375C3.33583 0.71375 3.49986 0.773681 3.62083 0.893542C3.74194 1.0134 3.8025 1.17674 3.8025 1.38354V5.01937H4.83187C5.03229 5.01937 5.20069 5.08854 5.33708 5.22688C5.47347 5.36521 5.54167 5.53431 5.54167 5.73417V13.4306C5.54167 13.9316 5.37333 14.3915 5.03667 14.8104C4.7 15.2294 4.28861 15.5301 3.8025 15.7125V18.6115C3.8025 18.8009 3.73694 18.9607 3.60583 19.0908C3.47472 19.2211 3.31382 19.2863 3.12313 19.2863C2.93229 19.2863 2.77292 19.2211 2.645 19.0908C2.51694 18.9607 2.45292 18.8009 2.45292 18.6115ZM9.32521 18.6115V15.7125C8.84965 15.5301 8.44007 15.2294 8.09646 14.8104C7.75285 14.3915 7.58104 13.9316 7.58104 13.4306V5.73417C7.58104 5.53431 7.64924 5.36521 7.78562 5.22688C7.92201 5.08854 8.09208 5.01937 8.29583 5.01937H9.32521V1.38354C9.32521 1.17674 9.38604 1.0134 9.50771 0.893542C9.62951 0.773681 9.79396 0.71375 10.001 0.71375C10.2115 0.71375 10.3763 0.773681 10.4956 0.893542C10.6151 1.0134 10.6748 1.17674 10.6748 1.38354V5.01937H11.6994C11.8997 5.01937 12.068 5.08854 12.2044 5.22688C12.3408 5.36521 12.409 5.53431 12.409 5.73417V13.4306C12.409 13.9316 12.2415 14.3915 11.9065 14.8104C11.5715 15.2294 11.1609 15.5301 10.6748 15.7125V18.6115C10.6748 18.8009 10.6092 18.9607 10.4781 19.0908C10.347 19.2211 10.1861 19.2863 9.99542 19.2863C9.80458 19.2863 9.64521 19.2211 9.51729 19.0908C9.38924 18.9607 9.32521 18.8009 9.32521 18.6115ZM16.1975 18.6115V15.7125C15.7186 15.5301 15.3082 15.2294 14.9663 14.8104C14.6243 14.3915 14.4533 13.9316 14.4533 13.4306V5.73417C14.4533 5.53431 14.5215 5.36521 14.6579 5.22688C14.7943 5.08854 14.9644 5.01937 15.1681 5.01937H16.1975V1.38354C16.1975 1.17674 16.2572 1.0134 16.3767 0.893542C16.496 0.773681 16.6592 0.71375 16.8663 0.71375C17.0767 0.71375 17.2419 0.773681 17.3621 0.893542C17.4821 1.0134 17.5421 1.17674 17.5421 1.38354V5.01937H18.5765C18.7769 5.01937 18.9453 5.08854 19.0817 5.22688C19.2181 5.36521 19.2862 5.53431 19.2862 5.73417V13.4306C19.2862 13.9316 19.1144 14.3915 18.7708 14.8104C18.4272 15.2294 18.0176 15.5301 17.5421 15.7125V18.6115C17.5421 18.8009 17.4765 18.9607 17.3454 19.0908C17.2143 19.2211 17.0534 19.2863 16.8627 19.2863C16.6719 19.2863 16.5133 19.2211 16.3871 19.0908C16.2607 18.9607 16.1975 18.8009 16.1975 18.6115ZM2.06333 6.36417V10.1477H4.19708V6.36417H2.06333ZM8.93063 6.36417V10.1477H11.0644V6.36417H8.93063ZM15.8029 6.36417V10.1477H17.9417V6.36417H15.8029ZM3.12833 14.4375C3.42681 14.4375 3.67951 14.3367 3.88646 14.135C4.09354 13.9333 4.19708 13.6981 4.19708 13.4294V11.4923H2.06333V13.4294C2.06333 13.6981 2.16701 13.9333 2.37438 14.135C2.58174 14.3367 2.83306 14.4375 3.12833 14.4375ZM9.99563 14.4375C10.2941 14.4375 10.5468 14.3367 10.7537 14.135C10.9608 13.9333 11.0644 13.6981 11.0644 13.4294V11.4923H8.93063V13.4294C8.93063 13.6981 9.03431 13.9333 9.24167 14.135C9.44903 14.3367 9.70035 14.4375 9.99563 14.4375ZM16.8698 14.4375C17.1637 14.4375 17.4158 14.3367 17.626 14.135C17.8365 13.9333 17.9417 13.6981 17.9417 13.4294V11.4923H15.8029V13.4294C15.8029 13.6981 15.9065 13.9333 16.1135 14.135C16.3205 14.3367 16.5726 14.4375 16.8698 14.4375Z" stroke="var(--stroke-0, #1E729C)" stroke-width="3" mask="url(#path-1-inside-1_0_37)"/>
</g>
</g>
</svg>
