<svg preserveAspectRatio="none" width="100%" height="100%" overflow="visible" style="display: block;" viewBox="0 0 40 40" fill="none" xmlns="http://www.w3.org/2000/svg">
<g id="chart-pie">
<path id="Vector" d="M35.3501 26.4835C34.2898 28.9909 32.6314 31.2005 30.5199 32.919C28.4083 34.6374 25.908 35.8125 23.2375 36.3414C20.5669 36.8704 17.8074 36.737 15.2003 35.9531C12.5932 35.1692 10.2178 33.7586 8.28176 31.8446C6.34575 29.9305 4.90809 27.5714 4.09445 24.9734C3.28082 22.3754 3.116 19.6176 3.61439 16.9412C4.11278 14.2648 5.25922 11.7512 6.95347 9.62018C8.64772 7.48918 10.8382 5.80566 13.3334 4.7168M35 19.9999C35.92 19.9999 36.675 19.2515 36.5834 18.3365C36.1991 14.5101 34.5035 10.9344 31.7839 8.2154C29.0643 5.49644 25.4882 3.80159 21.6617 3.4182C20.745 3.32653 19.9984 4.08153 19.9984 5.00153V18.3349C19.9984 18.7769 20.174 19.2008 20.4865 19.5134C20.7991 19.8259 21.223 20.0015 21.665 20.0015L35 19.9999Z" stroke="var(--stroke-0, #2DA2DB)" stroke-width="2" stroke-linecap="round" stroke-linejoin="round"/>
</g>
</svg>
