<svg width="24" height="24" viewBox="0 0 24 24" fill="none" xmlns="http://www.w3.org/2000/svg">
<g id="handyman">
<path id="Vector" d="M19.2914 22.3158C19.1794 22.3158 19.0748 22.2963 18.9776 22.2571C18.8803 22.2178 18.786 22.1524 18.6946 22.0611L12.5551 15.9213C12.4638 15.83 12.3985 15.7358 12.3591 15.6386C12.3198 15.5413 12.3001 15.4366 12.3001 15.3246C12.3001 15.2126 12.3198 15.107 12.3591 15.0078C12.3985 14.9085 12.4638 14.8132 12.5551 14.7218L14.6919 12.5848C14.7832 12.4937 14.8776 12.4274 14.9749 12.3861C15.0722 12.3448 15.1788 12.3241 15.2946 12.3241C15.4066 12.3241 15.5113 12.3448 15.6086 12.3861C15.7058 12.4274 15.8001 12.4937 15.8914 12.5848L22.0311 18.7306C22.1225 18.8219 22.1888 18.9153 22.2301 19.0106C22.2713 19.1058 22.2919 19.2113 22.2919 19.3273C22.2919 19.4393 22.2703 19.5449 22.2271 19.6441C22.1838 19.7434 22.1185 19.8368 22.0311 19.9241L19.8941 22.0611C19.8028 22.1524 19.7086 22.2178 19.6114 22.2571C19.5141 22.2963 19.4074 22.3158 19.2914 22.3158ZM19.2974 20.3666L20.3366 19.3273L15.2886 14.2736L14.2496 15.3126L19.2974 20.3666ZM4.68989 22.3101C4.57789 22.3101 4.46905 22.2914 4.36339 22.2541C4.25789 22.2168 4.15947 22.1524 4.06814 22.0611L1.95614 19.9491C1.8648 19.8618 1.80047 19.7663 1.76314 19.6626C1.7258 19.5591 1.70714 19.4493 1.70714 19.3333C1.70714 19.2213 1.7258 19.1158 1.76314 19.0166C1.80047 18.9173 1.8648 18.8219 1.95614 18.7306L7.71864 12.9741H9.89739L10.8294 12.0421L6.38264 7.59534H4.92189L1.67139 4.34484L4.28389 1.73234L7.53439 4.98284V6.44359L11.9811 10.8903L15.2491 7.62234L13.5441 5.91759L14.9441 4.52359H12.1191L11.6154 4.01384L14.9709 0.652344L15.4806 1.16809V3.98709L16.8806 2.58709L21.2311 6.94359C21.4891 7.20559 21.693 7.50509 21.8426 7.84209C21.9921 8.17893 22.0669 8.53668 22.0669 8.91534C22.0669 9.27268 22.0048 9.61643 21.8806 9.94659C21.7563 10.2769 21.5861 10.575 21.3701 10.8408L19.1914 8.66209L17.7556 10.0981L16.4256 8.76809L11.0491 14.1448V16.3046L5.28664 22.0611C5.1953 22.1524 5.10197 22.2168 5.00664 22.2541C4.9113 22.2914 4.80572 22.3101 4.68989 22.3101ZM4.68989 20.3666L9.74964 15.3126V14.2736H8.71039L3.65064 19.3273L4.68989 20.3666ZM4.68989 20.3666L3.65064 19.3273L4.18264 19.8343L4.68989 20.3666Z" fill="#1E729C"/>
</g>
</svg>
