<svg preserveAspectRatio="none" width="100%" height="100%" overflow="visible" style="display: block;" viewBox="0 0 40 40" fill="none" xmlns="http://www.w3.org/2000/svg">
<g id="action_key">
<g id="Vector">
<mask id="path-1-inside-1_0_78" fill="white">
<path d="M27.8 34.4158C25.9947 34.4158 24.4493 33.7732 23.1638 32.4879C21.8782 31.2024 21.2354 29.6571 21.2354 27.8521C21.2354 26.0274 21.8781 24.4683 23.1633 23.175C24.4489 21.8819 25.9942 21.2354 27.7992 21.2354C29.6239 21.2354 31.1846 21.8818 32.4813 23.1746C33.7776 24.4674 34.4258 26.0263 34.4258 27.8513C34.4258 28.4932 34.3304 29.1094 34.1396 29.7C33.9487 30.2906 33.6929 30.8344 33.3721 31.3317L37.3363 35.3667C37.4882 35.5189 37.5969 35.6751 37.6625 35.8354C37.7281 35.9957 37.7608 36.1631 37.7608 36.3375C37.7608 36.5122 37.7281 36.686 37.6625 36.8588C37.5969 37.0315 37.4882 37.1972 37.3363 37.3558C37.1774 37.5081 37.0172 37.6169 36.8558 37.6825C36.6944 37.7481 36.5278 37.7808 36.3558 37.7808C36.1839 37.7808 36.0092 37.7481 35.8317 37.6825C35.6542 37.6169 35.4926 37.5081 35.3471 37.3558L31.3217 33.3721C30.8217 33.7168 30.2721 33.9769 29.6729 34.1525C29.0738 34.3281 28.4494 34.4158 27.8 34.4158ZM8.76833 34.4675C6.95889 34.4675 5.41167 33.8247 4.12667 32.5392C2.84167 31.2539 2.19917 29.7088 2.19917 27.9038C2.19917 26.041 2.84194 24.4639 4.1275 23.1725C5.41278 21.8811 6.95792 21.2354 8.76292 21.2354C10.6257 21.2354 12.2028 21.8804 13.4942 23.1704C14.7856 24.4607 15.4313 26.0367 15.4313 27.8983C15.4313 29.7078 14.7863 31.255 13.4963 32.54C12.206 33.825 10.63 34.4675 8.76833 34.4675ZM8.76583 31.6287C9.84222 31.6287 10.7507 31.2636 11.4913 30.5333C12.2321 29.8033 12.6025 28.9257 12.6025 27.9004C12.6025 26.8243 12.2322 25.916 11.4917 25.1754C10.7514 24.4346 9.84208 24.0642 8.76375 24.0642C7.73125 24.0642 6.85222 24.4344 6.12667 25.175C5.40083 25.9153 5.03792 26.8244 5.03792 27.9025C5.03792 28.9297 5.40167 29.8075 6.12917 30.5358C6.85639 31.2644 7.73528 31.6287 8.76583 31.6287ZM27.7579 31.6287C28.8293 31.6287 29.7353 31.2636 30.4758 30.5333C31.2167 29.8033 31.5871 28.9257 31.5871 27.9004C31.5871 26.8243 31.2167 25.916 30.4758 25.1754C29.7353 24.4346 28.8276 24.0642 27.7529 24.0642C26.724 24.0642 25.8451 24.4344 25.1163 25.175C24.3871 25.9153 24.0225 26.8244 24.0225 27.9025C24.0225 28.9297 24.3869 29.8075 25.1158 30.5358C25.8444 31.2644 26.7251 31.6287 27.7579 31.6287ZM8.76833 15.4829C6.95889 15.4829 5.41167 14.8392 4.12667 13.5517C2.84167 12.2642 2.19917 10.7164 2.19917 8.90833C2.19917 7.05278 2.84194 5.47764 4.1275 4.18292C5.41278 2.88819 6.95792 2.24083 8.76292 2.24083C10.6257 2.24083 12.2028 2.88778 13.4942 4.18167C14.7856 5.47555 15.4313 7.04986 15.4313 8.90458C15.4313 10.7171 14.7863 12.2665 13.4963 13.5529C12.206 14.8396 10.63 15.4829 8.76833 15.4829ZM27.7621 15.4829C25.9496 15.4829 24.4001 14.8392 23.1137 13.5517C21.8271 12.2642 21.1838 10.7164 21.1838 8.90833C21.1838 7.05278 21.8275 5.47764 23.115 4.18292C24.4025 2.88819 25.9503 2.24083 27.7583 2.24083C29.6139 2.24083 31.189 2.88778 32.4837 4.18167C33.7785 5.47555 34.4258 7.04986 34.4258 8.90458C34.4258 10.7171 33.7789 12.2665 32.485 13.5529C31.1911 14.8396 29.6168 15.4829 27.7621 15.4829ZM8.76583 12.6442C9.84222 12.6442 10.7507 12.2799 11.4913 11.5512C12.2321 10.8229 12.6025 9.94194 12.6025 8.90833C12.6025 7.83722 12.2322 6.93139 11.4917 6.19083C10.7514 5.45 9.84208 5.07958 8.76375 5.07958C7.73125 5.07958 6.85222 5.45 6.12667 6.19083C5.40083 6.93139 5.03792 7.83722 5.03792 8.90833C5.03792 9.94194 5.40167 10.8229 6.12917 11.5512C6.85639 12.2799 7.73528 12.6442 8.76583 12.6442ZM27.7579 12.6442C28.8293 12.6442 29.7353 12.2799 30.4758 11.5512C31.2167 10.8229 31.5871 9.94194 31.5871 8.90833C31.5871 7.83722 31.2167 6.93139 30.4758 6.19083C29.7353 5.45 28.8276 5.07958 27.7529 5.07958C26.724 5.07958 25.8451 5.45 25.1163 6.19083C24.3871 6.93139 24.0225 7.83722 24.0225 8.90833C24.0225 9.94194 24.3869 10.8229 25.1158 11.5512C25.8444 12.2799 26.7251 12.6442 27.7579 12.6442Z"/>
</mask>
<path d="M23.1638 32.4879L21.0424 34.6092L21.0427 34.6095L23.1638 32.4879ZM23.1633 23.175L21.0359 21.0599L21.0354 21.0603L23.1633 23.175ZM32.4813 23.1746L34.5996 21.0503L34.5994 21.0501L32.4813 23.1746ZM33.3721 31.3317L30.8513 29.7051L29.5499 31.7219L31.2321 33.4341L33.3721 31.3317ZM37.3363 35.3667L35.1962 37.4691L35.2046 37.4776L35.213 37.4861L37.3363 35.3667ZM37.3363 37.3558L39.4116 39.5221L39.4581 39.4776L39.5026 39.4311L37.3363 37.3558ZM35.3471 37.3558L37.5154 35.2825L37.4868 35.2526L37.4573 35.2235L35.3471 37.3558ZM31.3217 33.3721L33.4319 31.2398L31.6652 29.4913L29.6188 30.9022L31.3217 33.3721ZM4.12667 32.5392L6.24845 30.4183L6.24822 30.4181L4.12667 32.5392ZM4.1275 23.1725L6.25362 25.289L6.25385 25.2888L4.1275 23.1725ZM13.4942 23.1704L15.6146 21.0482L15.6143 21.048L13.4942 23.1704ZM13.4963 32.54L15.6132 34.6657L15.6134 34.6654L13.4963 32.54ZM11.4913 30.5333L9.38561 28.3964L9.3848 28.3972L11.4913 30.5333ZM11.4917 25.1754L9.36955 27.2959L9.37035 27.2967L11.4917 25.1754ZM6.12667 25.175L8.26878 27.2753L8.26958 27.2745L6.12667 25.175ZM6.12917 30.5358L8.25251 28.4165L8.2517 28.4157L6.12917 30.5358ZM30.4758 30.5333L28.3702 28.3964L28.3694 28.3972L30.4758 30.5333ZM30.4758 25.1754L28.3541 27.2963L28.3549 27.2971L30.4758 25.1754ZM25.1163 25.175L27.2536 27.2802L27.2543 27.2794L25.1163 25.175ZM25.1158 30.5358L27.2372 28.4145L27.2363 28.4137L25.1158 30.5358ZM4.1275 4.18292L6.25634 6.29669L6.25657 6.29646L4.1275 4.18292ZM13.4963 13.5529L11.3779 11.4286V11.4286L13.4963 13.5529ZM23.1137 13.5517L25.236 11.4313L25.2358 11.431L23.1137 13.5517ZM32.485 13.5529L30.3699 11.4254L30.3696 11.4257L32.485 13.5529ZM11.4913 11.5512L9.38805 9.41196L9.38725 9.41275L11.4913 11.5512ZM11.4917 6.19083L9.36955 8.31136L9.37035 8.31215L11.4917 6.19083ZM6.12667 6.19083L8.26918 8.29075L8.26997 8.28994L6.12667 6.19083ZM6.12917 11.5512L8.25251 9.43195L8.2517 9.43114L6.12917 11.5512ZM30.4758 11.5512L28.3726 9.41196L28.3718 9.41275L30.4758 11.5512ZM30.4758 6.19083L28.3541 8.31176L28.3549 8.31255L30.4758 6.19083ZM25.1163 6.19083L27.2539 8.29565L27.2547 8.29484L25.1163 6.19083ZM25.1158 11.5512L27.2372 9.42993L27.2363 9.42912L25.1158 11.5512ZM27.8 34.4158V31.4158C26.7965 31.4158 26.0122 31.0936 25.2848 30.3664L23.1638 32.4879L21.0427 34.6095C22.8864 36.4528 25.193 37.4158 27.8 37.4158V34.4158ZM23.1638 32.4879L25.2851 30.3666C24.5575 29.6391 24.2354 28.855 24.2354 27.8521H21.2354H18.2354C18.2354 30.4592 19.1988 32.7656 21.0424 34.6092L23.1638 32.4879ZM21.2354 27.8521H24.2354C24.2354 26.8191 24.565 26.0205 25.2913 25.2897L23.1633 23.175L21.0354 21.0603C19.1911 22.9162 18.2354 25.2356 18.2354 27.8521H21.2354ZM23.1633 23.175L25.2908 25.2901C26.0197 24.557 26.8019 24.2354 27.7992 24.2354V21.2354V18.2354C25.1864 18.2354 22.8781 19.2069 21.0359 21.0599L23.1633 23.175ZM27.7992 21.2354V24.2354C28.8267 24.2354 29.6266 24.5648 30.3631 25.2991L32.4813 23.1746L34.5994 21.0501C32.7426 19.1988 30.4211 18.2354 27.7992 18.2354V21.2354ZM32.4813 23.1746L30.3629 25.2989C31.0969 26.0308 31.4258 26.8262 31.4258 27.8513H34.4258H37.4258C37.4258 25.2263 36.4584 22.9039 34.5996 21.0503L32.4813 23.1746ZM34.4258 27.8513H31.4258C31.4258 28.1909 31.3762 28.4952 31.2849 28.7775L34.1396 29.7L36.9942 30.6225C37.2847 29.7237 37.4258 28.7955 37.4258 27.8513H34.4258ZM34.1396 29.7L31.2849 28.7775C31.1704 29.132 31.024 29.4375 30.8513 29.7051L33.3721 31.3317L35.8929 32.9582C36.3619 32.2313 36.7271 31.4491 36.9942 30.6225L34.1396 29.7ZM33.3721 31.3317L31.2321 33.4341L35.1962 37.4691L37.3363 35.3667L39.4763 33.2642L35.5121 29.2292L33.3721 31.3317ZM37.3363 35.3667L35.213 37.4861C35.1499 37.4228 35.0024 37.2562 34.8858 36.9711L37.6625 35.8354L40.4392 34.6997C40.1915 34.0941 39.8265 33.6149 39.4595 33.2473L37.3363 35.3667ZM37.6625 35.8354L34.8858 36.9711C34.8028 36.7682 34.7608 36.5496 34.7608 36.3375H37.7608H40.7608C40.7608 35.7765 40.6533 35.2232 40.4392 34.6997L37.6625 35.8354ZM37.7608 36.3375H34.7608C34.7608 36.128 34.8017 35.9419 34.8576 35.7945L37.6625 36.8588L40.4674 37.923C40.6544 37.43 40.7608 36.8965 40.7608 36.3375H37.7608ZM37.6625 36.8588L34.8576 35.7945C34.9592 35.5269 35.0949 35.3588 35.1699 35.2805L37.3363 37.3558L39.5026 39.4311C39.8815 39.0356 40.2347 38.5362 40.4674 37.923L37.6625 36.8588ZM37.3363 37.3558L35.2609 35.1896C35.3066 35.1457 35.4578 35.0123 35.7268 34.9031L36.8558 37.6825L37.9848 40.462C38.5767 40.2216 39.0481 39.8704 39.4116 39.5221L37.3363 37.3558ZM36.8558 37.6825L35.7268 34.9031C35.9192 34.8249 36.1356 34.7808 36.3558 34.7808V37.7808V40.7808C36.92 40.7808 37.4697 40.6712 37.9848 40.462L36.8558 37.6825ZM36.3558 37.7808V34.7808C36.5725 34.7808 36.7492 34.8233 36.871 34.8683L35.8317 37.6825L34.7923 40.4967C35.2692 40.6728 35.7953 40.7808 36.3558 40.7808V37.7808ZM35.8317 37.6825L36.871 34.8683C37.1676 34.9778 37.3818 35.1429 37.5154 35.2825L35.3471 37.3558L33.1788 39.4291C33.6035 39.8733 34.1408 40.2561 34.7923 40.4967L35.8317 37.6825ZM35.3471 37.3558L37.4573 35.2235L33.4319 31.2398L31.3217 33.3721L29.2114 35.5044L33.2368 39.4882L35.3471 37.3558ZM31.3217 33.3721L29.6188 30.9022C29.389 31.0606 29.1309 31.1852 28.8294 31.2735L29.6729 34.1525L30.5165 37.0315C31.4133 36.7687 32.2543 36.373 33.0245 35.842L31.3217 33.3721ZM29.6729 34.1525L28.8294 31.2735C28.5151 31.3656 28.1755 31.4158 27.8 31.4158V34.4158V37.4158C28.7234 37.4158 29.6324 37.2905 30.5165 37.0315L29.6729 34.1525ZM8.76833 34.4675V31.4675C7.75882 31.4675 6.97367 31.1438 6.24845 30.4183L4.12667 32.5392L2.00489 34.66C3.84966 36.5056 6.15896 37.4675 8.76833 37.4675V34.4675ZM4.12667 32.5392L6.24822 30.4181C5.52132 29.691 5.19917 28.9071 5.19917 27.9038H2.19917H-0.800834C-0.800834 30.5104 0.162016 32.8168 2.00512 34.6603L4.12667 32.5392ZM2.19917 27.9038H5.19917C5.19917 26.8145 5.54155 26.0043 6.25362 25.289L4.1275 23.1725L2.00138 21.056C0.142342 22.9235 -0.800834 25.2675 -0.800834 27.9038H2.19917ZM4.1275 23.1725L6.25385 25.2888C6.98207 24.5571 7.76444 24.2354 8.76292 24.2354V21.2354V18.2354C6.15139 18.2354 3.84348 19.2051 2.00115 21.0562L4.1275 23.1725ZM8.76292 21.2354V24.2354C9.8489 24.2354 10.6579 24.5776 11.374 25.2929L13.4942 23.1704L15.6143 21.048C13.7476 19.1832 11.4025 18.2354 8.76292 18.2354V21.2354ZM13.4942 23.1704L11.3738 25.2926C12.0896 26.0079 12.4313 26.8151 12.4313 27.8983H15.4313H18.4313C18.4313 25.2583 17.4815 22.9135 15.6146 21.0482L13.4942 23.1704ZM15.4313 27.8983H12.4313C12.4313 28.9045 12.1079 29.6885 11.3791 30.4146L13.4963 32.54L15.6134 34.6654C17.4646 32.8215 18.4313 30.5111 18.4313 27.8983H15.4313ZM13.4963 32.54L11.3793 30.4143C10.6652 31.1255 9.85633 31.4675 8.76833 31.4675V34.4675V37.4675C11.4037 37.4675 13.7468 36.5245 15.6132 34.6657L13.4963 32.54ZM8.76583 31.6287V34.6288C10.5999 34.6288 12.2743 33.9745 13.5977 32.6694L11.4913 30.5333L9.3848 28.3972C9.22709 28.5528 9.08453 28.6287 8.76583 28.6287V31.6287ZM11.4913 30.5333L13.5969 32.6702C14.9006 31.3855 15.6025 29.7419 15.6025 27.9004H12.6025H9.6025C9.6025 28.1094 9.56354 28.2211 9.38561 28.3964L11.4913 30.5333ZM12.6025 27.9004H15.6025C15.6025 26.0532 14.9332 24.3743 13.613 23.0541L11.4917 25.1754L9.37035 27.2967C9.53121 27.4576 9.6025 27.5955 9.6025 27.9004H12.6025ZM11.4917 25.1754L13.6138 23.0549C12.2924 21.7326 10.6117 21.0642 8.76375 21.0642V24.0642V27.0642C9.07244 27.0642 9.21033 27.1366 9.36955 27.2959L11.4917 25.1754ZM8.76375 24.0642V21.0642C6.92122 21.0642 5.27096 21.7617 3.98375 23.0755L6.12667 25.175L8.26958 27.2745C8.43349 27.1072 8.54128 27.0642 8.76375 27.0642V24.0642ZM6.12667 25.175L3.98455 23.0747C2.68495 24.4001 2.03792 26.0738 2.03792 27.9025H5.03792H8.03792C8.03792 27.575 8.11672 27.4304 8.26878 27.2753L6.12667 25.175ZM5.03792 27.9025H2.03792C2.03792 29.7267 2.71863 31.3665 4.00663 32.6559L6.12917 30.5358L8.2517 28.4157C8.08471 28.2485 8.03792 28.1327 8.03792 27.9025H5.03792ZM6.12917 30.5358L4.00582 32.6551C5.29651 33.9483 6.93962 34.6288 8.76583 34.6288V31.6287V28.6287C8.53094 28.6287 8.41627 28.5806 8.25251 28.4165L6.12917 30.5358ZM27.7579 31.6287V34.6288C29.5912 34.6288 31.2618 33.9716 32.5823 32.6694L30.4758 30.5333L28.3694 28.3972C28.2088 28.5556 28.0674 28.6287 27.7579 28.6287V31.6287ZM30.4758 30.5333L32.5815 32.6702C33.8852 31.3855 34.5871 29.742 34.5871 27.9004H31.5871H28.5871C28.5871 28.1094 28.5481 28.2211 28.3702 28.3964L30.4758 30.5333ZM31.5871 27.9004H34.5871C34.5871 26.0528 33.9174 24.3739 32.5968 23.0537L30.4758 25.1754L28.3549 27.2971C28.5159 27.4581 28.5871 27.5958 28.5871 27.9004H31.5871ZM30.4758 25.1754L32.5976 23.0545C31.2782 21.7346 29.6003 21.0642 27.7529 21.0642V24.0642V27.0642C28.055 27.0642 28.1924 27.1345 28.3541 27.2963L30.4758 25.1754ZM27.7529 24.0642V21.0642C25.9112 21.0642 24.2647 21.7635 22.9782 23.0706L25.1163 25.175L27.2543 27.2794C27.4256 27.1054 27.5369 27.0642 27.7529 27.0642V24.0642ZM25.1163 25.175L22.979 23.0698C21.6743 24.3943 21.0225 26.0696 21.0225 27.9025H24.0225H27.0225C27.0225 27.5793 27.0999 27.4362 27.2536 27.2802L25.1163 25.175ZM24.0225 27.9025H21.0225C21.0225 29.7286 21.7053 31.3689 22.9953 32.658L25.1158 30.5358L27.2363 28.4137C27.0686 28.2461 27.0225 28.1309 27.0225 27.9025H24.0225ZM25.1158 30.5358L22.9945 32.6572C24.2872 33.9498 25.9316 34.6288 27.7579 34.6288V31.6287V28.6287C27.5187 28.6287 27.4017 28.5791 27.2372 28.4145L25.1158 30.5358ZM8.76833 15.4829V12.4829C7.76029 12.4829 6.97563 12.1594 6.25005 11.4324L4.12667 13.5517L2.00329 15.6709C3.8477 17.5189 6.15749 18.4829 8.76833 18.4829V15.4829ZM4.12667 13.5517L6.25005 11.4324C5.52256 10.7035 5.19917 9.91634 5.19917 8.90833H2.19917H-0.800834C-0.800834 11.5164 0.160771 13.8248 2.00329 15.6709L4.12667 13.5517ZM2.19917 8.90833H5.19917C5.19917 7.82965 5.53933 7.01881 6.25634 6.29669L4.1275 4.18292L1.99866 2.06915C0.144554 3.93647 -0.800834 6.27591 -0.800834 8.90833H2.19917ZM4.1275 4.18292L6.25657 6.29646C6.98541 5.56226 7.76696 5.24083 8.76292 5.24083V2.24083V-0.759166C6.14887 -0.759166 3.84014 0.214131 1.99843 2.06938L4.1275 4.18292ZM8.76292 2.24083V5.24083C9.84601 5.24083 10.6541 5.58281 11.3708 6.30093L13.4942 4.18167L15.6175 2.0624C13.7515 0.192744 11.4054 -0.759166 8.76292 -0.759166V2.24083ZM13.4942 4.18167L11.3708 6.30093C12.0917 7.02324 12.4313 7.8315 12.4313 8.90458H15.4313H18.4313C18.4313 6.26822 17.4794 3.92787 15.6175 2.0624L13.4942 4.18167ZM15.4313 8.90458H12.4313C12.4313 9.91539 12.1067 10.7018 11.3779 11.4286L13.4963 13.5529L15.6146 15.6772C17.4658 13.8312 18.4313 11.5188 18.4313 8.90458H15.4313ZM13.4963 13.5529L11.3779 11.4286C10.6635 12.141 9.85509 12.4829 8.76833 12.4829V15.4829V18.4829C11.4049 18.4829 13.7484 17.5381 15.6146 15.6772L13.4963 13.5529ZM27.7621 15.4829V12.4829C26.7494 12.4829 25.9623 12.1582 25.236 11.4313L23.1137 13.5517L20.9915 15.6721C22.838 17.5201 25.1498 18.4829 27.7621 18.4829V15.4829ZM23.1137 13.5517L25.2358 11.431C24.507 10.7018 24.1838 9.91508 24.1838 8.90833H21.1838H18.1838C18.1838 11.5177 19.1471 13.8265 20.9917 15.6723L23.1137 13.5517ZM21.1838 8.90833H24.1838C24.1838 7.83109 24.5238 7.02075 25.2422 6.2983L23.115 4.18292L20.9878 2.06754C19.1312 3.93453 18.1838 6.27447 18.1838 8.90833H21.1838ZM23.115 4.18292L25.2422 6.2983C25.9729 5.56352 26.7577 5.24083 27.7583 5.24083V2.24083V-0.759166C25.1429 -0.759166 22.8321 0.212865 20.9878 2.06754L23.115 4.18292ZM27.7583 2.24083V5.24083C28.8308 5.24083 29.6396 5.58058 30.3631 6.30367L32.4837 4.18167L34.6044 2.05966C32.7385 0.194973 30.3969 -0.759166 27.7583 -0.759166V2.24083ZM32.4837 4.18167L30.3631 6.30367C31.0865 7.02656 31.4258 7.83397 31.4258 8.90458H34.4258H37.4258C37.4258 6.26575 36.4705 3.92455 34.6044 2.05966L32.4837 4.18167ZM34.4258 8.90458H31.4258C31.4258 9.91246 31.1016 10.6979 30.3699 11.4254L32.485 13.5529L34.6001 15.6804C36.4562 13.8351 37.4258 11.5217 37.4258 8.90458H34.4258ZM32.485 13.5529L30.3696 11.4257C29.6481 12.1431 28.8387 12.4829 27.7621 12.4829V15.4829V18.4829C30.3949 18.4829 32.7341 17.536 34.6004 15.6802L32.485 13.5529ZM8.76583 12.6442V15.6442C10.5978 15.6442 12.2714 14.9923 13.5953 13.6897L11.4913 11.5512L9.38725 9.41275C9.23 9.56747 9.08667 9.64417 8.76583 9.64417V12.6442ZM11.4913 11.5512L13.5944 13.6905C14.9057 12.4015 15.6025 10.7511 15.6025 8.90833H12.6025H9.6025C9.6025 9.13282 9.55851 9.24438 9.38805 9.41196L11.4913 11.5512ZM12.6025 8.90833H15.6025C15.6025 7.06184 14.9303 5.38685 13.613 4.06951L11.4917 6.19083L9.37035 8.31215C9.53412 8.47593 9.6025 8.61261 9.6025 8.90833H12.6025ZM11.4917 6.19083L13.6138 4.07031C12.2925 2.74799 10.6117 2.07958 8.76375 2.07958V5.07958V8.07958C9.07243 8.07958 9.21032 8.15201 9.36955 8.31136L11.4917 6.19083ZM8.76375 5.07958V2.07958C6.92084 2.07958 5.27047 2.77752 3.98336 4.09173L6.12667 6.19083L8.26997 8.28994C8.43398 8.12248 8.54166 8.07958 8.76375 8.07958V5.07958ZM6.12667 6.19083L3.98416 4.09092C2.68884 5.41251 2.03792 7.08083 2.03792 8.90833H5.03792H8.03792C8.03792 8.59361 8.11283 8.45027 8.26918 8.29075L6.12667 6.19083ZM5.03792 8.90833H2.03792C2.03792 10.7334 2.7147 12.3779 4.00663 13.6714L6.12917 11.5512L8.2517 9.43114C8.08863 9.26789 8.03792 9.15052 8.03792 8.90833H5.03792ZM6.12917 11.5512L4.00582 13.6705C5.29651 14.9637 6.93961 15.6442 8.76583 15.6442V12.6442V9.64417C8.53094 9.64417 8.41627 9.59603 8.25251 9.43195L6.12917 11.5512ZM27.7579 12.6442V15.6442C29.589 15.6442 31.2589 14.9894 32.5798 13.6897L30.4758 11.5512L28.3718 9.41275C28.2117 9.57031 28.0696 9.64417 27.7579 9.64417V12.6442ZM30.4758 11.5512L32.579 13.6905C33.8902 12.4015 34.5871 10.7511 34.5871 8.90833H31.5871H28.5871C28.5871 9.13281 28.5431 9.24437 28.3726 9.41196L30.4758 11.5512ZM31.5871 8.90833H34.5871C34.5871 7.06148 33.9145 5.38636 32.5968 4.06912L30.4758 6.19083L28.3549 8.31255C28.5188 8.47641 28.5871 8.61297 28.5871 8.90833H31.5871ZM30.4758 6.19083L32.5976 4.06991C31.2782 2.75006 29.6003 2.07958 27.7529 2.07958V5.07958V8.07958C28.0549 8.07958 28.1924 8.14994 28.3541 8.31176L30.4758 6.19083ZM27.7529 5.07958V2.07958C25.9108 2.07958 24.2642 2.77933 22.9778 4.08682L25.1163 6.19083L27.2547 8.29484C27.4261 8.12067 27.5372 8.07958 27.7529 8.07958V5.07958ZM25.1163 6.19083L22.9786 4.08601C21.6782 5.40667 21.0225 7.07653 21.0225 8.90833H24.0225H27.0225C27.0225 8.59791 27.096 8.45611 27.2539 8.29565L25.1163 6.19083ZM24.0225 8.90833H21.0225C21.0225 10.7352 21.7014 12.3804 22.9953 13.6734L25.1158 11.5512L27.2363 9.42912C27.0725 9.26543 27.0225 9.14868 27.0225 8.90833H24.0225ZM25.1158 11.5512L22.9945 13.6726C24.2872 14.9652 25.9315 15.6442 27.7579 15.6442V12.6442V9.64417C27.5187 9.64417 27.4017 9.59448 27.2372 9.42993L25.1158 11.5512Z" fill="var(--stroke-0, #2DA2DB)" mask="url(#path-1-inside-1_0_78)"/>
</g>
</g>
</svg>
