<svg preserveAspectRatio="none" width="100%" height="100%" overflow="visible" style="display: block;" viewBox="0 0 40 40" fill="none" xmlns="http://www.w3.org/2000/svg">
<g id="hard-hat">
<path id="Vector" d="M16.6667 16.6667V8.33333C16.6667 7.89131 16.8423 7.46738 17.1548 7.15482C17.4674 6.84226 17.8913 6.66667 18.3333 6.66667H21.6667C22.1087 6.66667 22.5326 6.84226 22.8452 7.15482C23.1577 7.46738 23.3333 7.89131 23.3333 8.33333V16.6667M23.3333 10C25.9855 10 28.529 11.0536 30.4044 12.9289C32.2798 14.8043 33.3333 17.3478 33.3333 20V25M6.66667 25V20C6.66667 17.3478 7.72024 14.8043 9.5956 12.9289C11.471 11.0536 14.0145 10 16.6667 10M5 25H35C35.9205 25 36.6667 25.7462 36.6667 26.6667V30C36.6667 30.9205 35.9205 31.6667 35 31.6667H5C4.07953 31.6667 3.33333 30.9205 3.33333 30V26.6667C3.33333 25.7462 4.07953 25 5 25Z" stroke="var(--stroke-0, #2DA2DB)" stroke-width="2.5" stroke-linecap="round" stroke-linejoin="round"/>
</g>
</svg>
