<svg preserveAspectRatio="none" width="100%" height="100%" overflow="visible" style="display: block;" viewBox="0 0 20 20" fill="none" xmlns="http://www.w3.org/2000/svg">
<g id="e911_emergency">
<g id="Vector">
<mask id="path-1-inside-1_0_33" fill="white">
<path d="M5 16.866C4.79972 16.866 4.63139 16.7974 4.495 16.6602C4.35847 16.5231 4.29021 16.3539 4.29021 16.1525C4.29021 15.9513 4.35847 15.7833 4.495 15.6485C4.63139 15.5138 4.79972 15.4465 5 15.4465H5.58104L7.29625 9.80021C7.38944 9.49979 7.55868 9.25465 7.80396 9.06479C8.0491 8.87479 8.33049 8.77979 8.64812 8.77979H11.3519C11.6695 8.77979 11.9509 8.87479 12.196 9.06479C12.4413 9.25465 12.6106 9.49979 12.7038 9.80021L14.419 15.4465H15C15.2003 15.4465 15.3686 15.5151 15.505 15.6523C15.6415 15.7894 15.7098 15.9586 15.7098 16.16C15.7098 16.3613 15.6415 16.5292 15.505 16.664C15.3686 16.7987 15.2003 16.866 15 16.866H5ZM7.09375 15.4465H12.9063L11.331 10.1994H8.66896L7.09375 15.4465ZM9.29021 5.51042V3.01042C9.29021 2.81014 9.35882 2.64097 9.49604 2.50292C9.63313 2.36486 9.80236 2.29583 10.0038 2.29583C10.205 2.29583 10.373 2.36486 10.5077 2.50292C10.6424 2.64097 10.7098 2.81014 10.7098 3.01042V5.51042C10.7098 5.71069 10.6412 5.87903 10.504 6.01542C10.3669 6.15194 10.1976 6.22021 9.99625 6.22021C9.795 6.22021 9.62701 6.15194 9.49229 6.01542C9.35757 5.87903 9.29021 5.71069 9.29021 5.51042ZM13.8881 6.83875L15.659 5.06792C15.804 4.94028 15.9721 4.87375 16.1633 4.86833C16.3546 4.86306 16.5197 4.93125 16.6585 5.07292C16.8001 5.21458 16.8708 5.38035 16.8708 5.57021C16.8708 5.76007 16.8001 5.92583 16.6585 6.0675L14.8877 7.85917C14.746 8.00069 14.5794 8.07146 14.3879 8.07146C14.1964 8.07146 14.0298 8.00035 13.8881 7.85813C13.7433 7.71576 13.6708 7.5457 13.6708 7.34792C13.6708 7.15014 13.7433 6.98042 13.8881 6.83875ZM16.2708 10.9569H18.7708C18.9711 10.9569 19.1394 11.0255 19.2758 11.1627C19.4124 11.2998 19.4806 11.469 19.4806 11.6704C19.4806 11.8717 19.4124 12.0397 19.2758 12.1744C19.1394 12.3091 18.9711 12.3765 18.7708 12.3765H16.2708C16.0706 12.3765 15.9022 12.3078 15.7658 12.1706C15.6293 12.0335 15.561 11.8643 15.561 11.6629C15.561 11.4617 15.6293 11.2937 15.7658 11.159C15.9022 11.0242 16.0706 10.9569 16.2708 10.9569ZM5.11229 7.83833L3.34146 6.0675C3.21382 5.92583 3.14736 5.75938 3.14208 5.56813C3.13667 5.37688 3.20479 5.21181 3.34646 5.07292C3.48813 4.92806 3.65389 4.85563 3.84375 4.85563C4.03361 4.85563 4.20104 4.92639 4.34604 5.06792L6.13271 6.83875C6.27438 6.98042 6.34521 7.14701 6.34521 7.33854C6.34521 7.53007 6.27403 7.69667 6.13167 7.83833C5.98931 7.98319 5.81924 8.05479 5.62146 8.05313C5.42368 8.05146 5.25396 7.97986 5.11229 7.83833ZM1.22917 12.3765C1.02889 12.3765 0.860555 12.3078 0.724166 12.1706C0.587639 12.0335 0.519375 11.8643 0.519375 11.6629C0.519375 11.4617 0.587639 11.2937 0.724166 11.159C0.860555 11.0242 1.02889 10.9569 1.22917 10.9569H3.72917C3.92944 10.9569 4.09861 11.0255 4.23667 11.1627C4.37472 11.2998 4.44375 11.469 4.44375 11.6704C4.44375 11.8717 4.37472 12.0397 4.23667 12.1744C4.09861 12.3091 3.92944 12.3765 3.72917 12.3765H1.22917Z"/>
</mask>
<path d="M4.495 16.6602L5.55889 15.6028L5.55781 15.6017L4.495 16.6602ZM4.495 15.6485L5.54858 16.7162L5.54912 16.7157L4.495 15.6485ZM5.58104 15.4465V16.9465H6.69306L7.01628 15.8825L5.58104 15.4465ZM7.29625 9.80021L5.86358 9.35577L5.86101 9.36421L7.29625 9.80021ZM7.80396 9.06479L8.72212 10.251L8.72287 10.2504L7.80396 9.06479ZM12.196 9.06479L11.2771 10.2504L11.2779 10.251L12.196 9.06479ZM12.7038 9.80021L14.139 9.36421L14.1364 9.35578L12.7038 9.80021ZM14.419 15.4465L12.9837 15.8825L13.3069 16.9465H14.419V15.4465ZM15.505 15.6523L14.4411 16.7097L14.4422 16.7108L15.505 15.6523ZM15.505 16.664L14.4514 15.5963L14.4509 15.5968L15.505 16.664ZM7.09375 15.4465L5.65709 15.0152L5.07731 16.9465H7.09375V15.4465ZM12.9062 15.4465V16.9465H14.9227L14.3429 15.0152L12.9062 15.4465ZM11.331 10.1994L12.7677 9.76808L12.4469 8.69938H11.331V10.1994ZM8.66896 10.1994V8.69938H7.55313L7.2323 9.76808L8.66896 10.1994ZM9.49604 2.50292L10.5599 3.56036L10.5604 3.55982L9.49604 2.50292ZM10.504 6.01542L9.44653 4.95153L9.44545 4.95261L10.504 6.01542ZM9.49229 6.01542L10.56 4.96184L10.5595 4.9613L9.49229 6.01542ZM13.8881 6.83875L14.9369 7.91117L14.9429 7.90532L14.9488 7.89941L13.8881 6.83875ZM15.659 5.06792L14.6678 3.942L14.632 3.97352L14.5983 4.00726L15.659 5.06792ZM16.1633 4.86833L16.122 3.3689L16.1209 3.36893L16.1633 4.86833ZM16.6585 5.07292L15.5874 6.12307L15.5974 6.13306L16.6585 5.07292ZM16.6585 6.0675L15.5973 5.00734L15.5917 5.01306L16.6585 6.0675ZM14.8877 7.85917L15.9479 8.92037L15.9546 8.91361L14.8877 7.85917ZM13.8881 7.85813L14.9509 6.79954L14.9452 6.79388L14.9395 6.78827L13.8881 7.85813ZM19.2758 11.1627L18.2119 12.2201L18.213 12.2212L19.2758 11.1627ZM19.2758 12.1744L18.2223 11.1067L18.2217 11.1072L19.2758 12.1744ZM15.7658 12.1706L16.8297 11.1132L16.8286 11.1121L15.7658 12.1706ZM15.7658 11.159L16.8194 12.2267L16.82 12.2261L15.7658 11.159ZM5.11229 7.83833L4.05163 8.89899L4.05215 8.89951L5.11229 7.83833ZM3.34146 6.0675L2.22706 7.07155L2.25319 7.10055L2.2808 7.12816L3.34146 6.0675ZM3.14208 5.56813L4.64151 5.52675L4.64148 5.52566L3.14208 5.56813ZM3.34646 5.07292L4.39657 6.14403L4.40784 6.13297L4.41888 6.12169L3.34646 5.07292ZM4.34604 5.06792L5.402 4.00252L5.39377 3.99448L4.34604 5.06792ZM6.13271 6.83875L7.19338 5.77808L7.18864 5.77338L6.13271 6.83875ZM6.13167 7.83833L5.0736 6.77508L5.06768 6.78098L5.06182 6.78695L6.13167 7.83833ZM0.724166 12.1706L1.78805 11.1132L1.78698 11.1121L0.724166 12.1706ZM0.724166 11.159L1.77774 12.2267L1.77829 12.2261L0.724166 11.159ZM4.23667 11.1627L3.17922 12.2266L3.17976 12.2271L4.23667 11.1627ZM5 16.866V15.366C5.07418 15.366 5.17663 15.3794 5.28971 15.4255C5.40382 15.472 5.49438 15.5379 5.55889 15.6028L4.495 16.6602L3.43111 17.7176C3.85995 18.1491 4.41602 18.366 5 18.366V16.866ZM4.495 16.6602L5.55781 15.6017C5.62249 15.6666 5.68712 15.7568 5.7325 15.8694C5.77741 15.9807 5.79021 16.0809 5.79021 16.1525H4.29021H2.79021C2.79021 16.7326 3.00315 17.2879 3.43219 17.7187L4.495 16.6602ZM4.29021 16.1525H5.79021C5.79021 16.2242 5.7774 16.3262 5.73105 16.4403C5.6841 16.5558 5.61681 16.6489 5.54858 16.7162L4.495 15.6485L3.44142 14.5808C3.00395 15.0125 2.79021 15.572 2.79021 16.1525H4.29021ZM4.495 15.6485L5.54912 16.7157C5.48334 16.7807 5.39283 16.8448 5.28083 16.8896C5.1701 16.9339 5.07078 16.9465 5 16.9465V15.4465V13.9465C4.42471 13.9465 3.87168 14.1558 3.44088 14.5814L4.495 15.6485ZM5 15.4465V16.9465H5.58104V15.4465V13.9465H5V15.4465ZM5.58104 15.4465L7.01628 15.8825L8.73149 10.2362L7.29625 9.80021L5.86101 9.36421L4.1458 15.0105L5.58104 15.4465ZM7.29625 9.80021L8.7289 10.2446C8.73118 10.2373 8.73256 10.2346 8.73214 10.2355C8.73169 10.2364 8.73018 10.2393 8.72748 10.2432C8.72477 10.2472 8.7221 10.2503 8.72018 10.2523C8.71831 10.2543 8.71852 10.2537 8.72212 10.251L7.80396 9.06479L6.88579 7.87863C6.39329 8.25987 6.04669 8.76559 5.8636 9.35578L7.29625 9.80021ZM7.80396 9.06479L8.72287 10.2504C8.72193 10.2511 8.71717 10.2546 8.70864 10.2593C8.70003 10.2639 8.68979 10.2685 8.67866 10.2722C8.65436 10.2804 8.64109 10.2798 8.64812 10.2798V8.77979V7.27979C8.00647 7.27979 7.39993 7.48014 6.88505 7.87921L7.80396 9.06479ZM8.64812 8.77979V10.2798H11.3519V8.77979V7.27979H8.64812V8.77979ZM11.3519 8.77979V10.2798C11.3589 10.2798 11.3456 10.2804 11.3213 10.2722C11.3102 10.2685 11.3 10.2639 11.2914 10.2593C11.2828 10.2546 11.2781 10.2511 11.2771 10.2504L12.196 9.06479L13.115 7.87921C12.6001 7.48014 11.9935 7.27979 11.3519 7.27979V8.77979ZM12.196 9.06479L11.2779 10.251C11.2815 10.2537 11.2817 10.2543 11.2798 10.2523C11.2779 10.2503 11.2752 10.2472 11.2725 10.2432C11.2698 10.2393 11.2683 10.2364 11.2679 10.2355C11.2674 10.2346 11.2688 10.2373 11.2711 10.2446L12.7038 9.80021L14.1364 9.35578C13.9533 8.76559 13.6067 8.25986 13.1142 7.87863L12.196 9.06479ZM12.7038 9.80021L11.2685 10.2362L12.9837 15.8825L14.419 15.4465L15.8542 15.0105L14.139 9.36422L12.7038 9.80021ZM14.419 15.4465V16.9465H15V15.4465V13.9465H14.419V15.4465ZM15 15.4465V16.9465C14.9258 16.9465 14.8234 16.9331 14.7103 16.887C14.5962 16.8405 14.5056 16.7746 14.4411 16.7097L15.505 15.6523L16.5689 14.5949C16.1401 14.1634 15.584 13.9465 15 13.9465V15.4465ZM15.505 15.6523L14.4422 16.7108C14.3775 16.6459 14.3129 16.5557 14.2675 16.4432C14.2226 16.3318 14.2098 16.2316 14.2098 16.16H15.7098H17.2098C17.2098 15.5799 16.9968 15.0246 16.5678 14.5938L15.505 15.6523ZM15.7098 16.16H14.2098C14.2098 16.0883 14.2226 15.9863 14.269 15.8722C14.3159 15.7567 14.3832 15.6636 14.4514 15.5963L15.505 16.664L16.5586 17.7317C16.996 17.3 17.2098 16.7405 17.2098 16.16H15.7098ZM15.505 16.664L14.4509 15.5968C14.5167 15.5318 14.6072 15.4677 14.7192 15.4229C14.8299 15.3786 14.9292 15.366 15 15.366V16.866V18.366C15.5753 18.366 16.1283 18.1567 16.5591 17.7311L15.505 16.664ZM15 16.866V15.366H5V16.866V18.366H15V16.866ZM7.09375 15.4465V16.9465H12.9062V15.4465V13.9465H7.09375V15.4465ZM12.9062 15.4465L14.3429 15.0152L12.7677 9.76808L11.331 10.1994L9.89438 10.6307L11.4696 15.8778L12.9062 15.4465ZM11.331 10.1994V8.69938H8.66896V10.1994V11.6994H11.331V10.1994ZM8.66896 10.1994L7.2323 9.76808L5.65709 15.0152L7.09375 15.4465L8.53041 15.8778L10.1056 10.6307L8.66896 10.1994ZM9.29021 5.51042H10.7902V3.01042H9.29021H7.79021V5.51042H9.29021ZM9.29021 3.01042H10.7902C10.7902 3.0847 10.7768 3.18594 10.7317 3.2971C10.6863 3.40911 10.6223 3.49761 10.5599 3.56036L9.49604 2.50292L8.43218 1.44547C8.00671 1.87352 7.79021 2.42669 7.79021 3.01042H9.29021ZM9.49604 2.50292L10.5604 3.55982C10.4963 3.62443 10.4061 3.6901 10.2923 3.73651C10.1795 3.7825 10.0775 3.79583 10.0037 3.79583V2.29583V0.795833C9.4184 0.795833 8.8612 1.0134 8.43164 1.44601L9.49604 2.50292ZM10.0037 2.29583V3.79583C9.92999 3.79583 9.82606 3.78249 9.71056 3.73504C9.59374 3.68703 9.50067 3.61869 9.43417 3.55054L10.5077 2.50292L11.5813 1.4553C11.1509 1.01425 10.5896 0.795833 10.0037 0.795833V2.29583ZM10.5077 2.50292L9.43417 3.55054C9.37173 3.48656 9.30945 3.39815 9.26569 3.28825C9.22235 3.17942 9.20979 3.0813 9.20979 3.01042H10.7098H12.2098C12.2098 2.43531 12.0008 1.88523 11.5813 1.4553L10.5077 2.50292ZM10.7098 3.01042H9.20979V5.51042H10.7098H12.2098V3.01042H10.7098ZM10.7098 5.51042H9.20979C9.20979 5.43624 9.2232 5.33378 9.26928 5.22071C9.3158 5.1066 9.38163 5.01604 9.44653 4.95153L10.504 6.01542L11.5614 7.0793C11.9928 6.65047 12.2098 6.0944 12.2098 5.51042H10.7098ZM10.504 6.01542L9.44545 4.95261C9.51039 4.88793 9.60059 4.8233 9.7131 4.77792C9.82442 4.73301 9.9246 4.72021 9.99625 4.72021V6.22021V7.72021C10.5763 7.72021 11.1317 7.50726 11.5625 7.07823L10.504 6.01542ZM9.99625 6.22021V4.72021C10.0679 4.72021 10.17 4.73301 10.284 4.77937C10.3996 4.82632 10.4927 4.89361 10.56 4.96184L9.49229 6.01542L8.4246 7.06899C8.85628 7.50647 9.41575 7.72021 9.99625 7.72021V6.22021ZM9.49229 6.01542L10.5595 4.9613C10.6244 5.02708 10.6885 5.11759 10.7334 5.22959C10.7777 5.34032 10.7902 5.43964 10.7902 5.51042H9.29021H7.79021C7.79021 6.08571 7.9996 6.63874 8.42513 7.06954L9.49229 6.01542ZM13.8881 6.83875L14.9488 7.89941L16.7196 6.12858L15.659 5.06792L14.5983 4.00726L12.8275 5.77809L13.8881 6.83875ZM15.659 5.06792L16.6501 6.19384C16.6017 6.23643 16.5332 6.28246 16.4457 6.31706C16.3581 6.35174 16.2745 6.36578 16.2058 6.36773L16.1633 4.86833L16.1209 3.36893C15.5758 3.38437 15.073 3.58537 14.6678 3.942L15.659 5.06792ZM16.1633 4.86833L16.2047 6.36776C16.1052 6.37051 15.9834 6.35375 15.8578 6.30187C15.7335 6.25052 15.644 6.18069 15.5874 6.12302L16.6585 5.07292L17.7297 4.02281C17.3108 3.59557 16.7475 3.35164 16.122 3.3689L16.1633 4.86833ZM16.6585 5.07292L15.5974 6.13306C15.5479 6.08357 15.4858 6.00399 15.4382 5.89242C15.3899 5.77927 15.3708 5.6667 15.3708 5.57021H16.8708H18.3708C18.3708 4.95924 18.1252 4.4186 17.7197 4.01278L16.6585 5.07292ZM16.8708 5.57021H15.3708C15.3708 5.47371 15.3899 5.36115 15.4382 5.248C15.4858 5.13643 15.5479 5.05684 15.5974 5.00736L16.6585 6.0675L17.7197 7.12764C18.1252 6.72181 18.3708 6.18118 18.3708 5.57021H16.8708ZM16.6585 6.0675L15.5917 5.01306L13.8209 6.80473L14.8877 7.85917L15.9546 8.91361L17.7254 7.12194L16.6585 6.0675ZM14.8877 7.85917L13.8276 6.79799C13.8782 6.74736 13.9586 6.68514 14.0701 6.63777C14.1829 6.58985 14.2941 6.57146 14.3879 6.57146V8.07146V9.57146C14.9967 9.57146 15.5392 9.32861 15.9478 8.92035L14.8877 7.85917ZM14.3879 8.07146V6.57146C14.4828 6.57146 14.5948 6.59014 14.7082 6.63855C14.8202 6.68636 14.9005 6.749 14.9509 6.79954L13.8881 7.85813L12.8254 8.91671C13.2334 9.32636 13.7767 9.57146 14.3879 9.57146V8.07146ZM13.8881 7.85813L14.9395 6.78827C14.9933 6.84109 15.0572 6.92334 15.1052 7.03605C15.1536 7.14959 15.1708 7.25912 15.1708 7.34792H13.6708H12.1708C12.1708 7.96005 12.4136 8.51212 12.8367 8.92798L13.8881 7.85813ZM13.6708 7.34792H15.1708C15.1708 7.43668 15.1536 7.54672 15.1048 7.66106C15.0563 7.77464 14.9916 7.85768 14.9369 7.91117L13.8881 6.83875L12.8394 5.76633C12.4139 6.18244 12.1708 6.73555 12.1708 7.34792H13.6708ZM16.2708 10.9569V12.4569H18.7708V10.9569V9.45688H16.2708V10.9569ZM18.7708 10.9569V12.4569C18.6967 12.4569 18.5942 12.4435 18.4811 12.3974C18.367 12.3509 18.2765 12.285 18.2119 12.2201L19.2758 11.1627L20.3397 10.1053C19.9109 9.67383 19.3548 9.45688 18.7708 9.45688V10.9569ZM19.2758 11.1627L18.213 12.2212C18.1483 12.1563 18.0837 12.0661 18.0383 11.9536C17.9934 11.8422 17.9806 11.7421 17.9806 11.6704H19.4806H20.9806C20.9806 11.0904 20.7677 10.535 20.3386 10.1042L19.2758 11.1627ZM19.4806 11.6704H17.9806C17.9806 11.5987 17.9934 11.4967 18.0398 11.3826C18.0867 11.2671 18.154 11.174 18.2223 11.1067L19.2758 12.1744L20.3294 13.2421C20.7669 12.8104 20.9806 12.2509 20.9806 11.6704H19.4806ZM19.2758 12.1744L18.2217 11.1072C18.2875 11.0422 18.378 10.9781 18.49 10.9333C18.6007 10.889 18.7001 10.8765 18.7708 10.8765V12.3765V13.8765C19.3461 13.8765 19.8992 13.6671 20.33 13.2415L19.2758 12.1744ZM18.7708 12.3765V10.8765H16.2708V12.3765V13.8765H18.7708V12.3765ZM16.2708 12.3765V10.8765C16.345 10.8765 16.4475 10.8899 16.5605 10.936C16.6747 10.9825 16.7652 11.0483 16.8297 11.1132L15.7658 12.1706L14.7019 13.2281C15.1308 13.6595 15.6869 13.8765 16.2708 13.8765V12.3765ZM15.7658 12.1706L16.8286 11.1121C16.8933 11.1771 16.958 11.2673 17.0033 11.3798C17.0482 11.4911 17.061 11.5913 17.061 11.6629H15.561H14.061C14.061 12.243 14.274 12.7984 14.703 13.2291L15.7658 12.1706ZM15.561 11.6629H17.061C17.061 11.7346 17.0482 11.8366 17.0019 11.9507C16.9549 12.0662 16.8876 12.1593 16.8194 12.2267L15.7658 11.159L14.7123 10.0913C14.2748 10.523 14.061 11.0824 14.061 11.6629H15.561ZM15.7658 11.159L16.82 12.2261C16.7542 12.2911 16.6637 12.3552 16.5517 12.4C16.4409 12.4443 16.3416 12.4569 16.2708 12.4569V10.9569V9.45688C15.6955 9.45688 15.1425 9.66626 14.7117 10.0918L15.7658 11.159ZM5.11229 7.83833L6.17295 6.77767L4.40212 5.00684L3.34146 6.0675L2.2808 7.12816L4.05163 8.89899L5.11229 7.83833ZM3.34146 6.0675L4.45586 5.06345C4.50302 5.1158 4.55238 5.1886 4.58896 5.28022C4.62551 5.37177 4.63961 5.45783 4.64151 5.52675L3.14208 5.56813L1.64265 5.6095C1.65773 6.1559 1.85986 6.66399 2.22706 7.07155L3.34146 6.0675ZM3.14208 5.56813L4.64148 5.52566C4.6443 5.62532 4.6276 5.74731 4.57567 5.87312C4.52427 5.99767 4.45433 6.0874 4.39657 6.14403L3.34646 5.07292L2.29635 4.00181C1.86885 4.42093 1.62496 4.98466 1.64268 5.61059L3.14208 5.56813ZM3.34646 5.07292L4.41888 6.12169C4.371 6.17065 4.2915 6.2347 4.17762 6.28446C4.06175 6.33509 3.94508 6.35563 3.84375 6.35563V4.85563V3.35563C3.22108 3.35563 2.67683 3.61228 2.27404 4.02415L3.34646 5.07292ZM3.84375 4.85563V6.35563C3.74717 6.35563 3.63703 6.33654 3.52776 6.29036C3.42032 6.24495 3.34448 6.18642 3.29831 6.14135L4.34604 5.06792L5.39377 3.99448C4.98937 3.59976 4.45326 3.35563 3.84375 3.35563V4.85563ZM4.34604 5.06792L3.29011 6.13329L5.07678 7.90412L6.13271 6.83875L7.18864 5.77338L5.40197 4.00255L4.34604 5.06792ZM6.13271 6.83875L5.07205 7.89941C5.02144 7.8488 4.95913 7.76848 4.91168 7.65687C4.86365 7.54392 4.84521 7.43259 4.84521 7.33854H6.34521H7.84521C7.84521 6.72924 7.60191 6.18663 7.19337 5.77809L6.13271 6.83875ZM6.34521 7.33854H4.84521C4.84521 7.2435 4.86395 7.13131 4.91245 7.01778C4.96035 6.90568 5.02308 6.82536 5.0736 6.77508L6.13167 7.83833L7.18973 8.90158C7.59966 8.49365 7.84521 7.95027 7.84521 7.33854H6.34521ZM6.13167 7.83833L5.06182 6.78695C5.11568 6.73213 5.19983 6.66682 5.31533 6.61819C5.43169 6.56921 5.54371 6.55242 5.6341 6.55318L5.62146 8.05313L5.60882 9.55307C6.22547 9.55827 6.78269 9.3159 7.20152 8.88972L6.13167 7.83833ZM5.62146 8.05313L5.6341 6.55318C5.71661 6.55387 5.82014 6.57026 5.92885 6.61612C6.03722 6.66183 6.1184 6.72317 6.17243 6.77715L5.11229 7.83833L4.05215 8.89951C4.4681 9.31506 5.01241 9.54805 5.60882 9.55307L5.62146 8.05313ZM1.22917 12.3765V10.8765C1.30335 10.8765 1.4058 10.8899 1.51887 10.936C1.63299 10.9825 1.72355 11.0483 1.78805 11.1132L0.724166 12.1706L-0.339719 13.2281C0.0891148 13.6595 0.645187 13.8765 1.22917 13.8765V12.3765ZM0.724166 12.1706L1.78698 11.1121C1.85165 11.1771 1.91628 11.2673 1.96167 11.3798C2.00657 11.4911 2.01937 11.5913 2.01937 11.6629H0.519375H-0.980625C-0.980625 12.243 -0.767678 12.7984 -0.338645 13.2291L0.724166 12.1706ZM0.519375 11.6629H2.01937C2.01937 11.7346 2.00657 11.8366 1.96022 11.9507C1.91327 12.0662 1.84598 12.1593 1.77774 12.2267L0.724166 11.159L-0.32941 10.0913C-0.766885 10.523 -0.980625 11.0824 -0.980625 11.6629H0.519375ZM0.724166 11.159L1.77829 12.2261C1.71251 12.2911 1.62199 12.3552 1.50999 12.4C1.39927 12.4443 1.29994 12.4569 1.22917 12.4569V10.9569V9.45688C0.653877 9.45688 0.100847 9.66626 -0.329953 10.0918L0.724166 11.159ZM1.22917 10.9569V12.4569H3.72917V10.9569V9.45688H1.22917V10.9569ZM3.72917 10.9569V12.4569C3.65488 12.4569 3.55364 12.4434 3.44248 12.3984C3.33048 12.3529 3.24198 12.289 3.17922 12.2266L4.23667 11.1627L5.29411 10.0988C4.86607 9.67338 4.3129 9.45688 3.72917 9.45688V10.9569ZM4.23667 11.1627L3.17976 12.2271C3.11515 12.163 3.04948 12.0727 3.00307 11.959C2.95708 11.8462 2.94375 11.7441 2.94375 11.6704H4.44375H5.94375C5.94375 11.0851 5.72618 10.5279 5.29357 10.0983L4.23667 11.1627ZM4.44375 11.6704H2.94375C2.94375 11.5967 2.95709 11.4927 3.00455 11.3772C3.05255 11.2604 3.1209 11.1673 3.18905 11.1008L4.23667 12.1744L5.28429 13.2479C5.72534 12.8175 5.94375 12.2563 5.94375 11.6704H4.44375ZM4.23667 12.1744L3.18905 11.1008C3.25302 11.0384 3.34144 10.9761 3.45133 10.9324C3.56016 10.889 3.65829 10.8765 3.72917 10.8765V12.3765V13.8765C4.30427 13.8765 4.85436 13.6675 5.28429 13.2479L4.23667 12.1744ZM3.72917 12.3765V10.8765H1.22917V12.3765V13.8765H3.72917V12.3765Z" fill="var(--stroke-0, #1E729C)" mask="url(#path-1-inside-1_0_33)"/>
</g>
</g>
</svg>
