<svg preserveAspectRatio="none" width="100%" height="100%" overflow="visible" style="display: block;" viewBox="0 0 20 20" fill="none" xmlns="http://www.w3.org/2000/svg">
<g id="rule">
<g id="Vector">
<mask id="path-1-inside-1_0_33" fill="white">
<path d="M14.2029 14.5583L12.4525 16.309C12.3108 16.4538 12.1451 16.5263 11.9552 16.5263C11.7652 16.5263 11.5994 16.4538 11.4579 16.309C11.3162 16.1673 11.2454 16.0024 11.2454 15.8142C11.2454 15.6258 11.3162 15.4592 11.4579 15.3144L13.2083 13.564L11.4579 11.8133C11.3162 11.6718 11.2454 11.506 11.2454 11.316C11.2454 11.1262 11.3162 10.9604 11.4579 10.8187C11.5994 10.6772 11.7652 10.6065 11.9552 10.6065C12.1451 10.6065 12.3108 10.6772 12.4525 10.8187L14.2029 12.5694L15.9583 10.8187C16.1 10.6772 16.2649 10.6065 16.4531 10.6065C16.6413 10.6065 16.8079 10.6772 16.9529 10.8187C17.0944 10.9604 17.1652 11.1262 17.1652 11.316C17.1652 11.506 17.0944 11.6718 16.9529 11.8133L15.1975 13.564L16.9529 15.3144C17.0944 15.4592 17.1652 15.6258 17.1652 15.8142C17.1652 16.0024 17.0944 16.1673 16.9529 16.309C16.8079 16.4538 16.6413 16.5263 16.4531 16.5263C16.2649 16.5263 16.1 16.4538 15.9583 16.309L14.2029 14.5583ZM13.7142 6.98458L16.941 3.75271C17.0827 3.61104 17.2501 3.54368 17.4433 3.55062C17.6367 3.55757 17.8041 3.63187 17.9456 3.77354C18.0873 3.91521 18.1573 4.08097 18.1556 4.27083C18.154 4.46069 18.0823 4.62646 17.9406 4.76812L14.2115 8.49229C14.0699 8.63396 13.9033 8.70563 13.7117 8.70729C13.5201 8.70896 13.3535 8.63896 13.2119 8.49729L11.1335 6.41396C10.9887 6.27229 10.9162 6.10653 10.9162 5.91667C10.9162 5.72681 10.9887 5.56104 11.1335 5.41937C11.2752 5.27771 11.441 5.21035 11.6308 5.21729C11.8208 5.22424 11.9866 5.2916 12.1281 5.41937L13.7142 6.98458ZM2.27167 12.6235H8.43708C8.64083 12.6235 8.81007 12.6909 8.94479 12.8256C9.07937 12.9603 9.14667 13.1296 9.14667 13.3333C9.14667 13.5371 9.07937 13.7063 8.94479 13.841C8.81007 13.9758 8.64083 14.0431 8.43708 14.0431H2.27167C2.06792 14.0431 1.89868 13.9758 1.76396 13.841C1.62937 13.7063 1.56208 13.5371 1.56208 13.3333C1.56208 13.1296 1.62937 12.9603 1.76396 12.8256C1.89868 12.6909 2.06792 12.6235 2.27167 12.6235ZM2.27167 5.95687H8.43708C8.64083 5.95687 8.81007 6.02424 8.94479 6.15896C9.07937 6.29368 9.14667 6.46292 9.14667 6.66667C9.14667 6.87042 9.07937 7.03965 8.94479 7.17437C8.81007 7.3091 8.64083 7.37646 8.43708 7.37646H2.27167C2.06792 7.37646 1.89868 7.3091 1.76396 7.17437C1.62937 7.03965 1.56208 6.87042 1.56208 6.66667C1.56208 6.46292 1.62937 6.29368 1.76396 6.15896C1.89868 6.02424 2.06792 5.95687 2.27167 5.95687Z"/>
</mask>
<path d="M14.2029 14.5583L15.2621 13.4962L14.2014 12.4384L13.1422 13.4977L14.2029 14.5583ZM12.4525 16.309L11.3918 15.2484L11.3859 15.2542L11.3801 15.2602L12.4525 16.309ZM11.4579 16.309L12.5308 15.2607L12.5247 15.2545L12.5186 15.2483L11.4579 16.309ZM11.4579 15.3144L10.3973 14.2537L10.3913 14.2596L10.3855 14.2656L11.4579 15.3144ZM13.2083 13.564L14.269 14.6246L15.3296 13.564L14.2691 12.5034L13.2083 13.564ZM11.4579 11.8133L12.5186 10.7527L12.5181 10.7522L11.4579 11.8133ZM11.4579 10.8187L10.3973 9.75809L11.4579 10.8187ZM12.4525 10.8187L13.5132 9.75815L13.5126 9.75757L12.4525 10.8187ZM14.2029 12.5694L13.1422 13.63L14.2014 14.6893L15.2621 13.6315L14.2029 12.5694ZM15.9583 10.8187L17.0175 11.8809L17.0185 11.8799L15.9583 10.8187ZM16.9529 10.8187L18.0141 9.75861L18.0074 9.75192L18.0006 9.74532L16.9529 10.8187ZM16.9529 11.8133L18.0121 12.8754L18.0136 12.874L16.9529 11.8133ZM15.1975 13.564L14.1383 12.5019L13.0732 13.564L14.1384 14.6261L15.1975 13.564ZM16.9529 15.3144L18.0258 14.2661L18.019 14.2591L18.0121 14.2522L16.9529 15.3144ZM16.9529 16.309L18.0131 17.3701L18.0141 17.3691L16.9529 16.309ZM15.9583 16.309L17.0308 15.2602L17.0242 15.2535L17.0175 15.2469L15.9583 16.309ZM13.7142 6.98458L12.6605 8.05223L13.722 9.09973L14.7756 8.04442L13.7142 6.98458ZM16.941 3.75271L15.8804 2.69205L15.8796 2.69287L16.941 3.75271ZM17.4433 3.55062L17.3895 5.04966L17.3895 5.04966L17.4433 3.55062ZM17.9456 3.77354L16.8844 4.83368L16.885 4.8342L17.9456 3.77354ZM17.9406 4.76812L19.0006 5.8295L19.0013 5.82878L17.9406 4.76812ZM14.2115 8.49229L13.1515 7.43092L13.1503 7.43215L14.2115 8.49229ZM13.7117 8.70729L13.6986 7.20735L13.6986 7.20735L13.7117 8.70729ZM13.2119 8.49729L12.1499 9.55668L12.1512 9.55795L13.2119 8.49729ZM11.1335 6.41396L12.1955 5.35457L12.1889 5.34802L12.1823 5.34154L11.1335 6.41396ZM11.1335 5.41937L12.1823 6.49179L12.1883 6.48595L12.1942 6.48003L11.1335 5.41937ZM11.6308 5.21729L11.576 6.71629L11.576 6.71629L11.6308 5.21729ZM12.1281 5.41937L13.1817 4.35173L13.158 4.32833L13.1333 4.30601L12.1281 5.41937ZM8.94479 12.8256L10.006 11.7655L10.0055 11.765L8.94479 12.8256ZM8.94479 13.841L10.0055 14.9017L10.006 14.9012L8.94479 13.841ZM1.76396 13.841L0.702751 14.9012L0.703298 14.9017L1.76396 13.841ZM1.76396 12.8256L0.703298 11.765L0.702751 11.7655L1.76396 12.8256ZM8.94479 6.15896L10.006 5.09885L10.0055 5.0983L8.94479 6.15896ZM8.94479 7.17437L10.0055 8.23503L10.006 8.23449L8.94479 7.17437ZM1.76396 7.17437L0.702751 8.23449L0.703298 8.23503L1.76396 7.17437ZM1.76396 6.15896L0.703298 5.0983L0.702751 5.09885L1.76396 6.15896ZM14.2029 14.5583L13.1422 13.4977L11.3918 15.2484L12.4525 16.309L13.5132 17.3696L15.2636 15.6189L14.2029 14.5583ZM12.4525 16.309L11.3801 15.2602C11.428 15.2112 11.5075 15.1472 11.6213 15.0974C11.7372 15.0468 11.8539 15.0263 11.9552 15.0263V16.5263V18.0263C12.5779 18.0263 13.1221 17.7696 13.5249 17.3577L12.4525 16.309ZM11.9552 16.5263V15.0263C12.0563 15.0263 12.173 15.0467 12.289 15.0974C12.403 15.1472 12.4827 15.2115 12.5308 15.2607L11.4579 16.309L10.385 17.3572C10.7881 17.7698 11.3327 18.0263 11.9552 18.0263V16.5263ZM11.4579 16.309L12.5186 15.2483C12.5668 15.2965 12.6288 15.3754 12.6768 15.4871C12.7256 15.6006 12.7454 15.7148 12.7454 15.8142H11.2454H9.74542C9.74542 16.4278 9.99442 16.9668 10.3973 17.3696L11.4579 16.309ZM11.2454 15.8142H12.7454C12.7454 15.9134 12.7256 16.0251 12.679 16.1349C12.6331 16.2426 12.5745 16.318 12.5303 16.3631L11.4579 15.3144L10.3855 14.2656C9.99263 14.6673 9.74542 15.2022 9.74542 15.8142H11.2454ZM11.4579 15.3144L12.5186 16.375L14.269 14.6246L13.2083 13.564L12.1477 12.5033L10.3973 14.2537L11.4579 15.3144ZM13.2083 13.564L14.2691 12.5034L12.5186 10.7527L11.4579 11.8133L10.3972 12.8739L12.1476 14.6246L13.2083 13.564ZM11.4579 11.8133L12.5181 10.7522C12.5678 10.8018 12.6301 10.8816 12.6779 10.9935C12.7263 11.1069 12.7454 11.2196 12.7454 11.316H11.2454H9.74542C9.74542 11.9274 9.99137 12.4685 10.3978 12.8745L11.4579 11.8133ZM11.2454 11.316H12.7454C12.7454 11.4127 12.7263 11.5255 12.6779 11.6387C12.6302 11.7504 12.568 11.83 12.5186 11.8794L11.4579 10.8187L10.3973 9.75809C9.99155 10.1638 9.74542 10.7046 9.74542 11.316H11.2454ZM11.4579 10.8187L12.5186 11.8794C12.4689 11.9291 12.3891 11.9914 12.2773 12.0391C12.164 12.0874 12.0515 12.1065 11.9552 12.1065V10.6065V9.10646C11.3444 9.10646 10.8034 9.35197 10.3973 9.75809L11.4579 10.8187ZM11.9552 10.6065V12.1065C11.8587 12.1065 11.7461 12.0874 11.633 12.0391C11.5214 11.9915 11.4418 11.9294 11.3924 11.8799L12.4525 10.8187L13.5126 9.75757C13.1068 9.35214 12.5662 9.10646 11.9552 9.10646V10.6065ZM12.4525 10.8187L11.3918 11.8793L13.1422 13.63L14.2029 12.5694L15.2636 11.5088L13.5132 9.75815L12.4525 10.8187ZM14.2029 12.5694L15.2621 13.6315L17.0175 11.8809L15.9583 10.8187L14.8991 9.75664L13.1437 11.5073L14.2029 12.5694ZM15.9583 10.8187L17.0185 11.8799C16.9702 11.9282 16.8913 11.9901 16.7797 12.038C16.6663 12.0867 16.5523 12.1065 16.4531 12.1065V10.6065V9.10646C15.84 9.10646 15.3011 9.35501 14.8982 9.75757L15.9583 10.8187ZM16.4531 10.6065V12.1065C16.3539 12.1065 16.2423 12.0867 16.1328 12.0401C16.0253 11.9945 15.9502 11.9361 15.9052 11.8922L16.9529 10.8187L18.0006 9.74532C17.5991 9.35339 17.0647 9.10646 16.4531 9.10646V10.6065ZM16.9529 10.8187L15.8917 11.8789C15.8423 11.8294 15.7802 11.7498 15.7326 11.6382C15.6843 11.5251 15.6652 11.4125 15.6652 11.316H17.1652H18.6652C18.6652 10.7051 18.4195 10.1644 18.0141 9.75861L16.9529 10.8187ZM17.1652 11.316H15.6652C15.6652 11.2198 15.6842 11.1072 15.7326 10.9939C15.7803 10.8822 15.8425 10.8024 15.8923 10.7527L16.9529 11.8133L18.0136 12.874C18.4197 12.4679 18.6652 11.9269 18.6652 11.316H17.1652ZM16.9529 11.8133L15.8937 10.7512L14.1383 12.5019L15.1975 13.564L16.2567 14.6261L18.0121 12.8754L16.9529 11.8133ZM15.1975 13.564L14.1384 14.6261L15.8938 16.3765L16.9529 15.3144L18.0121 14.2522L16.2566 12.5018L15.1975 13.564ZM16.9529 15.3144L15.88 16.3626C15.8358 16.3174 15.7772 16.2421 15.7315 16.1344C15.6849 16.0247 15.6652 15.9132 15.6652 15.8142H17.1652H18.6652C18.6652 15.2027 18.4184 14.668 18.0258 14.2661L16.9529 15.3144ZM17.1652 15.8142H15.6652C15.6652 15.715 15.685 15.601 15.7337 15.4876C15.7816 15.3759 15.8435 15.2971 15.8917 15.2488L16.9529 16.309L18.0141 17.3691C18.4167 16.9661 18.6652 16.4273 18.6652 15.8142H17.1652ZM16.9529 16.309L15.8928 15.2478C15.9363 15.2043 16.0114 15.144 16.1212 15.0963C16.2334 15.0475 16.349 15.0263 16.4531 15.0263V16.5263V18.0263C17.0763 18.0263 17.6144 17.7684 18.0131 17.3701L16.9529 16.309ZM16.4531 16.5263V15.0263C16.5572 15.0263 16.6753 15.0475 16.7914 15.0985C16.9053 15.1485 16.9841 15.2124 17.0308 15.2602L15.9583 16.309L14.8859 17.3577C15.2858 17.7666 15.8282 18.0263 16.4531 18.0263V16.5263ZM15.9583 16.309L17.0175 15.2469L15.2621 13.4962L14.2029 14.5583L13.1437 15.6204L14.8991 17.3711L15.9583 16.309ZM13.7142 6.98458L14.7756 8.04442L18.0025 4.81255L16.941 3.75271L15.8796 2.69287L12.6527 5.92474L13.7142 6.98458ZM16.941 3.75271L18.0017 4.81337C17.9454 4.86968 17.8562 4.93786 17.7327 4.98753C17.608 5.0377 17.4875 5.05318 17.3895 5.04966L17.4433 3.55062L17.4972 2.05159C16.871 2.02908 16.3045 2.26794 15.8804 2.69205L16.941 3.75271ZM17.4433 3.55062L17.3895 5.04966C17.3057 5.04665 17.2064 5.02742 17.1054 4.98261C17.0053 4.93818 16.932 4.88126 16.8844 4.83368L17.9456 3.77354L19.0068 2.7134C18.6075 2.31371 18.0842 2.07268 17.4972 2.05159L17.4433 3.55062ZM17.9456 3.77354L16.885 4.8342C16.8345 4.78371 16.7709 4.70219 16.7225 4.58765C16.6735 4.47146 16.6548 4.3561 16.6557 4.25767L18.1556 4.27083L19.6556 4.284C19.661 3.66768 19.415 3.12158 19.0063 2.71288L17.9456 3.77354ZM18.1556 4.27083L16.6557 4.25767C16.6565 4.16276 16.6761 4.05265 16.7238 3.94229C16.7708 3.83346 16.8316 3.75581 16.88 3.70746L17.9406 4.76812L19.0013 5.82878C19.404 5.42604 19.6502 4.89052 19.6556 4.284L18.1556 4.27083ZM17.9406 4.76812L16.8807 3.70675L13.1515 7.43092L14.2115 8.49229L15.2714 9.55366L19.0006 5.8295L17.9406 4.76812ZM14.2115 8.49229L13.1503 7.43215C13.2 7.38233 13.2787 7.32124 13.3876 7.27438C13.4978 7.22697 13.6066 7.20815 13.6986 7.20735L13.7117 8.70729L13.7247 10.2072C14.3291 10.202 14.8668 9.95868 15.2726 9.55243L14.2115 8.49229ZM13.7117 8.70729L13.6986 7.20735C13.7944 7.20652 13.9083 7.22448 14.0241 7.27316C14.1386 7.32125 14.2208 7.38495 14.2725 7.43663L13.2119 8.49729L12.1512 9.55795C12.5628 9.9695 13.1106 10.2126 13.7247 10.2072L13.7117 8.70729ZM13.2119 8.49729L14.2738 7.43791L12.1955 5.35457L11.1335 6.41396L10.0716 7.47334L12.1499 9.55668L13.2119 8.49729ZM11.1335 6.41396L12.1823 5.34154C12.2313 5.38942 12.2953 5.46891 12.3451 5.58279C12.3957 5.69867 12.4162 5.81534 12.4162 5.91667H10.9162H9.41625C9.41625 6.53934 9.6729 7.08359 10.0848 7.48638L11.1335 6.41396ZM10.9162 5.91667H12.4162C12.4162 6.018 12.3957 6.13467 12.3451 6.25054C12.2953 6.36442 12.2313 6.44391 12.1823 6.49179L11.1335 5.41937L10.0848 4.34696C9.6729 4.74974 9.41625 5.29399 9.41625 5.91667H10.9162ZM11.1335 5.41937L12.1942 6.48003C12.1403 6.53393 12.0526 6.60196 11.9288 6.65225C11.8032 6.70328 11.6797 6.72008 11.576 6.71629L11.6308 5.21729L11.6857 3.71829C11.0543 3.6952 10.4912 3.94036 10.0729 4.35871L11.1335 5.41937ZM11.6308 5.21729L11.576 6.71629C11.507 6.71377 11.4223 6.69896 11.3329 6.66266C11.2437 6.62639 11.1732 6.57815 11.1229 6.53274L12.1281 5.41937L13.1333 4.30601C12.731 3.94275 12.229 3.73815 11.6856 3.71829L11.6308 5.21729ZM12.1281 5.41937L11.0745 6.48702L12.6605 8.05223L13.7142 6.98458L14.7678 5.91693L13.1817 4.35173L12.1281 5.41937ZM2.27167 12.6235V14.1235H8.43708V12.6235V11.1235H2.27167V12.6235ZM8.43708 12.6235V14.1235C8.37145 14.1235 8.27372 14.1121 8.1621 14.0677C8.04849 14.0225 7.95425 13.9564 7.88413 13.8863L8.94479 12.8256L10.0055 11.765C9.56852 11.328 9.00808 11.1235 8.43708 11.1235V12.6235ZM8.94479 12.8256L7.88358 13.8857C7.81346 13.8155 7.74747 13.7213 7.70234 13.6078C7.65801 13.4963 7.64667 13.3988 7.64667 13.3333H9.14667H10.6467C10.6467 12.7628 10.4426 12.2026 10.006 11.7655L8.94479 12.8256ZM9.14667 13.3333H7.64667C7.64667 13.2679 7.65801 13.1703 7.70234 13.0588C7.74747 12.9454 7.81346 12.8511 7.88358 12.7809L8.94479 13.841L10.006 14.9012C10.4426 14.4641 10.6467 13.9039 10.6467 13.3333H9.14667ZM8.94479 13.841L7.88413 12.7804C7.95425 12.7103 8.04849 12.6442 8.1621 12.5989C8.27372 12.5545 8.37145 12.5431 8.43708 12.5431V14.0431V15.5431C9.00808 15.5431 9.56852 15.3386 10.0055 14.9017L8.94479 13.841ZM8.43708 14.0431V12.5431H2.27167V14.0431V15.5431H8.43708V14.0431ZM2.27167 14.0431V12.5431C2.3373 12.5431 2.43503 12.5545 2.54665 12.5989C2.66026 12.6442 2.7545 12.7103 2.82462 12.7804L1.76396 13.841L0.703298 14.9017C1.14023 15.3386 1.70067 15.5431 2.27167 15.5431V14.0431ZM1.76396 13.841L2.82517 12.7809C2.89529 12.8511 2.96128 12.9454 3.00641 13.0588C3.05074 13.1703 3.06208 13.2679 3.06208 13.3333H1.56208H0.0620832C0.0620832 13.9039 0.266161 14.4641 0.702751 14.9012L1.76396 13.841ZM1.56208 13.3333H3.06208C3.06208 13.3988 3.05074 13.4963 3.00641 13.6078C2.96128 13.7213 2.89529 13.8155 2.82517 13.8857L1.76396 12.8256L0.702751 11.7655C0.266161 12.2026 0.0620832 12.7628 0.0620832 13.3333H1.56208ZM1.76396 12.8256L2.82462 13.8863C2.7545 13.9564 2.66026 14.0225 2.54665 14.0677C2.43503 14.1121 2.3373 14.1235 2.27167 14.1235V12.6235V11.1235C1.70067 11.1235 1.14023 11.328 0.703298 11.765L1.76396 12.8256ZM2.27167 5.95687V7.45687H8.43708V5.95687V4.45687H2.27167V5.95687ZM8.43708 5.95687V7.45687C8.37145 7.45687 8.27372 7.44548 8.1621 7.40105C8.04849 7.35583 7.95425 7.28974 7.88413 7.21962L8.94479 6.15896L10.0055 5.0983C9.56852 4.66136 9.00808 4.45687 8.43708 4.45687V5.95687ZM8.94479 6.15896L7.88358 7.21907C7.81346 7.14888 7.74747 7.05464 7.70234 6.94115C7.65801 6.82967 7.64667 6.73212 7.64667 6.66667H9.14667H10.6467C10.6467 6.09615 10.4426 5.53589 10.006 5.09885L8.94479 6.15896ZM9.14667 6.66667H7.64667C7.64667 6.60122 7.65801 6.50367 7.70234 6.39218C7.74747 6.27869 7.81346 6.18446 7.88358 6.11426L8.94479 7.17437L10.006 8.23449C10.4426 7.79745 10.6467 7.23718 10.6467 6.66667H9.14667ZM8.94479 7.17437L7.88413 6.11371C7.95425 6.04359 8.04849 5.9775 8.1621 5.93228C8.27372 5.88785 8.37145 5.87646 8.43708 5.87646V7.37646V8.87646C9.00808 8.87646 9.56852 8.67197 10.0055 8.23503L8.94479 7.17437ZM8.43708 7.37646V5.87646H2.27167V7.37646V8.87646H8.43708V7.37646ZM2.27167 7.37646V5.87646C2.3373 5.87646 2.43503 5.88785 2.54665 5.93228C2.66026 5.9775 2.7545 6.04359 2.82462 6.11371L1.76396 7.17437L0.703298 8.23503C1.14023 8.67197 1.70067 8.87646 2.27167 8.87646V7.37646ZM1.76396 7.17437L2.82517 6.11426C2.89529 6.18446 2.96128 6.27869 3.00641 6.39218C3.05074 6.50367 3.06208 6.60122 3.06208 6.66667H1.56208H0.0620832C0.0620832 7.23718 0.266161 7.79745 0.702751 8.23449L1.76396 7.17437ZM1.56208 6.66667H3.06208C3.06208 6.73212 3.05074 6.82967 3.00641 6.94115C2.96128 7.05464 2.89529 7.14888 2.82517 7.21907L1.76396 6.15896L0.702751 5.09885C0.266161 5.53589 0.0620832 6.09615 0.0620832 6.66667H1.56208ZM1.76396 6.15896L2.82462 7.21962C2.7545 7.28974 2.66026 7.35583 2.54665 7.40105C2.43503 7.44548 2.3373 7.45687 2.27167 7.45687V5.95687V4.45687C1.70067 4.45687 1.14023 4.66136 0.703298 5.0983L1.76396 6.15896Z" fill="var(--stroke-0, #1E729C)" mask="url(#path-1-inside-1_0_33)"/>
</g>
</g>
</svg>
