<svg preserveAspectRatio="none" width="100%" height="100%" overflow="visible" style="display: block;" viewBox="0 0 20 20" fill="none" xmlns="http://www.w3.org/2000/svg">
<g id="export_notes">
<path id="Vector" d="M15.226 12.1423C16.0926 12.1423 16.8234 12.445 17.4565 13.0768C18.0868 13.706 18.393 14.4434 18.393 15.3298C18.393 16.1832 18.0908 16.9078 17.4565 17.5407C16.8244 18.1714 16.0904 18.4753 15.2153 18.4753C14.4675 18.4752 13.8263 18.2535 13.266 17.7965C13.4029 17.8659 13.5615 17.9108 13.7407 17.9108C14.0716 17.9108 14.3341 17.7587 14.5151 17.5778L15.3891 16.7028C15.42 16.9439 15.5273 17.1639 15.7026 17.3385V17.3395C15.9051 17.5412 16.1744 17.6608 16.476 17.6608C16.7769 17.6608 17.0427 17.541 17.2446 17.3444C17.4578 17.137 17.5785 16.8622 17.5785 16.5592V14.0641C17.5785 13.7578 17.4536 13.4892 17.2543 13.2887L17.1733 13.2145C16.9783 13.0527 16.736 12.9616 16.4711 12.9616H13.976C13.6734 12.9616 13.4039 13.0825 13.2016 13.2848C13.0247 13.4618 12.9102 13.6901 12.8842 13.9469L12.8783 14.0592L12.8842 14.1706C12.9101 14.4277 13.0252 14.6539 13.1977 14.8298C13.3662 15.0016 13.5849 15.1176 13.8354 15.1501L12.9623 16.0241L12.9574 16.0299C12.8019 16.1886 12.6666 16.4084 12.6352 16.6813L12.6283 16.8024L12.6352 16.9245C12.6495 17.047 12.686 17.1583 12.7348 17.2585C12.2799 16.6946 12.059 16.0604 12.059 15.3298C12.059 14.4412 12.3637 13.7035 12.9877 13.0749C13.6107 12.4473 14.3425 12.1423 15.226 12.1423Z" stroke="var(--stroke-0, #1E729C)" stroke-width="1.5"/>
</g>
</svg>
