<svg preserveAspectRatio="none" width="100%" height="100%" overflow="visible" style="display: block;" viewBox="0 0 20 20" fill="none" xmlns="http://www.w3.org/2000/svg">
<g id="stone" clip-path="url(#clip0_0_17)">
<path id="Vector" d="M9.99166 18.3333L11.6667 10M11.6667 10L18.185 12.6533M11.6667 10L7.05831 1.91813M9.38671 1.83763C8.62534 1.58359 7.79787 1.6128 7.05631 1.91989C6.31475 2.22699 5.70889 2.79135 5.35005 3.5093L2.01671 10.176C1.65339 10.9026 1.56798 11.737 1.77652 12.5222C1.98507 13.3074 2.47321 13.9895 3.14921 14.4401L8.14921 17.7735C8.69681 18.1386 9.34023 18.3334 9.99838 18.3334C10.6565 18.3334 11.3 18.1386 11.8475 17.7735L16.8475 14.4401C17.4558 14.0346 17.9138 13.4403 18.1512 12.7488C18.3885 12.0574 18.3919 11.3071 18.1609 10.6135L16.4942 5.61346C16.3306 5.12249 16.0549 4.67637 15.6889 4.31042C15.323 3.94448 14.8769 3.66877 14.3859 3.50513L9.38671 1.83763Z" stroke="var(--stroke-0, #1E729C)" stroke-width="1.5" stroke-linecap="round" stroke-linejoin="round"/>
</g>
<defs>
<clipPath id="clip0_0_17">
<rect width="20" height="20" fill="white"/>
</clipPath>
</defs>
</svg>
