<svg preserveAspectRatio="none" width="100%" height="100%" overflow="visible" style="display: block;" viewBox="0 0 40 40" fill="none" xmlns="http://www.w3.org/2000/svg">
<g id="analytics">
<path id="Vector" d="M7.5897 4.76622H32.41C33.1725 4.76622 33.8342 5.04556 34.3944 5.60607C34.9547 6.16623 35.2342 6.82708 35.2342 7.58947V32.4108C35.2341 33.1703 34.9548 33.8291 34.3944 34.3873C33.8342 34.9459 33.1726 35.2242 32.41 35.2242H7.5897C6.83005 35.2242 6.17138 34.9457 5.61314 34.3873C5.05466 33.8291 4.77631 33.1704 4.77622 32.4108V7.58947C4.77625 6.82697 5.05462 6.16626 5.61314 5.60607C6.17143 5.04557 6.82997 4.76622 7.5897 4.76622ZM7.56431 32.4352H32.4354V7.56505H7.56431V32.4352ZM13.121 19.942C13.4675 19.942 13.7596 20.059 13.9989 20.2936C14.2383 20.5284 14.3582 20.8189 14.3583 21.1666V27.2086C14.3582 27.5562 14.241 27.8463 14.0067 28.0807C13.7722 28.3154 13.4822 28.4332 13.1356 28.4332C12.7891 28.4332 12.4988 28.3156 12.2626 28.0807C12.0267 27.8462 11.9081 27.5563 11.9081 27.2086V21.1666C11.9081 20.8187 12.0245 20.5283 12.2557 20.2936C12.4869 20.0592 12.7746 19.942 13.121 19.942ZM19.992 23.567C20.3422 23.567 20.6351 23.684 20.871 23.9186C21.107 24.1534 21.2254 24.4439 21.2254 24.7916V27.2086C21.2254 27.5565 21.109 27.8472 20.8778 28.0817C20.6468 28.316 20.3573 28.4332 20.0077 28.4332C19.6576 28.4332 19.3656 28.3155 19.1297 28.0807C18.8936 27.8462 18.7753 27.5563 18.7752 27.2086V24.7916C18.7753 24.4437 18.8908 24.1533 19.1219 23.9186C19.3529 23.6843 19.6424 23.5671 19.992 23.567ZM26.8641 10.983C27.2106 10.983 27.5034 11.1008 27.743 11.3356C27.9821 11.5704 28.1014 11.861 28.1014 12.2086V27.2086C28.1014 27.5563 27.9842 27.8463 27.7499 28.0807C27.5153 28.3155 27.2252 28.4332 26.8788 28.4332C26.5322 28.4331 26.2416 28.3154 26.0057 28.0807C25.7698 27.8463 25.6513 27.5562 25.6512 27.2086V12.2086C25.6512 11.8606 25.7676 11.5694 25.9989 11.3346C26.2299 11.1005 26.5178 10.9831 26.8641 10.983ZM19.992 17.442C20.2987 17.442 20.5613 17.5304 20.7801 17.7076L20.871 17.7887C21.1069 18.0197 21.2254 18.3092 21.2254 18.6588C21.2254 19.0091 21.109 19.3018 20.8778 19.5377C20.6467 19.7736 20.3573 19.8912 20.0077 19.8912C19.6574 19.8912 19.3646 19.7758 19.1288 19.5445C18.893 19.3135 18.7753 19.024 18.7752 18.6744C18.7752 18.3242 18.8907 18.0314 19.1219 17.7955C19.3529 17.5597 19.6425 17.4421 19.992 17.442Z" fill="var(--fill-0, #2DA2DB)" stroke="var(--stroke-0, #2DA2DB)" stroke-width="0.05"/>
</g>
</svg>
