<svg preserveAspectRatio="none" width="100%" height="100%" overflow="visible" style="display: block;" viewBox="0 0 48 48" fill="none" xmlns="http://www.w3.org/2000/svg">
<g id="cctv">
<path id="Vector" d="M33.4998 24H40.7638C41.1046 24.0002 41.4397 24.0874 41.7373 24.2535C42.0349 24.4195 42.2851 24.6589 42.4642 24.9488C42.6433 25.2387 42.7454 25.5696 42.7607 25.91C42.7761 26.2505 42.7042 26.5892 42.5518 26.894L38.4838 35.032C38.3296 35.3404 38.0982 35.6036 37.8122 35.7962C37.5262 35.9888 37.1953 36.1042 36.8515 36.1312C36.5078 36.1581 36.1629 36.0958 35.8504 35.9501C35.5379 35.8045 35.2683 35.5805 35.0678 35.3L30.8198 29.36M4 38H11.52C12.2655 38.0052 12.9975 37.802 13.6336 37.4132C14.2697 37.0245 14.7846 36.4657 15.12 35.8L18 30M4 42V34M14 18H14.02M34.2122 18.1058C34.6862 18.3431 35.0466 18.7589 35.2142 19.2618C35.3819 19.7647 35.343 20.3136 35.1062 20.7878L28.8942 33.2098C28.7767 33.4448 28.614 33.6543 28.4155 33.8264C28.2171 33.9985 27.9866 34.1298 27.7374 34.2129C27.4881 34.2959 27.225 34.329 26.9629 34.3103C26.7009 34.2916 26.4451 34.2214 26.2102 34.1038L7.22016 24.5998C5.84083 23.9051 4.79287 22.6922 4.3056 21.2266C3.81834 19.7611 3.93144 18.1622 4.62016 16.7798L7.38016 11.1998C7.72417 10.5143 8.19985 9.9032 8.78004 9.4015C9.36023 8.8998 10.0336 8.51731 10.7616 8.27587C11.4896 8.03443 12.2581 7.93877 13.0231 7.99436C13.7881 8.04995 14.5347 8.25569 15.2202 8.59983L34.2122 18.1058Z" stroke="var(--stroke-0, #2DA2DB)" stroke-width="3" stroke-linecap="round" stroke-linejoin="round"/>
</g>
</svg>
