<svg preserveAspectRatio="none" width="100%" height="100%" overflow="visible" style="display: block;" viewBox="0 0 40 40" fill="none" xmlns="http://www.w3.org/2000/svg">
<g id="location_searching">
<path id="Vector" d="M18.6404 37.2129V35.4475C14.8215 35.0519 11.63 33.5719 9.06583 31.0075C6.50139 28.4433 5.02472 25.2551 4.63583 21.4429H2.87042C2.48514 21.4429 2.16222 21.3121 1.90167 21.0504C1.64111 20.789 1.51083 20.4649 1.51083 20.0779C1.51083 19.6913 1.64111 19.3689 1.90167 19.1108C2.16222 18.8528 2.48514 18.7237 2.87042 18.7237H4.63583C5.03139 14.9049 6.51139 11.7133 9.07583 9.14917C11.64 6.58472 14.8282 5.10806 18.6404 4.71917V2.95375C18.6404 2.56847 18.7713 2.24556 19.0329 1.985C19.2943 1.72444 19.6185 1.59417 20.0054 1.59417C20.3921 1.59417 20.7144 1.72444 20.9725 1.985C21.2306 2.24556 21.3596 2.56847 21.3596 2.95375V4.71917C25.1718 5.10806 28.36 6.58472 30.9242 9.14917C33.4886 11.7133 34.9686 14.9049 35.3642 18.7237H37.1296C37.5149 18.7237 37.8378 18.8546 38.0983 19.1163C38.3589 19.3776 38.4892 19.7018 38.4892 20.0888C38.4892 20.4754 38.3589 20.7978 38.0983 21.0558C37.8378 21.3139 37.5149 21.4429 37.1296 21.4429H35.3642C34.9753 25.2551 33.4986 28.4433 30.9342 31.0075C28.37 33.5719 25.1785 35.0519 21.3596 35.4475V37.2129C21.3596 37.5982 21.2287 37.9211 20.9671 38.1817C20.7057 38.4422 20.3815 38.5725 19.9946 38.5725C19.6079 38.5725 19.2856 38.4422 19.0275 38.1817C18.7694 37.9211 18.6404 37.5982 18.6404 37.2129ZM19.9983 32.6604C23.4517 32.6604 26.4115 31.4279 28.8779 28.9629C31.344 26.4976 32.5771 23.5383 32.5771 20.085C32.5771 16.6317 31.3446 13.6718 28.8796 11.2054C26.4143 8.73931 23.455 7.50625 20.0017 7.50625C16.5483 7.50625 13.5885 8.73875 11.1221 11.2038C8.65597 13.669 7.42292 16.6283 7.42292 20.0817C7.42292 23.535 8.65542 26.4949 11.1204 28.9613C13.5857 31.4274 16.545 32.6604 19.9983 32.6604Z" fill="var(--fill-0, #2DA2DB)"/>
</g>
</svg>
