<svg preserveAspectRatio="none" width="100%" height="100%" overflow="visible" style="display: block;" viewBox="0 0 40 40" fill="none" xmlns="http://www.w3.org/2000/svg">
<g id="masks">
<g id="Vector">
<mask id="path-1-inside-1_0_130" fill="white">
<path d="M20 30.4083C18.9325 30.4083 17.9099 30.2576 16.9321 29.9563C15.9543 29.6546 15.0322 29.2193 14.1658 28.6504C12.9247 28.5604 11.6351 28.2901 10.2971 27.8396C8.95903 27.389 7.73 26.6508 6.61 25.625C5.49028 24.5992 4.56458 23.2454 3.83292 21.5638C3.10125 19.8824 2.73542 17.7868 2.73542 15.2771V13.5904C2.73542 12.4685 3.12847 11.5215 3.91458 10.7496C4.70042 9.97764 5.64375 9.59167 6.74458 9.59167C7.75653 9.59167 8.64028 9.97681 9.39583 10.7471C10.1514 11.5176 10.5874 12.4718 10.7038 13.6096C11.5726 13.3807 12.3579 13.129 13.0596 12.8546C13.7615 12.5801 14.3592 12.304 14.8525 12.0263C15.7122 11.5474 16.5304 11.164 17.3071 10.8763C18.0837 10.5885 18.9814 10.4446 20 10.4446C21.0119 10.4446 21.9079 10.5901 22.6879 10.8813C23.4679 11.1724 24.2878 11.5574 25.1475 12.0362C25.6408 12.3074 26.2385 12.5801 26.9404 12.8546C27.6421 13.129 28.4274 13.3807 29.2962 13.6096C29.4126 12.444 29.8486 11.4829 30.6042 10.7262C31.3597 9.96986 32.2468 9.59167 33.2654 9.59167C34.3807 9.59167 35.3261 9.97764 36.1017 10.7496C36.8769 11.5215 37.2646 12.4685 37.2646 13.5904V15.2771C37.2646 17.7868 36.8987 19.8824 36.1671 21.5638C35.4354 23.2454 34.5097 24.5992 33.39 25.625C32.27 26.6508 31.041 27.389 29.7029 27.8396C28.3649 28.2901 27.0753 28.5604 25.8342 28.6504C24.9678 29.2193 24.0457 29.6546 23.0679 29.9563C22.0901 30.2576 21.0675 30.4083 20 30.4083ZM11.1521 25.6696C10.4829 24.8271 9.91333 23.8404 9.44333 22.7096C8.97333 21.579 8.73833 20.3914 8.73833 19.1467V13.5904C8.73833 13.0337 8.54528 12.5624 8.15917 12.1762C7.77278 11.7901 7.30125 11.5971 6.74458 11.5971C6.20903 11.5971 5.74278 11.7901 5.34583 12.1762C4.94917 12.5624 4.75083 13.0337 4.75083 13.5904V15.2771C4.75083 18.794 5.49014 21.3533 6.96875 22.955C8.44736 24.5569 9.8418 25.4618 11.1521 25.6696ZM20 28.4029C22.4644 28.4029 24.6232 27.4694 26.4762 25.6025C28.3296 23.7353 29.2562 21.5833 29.2562 19.1467V15.6767C28.194 15.4478 27.2204 15.1633 26.3354 14.8233C25.4507 14.4833 24.7272 14.1433 24.165 13.8033C23.3461 13.3244 22.6156 12.9792 21.9733 12.7675C21.3311 12.5558 20.6733 12.45 20 12.45C19.3267 12.45 18.6689 12.5558 18.0267 12.7675C17.3844 12.9792 16.6539 13.3244 15.835 13.8033C15.2728 14.1433 14.551 14.485 13.6696 14.8283C12.7879 15.1717 11.8126 15.4544 10.7437 15.6767V19.1467C10.7437 21.5833 11.6757 23.7353 13.5396 25.6025C15.4032 27.4694 17.5567 28.4029 20 28.4029ZM20 16.3196C20.43 16.3196 20.8097 16.3976 21.1392 16.5537C21.4686 16.7099 21.831 16.9024 22.2262 17.1313C22.4485 17.2701 22.6793 17.4107 22.9187 17.5529C23.1582 17.6951 23.4307 17.8357 23.7362 17.9746C23.944 18.0646 24.1432 18.0699 24.3337 17.9904C24.5243 17.911 24.6751 17.7846 24.7862 17.6112C24.8696 17.4526 24.8749 17.285 24.8021 17.1083C24.7293 16.9317 24.6029 16.8089 24.4229 16.74C24.1729 16.6289 23.9421 16.5178 23.7304 16.4067C23.5187 16.2956 23.3018 16.1672 23.0796 16.0217C22.6285 15.7439 22.1672 15.4958 21.6958 15.2775C21.2242 15.0592 20.6589 14.95 20 14.95C19.3411 14.95 18.7758 15.0592 18.3042 15.2775C17.8328 15.4958 17.3576 15.7439 16.8787 16.0217C16.6565 16.1672 16.4412 16.2956 16.2329 16.4067C16.0246 16.5178 15.7954 16.6289 15.5454 16.74C15.3587 16.83 15.236 16.9581 15.1771 17.1242C15.1182 17.2903 15.1304 17.4526 15.2137 17.6112C15.3249 17.7912 15.4757 17.9124 15.6662 17.9746C15.8568 18.0368 16.056 18.0229 16.2637 17.9329C16.5693 17.794 16.8418 17.6604 17.0812 17.5321C17.3207 17.4038 17.5515 17.2701 17.7737 17.1313C18.1757 16.9024 18.5397 16.7099 18.8658 16.5537C19.1919 16.3976 19.57 16.3196 20 16.3196ZM28.8479 25.6696C30.1582 25.4618 31.5543 24.5569 33.0362 22.955C34.5182 21.3533 35.2592 18.794 35.2592 15.2771V13.5904C35.2592 13.0337 35.0661 12.5624 34.68 12.1762C34.2936 11.7901 33.8221 11.5971 33.2654 11.5971C32.7299 11.5971 32.2636 11.7901 31.8667 12.1762C31.47 12.5624 31.2717 13.0337 31.2717 13.5904V19.1467C31.2717 20.3914 31.0558 21.5774 30.6242 22.7046C30.1925 23.8321 29.6004 24.8204 28.8479 25.6696Z"/>
</mask>
<path d="M16.9321 29.9563L16.0477 32.8229L16.0484 32.8231L16.9321 29.9563ZM14.1658 28.6504L15.8125 26.1427L15.1606 25.7147L14.3828 25.6583L14.1658 28.6504ZM6.61 25.625L4.58345 27.837L4.58372 27.8373L6.61 25.625ZM3.83292 21.5638L6.58382 20.3669L6.58375 20.3667L3.83292 21.5638ZM3.91458 10.7496L6.01653 12.8901L6.01691 12.8897L3.91458 10.7496ZM9.39583 10.7471L11.5379 8.64671L11.5375 8.64633L9.39583 10.7471ZM10.7038 13.6096L7.71932 13.9149L8.07625 17.4041L11.468 16.5106L10.7038 13.6096ZM13.0596 12.8546L11.9672 10.0605L11.9668 10.0607L13.0596 12.8546ZM14.8525 12.0263L13.3926 9.40539L13.3806 9.41215L14.8525 12.0263ZM25.1475 12.0362L23.6876 14.6571L23.6951 14.6613L23.7027 14.6654L25.1475 12.0362ZM26.9404 12.8546L28.0332 10.0607L28.0328 10.0605L26.9404 12.8546ZM29.2962 13.6096L28.532 16.5106L31.932 17.4063L32.2814 13.9077L29.2962 13.6096ZM30.6042 10.7262L28.4817 8.6061L28.4813 8.60649L30.6042 10.7262ZM36.1017 10.7496L38.2184 8.6237L38.218 8.62332L36.1017 10.7496ZM36.1671 21.5638L33.4162 20.3667L33.4162 20.3669L36.1671 21.5638ZM33.39 25.625L35.4163 27.8373L35.4165 27.837L33.39 25.625ZM25.8342 28.6504L25.6172 25.6583L24.8394 25.7147L24.1875 26.1427L25.8342 28.6504ZM23.0679 29.9563L23.9516 32.8231L23.9523 32.8229L23.0679 29.9563ZM11.1521 25.6696L10.6822 28.6326L18.2955 29.8398L13.5012 23.8037L11.1521 25.6696ZM9.44333 22.7096L12.2136 21.5582L12.2135 21.558L9.44333 22.7096ZM8.15917 12.1762L10.2805 10.0549L10.2797 10.0542L8.15917 12.1762ZM5.34583 12.1762L3.25406 10.0258L3.25331 10.0265L5.34583 12.1762ZM6.96875 22.955L9.17323 20.9202L9.17306 20.92L6.96875 22.955ZM26.4762 25.6025L24.347 23.4891L24.347 23.4891L26.4762 25.6025ZM29.2562 15.6767H32.2562V13.2543L29.8882 12.744L29.2562 15.6767ZM26.3354 14.8233L25.2592 17.6237L25.2595 17.6238L26.3354 14.8233ZM24.165 13.8033L25.7174 11.2362L25.6985 11.2248L25.6795 11.2137L24.165 13.8033ZM15.835 13.8033L14.3205 11.2137L14.3015 11.2248L14.2826 11.2362L15.835 13.8033ZM13.6696 14.8283L14.7582 17.6239L14.7585 17.6237L13.6696 14.8283ZM10.7437 15.6767L10.1331 12.7395L7.74375 13.2362V15.6767H10.7437ZM13.5396 25.6025L15.6628 23.4831V23.4831L13.5396 25.6025ZM22.2262 17.1313L23.8162 14.5873L23.7733 14.5604L23.7296 14.5351L22.2262 17.1313ZM23.7362 17.9746L22.4948 20.7057L22.5192 20.7168L22.5438 20.7274L23.7362 17.9746ZM24.7862 17.6112L27.3119 19.2302L27.3818 19.1212L27.442 19.0066L24.7862 17.6112ZM24.4229 16.74L23.2045 19.4814L23.2768 19.5136L23.3506 19.5418L24.4229 16.74ZM23.0796 16.0217L24.7234 13.5121L24.6883 13.4891L24.6526 13.4671L23.0796 16.0217ZM21.6958 15.2775L22.9567 12.5553L22.9561 12.555L21.6958 15.2775ZM18.3042 15.2775L17.0439 12.555L17.0433 12.5553L18.3042 15.2775ZM16.8787 16.0217L15.3735 13.4266L15.3031 13.4675L15.235 13.5121L16.8787 16.0217ZM15.5454 16.74L14.327 13.9986L14.2845 14.0175L14.2425 14.0377L15.5454 16.74ZM15.2137 17.6112L12.558 19.0066L12.6063 19.0986L12.6609 19.1871L15.2137 17.6112ZM16.2637 17.9329L17.4562 20.6858L17.4808 20.6751L17.5052 20.664L16.2637 17.9329ZM17.7737 17.1313L16.2892 14.5243L16.2358 14.5547L16.1838 14.5873L17.7737 17.1313ZM28.8479 25.6696L26.6026 23.6799L21.0523 29.9433L29.3178 28.6326L28.8479 25.6696ZM33.0362 22.955L30.8342 20.9176L30.834 20.9178L33.0362 22.955ZM34.68 12.1762L36.8013 10.0549L36.8006 10.0542L34.68 12.1762ZM31.8667 12.1762L29.7749 10.0258L29.7741 10.0265L31.8667 12.1762ZM30.6242 22.7046L27.8226 21.6317L27.8225 21.6319L30.6242 22.7046ZM20 30.4083V27.4083C19.219 27.4083 18.4951 27.2987 17.8158 27.0894L16.9321 29.9563L16.0484 32.8231C17.3247 33.2165 18.646 33.4083 20 33.4083V30.4083ZM16.9321 29.9563L17.8165 27.0896C17.1119 26.8722 16.446 26.5587 15.8125 26.1427L14.1658 28.6504L12.5192 31.1581C13.6184 31.8799 14.7967 32.437 16.0477 32.8229L16.9321 29.9563ZM14.1658 28.6504L14.3828 25.6583C13.4249 25.5888 12.3845 25.377 11.2544 24.9964L10.2971 27.8396L9.33973 30.6827C10.8858 31.2033 12.4245 31.532 13.9489 31.6426L14.1658 28.6504ZM10.2971 27.8396L11.2544 24.9964C10.3421 24.6892 9.47152 24.1777 8.63628 23.4127L6.61 25.625L4.58372 27.8373C5.98848 29.1239 7.57594 30.0888 9.33973 30.6827L10.2971 27.8396ZM6.61 25.625L8.63655 23.413C7.88415 22.7237 7.18195 21.7416 6.58382 20.3669L3.83292 21.5638L1.08201 22.7606C1.94722 24.7492 3.09641 26.4747 4.58345 27.837L6.61 25.625ZM3.83292 21.5638L6.58375 20.3667C6.06512 19.1749 5.73542 17.5175 5.73542 15.2771H2.73542H-0.264584C-0.264584 18.0561 0.137384 20.5899 1.08208 22.7608L3.83292 21.5638ZM2.73542 15.2771H5.73542V13.5904H2.73542H-0.264584V15.2771H2.73542ZM2.73542 13.5904H5.73542C5.73542 13.257 5.8166 13.0864 6.01653 12.8901L3.91458 10.7496L1.81264 8.60906C0.440343 9.95663 -0.264584 11.68 -0.264584 13.5904H2.73542ZM3.91458 10.7496L6.01691 12.8897C6.24216 12.6685 6.43072 12.5917 6.74458 12.5917V9.59167V6.59167C4.85678 6.59167 3.15867 7.28682 1.81226 8.60943L3.91458 10.7496ZM6.74458 9.59167V12.5917C6.89339 12.5917 7.02123 12.6104 7.25414 12.8478L9.39583 10.7471L11.5375 8.64633C10.2593 7.34323 8.61967 6.59167 6.74458 6.59167V9.59167ZM9.39583 10.7471L7.25377 12.8475C7.50346 13.1021 7.66769 13.4102 7.71932 13.9149L10.7038 13.6096L13.6882 13.3043C13.507 11.5335 12.7993 9.93317 11.5379 8.64671L9.39583 10.7471ZM10.7038 13.6096L11.468 16.5106C12.4278 16.2578 13.3252 15.972 14.1524 15.6485L13.0596 12.8546L11.9668 10.0607C11.3906 10.2861 10.7174 10.5036 9.93954 10.7086L10.7038 13.6096ZM13.0596 12.8546L14.152 15.6486C14.9446 15.3387 15.6766 15.0051 16.3244 14.6403L14.8525 12.0263L13.3806 9.41215C13.0418 9.60294 12.5785 9.82155 11.9672 10.0605L13.0596 12.8546ZM14.8525 12.0263L16.3124 14.6471C17.0622 14.2294 17.7404 13.915 18.3494 13.6894L17.3071 10.8763L16.2647 8.06315C15.3204 8.41306 14.3623 8.86531 13.3926 9.40542L14.8525 12.0263ZM17.3071 10.8763L18.3494 13.6894C18.7257 13.5499 19.2582 13.4446 20 13.4446V10.4446V7.44458C18.7046 7.44458 17.4418 7.62702 16.2647 8.06315L17.3071 10.8763ZM20 10.4446V13.4446C20.7286 13.4446 21.2581 13.5497 21.6389 13.6919L22.6879 10.8813L23.7369 8.07062C22.5577 7.63054 21.2953 7.44458 20 7.44458V10.4446ZM22.6879 10.8813L21.6389 13.6919C22.2547 13.9217 22.9368 14.2389 23.6876 14.6571L25.1475 12.0362L26.6074 9.41542C25.6387 8.87584 24.6812 8.42304 23.7369 8.07062L22.6879 10.8813ZM25.1475 12.0362L23.7027 14.6654C24.3405 15.0159 25.0628 15.3416 25.848 15.6486L26.9404 12.8546L28.0328 10.0605C27.4141 9.81864 26.9412 9.59882 26.5923 9.4071L25.1475 12.0362ZM26.9404 12.8546L25.8476 15.6485C26.6748 15.972 27.5722 16.2578 28.532 16.5106L29.2962 13.6096L30.0605 10.7086C29.2826 10.5036 28.6094 10.2861 28.0332 10.0607L26.9404 12.8546ZM29.2962 13.6096L32.2814 13.9077C32.336 13.3604 32.508 13.0654 32.727 12.846L30.6042 10.7262L28.4813 8.60649C27.1892 9.90047 26.4892 11.5276 26.3111 13.3115L29.2962 13.6096ZM30.6042 10.7262L32.7267 12.8464C32.9506 12.6223 33.0859 12.5917 33.2654 12.5917V9.59167V6.59167C31.4077 6.59167 29.7689 7.31747 28.4817 8.6061L30.6042 10.7262ZM33.2654 9.59167V12.5917C33.6046 12.5917 33.7839 12.6754 33.9853 12.8758L36.1017 10.7496L38.218 8.62332C36.8683 7.27985 35.1568 6.59167 33.2654 6.59167V9.59167ZM36.1017 10.7496L33.9849 12.8755C34.1788 13.0686 34.2646 13.2436 34.2646 13.5904H37.2646H40.2646C40.2646 11.6934 39.575 9.9745 38.2184 8.6237L36.1017 10.7496ZM37.2646 13.5904H34.2646V15.2771H37.2646H40.2646V13.5904H37.2646ZM37.2646 15.2771H34.2646C34.2646 17.5175 33.9349 19.1749 33.4162 20.3667L36.1671 21.5638L38.9179 22.7608C39.8626 20.5899 40.2646 18.0561 40.2646 15.2771H37.2646ZM36.1671 21.5638L33.4162 20.3669C32.818 21.7416 32.1159 22.7237 31.3634 23.413L33.39 25.625L35.4165 27.837C36.9036 26.4747 38.0528 24.7492 38.918 22.7606L36.1671 21.5638ZM33.39 25.625L31.3637 23.4127C30.5285 24.1777 29.6579 24.6892 28.7456 24.9964L29.7029 27.8396L30.6603 30.6827C32.4241 30.0888 34.0115 29.1239 35.4163 27.8373L33.39 25.625ZM29.7029 27.8396L28.7456 24.9964C27.6155 25.377 26.5751 25.5888 25.6172 25.6583L25.8342 28.6504L26.0511 31.6426C27.5755 31.532 29.1142 31.2033 30.6603 30.6827L29.7029 27.8396ZM25.8342 28.6504L24.1875 26.1427C23.554 26.5587 22.8881 26.8722 22.1835 27.0896L23.0679 29.9563L23.9523 32.8229C25.2033 32.437 26.3816 31.8799 27.4808 31.1581L25.8342 28.6504ZM23.0679 29.9563L22.1842 27.0894C21.5049 27.2987 20.781 27.4083 20 27.4083V30.4083V33.4083C21.354 33.4083 22.6753 33.2165 23.9516 32.8231L23.0679 29.9563ZM11.1521 25.6696L13.5012 23.8037C13.0268 23.2063 12.5914 22.4673 12.2136 21.5582L9.44333 22.7096L6.67308 23.861C7.23525 25.2136 7.93906 26.4478 8.80292 27.5354L11.1521 25.6696ZM9.44333 22.7096L12.2135 21.558C11.8978 20.7986 11.7383 20.0029 11.7383 19.1467H8.73833H5.73833C5.73833 20.7799 6.04888 22.3595 6.67318 23.8612L9.44333 22.7096ZM8.73833 19.1467H11.7383V13.5904H8.73833H5.73833V19.1467H8.73833ZM8.73833 13.5904H11.7383C11.7383 12.2555 11.2414 11.0158 10.2805 10.0549L8.15917 12.1762L6.03785 14.2976C5.96996 14.2297 5.88226 14.1149 5.81734 13.9564C5.7529 13.799 5.73833 13.6656 5.73833 13.5904H8.73833ZM8.15917 12.1762L10.2797 10.0542C9.31885 9.09399 8.07949 8.59708 6.74458 8.59708V11.5971V14.5971C6.66935 14.5971 6.53614 14.5825 6.37904 14.5182C6.2208 14.4534 6.10625 14.3659 6.03861 14.2983L8.15917 12.1762ZM6.74458 11.5971V8.59708C5.3987 8.59708 4.18987 9.11552 3.25406 10.0258L5.34583 12.1762L7.43761 14.3267C7.39018 14.3728 7.29172 14.4512 7.14091 14.5137C6.98822 14.5769 6.84617 14.5971 6.74458 14.5971V11.5971ZM5.34583 12.1762L3.25331 10.0265C2.27277 10.981 1.75083 12.2292 1.75083 13.5904H4.75083H7.75083C7.75083 13.676 7.73384 13.8187 7.6648 13.9828C7.59561 14.1473 7.5041 14.262 7.43836 14.326L5.34583 12.1762ZM4.75083 13.5904H1.75083V15.2771H4.75083H7.75083V13.5904H4.75083ZM4.75083 15.2771H1.75083C1.75083 19.1098 2.53915 22.5795 4.76444 24.99L6.96875 22.955L9.17306 20.92C8.44112 20.1272 7.75083 18.4783 7.75083 15.2771H4.75083ZM6.96875 22.955L4.76427 24.9898C6.42925 26.7936 8.39663 28.2701 10.6822 28.6326L11.1521 25.6696L11.6219 22.7066C11.287 22.6535 10.4655 22.3203 9.17323 20.9202L6.96875 22.955ZM20 28.4029V31.4029C23.3218 31.4029 26.2313 30.1079 28.6055 27.7159L26.4762 25.6025L24.347 23.4891C23.0151 24.831 21.6071 25.4029 20 25.4029V28.4029ZM26.4762 25.6025L28.6055 27.7159C30.9675 25.3361 32.2562 22.4421 32.2562 19.1467H29.2562H26.2562C26.2562 20.7246 25.6916 22.1344 24.347 23.4891L26.4762 25.6025ZM29.2562 19.1467H32.2562V15.6767H29.2562H26.2562V19.1467H29.2562ZM29.2562 15.6767L29.8882 12.744C28.9557 12.5431 28.1329 12.3001 27.4113 12.0229L26.3354 14.8233L25.2595 17.6238C26.308 18.0266 27.4323 18.3525 28.6243 18.6094L29.2562 15.6767ZM26.3354 14.8233L27.4116 12.023C26.6265 11.7213 26.0779 11.4542 25.7174 11.2362L24.165 13.8033L22.6126 16.3704C23.3766 16.8325 24.2749 17.2454 25.2592 17.6237L26.3354 14.8233ZM24.165 13.8033L25.6795 11.2137C24.7452 10.6673 23.8171 10.2164 22.9124 9.91826L21.9733 12.7675L21.0343 15.6167C21.414 15.7419 21.947 15.9816 22.6505 16.393L24.165 13.8033ZM21.9733 12.7675L22.9124 9.91826C21.9685 9.60716 20.9938 9.45 20 9.45V12.45V15.45C20.3529 15.45 20.6937 15.5045 21.0343 15.6167L21.9733 12.7675ZM20 12.45V9.45C19.0062 9.45 18.0315 9.60716 17.0876 9.91826L18.0267 12.7675L18.9657 15.6167C19.3063 15.5045 19.6471 15.45 20 15.45V12.45ZM18.0267 12.7675L17.0876 9.91826C16.1829 10.2164 15.2548 10.6673 14.3205 11.2137L15.835 13.8033L17.3495 16.393C18.053 15.9816 18.586 15.7419 18.9657 15.6167L18.0267 12.7675ZM15.835 13.8033L14.2826 11.2362C13.9167 11.4575 13.3648 11.7275 12.5807 12.0329L13.6696 14.8283L14.7585 17.6237C15.7371 17.2425 16.6289 16.8292 17.3874 16.3704L15.835 13.8033ZM13.6696 14.8283L12.581 12.0328C11.8759 12.3074 11.0633 12.5461 10.1331 12.7395L10.7437 15.6767L11.3544 18.6139C12.562 18.3628 13.6999 18.036 14.7582 17.6239L13.6696 14.8283ZM10.7437 15.6767H7.74375V19.1467H10.7437H13.7437V15.6767H10.7437ZM10.7437 19.1467H7.74375C7.74375 22.4478 9.04228 25.3436 11.4164 27.7219L13.5396 25.6025L15.6628 23.4831C14.3091 22.127 13.7437 20.7189 13.7437 19.1467H10.7437ZM13.5396 25.6025L11.4164 27.7219C13.7932 30.103 16.6926 31.4029 20 31.4029V28.4029V25.4029C18.4207 25.4029 17.0132 24.8358 15.6628 23.4831L13.5396 25.6025ZM20 16.3196V19.3196C20.0338 19.3196 20.0323 19.3227 20.0032 19.3167C19.9728 19.3104 19.92 19.2958 19.8545 19.2648L21.1392 16.5537L22.4238 13.8427C21.627 13.4652 20.7953 13.3196 20 13.3196V16.3196ZM21.1392 16.5537L19.8545 19.2648C20.0937 19.3781 20.382 19.53 20.7229 19.7274L22.2262 17.1313L23.7296 14.5351C23.2799 14.2747 22.8435 14.0416 22.4238 13.8427L21.1392 16.5537ZM22.2262 17.1313L20.6363 19.6752C20.8788 19.8268 21.129 19.9792 21.3867 20.1322L22.9187 17.5529L24.4508 14.9736C24.2296 14.8422 24.0181 14.7134 23.8162 14.5873L22.2262 17.1313ZM22.9187 17.5529L21.3867 20.1322C21.7369 20.3402 22.1091 20.5304 22.4948 20.7057L23.7362 17.9746L24.9777 15.2435C24.7522 15.141 24.5795 15.05 24.4508 14.9736L22.9187 17.5529ZM23.7362 17.9746L22.5438 20.7274C23.4192 21.1066 24.4687 21.1844 25.4882 20.7594L24.3337 17.9904L23.1793 15.2214C23.46 15.1044 23.7822 15.0381 24.1209 15.0471C24.4534 15.0559 24.7284 15.135 24.9287 15.2217L23.7362 17.9746ZM24.3337 17.9904L25.4882 20.7594C26.2405 20.4458 26.8704 19.919 27.3119 19.2302L24.7862 17.6112L22.2606 15.9923C22.4799 15.6502 22.8081 15.3762 23.1793 15.2214L24.3337 17.9904ZM24.7862 17.6112L27.442 19.0066C27.969 18.0034 27.9616 16.9017 27.5759 15.9656L24.8021 17.1083L22.0282 18.251C21.9256 18.0019 21.8418 17.6671 21.8542 17.2722C21.8668 16.8713 21.9756 16.5107 22.1305 16.2159L24.7862 17.6112ZM24.8021 17.1083L27.5759 15.9656C27.1855 15.0178 26.439 14.2994 25.4952 13.9382L24.4229 16.74L23.3506 19.5418C23.0966 19.4446 22.8173 19.2832 22.5624 19.0356C22.307 18.7875 22.1349 18.5099 22.0282 18.251L24.8021 17.1083ZM24.4229 16.74L25.6413 13.9986C25.4426 13.9102 25.2712 13.8273 25.1248 13.7504L23.7304 16.4067L22.3361 19.0629C22.6129 19.2083 22.9032 19.3475 23.2045 19.4814L24.4229 16.74ZM23.7304 16.4067L25.1248 13.7504C25.0073 13.6887 24.8736 13.6105 24.7234 13.5121L23.0796 16.0217L21.4358 18.5312C21.73 18.724 22.0302 18.9024 22.3361 19.0629L23.7304 16.4067ZM23.0796 16.0217L24.6526 13.4671C24.1028 13.1286 23.5374 12.8243 22.9567 12.5553L21.6958 15.2775L20.435 17.9997C20.797 18.1674 21.1541 18.3592 21.5066 18.5762L23.0796 16.0217ZM21.6958 15.2775L22.9561 12.555C21.9985 12.1118 20.9814 11.95 20 11.95V14.95V17.95C20.3364 17.95 20.4498 18.0065 20.4356 18L21.6958 15.2775ZM20 14.95V11.95C19.0186 11.95 18.0015 12.1118 17.0439 12.555L18.3042 15.2775L19.5644 18C19.5502 18.0065 19.6636 17.95 20 17.95V14.95ZM18.3042 15.2775L17.0433 12.5553C16.4833 12.8147 15.9267 13.1057 15.3735 13.4266L16.8787 16.0217L18.384 18.6167C18.7886 18.382 19.1822 18.177 19.565 17.9997L18.3042 15.2775ZM16.8787 16.0217L15.235 13.5121C15.0789 13.6143 14.941 13.6957 14.8212 13.7596L16.2329 16.4067L17.6447 19.0537C17.9415 18.8954 18.2342 18.7201 18.5225 18.5312L16.8787 16.0217ZM16.2329 16.4067L14.8212 13.7596C14.6851 13.8322 14.5214 13.9121 14.327 13.9986L15.5454 16.74L16.7638 19.4814C17.0694 19.3456 17.3641 19.2034 17.6447 19.0537L16.2329 16.4067ZM15.5454 16.74L14.2425 14.0377C13.4782 14.4062 12.7188 15.0801 12.3495 16.1217L15.1771 17.1242L18.0047 18.1266C17.891 18.4471 17.7097 18.7389 17.4788 18.9798C17.2545 19.2137 17.0243 19.3574 16.8483 19.4423L15.5454 16.74ZM15.1771 17.1242L12.3495 16.1217C12.0059 17.0909 12.093 18.1216 12.558 19.0066L15.2137 17.6112L17.8695 16.2159C17.9993 16.4629 18.106 16.7782 18.1336 17.1453C18.1613 17.5137 18.103 17.8491 18.0047 18.1266L15.1771 17.1242ZM15.2137 17.6112L12.6609 19.1871C13.1224 19.9346 13.8307 20.5311 14.735 20.8264L15.6662 17.9746L16.5975 15.1228C16.8335 15.1999 17.0715 15.3236 17.2885 15.4978C17.5036 15.6706 17.6592 15.8616 17.7666 16.0354L15.2137 17.6112ZM15.6662 17.9746L14.735 20.8264C15.7127 21.1456 16.6695 21.0265 17.4562 20.6858L16.2637 17.9329L15.0713 15.1801C15.2381 15.1079 15.4681 15.0377 15.7498 15.0181C16.0374 14.9981 16.3269 15.0344 16.5975 15.1228L15.6662 17.9746ZM16.2637 17.9329L17.5052 20.664C17.857 20.5041 18.1898 20.3416 18.4984 20.1763L17.0812 17.5321L15.6641 14.8879C15.4938 14.9792 15.2816 15.084 15.0223 15.2018L16.2637 17.9329ZM17.0812 17.5321L18.4984 20.1763C18.7944 20.0176 19.083 19.8507 19.3637 19.6752L17.7737 17.1313L16.1838 14.5873C16.02 14.6896 15.847 14.7899 15.6641 14.8879L17.0812 17.5321ZM17.7737 17.1313L19.2583 19.7382C19.6145 19.5354 19.9141 19.378 20.1612 19.2597L18.8658 16.5537L17.5705 13.8478C17.1654 14.0418 16.7369 14.2694 16.2892 14.5243L17.7737 17.1313ZM18.8658 16.5537L20.1612 19.2597C20.0906 19.2935 20.0336 19.3093 20.0006 19.3162C19.9689 19.3227 19.9661 19.3196 20 19.3196V16.3196V13.3196C19.2057 13.3196 18.3705 13.4649 17.5705 13.8478L18.8658 16.5537ZM28.8479 25.6696L29.3178 28.6326C31.6021 28.2703 33.5707 26.795 35.2384 24.9922L33.0362 22.955L30.834 20.9178C29.5379 22.3189 28.7142 22.6533 28.3781 22.7066L28.8479 25.6696ZM33.0362 22.955L35.2383 24.9924C37.4686 22.5819 38.2592 19.1111 38.2592 15.2771H35.2592H32.2592C32.2592 18.4769 31.5678 20.1248 30.8342 20.9176L33.0362 22.955ZM35.2592 15.2771H38.2592V13.5904H35.2592H32.2592V15.2771H35.2592ZM35.2592 13.5904H38.2592C38.2592 12.2555 37.7622 11.0158 36.8013 10.0549L34.68 12.1762L32.5587 14.2976C32.4908 14.2297 32.4031 14.1149 32.3382 13.9564C32.2737 13.799 32.2592 13.6656 32.2592 13.5904H35.2592ZM34.68 12.1762L36.8006 10.0542C35.8397 9.09399 34.6003 8.59708 33.2654 8.59708V11.5971V14.5971C33.1902 14.5971 33.057 14.5825 32.8999 14.5182C32.7416 14.4534 32.6271 14.3659 32.5594 14.2983L34.68 12.1762ZM33.2654 11.5971V8.59708C31.9195 8.59708 30.7107 9.11552 29.7749 10.0258L31.8667 12.1762L33.9584 14.3267C33.911 14.3728 33.8126 14.4512 33.6617 14.5137C33.5091 14.5769 33.367 14.5971 33.2654 14.5971V11.5971ZM31.8667 12.1762L29.7741 10.0265C28.7936 10.981 28.2717 12.2292 28.2717 13.5904H31.2717H34.2717C34.2717 13.676 34.2547 13.8187 34.1856 13.9828C34.1164 14.1473 34.0249 14.262 33.9592 14.326L31.8667 12.1762ZM31.2717 13.5904H28.2717V19.1467H31.2717H34.2717V13.5904H31.2717ZM31.2717 19.1467H28.2717C28.2717 20.0363 28.119 20.8577 27.8226 21.6317L30.6242 22.7046L33.4258 23.7774C33.9927 22.297 34.2717 20.7465 34.2717 19.1467H31.2717ZM30.6242 22.7046L27.8225 21.6319C27.5114 22.4446 27.1011 23.1174 26.6026 23.6799L28.8479 25.6696L31.0932 27.6593C32.0997 26.5234 32.8736 25.2196 33.4259 23.7772L30.6242 22.7046Z" fill="var(--stroke-0, #F4813E)" mask="url(#path-1-inside-1_0_130)"/>
</g>
</g>
</svg>
