<svg preserveAspectRatio="none" width="100%" height="100%" overflow="visible" style="display: block;" viewBox="0 0 39 39" fill="none" xmlns="http://www.w3.org/2000/svg">
<g id="eye_tracking">
<g id="Vector">
<mask id="path-1-inside-1_0_32" fill="white">
<path d="M4.14984 37.6179C3.40234 37.6179 2.75424 37.3434 2.20553 36.7945C1.65655 36.2458 1.38206 35.5977 1.38206 34.8502V31.2175C1.38206 30.8269 1.51572 30.4987 1.78303 30.2327C2.05034 29.9668 2.38035 29.8338 2.77306 29.8338C3.16577 29.8338 3.49348 29.9668 3.75619 30.2327C4.01862 30.4987 4.14984 30.8269 4.14984 31.2175V34.8502H7.78253C8.17307 34.8502 8.50132 34.9838 8.76728 35.2511C9.03324 35.5184 9.16622 35.8484 9.16622 36.2412C9.16622 36.6339 9.03324 36.9614 8.76728 37.2239C8.50132 37.4866 8.17307 37.6179 7.78253 37.6179H4.14984ZM34.8599 37.6179H31.2272C30.8367 37.6179 30.5084 37.4843 30.2425 37.217C29.9765 36.9497 29.8435 36.6196 29.8435 36.2269C29.8435 35.8342 29.9765 35.5065 30.2425 35.2438C30.5084 34.9814 30.8367 34.8502 31.2272 34.8502H34.8599V31.2175C34.8599 30.8269 34.9936 30.4987 35.2609 30.2327C35.5282 29.9668 35.8582 29.8338 36.2509 29.8338C36.6436 29.8338 36.9712 29.9668 37.2336 30.2327C37.4963 30.4987 37.6277 30.8269 37.6277 31.2175V34.8502C37.6277 35.5977 37.3532 36.2458 36.8042 36.7945C36.2555 37.3434 35.6074 37.6179 34.8599 37.6179ZM19.4565 30.0633C16.4933 30.0633 13.7801 29.283 11.3169 27.7225C8.85341 26.162 6.88445 24.014 5.41003 21.2786C5.25538 21.0091 5.1461 20.7247 5.08219 20.4254C5.01827 20.1262 4.98631 19.8209 4.98631 19.5097C4.98631 19.1929 5.02166 18.8847 5.09234 18.5851C5.16303 18.2853 5.26893 17.9974 5.41003 17.7214C6.88445 14.9589 8.85192 12.7958 11.3124 11.232C13.773 9.66821 16.4854 8.88631 19.4496 8.88631C22.4139 8.88631 25.1363 9.66658 27.6169 11.2271C30.0974 12.7877 32.0749 14.9492 33.5493 17.7117C33.704 17.9877 33.8149 18.2773 33.8821 18.5807C33.9492 18.884 33.9828 19.1872 33.9828 19.4902C33.9828 19.7936 33.9476 20.0994 33.8772 20.4076C33.8068 20.7158 33.6942 21.0094 33.5396 21.2883C32.0717 24.0237 30.0982 26.1701 27.6193 27.7274C25.1404 29.2847 22.4194 30.0633 19.4565 30.0633ZM19.4533 27.3638C21.9631 27.3638 24.2997 26.6576 26.4631 25.2452C28.6265 23.8331 30.2802 21.9164 31.4242 19.4951C30.2802 17.0739 28.6269 15.1504 26.4643 13.7248C24.3017 12.2991 21.9635 11.5862 19.4496 11.5862C16.9406 11.5862 14.6136 12.2991 12.4686 13.7248C10.3236 15.1504 8.67912 17.0739 7.53512 19.4951C8.67912 21.9164 10.324 23.8331 12.4698 25.2452C14.6157 26.6576 16.9435 27.3638 19.4533 27.3638ZM19.4992 24.882C20.9958 24.882 22.2787 24.3537 23.348 23.2972C24.4172 22.2407 24.9519 20.972 24.9519 19.4911C24.9519 18.0101 24.4182 16.7376 23.3508 15.6735C22.2835 14.6094 20.9976 14.0774 19.4931 14.0774C18.0016 14.0774 16.7378 14.6052 15.7016 15.6609C14.6654 16.7166 14.1472 17.9954 14.1472 19.4972C14.1472 20.9989 14.6683 22.2718 15.7105 23.3159C16.7529 24.36 18.0158 24.882 19.4992 24.882ZM19.4931 22.2597C18.7239 22.2597 18.0728 21.9914 17.5398 21.4549C17.0068 20.9181 16.7403 20.2663 16.7403 19.4996C16.7403 18.7326 17.0066 18.0742 17.539 17.5244C18.0715 16.9746 18.7232 16.6997 19.4943 16.6997C20.2654 16.6997 20.9242 16.972 21.4707 17.5167C22.0175 18.0613 22.2909 18.7226 22.2909 19.5004C22.2909 20.2674 22.0189 20.919 21.4748 21.4553C20.9307 21.9915 20.2701 22.2597 19.4931 22.2597ZM37.6277 4.14009V7.77278C37.6277 8.16332 37.494 8.49157 37.2267 8.75753C36.9594 9.02349 36.6294 9.15647 36.2367 9.15647C35.844 9.15647 35.5163 9.02349 35.2536 8.75753C34.9911 8.49157 34.8599 8.16332 34.8599 7.77278V4.14009H31.2272C30.8367 4.14009 30.5084 4.00644 30.2425 3.73912C29.9765 3.47181 29.8435 3.1418 29.8435 2.74909C29.8435 2.35638 29.9765 2.02881 30.2425 1.76637C30.5084 1.50367 30.8367 1.37231 31.2272 1.37231H34.8599C35.6074 1.37231 36.2555 1.6468 36.8042 2.19578C37.3532 2.74449 37.6277 3.39259 37.6277 4.14009ZM4.14984 1.37231H7.78253C8.17307 1.37231 8.50132 1.50597 8.76728 1.77328C9.03324 2.04059 9.16622 2.3706 9.16622 2.76331C9.16622 3.15602 9.03324 3.48373 8.76728 3.74644C8.50132 4.00887 8.17307 4.14009 7.78253 4.14009H4.14984V7.77278C4.14984 8.16332 4.01619 8.49157 3.74887 8.75753C3.48156 9.02349 3.15155 9.15647 2.75884 9.15647C2.36614 9.15647 2.03856 9.02349 1.77612 8.75753C1.51342 8.49157 1.38206 8.16332 1.38206 7.77278V4.14009C1.38206 3.39259 1.65655 2.74449 2.20553 2.19578C2.75424 1.6468 3.40234 1.37231 4.14984 1.37231Z"/>
</mask>
<path d="M2.20553 36.7945L4.32738 34.6737L4.32633 34.6726L2.20553 36.7945ZM3.75619 30.2327L5.8916 28.1256L5.89051 28.1245L3.75619 30.2327ZM4.14984 34.8502H1.14984V37.8502H4.14984V34.8502ZM8.76728 37.2239L6.66014 35.0885L6.65904 35.0896L8.76728 37.2239ZM30.2425 35.2438L28.1353 33.1084L28.1342 33.1095L30.2425 35.2438ZM34.8599 34.8502V37.8502H37.8599V34.8502H34.8599ZM37.2336 30.2327L35.0982 32.3399L35.0993 32.341L37.2336 30.2327ZM36.8042 36.7945L34.6834 34.6726L34.6824 34.6737L36.8042 36.7945ZM11.3169 27.7225L12.9224 25.1883L12.9223 25.1882L11.3169 27.7225ZM5.41003 21.2786L8.05084 19.8551L8.03189 19.82L8.01202 19.7854L5.41003 21.2786ZM5.09234 18.5851L8.01214 19.2742L8.01228 19.2736L5.09234 18.5851ZM5.41003 17.7214L2.7634 16.3089L2.75095 16.3322L2.73892 16.3557L5.41003 17.7214ZM33.5493 17.7117L30.9027 19.1243L30.9172 19.1514L30.9322 19.1782L33.5493 17.7117ZM33.5396 21.2883L30.9158 19.8338L30.9059 19.8517L30.8962 19.8698L33.5396 21.2883ZM26.4631 25.2452L24.8233 22.733L24.8231 22.7331L26.4631 25.2452ZM31.4242 19.4951L34.1367 20.7767L34.7423 19.4951L34.1367 18.2135L31.4242 19.4951ZM7.53512 19.4951L4.82265 18.2135L4.21712 19.4951L4.82265 20.7767L7.53512 19.4951ZM12.4698 25.2452L14.1192 22.7393L14.119 22.7392L12.4698 25.2452ZM15.7105 23.3159L13.5873 25.4353L13.5875 25.4356L15.7105 23.3159ZM17.5398 21.4549L15.411 23.5687L15.4116 23.5692L17.5398 21.4549ZM21.4707 17.5167L19.3531 19.6417L19.3536 19.6422L21.4707 17.5167ZM35.2536 8.75753L33.1182 10.8647L33.1192 10.8658L35.2536 8.75753ZM34.8599 4.14009H37.8599V1.14009H34.8599V4.14009ZM30.2425 1.76637L32.3496 3.90178L32.3507 3.90069L30.2425 1.76637ZM36.8042 2.19578L34.6824 4.31658L34.6834 4.31762L36.8042 2.19578ZM8.76728 3.74644L10.8744 5.88184L10.8755 5.88076L8.76728 3.74644ZM4.14984 4.14009V1.14009H1.14984V4.14009H4.14984ZM1.77612 8.75753L3.91153 6.65039L3.91045 6.64929L1.77612 8.75753ZM2.20553 2.19578L4.32633 4.31762L4.32737 4.31658L2.20553 2.19578ZM4.14984 37.6179V34.6179C4.14745 34.6179 4.16111 34.6178 4.18681 34.6229C4.21295 34.628 4.24291 34.6368 4.27311 34.6496C4.30315 34.6623 4.32455 34.6752 4.33621 34.6832C4.34736 34.6909 4.34388 34.6902 4.32737 34.6737L2.20553 36.7945L0.0836874 38.9153C1.17095 40.0031 2.57299 40.6179 4.14984 40.6179V37.6179ZM2.20553 36.7945L4.32633 34.6726C4.30981 34.6561 4.30908 34.6526 4.31675 34.6638C4.32477 34.6754 4.33766 34.6968 4.35039 34.7269C4.36318 34.7571 4.37199 34.787 4.37713 34.8132C4.38219 34.8389 4.38206 34.8525 4.38206 34.8502H1.38206H-1.61794C-1.61794 36.427 -1.00307 37.829 0.0847341 38.9163L2.20553 36.7945ZM1.38206 34.8502H4.38206V31.2175H1.38206H-1.61794V34.8502H1.38206ZM1.38206 31.2175H4.38206C4.38206 31.3705 4.35449 31.5796 4.2608 31.8097C4.16625 32.0419 4.0322 32.2269 3.89896 32.3594L1.78303 30.2327L-0.332896 28.106C-1.1883 28.9571 -1.61794 30.0605 -1.61794 31.2175H1.38206ZM1.78303 30.2327L3.89896 32.3594C3.76551 32.4922 3.5813 32.6238 3.35228 32.7161C3.12566 32.8074 2.92101 32.8338 2.77306 32.8338V29.8338V26.8338C1.62397 26.8338 0.522022 27.2554 -0.332896 28.106L1.78303 30.2327ZM2.77306 29.8338V32.8338C2.62543 32.8338 2.41735 32.8075 2.18535 32.7134C1.95034 32.618 1.76025 32.481 1.62187 32.341L3.75619 30.2327L5.89051 28.1245C5.03321 27.2566 3.92266 26.8338 2.77306 26.8338V29.8338ZM3.75619 30.2327L1.62078 32.3399C1.48746 32.2047 1.35689 32.0199 1.26576 31.792C1.17566 31.5666 1.14984 31.3636 1.14984 31.2175H4.14984H7.14984C7.14984 30.0779 6.73527 28.9806 5.89159 28.1256L3.75619 30.2327ZM4.14984 31.2175H1.14984V34.8502H4.14984H7.14984V31.2175H4.14984ZM4.14984 34.8502V37.8502H7.78253V34.8502V31.8502H4.14984V34.8502ZM7.78253 34.8502V37.8502C7.62955 37.8502 7.42037 37.8226 7.19028 37.7289C6.95807 37.6343 6.77315 37.5003 6.64058 37.367L8.76728 35.2511L10.894 33.1352C10.0429 32.2798 8.93951 31.8502 7.78253 31.8502V34.8502ZM8.76728 35.2511L6.64058 37.367C6.50781 37.2336 6.37618 37.0494 6.2839 36.8204C6.19258 36.5937 6.16622 36.3891 6.16622 36.2412H9.16622H12.1662C12.1662 35.0921 11.7446 33.9901 10.894 33.1352L8.76728 35.2511ZM9.16622 36.2412H6.16622C6.16622 36.0935 6.19249 35.8853 6.2868 35.6529C6.38234 35.4176 6.51961 35.2271 6.66014 35.0885L8.76728 37.2239L10.8744 39.3593C11.7434 38.5018 12.1662 37.3908 12.1662 36.2412H9.16622ZM8.76728 37.2239L6.65904 35.0896C6.79402 34.9562 6.97885 34.8255 7.20706 34.7341C7.43273 34.6438 7.63598 34.6179 7.78253 34.6179V37.6179V40.6179C8.92308 40.6179 10.0207 40.2025 10.8755 39.3582L8.76728 37.2239ZM7.78253 37.6179V34.6179H4.14984V37.6179V40.6179H7.78253V37.6179ZM34.8599 37.6179V34.6179H31.2272V37.6179V40.6179H34.8599V37.6179ZM31.2272 37.6179V34.6179C31.3802 34.6179 31.5894 34.6455 31.8195 34.7392C32.0517 34.8337 32.2366 34.9678 32.3692 35.101L30.2425 37.217L28.1158 39.3329C28.9668 40.1883 30.0702 40.6179 31.2272 40.6179V37.6179ZM30.2425 37.217L32.3692 35.101C32.5019 35.2345 32.6336 35.4187 32.7258 35.6477C32.8172 35.8743 32.8435 36.079 32.8435 36.2269H29.8435H26.8435C26.8435 37.376 27.2652 38.478 28.1158 39.3329L30.2425 37.217ZM29.8435 36.2269H32.8435C32.8435 36.3746 32.8173 36.5826 32.7231 36.8146C32.6278 37.0497 32.4908 37.2397 32.3507 37.3781L30.2425 35.2438L28.1342 33.1095C27.2663 33.9668 26.8435 35.0773 26.8435 36.2269H29.8435ZM30.2425 35.2438L32.3496 37.3792C32.2145 37.5125 32.0297 37.6431 31.8017 37.7342C31.5763 37.8243 31.3734 37.8502 31.2272 37.8502V34.8502V31.8502C30.0876 31.8502 28.9903 32.2647 28.1353 33.1084L30.2425 35.2438ZM31.2272 34.8502V37.8502H34.8599V34.8502V31.8502H31.2272V34.8502ZM34.8599 34.8502H37.8599V31.2175H34.8599H31.8599V34.8502H34.8599ZM34.8599 31.2175H37.8599C37.8599 31.3705 37.8323 31.5796 37.7386 31.8097C37.6441 32.0419 37.51 32.2269 37.3768 32.3594L35.2609 30.2327L33.1449 28.106C32.2895 28.9571 31.8599 30.0605 31.8599 31.2175H34.8599ZM35.2609 30.2327L37.3768 32.3594C37.2434 32.4922 37.0591 32.6238 36.8301 32.7161C36.6035 32.8074 36.3989 32.8338 36.2509 32.8338V29.8338V26.8338C35.1018 26.8338 33.9999 27.2554 33.1449 28.106L35.2609 30.2327ZM36.2509 29.8338V32.8338C36.1033 32.8338 35.895 32.8075 35.6627 32.7132C35.4273 32.6177 35.2369 32.4804 35.0982 32.3399L37.2336 30.2327L39.369 28.1256C38.5116 27.2566 37.4005 26.8338 36.2509 26.8338V29.8338ZM37.2336 30.2327L35.0993 32.341C34.966 32.206 34.8352 32.0211 34.7439 31.7929C34.6536 31.5673 34.6277 31.364 34.6277 31.2175H37.6277H40.6277C40.6277 30.0769 40.2123 28.9793 39.3679 28.1245L37.2336 30.2327ZM37.6277 31.2175H34.6277V34.8502H37.6277H40.6277V31.2175H37.6277ZM37.6277 34.8502H34.6277C34.6277 34.8525 34.6276 34.8389 34.6326 34.8132C34.6378 34.787 34.6466 34.7571 34.6594 34.7269C34.6721 34.6968 34.685 34.6754 34.693 34.6638C34.7007 34.6526 34.6999 34.6561 34.6834 34.6726L36.8042 36.7945L38.925 38.9163C40.0128 37.829 40.6277 36.427 40.6277 34.8502H37.6277ZM36.8042 36.7945L34.6824 34.6737C34.6659 34.6902 34.6624 34.6909 34.6735 34.6832C34.6852 34.6752 34.7066 34.6623 34.7366 34.6496C34.7668 34.6368 34.7968 34.628 34.8229 34.6229C34.8486 34.6178 34.8623 34.6179 34.8599 34.6179V37.6179V40.6179C36.4368 40.6179 37.8388 40.0031 38.9261 38.9153L36.8042 36.7945ZM19.4565 30.0633V27.0633C17.0521 27.0633 14.8973 26.4394 12.9224 25.1883L11.3169 27.7225L9.71139 30.2567C12.663 32.1267 15.9346 33.0633 19.4565 33.0633V30.0633ZM11.3169 27.7225L12.9223 25.1882C10.9221 23.9211 9.29766 22.1683 8.05084 19.8551L5.41003 21.2786L2.76922 22.702C4.47124 25.8596 6.78476 28.4028 9.71151 30.2568L11.3169 27.7225ZM5.41003 21.2786L8.01202 19.7854C8.00991 19.7817 8.01068 19.7825 8.01243 19.787C8.0142 19.7916 8.01543 19.7961 8.01602 19.7988L5.08219 20.4254L2.14835 21.052C2.27827 21.6603 2.5009 22.2366 2.80804 22.7718L5.41003 21.2786ZM5.08219 20.4254L8.01602 19.7988C7.99683 19.709 7.98631 19.6139 7.98631 19.5097H4.98631H1.98631C1.98631 20.028 2.03971 20.5433 2.14835 21.052L5.08219 20.4254ZM4.98631 19.5097H7.98631C7.98631 19.418 7.9963 19.3413 8.01214 19.2742L5.09234 18.5851L2.17254 17.8961C2.04701 18.428 1.98631 18.9677 1.98631 19.5097H4.98631ZM5.09234 18.5851L8.01228 19.2736C8.02723 19.2102 8.04924 19.1495 8.08115 19.0871L5.41003 17.7214L2.73892 16.3557C2.48862 16.8453 2.29883 17.3605 2.1724 17.8967L5.09234 18.5851ZM5.41003 17.7214L8.05666 19.134C9.30615 16.7929 10.9298 15.0298 12.9216 13.7639L11.3124 11.232L9.70327 8.70009C6.77402 10.5618 4.46275 13.1249 2.7634 16.3089L5.41003 17.7214ZM11.3124 11.232L12.9216 13.7639C14.8926 12.5112 17.0452 11.8863 19.4496 11.8863V8.88631V5.88631C15.9255 5.88631 12.6533 6.82519 9.70327 8.70009L11.3124 11.232ZM19.4496 8.88631V11.8863C21.8555 11.8863 24.0231 12.5105 26.0194 13.7664L27.6169 11.2271L29.2144 8.68783C26.2496 6.82264 22.9723 5.88631 19.4496 5.88631V8.88631ZM27.6169 11.2271L26.0194 13.7664C28.0279 15.03 29.6566 16.7896 30.9027 19.1243L33.5493 17.7117L36.196 16.2991C34.4932 13.1088 32.167 10.5453 29.2144 8.68783L27.6169 11.2271ZM33.5493 17.7117L30.9322 19.1782C30.9461 19.203 30.9504 19.2176 30.953 19.2292L33.8821 18.5807L36.8111 17.9321C36.6794 17.3371 36.4619 16.7724 36.1665 16.2452L33.5493 17.7117ZM33.8821 18.5807L30.953 19.2292C30.9742 19.325 30.9828 19.4107 30.9828 19.4902H33.9828H36.9828C36.9828 18.9636 36.9242 18.443 36.8111 17.9321L33.8821 18.5807ZM33.9828 19.4902H30.9828C30.9828 19.5594 30.975 19.6411 30.9525 19.7394L33.8772 20.4076L36.8018 21.0758C36.9202 20.5576 36.9828 20.0277 36.9828 19.4902H33.9828ZM33.8772 20.4076L30.9525 19.7394C30.9455 19.7702 30.9349 19.7993 30.9158 19.8338L33.5396 21.2883L36.1634 22.7429C36.4535 22.2194 36.668 21.6614 36.8018 21.0758L33.8772 20.4076ZM33.5396 21.2883L30.8962 19.8698C29.6589 22.1754 28.035 23.9233 26.0235 25.1871L27.6193 27.7274L29.2152 30.2677C32.1614 28.4168 34.4845 25.872 36.183 22.7069L33.5396 21.2883ZM27.6193 27.7274L26.0235 25.1871C24.0287 26.4402 21.8621 27.0633 19.4565 27.0633V30.0633V33.0633C22.9768 33.0633 26.252 32.1292 29.2152 30.2677L27.6193 27.7274ZM19.4533 27.3638V30.3638C22.5634 30.3638 25.4672 29.4781 28.1031 27.7572L26.4631 25.2452L24.8231 22.7331C23.1322 23.837 21.3628 24.3638 19.4533 24.3638V27.3638ZM26.4631 25.2452L28.1029 27.7574C30.7483 26.0307 32.7649 23.6802 34.1367 20.7767L31.4242 19.4951L28.7118 18.2135C27.7956 20.1525 26.5048 21.6354 24.8233 22.733L26.4631 25.2452ZM31.4242 19.4951L34.1367 18.2135C32.7661 15.3127 30.7534 12.959 28.1155 11.22L26.4643 13.7248L24.8131 16.2295C26.5005 17.3418 27.7944 18.8351 28.7118 20.7767L31.4242 19.4951ZM26.4643 13.7248L28.1155 11.22C25.4786 9.48169 22.5691 8.58625 19.4496 8.58625V11.5863V14.5863C21.3579 14.5863 23.1249 15.1165 24.8131 16.2295L26.4643 13.7248ZM19.4496 11.5863V8.58625C16.3334 8.58625 13.4312 9.48276 10.808 11.2263L12.4686 13.7248L14.1292 16.2232C15.796 15.1154 17.5479 14.5863 19.4496 14.5863V11.5863ZM12.4686 13.7248L10.808 11.2263C8.18961 12.9666 6.19026 15.319 4.82265 18.2135L7.53512 19.4951L10.2476 20.7767C11.168 18.8287 12.4576 17.3342 14.1292 16.2232L12.4686 13.7248ZM7.53512 19.4951L4.82265 20.7767C6.19149 23.6738 8.19468 26.0231 10.8207 27.7512L12.4698 25.2452L14.119 22.7392C12.4534 21.643 11.1668 20.1589 10.2476 18.2135L7.53512 19.4951ZM12.4698 25.2452L10.8204 27.7511C13.4437 29.4778 16.3427 30.3638 19.4533 30.3638V27.3638V24.3638C17.5442 24.3638 15.7876 23.8374 14.1192 22.7393L12.4698 25.2452ZM19.4992 24.882V27.882C21.7891 27.882 23.8285 27.0398 25.4566 25.4312L23.348 23.2972L21.2394 21.1632C20.7289 21.6676 20.2025 21.882 19.4992 21.882V24.882ZM23.348 23.2972L25.4566 25.4312C27.0866 23.8206 27.9519 21.7873 27.9519 19.4911H24.9519H21.9519C21.9519 20.1566 21.7479 20.6608 21.2394 21.1632L23.348 23.2972ZM24.9519 19.4911H27.9519C27.9519 17.1972 27.0896 15.1647 25.4689 13.549L23.3508 15.6735L21.2328 17.7981C21.7468 18.3105 21.9519 18.8231 21.9519 19.4911H24.9519ZM23.3508 15.6735L25.4689 13.549C23.8404 11.9254 21.7932 11.0774 19.4931 11.0774V14.0774V17.0774C20.2019 17.0774 20.7266 17.2935 21.2328 17.7981L23.3508 15.6735ZM19.4931 14.0774V11.0774C17.2038 11.0774 15.1661 11.9237 13.5606 13.5595L15.7016 15.6609L17.8426 17.7624C18.3094 17.2868 18.7995 17.0774 19.4931 17.0774V14.0774ZM15.7016 15.6609L13.5606 13.5595C11.9645 15.1856 11.1472 17.2228 11.1472 19.4972H14.1472H17.1472C17.1472 18.768 17.3662 18.2477 17.8426 17.7624L15.7016 15.6609ZM14.1472 19.4972H11.1472C11.1472 21.7776 11.9724 23.8175 13.5873 25.4353L15.7105 23.3159L17.8337 21.1965C17.3643 20.7262 17.1472 20.2203 17.1472 19.4972H14.1472ZM15.7105 23.3159L13.5875 25.4356C15.1961 27.0467 17.2242 27.882 19.4992 27.882V24.882V21.882C18.8074 21.882 18.3098 21.6733 17.8335 21.1962L15.7105 23.3159ZM19.4931 22.2597V19.2597C19.4757 19.2597 19.4778 19.2582 19.4952 19.2615C19.5131 19.2649 19.5397 19.2719 19.5708 19.2847C19.6019 19.2975 19.6283 19.3124 19.6481 19.3258C19.6674 19.339 19.6737 19.3462 19.6681 19.3405L17.5398 21.4549L15.4116 23.5692C16.5184 24.6834 17.9402 25.2597 19.4931 25.2597V22.2597ZM17.5398 21.4549L19.6687 19.3411C19.6617 19.3341 19.6675 19.3388 19.6793 19.3563C19.6914 19.3742 19.7051 19.3988 19.7171 19.428C19.729 19.4572 19.7356 19.4823 19.7387 19.4991C19.7418 19.5155 19.7403 19.5169 19.7403 19.4996H16.7403H13.7403C13.7403 21.0462 14.3116 22.4614 15.411 23.5687L17.5398 21.4549ZM16.7403 19.4996H19.7403C19.7403 19.482 19.7418 19.4819 19.7393 19.4955C19.7366 19.5096 19.7311 19.5307 19.7212 19.5552C19.7114 19.5796 19.7005 19.5989 19.6922 19.6115C19.6842 19.6236 19.6826 19.6233 19.6941 19.6115L17.539 17.5244L15.384 15.4373C14.3083 16.5481 13.7403 17.9554 13.7403 19.4996H16.7403ZM17.539 17.5244L19.6941 19.6115C19.7008 19.6045 19.695 19.6116 19.6752 19.6255C19.6549 19.6396 19.6269 19.6558 19.5931 19.6701C19.5593 19.6843 19.5293 19.6926 19.5075 19.6968C19.4862 19.7009 19.4804 19.6997 19.4943 19.6997V16.6997V13.6997C17.9178 13.6997 16.4863 14.2991 15.384 15.4373L17.539 17.5244ZM19.4943 16.6997V19.6997C19.5098 19.6997 19.5072 19.701 19.4903 19.6978C19.4729 19.6945 19.4484 19.6879 19.4207 19.6764C19.393 19.665 19.3711 19.6524 19.3566 19.6426C19.3426 19.6331 19.3418 19.6305 19.3531 19.6417L21.4707 17.5167L23.5883 15.3917C22.4799 14.2871 21.0598 13.6997 19.4943 13.6997V16.6997ZM21.4707 17.5167L19.3536 19.6422C19.3633 19.6519 19.3595 19.6497 19.349 19.6343C19.3382 19.6184 19.3251 19.5955 19.3135 19.5674C19.3019 19.5393 19.2955 19.5151 19.2924 19.4988C19.2894 19.4831 19.2909 19.4823 19.2909 19.5004H22.2909H25.2909C25.2909 17.9319 24.7048 16.5037 23.5878 15.3912L21.4707 17.5167ZM22.2909 19.5004H19.2909C19.2909 19.5142 19.2898 19.509 19.2936 19.489C19.2976 19.4684 19.3053 19.4403 19.3185 19.4086C19.3317 19.3769 19.3466 19.351 19.3592 19.3326C19.3715 19.3147 19.3772 19.3105 19.3689 19.3186L21.4748 21.4553L23.5806 23.592C24.6994 22.4894 25.2909 21.067 25.2909 19.5004H22.2909ZM21.4748 21.4553L19.3689 19.3186C19.3606 19.3268 19.3636 19.3225 19.379 19.3123C19.3948 19.3017 19.4167 19.2895 19.443 19.2788C19.4691 19.2682 19.4908 19.2627 19.504 19.2602C19.5166 19.2579 19.5143 19.2597 19.4931 19.2597V22.2597V25.2597C21.0431 25.2597 22.4645 24.6919 23.5806 23.592L21.4748 21.4553ZM37.6277 4.14009H34.6277V7.77278H37.6277H40.6277V4.14009H37.6277ZM37.6277 7.77278H34.6277C34.6277 7.6198 34.6553 7.41062 34.7489 7.18053C34.8435 6.94832 34.9775 6.7634 35.1108 6.63083L37.2267 8.75753L39.3426 10.8842C40.1981 10.0332 40.6277 8.92976 40.6277 7.77278H37.6277ZM37.2267 8.75753L35.1108 6.63083C35.2442 6.49806 35.4284 6.36643 35.6575 6.27415C35.8841 6.18283 36.0887 6.15647 36.2367 6.15647V9.15647V12.1565C37.3858 12.1565 38.4877 11.7348 39.3426 10.8842L37.2267 8.75753ZM36.2367 9.15647V6.15647C36.3843 6.15647 36.5924 6.18274 36.8244 6.27689C37.0594 6.37225 37.2495 6.5092 37.3879 6.64929L35.2536 8.75753L33.1192 10.8658C33.9765 11.7337 35.0871 12.1565 36.2367 12.1565V9.15647ZM35.2536 8.75753L37.389 6.65039C37.5223 6.7855 37.6529 6.97033 37.744 7.1983C37.8341 7.4237 37.8599 7.6266 37.8599 7.77278H34.8599H31.8599C31.8599 8.91238 32.2745 10.0097 33.1182 10.8647L35.2536 8.75753ZM34.8599 7.77278H37.8599V4.14009H34.8599H31.8599V7.77278H34.8599ZM34.8599 4.14009V1.14009H31.2272V4.14009V7.14009H34.8599V4.14009ZM31.2272 4.14009V1.14009C31.3802 1.14009 31.5894 1.16766 31.8195 1.26135C32.0517 1.3559 32.2366 1.48996 32.3692 1.6232L30.2425 3.73912L28.1158 5.85505C28.9668 6.71046 30.0702 7.14009 31.2272 7.14009V4.14009ZM30.2425 3.73912L32.3692 1.6232C32.5019 1.75664 32.6336 1.94085 32.7258 2.16987C32.8172 2.3965 32.8435 2.60114 32.8435 2.74909H29.8435H26.8435C26.8435 3.89819 27.2652 5.00013 28.1158 5.85505L30.2425 3.73912ZM29.8435 2.74909H32.8435C32.8435 2.8967 32.8173 3.10499 32.723 3.3373C32.6274 3.57267 32.4901 3.76311 32.3496 3.90178L30.2425 1.76637L28.1353 -0.369034C27.2664 0.488402 26.8435 1.59947 26.8435 2.74909H29.8435ZM30.2425 1.76637L32.3507 3.90069C32.2157 4.03402 32.0309 4.16478 31.8027 4.2561C31.577 4.3464 31.3738 4.37231 31.2272 4.37231V1.37231V-1.62769C30.0867 -1.62769 28.989 -1.21229 28.1342 -0.367947L30.2425 1.76637ZM31.2272 1.37231V4.37231H34.8599V1.37231V-1.62769H31.2272V1.37231ZM34.8599 1.37231V4.37231C34.8623 4.37231 34.8486 4.37244 34.8229 4.36739C34.7968 4.36224 34.7668 4.35343 34.7366 4.34064C34.7066 4.32791 34.6852 4.31502 34.6735 4.307C34.6624 4.29933 34.6659 4.30006 34.6824 4.31658L36.8042 2.19578L38.9261 0.0749835C37.8388 -1.01282 36.4368 -1.62769 34.8599 -1.62769V1.37231ZM36.8042 2.19578L34.6834 4.31762C34.6999 4.33413 34.7007 4.33761 34.693 4.32646C34.685 4.3148 34.6721 4.2934 34.6594 4.26336C34.6466 4.23316 34.6378 4.2032 34.6326 4.17705C34.6276 4.15136 34.6277 4.1377 34.6277 4.14009H37.6277H40.6277C40.6277 2.56324 40.0128 1.1612 38.925 0.0739368L36.8042 2.19578ZM4.14984 1.37231V4.37231H7.78253V1.37231V-1.62769H4.14984V1.37231ZM7.78253 1.37231V4.37231C7.62955 4.37231 7.42037 4.34474 7.19028 4.25106C6.95807 4.1565 6.77315 4.02245 6.64058 3.88921L8.76728 1.77328L10.894 -0.342645C10.0429 -1.19805 8.93951 -1.62769 7.78253 -1.62769V1.37231ZM8.76728 1.77328L6.64058 3.88921C6.50781 3.75577 6.37618 3.57155 6.2839 3.34253C6.19258 3.11591 6.16622 2.91126 6.16622 2.76331H9.16622H12.1662C12.1662 1.61422 11.7446 0.512272 10.894 -0.342645L8.76728 1.77328ZM9.16622 2.76331H6.16622C6.16622 2.61568 6.19249 2.4076 6.28664 2.1756C6.382 1.94059 6.51895 1.75049 6.65904 1.61212L8.76728 3.74644L10.8755 5.88076C11.7434 5.02346 12.1662 3.91292 12.1662 2.76331H9.16622ZM8.76728 3.74644L6.66014 1.61103C6.79525 1.47771 6.98008 1.34714 7.20805 1.25601C7.43345 1.16591 7.63635 1.14009 7.78253 1.14009V4.14009V7.14009C8.92213 7.14009 10.0194 6.72552 10.8744 5.88184L8.76728 3.74644ZM7.78253 4.14009V1.14009H4.14984V4.14009V7.14009H7.78253V4.14009ZM4.14984 4.14009H1.14984V7.77278H4.14984H7.14984V4.14009H4.14984ZM4.14984 7.77278H1.14984C1.14984 7.6198 1.17741 7.41062 1.2711 7.18053C1.36565 6.94832 1.49971 6.7634 1.63295 6.63083L3.74887 8.75753L5.8648 10.8842C6.72021 10.0332 7.14984 8.92976 7.14984 7.77278H4.14984ZM3.74887 8.75753L1.63295 6.63083C1.76639 6.49806 1.95061 6.36643 2.17963 6.27415C2.40625 6.18283 2.61089 6.15647 2.75884 6.15647V9.15647V12.1565C3.90794 12.1565 5.00988 11.7348 5.8648 10.8842L3.74887 8.75753ZM2.75884 9.15647V6.15647C2.90645 6.15647 3.11474 6.18274 3.34706 6.27705C3.58242 6.37259 3.77286 6.50986 3.91153 6.65039L1.77612 8.75753L-0.359283 10.8647C0.498153 11.7336 1.60922 12.1565 2.75884 12.1565V9.15647ZM1.77612 8.75753L3.91045 6.64929C4.04377 6.78426 4.17453 6.9691 4.26585 7.19731C4.35615 7.42297 4.38206 7.62623 4.38206 7.77278H1.38206H-1.61794C-1.61794 8.91335 -1.20253 10.011 -0.358196 10.8658L1.77612 8.75753ZM1.38206 7.77278H4.38206V4.14009H1.38206H-1.61794V7.77278H1.38206ZM1.38206 4.14009H4.38206C4.38206 4.1377 4.38219 4.15136 4.37713 4.17706C4.37199 4.2032 4.36318 4.23316 4.35038 4.26336C4.33766 4.29341 4.32477 4.31481 4.31675 4.32646C4.30908 4.33761 4.30981 4.33413 4.32633 4.31762L2.20553 2.19578L0.0847341 0.0739368C-1.00306 1.1612 -1.61794 2.56323 -1.61794 4.14009H1.38206ZM2.20553 2.19578L4.32737 4.31658C4.34388 4.30006 4.34736 4.29933 4.33621 4.307C4.32455 4.31502 4.30315 4.32791 4.27311 4.34064C4.24291 4.35343 4.21295 4.36224 4.18681 4.36739C4.16111 4.37244 4.14745 4.37231 4.14984 4.37231V1.37231V-1.62769C2.57299 -1.62769 1.17095 -1.01282 0.0836874 0.0749835L2.20553 2.19578Z" fill="var(--stroke-0, #2DA2DB)" mask="url(#path-1-inside-1_0_32)"/>
</g>
</g>
</svg>
