<svg preserveAspectRatio="none" width="100%" height="100%" overflow="visible" style="display: block;" viewBox="0 0 40 40" fill="none" xmlns="http://www.w3.org/2000/svg">
<g id="activity_zone">
<g id="Vector">
<mask id="path-1-inside-1_0_82" fill="white">
<path d="M8.33292 36.9358C6.86931 36.9358 5.62528 36.4236 4.60083 35.3992C3.57639 34.3747 3.06417 33.1307 3.06417 31.6671C3.06417 30.4604 3.42556 29.3915 4.14833 28.4604C4.87083 27.5293 5.79264 26.9106 6.91375 26.6042V13.3858C5.79069 13.0881 4.86833 12.4732 4.14667 11.5412C3.425 10.609 3.06417 9.53958 3.06417 8.33292C3.06417 6.86931 3.57639 5.62528 4.60083 4.60083C5.62528 3.57639 6.86931 3.06417 8.33292 3.06417C9.53958 3.06417 10.6085 3.42556 11.5396 4.14833C12.4707 4.87083 13.0894 5.79264 13.3958 6.91375H26.6142C26.9186 5.79069 27.536 4.86833 28.4663 4.14667C29.3963 3.425 30.4631 3.06417 31.6667 3.06417C33.1303 3.06417 34.3743 3.57653 35.3988 4.60125C36.4235 5.62569 36.9358 6.86972 36.9358 8.33333C36.9358 9.53694 36.575 10.6037 35.8533 11.5337C35.1317 12.464 34.2093 13.0814 33.0863 13.3858V26.6042C34.2074 26.9106 35.1292 27.5293 35.8517 28.4604C36.5744 29.3915 36.9358 30.4604 36.9358 31.6671C36.9358 33.1307 36.4236 34.3747 35.3992 35.3992C34.3747 36.4236 33.1307 36.9358 31.6671 36.9358C30.4604 36.9358 29.391 36.575 28.4588 35.8533C27.5268 35.1317 26.9119 34.2093 26.6142 33.0863H13.3958C13.0894 34.2074 12.4707 35.1292 11.5396 35.8517C10.6085 36.5744 9.53958 36.9358 8.33292 36.9358ZM8.32833 10.7538C9.02 10.7538 9.59875 10.5224 10.0646 10.0596C10.5307 9.59708 10.7637 9.02333 10.7637 8.33833C10.7637 7.64667 10.5312 7.06792 10.0662 6.60208C9.60125 6.13597 9.02361 5.90292 8.33333 5.90292C7.645 5.90292 7.06958 6.13542 6.60708 6.60042C6.14431 7.06542 5.91292 7.64306 5.91292 8.33333C5.91292 9.02167 6.14431 9.59708 6.60708 10.0596C7.06958 10.5224 7.64333 10.7538 8.32833 10.7538ZM31.6617 10.7538C32.3533 10.7538 32.9321 10.5224 33.3979 10.0596C33.864 9.59708 34.0971 9.02333 34.0971 8.33833C34.0971 7.64667 33.8646 7.06792 33.3996 6.60208C32.9346 6.13597 32.3569 5.90292 31.6667 5.90292C30.9783 5.90292 30.4029 6.13542 29.9404 6.60042C29.4776 7.06542 29.2463 7.64306 29.2463 8.33333C29.2463 9.02167 29.4776 9.59708 29.9404 10.0596C30.4029 10.5224 30.9767 10.7538 31.6617 10.7538ZM13.3996 30.2471H26.6142C26.8497 29.3518 27.2903 28.5814 27.9358 27.9358C28.5814 27.2903 29.3518 26.8451 30.2471 26.6004V13.3858C29.3451 13.1503 28.5731 12.7114 27.9308 12.0692C27.2886 11.4269 26.8497 10.6549 26.6142 9.75292H13.3996C13.1549 10.6482 12.7097 11.4186 12.0642 12.0642C11.4186 12.7097 10.6482 13.1503 9.75292 13.3858V26.6004C10.6482 26.8451 11.4186 27.2903 12.0642 27.9358C12.7097 28.5814 13.1549 29.3518 13.3996 30.2471ZM31.6617 34.0871C32.3533 34.0871 32.9321 33.8557 33.3979 33.3929C33.864 32.9304 34.0971 32.3567 34.0971 31.6717C34.0971 30.98 33.8646 30.4013 33.3996 29.9354C32.9346 29.4693 32.3569 29.2362 31.6667 29.2362C30.9783 29.2362 30.4029 29.4687 29.9404 29.9337C29.4776 30.3987 29.2463 30.9764 29.2463 31.6667C29.2463 32.355 29.4776 32.9304 29.9404 33.3929C30.4029 33.8557 30.9767 34.0871 31.6617 34.0871ZM8.32833 34.0871C9.02 34.0871 9.59875 33.8557 10.0646 33.3929C10.5307 32.9304 10.7637 32.3567 10.7637 31.6717C10.7637 30.98 10.5312 30.4013 10.0662 29.9354C9.60125 29.4693 9.02361 29.2362 8.33333 29.2362C7.645 29.2362 7.06958 29.4687 6.60708 29.9337C6.14431 30.3987 5.91292 30.9764 5.91292 31.6667C5.91292 32.355 6.14431 32.9304 6.60708 33.3929C7.06958 33.8557 7.64333 34.0871 8.32833 34.0871Z"/>
</mask>
<path d="M4.14833 28.4604L6.51814 30.3L6.51848 30.2995L4.14833 28.4604ZM6.91375 26.6042L7.70462 29.498L9.91375 28.8943V26.6042H6.91375ZM6.91375 13.3858H9.91375V11.0776L7.68263 10.486L6.91375 13.3858ZM4.14667 11.5412L1.77443 13.3777L1.77469 13.378L4.14667 11.5412ZM11.5396 4.14833L9.70001 6.51814L9.70046 6.51848L11.5396 4.14833ZM13.3958 6.91375L10.502 7.70462L11.1057 9.91375H13.3958V6.91375ZM26.6142 6.91375V9.91375H28.9092L29.5097 7.69868L26.6142 6.91375ZM28.4663 4.14667L30.3051 6.51705L30.3054 6.51678L28.4663 4.14667ZM35.3988 4.60125L33.2771 6.72228L33.2777 6.72286L35.3988 4.60125ZM35.8533 11.5338L33.4832 9.69458L33.483 9.69492L35.8533 11.5338ZM33.0863 13.3858L32.3013 10.4903L30.0863 11.0908V13.3858H33.0863ZM33.0863 26.6042H30.0863V28.8943L32.2954 29.498L33.0863 26.6042ZM35.8517 28.4604L33.4815 30.2995L33.4819 30.3L35.8517 28.4604ZM28.4588 35.8533L26.622 38.2253L26.6223 38.2256L28.4588 35.8533ZM26.6142 33.0863L29.514 32.3174L28.9224 30.0863H26.6142V33.0863ZM13.3958 33.0863V30.0863H11.1057L10.502 32.2954L13.3958 33.0863ZM11.5396 35.8517L9.70046 33.4815L9.70001 33.4819L11.5396 35.8517ZM10.0646 10.0596L7.95153 7.93003L7.95025 7.93129L10.0646 10.0596ZM10.0662 6.60208L7.9424 8.72087L7.94303 8.7215L10.0662 6.60208ZM6.60708 6.60042L8.73348 8.71665L8.73411 8.71601L6.60708 6.60042ZM6.60708 10.0596L8.72904 7.9389L8.72777 7.93763L6.60708 10.0596ZM33.3979 10.0596L31.2849 7.93003L31.2836 7.93129L33.3979 10.0596ZM33.3996 6.60208L31.2757 8.72087L31.2764 8.7215L33.3996 6.60208ZM29.9404 6.60042L32.0668 8.71665L32.0674 8.71601L29.9404 6.60042ZM29.9404 10.0596L32.0624 7.9389L32.0611 7.93763L29.9404 10.0596ZM13.3996 30.2471L10.5057 31.0381L11.1096 33.2471H13.3996V30.2471ZM26.6142 30.2471V33.2471H28.9269L29.5154 31.0104L26.6142 30.2471ZM30.2471 26.6004L31.0381 29.4943L33.2471 28.8904V26.6004H30.2471ZM30.2471 13.3858H33.2471V11.0687L31.0052 10.4832L30.2471 13.3858ZM26.6142 9.75292L29.5168 8.99485L28.9313 6.75292H26.6142V9.75292ZM13.3996 9.75292V6.75292H11.1096L10.5057 8.96189L13.3996 9.75292ZM9.75292 13.3858L8.98957 10.4846L6.75292 11.0731V13.3858H9.75292ZM9.75292 26.6004H6.75292V28.8904L8.96189 29.4943L9.75292 26.6004ZM33.3979 33.3929L31.2849 31.2634L31.2836 31.2646L33.3979 33.3929ZM33.3996 29.9354L31.2757 32.0542L31.2764 32.0548L33.3996 29.9354ZM29.9404 29.9337L32.0668 32.05L32.0674 32.0493L29.9404 29.9337ZM29.9404 33.3929L32.0624 31.2722L32.0611 31.271L29.9404 33.3929ZM10.0646 33.3929L7.95153 31.2634L7.95025 31.2646L10.0646 33.3929ZM10.0662 29.9354L7.9424 32.0542L7.94303 32.0548L10.0662 29.9354ZM6.60708 29.9337L8.73348 32.05L8.73411 32.0493L6.60708 29.9337ZM6.60708 33.3929L8.72904 31.2722L8.72777 31.271L6.60708 33.3929ZM8.33292 36.9358V33.9358C7.6558 33.9358 7.17755 33.7332 6.72215 33.2778L4.60083 35.3992L2.47951 37.5205C4.07301 39.114 6.08281 39.9358 8.33292 39.9358V36.9358ZM4.60083 35.3992L6.72215 33.2778C6.26676 32.8225 6.06417 32.3442 6.06417 31.6671H3.06417H0.0641665C0.0641665 33.9172 0.886019 35.927 2.47951 37.5205L4.60083 35.3992ZM3.06417 31.6671H6.06417C6.06417 31.1095 6.21418 30.6916 6.51814 30.3L4.14833 28.4604L1.77853 26.6208C0.636926 28.0915 0.0641665 29.8113 0.0641665 31.6671H3.06417ZM4.14833 28.4604L6.51848 30.2995C6.8487 29.874 7.21969 29.6306 7.70462 29.498L6.91375 26.6042L6.12288 23.7103C4.36558 24.1905 2.89297 25.1846 1.77818 26.6213L4.14833 28.4604ZM6.91375 26.6042H9.91375V13.3858H6.91375H3.91375V26.6042H6.91375ZM6.91375 13.3858L7.68263 10.486C7.20603 10.3597 6.84342 10.1239 6.51864 9.70447L4.14667 11.5412L1.77469 13.378C2.89325 14.8225 4.37536 15.8164 6.14487 16.2856L6.91375 13.3858ZM4.14667 11.5412L6.5189 9.70482C6.21442 9.31149 6.06417 8.8917 6.06417 8.33292H3.06417H0.0641665C0.0641665 10.1875 0.635583 11.9066 1.77443 13.3777L4.14667 11.5412ZM3.06417 8.33292H6.06417C6.06417 7.6558 6.26676 7.17755 6.72215 6.72215L4.60083 4.60083L2.47951 2.47951C0.886019 4.07301 0.0641665 6.08281 0.0641665 8.33292H3.06417ZM4.60083 4.60083L6.72215 6.72215C7.17755 6.26676 7.6558 6.06417 8.33292 6.06417V3.06417V0.0641656C6.08281 0.0641656 4.07301 0.886019 2.47951 2.47951L4.60083 4.60083ZM8.33292 3.06417V6.06417C8.8905 6.06417 9.30845 6.21418 9.70001 6.51814L11.5396 4.14833L13.3792 1.77853C11.9085 0.636927 10.1887 0.0641656 8.33292 0.0641656V3.06417ZM11.5396 4.14833L9.70046 6.51848C10.126 6.8487 10.3694 7.21969 10.502 7.70462L13.3958 6.91375L16.2897 6.12288C15.8095 4.36558 14.8154 2.89297 13.3787 1.77818L11.5396 4.14833ZM13.3958 6.91375V9.91375H26.6142V6.91375V3.91375H13.3958V6.91375ZM26.6142 6.91375L29.5097 7.69868C29.6414 7.21289 29.8834 6.84421 30.3051 6.51705L28.4663 4.14667L26.6274 1.77629C25.1886 2.89246 24.1959 4.36849 23.7187 6.12882L26.6142 6.91375ZM28.4663 4.14667L30.3054 6.51678C30.6966 6.2132 31.1129 6.06417 31.6667 6.06417V3.06417V0.0641656C29.8133 0.0641656 28.0959 0.636797 26.6271 1.77655L28.4663 4.14667ZM31.6667 3.06417V6.06417C32.3435 6.06417 32.8217 6.2667 33.2771 6.72228L35.3988 4.60125L37.5204 2.48022C35.9269 0.886353 33.917 0.0641656 31.6667 0.0641656V3.06417ZM35.3988 4.60125L33.2777 6.72286C33.7333 7.17832 33.9358 7.65648 33.9358 8.33333H36.9358H39.9358C39.9358 6.08296 39.1136 4.07307 37.5198 2.47964L35.3988 4.60125ZM36.9358 8.33333H33.9358C33.9358 8.88714 33.7868 9.30336 33.4832 9.69458L35.8533 11.5338L38.2234 13.3729C39.3632 11.9041 39.9358 10.1867 39.9358 8.33333H36.9358ZM35.8533 11.5338L33.483 9.69492C33.1558 10.1166 32.7871 10.3587 32.3013 10.4903L33.0863 13.3858L33.8712 16.2813C35.6315 15.8041 37.1075 14.8114 38.2237 13.3726L35.8533 11.5338ZM33.0863 13.3858H30.0863V26.6042H33.0863H36.0863V13.3858H33.0863ZM33.0863 26.6042L32.2954 29.498C32.7803 29.6306 33.1513 29.874 33.4815 30.2995L35.8517 28.4604L38.2218 26.6213C37.107 25.1846 35.6344 24.1905 33.8771 23.7103L33.0863 26.6042ZM35.8517 28.4604L33.4819 30.3C33.7858 30.6916 33.9358 31.1095 33.9358 31.6671H36.9358H39.9358C39.9358 29.8113 39.3631 28.0915 38.2215 26.6208L35.8517 28.4604ZM36.9358 31.6671H33.9358C33.9358 32.3442 33.7332 32.8225 33.2778 33.2778L35.3992 35.3992L37.5205 37.5205C39.114 35.927 39.9358 33.9172 39.9358 31.6671H36.9358ZM35.3992 35.3992L33.2778 33.2778C32.8225 33.7332 32.3442 33.9358 31.6671 33.9358V36.9358V39.9358C33.9172 39.9358 35.927 39.114 37.5205 37.5205L35.3992 35.3992ZM31.6671 36.9358V33.9358C31.1083 33.9358 30.6885 33.7856 30.2952 33.4811L28.4588 35.8533L26.6223 38.2256C28.0934 39.3644 29.8125 39.9358 31.6671 39.9358V36.9358ZM28.4588 35.8533L30.2955 33.4814C29.8761 33.1566 29.6403 32.794 29.514 32.3174L26.6142 33.0863L23.7144 33.8551C24.1836 35.6246 25.1775 37.1068 26.622 38.2253L28.4588 35.8533ZM26.6142 33.0863V30.0863H13.3958V33.0863V36.0863H26.6142V33.0863ZM13.3958 33.0863L10.502 32.2954C10.3694 32.7803 10.126 33.1513 9.70046 33.4815L11.5396 35.8517L13.3787 38.2218C14.8154 37.107 15.8095 35.6344 16.2897 33.8771L13.3958 33.0863ZM11.5396 35.8517L9.70001 33.4819C9.30845 33.7858 8.8905 33.9358 8.33292 33.9358V36.9358V39.9358C10.1887 39.9358 11.9085 39.3631 13.3792 38.2215L11.5396 35.8517ZM8.32833 10.7538V13.7538C9.76528 13.7538 11.1186 13.2412 12.1789 12.1879L10.0646 10.0596L7.95025 7.93129C7.98776 7.89403 8.06265 7.83649 8.16743 7.7946C8.26916 7.75392 8.3345 7.75375 8.32833 7.75375V10.7538ZM10.0646 10.0596L12.1776 12.1891C13.2382 11.1368 13.7637 9.78446 13.7637 8.33833H10.7637H7.76375C7.76375 8.33909 7.76373 8.31994 7.77019 8.28506C7.77676 8.24956 7.78888 8.20418 7.80951 8.15339C7.85439 8.04289 7.91482 7.96645 7.95153 7.93003L10.0646 10.0596ZM10.7637 8.33833H13.7637C13.7637 6.8969 13.2469 5.54198 12.1895 4.48266L10.0662 6.60208L7.94303 8.7215C7.90625 8.68466 7.84815 8.60974 7.80561 8.50384C7.76424 8.40088 7.76375 8.33391 7.76375 8.33833H10.7637ZM10.0662 6.60208L12.1901 4.4833C11.1326 3.42332 9.77753 2.90292 8.33333 2.90292V5.90292V8.90292C8.33544 8.90292 8.26639 8.902 8.1618 8.8598C8.05438 8.81646 7.97901 8.75757 7.9424 8.72087L10.0662 6.60208ZM8.33333 5.90292V2.90292C6.89061 2.90292 5.53595 3.42322 4.48005 4.48482L6.60708 6.60042L8.73411 8.71601C8.69593 8.7544 8.61876 8.81463 8.50941 8.85881C8.40297 8.90182 8.33231 8.90292 8.33333 8.90292V5.90292ZM6.60708 6.60042L4.48069 4.48418C3.42677 5.54316 2.91292 6.8959 2.91292 8.33333H5.91292H8.91292C8.91292 8.32859 8.91249 8.39521 8.87133 8.49795C8.82897 8.6037 8.77091 8.67903 8.73348 8.71665L6.60708 6.60042ZM5.91292 8.33333H2.91292C2.91292 9.77153 3.42884 11.1246 4.4864 12.1815L6.60708 10.0596L8.72777 7.93763C8.76666 7.97649 8.82632 8.05365 8.86984 8.16188C8.91215 8.26708 8.91292 8.33612 8.91292 8.33333H5.91292ZM6.60708 10.0596L4.48513 12.1803C5.53905 13.2348 6.88901 13.7538 8.32833 13.7538V10.7538V7.75375C8.32634 7.75375 8.34421 7.75362 8.37783 7.7598C8.41207 7.7661 8.45638 7.7778 8.50634 7.79795C8.61518 7.84185 8.6916 7.90144 8.72904 7.9389L6.60708 10.0596ZM31.6617 10.7538V13.7538C33.0986 13.7538 34.4519 13.2412 35.5122 12.1879L33.3979 10.0596L31.2836 7.93129C31.3211 7.89403 31.396 7.83649 31.5008 7.7946C31.6025 7.75392 31.6678 7.75375 31.6617 7.75375V10.7538ZM33.3979 10.0596L35.511 12.1891C36.5715 11.1368 37.0971 9.78447 37.0971 8.33833H34.0971H31.0971C31.0971 8.33909 31.0971 8.31994 31.1035 8.28506C31.1101 8.24955 31.1222 8.20417 31.1428 8.15339C31.1877 8.04289 31.2482 7.96645 31.2849 7.93003L33.3979 10.0596ZM34.0971 8.33833H37.0971C37.0971 6.8969 36.5802 5.54198 35.5228 4.48266L33.3996 6.60208L31.2764 8.7215C31.2396 8.68466 31.1815 8.60974 31.1389 8.50384C31.0976 8.40088 31.0971 8.33391 31.0971 8.33833H34.0971ZM33.3996 6.60208L35.5234 4.4833C34.466 3.42331 33.1109 2.90292 31.6667 2.90292V5.90292V8.90292C31.6688 8.90292 31.5997 8.902 31.4951 8.8598C31.3877 8.81646 31.3123 8.75757 31.2757 8.72087L33.3996 6.60208ZM31.6667 5.90292V2.90292C30.2239 2.90292 28.8693 3.42322 27.8134 4.48482L29.9404 6.60042L32.0674 8.71601C32.0293 8.7544 31.9521 8.81463 31.8427 8.85881C31.7363 8.90182 31.6656 8.90292 31.6667 8.90292V5.90292ZM29.9404 6.60042L27.814 4.48418C26.7601 5.54316 26.2462 6.8959 26.2462 8.33333H29.2462H32.2462C32.2462 8.32859 32.2458 8.39521 32.2047 8.49795C32.1623 8.6037 32.1042 8.67903 32.0668 8.71665L29.9404 6.60042ZM29.2462 8.33333H26.2462C26.2462 9.77154 26.7622 11.1246 27.8197 12.1815L29.9404 10.0596L32.0611 7.93763C32.1 7.97649 32.1597 8.05364 32.2032 8.16188C32.2455 8.26708 32.2462 8.33612 32.2462 8.33333H29.2462ZM29.9404 10.0596L27.8185 12.1803C28.8724 13.2348 30.2223 13.7538 31.6617 13.7538V10.7538V7.75375C31.6597 7.75375 31.6775 7.75362 31.7112 7.7598C31.7454 7.7661 31.7897 7.7778 31.8397 7.79795C31.9485 7.84185 32.0249 7.90144 32.0624 7.9389L29.9404 10.0596ZM13.3996 30.2471V33.2471H26.6142V30.2471V27.2471H13.3996V30.2471ZM26.6142 30.2471L29.5154 31.0104C29.6178 30.6213 29.7927 30.3216 30.0572 30.0572L27.9358 27.9358L25.8145 25.8145C24.7878 26.8412 24.0816 28.0823 23.7129 29.4837L26.6142 30.2471ZM27.9358 27.9358L30.0572 30.0572C30.3276 29.7867 30.6371 29.6039 31.0381 29.4943L30.2471 26.6004L29.4561 23.7066C28.0665 24.0864 26.8352 24.7938 25.8145 25.8145L27.9358 27.9358ZM30.2471 26.6004H33.2471V13.3858H30.2471H27.2471V26.6004H30.2471ZM30.2471 13.3858L31.0052 10.4832C30.6047 10.3786 30.3072 10.2029 30.0522 9.94785L27.9308 12.0692L25.8095 14.1905C26.839 15.2199 28.0856 15.9219 29.489 16.2885L30.2471 13.3858ZM27.9308 12.0692L30.0522 9.94785C29.7971 9.69284 29.6214 9.39528 29.5168 8.99485L26.6142 9.75292L23.7115 10.511C24.0781 11.9144 24.7801 13.1611 25.8095 14.1905L27.9308 12.0692ZM26.6142 9.75292V6.75292H13.3996V9.75292V12.7529H26.6142V9.75292ZM13.3996 9.75292L10.5057 8.96189C10.3961 9.36289 10.2133 9.67241 9.94285 9.94285L12.0642 12.0642L14.1855 14.1855C15.2062 13.1648 15.9136 11.9335 16.2934 10.5439L13.3996 9.75292ZM12.0642 12.0642L9.94285 9.94285C9.6784 10.2073 9.37868 10.3822 8.98957 10.4846L9.75292 13.3858L10.5163 16.2871C11.9177 15.9184 13.1588 15.2122 14.1855 14.1855L12.0642 12.0642ZM9.75292 13.3858H6.75292V26.6004H9.75292H12.7529V13.3858H9.75292ZM9.75292 26.6004L8.96189 29.4943C9.36289 29.6039 9.67241 29.7867 9.94285 30.0572L12.0642 27.9358L14.1855 25.8145C13.1648 24.7938 11.9335 24.0864 10.5439 23.7066L9.75292 26.6004ZM12.0642 27.9358L9.94285 30.0572C10.2133 30.3276 10.3961 30.6371 10.5057 31.0381L13.3996 30.2471L16.2934 29.4561C15.9136 28.0665 15.2062 26.8352 14.1855 25.8145L12.0642 27.9358ZM31.6617 34.0871V37.0871C33.0986 37.0871 34.4519 36.5746 35.5122 35.5212L33.3979 33.3929L31.2836 31.2646C31.3211 31.2274 31.396 31.1698 31.5008 31.1279C31.6025 31.0873 31.6678 31.0871 31.6617 31.0871V34.0871ZM33.3979 33.3929L35.511 35.5225C36.5715 34.4701 37.0971 33.1178 37.0971 31.6717H34.0971H31.0971C31.0971 31.6724 31.0971 31.6533 31.1035 31.6184C31.1101 31.5829 31.1222 31.5375 31.1428 31.4867C31.1877 31.3762 31.2482 31.2998 31.2849 31.2634L33.3979 33.3929ZM34.0971 31.6717H37.0971C37.0971 30.2302 36.5802 28.8753 35.5228 27.816L33.3996 29.9354L31.2764 32.0548C31.2396 32.018 31.1815 31.9431 31.1389 31.8372C31.0976 31.7342 31.0971 31.6672 31.0971 31.6717H34.0971ZM33.3996 29.9354L35.5234 27.8166C34.466 26.7566 33.1109 26.2363 31.6667 26.2363V29.2363V32.2363C31.6688 32.2363 31.5997 32.2353 31.4951 32.1931C31.3877 32.1498 31.3123 32.0909 31.2757 32.0542L33.3996 29.9354ZM31.6667 29.2363V26.2363C30.2239 26.2363 28.8693 26.7566 27.8134 27.8182L29.9404 29.9337L32.0674 32.0493C32.0293 32.0877 31.9521 32.148 31.8427 32.1921C31.7363 32.2352 31.6656 32.2363 31.6667 32.2363V29.2363ZM29.9404 29.9337L27.814 27.8175C26.7601 28.8765 26.2462 30.2292 26.2462 31.6667H29.2462H32.2462C32.2462 31.6619 32.2458 31.7285 32.2047 31.8313C32.1623 31.937 32.1042 32.0124 32.0668 32.05L29.9404 29.9337ZM29.2462 31.6667H26.2462C26.2462 33.1049 26.7622 34.4579 27.8197 35.5149L29.9404 33.3929L32.0611 31.271C32.1 31.3098 32.1597 31.387 32.2032 31.4952C32.2455 31.6004 32.2462 31.6695 32.2462 31.6667H29.2462ZM29.9404 33.3929L27.8185 35.5136C28.8724 36.5682 30.2223 37.0871 31.6617 37.0871V34.0871V31.0871C31.6597 31.0871 31.6775 31.087 31.7112 31.0931C31.7454 31.0994 31.7897 31.1111 31.8397 31.1313C31.9485 31.1752 32.0249 31.2348 32.0624 31.2722L29.9404 33.3929ZM8.32833 34.0871V37.0871C9.76528 37.0871 11.1186 36.5746 12.1789 35.5212L10.0646 33.3929L7.95025 31.2646C7.98776 31.2274 8.06265 31.1698 8.16743 31.1279C8.26916 31.0873 8.3345 31.0871 8.32833 31.0871V34.0871ZM10.0646 33.3929L12.1776 35.5225C13.2382 34.4701 13.7637 33.1178 13.7637 31.6717H10.7637H7.76375C7.76375 31.6724 7.76373 31.6533 7.77019 31.6184C7.77676 31.5829 7.78888 31.5375 7.80951 31.4867C7.85439 31.3762 7.91482 31.2998 7.95153 31.2634L10.0646 33.3929ZM10.7637 31.6717H13.7637C13.7637 30.2302 13.2469 28.8753 12.1895 27.816L10.0662 29.9354L7.94303 32.0548C7.90625 32.018 7.84815 31.9431 7.80561 31.8372C7.76424 31.7342 7.76375 31.6672 7.76375 31.6717H10.7637ZM10.0662 29.9354L12.1901 27.8166C11.1326 26.7566 9.77753 26.2363 8.33333 26.2363V29.2363V32.2363C8.33544 32.2363 8.26639 32.2353 8.1618 32.1931C8.05438 32.1498 7.97901 32.0909 7.9424 32.0542L10.0662 29.9354ZM8.33333 29.2363V26.2363C6.89061 26.2363 5.53595 26.7566 4.48005 27.8182L6.60708 29.9337L8.73411 32.0493C8.69593 32.0877 8.61876 32.148 8.50941 32.1921C8.40297 32.2352 8.33231 32.2363 8.33333 32.2363V29.2363ZM6.60708 29.9337L4.48069 27.8175C3.42677 28.8765 2.91292 30.2292 2.91292 31.6667H5.91292H8.91292C8.91292 31.6619 8.91249 31.7285 8.87133 31.8313C8.82897 31.937 8.77091 32.0124 8.73348 32.05L6.60708 29.9337ZM5.91292 31.6667H2.91292C2.91292 33.1049 3.42884 34.4579 4.4864 35.5149L6.60708 33.3929L8.72777 31.271C8.76666 31.3098 8.82632 31.387 8.86984 31.4952C8.91215 31.6004 8.91292 31.6695 8.91292 31.6667H5.91292ZM6.60708 33.3929L4.48513 35.5136C5.53905 36.5682 6.88901 37.0871 8.32833 37.0871V34.0871V31.0871C8.32634 31.0871 8.34421 31.087 8.37783 31.0931C8.41207 31.0994 8.45638 31.1111 8.50634 31.1313C8.61518 31.1752 8.6916 31.2348 8.72904 31.2722L6.60708 33.3929Z" fill="var(--stroke-0, #2DA2DB)" mask="url(#path-1-inside-1_0_82)"/>
</g>
</g>
</svg>
