<svg preserveAspectRatio="none" width="100%" height="100%" overflow="visible" style="display: block;" viewBox="0 0 48 48" fill="none" xmlns="http://www.w3.org/2000/svg">
<g id="smoke-industrial-polution-pollute-svgrepo-com (1) 1">
<path id="Vector" d="M41.3194 19.305C41.6306 18.4462 41.7881 17.5444 41.7881 16.6163C41.7881 12.2494 38.235 8.69625 33.8681 8.69625C33.4256 8.69625 32.985 8.73187 32.5538 8.805C31.4906 6.32625 29.4113 4.395 26.8275 3.53437C21.8606 1.87875 16.4719 4.57313 14.8125 9.54375C14.8013 9.57375 14.7919 9.60563 14.7806 9.63563C13.44 10.1944 12.3488 11.1544 11.6231 12.3469C8.73 11.8125 5.71125 12.81 3.71812 15.0244C2.19187 16.7194 1.41562 18.9075 1.53562 21.1838C1.65375 23.46 2.65313 25.5544 4.34625 27.0806C4.89188 27.5719 5.48813 27.9863 6.1275 28.3181C5.71313 29.8388 5.91375 31.4756 6.72 32.8706C7.51875 34.2525 8.80687 35.2425 10.3481 35.655C10.8637 35.7938 11.3869 35.8612 11.9062 35.8612C12.9412 35.8612 13.9631 35.5894 14.8837 35.0588C15.6056 34.6406 16.2375 34.065 16.7363 33.375H22.6875C23.3081 33.375 23.8125 32.8706 23.8125 32.25C23.8125 31.6294 23.3081 31.125 22.6875 31.125H16.125C15.72 31.125 15.3469 31.3425 15.1481 31.6931C14.8106 32.2838 14.3175 32.7863 13.7587 33.1106C12.8962 33.6075 11.8931 33.7388 10.9312 33.4819C9.96937 33.225 9.16687 32.6081 8.66812 31.7456C8.04187 30.66 8.00344 29.3424 8.56312 28.2188C8.72662 27.8906 8.73694 27.5044 8.60944 27.2344C8.48194 26.9625 8.21625 26.7563 7.935 26.655C7.16625 26.3813 6.46687 25.9631 5.85375 25.41C4.605 24.285 3.87 22.7437 3.78188 21.0656C3.69375 19.3894 4.26562 17.7788 5.39062 16.53C6.75938 15.0113 8.78437 14.2725 10.7775 14.4994C10.6875 14.9419 10.6369 15.3994 10.6369 15.8663C10.6369 19.1475 12.945 21.8756 16.0613 22.4906C16.2263 25.6762 18.7481 28.125 21.9375 28.125H30.375C32.6569 28.125 34.5113 28.4794 34.5113 30.7575V30.375H36.7613V30.7575C36.7613 27.2381 33.8963 25.875 30.375 25.875H21.9375C19.8994 25.875 18.3019 24.2419 18.3019 22.1569V21.4913C18.3019 20.8856 17.8237 20.3888 17.22 20.3663C14.79 20.2763 12.8869 18.3 12.8869 15.8663C12.8869 13.8881 14.1544 12.1613 16.0406 11.5706C16.4138 11.4525 16.6987 11.1506 16.7944 10.7719C16.8356 10.6069 16.8881 10.4306 16.9481 10.2525C18.2137 6.46125 22.3256 4.40625 26.1169 5.67C28.3463 6.4125 30.0844 8.19938 30.7631 10.4531C30.8494 10.7419 31.0481 10.9819 31.3125 11.1225C31.5788 11.2631 31.89 11.2931 32.1769 11.2013C32.7188 11.0325 33.2888 10.9463 33.8681 10.9463C36.9956 10.9463 39.5381 13.4887 39.5381 16.6163C39.5381 17.1375 39.4688 17.6475 39.3319 18.1387C38.4806 17.8031 37.5525 17.6194 36.5756 17.6194H35.5125C34.4738 14.8556 31.5 13.2356 28.5581 13.9575C27.2794 14.2744 26.1713 14.9831 25.3538 16.0087C24.9675 16.4944 25.0481 17.2031 25.5338 17.5894C26.0194 17.9775 26.7281 17.8969 27.1144 17.4112C27.6188 16.7775 28.305 16.3387 29.0981 16.1419C31.0631 15.66 33.0604 16.8641 33.5363 18.8325C33.7089 19.5469 34.1603 19.8694 34.6988 19.8694H36.5756C39.6169 19.8694 42 22.425 42 25.6875V28.875H44.25V25.6875C44.25 23.0625 43.1138 20.7694 41.3194 19.305ZM27.7583 32.2616L46.5 30.75V38.625H44.25V44.625H30V38.625H27.75L27.7583 32.2616Z" fill="var(--fill-0, #2DA2DB)"/>
</g>
</svg>
