<svg preserveAspectRatio="none" width="100%" height="100%" overflow="visible" style="display: block;" viewBox="0 0 40 40" fill="none" xmlns="http://www.w3.org/2000/svg">
<g id="message-square-warning">
<path id="Vector" d="M20 25H20.0167M20 11.6667V18.3333M36.6667 28.3333C36.6667 29.2174 36.3155 30.0652 35.6904 30.6904C35.0652 31.3155 34.2174 31.6667 33.3333 31.6667H11.38C10.496 31.6669 9.64831 32.0182 9.02333 32.6433L5.35333 36.3133C5.18784 36.4788 4.97701 36.5915 4.74748 36.6371C4.51796 36.6828 4.28005 36.6593 4.06384 36.5698C3.84764 36.4802 3.66284 36.3286 3.53281 36.134C3.40278 35.9394 3.33336 35.7107 3.33333 35.4767V8.33333C3.33333 7.44928 3.68452 6.60143 4.30964 5.97631C4.93477 5.35119 5.78261 5 6.66667 5H33.3333C34.2174 5 35.0652 5.35119 35.6904 5.97631C36.3155 6.60143 36.6667 7.44928 36.6667 8.33333V28.3333Z" stroke="var(--stroke-0, #2DA2DB)" stroke-width="2.5" stroke-linecap="round" stroke-linejoin="round"/>
</g>
</svg>
