<svg preserveAspectRatio="none" width="100%" height="100%" overflow="visible" style="display: block;" viewBox="0 0 24 24" fill="none" xmlns="http://www.w3.org/2000/svg">
<g id="communication">
<path id="Vector" d="M0.8625 15.9533V15.5268C0.8625 14.5948 1.32567 13.9823 2.252 13.6895C3.17817 13.3965 3.99892 13.25 4.71425 13.25C5.42942 13.25 6.25008 13.3961 7.17625 13.6882C8.10258 13.9806 8.56575 14.5934 8.56575 15.5268V15.9533H0.8625ZM4.713 11.9107C4.16917 11.9107 3.704 11.7167 3.3175 11.3287C2.93083 10.9406 2.7375 10.474 2.7375 9.929C2.7375 9.384 2.93117 8.91817 3.3185 8.5315C3.70583 8.145 4.17142 7.95175 4.71525 7.95175C5.25908 7.95175 5.72425 8.14567 6.11075 8.5335C6.49742 8.9215 6.69075 9.38742 6.69075 9.93125C6.69075 10.4751 6.49708 10.941 6.10975 11.329C5.72242 11.7168 5.25683 11.9107 4.713 11.9107ZM9.93325 13.4098C9.74192 13.4098 9.58392 13.3498 9.45925 13.23C9.33458 13.1102 9.27225 12.9563 9.27225 12.7683C9.27225 12.6744 9.33458 12.512 9.45925 12.281C9.58858 12.0977 9.69075 11.906 9.76575 11.706C9.84075 11.506 9.87825 11.2975 9.87825 11.0805C9.87825 10.8635 9.84075 10.649 9.76575 10.437C9.69075 10.225 9.58792 10.0377 9.45725 9.875C9.40325 9.80217 9.35892 9.72642 9.32425 9.64775C9.28958 9.56908 9.27225 9.48575 9.27225 9.39775C9.27225 9.20725 9.33475 9.05 9.45975 8.926C9.58475 8.80217 9.74258 8.74025 9.93325 8.74025C10.0174 8.74025 10.1039 8.75375 10.1927 8.78075C10.2816 8.80775 10.351 8.85458 10.401 8.92125C10.6923 9.22525 10.9057 9.56358 11.041 9.93625C11.1763 10.3089 11.244 10.6905 11.244 11.081C11.244 11.4683 11.1712 11.8572 11.0255 12.2477C10.8798 12.6384 10.6657 12.9734 10.3832 13.2527C10.3166 13.3194 10.2471 13.3622 10.1747 13.3812C10.1026 13.4002 10.0221 13.4098 9.93325 13.4098ZM11.8372 15.3115C11.6426 15.3115 11.4843 15.2487 11.3625 15.123C11.2408 14.9975 11.18 14.8387 11.18 14.6465C11.18 14.5578 11.1962 14.4753 11.2285 14.399C11.2608 14.3225 11.3041 14.2484 11.3582 14.1768C11.7679 13.6973 12.0716 13.1961 12.2692 12.6732C12.4669 12.1504 12.5658 11.6192 12.5658 11.0795C12.5658 10.5398 12.4669 10.0039 12.2692 9.47175C12.0716 8.93942 11.7676 8.43992 11.3573 7.97325C11.3038 7.90225 11.2608 7.8295 11.2285 7.755C11.1962 7.68033 11.18 7.5965 11.18 7.5035C11.18 7.30983 11.2424 7.15158 11.3673 7.02875C11.4923 6.90592 11.6503 6.8445 11.8415 6.8445C11.9393 6.8445 12.0302 6.86725 12.114 6.91275C12.1978 6.95825 12.2748 7.01883 12.3448 7.0945C12.8661 7.6945 13.2557 8.33125 13.5135 9.00475C13.7715 9.67825 13.9005 10.3693 13.9005 11.078C13.9005 11.7865 13.7715 12.4775 13.5135 13.151C13.2557 13.8247 12.8662 14.4615 12.345 15.0615C12.2795 15.1448 12.2047 15.2073 12.1205 15.249C12.0365 15.2907 11.9421 15.3115 11.8372 15.3115ZM15.4342 15.9533V15.5268C15.4342 14.5934 15.8974 13.9806 16.8238 13.6882C17.7499 13.3961 18.5706 13.25 19.2857 13.25C20.0011 13.25 20.8218 13.3965 21.748 13.6895C22.6743 13.9823 23.1375 14.5948 23.1375 15.5268V15.9533H15.4342ZM19.2848 11.9107C18.7409 11.9107 18.2758 11.7167 17.8893 11.3287C17.5026 10.9406 17.3092 10.474 17.3092 9.929C17.3092 9.384 17.5029 8.91817 17.8902 8.5315C18.2776 8.145 18.7432 7.95175 19.287 7.95175C19.8308 7.95175 20.296 8.14567 20.6825 8.5335C21.0692 8.9215 21.2625 9.38742 21.2625 9.93125C21.2625 10.4751 21.0688 10.941 20.6815 11.329C20.2942 11.7168 19.8286 11.9107 19.2848 11.9107Z" fill="var(--fill-0, #2DA2DB)"/>
</g>
</svg>
