<svg preserveAspectRatio="none" width="100%" height="100%" overflow="visible" style="display: block;" viewBox="0 0 24 24" fill="none" xmlns="http://www.w3.org/2000/svg">
<g id="communication">
<path id="Vector" d="M19.2854 13.2634C19.9989 13.2634 20.819 13.4092 21.7443 13.7019C22.2054 13.8477 22.55 14.0733 22.7795 14.3767C23.0089 14.6801 23.1242 15.0635 23.1242 15.5271V15.9402H15.4475V15.5271C15.4475 15.0627 15.5627 14.6784 15.7922 14.3748C16.0216 14.0713 16.3664 13.8465 16.8273 13.7009C17.7525 13.4091 18.572 13.2635 19.2854 13.2634ZM4.71406 13.2634C5.42742 13.2634 6.24684 13.4091 7.17207 13.7009C7.63303 13.8464 7.97772 14.0714 8.20723 14.3748C8.43669 14.6784 8.55195 15.0627 8.55195 15.5271V15.9402H0.876172V15.5271C0.876172 15.0634 0.991433 14.6801 1.2209 14.3767C1.42165 14.1113 1.71017 13.9054 2.08809 13.7605L2.25605 13.7019C3.18122 13.4092 4.00057 13.2635 4.71406 13.2634ZM11.841 6.85817C11.9367 6.85817 12.0258 6.88018 12.1076 6.92458C12.1899 6.96921 12.2652 7.02887 12.3342 7.10329C12.8546 7.70222 13.244 8.33765 13.5012 9.00954C13.7586 9.68148 13.8869 10.371 13.8869 11.0779C13.8869 11.7847 13.7586 12.4743 13.5012 13.1463C13.244 13.8182 12.8553 14.4536 12.3352 15.0525L12.3342 15.0535C12.2698 15.1353 12.1965 15.1965 12.1145 15.2371C12.0325 15.2777 11.9401 15.2976 11.8371 15.2976C11.6458 15.2976 11.4912 15.2366 11.3723 15.114C11.2533 14.9913 11.1936 14.8353 11.1936 14.6463C11.1936 14.5594 11.2089 14.4786 11.2404 14.4041C11.2723 14.3287 11.3148 14.2552 11.3684 14.1843C11.7785 13.7042 12.0832 13.2025 12.2814 12.6785C12.4796 12.1543 12.5793 11.6211 12.5793 11.0799C12.5793 10.5386 12.4796 10.001 12.2814 9.46755C12.108 9.00033 11.8534 8.5579 11.5168 8.14138L11.3674 7.96462C11.3147 7.89459 11.2722 7.82299 11.2404 7.74977C11.209 7.67708 11.1936 7.59501 11.1936 7.50368C11.1936 7.3132 11.2552 7.15788 11.3771 7.03786C11.4992 6.91815 11.6535 6.85828 11.841 6.85817ZM9.93281 8.75368C10.0155 8.75368 10.101 8.76709 10.1887 8.79372C10.2751 8.81997 10.3418 8.86539 10.3898 8.92946L10.3908 8.93044C10.6809 9.23317 10.8939 9.57038 11.0285 9.94118C11.1632 10.3122 11.2306 10.6921 11.2307 11.0808C11.2307 11.4664 11.158 11.8539 11.0129 12.2429C10.8679 12.6317 10.6551 12.9651 10.3742 13.2429C10.3088 13.3084 10.2406 13.3497 10.1711 13.3679C10.1003 13.3866 10.0206 13.3963 9.93281 13.3963C9.74489 13.3962 9.59069 13.3374 9.46895 13.2205C9.34718 13.1034 9.28537 12.953 9.28535 12.7683C9.28535 12.7239 9.30027 12.6616 9.33125 12.5808C9.36209 12.5005 9.40884 12.4029 9.4709 12.2879L9.46992 12.2869C9.59952 12.103 9.70324 11.9114 9.77852 11.7107C9.85404 11.5093 9.89176 11.2993 9.8918 11.0808C9.8918 10.8622 9.85401 10.6458 9.77852 10.4324C9.72186 10.2723 9.64906 10.1262 9.56074 9.99391L9.46797 9.86696C9.41455 9.79491 9.37037 9.72003 9.33613 9.64235C9.30234 9.56561 9.28541 9.48417 9.28535 9.39821C9.28535 9.21099 9.34673 9.05657 9.46895 8.93532C9.59111 8.8143 9.74556 8.75377 9.93281 8.75368ZM4.71504 7.96559C5.25511 7.96559 5.71685 8.15765 6.10078 8.54274C6.48496 8.92824 6.67695 9.39117 6.67695 9.93141C6.67691 10.4716 6.4846 10.9336 6.0998 11.3191C5.715 11.7044 5.25327 11.8972 4.71309 11.8972C4.1729 11.8972 3.71132 11.7045 3.32734 11.3191C2.94328 10.9336 2.75128 10.4707 2.75117 9.92946C2.75117 9.38805 2.9435 8.92495 3.32832 8.54079C3.71304 8.15702 4.17501 7.96564 4.71504 7.96559ZM19.2873 7.96559C19.8274 7.96567 20.2891 8.15755 20.673 8.54274C21.0572 8.92824 21.2492 9.39117 21.2492 9.93141C21.2492 10.4715 21.0567 10.9337 20.6721 11.3191C20.2872 11.7044 19.8246 11.8972 19.2844 11.8972C18.7443 11.8971 18.2825 11.7045 17.8986 11.3191C17.5147 10.9336 17.3226 10.4706 17.3225 9.92946C17.3225 9.38805 17.5148 8.92495 17.8996 8.54079C18.2844 8.15682 18.7471 7.96559 19.2873 7.96559Z" fill="var(--fill-0, #2DA2DB)" stroke="var(--stroke-0, #4CC4FE)" stroke-width="0.0269022"/>
</g>
</svg>
