<svg preserveAspectRatio="none" width="100%" height="100%" overflow="visible" style="display: block;" viewBox="0 0 104.12 3.04" fill="none" xmlns="http://www.w3.org/2000/svg">
<path id="Line 9" d="M0 1.52V3.04H1.53118V1.52V0H0V1.52ZM4.59353 1.52V3.04H7.65588V1.52V0H4.59353V1.52ZM10.7182 1.52V3.04H13.7806V1.52V0H10.7182V1.52ZM16.8429 1.52V3.04H19.9053V1.52V0H16.8429V1.52ZM22.9676 1.52V3.04H26.03V1.52V0H22.9676V1.52ZM29.0924 1.52V3.04H32.1547V1.52V0H29.0924V1.52ZM35.2171 1.52V3.04H38.2794V1.52V0H35.2171V1.52ZM41.3418 1.52V3.04H44.4041V1.52V0H41.3418V1.52ZM47.4665 1.52V3.04H50.5288V1.52V0H47.4665V1.52ZM53.5912 1.52V3.04H56.6535V1.52V0H53.5912V1.52ZM59.7159 1.52V3.04H62.7783V1.52V0H59.7159V1.52ZM65.8406 1.52V3.04H68.903V1.52V0H65.8406V1.52ZM71.9653 1.52V3.04H75.0277V1.52V0H71.9653V1.52ZM78.09 1.52V3.04H81.1524V1.52V0H78.09V1.52ZM84.2147 1.52V3.04H87.2771V1.52V0H84.2147V1.52ZM90.3395 1.52V3.04H93.4018V1.52V0H90.3395V1.52ZM96.4642 1.52V3.04H99.5265V1.52V0H96.4642V1.52ZM102.589 1.52V3.04H104.12V1.52V0H102.589V1.52Z" fill="var(--stroke-0, #D3E8F3)"/>
</svg>
