<svg preserveAspectRatio="none" width="100%" height="100%" overflow="visible" style="display: block;" viewBox="0 0 6 11.1911" fill="none" xmlns="http://www.w3.org/2000/svg">
<path id="Vector" d="M0.525756 11.1911C0.379897 11.1911 0.255806 11.1433 0.153484 11.0478C0.0511613 10.9523 0 10.828 0 10.6749V0.516125C0 0.363043 0.0525662 0.238752 0.157697 0.143252C0.262628 0.0477507 0.386719 0 0.52997 0C0.565883 0 0.686061 0.0572811 0.890505 0.171842L5.76917 5.05081C5.83819 5.11963 5.89387 5.20098 5.9362 5.29488C5.97873 5.38878 6 5.48919 6 5.59613C6 5.70307 5.97873 5.80328 5.9362 5.89678C5.89387 5.99027 5.83819 6.07153 5.76917 6.14054L0.889602 11.0201C0.840447 11.0693 0.784873 11.1101 0.722878 11.1426C0.660882 11.1749 0.595175 11.1911 0.525756 11.1911Z" fill="var(--fill-0, #E9F3F9)"/>
</svg>
