<svg preserveAspectRatio="none" width="100%" height="100%" overflow="visible" style="display: block;" viewBox="0 0 24 24" fill="none" xmlns="http://www.w3.org/2000/svg">
<g id="door_open">
<path id="Vector" d="M6.54581 21.1365H3.70792C3.46693 21.1365 3.2663 21.0551 3.10538 20.8934C2.94445 20.7316 2.86424 20.531 2.86417 20.2908C2.86417 20.0506 2.9445 19.8512 3.10538 19.6922C3.26629 19.5334 3.46686 19.454 3.70792 19.4539H4.86417V4.85137C4.86426 4.38679 5.02921 3.98909 5.35929 3.65802C5.6861 3.33034 6.08135 3.16516 6.54581 3.16192V21.1365ZM14.5566 19.4539C14.3155 19.679 14.0289 19.822 13.6942 19.8797L6.57316 21.1277V19.4539H14.5566ZM14.2587 4.86309C14.3482 4.94347 14.4349 5.02991 14.5155 5.12579C14.9093 5.59411 15.1063 6.14136 15.1064 6.76739V18.2147C15.1063 18.6239 14.9721 18.9861 14.704 19.3016C14.6664 19.3458 14.6271 19.3872 14.5868 19.4266H6.71866L13.4189 18.2518L13.4296 18.2498V6.79278C13.4296 6.53675 13.3555 6.30949 13.2069 6.11212C13.0578 5.91445 12.8602 5.79829 12.6161 5.76446H12.6171L6.88956 4.85919L14.2587 4.86309ZM10.9179 11.1795C11.1474 11.1795 11.3409 11.258 11.4989 11.4149C11.6571 11.5717 11.7362 11.7651 11.7362 11.9949C11.7362 12.2249 11.6589 12.4186 11.5038 12.577C11.349 12.7351 11.156 12.8143 10.9237 12.8143C10.6914 12.8143 10.4966 12.7369 10.3388 12.5818C10.1809 12.4271 10.1016 12.2346 10.1015 12.0037C10.1015 11.7724 10.1798 11.5768 10.3349 11.4178C10.4898 11.2591 10.6838 11.1795 10.9179 11.1795ZM13.0165 4.27618C13.4843 4.35252 13.8881 4.53922 14.2294 4.83575L6.71573 4.83184L6.57316 4.80841V3.16387L13.0165 4.27618ZM17.454 4.83868H17.4403L14.2694 4.83575C13.9196 4.52428 13.5037 4.32766 13.0204 4.24884L6.72062 3.16192H17.4403C17.9108 3.16194 18.3105 3.32714 18.6405 3.65802C18.9706 3.98909 19.1356 4.38679 19.1357 4.85137V19.4539H20.2978C20.5347 19.4539 20.7334 19.5344 20.8944 19.6961C21.0555 19.8579 21.1357 20.0593 21.1357 20.2996C21.1356 20.5397 21.0553 20.7385 20.8944 20.8973C20.7334 21.0563 20.5349 21.1365 20.2978 21.1365H6.6796L13.6982 19.9061C14.048 19.8458 14.3474 19.6943 14.5966 19.4539H17.454V4.83868Z" fill="var(--fill-0, #2DA2DB)" stroke="var(--stroke-0, #4CC4FE)" stroke-width="0.0269022"/>
</g>
</svg>
