<svg preserveAspectRatio="none" width="100%" height="100%" overflow="visible" style="display: block;" viewBox="0 0 40 40" fill="none" xmlns="http://www.w3.org/2000/svg">
<g id="link">
<path id="Vector" d="M16.6667 21.6666C17.3824 22.6235 18.2956 23.4152 19.3442 23.9882C20.3929 24.5611 21.5525 24.9018 22.7444 24.9872C23.9363 25.0725 25.1326 24.9006 26.2522 24.4829C27.3718 24.0653 28.3885 23.4117 29.2333 22.5666L34.2333 17.5666C35.7513 15.9949 36.5913 13.8899 36.5723 11.7049C36.5533 9.51996 35.6769 7.42986 34.1318 5.88479C32.5868 4.33972 30.4966 3.46331 28.3117 3.44433C26.1267 3.42534 24.0217 4.26529 22.45 5.78328L19.5833 8.63328M23.3333 18.3333C22.6175 17.3764 21.7043 16.5847 20.6557 16.0117C19.607 15.4388 18.4474 15.0981 17.2555 15.0127C16.0636 14.9274 14.8673 15.0994 13.7477 15.517C12.6281 15.9346 11.6114 16.5882 10.7666 17.4333L5.76659 22.4333C4.24861 24.005 3.40866 26.11 3.42764 28.295C3.44663 30.48 4.32304 32.5701 5.8681 34.1151C7.41317 35.6602 9.50328 36.5366 11.6882 36.5556C13.8732 36.5746 15.9782 35.7346 17.5499 34.2166L20.3999 31.3666" stroke="var(--stroke-0, #2DA2DB)" stroke-width="2" stroke-linecap="round" stroke-linejoin="round"/>
</g>
</svg>
