<svg preserveAspectRatio="none" width="100%" height="100%" overflow="visible" style="display: block;" viewBox="0 0 20 20" fill="none" xmlns="http://www.w3.org/2000/svg">
<g id="smoke-industrial-polution-pollute-svgrepo-com (1) 1">
<path id="Vector" d="M17.2164 8.04375C17.3461 7.68594 17.4117 7.31016 17.4117 6.92344C17.4117 5.10391 15.9313 3.62344 14.1117 3.62344C13.9273 3.62344 13.7438 3.63828 13.5641 3.66875C13.1211 2.63594 12.2547 1.83125 11.1781 1.47266C9.10859 0.782813 6.86328 1.90547 6.17188 3.97656C6.16719 3.98906 6.16328 4.00234 6.15859 4.01484C5.6 4.24766 5.14531 4.64766 4.84297 5.14453C3.6375 4.92188 2.37969 5.3375 1.54922 6.26016C0.913281 6.96641 0.589844 7.87813 0.639844 8.82656C0.689062 9.775 1.10547 10.6477 1.81094 11.2836C2.03828 11.4883 2.28672 11.6609 2.55313 11.7992C2.38047 12.4328 2.46406 13.1148 2.8 13.6961C3.13281 14.2719 3.66953 14.6844 4.31172 14.8563C4.52656 14.9141 4.74453 14.9422 4.96094 14.9422C5.39219 14.9422 5.81797 14.8289 6.20156 14.6078C6.50234 14.4336 6.76563 14.1938 6.97344 13.9063H9.45313C9.71172 13.9063 9.92188 13.6961 9.92188 13.4375C9.92188 13.1789 9.71172 12.9688 9.45313 12.9688H6.71875C6.55 12.9688 6.39453 13.0594 6.31172 13.2055C6.17109 13.4516 5.96562 13.6609 5.73281 13.7961C5.37344 14.0031 4.95547 14.0578 4.55469 13.9508C4.15391 13.8438 3.81953 13.5867 3.61172 13.2273C3.35078 12.775 3.33477 12.226 3.56797 11.7578C3.63609 11.6211 3.64039 11.4602 3.58727 11.3477C3.53414 11.2344 3.42344 11.1484 3.30625 11.1063C2.98594 10.9922 2.69453 10.818 2.43906 10.5875C1.91875 10.1188 1.6125 9.47656 1.57578 8.77734C1.53906 8.07891 1.77734 7.40781 2.24609 6.8875C2.81641 6.25469 3.66016 5.94688 4.49062 6.04141C4.45312 6.22578 4.43203 6.41641 4.43203 6.61094C4.43203 7.97813 5.39375 9.11484 6.69219 9.37109C6.76094 10.6984 7.81172 11.7188 9.14062 11.7188H12.6563C13.607 11.7188 14.3797 11.8664 14.3797 12.8156V12.6563H15.3172V12.8156C15.3172 11.3492 14.1234 10.7812 12.6563 10.7812H9.14062C8.29141 10.7812 7.62578 10.1008 7.62578 9.23203V8.95469C7.62578 8.70234 7.42656 8.49531 7.175 8.48594C6.1625 8.44844 5.36953 7.625 5.36953 6.61094C5.36953 5.78672 5.89766 5.06719 6.68359 4.82109C6.83906 4.77188 6.95781 4.64609 6.99766 4.48828C7.01484 4.41953 7.03672 4.34609 7.06172 4.27188C7.58906 2.69219 9.30234 1.83594 10.882 2.3625C11.8109 2.67188 12.5352 3.41641 12.818 4.35547C12.8539 4.47578 12.9367 4.57578 13.0469 4.63438C13.1578 4.69297 13.2875 4.70547 13.407 4.66719C13.6328 4.59688 13.8703 4.56094 14.1117 4.56094C15.4148 4.56094 16.4742 5.62031 16.4742 6.92344C16.4742 7.14063 16.4453 7.35312 16.3883 7.55781C16.0336 7.41797 15.6469 7.34141 15.2398 7.34141H14.7969C14.3641 6.18984 13.125 5.51484 11.8992 5.81563C11.3664 5.94766 10.9047 6.24297 10.5641 6.67031C10.4031 6.87266 10.4367 7.16797 10.6391 7.32891C10.8414 7.49062 11.1367 7.45703 11.2977 7.25469C11.5078 6.99062 11.7938 6.80781 12.1242 6.72578C12.943 6.525 13.7752 7.02672 13.9734 7.84688C14.0454 8.14453 14.2334 8.27891 14.4578 8.27891H15.2398C16.507 8.27891 17.5 9.34375 17.5 10.7031V12.0313H18.4375V10.7031C18.4375 9.60937 17.9641 8.65391 17.2164 8.04375ZM11.5659 13.4423L19.375 12.8125V16.0938H18.4375V18.5938H12.5V16.0938H11.5625L11.5659 13.4423Z" fill="var(--fill-0, #F4813E)"/>
</g>
</svg>
