<svg width="100%" height="100%" overflow="visible" style="display: block;" viewBox="0 0 24.1435 24" fill="none" xmlns="http://www.w3.org/2000/svg">
<g id="groups">
<path id="Vector" d="M0.85175 18.0717C0.61125 18.0717 0.409167 17.9899 0.2455 17.8262C0.0818333 17.6626 0 17.4605 0 17.22V16.675C0 16.0073 0.352833 15.466 1.0585 15.051C1.764 14.6358 2.68825 14.4283 3.83125 14.4283C4.01192 14.4283 4.18342 14.4314 4.34575 14.4378C4.50808 14.4441 4.67092 14.459 4.83425 14.4825C4.69292 14.7837 4.58692 15.0897 4.51625 15.4005C4.44558 15.7115 4.41025 16.036 4.41025 16.374V18.0717H0.85175ZM6.85175 18.0717C6.61125 18.0717 6.40917 17.9899 6.2455 17.8262C6.08183 17.6626 6 17.4605 6 17.22V16.375C6 15.8297 6.14683 15.3312 6.4405 14.8795C6.73417 14.428 7.15167 14.0336 7.693 13.6963C8.23433 13.3589 8.87933 13.1049 9.628 12.9342C10.3768 12.7636 11.1908 12.6783 12.07 12.6783C12.9662 12.6783 13.7877 12.7636 14.5345 12.9342C15.2813 13.1049 15.9263 13.3589 16.4695 13.6963C17.0108 14.0336 17.4252 14.428 17.7125 14.8795C17.9998 15.3312 18.1435 15.8297 18.1435 16.375V17.22C18.1435 17.4605 18.0617 17.6626 17.898 17.8262C17.7343 17.9899 17.5322 18.0717 17.2917 18.0717H6.85175ZM19.7333 18.0717V16.3725C19.7333 16.0257 19.7011 15.6984 19.6367 15.3908C19.5724 15.0829 19.4716 14.7808 19.3343 14.4845C19.4976 14.4597 19.6606 14.4441 19.8233 14.4378C19.9859 14.4314 20.1521 14.4283 20.3218 14.4283C21.4714 14.4283 22.3958 14.6328 23.095 15.042C23.794 15.4512 24.1435 15.9955 24.1435 16.675V17.22C24.1435 17.4605 24.0617 17.6626 23.898 17.8262C23.7343 17.9899 23.5322 18.0717 23.2917 18.0717H19.7333ZM7.70325 16.4522H16.4402V16.3022C16.4084 15.7054 15.9876 15.2212 15.1777 14.8495C14.3679 14.4777 13.3326 14.2918 12.0718 14.2918C10.8109 14.2918 9.77558 14.4787 8.96575 14.8525C8.15592 15.2262 7.73508 15.7177 7.70325 16.3272V16.4522ZM3.81225 13.6963C3.32325 13.6963 2.90392 13.5203 2.55425 13.1685C2.20475 12.8168 2.03 12.394 2.03 11.9C2.03 11.4037 2.20542 10.9807 2.55625 10.631C2.90725 10.2813 3.32908 10.1065 3.82175 10.1065C4.31708 10.1065 4.74058 10.2814 5.09225 10.6312C5.44375 10.9809 5.6195 11.4071 5.6195 11.9098C5.6195 12.3974 5.44425 12.8171 5.09375 13.1688C4.74308 13.5204 4.31592 13.6963 3.81225 13.6963ZM20.3123 13.6963C19.8233 13.6963 19.4039 13.5203 19.0542 13.1685C18.7047 12.8168 18.53 12.394 18.53 11.9C18.53 11.4037 18.7054 10.9807 19.0563 10.631C19.4073 10.2813 19.8291 10.1065 20.3218 10.1065C20.8171 10.1065 21.2406 10.2814 21.5923 10.6312C21.9438 10.9809 22.1195 11.4071 22.1195 11.9098C22.1195 12.3974 21.9443 12.8171 21.5938 13.1688C21.2431 13.5204 20.8159 13.6963 20.3123 13.6963ZM12.0747 11.9342C11.2206 11.9342 10.4946 11.6353 9.89675 11.0375C9.29892 10.4397 9 9.71367 9 8.8595C9 7.9915 9.29892 7.26308 9.89675 6.67425C10.4946 6.08525 11.2206 5.79075 12.0747 5.79075C12.9427 5.79075 13.6712 6.08525 14.26 6.67425C14.849 7.26308 15.1435 7.9915 15.1435 8.8595C15.1435 9.71367 14.849 10.4397 14.26 11.0375C13.6712 11.6353 12.9427 11.9342 12.0747 11.9342ZM12.0835 10.3148C12.493 10.3148 12.8364 10.1739 13.1137 9.89225C13.3912 9.61058 13.53 9.26317 13.53 8.85C13.53 8.437 13.3898 8.09283 13.1095 7.8175C12.8292 7.542 12.4862 7.40425 12.0805 7.40425C11.67 7.40425 11.3239 7.54308 11.0423 7.82075C10.7604 8.09825 10.6195 8.44217 10.6195 8.8525C10.6195 9.25983 10.7592 9.60542 11.0385 9.88925C11.3177 10.1729 11.666 10.3148 12.0835 10.3148Z" fill="var(--fill-0, #2DA2DB)"/>
</g>
</svg>
