<svg preserveAspectRatio="none" width="100%" height="100%" overflow="visible" style="display: block;" viewBox="0 0 40 40" fill="none" xmlns="http://www.w3.org/2000/svg">
<g id="lightbulb_2">
<path id="Vector" d="M16.1813 30.2192C15.391 30.2192 14.7186 29.9419 14.1642 29.3875C13.6097 28.8331 13.3325 28.1607 13.3325 27.3704V24.8679C11.6697 23.7296 10.3793 22.2794 9.46125 20.5175C8.54319 18.7558 8.08417 16.8782 8.08417 14.8846C8.08417 11.5987 9.24583 8.80889 11.5692 6.515C13.8925 4.22111 16.7076 3.07417 20.0146 3.07417C23.3213 3.07417 26.1331 4.23236 28.45 6.54875C30.7672 8.86514 31.9258 11.6829 31.9258 15.0021C31.9258 16.9982 31.4625 18.864 30.5358 20.5996C29.6092 22.3351 28.3197 23.7579 26.6675 24.8679V27.3704C26.6675 28.1607 26.3896 28.8331 25.8337 29.3875C25.2776 29.9419 24.6093 30.2192 23.8288 30.2192H16.1813ZM16.3796 27.3804H23.6204V24.3196C23.6204 24.0676 23.6756 23.8479 23.7858 23.6604C23.8961 23.4729 24.0481 23.299 24.2417 23.1387L25.21 22.4687C26.435 21.6179 27.3874 20.5326 28.0671 19.2129C28.7471 17.8932 29.0871 16.4864 29.0871 14.9925C29.0871 12.4619 28.2072 10.3161 26.4475 8.555C24.6878 6.79361 22.5386 5.91291 20 5.91291C17.4614 5.91291 15.3122 6.80125 13.5525 8.57792C11.7928 10.3546 10.9129 12.5072 10.9129 15.0358C10.9129 16.5331 11.2529 17.9353 11.9329 19.2425C12.6126 20.55 13.5674 21.6265 14.7971 22.4721L15.7583 23.1387C15.9519 23.299 16.1039 23.474 16.2142 23.6637C16.3244 23.8535 16.3796 24.0721 16.3796 24.3196V27.3804ZM16.5117 36.9158C16.1086 36.9158 15.7731 36.7787 15.505 36.5046C15.2367 36.2304 15.1025 35.8911 15.1025 35.4867C15.1025 35.0822 15.2367 34.7478 15.505 34.4833C15.7731 34.2192 16.1086 34.0871 16.5117 34.0871H23.53C23.9322 34.0871 24.2693 34.2242 24.5412 34.4983C24.8132 34.7725 24.9492 35.1118 24.9492 35.5162C24.9492 35.9204 24.8132 36.2547 24.5412 36.5192C24.2693 36.7836 23.9322 36.9158 23.53 36.9158H16.5117Z" fill="var(--fill-0, #2DA2DB)"/>
</g>
</svg>
