<svg preserveAspectRatio="none" width="100%" height="100%" overflow="visible" style="display: block;" viewBox="0 0 24 24" fill="none" xmlns="http://www.w3.org/2000/svg">
<g id="table_view">
<path id="Vector" d="M7.75675 6.0652H20.4462C20.9029 6.0652 21.2991 6.23333 21.6347 6.56911C21.9702 6.90474 22.1375 7.30036 22.1376 7.75661V20.4461C22.1376 20.9009 21.9702 21.2953 21.6347 21.6297C21.2991 21.9643 20.9029 22.1316 20.4462 22.1316H7.75675C7.30029 22.1315 6.90497 21.9642 6.56925 21.6297C6.23349 21.2952 6.06534 20.9011 6.06534 20.4461V7.75661C6.06544 7.30023 6.23356 6.9048 6.56925 6.56911C6.90496 6.23344 7.30035 6.06526 7.75675 6.0652ZM7.73917 20.4646H13.3153V16.9744H7.73917V20.4646ZM14.8935 20.4646H20.4638V16.9744H14.8935V20.4646ZM3.55362 1.86208H17.1796C17.4153 1.86208 17.6132 1.94391 17.7734 2.1072C17.9336 2.27068 18.0135 2.47027 18.0136 2.70681C18.0136 2.94358 17.9334 3.14049 17.7734 3.2986C17.6132 3.45663 17.4155 3.53591 17.1796 3.53591H3.53605V17.1736C3.53605 17.4133 3.45557 17.6132 3.29484 17.7732C3.13394 17.9333 2.93512 18.0134 2.69816 18.0134C2.46101 18.0134 2.26333 17.9333 2.10538 17.7732C1.94744 17.6132 1.86808 17.4134 1.86808 17.1736V3.55348C1.86814 3.09692 2.03556 2.7015 2.37003 2.36598C2.70445 2.03024 3.09866 1.86211 3.55362 1.86208ZM7.73917 15.3963H13.3153V11.8816H7.73917V15.3963ZM14.8935 15.3963H20.4638V11.8816H14.8935V15.3963ZM7.73917 10.3045H20.4638V7.73317H7.73917V10.3045Z" fill="var(--fill-0, #2DA2DB)" stroke="var(--stroke-0, #2DA2DB)" stroke-width="0.0358696"/>
</g>
</svg>
