<svg preserveAspectRatio="none" width="100%" height="100%" overflow="visible" style="display: block;" viewBox="0 0 20 20" fill="none" xmlns="http://www.w3.org/2000/svg">
<g id="handyman">
<g id="Vector">
<path d="M12.7452 10.2709C12.8386 10.2709 12.9259 10.2883 13.007 10.3227C13.0878 10.3571 13.1663 10.412 13.2423 10.4877L18.3595 15.6098C18.4355 15.6858 18.4901 15.7639 18.5245 15.8432C18.5588 15.9225 18.5763 16.0102 18.5763 16.1069C18.5763 16.2001 18.5585 16.288 18.5226 16.3705C18.4865 16.4532 18.4321 16.5312 18.3595 16.6039L16.5783 18.3852C16.5022 18.4612 16.4238 18.5155 16.3429 18.5483C16.2619 18.5809 16.1729 18.5971 16.0763 18.5971C15.983 18.5971 15.8956 18.5809 15.8146 18.5483C15.7336 18.5156 15.6552 18.4611 15.5792 18.3852L10.462 13.269C10.3859 13.1929 10.3317 13.1136 10.299 13.0327C10.2663 12.9516 10.2501 12.8642 10.2501 12.7709C10.2502 12.6777 10.2662 12.5898 10.299 12.5073C10.3317 12.4246 10.3861 12.345 10.462 12.269L12.2433 10.4877C12.3192 10.412 12.3978 10.3571 12.4786 10.3227C12.5597 10.2883 12.6488 10.271 12.7452 10.2709ZM12.9005 0.974063V3.32367L14.0675 2.15668L17.6925 5.78754C17.9074 6.00578 18.0776 6.25491 18.2023 6.53559C18.3268 6.81625 18.3888 7.1146 18.3888 7.43012C18.3888 7.72789 18.337 8.01436 18.2335 8.28949C18.13 8.56465 17.9886 8.81316 17.8087 9.03461L15.9923 7.21918L14.796 8.41547L13.6876 7.30707L9.20716 11.7885V13.5883L4.4054 18.3852C4.32936 18.4612 4.25138 18.5142 4.17201 18.5454C4.09262 18.5764 4.00478 18.5922 3.90833 18.5922C3.815 18.5922 3.72393 18.5765 3.63587 18.5454C3.54807 18.5142 3.4658 18.4612 3.38978 18.3852L1.63001 16.6254C1.5539 16.5527 1.49999 16.4726 1.46888 16.3862C1.43781 16.3 1.42298 16.2084 1.42298 16.1118C1.42299 16.0186 1.43784 15.9306 1.46888 15.8481C1.49998 15.7653 1.55396 15.6859 1.63001 15.6098L6.43177 10.8129H8.24818L9.02454 10.0356L5.31849 6.33051H4.10169L1.39271 3.62152L3.56947 1.44477L6.27845 4.15277V5.37055L9.98451 9.07563L12.7072 6.35297L11.2863 4.93207L12.4533 3.76996H10.0988L9.67982 3.34516L12.4757 0.544375L12.9005 0.974063ZM3.04212 16.1069L3.48548 16.5297L3.90833 16.9731L8.12415 12.7612V11.895H7.25892L3.04212 16.1069ZM11.8742 12.7612L16.0812 16.9731L16.9474 16.1069L12.7404 11.895L11.8742 12.7612Z" fill="var(--fill-0, #F4813E)"/>
<path d="M12.7452 10.2709C12.8386 10.2709 12.9259 10.2883 13.007 10.3227C13.0878 10.3571 13.1663 10.412 13.2423 10.4877L18.3595 15.6098C18.4355 15.6858 18.4901 15.7639 18.5245 15.8432C18.5588 15.9225 18.5763 16.0102 18.5763 16.1069C18.5763 16.2001 18.5585 16.288 18.5226 16.3705C18.4865 16.4532 18.4321 16.5312 18.3595 16.6039L16.5783 18.3852C16.5022 18.4612 16.4238 18.5155 16.3429 18.5483C16.2619 18.5809 16.1729 18.5971 16.0763 18.5971C15.983 18.5971 15.8956 18.5809 15.8146 18.5483C15.7336 18.5156 15.6552 18.4611 15.5792 18.3852L10.462 13.269C10.3859 13.1929 10.3317 13.1136 10.299 13.0327C10.2663 12.9516 10.2501 12.8642 10.2501 12.7709C10.2502 12.6777 10.2662 12.5898 10.299 12.5073C10.3317 12.4246 10.3861 12.345 10.462 12.269L12.2433 10.4877C12.3192 10.412 12.3978 10.3571 12.4786 10.3227C12.5597 10.2883 12.6488 10.271 12.7452 10.2709ZM12.9005 0.974063V3.32367L14.0675 2.15668L17.6925 5.78754C17.9074 6.00578 18.0776 6.25491 18.2023 6.53559C18.3268 6.81625 18.3888 7.1146 18.3888 7.43012C18.3888 7.72789 18.337 8.01436 18.2335 8.28949C18.13 8.56465 17.9886 8.81316 17.8087 9.03461L15.9923 7.21918L14.796 8.41547L13.6876 7.30707L9.20716 11.7885V13.5883L4.4054 18.3852C4.32936 18.4612 4.25138 18.5142 4.17201 18.5454C4.09262 18.5764 4.00478 18.5922 3.90833 18.5922C3.815 18.5922 3.72393 18.5765 3.63587 18.5454C3.54807 18.5142 3.4658 18.4612 3.38978 18.3852L1.63001 16.6254C1.5539 16.5527 1.49999 16.4726 1.46888 16.3862C1.43781 16.3 1.42298 16.2084 1.42298 16.1118C1.42299 16.0186 1.43784 15.9306 1.46888 15.8481C1.49998 15.7653 1.55396 15.6859 1.63001 15.6098L6.43177 10.8129H8.24818L9.02454 10.0356L5.31849 6.33051H4.10169L1.39271 3.62152L3.56947 1.44477L6.27845 4.15277V5.37055L9.98451 9.07563L12.7072 6.35297L11.2863 4.93207L12.4533 3.76996H10.0988L9.67982 3.34516L12.4757 0.544375L12.9005 0.974063ZM3.04212 16.1069L3.48548 16.5297L3.90833 16.9731L8.12415 12.7612V11.895H7.25892L3.04212 16.1069ZM11.8742 12.7612L16.0812 16.9731L16.9474 16.1069L12.7404 11.895L11.8742 12.7612Z" stroke="var(--stroke-0, #F4813E)"/>
</g>
</g>
</svg>
