<svg width="100%" height="100%" overflow="visible" style="display: block;" viewBox="0 0 40.2392 40" fill="none" xmlns="http://www.w3.org/2000/svg">
<g id="groups">
<path id="Vector" d="M34.2334 25.5546C35.7994 25.5953 36.9361 25.897 37.7344 26.3641C38.5437 26.8379 38.7393 27.3027 38.7393 27.7919V28.62H34.3887V27.288C34.3887 26.6921 34.3358 26.1135 34.2334 25.5546ZM6.02148 25.5516C5.90861 26.1174 5.85059 26.6971 5.85059 27.2899V28.62H1.5V27.7919C1.5 27.3376 1.68551 26.8712 2.52441 26.3778H2.52539C3.33483 25.9016 4.47101 25.5931 6.02148 25.5516ZM6.36914 18.3446C6.79747 18.3446 7.12331 18.4784 7.42871 18.7821H7.42969C7.72798 19.0789 7.86619 19.4048 7.86621 19.8495C7.86621 20.2573 7.73637 20.5779 7.42676 20.8886C7.12825 21.1878 6.80063 21.327 6.35352 21.327C5.94462 21.327 5.6269 21.1979 5.32129 20.8905C5.01694 20.5843 4.88379 20.2584 4.88379 19.8329C4.88388 19.4038 5.01787 19.0817 5.31934 18.7811C5.62485 18.4768 5.94763 18.3447 6.36914 18.3446ZM33.8691 18.3446C34.2976 18.3446 34.6242 18.4782 34.9297 18.7821C35.228 19.0789 35.3662 19.4048 35.3662 19.8495C35.3662 20.2573 35.2364 20.5779 34.9268 20.8886C34.6283 21.1878 34.3006 21.327 33.8535 21.327C33.4446 21.327 33.1269 21.1979 32.8213 20.8905C32.5169 20.5843 32.3838 20.2584 32.3838 19.8329C32.3839 19.4038 32.5179 19.0817 32.8193 18.7811C33.1249 18.4768 33.4476 18.3447 33.8691 18.3446Z" stroke="var(--stroke-0, #F4813E)" stroke-width="3"/>
</g>
</svg>
