<svg preserveAspectRatio="none" width="100%" height="100%" overflow="visible" style="display: block;" viewBox="0 0 24 24" fill="none" xmlns="http://www.w3.org/2000/svg">
<g id="location_on">
<path id="Vector" d="M12 19.9057C14.1966 17.9129 15.8202 16.1146 16.8707 14.5107C17.921 12.9071 18.4462 11.4642 18.4462 10.1822C18.4462 8.23923 17.8237 6.64873 16.5787 5.41073C15.3335 4.17289 13.8072 3.55398 11.9997 3.55398C10.1922 3.55398 8.66605 4.17289 7.42121 5.41073C6.17621 6.64873 5.55371 8.23923 5.55371 10.1822C5.55371 11.4642 6.09138 12.9061 7.16671 14.5077C8.24221 16.1096 9.8533 17.9089 12 19.9057ZM11.9922 21.6257C11.806 21.6257 11.6193 21.5946 11.432 21.5322C11.2446 21.4699 11.0807 21.3701 10.9402 21.2327C10.2162 20.5916 9.43996 19.8565 8.61146 19.0275C7.7828 18.1985 7.01546 17.306 6.30946 16.35C5.60346 15.394 5.01713 14.3923 4.55046 13.345C4.0838 12.2978 3.85046 11.2436 3.85046 10.1822C3.85046 7.64356 4.67013 5.61931 6.30946 4.10948C7.94863 2.59964 9.84546 1.84473 12 1.84473C14.1545 1.84473 16.0523 2.59964 17.6935 4.10948C19.3348 5.61931 20.1555 7.64356 20.1555 10.1822C20.1555 11.2436 19.9211 12.2978 19.4525 13.345C18.9838 14.3923 18.3965 15.394 17.6905 16.35C16.9845 17.306 16.2171 18.1985 15.3885 19.0275C14.56 19.8565 13.7857 20.5916 13.0657 21.2327C12.9205 21.3701 12.7519 21.4699 12.5597 21.5322C12.3675 21.5946 12.1784 21.6257 11.9922 21.6257ZM12.0022 11.792C12.5 11.792 12.9237 11.6175 13.2732 11.2685C13.6229 10.9193 13.7977 10.4958 13.7977 9.99798C13.7977 9.50014 13.6222 9.07648 13.2712 8.72698C12.92 8.37731 12.4955 8.20248 11.9977 8.20248C11.4999 8.20248 11.0771 8.37798 10.7295 8.72898C10.382 9.08014 10.2082 9.50464 10.2082 10.0025C10.2082 10.5003 10.3827 10.9231 10.7317 11.2707C11.0809 11.6182 11.5044 11.792 12.0022 11.792Z" fill="var(--fill-0, #2DA2DB)"/>
</g>
</svg>
