<svg preserveAspectRatio="none" width="100%" height="100%" overflow="visible" style="display: block;" viewBox="0 0 20 20" fill="none" xmlns="http://www.w3.org/2000/svg">
<g id="communication">
<path id="Vector" d="M0.71875 13.2944V12.939C0.71875 12.1623 1.10472 11.6519 1.87667 11.4079C2.64847 11.1637 3.33243 11.0417 3.92854 11.0417C4.52451 11.0417 5.2084 11.1634 5.98021 11.4069C6.75215 11.6505 7.13813 12.1612 7.13813 12.939V13.2944H0.71875ZM3.9275 9.92562C3.47431 9.92562 3.08667 9.76396 2.76458 9.44062C2.44236 9.11715 2.28125 8.72833 2.28125 8.27417C2.28125 7.82 2.44264 7.43181 2.76542 7.10958C3.08819 6.7875 3.47618 6.62646 3.92937 6.62646C4.38257 6.62646 4.77021 6.78806 5.09229 7.11125C5.41451 7.43458 5.57563 7.82285 5.57563 8.27604C5.57563 8.72924 5.41424 9.1175 5.09146 9.44083C4.76868 9.76403 4.38069 9.92562 3.9275 9.92562ZM8.27771 11.1748C8.11826 11.1748 7.9866 11.1249 7.88271 11.025C7.77882 10.9251 7.72688 10.7969 7.72688 10.6402C7.72688 10.562 7.77882 10.4267 7.88271 10.2342C7.99049 10.0814 8.07563 9.92167 8.13813 9.755C8.20063 9.58833 8.23188 9.41458 8.23188 9.23375C8.23188 9.05292 8.20063 8.87417 8.13813 8.6975C8.07563 8.52083 7.98993 8.36472 7.88104 8.22917C7.83604 8.16847 7.7991 8.10535 7.77021 8.03979C7.74132 7.97424 7.72688 7.90479 7.72688 7.83146C7.72688 7.67271 7.77896 7.54167 7.88313 7.43833C7.98729 7.33514 8.11882 7.28354 8.27771 7.28354C8.34785 7.28354 8.41993 7.29479 8.49396 7.31729C8.56799 7.33979 8.62583 7.37882 8.6675 7.43437C8.91028 7.68771 9.08806 7.96965 9.20083 8.28021C9.31361 8.59076 9.37 8.90875 9.37 9.23417C9.37 9.55694 9.30931 9.88104 9.18792 10.2065C9.06653 10.532 8.88812 10.8112 8.65271 11.044C8.59715 11.0995 8.53924 11.1352 8.47896 11.151C8.41882 11.1669 8.35174 11.1748 8.27771 11.1748ZM9.86437 12.7596C9.70215 12.7596 9.57028 12.7072 9.46875 12.6025C9.36736 12.4979 9.31667 12.3656 9.31667 12.2054C9.31667 12.1315 9.33014 12.0628 9.35708 11.9992C9.38403 11.9354 9.42007 11.8737 9.46521 11.814C9.8066 11.4144 10.0597 10.9967 10.2244 10.561C10.3891 10.1253 10.4715 9.68264 10.4715 9.23292C10.4715 8.78319 10.3891 8.3366 10.2244 7.89312C10.0597 7.44951 9.80632 7.03326 9.46438 6.64437C9.41979 6.58521 9.38403 6.52458 9.35708 6.4625C9.33014 6.40028 9.31667 6.33042 9.31667 6.25292C9.31667 6.09153 9.36868 5.95965 9.47271 5.85729C9.57688 5.75493 9.70861 5.70375 9.86792 5.70375C9.94944 5.70375 10.0251 5.72271 10.095 5.76063C10.1649 5.79854 10.229 5.84903 10.2873 5.91208C10.7217 6.41208 11.0464 6.94271 11.2612 7.50396C11.4762 8.06521 11.5838 8.64111 11.5838 9.23167C11.5838 9.82208 11.4762 10.3979 11.2612 10.9592C11.0464 11.5206 10.7218 12.0512 10.2875 12.5512C10.2329 12.6207 10.1706 12.6728 10.1004 12.7075C10.0304 12.7422 9.95174 12.7596 9.86437 12.7596ZM12.8619 13.2944V12.939C12.8619 12.1612 13.2478 11.6505 14.0198 11.4069C14.7916 11.1634 15.4755 11.0417 16.0715 11.0417C16.6676 11.0417 17.3515 11.1637 18.1233 11.4079C18.8953 11.6519 19.2813 12.1623 19.2813 12.939V13.2944H12.8619ZM16.0706 9.92562C15.6174 9.92562 15.2298 9.76396 14.9077 9.44062C14.5855 9.11715 14.4244 8.72833 14.4244 8.27417C14.4244 7.82 14.5858 7.43181 14.9085 7.10958C15.2313 6.7875 15.6193 6.62646 16.0725 6.62646C16.5257 6.62646 16.9133 6.78806 17.2354 7.11125C17.5576 7.43458 17.7188 7.82285 17.7188 8.27604C17.7188 8.72924 17.5574 9.1175 17.2346 9.44083C16.9118 9.76403 16.5238 9.92562 16.0706 9.92562Z" fill="var(--fill-0, #F4813E)"/>
</g>
</svg>
