<svg width="100%" height="100%" overflow="visible" style="display: block;" viewBox="0 0 24 15.0155" fill="none" xmlns="http://www.w3.org/2000/svg">
<g id="Group">
<path id="Vector" d="M6.03727 9.09062C7.4662 9.09088 8.62422 10.2494 8.62418 11.6785C8.62408 13.107 7.46621 14.2652 6.03727 14.2654C4.60843 14.2654 3.44947 13.1072 3.44938 11.6785C3.44938 10.2491 4.60845 9.09062 6.03727 9.09062ZM6.03727 9.52031C4.84544 9.52031 3.87906 10.4867 3.87906 11.6785C3.87914 12.8701 4.84558 13.8357 6.03727 13.8357C7.22914 13.8355 8.19442 12.8699 8.19449 11.6785C8.19449 10.4869 7.22928 9.52057 6.03727 9.52031Z" stroke="var(--stroke-0, #2DA2DB)" stroke-width="1.5"/>
<path id="Vector_2" d="M18.2084 8.34062C16.3651 8.34062 14.871 9.83473 14.871 11.6783C14.871 13.5214 16.3651 15.0155 18.2084 15.0155C20.0518 15.0155 21.5459 13.5214 21.5459 11.6783C21.5459 9.83473 20.0518 8.34062 18.2084 8.34062ZM18.2084 13.0862C17.4308 13.0862 16.8004 12.4557 16.8004 11.6784C16.8004 10.9008 17.4308 10.2703 18.2084 10.2703C18.9861 10.2703 19.6168 10.9008 19.6168 11.6784C19.6169 12.4557 18.9861 13.0862 18.2084 13.0862Z" fill="var(--fill-0, #2DA2DB)"/>
<path id="Vector_3" d="M23.436 5.49316L21.7085 3.37514C21.2329 2.79215 20.5205 2.45409 19.768 2.45409H15.4605V6.08608H14.4783V5.7918V1.86487V1.57059H18.6995V0.000169754H12.7114V1.57063V1.86491H0V6.08613L7.94411 7.59387C9.48199 8.31472 10.5523 9.87337 10.5523 11.6813C10.5523 11.7145 10.548 11.7462 10.5476 11.7791H13.6979C13.6976 11.7462 13.6929 11.7145 13.6929 11.6813C13.6929 9.19138 15.7188 7.16552 18.2084 7.16552C20.464 7.16552 22.3331 8.82969 22.6655 10.9937H23.1653C23.6263 10.9937 24 10.6199 24 10.159V7.07581C24 6.49896 23.8008 5.93988 23.436 5.49316ZM4.20999 5.67227L2.65008 5.52855V3.04294H4.20999V5.67227ZM7.67036 6.28788L6.11045 6.1435V3.04294H7.67036V6.28788ZM11.1304 6.90654L9.57049 6.76254V3.04298H11.1304V6.90654ZM17.2861 5.83061V3.86715H19.827C20.0496 3.86715 20.2575 3.96586 20.3982 4.13813L21.7787 5.83061H17.2861Z" fill="var(--fill-0, #2DA2DB)"/>
</g>
</svg>
