<svg preserveAspectRatio="none" width="100%" height="100%" overflow="visible" style="display: block;" viewBox="0 0 20 20" fill="none" xmlns="http://www.w3.org/2000/svg">
<g id="link_off">
<path id="Vector" d="M2.19522 2.56424C2.36866 2.56424 2.52136 2.62971 2.65322 2.76151L17.3446 17.4529C17.4731 17.5815 17.536 17.7289 17.536 17.8953C17.536 18.0617 17.4732 18.2092 17.3446 18.3377H17.3437C17.2153 18.4692 17.0636 18.5349 16.8886 18.5349C16.7138 18.5349 16.5628 18.4691 16.4345 18.3377H16.4335L8.75576 10.6726H9.70498L9.67471 10.6424L8.36416 9.3328L8.37002 9.32694H7.40811L5.27237 7.1951C5.4506 7.16255 5.6358 7.14629 5.82803 7.14628H6.13858L6.1083 7.11503L4.81631 5.81913L4.80947 5.81229L4.79971 5.81424C4.55902 5.87062 4.32908 5.94394 4.11026 6.03495L1.74307 3.67167C1.61476 3.54321 1.54938 3.39199 1.54776 3.21659C1.54617 3.0417 1.6109 2.89064 1.74209 2.76249L1.74307 2.76151C1.87148 2.62994 2.02191 2.56429 2.19522 2.56424ZM5.2001 7.17362C4.66412 7.28457 4.19117 7.54278 3.78213 7.94999C3.2199 8.50961 2.9384 9.19155 2.93838 9.99491C2.93838 10.7985 3.21985 11.4827 3.78213 12.0457C4.34417 12.6083 5.02658 12.8894 5.82803 12.8894H8.60537C8.80107 12.8894 8.96467 12.957 9.09756 13.0906C9.23031 13.2241 9.29765 13.3881 9.29776 13.5848C9.29776 13.7816 9.23034 13.9449 9.09756 14.076C8.96469 14.2072 8.80116 14.2732 8.60537 14.2732H5.82803C4.64369 14.2732 3.63581 13.8574 2.80362 13.0252C1.97117 12.1929 1.55459 11.1844 1.55459 9.99979C1.55463 9.00049 1.85857 8.11485 2.46572 7.34256C2.91597 6.77012 3.46158 6.34876 4.10244 6.07792L5.2001 7.17362ZM11.6718 5.78397H14.1718C15.3562 5.784 16.364 6.20103 17.1962 7.03495C18.0286 7.86888 18.4452 8.8778 18.4452 10.0623C18.4452 10.8848 18.2163 11.6287 17.7587 12.2937C17.3007 12.9592 16.7117 13.4767 15.9921 13.8465H15.9911C15.8264 13.9438 15.6459 13.9662 15.4481 13.9119C15.2506 13.8576 15.1109 13.7445 15.0272 13.573C14.94 13.3976 14.9262 13.219 14.9872 13.0369C15.0483 12.8549 15.1636 12.7208 15.3319 12.6336L15.331 12.6326C15.8479 12.3986 16.2661 12.0556 16.5839 11.6014C16.9022 11.1462 17.0614 10.6325 17.0614 10.0623C17.0614 9.26081 16.7811 8.57846 16.2206 8.01639C15.6601 7.45409 14.9783 7.17264 14.1767 7.17264H11.6718C11.4762 7.17257 11.3124 7.10595 11.1796 6.97245C11.0467 6.8389 10.9804 6.67415 10.9804 6.47733C10.9804 6.28046 11.0467 6.11591 11.1796 5.98319C11.3124 5.85042 11.4762 5.78404 11.6718 5.78397ZM12.5692 9.42557C12.7649 9.42557 12.9298 9.49189 13.0644 9.62479C13.1988 9.75762 13.2664 9.92146 13.2665 10.117C13.2665 10.2931 13.2093 10.4397 13.0966 10.5574C12.9836 10.6752 12.843 10.7358 12.6737 10.739H12.4521L11.1435 9.42557H12.5692ZM7.37588 9.36307H7.39346L8.66885 10.6365H7.37588C7.19341 10.6365 7.04209 10.5757 6.9208 10.4539C6.79971 10.3321 6.73916 10.1796 6.73916 9.99588C6.73924 9.81249 6.79995 9.66208 6.9208 9.54276C7.04207 9.42338 7.1933 9.36307 7.37588 9.36307ZM8.34365 9.36307L9.61807 10.6365H8.71963L7.44424 9.36307H8.34365ZM6.05264 7.11014H5.82803C5.62474 7.11016 5.42905 7.12783 5.24112 7.16385L4.1376 6.06229C4.34746 5.97589 4.56764 5.90579 4.79776 5.85135L6.05264 7.11014Z" fill="var(--fill-0, #F4813E)" stroke="var(--stroke-0, #F4813E)" stroke-width="0.0358696"/>
</g>
</svg>
