<svg width="100%" height="100%" overflow="visible" style="display: block;" viewBox="0 0 35.7858 36.0495" fill="none" xmlns="http://www.w3.org/2000/svg">
<path id="Vector" d="M26.3425 0C21.1529 0 16.9843 4.24039 16.9843 9.51923C16.9843 10.125 17.0693 10.7308 17.1544 11.3365L9.07232 14.2788C7.62605 11.9423 4.64844 11.1635 2.35143 12.6346C0.0544107 14.1058 -0.711261 17.1346 0.735008 19.4712C1.92605 21.5481 4.47829 22.4135 6.69023 21.5481L12.3052 30.4615C11.1992 32.0192 11.5395 34.2692 13.1559 35.3942C14.6872 36.5192 16.8992 36.1731 18.0052 34.5289C18.941 33.1442 18.8559 31.2404 17.6649 30.0288L22.8544 18.3462C23.9604 18.7788 25.1514 19.0385 26.4275 19.0385C31.6171 19.0385 35.7858 14.7981 35.7858 9.51923C35.7858 4.24039 31.532 0 26.3425 0ZM15.7081 28.9904C15.4529 28.9038 15.2828 28.9039 15.0275 28.9039C14.6022 28.9039 14.1768 28.9904 13.8365 29.1635L8.30665 20.4231C9.24247 19.4712 9.75292 18.1731 9.75292 16.875C9.75292 16.7019 9.75292 16.4423 9.66784 16.2692L17.7499 13.4135C18.4305 15.0577 19.5365 16.4423 20.9828 17.4808L15.7081 28.9904ZM26.3425 15.9231C22.8544 15.9231 20.0469 13.0673 20.0469 9.51923C20.0469 5.97115 22.8544 3.11538 26.3425 3.11538C29.8305 3.11538 32.638 5.97115 32.638 9.51923C32.638 13.0673 29.8305 15.9231 26.3425 15.9231Z" fill="var(--fill-0, #2DA2DB)"/>
</svg>
