<svg preserveAspectRatio="none" width="100%" height="100%" overflow="visible" style="display: block;" viewBox="0 0 40 40" fill="none" xmlns="http://www.w3.org/2000/svg">
<g id="share_reviews">
<path id="Vector" d="M24.0987 24.6033C24.9296 24.6033 25.6381 24.3097 26.2242 23.7225C26.8103 23.135 27.1033 22.4236 27.1033 21.5883C27.1033 20.7528 26.81 20.0426 26.2233 19.4579C25.6367 18.8729 24.9275 18.5804 24.0958 18.5804C23.6797 18.5804 23.2846 18.6568 22.9104 18.8096C22.536 18.9624 22.2065 19.1915 21.9221 19.4971L17.1612 17.1196C17.189 17.0487 17.2029 16.9747 17.2029 16.8975V16.4379C17.2029 16.3588 17.189 16.2817 17.1612 16.2067L21.9321 13.8263C22.2149 14.1385 22.5415 14.371 22.9121 14.5238C23.2826 14.6765 23.6775 14.7529 24.0967 14.7529C24.9256 14.7529 25.6339 14.4592 26.2217 13.8717C26.8094 13.2844 27.1033 12.5732 27.1033 11.7379C27.1033 10.9024 26.809 10.1922 26.2204 9.6075C25.6321 9.0225 24.9225 8.73 24.0917 8.73C23.2608 8.73 22.5529 9.01889 21.9679 9.59667C21.3829 10.1744 21.0871 10.8711 21.0804 11.6867V11.9167C21.0804 11.9956 21.0943 12.0722 21.1221 12.1467L16.2983 14.5571C16.0147 14.2574 15.6903 14.0314 15.325 13.8792C14.9594 13.7267 14.5737 13.6504 14.1679 13.6504C13.336 13.6504 12.6251 13.9462 12.0354 14.5379C11.4454 15.1296 11.1504 15.841 11.1504 16.6721C11.1504 17.5029 11.4457 18.2125 12.0362 18.8008C12.6271 19.3889 13.3372 19.6829 14.1667 19.6829C14.5731 19.6829 14.959 19.6067 15.3246 19.4542C15.6901 19.3019 16.0147 19.076 16.2983 18.7763L21.1221 21.1867C21.0943 21.2611 21.0804 21.3378 21.0804 21.4167V21.6467C21.0871 22.4619 21.3842 23.1586 21.9717 23.7367C22.5589 24.3144 23.2679 24.6033 24.0987 24.6033ZM9.75083 30.2492L5.50833 34.4917C5.05944 34.9406 4.54319 35.044 3.95958 34.8021C3.37597 34.5604 3.08417 34.1287 3.08417 33.5071V5.92292C3.08417 5.15347 3.36569 4.48639 3.92875 3.92167C4.49153 3.35667 5.15625 3.07417 5.92292 3.07417H34.0771C34.8465 3.07417 35.5136 3.35667 36.0783 3.92167C36.6433 4.48639 36.9258 5.15347 36.9258 5.92292V27.4104C36.9258 28.1771 36.6433 28.8418 36.0783 29.4046C35.5136 29.9676 34.8465 30.2492 34.0771 30.2492H9.75083ZM8.6675 27.4104H34.0771V5.92292H5.92292V30.405L8.6675 27.4104Z" fill="var(--fill-0, #2DA2DB)"/>
</g>
</svg>
