<svg width="100%" height="100%" overflow="visible" style="display: block;" viewBox="0 8 20 20" fill="none" xmlns="http://www.w3.org/2000/svg">
<g id="truck-svgrepo-com 1">
<g id="Group">
<path id="Vector" d="M5.0307 19.1201C6.33459 19.1202 7.39197 20.1774 7.39203 21.4814C7.39203 22.7851 6.33468 23.8418 5.0307 23.8418C3.72694 23.8418 2.66937 22.7851 2.66937 21.4814C2.66947 20.1773 3.72705 19.1201 5.0307 19.1201ZM5.0307 19.8877C4.15061 19.8877 3.43707 20.6014 3.43695 21.4814C3.43695 22.3614 4.15059 23.0752 5.0307 23.0752C5.91109 23.0752 6.62445 22.3614 6.62445 21.4814C6.62434 20.6015 5.91108 19.8877 5.0307 19.8877Z" stroke="#F4813E" stroke-width="0.840693"/>
<path id="Vector_2" d="M15.1737 18.7002C13.6376 18.7002 12.3925 19.9453 12.3925 21.4816C12.3925 23.0175 13.6376 24.2626 15.1737 24.2626C16.7098 24.2626 17.9549 23.0175 17.9549 21.4816C17.9549 19.9453 16.7098 18.7002 15.1737 18.7002ZM15.1737 22.6548C14.5257 22.6548 14.0003 22.1294 14.0003 21.4817C14.0003 20.8336 14.5257 20.3083 15.1737 20.3083C15.8217 20.3083 16.3474 20.8336 16.3474 21.4817C16.3474 22.1294 15.8217 22.6548 15.1737 22.6548Z" fill="#2DA2DB"/>
<path id="Vector_3" d="M19.53 16.3275L18.0904 14.5625C17.6941 14.0767 17.1004 13.7949 16.4733 13.7949H12.8837V16.8216H12.0653V16.5764V13.3039V13.0587H15.5829V11.75H10.5928V13.0587V13.304H0V16.8216L6.62009 18.0781C7.90166 18.6788 8.79361 19.9777 8.79361 21.4843C8.79361 21.512 8.78998 21.5383 8.7897 21.5658H11.4149C11.4146 21.5384 11.4108 21.512 11.4108 21.4843C11.4108 19.4093 13.099 17.7211 15.1737 17.7211C17.0533 17.7211 18.6109 19.1079 18.8879 20.9113H19.3044C19.6886 20.9113 20 20.5998 20 20.2157V17.6464C20 17.1657 19.834 16.6998 19.53 16.3275ZM3.50833 16.4767L2.2084 16.357V14.2856H3.50833V16.4767ZM6.39196 16.9898L5.09204 16.8694V14.2856H6.39196V16.9898ZM9.27533 17.5053L7.97541 17.3853V14.2857H9.27533V17.5053ZM14.4051 16.6087V14.9725H16.5225C16.708 14.9725 16.8813 15.0547 16.9985 15.1983L18.1489 16.6087H14.4051Z" fill="#2DA2DB"/>
</g>
</g>
</svg>
