<svg preserveAspectRatio="none" width="100%" height="100%" overflow="visible" style="display: block;" viewBox="0 0 218.011 403.152" fill="none" xmlns="http://www.w3.org/2000/svg">
<g id="1">
<path id="Line 8" d="M0.0113065 93.5274L2.91455e-10 95.0474L0.505991 96.4707L0.517297 94.9508L0.528604 93.4308L0.022613 92.0075L0.0113065 93.5274ZM1.52928 97.7974L1.51797 99.3174L2.52995 102.164L2.54126 100.644L2.55257 99.1242L1.54059 96.2775L1.52928 97.7974ZM3.55324 103.491L3.54194 105.011L4.55392 107.857L4.56522 106.337L4.57653 104.818L3.56455 101.971L3.55324 103.491ZM5.5772 109.184L5.5659 110.704L6.57788 113.551L6.58919 112.031L6.60049 110.511L5.58851 107.664L5.5772 109.184ZM7.60117 114.878L7.58986 116.398L8.60184 119.244L8.61315 117.724L8.62446 116.204L7.61247 113.358L7.60117 114.878ZM9.62513 120.571L9.61382 122.091L10.6258 124.938L10.6371 123.418L10.6484 121.898L9.63644 119.051L9.62513 120.571ZM11.6491 126.264L11.6378 127.784L12.6498 130.631L12.6611 129.111L12.6724 127.591L11.6604 124.744L11.6491 126.264ZM13.6731 131.958L13.6617 133.478L14.6737 136.324L14.685 134.804L14.6963 133.284L13.6844 130.438L13.6731 131.958ZM15.697 137.651L15.6857 139.171L16.6977 142.018L16.709 140.498L16.7203 138.978L15.7083 136.131L15.697 137.651ZM17.721 143.344L17.7097 144.864L18.7217 147.711L18.733 146.191L18.7443 144.671L17.7323 141.824L17.721 143.344ZM19.7449 149.038L19.7336 150.558L20.7456 153.404L20.7569 151.884L20.7682 150.364L19.7562 147.518L19.7449 149.038ZM21.7689 154.731L21.7576 156.251L22.7696 159.098L22.7809 157.578L22.7922 156.058L21.7802 153.211L21.7689 154.731ZM23.7929 160.424L23.7816 161.944L24.7935 164.791L24.8048 163.271L24.8162 161.751L23.8042 158.905L23.7929 160.424ZM25.8168 166.118L25.8055 167.638L26.8175 170.484L26.8288 168.965L26.8401 167.445L25.8281 164.598L25.8168 166.118ZM27.8408 171.811L27.8295 173.331L28.8415 176.178L28.8528 174.658L28.8641 173.138L27.8521 170.291L27.8408 171.811ZM29.8648 177.505L29.8534 179.025L30.8654 181.871L30.8767 180.351L30.888 178.831L29.8761 175.985L29.8648 177.505ZM31.8887 183.198L31.8774 184.718L32.8894 187.565L32.9007 186.045L32.912 184.525L31.9 181.678L31.8887 183.198ZM33.9127 188.891L33.9014 190.411L34.9133 193.258L34.9247 191.738L34.936 190.218L33.924 187.371L33.9127 188.891ZM35.9366 194.585L35.9253 196.105L36.9373 198.951L36.9486 197.431L36.9599 195.911L35.9479 193.065L35.9366 194.585ZM37.9606 200.278L37.9493 201.798L38.9613 204.645L38.9726 203.125L38.9839 201.605L37.9719 198.758L37.9606 200.278ZM39.9846 205.971L39.9733 207.491L40.9852 210.338L40.9965 208.818L41.0078 207.298L39.9959 204.451L39.9846 205.971ZM42.0085 211.665L41.9972 213.185L43.0092 216.031L43.0205 214.511L43.0318 212.992L42.0198 210.145L42.0085 211.665ZM44.0325 217.358L44.0212 218.878L45.0332 221.725L45.0445 220.205L45.0558 218.685L44.0438 215.838L44.0325 217.358ZM46.0564 223.052L46.0451 224.571L47.0571 227.418L47.0684 225.898L47.0797 224.378L46.0678 221.532L46.0564 223.052ZM48.0804 228.745L48.0691 230.265L49.0811 233.112L49.0924 231.592L49.1037 230.072L48.0917 227.225L48.0804 228.745ZM50.1044 234.438L50.0931 235.958L51.105 238.805L51.1164 237.285L51.1277 235.765L50.1157 232.918L50.1044 234.438ZM52.1283 240.132L52.117 241.652L53.129 244.498L53.1403 242.978L53.1516 241.458L52.1396 238.612L52.1283 240.132ZM54.1523 245.825L54.141 247.345L55.153 250.192L55.1643 248.672L55.1756 247.152L54.1636 244.305L54.1523 245.825ZM56.1763 251.518L56.165 253.038L57.1769 255.885L57.1882 254.365L57.1995 252.845L56.1876 249.998L56.1763 251.518ZM58.2002 257.212L58.1889 258.732L59.2009 261.578L59.2122 260.058L59.2235 258.538L58.2115 255.692L58.2002 257.212ZM60.2242 262.905L60.2129 264.425L61.2249 267.272L61.2362 265.752L61.2475 264.232L60.2355 261.385L60.2242 262.905ZM62.2481 268.598L62.2368 270.118L63.2488 272.965L63.2601 271.445L63.2714 269.925L62.2595 267.078L62.2481 268.598ZM64.2721 274.292L64.2608 275.812L65.2728 278.658L65.2841 277.138L65.2954 275.619L64.2834 272.772L64.2721 274.292ZM66.2961 279.985L66.2848 281.505L67.2967 284.352L67.308 282.832L67.3194 281.312L66.3074 278.465L66.2961 279.985ZM68.32 285.679L68.3087 287.198L69.3207 290.045L69.332 288.525L69.3433 287.005L68.3313 284.159L68.32 285.679ZM70.344 291.372L70.3327 292.892L71.3447 295.739L71.356 294.219L71.3673 292.699L70.3553 289.852L70.344 291.372ZM72.368 297.065L72.3566 298.585L73.3686 301.432L73.3799 299.912L73.3912 298.392L72.3793 295.545L72.368 297.065ZM74.3919 302.759L74.3806 304.279L75.3926 307.125L75.4039 305.605L75.4152 304.085L74.4032 301.239L74.3919 302.759ZM76.4159 308.452L76.4046 309.972L77.4166 312.819L77.4279 311.299L77.4392 309.779L76.4272 306.932L76.4159 308.452ZM78.4398 314.145L78.4285 315.665L79.4405 318.512L79.4518 316.992L79.4631 315.472L78.4511 312.625L78.4398 314.145ZM80.4638 319.839L80.4525 321.359L81.4645 324.205L81.4758 322.685L81.4871 321.165L80.4751 318.319L80.4638 319.839ZM82.4878 325.532L82.4765 327.052L83.4884 329.899L83.4997 328.379L83.5111 326.859L82.4991 324.012L82.4878 325.532ZM84.5117 331.225L84.5004 332.745L85.5124 335.592L85.5237 334.072L85.535 332.552L84.523 329.705L84.5117 331.225ZM86.5357 336.919L86.5244 338.439L87.5364 341.285L87.5477 339.766L87.559 338.246L86.547 335.399L86.5357 336.919ZM88.5597 342.612L88.5483 344.132L89.5603 346.979L89.5716 345.459L89.5829 343.939L88.571 341.092L88.5597 342.612ZM90.5836 348.306L90.5723 349.826L91.5843 352.672L91.5956 351.152L91.6069 349.632L90.5949 346.786L90.5836 348.306ZM92.6076 353.999L92.5963 355.519L93.6083 358.366L93.6196 356.846L93.6309 355.326L92.6189 352.479L92.6076 353.999ZM94.6315 359.692L94.6202 361.212L95.6322 364.059L95.6435 362.539L95.6548 361.019L94.6428 358.172L94.6315 359.692ZM96.6555 365.386L96.6442 366.906L97.6562 369.752L97.6675 368.232L97.6788 366.712L96.6668 363.866L96.6555 365.386ZM98.6795 371.079L98.6682 372.599L99.6801 375.446L99.6914 373.926L99.7028 372.406L98.6908 369.559L98.6795 371.079ZM100.703 376.772L100.692 378.292L101.704 381.139L101.715 379.619L101.727 378.099L100.715 375.252L100.703 376.772ZM102.727 382.466L102.716 383.986L103.728 386.832L103.739 385.312L103.751 383.792L102.739 380.946L102.727 382.466ZM104.751 388.159L104.74 389.679L105.752 392.526L105.763 391.006L105.775 389.486L104.763 386.639L104.751 388.159ZM106.775 393.852L106.764 395.372L107.776 398.219L107.787 396.699L107.799 395.179L106.787 392.333L106.775 393.852ZM108.799 399.546L108.788 401.066L109.294 402.489L109.305 400.969L109.317 399.449L108.811 398.026L108.799 399.546Z" fill="var(--stroke-0, #D3E8F3)"/>
<path id="Line 8_2" d="M44.3365 2.19174L44.2277 4.36889L44.4977 6.03049L44.6065 3.85334L44.7153 1.67619L44.4453 0.0145931L44.3365 2.19174ZM45.1465 7.17653L45.0377 9.35368L45.5777 12.6769L45.6865 10.4997L45.7953 8.32258L45.2553 4.99938L45.1465 7.17653ZM46.2265 13.8229L46.1178 16.0001L46.6578 19.3233L46.7666 17.1461L46.8754 14.969L46.3353 11.6458L46.2265 13.8229ZM47.3066 20.4693L47.1978 22.6465L47.7378 25.9697L47.8466 23.7925L47.9554 21.6154L47.4154 18.2922L47.3066 20.4693ZM48.3866 27.1157L48.2778 29.2928L48.8178 32.616L48.9266 30.4389L49.0354 28.2617L48.4954 24.9386L48.3866 27.1157ZM49.4666 33.7621L49.3578 35.9392L49.8978 39.2624L50.0066 37.0853L50.1154 34.9081L49.5754 31.5849L49.4666 33.7621ZM50.5466 40.4085L50.4379 42.5856L50.9779 45.9088L51.0867 43.7317L51.1955 41.5545L50.6554 38.2313L50.5466 40.4085ZM51.6267 47.0549L51.5179 49.232L52.0579 52.5552L52.1667 50.3781L52.2755 48.2009L51.7355 44.8777L51.6267 47.0549ZM52.7067 53.7013L52.5979 55.8784L53.1379 59.2016L53.2467 57.0244L53.3555 54.8473L52.8155 51.5241L52.7067 53.7013ZM53.7867 60.3476L53.6779 62.5248L54.2179 65.848L54.3267 63.6708L54.4355 61.4937L53.8955 58.1705L53.7867 60.3476ZM54.8667 66.994L54.7579 69.1712L55.298 72.4944L55.4068 70.3172L55.5155 68.1401L54.9755 64.8169L54.8667 66.994ZM55.9468 73.6404L55.838 75.8176L56.378 79.1408L56.4868 76.9636L56.5956 74.7865L56.0556 71.4633L55.9468 73.6404ZM57.0268 80.2868L56.918 82.464L57.458 85.7872L57.5668 83.61L57.6756 81.4329L57.1356 78.1097L57.0268 80.2868ZM58.1068 86.9332L57.998 89.1104L58.538 92.4336L58.6468 90.2564L58.7556 88.0793L58.2156 84.7561L58.1068 86.9332ZM59.1868 93.5796L59.078 95.7568L59.6181 99.08L59.7269 96.9028L59.8356 94.7257L59.2956 91.4025L59.1868 93.5796ZM60.2669 100.226L60.1581 102.403L60.6981 105.726L60.8069 103.549L60.9157 101.372L60.3757 98.0489L60.2669 100.226ZM61.3469 106.872L61.2381 109.05L61.7781 112.373L61.8869 110.196L61.9957 108.018L61.4557 104.695L61.3469 106.872ZM62.4269 113.519L62.3181 115.696L62.8581 119.019L62.9669 116.842L63.0757 114.665L62.5357 111.342L62.4269 113.519ZM63.5069 120.165L63.3981 122.342L63.9382 125.666L64.047 123.488L64.1557 121.311L63.6157 117.988L63.5069 120.165ZM64.587 126.812L64.4782 128.989L65.0182 132.312L65.127 130.135L65.2358 127.958L64.6958 124.634L64.587 126.812ZM65.667 133.458L65.5582 135.635L66.0982 138.958L66.207 136.781L66.3158 134.604L65.7758 131.281L65.667 133.458ZM66.747 140.104L66.6382 142.282L67.1782 145.605L67.287 143.428L67.3958 141.25L66.8558 137.927L66.747 140.104ZM67.827 146.751L67.7182 148.928L68.2583 152.251L68.3671 150.074L68.4759 147.897L67.9358 144.574L67.827 146.751ZM68.9071 153.397L68.7983 155.574L69.3383 158.898L69.4471 156.72L69.5559 154.543L69.0159 151.22L68.9071 153.397ZM69.9871 160.044L69.8783 162.221L70.4183 165.544L70.5271 163.367L70.6359 161.19L70.0959 157.866L69.9871 160.044ZM71.0671 166.69L70.9583 168.867L71.4983 172.19L71.6071 170.013L71.7159 167.836L71.1759 164.513L71.0671 166.69ZM72.1471 173.336L72.0383 175.514L72.5784 178.837L72.6872 176.66L72.796 174.482L72.2559 171.159L72.1471 173.336ZM73.2272 179.983L73.1184 182.16L73.6584 185.483L73.7672 183.306L73.876 181.129L73.336 177.806L73.2272 179.983ZM74.3072 186.629L74.1984 188.806L74.7384 192.13L74.8472 189.952L74.956 187.775L74.416 184.452L74.3072 186.629ZM75.3872 193.276L75.2784 195.453L75.8184 198.776L75.9272 196.599L76.036 194.422L75.496 191.098L75.3872 193.276ZM76.4672 199.922L76.3585 202.099L76.8985 205.422L77.0073 203.245L77.1161 201.068L76.576 197.745L76.4672 199.922ZM77.5473 206.568L77.4385 208.745L77.9785 212.069L78.0873 209.892L78.1961 207.714L77.6561 204.391L77.5473 206.568ZM78.6273 213.215L78.5185 215.392L79.0585 218.715L79.1673 216.538L79.2761 214.361L78.7361 211.038L78.6273 213.215ZM79.7073 219.861L79.5985 222.038L80.1385 225.362L80.2473 223.184L80.3561 221.007L79.8161 217.684L79.7073 219.861ZM80.7873 226.508L80.6786 228.685L81.2186 232.008L81.3274 229.831L81.4362 227.654L80.8961 224.33L80.7873 226.508ZM81.8674 233.154L81.7586 235.331L82.2986 238.654L82.4074 236.477L82.5162 234.3L81.9762 230.977L81.8674 233.154ZM82.9474 239.8L82.8386 241.977L83.3786 245.301L83.4874 243.124L83.5962 240.946L83.0562 237.623L82.9474 239.8ZM84.0274 246.447L83.9186 248.624L84.4586 251.947L84.5674 249.77L84.6762 247.593L84.1362 244.27L84.0274 246.447ZM85.1075 253.093L84.9987 255.27L85.5387 258.593L85.6475 256.416L85.7563 254.239L85.2162 250.916L85.1075 253.093ZM86.1875 259.74L86.0787 261.917L86.6187 265.24L86.7275 263.063L86.8363 260.886L86.2963 257.562L86.1875 259.74ZM87.2675 266.386L87.1587 268.563L87.6987 271.886L87.8075 269.709L87.9163 267.532L87.3763 264.209L87.2675 266.386ZM88.3475 273.032L88.2387 275.209L88.7787 278.533L88.8875 276.356L88.9963 274.178L88.4563 270.855L88.3475 273.032ZM89.4275 279.679L89.3188 281.856L89.8588 285.179L89.9676 283.002L90.0764 280.825L89.5363 277.502L89.4275 279.679ZM90.5076 286.325L90.3988 288.502L90.9388 291.825L91.0476 289.648L91.1564 287.471L90.6164 284.148L90.5076 286.325ZM91.5876 292.971L91.4788 295.149L92.0188 298.472L92.1276 296.295L92.2364 294.117L91.6964 290.794L91.5876 292.971ZM92.6676 299.618L92.5588 301.795L93.0988 305.118L93.2076 302.941L93.3164 300.764L92.7764 297.441L92.6676 299.618ZM93.7476 306.264L93.6388 308.441L94.1788 311.765L94.2876 309.587L94.3964 307.41L93.8564 304.087L93.7476 306.264ZM94.8277 312.911L94.7189 315.088L95.2589 318.411L95.3677 316.234L95.4765 314.057L94.9364 310.733L94.8277 312.911ZM95.9077 319.557L95.7989 321.734L96.3389 325.057L96.4477 322.88L96.5565 320.703L96.0165 317.38L95.9077 319.557ZM96.9877 326.203L96.8789 328.38L97.4189 331.704L97.5277 329.526L97.6365 327.349L97.0965 324.026L96.9877 326.203ZM98.0677 332.85L97.9589 335.027L98.4989 338.35L98.6077 336.173L98.7165 333.996L98.1765 330.673L98.0677 332.85ZM99.1477 339.496L99.0389 341.673L99.579 344.996L99.6877 342.819L99.7965 340.642L99.2565 337.319L99.1477 339.496ZM100.228 346.142L100.119 348.32L100.659 351.643L100.768 349.466L100.877 347.288L100.337 343.965L100.228 346.142ZM101.308 352.789L101.199 354.966L101.739 358.289L101.848 356.112L101.957 353.935L101.417 350.612L101.308 352.789ZM102.388 359.435L102.279 361.612L102.819 364.935L102.928 362.758L103.037 360.581L102.497 357.258L102.388 359.435ZM103.468 366.081L103.359 368.259L103.899 371.582L104.008 369.405L104.117 367.228L103.577 363.904L103.468 366.081ZM104.548 372.728L104.439 374.905L104.979 378.228L105.088 376.051L105.197 373.874L104.657 370.551L104.548 372.728ZM105.628 379.374L105.519 381.551L106.059 384.875L106.168 382.697L106.277 380.52L105.737 377.197L105.628 379.374ZM106.708 386.021L106.599 388.198L107.139 391.521L107.248 389.344L107.357 387.167L106.817 383.843L106.708 386.021ZM107.788 392.667L107.679 394.844L108.219 398.167L108.328 395.99L108.437 393.813L107.897 390.49L107.788 392.667ZM108.868 399.313L108.759 401.49L109.029 403.152L109.138 400.975L109.247 398.798L108.977 397.136L108.868 399.313Z" fill="var(--stroke-0, #D3E8F3)"/>
<path id="Line 10" d="M175.615 2.17684L175.506 -2.34209e-06L175.229 1.66158L175.338 3.83842L175.447 6.01527L175.724 4.35369L175.615 2.17684ZM174.784 7.16158L174.675 4.98473L174.121 8.30789L174.23 10.4847L174.339 12.6616L174.893 9.33843L174.784 7.16158ZM173.676 13.8079L173.567 11.631L173.013 14.9542L173.122 17.131L173.231 19.3079L173.785 15.9847L173.676 13.8079ZM172.568 20.4542L172.459 18.2774L171.905 21.6005L172.014 23.7774L172.123 25.9542L172.677 22.631L172.568 20.4542ZM171.46 27.1005L171.351 24.9237L170.797 28.2468L170.906 30.4237L171.015 32.6005L171.569 29.2774L171.46 27.1005ZM170.352 33.7468L170.243 31.57L169.689 34.8931L169.798 37.07L169.907 39.2468L170.461 35.9237L170.352 33.7468ZM169.244 40.3931L169.135 38.2163L168.581 41.5395L168.69 43.7163L168.799 45.8931L169.353 42.57L169.244 40.3931ZM168.136 47.0395L168.027 44.8626L167.473 48.1858L167.582 50.3626L167.691 52.5395L168.245 49.2163L168.136 47.0395ZM167.028 53.6858L166.919 51.5089L166.365 54.8321L166.474 57.0089L166.583 59.1858L167.137 55.8626L167.028 53.6858ZM165.92 60.3321L165.811 58.1552L165.258 61.4784L165.366 63.6552L165.475 65.8321L166.029 62.5089L165.92 60.3321ZM164.812 66.9784L164.704 64.8015L164.15 68.1247L164.259 70.3015L164.367 72.4784L164.921 69.1552L164.812 66.9784ZM163.705 73.6247L163.596 71.4479L163.042 74.771L163.151 76.9479L163.26 79.1247L163.814 75.8015L163.705 73.6247ZM162.597 80.271L162.488 78.0942L161.934 81.4173L162.043 83.5942L162.152 85.771L162.706 82.4479L162.597 80.271ZM161.489 86.9173L161.38 84.7405L160.826 88.0636L160.935 90.2405L161.044 92.4173L161.598 89.0942L161.489 86.9173ZM160.381 93.5636L160.272 91.3868L159.718 94.7099L159.827 96.8868L159.936 99.0636L160.49 95.7405L160.381 93.5636ZM159.273 100.21L159.164 98.0331L158.61 101.356L158.719 103.533L158.828 105.71L159.382 102.387L159.273 100.21ZM158.165 106.856L158.056 104.679L157.502 108.003L157.611 110.179L157.72 112.356L158.274 109.033L158.165 106.856ZM157.057 113.503L156.948 111.326L156.394 114.649L156.503 116.826L156.612 119.003L157.166 115.679L157.057 113.503ZM155.949 120.149L155.84 117.972L155.286 121.295L155.395 123.472L155.504 125.649L156.058 122.326L155.949 120.149ZM154.841 126.795L154.732 124.618L154.178 127.941L154.287 130.118L154.396 132.295L154.95 128.972L154.841 126.795ZM153.733 133.441L153.624 131.265L153.07 134.588L153.179 136.765L153.288 138.941L153.842 135.618L153.733 133.441ZM152.625 140.088L152.516 137.911L151.962 141.234L152.071 143.411L152.18 145.588L152.734 142.265L152.625 140.088ZM151.517 146.734L151.408 144.557L150.854 147.88L150.963 150.057L151.072 152.234L151.626 148.911L151.517 146.734ZM150.409 153.38L150.3 151.204L149.746 154.527L149.855 156.704L149.964 158.88L150.518 155.557L150.409 153.38ZM149.301 160.027L149.192 157.85L148.638 161.173L148.747 163.35L148.856 165.527L149.41 162.204L149.301 160.027ZM148.193 166.673L148.084 164.496L147.53 167.819L147.639 169.996L147.748 172.173L148.302 168.85L148.193 166.673ZM147.085 173.319L146.976 171.142L146.422 174.466L146.531 176.642L146.64 178.819L147.194 175.496L147.085 173.319ZM145.977 179.966L145.868 177.789L145.314 181.112L145.423 183.289L145.532 185.466L146.086 182.143L145.977 179.966ZM144.869 186.612L144.76 184.435L144.206 187.758L144.315 189.935L144.424 192.112L144.978 188.789L144.869 186.612ZM143.761 193.258L143.652 191.081L143.098 194.405L143.207 196.581L143.316 198.758L143.87 195.435L143.761 193.258ZM142.653 199.905L142.544 197.728L141.99 201.051L142.099 203.228L142.208 205.405L142.762 202.081L142.653 199.905ZM141.545 206.551L141.436 204.374L140.883 207.697L140.991 209.874L141.1 212.051L141.654 208.728L141.545 206.551ZM140.438 213.197L140.329 211.02L139.775 214.344L139.884 216.52L139.993 218.697L140.546 215.374L140.438 213.197ZM139.33 219.844L139.221 217.667L138.667 220.99L138.776 223.167L138.885 225.344L139.439 222.02L139.33 219.844ZM138.222 226.49L138.113 224.313L137.559 227.636L137.668 229.813L137.777 231.99L138.331 228.667L138.222 226.49ZM137.114 233.136L137.005 230.959L136.451 234.283L136.56 236.459L136.669 238.636L137.223 235.313L137.114 233.136ZM136.006 239.783L135.897 237.606L135.343 240.929L135.452 243.106L135.561 245.283L136.115 241.959L136.006 239.783ZM134.898 246.429L134.789 244.252L134.235 247.575L134.344 249.752L134.453 251.929L135.007 248.606L134.898 246.429ZM133.79 253.075L133.681 250.898L133.127 254.221L133.236 256.398L133.345 258.575L133.899 255.252L133.79 253.075ZM132.682 259.722L132.573 257.545L132.019 260.868L132.128 263.045L132.237 265.222L132.791 261.898L132.682 259.722ZM131.574 266.368L131.465 264.191L130.911 267.514L131.02 269.691L131.129 271.868L131.683 268.545L131.574 266.368ZM130.466 273.014L130.357 270.837L129.803 274.16L129.912 276.337L130.021 278.514L130.575 275.191L130.466 273.014ZM129.358 279.66L129.249 277.484L128.695 280.807L128.804 282.984L128.913 285.16L129.467 281.837L129.358 279.66ZM128.25 286.307L128.141 284.13L127.587 287.453L127.696 289.63L127.805 291.807L128.359 288.484L128.25 286.307ZM127.142 292.953L127.033 290.776L126.479 294.099L126.588 296.276L126.697 298.453L127.251 295.13L127.142 292.953ZM126.034 299.599L125.925 297.423L125.371 300.746L125.48 302.923L125.589 305.099L126.143 301.776L126.034 299.599ZM124.926 306.246L124.817 304.069L124.263 307.392L124.372 309.569L124.481 311.746L125.035 308.423L124.926 306.246ZM123.818 312.892L123.709 310.715L123.155 314.038L123.264 316.215L123.373 318.392L123.927 315.069L123.818 312.892ZM122.71 319.538L122.601 317.362L122.047 320.685L122.156 322.862L122.265 325.038L122.819 321.715L122.71 319.538ZM121.602 326.185L121.493 324.008L120.939 327.331L121.048 329.508L121.157 331.685L121.711 328.362L121.602 326.185ZM120.494 332.831L120.385 330.654L119.831 333.977L119.94 336.154L120.049 338.331L120.603 335.008L120.494 332.831ZM119.386 339.477L119.277 337.301L118.723 340.624L118.832 342.801L118.941 344.977L119.495 341.654L119.386 339.477ZM118.278 346.124L118.169 343.947L117.615 347.27L117.724 349.447L117.833 351.624L118.387 348.301L118.278 346.124ZM117.17 352.77L117.061 350.593L116.507 353.916L116.616 356.093L116.725 358.27L117.279 354.947L117.17 352.77ZM116.062 359.416L115.954 357.239L115.4 360.563L115.508 362.739L115.617 364.916L116.171 361.593L116.062 359.416ZM114.955 366.063L114.846 363.886L114.292 367.209L114.401 369.386L114.51 371.563L115.063 368.239L114.955 366.063ZM113.847 372.709L113.738 370.532L113.184 373.855L113.293 376.032L113.402 378.209L113.956 374.886L113.847 372.709ZM112.739 379.355L112.63 377.178L112.076 380.502L112.185 382.678L112.294 384.855L112.848 381.532L112.739 379.355ZM111.631 386.002L111.522 383.825L110.968 387.148L111.077 389.325L111.186 391.502L111.74 388.178L111.631 386.002ZM110.523 392.648L110.414 390.471L109.86 393.794L109.969 395.971L110.078 398.148L110.632 394.825L110.523 392.648ZM109.415 399.294L109.306 397.117L109.029 398.779L109.138 400.956L109.247 403.132L109.524 401.471L109.415 399.294Z" fill="var(--stroke-0, #D3E8F3)"/>
<path id="Line 11" d="M217.683 91.2909L217.564 90.0559L216.988 91.7031L217.106 92.938L217.225 94.173L217.802 92.5259L217.683 91.2909ZM215.953 96.2324L215.835 94.9974L214.682 98.2918L214.8 99.5267L214.919 100.762L216.072 97.4674L215.953 96.2324ZM213.647 102.821L213.529 101.586L212.376 104.88L212.495 106.115L212.613 107.35L213.766 104.056L213.647 102.821ZM211.342 109.41L211.223 108.175L210.07 111.469L210.189 112.704L210.307 113.939L211.46 110.645L211.342 109.41ZM209.036 115.998L208.917 114.764L207.764 118.058L207.883 119.293L208.001 120.528L209.154 117.233L209.036 115.998ZM206.73 122.587L206.611 121.352L205.458 124.647L205.577 125.882L205.696 127.117L206.849 123.822L206.73 122.587ZM204.424 129.176L204.305 127.941L203.152 131.235L203.271 132.47L203.39 133.705L204.543 130.411L204.424 129.176ZM202.118 135.765L201.999 134.53L200.846 137.824L200.965 139.059L201.084 140.294L202.237 137L202.118 135.765ZM199.812 142.353L199.693 141.118L198.54 144.413L198.659 145.648L198.778 146.883L199.931 143.588L199.812 142.353ZM197.506 148.942L197.387 147.707L196.234 151.001L196.353 152.236L196.472 153.471L197.625 150.177L197.506 148.942ZM195.2 155.531L195.082 154.296L193.929 157.59L194.047 158.825L194.166 160.06L195.319 156.766L195.2 155.531ZM192.894 162.119L192.776 160.884L191.623 164.179L191.741 165.414L191.86 166.649L193.013 163.354L192.894 162.119ZM190.588 168.708L190.47 167.473L189.317 170.767L189.435 172.002L189.554 173.237L190.707 169.943L190.588 168.708ZM188.283 175.297L188.164 174.062L187.011 177.356L187.13 178.591L187.248 179.826L188.401 176.532L188.283 175.297ZM185.977 181.885L185.858 180.65L184.705 183.945L184.824 185.18L184.942 186.415L186.095 183.12L185.977 181.885ZM183.671 188.474L183.552 187.239L182.399 190.534L182.518 191.769L182.637 193.003L183.789 189.709L183.671 188.474ZM181.365 195.063L181.246 193.828L180.093 197.122L180.212 198.357L180.331 199.592L181.484 196.298L181.365 195.063ZM179.059 201.652L178.94 200.417L177.787 203.711L177.906 204.946L178.025 206.181L179.178 202.887L179.059 201.652ZM176.753 208.24L176.634 207.005L175.481 210.3L175.6 211.535L175.719 212.77L176.872 209.475L176.753 208.24ZM174.447 214.829L174.328 213.594L173.175 216.888L173.294 218.123L173.413 219.358L174.566 216.064L174.447 214.829ZM172.141 221.418L172.022 220.183L170.87 223.477L170.988 224.712L171.107 225.947L172.26 222.653L172.141 221.418ZM169.835 228.006L169.717 226.771L168.564 230.066L168.682 231.301L168.801 232.536L169.954 229.241L169.835 228.006ZM167.529 234.595L167.411 233.36L166.258 236.654L166.376 237.889L166.495 239.124L167.648 235.83L167.529 234.595ZM165.224 241.184L165.105 239.949L163.952 243.243L164.071 244.478L164.189 245.713L165.342 242.419L165.224 241.184ZM162.918 247.772L162.799 246.537L161.646 249.832L161.765 251.067L161.883 252.302L163.036 249.007L162.918 247.772ZM160.612 254.361L160.493 253.126L159.34 256.42L159.459 257.655L159.577 258.89L160.73 255.596L160.612 254.361ZM158.306 260.95L158.187 259.715L157.034 263.009L157.153 264.244L157.272 265.479L158.425 262.185L158.306 260.95ZM156 267.538L155.881 266.303L154.728 269.598L154.847 270.833L154.966 272.068L156.119 268.773L156 267.538ZM153.694 274.127L153.575 272.892L152.422 276.187L152.541 277.421L152.66 278.656L153.813 275.362L153.694 274.127ZM151.388 280.716L151.269 279.481L150.116 282.775L150.235 284.01L150.354 285.245L151.507 281.951L151.388 280.716ZM149.082 287.305L148.963 286.07L147.81 289.364L147.929 290.599L148.048 291.834L149.201 288.54L149.082 287.305ZM146.776 293.893L146.658 292.658L145.505 295.953L145.623 297.188L145.742 298.423L146.895 295.128L146.776 293.893ZM144.47 300.482L144.352 299.247L143.199 302.541L143.317 303.776L143.436 305.011L144.589 301.717L144.47 300.482ZM142.164 307.071L142.046 305.836L140.893 309.13L141.012 310.365L141.13 311.6L142.283 308.306L142.164 307.071ZM139.859 313.659L139.74 312.424L138.587 315.719L138.706 316.954L138.824 318.189L139.977 314.894L139.859 313.659ZM137.553 320.248L137.434 319.013L136.281 322.307L136.4 323.542L136.518 324.777L137.671 321.483L137.553 320.248ZM135.247 326.837L135.128 325.602L133.975 328.896L134.094 330.131L134.213 331.366L135.366 328.072L135.247 326.837ZM132.941 333.425L132.822 332.19L131.669 335.485L131.788 336.72L131.907 337.955L133.06 334.66L132.941 333.425ZM130.635 340.014L130.516 338.779L129.363 342.073L129.482 343.308L129.601 344.543L130.754 341.249L130.635 340.014ZM128.329 346.603L128.21 345.368L127.057 348.662L127.176 349.897L127.295 351.132L128.448 347.838L128.329 346.603ZM126.023 353.191L125.904 351.956L124.751 355.251L124.87 356.486L124.989 357.721L126.142 354.426L126.023 353.191ZM123.717 359.78L123.599 358.545L122.446 361.84L122.564 363.075L122.683 364.309L123.836 361.015L123.717 359.78ZM121.411 366.369L121.293 365.134L120.14 368.428L120.258 369.663L120.377 370.898L121.53 367.604L121.411 366.369ZM119.105 372.958L118.987 371.723L117.834 375.017L117.952 376.252L118.071 377.487L119.224 374.193L119.105 372.958ZM116.8 379.546L116.681 378.311L115.528 381.606L115.647 382.841L115.765 384.076L116.918 380.781L116.8 379.546ZM114.494 386.135L114.375 384.9L113.222 388.194L113.341 389.429L113.459 390.664L114.612 387.37L114.494 386.135ZM112.188 392.724L112.069 391.489L110.916 394.783L111.035 396.018L111.154 397.253L112.306 393.959L112.188 392.724ZM109.882 399.312L109.763 398.077L109.187 399.725L109.305 400.96L109.424 402.195L110.001 400.547L109.882 399.312Z" fill="var(--stroke-0, #D3E8F3)"/>
</g>
</svg>
