<svg preserveAspectRatio="none" width="100%" height="100%" overflow="visible" style="display: block;" viewBox="0 0 52.612 52.612" fill="none" xmlns="http://www.w3.org/2000/svg">
<path id="Vector" d="M46.3061 1.3061V11.3061M51.3061 6.3061H41.3061M23.8485 3.34099C23.9556 2.76749 24.2599 2.24952 24.7087 1.87678C25.1575 1.50404 25.7226 1.3 26.306 1.3C26.8894 1.3 27.4544 1.50404 27.9032 1.87678C28.3521 2.24952 28.6564 2.76749 28.7635 3.34099L31.391 17.236C31.5776 18.2239 32.0577 19.1325 32.7686 19.8434C33.4794 20.5543 34.3881 21.0344 35.376 21.221L49.271 23.8485C49.8445 23.9556 50.3624 24.2599 50.7352 24.7087C51.1079 25.1575 51.312 25.7226 51.312 26.306C51.312 26.8894 51.1079 27.4544 50.7352 27.9032C50.3624 28.3521 49.8445 28.6564 49.271 28.7635L35.376 31.391C34.3881 31.5776 33.4794 32.0577 32.7686 32.7686C32.0577 33.4794 31.5776 34.3881 31.391 35.376L28.7635 49.271C28.6564 49.8445 28.3521 50.3624 27.9032 50.7352C27.4544 51.1079 26.8894 51.312 26.306 51.312C25.7226 51.312 25.1575 51.1079 24.7087 50.7352C24.2599 50.3624 23.9556 49.8445 23.8485 49.271L21.221 35.376C21.0344 34.3881 20.5543 33.4794 19.8434 32.7686C19.1325 32.0577 18.2239 31.5776 17.236 31.391L3.34099 28.7635C2.76749 28.6564 2.24952 28.3521 1.87678 27.9032C1.50404 27.4544 1.3 26.8894 1.3 26.306C1.3 25.7226 1.50404 25.1575 1.87678 24.7087C2.24952 24.2599 2.76749 23.9556 3.34099 23.8485L17.236 21.221C18.2239 21.0344 19.1325 20.5543 19.8434 19.8434C20.5543 19.1325 21.0344 18.2239 21.221 17.236L23.8485 3.34099ZM11.3061 46.3061C11.3061 49.0675 9.06753 51.3061 6.3061 51.3061C3.54468 51.3061 1.3061 49.0675 1.3061 46.3061C1.3061 43.5447 3.54468 41.3061 6.3061 41.3061C9.06753 41.3061 11.3061 43.5447 11.3061 46.3061Z" stroke="var(--stroke-0, white)" stroke-width="2.6" stroke-linecap="round" stroke-linejoin="round"/>
</svg>
