<svg width="100%" height="100%" overflow="visible" style="display: block;" viewBox="0 0 22 17" fill="none" xmlns="http://www.w3.org/2000/svg">
<path id="Vector" d="M9 7V2C9 1.73478 9.10536 1.48043 9.29289 1.29289C9.48043 1.10536 9.73478 1 10 1H12C12.2652 1 12.5196 1.10536 12.7071 1.29289C12.8946 1.48043 13 1.73478 13 2V7M13 3C14.5913 3 16.1174 3.63214 17.2426 4.75736C18.3679 5.88258 19 7.4087 19 9V12M3 12V9C3 7.4087 3.63214 5.88258 4.75736 4.75736C5.88258 3.63214 7.4087 3 9 3M2 12H20C20.5523 12 21 12.4477 21 13V15C21 15.5523 20.5523 16 20 16H2C1.44772 16 1 15.5523 1 15V13C1 12.4477 1.44772 12 2 12Z" stroke="var(--stroke-0, #2DA2DB)" stroke-width="2" stroke-linecap="round" stroke-linejoin="round"/>
</svg>
