<svg width="100%" height="100%" overflow="visible" style="display: block;" viewBox="0 0 16.5093 20.355" fill="none" xmlns="http://www.w3.org/2000/svg">
<path id="Vector" d="M12.0615 0.0253906C12.3268 0.0254277 12.5283 0.135716 12.6689 0.358398C12.7395 0.470199 12.7745 0.582039 12.7754 0.693359C12.7763 0.804713 12.7436 0.918085 12.6748 1.0332H12.6738L9.01367 7.64551L8.99609 7.67773L9.0332 7.68164L15.7432 8.46387C15.9195 8.48408 16.0644 8.54244 16.1787 8.63672C16.2929 8.731 16.3788 8.86285 16.4346 9.03418C16.4904 9.20557 16.4992 9.3627 16.4629 9.50586C16.4265 9.64906 16.3435 9.78084 16.2139 9.90039L5.05957 20.1426C4.9909 20.1989 4.91563 20.2449 4.83301 20.2793C4.75258 20.3127 4.63057 20.3301 4.46582 20.3301C4.20034 20.3301 3.99797 20.22 3.85547 19.999C3.78397 19.8883 3.74757 19.7777 3.74609 19.667C3.74466 19.5562 3.77794 19.4432 3.84668 19.3281V19.3271L7.48926 12.7461L7.50684 12.7129L7.4707 12.709L0.765625 11.915L0.639648 11.8926C0.519276 11.8635 0.416728 11.8135 0.331055 11.7432C0.216766 11.6493 0.131005 11.5181 0.0751953 11.3477C0.0194207 11.1773 0.0104658 11.0207 0.046875 10.877C0.0833341 10.7332 0.166079 10.6001 0.295898 10.4785L0.294922 10.4775L11.4668 0.212891C11.5358 0.160151 11.6121 0.115669 11.6953 0.0791016C11.7756 0.0438619 11.8969 0.0253906 12.0615 0.0253906ZM8.89844 4.85352L2.51953 10.5078L2.47754 10.5449L2.5332 10.5508L9.93164 11.4326L7.59668 15.4824L7.63477 15.5137L13.9707 9.89648L14.0127 9.85938L13.957 9.85254L6.55762 8.95703L8.93652 4.88477L8.89844 4.85352Z" fill="var(--fill-0, #2DA2DB)" stroke="var(--stroke-0, #2DA2DB)" stroke-width="0.05"/>
</svg>
