<svg preserveAspectRatio="none" width="100%" height="100%" overflow="visible" style="display: block;" viewBox="0 0 20.305 19.113" fill="none" xmlns="http://www.w3.org/2000/svg">
<path id="Vector" d="M1.70312 0.0253906H18.5957C19.0505 0.0253906 19.445 0.191858 19.7793 0.526367C20.1135 0.860576 20.2802 1.25449 20.2803 1.70898V14.6016C20.2803 15.0545 20.1136 15.4472 19.7793 15.7803C19.445 16.1136 19.0505 16.2803 18.5957 16.2803H3.98926L1.43652 18.833C1.30481 18.9647 1.16451 19.0443 1.01562 19.0742C0.866598 19.1041 0.706479 19.0846 0.535156 19.0137C0.36369 18.9427 0.236607 18.8443 0.152344 18.7197C0.0681027 18.5951 0.0253932 18.4422 0.0253906 18.2598V1.70898C0.0254553 1.25437 0.191214 0.860612 0.524414 0.526367C0.857569 0.191897 1.25012 0.0254213 1.70312 0.0253906ZM1.67871 16.4629L1.72168 16.415L3.36035 14.627H18.6211V1.68457H1.67871V16.4629ZM10.1445 6.7002C10.3657 6.7002 10.5486 6.77335 10.6934 6.91895C10.8381 7.06467 10.9102 7.24554 10.9102 7.46191V12.1992C10.9102 12.42 10.8389 12.6014 10.6973 12.7451C10.5556 12.8889 10.3753 12.9618 10.1543 12.9619C9.93302 12.9619 9.75024 12.8891 9.60547 12.7451C9.46109 12.6014 9.38867 12.4198 9.38867 12.1992V7.46191C9.38867 7.24543 9.45967 7.06462 9.60156 6.91895C9.74319 6.77362 9.92372 6.7003 10.1445 6.7002ZM10.1475 3.18066C10.394 3.18077 10.5995 3.26548 10.7656 3.43457C10.932 3.60405 11.0156 3.81057 11.0156 4.05566C11.0156 4.30245 10.9321 4.50753 10.7656 4.67188C10.5992 4.83599 10.3932 4.91786 10.1465 4.91797C9.89977 4.91797 9.69463 4.83523 9.53027 4.66992C9.36601 4.50469 9.28418 4.30011 9.28418 4.05469C9.28419 3.8093 9.3665 3.60256 9.53125 3.43359C9.69577 3.26488 9.90089 3.18066 10.1475 3.18066Z" fill="var(--fill-0, #2DA2DB)" stroke="var(--stroke-0, #2DA2DB)" stroke-width="0.05"/>
</svg>
