<svg preserveAspectRatio="none" width="100%" height="100%" overflow="visible" style="display: block;" viewBox="0 0 36.3333 36.3333" fill="none" xmlns="http://www.w3.org/2000/svg">
<path id="Vector" d="M28.0416 31.5932C27.6676 29.2429 26.4675 27.1031 24.6572 25.5583C22.8469 24.0134 20.545 23.1648 18.1651 23.165C15.7852 23.1652 13.4834 24.0142 11.6733 25.5594C9.86329 27.1045 8.66363 29.2445 8.28996 31.5949M24.8333 16.5C24.8333 20.1819 21.8486 23.1667 18.1667 23.1667C14.4848 23.1667 11.5 20.1819 11.5 16.5C11.5 12.8181 14.4848 9.83333 18.1667 9.83333C21.8486 9.83333 24.8333 12.8181 24.8333 16.5ZM34.8333 18.1667C34.8333 27.3714 27.3714 34.8333 18.1667 34.8333C8.96192 34.8333 1.5 27.3714 1.5 18.1667C1.5 8.96192 8.96192 1.5 18.1667 1.5C27.3714 1.5 34.8333 8.96192 34.8333 18.1667Z" stroke="var(--stroke-0, #2DA2DB)" stroke-width="3" stroke-linecap="round" stroke-linejoin="round"/>
</svg>
