<svg preserveAspectRatio="none" width="100%" height="100%" overflow="visible" style="display: block;" viewBox="0 0 20.6205 21.6635" fill="none" xmlns="http://www.w3.org/2000/svg">
<path id="Vector" d="M13.623 11.6963C13.7319 11.6963 13.8337 11.7169 13.9277 11.7568C14.0213 11.7967 14.1127 11.8609 14.2021 11.9502L20.3418 18.0957C20.4314 18.1853 20.4963 18.2763 20.5361 18.3682C20.5757 18.4598 20.5957 18.5619 20.5957 18.6748C20.5957 18.7833 20.5748 18.8857 20.5332 18.9814C20.4913 19.0775 20.4272 19.1685 20.3418 19.2539L18.2051 21.3906C18.1378 21.4579 18.0695 21.5109 18 21.5488L17.9307 21.582C17.8367 21.6198 17.7331 21.6387 17.6201 21.6387C17.5111 21.6387 17.4094 21.6199 17.3154 21.582C17.2218 21.5442 17.1305 21.4801 17.041 21.3906L10.9014 15.251C10.812 15.1615 10.7487 15.0699 10.7109 14.9766C10.673 14.8825 10.6533 14.7808 10.6533 14.6719C10.6534 14.563 10.6729 14.4602 10.7109 14.3643C10.7488 14.2688 10.8121 14.1762 10.9014 14.0869L13.0381 11.9502C13.1276 11.8608 13.2197 11.7967 13.3135 11.7568C13.4073 11.717 13.5104 11.6963 13.623 11.6963ZM13.7842 0.525391V3.39551L13.8271 3.35254L15.208 1.96973L19.542 6.30859C19.7979 6.56845 20 6.86593 20.1484 7.2002C20.2964 7.53358 20.3701 7.88764 20.3701 8.2627C20.3701 8.61701 20.3086 8.95789 20.1855 9.28516C20.0655 9.60403 19.9022 9.89225 19.6963 10.1504L17.5381 7.99219L17.5195 7.97461L16.084 9.41016L14.7539 8.08008L14.7363 8.09766L9.36035 13.4746L9.35254 13.4824V15.6416L3.59766 21.3906C3.50819 21.4801 3.41752 21.5423 3.32617 21.5781C3.23411 21.6142 3.13165 21.6328 3.01855 21.6328C2.90939 21.6328 2.80319 21.6145 2.7002 21.5781C2.59877 21.5422 2.50312 21.4797 2.41406 21.3906L0.301758 19.2783C0.213023 19.1934 0.151041 19.1013 0.115234 19.002C0.0789347 18.9013 0.0605469 18.7939 0.0605469 18.6807C0.0605654 18.6263 0.0652016 18.5736 0.0742188 18.5225L0.115234 18.373C0.151074 18.2777 0.213393 18.185 0.302734 18.0957L6.05762 12.3467H8.23633L8.24414 12.3398L9.17578 11.4072L9.19336 11.3896L9.17578 11.3721L4.72852 6.92578L4.72168 6.91797H3.26074L0.0351562 3.69238L2.6123 1.11523L5.83789 4.34082V5.80176L5.8457 5.80859L10.292 10.2559L10.3096 10.2734L13.6133 6.96973L13.5957 6.95215L11.9082 5.26562L13.29 3.88867L13.333 3.84668H10.459L9.97852 3.36133L13.2988 0.0351562L13.7842 0.525391ZM7.02148 13.6035L1.96191 18.6572L1.94336 18.6758L1.96191 18.6934L1.98145 18.7119L3 19.7314L3.01758 19.75L3.03613 19.7324L8.0957 14.6777L8.10352 14.6709V13.5967H7.02832L7.02148 13.6035ZM12.543 14.6602L12.5605 14.6777L17.6084 19.7314L17.626 19.75L17.6436 19.7314L18.7002 18.6748L18.6826 18.6572L13.6348 13.6035L13.6172 13.5859L12.543 14.6602Z" fill="var(--fill-0, #2DA2DB)" stroke="var(--stroke-0, #2DA2DB)" stroke-width="0.05"/>
</svg>
