<svg preserveAspectRatio="none" width="100%" height="100%" overflow="visible" style="display: block;" viewBox="0 0 22.0347 18.4005" fill="none" xmlns="http://www.w3.org/2000/svg">
<g id="Vector">
<mask id="path-1-inside-1_0_454" fill="white">
<path d="M0 17.5488V15.945C0 15.3287 0.146333 14.8235 0.439 14.4295C0.7315 14.0355 1.12142 13.7218 1.60875 13.4885C2.50875 13.0552 3.48217 12.6948 4.529 12.4075C5.576 12.1202 6.7505 11.9765 8.0525 11.9765C9.3545 11.9765 10.5279 12.1182 11.5728 12.4015C12.6178 12.6848 13.5922 13.0432 14.4962 13.4765C14.9796 13.7138 15.3675 14.0309 15.66 14.4277C15.9527 14.8244 16.099 15.3302 16.099 15.945V17.5488C16.099 17.7934 16.0182 17.9965 15.8565 18.158C15.695 18.3197 15.4919 18.4005 15.2473 18.4005H0.85175C0.607083 18.4005 0.404 18.3197 0.2425 18.158C0.0808334 17.9965 0 17.7934 0 17.5488ZM1.70925 16.6913H14.3958V15.963C14.3958 15.713 14.3249 15.5118 14.1833 15.3595C14.0416 15.2072 13.8708 15.0893 13.6708 15.006C12.9541 14.6893 12.1581 14.3891 11.2828 14.1053C10.4073 13.8216 9.3305 13.6798 8.0525 13.6798C6.77433 13.6798 5.69758 13.8226 4.82225 14.1083C3.94692 14.3941 3.15092 14.6938 2.43425 15.0073C2.23025 15.0898 2.05842 15.2072 1.91875 15.3595C1.77908 15.5118 1.70925 15.713 1.70925 15.963V16.6913ZM8.0525 10.4765C6.91067 10.4765 5.97475 10.1048 5.24475 9.36125C4.51492 8.61775 4.15 7.69967 4.15 6.607H3.9C3.75417 6.607 3.62742 6.553 3.51975 6.445C3.41208 6.33717 3.35825 6.21008 3.35825 6.06375C3.35825 5.91925 3.41208 5.793 3.51975 5.685C3.62742 5.57717 3.75417 5.52325 3.9 5.52325H4.15C4.15 4.83675 4.32767 4.21583 4.683 3.6605C5.03817 3.10533 5.50433 2.663 6.0815 2.3335V3.31225C6.0815 3.41775 6.11858 3.507 6.19275 3.58C6.26675 3.653 6.35667 3.6895 6.4625 3.6895C6.57517 3.6895 6.66683 3.65317 6.7375 3.5805C6.80817 3.50783 6.8435 3.41975 6.8435 3.31625V2.0205C6.97817 1.99117 7.163 1.963 7.398 1.936C7.63283 1.909 7.8595 1.8955 8.078 1.8955C8.29233 1.8955 8.51617 1.909 8.7495 1.936C8.98283 1.963 9.16775 1.99108 9.30425 2.02025V3.31625C9.30425 3.41975 9.33975 3.50783 9.41075 3.5805C9.48192 3.65317 9.57583 3.6895 9.6925 3.6895C9.7965 3.6895 9.886 3.653 9.961 3.58C10.036 3.507 10.0735 3.4185 10.0735 3.3145V2.3335C10.6467 2.663 11.1025 3.10525 11.441 3.66025C11.7797 4.21542 11.949 4.83642 11.949 5.52325H12.199C12.3448 5.52325 12.4716 5.57708 12.5792 5.68475C12.6869 5.79225 12.7408 5.91883 12.7408 6.0645C12.7408 6.21017 12.6869 6.337 12.5792 6.445C12.4716 6.553 12.3448 6.607 12.199 6.607H11.949C11.949 7.7015 11.585 8.62008 10.857 9.36275C10.1292 10.1053 9.19433 10.4765 8.0525 10.4765ZM8.05525 8.76725C8.73542 8.76725 9.2705 8.56417 9.6605 8.158C10.0507 7.752 10.2457 7.223 10.2457 6.571H5.85925C5.85925 7.22183 6.054 7.75058 6.4435 8.15725C6.83283 8.56392 7.37008 8.76725 8.05525 8.76725ZM15.682 11.5418L15.657 11.2918C15.5403 11.2251 15.4193 11.1501 15.2938 11.0668C15.1681 10.9834 15.0549 10.8981 14.9542 10.8108L14.6772 10.9608C14.5584 11.0274 14.4448 11.0443 14.3365 11.0115C14.228 10.9787 14.1345 10.913 14.056 10.8145L14.032 10.7668C13.9487 10.6501 13.9195 10.5293 13.9445 10.4043C13.9695 10.2793 14.032 10.1751 14.132 10.0918L14.407 9.89175C14.3737 9.82508 14.357 9.76258 14.357 9.70425V9.32925C14.357 9.27092 14.3737 9.20842 14.407 9.14175L14.132 8.94175C14.032 8.85842 13.9695 8.75842 13.9445 8.64175C13.9195 8.52508 13.9487 8.40842 14.032 8.29175L14.057 8.21675C14.1363 8.11675 14.2308 8.05008 14.3405 8.01675C14.4502 7.98342 14.564 8.00008 14.682 8.06675L14.957 8.21675L15.307 7.96675C15.4237 7.88342 15.5403 7.80842 15.657 7.74175L15.682 7.46675C15.6987 7.33342 15.7528 7.22508 15.8445 7.14175C15.9362 7.05842 16.0487 7.01675 16.182 7.01675H16.232C16.3613 7.01675 16.4725 7.06258 16.5655 7.15425C16.6585 7.24592 16.7137 7.35842 16.731 7.49175L16.757 7.74175C16.8737 7.80742 16.9893 7.88217 17.104 7.966C17.2187 8.04983 17.3363 8.13342 17.457 8.21675L17.732 8.06675C17.8487 8.00008 17.9612 7.98342 18.0695 8.01675C18.1778 8.05008 18.2737 8.11675 18.357 8.21675L18.382 8.26675C18.4613 8.38342 18.4895 8.50425 18.4665 8.62925C18.4435 8.75425 18.382 8.85842 18.282 8.94175L18.007 9.14175C18.0363 9.20842 18.052 9.27092 18.054 9.32925C18.056 9.38758 18.057 9.45008 18.057 9.51675C18.057 9.58342 18.056 9.64592 18.054 9.70425C18.052 9.76258 18.0363 9.82508 18.007 9.89175L18.282 10.0918C18.382 10.1751 18.4435 10.2751 18.4665 10.3918C18.4895 10.5084 18.4603 10.6251 18.379 10.7418L18.357 10.8168C18.2737 10.9168 18.1778 10.9834 18.0695 11.0168C17.9612 11.0501 17.8487 11.0334 17.732 10.9668L17.457 10.8168C17.357 10.9001 17.2445 10.9834 17.1195 11.0668C16.9945 11.1501 16.8737 11.2251 16.757 11.2918L16.731 11.5668C16.7137 11.7001 16.6585 11.8084 16.5655 11.8918C16.4725 11.9751 16.3613 12.0168 16.232 12.0168H16.182C16.0487 12.0168 15.9362 11.9709 15.8445 11.8793C15.7528 11.7876 15.6987 11.6751 15.682 11.5418ZM16.207 10.4668C16.4737 10.4668 16.6987 10.3751 16.882 10.1918C17.0653 10.0084 17.157 9.78342 17.157 9.51675C17.157 9.25008 17.0653 9.02508 16.882 8.84175C16.6987 8.65842 16.4727 8.56675 16.204 8.56675C15.9353 8.56675 15.7103 8.65842 15.529 8.84175C15.3477 9.02508 15.257 9.25008 15.257 9.51675C15.257 9.78342 15.3477 10.0084 15.529 10.1918C15.7103 10.3751 15.9363 10.4668 16.207 10.4668ZM18.337 6.2L18.212 5.675C18.0453 5.60833 17.8745 5.51667 17.6995 5.4C17.5245 5.28333 17.3787 5.15833 17.262 5.025L16.562 5.2765C16.4453 5.31283 16.3328 5.31333 16.2245 5.278C16.1162 5.24267 16.0287 5.175 15.962 5.075L15.862 4.925C15.7953 4.80833 15.7745 4.69167 15.7995 4.575C15.8245 4.45833 15.887 4.35833 15.987 4.275L16.537 3.85C16.5037 3.76667 16.4745 3.675 16.4495 3.575C16.4245 3.475 16.412 3.375 16.412 3.275C16.412 3.175 16.4245 3.076 16.4495 2.978C16.4745 2.88 16.5037 2.78733 16.537 2.7L15.987 2.275C15.887 2.19567 15.8245 2.09292 15.7995 1.96675C15.7745 1.84075 15.7953 1.72733 15.862 1.6265L15.962 1.5C16.0287 1.4 16.1162 1.32917 16.2245 1.2875C16.3328 1.24583 16.4453 1.24167 16.562 1.275L17.262 1.525C17.3787 1.39567 17.5245 1.26775 17.6995 1.14125C17.8745 1.01475 18.0453 0.926 18.212 0.875L18.337 0.35C18.3703 0.25 18.4287 0.166667 18.512 0.1C18.5953 0.0333333 18.687 0 18.787 0H19.037C19.137 0 19.2287 0.0333333 19.312 0.1C19.3953 0.166667 19.4537 0.25 19.487 0.35L19.612 0.875C19.7787 0.925 19.9495 1.0135 20.1245 1.1405C20.2995 1.2675 20.4453 1.39567 20.562 1.525L21.262 1.275C21.3787 1.24167 21.4912 1.24167 21.5995 1.275C21.7078 1.30833 21.7953 1.375 21.862 1.475L21.962 1.625C22.0287 1.74167 22.0495 1.85933 22.0245 1.978C21.9995 2.09667 21.937 2.19567 21.837 2.275L21.287 2.7C21.3203 2.78733 21.3495 2.88042 21.3745 2.97925C21.3995 3.07825 21.412 3.17683 21.412 3.275C21.412 3.375 21.3995 3.475 21.3745 3.575C21.3495 3.675 21.3203 3.76667 21.287 3.85L21.837 4.275C21.937 4.35833 21.9995 4.4625 22.0245 4.5875C22.0495 4.7125 22.0287 4.825 21.962 4.925L21.862 5.05C21.7953 5.15 21.7078 5.22183 21.5995 5.2655C21.4912 5.30917 21.3787 5.31283 21.262 5.2765L20.562 5.025C20.4453 5.15833 20.2995 5.28333 20.1245 5.4C19.9495 5.51667 19.7787 5.60833 19.612 5.675L19.487 6.2C19.4537 6.3 19.3953 6.38333 19.312 6.45C19.2287 6.51667 19.137 6.55 19.037 6.55H18.787C18.687 6.55 18.5953 6.51667 18.512 6.45C18.4287 6.38333 18.3703 6.3 18.337 6.2ZM18.912 4.725C19.3287 4.725 19.6745 4.5875 19.9495 4.3125C20.2245 4.0375 20.362 3.69167 20.362 3.275C20.362 2.85833 20.2245 2.5125 19.9495 2.2375C19.6745 1.9625 19.3287 1.825 18.912 1.825C18.4953 1.825 18.1495 1.9625 17.8745 2.2375C17.5995 2.5125 17.462 2.85833 17.462 3.275C17.462 3.69167 17.5995 4.0375 17.8745 4.3125C18.1495 4.5875 18.4953 4.725 18.912 4.725Z"/>
</mask>
<path d="M0 17.5488V15.945C0 15.3287 0.146333 14.8235 0.439 14.4295C0.7315 14.0355 1.12142 13.7218 1.60875 13.4885C2.50875 13.0552 3.48217 12.6948 4.529 12.4075C5.576 12.1202 6.7505 11.9765 8.0525 11.9765C9.3545 11.9765 10.5279 12.1182 11.5728 12.4015C12.6178 12.6848 13.5922 13.0432 14.4962 13.4765C14.9796 13.7138 15.3675 14.0309 15.66 14.4277C15.9527 14.8244 16.099 15.3302 16.099 15.945V17.5488C16.099 17.7934 16.0182 17.9965 15.8565 18.158C15.695 18.3197 15.4919 18.4005 15.2473 18.4005H0.85175C0.607083 18.4005 0.404 18.3197 0.2425 18.158C0.0808334 17.9965 0 17.7934 0 17.5488ZM1.70925 16.6913H14.3958V15.963C14.3958 15.713 14.3249 15.5118 14.1833 15.3595C14.0416 15.2072 13.8708 15.0893 13.6708 15.006C12.9541 14.6893 12.1581 14.3891 11.2828 14.1053C10.4073 13.8216 9.3305 13.6798 8.0525 13.6798C6.77433 13.6798 5.69758 13.8226 4.82225 14.1083C3.94692 14.3941 3.15092 14.6938 2.43425 15.0073C2.23025 15.0898 2.05842 15.2072 1.91875 15.3595C1.77908 15.5118 1.70925 15.713 1.70925 15.963V16.6913ZM8.0525 10.4765C6.91067 10.4765 5.97475 10.1048 5.24475 9.36125C4.51492 8.61775 4.15 7.69967 4.15 6.607H3.9C3.75417 6.607 3.62742 6.553 3.51975 6.445C3.41208 6.33717 3.35825 6.21008 3.35825 6.06375C3.35825 5.91925 3.41208 5.793 3.51975 5.685C3.62742 5.57717 3.75417 5.52325 3.9 5.52325H4.15C4.15 4.83675 4.32767 4.21583 4.683 3.6605C5.03817 3.10533 5.50433 2.663 6.0815 2.3335V3.31225C6.0815 3.41775 6.11858 3.507 6.19275 3.58C6.26675 3.653 6.35667 3.6895 6.4625 3.6895C6.57517 3.6895 6.66683 3.65317 6.7375 3.5805C6.80817 3.50783 6.8435 3.41975 6.8435 3.31625V2.0205C6.97817 1.99117 7.163 1.963 7.398 1.936C7.63283 1.909 7.8595 1.8955 8.078 1.8955C8.29233 1.8955 8.51617 1.909 8.7495 1.936C8.98283 1.963 9.16775 1.99108 9.30425 2.02025V3.31625C9.30425 3.41975 9.33975 3.50783 9.41075 3.5805C9.48192 3.65317 9.57583 3.6895 9.6925 3.6895C9.7965 3.6895 9.886 3.653 9.961 3.58C10.036 3.507 10.0735 3.4185 10.0735 3.3145V2.3335C10.6467 2.663 11.1025 3.10525 11.441 3.66025C11.7797 4.21542 11.949 4.83642 11.949 5.52325H12.199C12.3448 5.52325 12.4716 5.57708 12.5792 5.68475C12.6869 5.79225 12.7408 5.91883 12.7408 6.0645C12.7408 6.21017 12.6869 6.337 12.5792 6.445C12.4716 6.553 12.3448 6.607 12.199 6.607H11.949C11.949 7.7015 11.585 8.62008 10.857 9.36275C10.1292 10.1053 9.19433 10.4765 8.0525 10.4765ZM8.05525 8.76725C8.73542 8.76725 9.2705 8.56417 9.6605 8.158C10.0507 7.752 10.2457 7.223 10.2457 6.571H5.85925C5.85925 7.22183 6.054 7.75058 6.4435 8.15725C6.83283 8.56392 7.37008 8.76725 8.05525 8.76725ZM15.682 11.5418L15.657 11.2918C15.5403 11.2251 15.4193 11.1501 15.2938 11.0668C15.1681 10.9834 15.0549 10.8981 14.9542 10.8108L14.6772 10.9608C14.5584 11.0274 14.4448 11.0443 14.3365 11.0115C14.228 10.9787 14.1345 10.913 14.056 10.8145L14.032 10.7668C13.9487 10.6501 13.9195 10.5293 13.9445 10.4043C13.9695 10.2793 14.032 10.1751 14.132 10.0918L14.407 9.89175C14.3737 9.82508 14.357 9.76258 14.357 9.70425V9.32925C14.357 9.27092 14.3737 9.20842 14.407 9.14175L14.132 8.94175C14.032 8.85842 13.9695 8.75842 13.9445 8.64175C13.9195 8.52508 13.9487 8.40842 14.032 8.29175L14.057 8.21675C14.1363 8.11675 14.2308 8.05008 14.3405 8.01675C14.4502 7.98342 14.564 8.00008 14.682 8.06675L14.957 8.21675L15.307 7.96675C15.4237 7.88342 15.5403 7.80842 15.657 7.74175L15.682 7.46675C15.6987 7.33342 15.7528 7.22508 15.8445 7.14175C15.9362 7.05842 16.0487 7.01675 16.182 7.01675H16.232C16.3613 7.01675 16.4725 7.06258 16.5655 7.15425C16.6585 7.24592 16.7137 7.35842 16.731 7.49175L16.757 7.74175C16.8737 7.80742 16.9893 7.88217 17.104 7.966C17.2187 8.04983 17.3363 8.13342 17.457 8.21675L17.732 8.06675C17.8487 8.00008 17.9612 7.98342 18.0695 8.01675C18.1778 8.05008 18.2737 8.11675 18.357 8.21675L18.382 8.26675C18.4613 8.38342 18.4895 8.50425 18.4665 8.62925C18.4435 8.75425 18.382 8.85842 18.282 8.94175L18.007 9.14175C18.0363 9.20842 18.052 9.27092 18.054 9.32925C18.056 9.38758 18.057 9.45008 18.057 9.51675C18.057 9.58342 18.056 9.64592 18.054 9.70425C18.052 9.76258 18.0363 9.82508 18.007 9.89175L18.282 10.0918C18.382 10.1751 18.4435 10.2751 18.4665 10.3918C18.4895 10.5084 18.4603 10.6251 18.379 10.7418L18.357 10.8168C18.2737 10.9168 18.1778 10.9834 18.0695 11.0168C17.9612 11.0501 17.8487 11.0334 17.732 10.9668L17.457 10.8168C17.357 10.9001 17.2445 10.9834 17.1195 11.0668C16.9945 11.1501 16.8737 11.2251 16.757 11.2918L16.731 11.5668C16.7137 11.7001 16.6585 11.8084 16.5655 11.8918C16.4725 11.9751 16.3613 12.0168 16.232 12.0168H16.182C16.0487 12.0168 15.9362 11.9709 15.8445 11.8793C15.7528 11.7876 15.6987 11.6751 15.682 11.5418ZM16.207 10.4668C16.4737 10.4668 16.6987 10.3751 16.882 10.1918C17.0653 10.0084 17.157 9.78342 17.157 9.51675C17.157 9.25008 17.0653 9.02508 16.882 8.84175C16.6987 8.65842 16.4727 8.56675 16.204 8.56675C15.9353 8.56675 15.7103 8.65842 15.529 8.84175C15.3477 9.02508 15.257 9.25008 15.257 9.51675C15.257 9.78342 15.3477 10.0084 15.529 10.1918C15.7103 10.3751 15.9363 10.4668 16.207 10.4668ZM18.337 6.2L18.212 5.675C18.0453 5.60833 17.8745 5.51667 17.6995 5.4C17.5245 5.28333 17.3787 5.15833 17.262 5.025L16.562 5.2765C16.4453 5.31283 16.3328 5.31333 16.2245 5.278C16.1162 5.24267 16.0287 5.175 15.962 5.075L15.862 4.925C15.7953 4.80833 15.7745 4.69167 15.7995 4.575C15.8245 4.45833 15.887 4.35833 15.987 4.275L16.537 3.85C16.5037 3.76667 16.4745 3.675 16.4495 3.575C16.4245 3.475 16.412 3.375 16.412 3.275C16.412 3.175 16.4245 3.076 16.4495 2.978C16.4745 2.88 16.5037 2.78733 16.537 2.7L15.987 2.275C15.887 2.19567 15.8245 2.09292 15.7995 1.96675C15.7745 1.84075 15.7953 1.72733 15.862 1.6265L15.962 1.5C16.0287 1.4 16.1162 1.32917 16.2245 1.2875C16.3328 1.24583 16.4453 1.24167 16.562 1.275L17.262 1.525C17.3787 1.39567 17.5245 1.26775 17.6995 1.14125C17.8745 1.01475 18.0453 0.926 18.212 0.875L18.337 0.35C18.3703 0.25 18.4287 0.166667 18.512 0.1C18.5953 0.0333333 18.687 0 18.787 0H19.037C19.137 0 19.2287 0.0333333 19.312 0.1C19.3953 0.166667 19.4537 0.25 19.487 0.35L19.612 0.875C19.7787 0.925 19.9495 1.0135 20.1245 1.1405C20.2995 1.2675 20.4453 1.39567 20.562 1.525L21.262 1.275C21.3787 1.24167 21.4912 1.24167 21.5995 1.275C21.7078 1.30833 21.7953 1.375 21.862 1.475L21.962 1.625C22.0287 1.74167 22.0495 1.85933 22.0245 1.978C21.9995 2.09667 21.937 2.19567 21.837 2.275L21.287 2.7C21.3203 2.78733 21.3495 2.88042 21.3745 2.97925C21.3995 3.07825 21.412 3.17683 21.412 3.275C21.412 3.375 21.3995 3.475 21.3745 3.575C21.3495 3.675 21.3203 3.76667 21.287 3.85L21.837 4.275C21.937 4.35833 21.9995 4.4625 22.0245 4.5875C22.0495 4.7125 22.0287 4.825 21.962 4.925L21.862 5.05C21.7953 5.15 21.7078 5.22183 21.5995 5.2655C21.4912 5.30917 21.3787 5.31283 21.262 5.2765L20.562 5.025C20.4453 5.15833 20.2995 5.28333 20.1245 5.4C19.9495 5.51667 19.7787 5.60833 19.612 5.675L19.487 6.2C19.4537 6.3 19.3953 6.38333 19.312 6.45C19.2287 6.51667 19.137 6.55 19.037 6.55H18.787C18.687 6.55 18.5953 6.51667 18.512 6.45C18.4287 6.38333 18.3703 6.3 18.337 6.2ZM18.912 4.725C19.3287 4.725 19.6745 4.5875 19.9495 4.3125C20.2245 4.0375 20.362 3.69167 20.362 3.275C20.362 2.85833 20.2245 2.5125 19.9495 2.2375C19.6745 1.9625 19.3287 1.825 18.912 1.825C18.4953 1.825 18.1495 1.9625 17.8745 2.2375C17.5995 2.5125 17.462 2.85833 17.462 3.275C17.462 3.69167 17.5995 4.0375 17.8745 4.3125C18.1495 4.5875 18.4953 4.725 18.912 4.725Z" fill="var(--fill-0, #2DA2DB)" stroke="var(--stroke-0, #2DA2DB)" stroke-width="0.1" mask="url(#path-1-inside-1_0_454)"/>
</g>
</svg>
