<svg preserveAspectRatio="none" width="100%" height="100%" overflow="visible" style="display: block;" viewBox="0 0 40 40" fill="none" xmlns="http://www.w3.org/2000/svg">
<g id="brain-cog">
<path id="Vector" d="M18.0867 24.62L17.4483 26.1583M18.0867 15.3799L17.4483 13.8416M21.9132 24.62L22.5499 26.16M22.5516 13.8416L21.9132 15.3799M24.62 18.0867L26.1583 17.4483M24.62 21.9132L26.1583 22.5516M10.6699 10.8333C10.266 10.1345 10.0374 9.34821 10.0034 8.54171C9.96489 7.62929 10.177 6.72376 10.6167 5.92337C11.1509 4.94997 11.9939 4.18207 13.0128 3.74075C14.0317 3.29944 15.1684 3.20983 16.2439 3.48604C17.3193 3.76225 18.2722 4.38858 18.9523 5.26626C19.6324 6.14394 20.0011 7.22303 20.0001 8.33337C20 7.56641 20.1764 6.80973 20.5156 6.12185C20.8548 5.43398 21.3477 4.83335 21.9562 4.36645C22.5646 3.89954 23.2723 3.57887 24.0246 3.42923C24.7768 3.2796 25.5533 3.30502 26.2942 3.50353C27.035 3.70203 27.7202 4.0683 28.2968 4.574C28.8735 5.0797 29.326 5.71128 29.6195 6.41986C29.913 7.12845 30.0395 7.89505 29.9893 8.66036C29.9391 9.42568 29.7136 10.1692 29.3301 10.8334M10.0034 8.54171C9.02364 8.79373 8.1141 9.26543 7.34366 9.92106C6.57322 10.5767 5.9621 11.3991 5.55658 12.3259C5.15107 13.2527 4.9618 14.2597 5.00312 15.2705C5.04444 16.2813 5.31526 17.2694 5.79506 18.16M29.9967 8.54167C30.9765 8.79369 31.886 9.26539 32.6565 9.92102C33.4269 10.5767 34.038 11.399 34.4436 12.3259C34.8491 13.2527 35.0383 14.2596 34.997 15.2704C34.9557 16.2812 34.6849 17.2694 34.2051 18.16M32.5081 17.1566C33.9401 17.7382 35.1255 18.7992 35.8616 20.1583C36.5977 21.5173 36.8387 23.0899 36.5434 24.607C36.2481 26.1241 35.4348 27.4915 34.2427 28.4752C33.0506 29.459 31.5537 29.9979 30.0081 29.9999M6.72005 29.1382C6.51941 30.6677 6.85542 32.2195 7.6708 33.529C8.48619 34.8386 9.73048 35.8248 11.1916 36.3196C12.6527 36.8145 14.2402 36.7873 15.6835 36.2427C17.1269 35.6981 18.3367 34.6699 19.1067 33.3332C19.4067 32.8148 20.5934 32.8148 20.8934 33.3332C21.6634 34.6696 22.8731 35.6977 24.3162 36.2422C25.7593 36.7867 27.3465 36.814 28.8075 36.3194C30.2684 35.8248 31.5127 34.839 32.3282 33.5298C33.1438 32.2207 33.4802 30.6692 33.2801 29.1398M7.50007 17.1517C6.06488 17.7312 4.87608 18.7921 4.13755 20.1523C3.39902 21.5126 3.15679 23.0874 3.45241 24.6067C3.74803 26.126 4.56308 27.495 5.75775 28.4791C6.95243 29.4632 8.45228 30.0009 10.0001 30M15.3799 18.0867L13.8416 17.4483M15.3799 21.9132L13.8416 22.5516M25 20C25 22.7614 22.7614 25 20 25C17.2386 25 15 22.7614 15 20C15 17.2386 17.2386 15 20 15C22.7614 15 25 17.2386 25 20Z" stroke="var(--stroke-0, #2DA2DB)" stroke-width="3" stroke-linecap="round" stroke-linejoin="round"/>
</g>
</svg>
