<svg preserveAspectRatio="none" width="100%" height="100%" overflow="visible" style="display: block;" viewBox="0 0 40 40" fill="none" xmlns="http://www.w3.org/2000/svg">
<g id="biohazard">
<path id="Vector" d="M20 23.1665C21.8409 23.1665 23.3333 21.6741 23.3333 19.8332C23.3333 17.9922 21.8409 16.4998 20 16.4998C18.1591 16.4998 16.6667 17.9922 16.6667 19.8332C16.6667 21.6741 18.1591 23.1665 20 23.1665ZM20 23.1665L20.0001 25.8333M11.1667 5.6665C9.66667 9.83317 11.1667 14.3332 14.8333 16.8332M14.8333 16.8332C10.8333 14.9998 6.16667 15.9998 3.33333 19.3332M14.8333 16.8332L17.1667 18.1668M28.8333 5.6665C30.3333 9.83317 28.8333 14.3332 25.1666 16.8332M25.1666 16.8332C29.1666 14.8332 33.8333 15.8332 36.6666 19.3332M25.1666 16.8332L22.8333 18.1668M27.8334 34.6667C23.5001 34 20.1667 30.3333 20.0001 25.8333M20.0001 25.8333C19.6667 30.1667 16.5001 33.8333 12.1667 34.5M22.5 9C20.8333 8.66667 19.1667 8.66667 17.5 9M28.3333 27.3332C29.5 26.1665 30.3333 24.6665 30.8333 23.1665M9.16667 23.1665C9.66667 24.6665 10.5 26.1665 11.6667 27.3332" stroke="var(--stroke-0, #1E729C)" stroke-width="2" stroke-linecap="round" stroke-linejoin="round"/>
</g>
</svg>
