<svg preserveAspectRatio="none" width="100%" height="100%" overflow="visible" style="display: block;" viewBox="0 0 20 20" fill="none" xmlns="http://www.w3.org/2000/svg">
<g id="bottle-wine">
<path id="Vector" d="M14.1667 10.8333C14.1667 9.75148 13.8158 8.69881 13.1667 7.83333L12.6667 7.16667C12.0176 6.30119 11.6667 5.24852 11.6667 4.16667V2.5C11.6667 2.27899 11.5789 2.06702 11.4226 1.91074C11.2663 1.75446 11.0543 1.66667 10.8333 1.66667H9.16667C8.94565 1.66667 8.73369 1.75446 8.57741 1.91074C8.42113 2.06702 8.33333 2.27899 8.33333 2.5V4.16667C8.33333 5.24852 7.98244 6.30119 7.33333 7.16667L6.83333 7.83333C6.18422 8.69881 5.83333 9.75148 5.83333 10.8333V17.5C5.83333 17.721 5.92113 17.933 6.07741 18.0893C6.23369 18.2455 6.44565 18.3333 6.66667 18.3333H13.3333C13.5543 18.3333 13.7663 18.2455 13.9226 18.0893C14.0789 17.933 14.1667 17.721 14.1667 17.5V10.8333ZM14.1667 10.8333H10.8333C10.6123 10.8333 10.4004 10.9211 10.2441 11.0774C10.0878 11.2337 10 11.4457 10 11.6667V14.1667C10 14.3877 10.0878 14.5996 10.2441 14.7559C10.4004 14.9122 10.6123 15 10.8333 15H14.1667" stroke="var(--stroke-0, #1E729C)" stroke-width="1.5" stroke-linecap="round" stroke-linejoin="round"/>
</g>
</svg>
