<svg preserveAspectRatio="none" width="100%" height="100%" overflow="visible" style="display: block;" viewBox="0 0 40 40" fill="none" xmlns="http://www.w3.org/2000/svg">
<g id="signal_disconnected">
<path id="Vector" d="M31.1793 5.5129C31.4094 5.27622 31.6742 5.18812 31.9761 5.24533C32.2437 5.29597 32.4827 5.41557 32.6939 5.6047L32.7828 5.68966C34.1203 7.20708 35.1461 8.90974 35.8599 10.7981C36.5735 12.6865 36.9302 14.6427 36.9302 16.6662C36.9302 18.6697 36.5717 20.6042 35.8541 22.469C35.1361 24.3343 34.1421 26.0474 32.8726 27.6076C32.6691 27.851 32.4178 27.9805 32.1177 27.9973C31.8179 28.014 31.5496 27.905 31.3121 27.6672C31.0812 27.4366 30.9717 27.1658 30.982 26.8547C30.9924 26.5423 31.0992 26.264 31.3033 26.0197H31.3043C32.3691 24.6912 33.2038 23.2331 33.8091 21.6467C34.4147 20.0599 34.7183 18.3992 34.7183 16.6662C34.7183 14.9201 34.4191 13.2415 33.8209 11.6311C33.2226 10.0206 32.3562 8.54443 31.2222 7.20236L31.2213 7.20138L31.1392 7.10958C30.9607 6.89193 30.866 6.64064 30.8541 6.35568C30.8406 6.03059 30.9485 5.7502 31.1793 5.5129ZM28.0103 9.16232C28.3104 9.17591 28.5618 9.30361 28.7652 9.54708C29.5623 10.5515 30.1789 11.6635 30.6158 12.883C31.0525 14.1024 31.271 15.3637 31.2711 16.6662C31.2711 17.9277 31.0632 19.1496 30.647 20.3313C30.2306 21.5134 29.654 22.6115 28.9185 23.6242C28.7367 23.873 28.4918 24.0042 28.1812 24.0178C27.8705 24.0313 27.5964 23.9195 27.3589 23.6818C27.1285 23.4582 27.0299 23.1987 27.0601 22.9026C27.0908 22.6028 27.188 22.3168 27.3521 22.0442C27.9103 21.2629 28.3324 20.4132 28.6187 19.4963C28.9053 18.5791 29.0484 17.6354 29.0484 16.6662C29.0484 15.656 28.8946 14.6805 28.5875 13.7395C28.2805 12.7985 27.8173 11.9272 27.1968 11.1262L27.1959 11.1252L27.1236 11.0344C26.9662 10.8181 26.8837 10.5734 26.8746 10.3C26.8643 9.98894 26.9737 9.71843 27.2047 9.48751L27.2037 9.48654C27.4414 9.25559 27.7106 9.14878 28.0103 9.16232ZM19.9996 12.7307C21.095 12.7307 22.0249 13.1125 22.7896 13.8772C23.5542 14.6417 23.936 15.571 23.9361 16.6662C23.9361 16.9493 23.8966 17.2364 23.817 17.5266C23.7374 17.8174 23.6319 18.0877 23.5006 18.3371L23.4996 18.3381C23.3774 18.5863 23.1855 18.7308 22.9214 18.7736C22.6579 18.8166 22.4189 18.7319 22.2027 18.5158L18.1509 14.4641C17.935 14.248 17.8484 14.0034 17.8882 13.7287C17.9282 13.4541 18.0749 13.2538 18.3297 13.1252V13.1242C18.5787 12.9931 18.8488 12.8949 19.1392 12.8293C19.4295 12.7634 19.7162 12.7307 19.9996 12.7307ZM18.605 22.1838L18.5982 22.176L11.2164 14.7942L11.2027 14.8313C11.0909 15.1321 11.0207 15.4418 10.9927 15.76C10.9649 16.0767 10.9517 16.3986 10.9517 16.7258V16.7268C10.9584 17.7239 11.1153 18.6969 11.4224 19.6447C11.7294 20.5932 12.1893 21.4584 12.8033 22.2395H12.8043C13.0087 22.4843 13.1151 22.7558 13.1256 23.0539C13.1358 23.3506 13.0265 23.6138 12.7955 23.8449C12.5576 24.0763 12.2912 24.1863 11.9947 24.176C11.7348 24.1667 11.5111 24.0687 11.3228 23.8811L11.2447 23.7961C10.441 22.7918 9.82117 21.678 9.38434 20.4553C8.94753 19.2324 8.72907 17.9689 8.72907 16.6662C8.72909 16.0154 8.77916 15.3856 8.87946 14.7766C8.97973 14.168 9.14335 13.566 9.37164 12.9709L9.3775 12.9563L9.36676 12.9445L6.80329 10.3908L6.77789 10.3654L6.76325 10.3977C6.29026 11.3781 5.92618 12.3951 5.67243 13.4485C5.4187 14.5018 5.29258 15.5745 5.29254 16.6662C5.29254 18.4191 5.5892 20.1 6.18414 21.7072C6.77907 23.3144 7.64385 24.7858 8.77789 26.1213L8.77887 26.1223C9.01041 26.3669 9.13243 26.652 9.14606 26.9777C9.15953 27.3026 9.04844 27.5832 8.8111 27.8205C8.58104 28.0505 8.31772 28.1355 8.01911 28.0783C7.75461 28.0277 7.51706 27.908 7.30621 27.719L7.21735 27.634C5.87964 26.1164 4.85557 24.4147 4.14508 22.5295C3.43457 20.6444 3.07965 18.6898 3.07965 16.6662C3.07969 15.274 3.24747 13.9098 3.58356 12.5735C3.91972 11.2366 4.41991 9.94434 5.08454 8.69747L5.09332 8.68087L5.08063 8.66818L3.15485 6.73361C2.89636 6.47484 2.76662 6.16894 2.76325 5.81564C2.75998 5.46231 2.88986 5.15645 3.15485 4.89767L3.15582 4.89669C3.40775 4.6384 3.70968 4.51004 4.06305 4.50997C4.41672 4.50997 4.72221 4.63887 4.98102 4.89767L35.0923 35.009C35.3446 35.2613 35.4735 35.5583 35.48 35.9016C35.4865 36.2441 35.3617 36.5442 35.1031 36.8029C34.8443 37.0615 34.5378 37.1906 34.1841 37.1906C33.875 37.1905 33.6024 37.0917 33.3658 36.8938L33.2672 36.8029L21.4371 25.0246L21.3941 24.9826V33.7502C21.3941 34.1514 21.2619 34.4829 20.9976 34.7473C20.7332 35.0117 20.401 35.1447 19.9996 35.1447C19.5984 35.1446 19.2668 35.0116 19.0025 34.7473C18.7382 34.4829 18.6051 34.1514 18.605 33.7502V22.1838Z" fill="var(--fill-0, #F4813E)" stroke="var(--stroke-0, #F4813E)" stroke-width="0.05"/>
</g>
</svg>
