<svg width="31" height="35" viewBox="0 0 31 35" fill="none" xmlns="http://www.w3.org/2000/svg">
<mask id="path-1-inside-1_12621_2194" fill="white">
<path d="M13.8696 30.435V17.8125L2.83875 11.4383V24.0604L13.8696 30.435ZM16.6387 30.435L27.6596 24.0604V11.3967L16.6387 17.8125V30.435ZM13.8296 33.6783L1.41958 26.53C0.970694 26.2744 0.621945 25.925 0.373334 25.4817C0.124445 25.0383 0 24.5658 0 24.0642V9.9975C0 9.49583 0.124445 9.02333 0.373334 8.58C0.621945 8.13667 0.970694 7.78722 1.41958 7.53167L13.8296 0.373332C14.2718 0.124443 14.745 0 15.2492 0C15.7533 0 16.2265 0.124443 16.6688 0.373332L29.0787 7.53167C29.5276 7.78722 29.8781 8.13667 30.13 8.58C30.3822 9.02333 30.5083 9.49583 30.5083 9.9975V24.0642C30.5083 24.5658 30.3822 25.0383 30.13 25.4817C29.8781 25.925 29.5276 26.2744 29.0787 26.53L16.6688 33.6783C16.2265 33.9339 15.7533 34.0617 15.2492 34.0617C14.745 34.0617 14.2718 33.9339 13.8296 33.6783ZM22.0625 11.4746L26.1133 9.12584L15.2492 2.83875L11.2083 5.1775L22.0625 11.4746ZM15.2492 15.4546L19.3833 13.0325L8.4775 6.75542L4.35333 9.12584L15.2492 15.4546Z"/>
</mask>
<path d="M13.8696 30.435V17.8125L2.83875 11.4383V24.0604L13.8696 30.435ZM16.6387 30.435L27.6596 24.0604V11.3967L16.6387 17.8125V30.435ZM13.8296 33.6783L1.41958 26.53C0.970694 26.2744 0.621945 25.925 0.373334 25.4817C0.124445 25.0383 0 24.5658 0 24.0642V9.9975C0 9.49583 0.124445 9.02333 0.373334 8.58C0.621945 8.13667 0.970694 7.78722 1.41958 7.53167L13.8296 0.373332C14.2718 0.124443 14.745 0 15.2492 0C15.7533 0 16.2265 0.124443 16.6688 0.373332L29.0787 7.53167C29.5276 7.78722 29.8781 8.13667 30.13 8.58C30.3822 9.02333 30.5083 9.49583 30.5083 9.9975V24.0642C30.5083 24.5658 30.3822 25.0383 30.13 25.4817C29.8781 25.925 29.5276 26.2744 29.0787 26.53L16.6688 33.6783C16.2265 33.9339 15.7533 34.0617 15.2492 34.0617C14.745 34.0617 14.2718 33.9339 13.8296 33.6783ZM22.0625 11.4746L26.1133 9.12584L15.2492 2.83875L11.2083 5.1775L22.0625 11.4746ZM15.2492 15.4546L19.3833 13.0325L8.4775 6.75542L4.35333 9.12584L15.2492 15.4546Z" fill="#2DA2DB"/>
<path d="M13.8696 30.435L12.3685 33.0325L16.8696 35.6336V30.435H13.8696ZM13.8696 17.8125H16.8696V16.0812L15.3706 15.215L13.8696 17.8125ZM2.83875 11.4383L4.33972 8.84082L-0.16125 6.23993V11.4383H2.83875ZM2.83875 24.0604H-0.16125V25.7917L1.3377 26.6579L2.83875 24.0604ZM16.6388 30.435H13.6388V35.6359L18.1408 33.0319L16.6388 30.435ZM27.6596 24.0604L29.1616 26.6573L30.6596 25.7909V24.0604H27.6596ZM27.6596 11.3967H30.6596V6.17887L26.1502 8.804L27.6596 11.3967ZM16.6388 17.8125L15.1294 15.2198L13.6388 16.0876V17.8125H16.6388ZM13.8296 33.6783L15.3306 31.0809L15.327 31.0788L13.8296 33.6783ZM1.41958 26.53L2.91698 23.9304L2.91041 23.9266L2.90383 23.9229L1.41958 26.53ZM0.373334 25.4817L2.98998 24.0143L2.98928 24.0131L0.373334 25.4817ZM0.373334 8.58L2.98929 10.0486L2.98998 10.0474L0.373334 8.58ZM1.41958 7.53167L2.90383 10.1388L2.9112 10.1346L2.91855 10.1303L1.41958 7.53167ZM13.8296 0.373332L12.3582 -2.24104L12.3444 -2.23327L12.3306 -2.22534L13.8296 0.373332ZM16.6688 0.373332L18.1677 -2.22534L18.154 -2.23327L18.1402 -2.24104L16.6688 0.373332ZM29.0787 7.53167L27.5798 10.1303L27.5871 10.1346L27.5945 10.1388L29.0787 7.53167ZM30.13 8.58L27.5218 10.0623L27.5225 10.0635L30.13 8.58ZM30.13 25.4817L27.5225 23.9982L27.5218 23.9994L30.13 25.4817ZM29.0787 26.53L27.5945 23.9229L27.5879 23.9266L27.5814 23.9304L29.0787 26.53ZM16.6688 33.6783L15.1714 31.0788L15.1677 31.0809L16.6688 33.6783ZM22.0625 11.4746L20.557 14.0695L22.0621 14.9426L23.5673 14.0699L22.0625 11.4746ZM26.1133 9.12584L27.6181 11.7211L32.0985 9.12333L27.616 6.52928L26.1133 9.12584ZM15.2492 2.83875L16.7518 0.242192L15.2491 -0.627436L13.7464 0.242282L15.2492 2.83875ZM11.2083 5.1775L9.70555 2.58103L5.22476 5.17442L9.70288 7.77242L11.2083 5.1775ZM15.2492 15.4546L13.7424 18.0487L15.2557 18.9277L16.7657 18.0431L15.2492 15.4546ZM19.3833 13.0325L20.8998 15.621L25.3573 13.0095L20.8799 10.4324L19.3833 13.0325ZM8.4775 6.75542L9.97403 4.15534L8.47855 3.29459L6.98255 4.15443L8.4775 6.75542ZM4.35333 9.12584L2.85838 6.52485L-1.64316 9.11217L2.84655 11.72L4.35333 9.12584ZM13.8696 30.435H16.8696V17.8125H13.8696H10.8696V30.435H13.8696ZM13.8696 17.8125L15.3706 15.215L4.33972 8.84082L2.83875 11.4383L1.33778 14.0358L12.3686 20.41L13.8696 17.8125ZM2.83875 11.4383H-0.16125V24.0604H2.83875H5.83875V11.4383H2.83875ZM2.83875 24.0604L1.3377 26.6579L12.3685 33.0325L13.8696 30.435L15.3706 27.8375L4.3398 21.4629L2.83875 24.0604ZM16.6388 30.435L18.1408 33.0319L29.1616 26.6573L27.6596 24.0604L26.1575 21.4635L15.1367 27.8381L16.6388 30.435ZM27.6596 24.0604H30.6596V11.3967H27.6596H24.6596V24.0604H27.6596ZM27.6596 11.3967L26.1502 8.804L15.1294 15.2198L16.6388 17.8125L18.1481 20.4052L29.1689 13.9893L27.6596 11.3967ZM16.6388 17.8125H13.6388V30.435H16.6388H19.6388V17.8125H16.6388ZM13.8296 33.6783L15.327 31.0788L2.91698 23.9304L1.41958 26.53L-0.0778106 29.1296L12.3322 36.2779L13.8296 33.6783ZM1.41958 26.53L2.90383 23.9229C2.90253 23.9222 2.92034 23.9325 2.94478 23.957C2.96945 23.9818 2.98438 24.0043 2.98998 24.0143L0.373334 25.4817L-2.24332 26.949C-1.72336 27.8762 -0.979514 28.6163 -0.0646618 29.1371L1.41958 26.53ZM0.373334 25.4817L2.98928 24.0131C2.98631 24.0078 2.98641 24.0072 2.98805 24.0112C2.98971 24.0153 2.99211 24.022 2.9944 24.0307C2.9967 24.0394 2.99825 24.0478 2.99915 24.0548C3.00004 24.0618 3 24.0652 3 24.0642H0H-3C-3 25.0874 -2.73976 26.0647 -2.24262 26.9503L0.373334 25.4817ZM0 24.0642H3V9.9975H0H-3V24.0642H0ZM0 9.9975H3C3 9.99644 3.00004 9.99987 2.99915 10.0069C2.99825 10.0139 2.9967 10.0222 2.9944 10.0309C2.99211 10.0396 2.98971 10.0463 2.98805 10.0504C2.98641 10.0544 2.98631 10.0539 2.98928 10.0486L0.373334 8.58L-2.24262 7.1114C-2.73976 7.99692 -3 8.97427 -3 9.9975H0ZM0.373334 8.58L2.98998 10.0474C2.98438 10.0574 2.96945 10.0799 2.94478 10.1046C2.92034 10.1291 2.90253 10.1395 2.90383 10.1388L1.41958 7.53167L-0.0646618 4.92456C-0.979514 5.44539 -1.72336 6.18543 -2.24332 7.11264L0.373334 8.58ZM1.41958 7.53167L2.91855 10.1303L15.3286 2.972L13.8296 0.373332L12.3306 -2.22534L-0.079383 4.933L1.41958 7.53167ZM13.8296 0.373332L15.301 2.98771C15.3051 2.98538 15.3047 2.98593 15.2999 2.98787C15.2951 2.98983 15.288 2.99236 15.2792 2.99468C15.2703 2.997 15.2622 2.99848 15.2558 2.99931C15.2494 3.00012 15.2469 3 15.2492 3V0V-3C14.226 -3 13.2465 -2.74102 12.3582 -2.24104L13.8296 0.373332ZM15.2492 0V3C15.2515 3 15.249 3.00012 15.2426 2.99931C15.2361 2.99848 15.228 2.997 15.2192 2.99468C15.2103 2.99236 15.2032 2.98983 15.1984 2.98787C15.1936 2.98593 15.1932 2.98538 15.1973 2.98771L16.6688 0.373332L18.1402 -2.24104C17.2518 -2.74102 16.2723 -3 15.2492 -3V0ZM16.6688 0.373332L15.1698 2.972L27.5798 10.1303L29.0787 7.53167L30.5777 4.933L18.1677 -2.22534L16.6688 0.373332ZM29.0787 7.53167L27.5945 10.1388C27.5972 10.1403 27.5817 10.1315 27.5599 10.1097C27.5378 10.0877 27.5253 10.0685 27.5218 10.0623L30.13 8.58L32.7382 7.09775C32.216 6.17881 31.4745 5.44348 30.563 4.92456L29.0787 7.53167ZM30.13 8.58L27.5225 10.0635C27.5253 10.0684 27.5248 10.0683 27.5228 10.0634C27.5207 10.0584 27.5179 10.0506 27.5152 10.0405C27.5125 10.0304 27.5106 10.0206 27.5095 10.0119C27.5084 10.0032 27.5083 9.99811 27.5083 9.9975H30.5083H33.5083C33.5083 8.96664 33.2425 7.98404 32.7375 7.09651L30.13 8.58ZM30.5083 9.9975H27.5083V24.0642H30.5083H33.5083V9.9975H30.5083ZM30.5083 24.0642H27.5083C27.5083 24.0636 27.5084 24.0584 27.5095 24.0498C27.5106 24.0411 27.5125 24.0313 27.5152 24.0212C27.5179 24.0111 27.5207 24.0033 27.5228 23.9983C27.5248 23.9934 27.5253 23.9933 27.5225 23.9982L30.13 25.4817L32.7375 26.9652C33.2425 26.0776 33.5083 25.095 33.5083 24.0642H30.5083ZM30.13 25.4817L27.5218 23.9994C27.5253 23.9932 27.5378 23.974 27.5599 23.952C27.5817 23.9302 27.5972 23.9213 27.5945 23.9229L29.0787 26.53L30.563 29.1371C31.4745 28.6182 32.216 27.8829 32.7382 26.9639L30.13 25.4817ZM29.0787 26.53L27.5814 23.9304L15.1714 31.0788L16.6688 33.6783L18.1661 36.2779L30.5761 29.1296L29.0787 26.53ZM16.6688 33.6783L15.1677 31.0809C15.1627 31.0837 15.1747 31.0764 15.2001 31.0696C15.2117 31.0664 15.2228 31.0643 15.2326 31.063C15.2423 31.0618 15.2481 31.0617 15.2492 31.0617V34.0617V37.0617C16.2875 37.0617 17.2775 36.7914 18.1698 36.2758L16.6688 33.6783ZM15.2492 34.0617V31.0617C15.2502 31.0617 15.2561 31.0618 15.2658 31.063C15.2755 31.0643 15.2867 31.0664 15.2982 31.0696C15.3236 31.0764 15.3356 31.0837 15.3306 31.0809L13.8296 33.6783L12.3285 36.2758C13.2208 36.7914 14.2108 37.0617 15.2492 37.0617V34.0617ZM22.0625 11.4746L23.5673 14.0699L27.6181 11.7211L26.1133 9.12584L24.6085 6.53054L20.5577 8.87929L22.0625 11.4746ZM26.1133 9.12584L27.616 6.52928L16.7518 0.242192L15.2492 2.83875L13.7465 5.43531L24.6107 11.7224L26.1133 9.12584ZM15.2492 2.83875L13.7464 0.242282L9.70555 2.58103L11.2083 5.1775L12.7111 7.77397L16.7519 5.43522L15.2492 2.83875ZM11.2083 5.1775L9.70288 7.77242L20.557 14.0695L22.0625 11.4746L23.568 8.87966L12.7138 2.58258L11.2083 5.1775ZM15.2492 15.4546L16.7657 18.0431L20.8998 15.621L19.3833 13.0325L17.8668 10.444L13.7327 12.8661L15.2492 15.4546ZM19.3833 13.0325L20.8799 10.4324L9.97403 4.15534L8.4775 6.75542L6.98097 9.35549L17.8868 15.6326L19.3833 13.0325ZM8.4775 6.75542L6.98255 4.15443L2.85838 6.52485L4.35333 9.12584L5.84828 11.7268L9.97245 9.3564L8.4775 6.75542ZM4.35333 9.12584L2.84655 11.72L13.7424 18.0487L15.2492 15.4546L16.756 12.8604L5.86012 6.53169L4.35333 9.12584Z" fill="#2DA2DB" mask="url(#path-1-inside-1_12621_2194)"/>
</svg>
