<svg width="18" height="18" viewBox="0 0 18 18" fill="none" xmlns="http://www.w3.org/2000/svg">
<path d="M8.60871 6.8879C7.78813 6.8879 7.11678 6.62636 6.59463 6.10326C6.07237 5.58028 5.81124 4.90964 5.81124 4.09133C5.81124 3.27016 6.07231 2.59844 6.59445 2.07618C7.1166 1.55404 7.7873 1.29297 8.60656 1.29297C9.42857 1.29297 10.1014 1.55404 10.6249 2.07618C11.1486 2.59844 11.4105 3.26944 11.4105 4.08918C11.4105 4.90892 11.1486 5.58028 10.6249 6.10326C10.1014 6.62636 9.42929 6.8879 8.60871 6.8879ZM8.60799 5.66583C9.06617 5.66583 9.44345 5.51727 9.73986 5.22015C10.0361 4.92291 10.1843 4.54658 10.1843 4.09115C10.1843 3.63286 10.0364 3.25557 9.74057 2.95929C9.44465 2.66301 9.06832 2.51487 8.61158 2.51487C8.15484 2.51487 7.77755 2.66301 7.47971 2.95929C7.182 3.25557 7.03314 3.63214 7.03314 4.089C7.03314 4.54574 7.18176 4.92273 7.479 5.21997C7.77612 5.51721 8.15245 5.66583 8.60799 5.66583ZM8.60979 8.14334C9.5021 8.14334 10.3289 8.25471 11.0902 8.47746C11.8513 8.70033 12.5404 8.95046 13.1575 9.22786C13.5514 9.40421 13.8668 9.66158 14.1039 9.99995C14.3409 10.3383 14.4594 10.7447 14.4594 11.2192V14.7062C14.4594 15.0362 14.3378 15.3223 14.0946 15.5646C13.8515 15.8069 13.5644 15.9281 13.2332 15.9281H7.04175C6.5214 15.9281 6.08026 15.7469 5.71834 15.3845C5.35642 15.0221 5.17545 14.5804 5.17545 14.0595C5.17545 13.5385 5.35642 13.0976 5.71834 12.7366C6.08026 12.3758 6.5214 12.1953 7.04175 12.1953H9.13653L10.3378 9.53598C10.0413 9.47906 9.74703 9.43709 9.45505 9.41007C9.16319 9.38305 8.8803 9.36954 8.60638 9.36954C7.75424 9.36954 6.99434 9.46531 6.32669 9.65686C5.65892 9.8484 5.0691 10.068 4.55724 10.3156C4.39332 10.3999 4.25683 10.5269 4.14779 10.6965C4.03875 10.8661 3.98423 11.046 3.98423 11.2362V15.3173C3.98423 15.4897 3.92522 15.6346 3.80721 15.752C3.6892 15.8694 3.54351 15.9281 3.37014 15.9281C3.19677 15.9281 3.05216 15.8694 2.9363 15.752C2.82032 15.6346 2.76233 15.4897 2.76233 15.3173V11.2192C2.76233 10.7447 2.88046 10.3385 3.11672 10.0005C3.35298 9.66236 3.6614 9.40427 4.04198 9.22624C4.65176 8.95232 5.34243 8.70332 6.11398 8.47926C6.88554 8.25531 7.71747 8.14334 8.60979 8.14334ZM7.04175 14.7534H7.9288L8.57948 13.3701H7.04175C6.85965 13.3701 6.69883 13.4399 6.5593 13.5796C6.41989 13.7191 6.35018 13.8807 6.35018 14.0645C6.35018 14.2483 6.41989 14.409 6.5593 14.5468C6.69883 14.6845 6.85965 14.7534 7.04175 14.7534ZM9.26261 14.7062H13.2332V11.2362C13.2332 11.046 13.1764 10.8664 13.0628 10.6974C12.9492 10.5284 12.8087 10.4014 12.6413 10.3165C12.5059 10.2467 12.3424 10.1745 12.1508 10.0998C11.9593 10.0251 11.7405 9.94136 11.4946 9.84858L9.26261 14.7062Z" fill="#4CC4FE"/>
</svg>
