<svg preserveAspectRatio="none" width="100%" height="100%" overflow="visible" style="display: block;" viewBox="0 0 40 40" fill="none" xmlns="http://www.w3.org/2000/svg">
<g id="e911_emergency">
<g id="Vector">
<mask id="path-1-inside-1_0_146" fill="white">
<path d="M10 33.7321C9.59944 33.7321 9.26278 33.5949 8.99 33.3204C8.71694 33.0463 8.58042 32.7078 8.58042 32.305C8.58042 31.9025 8.71694 31.5665 8.99 31.2971C9.26278 31.0276 9.59944 30.8929 10 30.8929H11.1621L14.5925 19.6004C14.7789 18.9996 15.1174 18.5093 15.6079 18.1296C16.0982 17.7496 16.661 17.5596 17.2962 17.5596H22.7038C23.339 17.5596 23.9018 17.7496 24.3921 18.1296C24.8826 18.5093 25.2211 18.9996 25.4075 19.6004L28.8379 30.8929H30C30.4006 30.8929 30.7372 31.0301 31.01 31.3046C31.2831 31.5788 31.4196 31.9172 31.4196 32.32C31.4196 32.7225 31.2831 33.0585 31.01 33.3279C30.7372 33.5974 30.4006 33.7321 30 33.7321H10ZM14.1875 30.8929H25.8125L22.6621 20.3988H17.3379L14.1875 30.8929ZM18.5804 11.0208V6.02083C18.5804 5.62028 18.7176 5.28194 18.9921 5.00583C19.2663 4.72972 19.6047 4.59167 20.0075 4.59167C20.41 4.59167 20.746 4.72972 21.0154 5.00583C21.2849 5.28194 21.4196 5.62028 21.4196 6.02083V11.0208C21.4196 11.4214 21.2824 11.7581 21.0079 12.0308C20.7338 12.3039 20.3953 12.4404 19.9925 12.4404C19.59 12.4404 19.254 12.3039 18.9846 12.0308C18.7151 11.7581 18.5804 11.4214 18.5804 11.0208ZM27.7763 13.6775L31.3179 10.1358C31.6079 9.88056 31.9442 9.7475 32.3267 9.73667C32.7092 9.72611 33.0393 9.8625 33.3171 10.1458C33.6001 10.4292 33.7417 10.7607 33.7417 11.1404C33.7417 11.5201 33.6001 11.8517 33.3171 12.135L29.7754 15.7183C29.4921 16.0014 29.1589 16.1429 28.7758 16.1429C28.3928 16.1429 28.0596 16.0007 27.7763 15.7163C27.4865 15.4315 27.3417 15.0914 27.3417 14.6958C27.3417 14.3003 27.4865 13.9608 27.7763 13.6775ZM32.5417 21.9138H37.5417C37.9422 21.9138 38.2789 22.051 38.5517 22.3254C38.8247 22.5996 38.9613 22.9381 38.9613 23.3408C38.9613 23.7433 38.8247 24.0793 38.5517 24.3488C38.2789 24.6182 37.9422 24.7529 37.5417 24.7529H32.5417C32.1411 24.7529 31.8044 24.6157 31.5317 24.3413C31.2586 24.0671 31.1221 23.7286 31.1221 23.3258C31.1221 22.9233 31.2586 22.5874 31.5317 22.3179C31.8044 22.0485 32.1411 21.9138 32.5417 21.9138ZM10.2246 15.6767L6.68292 12.135C6.42764 11.8517 6.29472 11.5188 6.28417 11.1363C6.27333 10.7538 6.40958 10.4236 6.69292 10.1458C6.97625 9.85611 7.30778 9.71125 7.6875 9.71125C8.06722 9.71125 8.40208 9.85278 8.69208 10.1358L12.2654 13.6775C12.5488 13.9608 12.6904 14.294 12.6904 14.6771C12.6904 15.0601 12.5481 15.3933 12.2633 15.6767C11.9786 15.9664 11.6385 16.1096 11.2429 16.1063C10.8474 16.1029 10.5079 15.9597 10.2246 15.6767ZM2.45833 24.7529C2.05778 24.7529 1.72111 24.6157 1.44833 24.3413C1.17528 24.0671 1.03875 23.7286 1.03875 23.3258C1.03875 22.9233 1.17528 22.5874 1.44833 22.3179C1.72111 22.0485 2.05778 21.9138 2.45833 21.9138H7.45833C7.85889 21.9138 8.19722 22.051 8.47333 22.3254C8.74944 22.5996 8.8875 22.9381 8.8875 23.3408C8.8875 23.7433 8.74944 24.0793 8.47333 24.3488C8.19722 24.6182 7.85889 24.7529 7.45833 24.7529H2.45833Z"/>
</mask>
<path d="M8.99 33.3204L11.1178 31.2056L11.1156 31.2034L8.99 33.3204ZM8.99 31.2971L11.0972 33.4325L11.0982 33.4314L8.99 31.2971ZM11.1621 30.8929V33.8929H13.3861L14.0326 31.7649L11.1621 30.8929ZM14.5925 19.6004L11.7272 18.7116L11.7246 18.72L11.722 18.7284L14.5925 19.6004ZM15.6079 18.1296L17.4442 20.5019L17.4457 20.5007L15.6079 18.1296ZM24.3921 18.1296L22.5543 20.5007L22.5558 20.5019L24.3921 18.1296ZM25.4075 19.6004L28.278 18.7284L28.2754 18.72L28.2728 18.7116L25.4075 19.6004ZM28.8379 30.8929L25.9674 31.7649L26.6139 33.8929H28.8379V30.8929ZM31.01 31.3046L28.8822 33.4194L28.8844 33.4216L31.01 31.3046ZM31.01 33.3279L28.9028 31.1925L28.9018 31.1936L31.01 33.3279ZM14.1875 30.8929L11.3142 30.0303L10.1546 33.8929H14.1875V30.8929ZM25.8125 30.8929V33.8929H29.8454L28.6858 30.0303L25.8125 30.8929ZM22.6621 20.3988L25.5354 19.5362L24.8937 17.3988H22.6621V20.3988ZM17.3379 20.3988V17.3988H15.1063L14.4646 19.5362L17.3379 20.3988ZM18.9921 5.00583L21.1198 7.12072L21.1209 7.11964L18.9921 5.00583ZM21.0079 12.0308L18.8931 9.90306L18.8909 9.90521L21.0079 12.0308ZM18.9846 12.0308L21.12 9.92368L21.1189 9.92259L18.9846 12.0308ZM27.7763 13.6775L29.8738 15.8223L29.8857 15.8106L29.8976 15.7988L27.7763 13.6775ZM31.3179 10.1358L29.3357 7.88399L29.2641 7.94704L29.1966 8.01451L31.3179 10.1358ZM32.3267 9.73667L32.2439 6.73781L32.2417 6.73787L32.3267 9.73667ZM33.3171 10.1458L31.1749 12.246L31.1847 12.2561L31.1947 12.2661L33.3171 10.1458ZM33.3171 12.135L31.1947 10.0147L31.189 10.0204L31.1834 10.0261L33.3171 12.135ZM29.7754 15.7183L31.8957 17.8407L31.9024 17.834L31.9091 17.8272L29.7754 15.7183ZM27.7763 15.7163L29.9017 13.5991L29.8904 13.5878L29.879 13.5765L27.7763 15.7163ZM38.5517 22.3254L36.4239 24.4403L36.426 24.4424L38.5517 22.3254ZM38.5517 24.3488L36.4445 22.2134L36.4434 22.2144L38.5517 24.3488ZM31.5317 24.3413L33.6594 22.2264L33.6573 22.2242L31.5317 24.3413ZM31.5317 22.3179L33.6388 24.4533L33.6399 24.4522L31.5317 22.3179ZM10.2246 15.6767L8.10326 17.798L8.1043 17.799L10.2246 15.6767ZM6.68292 12.135L4.45412 14.1431L4.50638 14.2011L4.5616 14.2563L6.68292 12.135ZM6.28417 11.1363L9.28303 11.0535L9.28296 11.0513L6.28417 11.1363ZM6.69292 10.1458L8.79313 12.2881L8.81568 12.2659L8.83775 12.2434L6.69292 10.1458ZM8.69208 10.1358L10.8039 8.00509L10.7958 7.997L10.7875 7.98896L8.69208 10.1358ZM12.2654 13.6775L14.3868 11.5562L14.3773 11.5468L12.2654 13.6775ZM12.2633 15.6767L10.1472 13.5502L10.1354 13.562L10.1236 13.5739L12.2633 15.6767ZM1.44833 24.3413L3.57611 22.2264L3.57396 22.2242L1.44833 24.3413ZM1.44833 22.3179L3.55549 24.4533L3.55657 24.4522L1.44833 22.3179ZM8.47333 22.3254L6.35844 24.4532L6.35952 24.4542L8.47333 22.3254ZM10 33.7321V30.7321C10.1484 30.7321 10.3533 30.7589 10.5794 30.8511C10.8076 30.9441 10.9888 31.0758 11.1178 31.2056L8.99 33.3204L6.86223 35.4353C7.7199 36.2982 8.83204 36.7321 10 36.7321V33.7321ZM8.99 33.3204L11.1156 31.2034C11.245 31.3333 11.3742 31.5137 11.465 31.7387C11.5548 31.9614 11.5804 32.1617 11.5804 32.305H8.58042H5.58042C5.58042 33.4651 6.00631 34.5759 6.86438 35.4374L8.99 33.3204ZM8.58042 32.305H11.5804C11.5804 32.4484 11.5548 32.6524 11.4621 32.8806C11.3682 33.1116 11.2336 33.2978 11.0972 33.4325L8.99 31.2971L6.88285 29.1617C6.00789 30.0251 5.58042 31.144 5.58042 32.305H8.58042ZM8.99 31.2971L11.0982 33.4314C10.9667 33.5614 10.7857 33.6896 10.5617 33.7792C10.3402 33.8679 10.1416 33.8929 10 33.8929V30.8929V27.8929C8.84942 27.8929 7.74336 28.3117 6.88176 29.1628L8.99 31.2971ZM10 30.8929V33.8929H11.1621V30.8929V27.8929H10V30.8929ZM11.1621 30.8929L14.0326 31.7649L17.463 20.4724L14.5925 19.6004L11.722 18.7284L8.29161 30.0209L11.1621 30.8929ZM14.5925 19.6004L17.4578 20.4893C17.4624 20.4746 17.4651 20.4693 17.4643 20.471C17.4634 20.4729 17.4604 20.4786 17.455 20.4865C17.4495 20.4943 17.4442 20.5006 17.4404 20.5047C17.4366 20.5086 17.437 20.5075 17.4442 20.5019L15.6079 18.1296L13.7716 15.7573C12.7866 16.5197 12.0934 17.5312 11.7272 18.7116L14.5925 19.6004ZM15.6079 18.1296L17.4457 20.5007C17.4439 20.5022 17.4343 20.5093 17.4173 20.5185C17.4001 20.5278 17.3796 20.5369 17.3573 20.5445C17.3087 20.5609 17.2822 20.5596 17.2962 20.5596V17.5596V14.5596C16.0129 14.5596 14.7999 14.9603 13.7701 15.7584L15.6079 18.1296ZM17.2962 17.5596V20.5596H22.7038V17.5596V14.5596H17.2962V17.5596ZM22.7038 17.5596V20.5596C22.7178 20.5596 22.6913 20.5609 22.6427 20.5445C22.6204 20.5369 22.5999 20.5278 22.5827 20.5185C22.5657 20.5093 22.5561 20.5022 22.5543 20.5007L24.3921 18.1296L26.2299 15.7584C25.2002 14.9603 23.9871 14.5596 22.7038 14.5596V17.5596ZM24.3921 18.1296L22.5558 20.5019C22.563 20.5075 22.5634 20.5086 22.5596 20.5047C22.5558 20.5006 22.5505 20.4943 22.545 20.4865C22.5396 20.4787 22.5366 20.4729 22.5357 20.471C22.5349 20.4693 22.5376 20.4746 22.5422 20.4893L25.4075 19.6004L28.2728 18.7116C27.9066 17.5312 27.2134 16.5197 26.2284 15.7573L24.3921 18.1296ZM25.4075 19.6004L22.537 20.4724L25.9674 31.7649L28.8379 30.8929L31.7084 30.0209L28.278 18.7284L25.4075 19.6004ZM28.8379 30.8929V33.8929H30V30.8929V27.8929H28.8379V30.8929ZM30 30.8929V33.8929C29.8516 33.8929 29.6467 33.8661 29.4206 33.7739C29.1924 33.6809 29.0112 33.5492 28.8822 33.4194L31.01 31.3046L33.1378 29.1897C32.2801 28.3268 31.168 27.8929 30 27.8929V30.8929ZM31.01 31.3046L28.8844 33.4216C28.755 33.2917 28.6258 33.1113 28.535 32.8863C28.4452 32.6637 28.4196 32.4633 28.4196 32.32H31.4196H34.4196C34.4196 31.1599 33.9937 30.0491 33.1356 29.1876L31.01 31.3046ZM31.4196 32.32H28.4196C28.4196 32.1766 28.4452 31.9726 28.5379 31.7444C28.6318 31.5134 28.7664 31.3272 28.9028 31.1925L31.01 33.3279L33.1172 35.4633C33.9921 34.5999 34.4196 33.481 34.4196 32.32H31.4196ZM31.01 33.3279L28.9018 31.1936C29.0333 31.0636 29.2143 30.9354 29.4383 30.8458C29.6598 30.7572 29.8585 30.7321 30 30.7321V33.7321V36.7321C31.1506 36.7321 32.2566 36.3133 33.1182 35.4622L31.01 33.3279ZM30 33.7321V30.7321H10V33.7321V36.7321H30V33.7321ZM14.1875 30.8929V33.8929H25.8125V30.8929V27.8929H14.1875V30.8929ZM25.8125 30.8929L28.6858 30.0303L25.5354 19.5362L22.6621 20.3988L19.7888 21.2613L22.9392 31.7555L25.8125 30.8929ZM22.6621 20.3988V17.3988H17.3379V20.3988V23.3988H22.6621V20.3988ZM17.3379 20.3988L14.4646 19.5362L11.3142 30.0303L14.1875 30.8929L17.0608 31.7555L20.2112 21.2613L17.3379 20.3988ZM18.5804 11.0208H21.5804V6.02083H18.5804H15.5804V11.0208H18.5804ZM18.5804 6.02083H21.5804C21.5804 6.1694 21.5536 6.37188 21.4634 6.59421C21.3725 6.81821 21.2446 6.99521 21.1198 7.12072L18.9921 5.00583L16.8644 2.89094C16.0134 3.74703 15.5804 4.85338 15.5804 6.02083H18.5804ZM18.9921 5.00583L21.1209 7.11964C20.9926 7.24886 20.8122 7.38021 20.5846 7.47303C20.3591 7.565 20.1549 7.59167 20.0075 7.59167V4.59167V1.59167C18.8368 1.59167 17.7224 2.02681 16.8633 2.89202L18.9921 5.00583ZM20.0075 4.59167V7.59167C19.86 7.59167 19.6521 7.56499 19.4211 7.47007C19.1875 7.37407 19.0013 7.23737 18.8683 7.10107L21.0154 5.00583L23.1625 2.91059C22.3017 2.0285 21.1792 1.59167 20.0075 1.59167V4.59167ZM21.0154 5.00583L18.8683 7.10107C18.7435 6.97312 18.6189 6.79629 18.5314 6.5765C18.4447 6.35884 18.4196 6.1626 18.4196 6.02083H21.4196H24.4196C24.4196 4.87063 24.0016 3.77045 23.1625 2.91059L21.0154 5.00583ZM21.4196 6.02083H18.4196V11.0208H21.4196H24.4196V6.02083H21.4196ZM21.4196 11.0208H18.4196C18.4196 10.8725 18.4464 10.6676 18.5386 10.4414C18.6316 10.2132 18.7633 10.0321 18.8931 9.90306L21.0079 12.0308L23.1228 14.1586C23.9857 13.3009 24.4196 12.1888 24.4196 11.0208H21.4196ZM21.0079 12.0308L18.8909 9.90521C19.0208 9.77586 19.2012 9.6466 19.4262 9.55583C19.6488 9.46602 19.8492 9.44042 19.9925 9.44042V12.4404V15.4404C21.1526 15.4404 22.2634 15.0145 23.1249 14.1565L21.0079 12.0308ZM19.9925 12.4404V9.44042C20.1359 9.44042 20.3399 9.46603 20.5681 9.55874C20.7991 9.65264 20.9853 9.78722 21.12 9.92368L18.9846 12.0308L16.8492 14.138C17.7126 15.0129 18.8315 15.4404 19.9925 15.4404V12.4404ZM18.9846 12.0308L21.1189 9.92259C21.2489 10.0542 21.3771 10.2352 21.4667 10.4592C21.5553 10.6806 21.5804 10.8793 21.5804 11.0208H18.5804H15.5804C15.5804 12.1714 15.9992 13.2775 16.8503 14.1391L18.9846 12.0308ZM27.7763 13.6775L29.8976 15.7988L33.4392 12.2572L31.3179 10.1358L29.1966 8.01451L25.6549 11.5562L27.7763 13.6775ZM31.3179 10.1358L33.3001 12.3877C33.2034 12.4729 33.0663 12.5649 32.8914 12.6341C32.7162 12.7035 32.5491 12.7316 32.4116 12.7355L32.3267 9.73667L32.2417 6.73787C31.1516 6.76874 30.146 7.17075 29.3357 7.88399L31.3179 10.1358ZM32.3267 9.73667L32.4094 12.7355C32.2104 12.741 31.9668 12.7075 31.7157 12.6037C31.4671 12.501 31.2879 12.3614 31.1749 12.246L33.3171 10.1458L35.4593 8.04562C34.6216 7.19115 33.495 6.70328 32.2439 6.73781L32.3267 9.73667ZM33.3171 10.1458L31.1947 12.2661C31.0959 12.1671 30.9717 12.008 30.8764 11.7848C30.7798 11.5585 30.7417 11.3334 30.7417 11.1404H33.7417H36.7417C36.7417 9.91848 36.2503 8.83721 35.4394 8.02555L33.3171 10.1458ZM33.7417 11.1404H30.7417C30.7417 10.9474 30.7798 10.7223 30.8764 10.496C30.9717 10.2729 31.0959 10.1137 31.1947 10.0147L33.3171 12.135L35.4394 14.2553C36.2503 13.4436 36.7417 12.3624 36.7417 11.1404H33.7417ZM33.3171 12.135L31.1834 10.0261L27.6417 13.6095L29.7754 15.7183L31.9091 17.8272L35.4508 14.2439L33.3171 12.135ZM29.7754 15.7183L27.6551 13.596C27.7565 13.4947 27.9171 13.3703 28.1402 13.2755C28.3658 13.1797 28.5881 13.1429 28.7758 13.1429V16.1429V19.1429C29.9935 19.1429 31.0784 18.6572 31.8957 17.8407L29.7754 15.7183ZM28.7758 16.1429V13.1429C28.9655 13.1429 29.1896 13.1803 29.4164 13.2771C29.6404 13.3727 29.801 13.498 29.9017 13.5991L27.7763 15.7163L25.6508 17.8334C26.4669 18.6527 27.5533 19.1429 28.7758 19.1429V16.1429ZM27.7763 15.7163L29.879 13.5765C29.9865 13.6822 30.1144 13.8467 30.2104 14.0721C30.3071 14.2992 30.3417 14.5182 30.3417 14.6958H27.3417H24.3417C24.3417 15.9201 24.8272 17.0242 25.6735 17.856L27.7763 15.7163ZM27.3417 14.6958H30.3417C30.3417 14.8734 30.3071 15.0934 30.2096 15.3221C30.1126 15.5493 29.9832 15.7154 29.8738 15.8223L27.7763 13.6775L25.6787 11.5327C24.8277 12.3649 24.3417 13.4711 24.3417 14.6958H27.3417ZM32.5417 21.9138V24.9138H37.5417V21.9138V18.9138H32.5417V21.9138ZM37.5417 21.9138V24.9138C37.3933 24.9138 37.1884 24.8869 36.9623 24.7948C36.734 24.7017 36.5529 24.5701 36.4239 24.4403L38.5517 22.3254L40.6794 20.2106C39.8218 19.3477 38.7096 18.9138 37.5417 18.9138V21.9138ZM38.5517 22.3254L36.426 24.4424C36.2967 24.3126 36.1674 24.1322 36.0767 23.9071C35.9869 23.6845 35.9613 23.4841 35.9613 23.3408H38.9613H41.9613C41.9613 22.1807 41.5354 21.07 40.6773 20.2084L38.5517 22.3254ZM38.9613 23.3408H35.9613C35.9613 23.1975 35.9869 22.9934 36.0796 22.7653C36.1735 22.5342 36.308 22.348 36.4445 22.2134L38.5517 24.3488L40.6588 26.4841C41.5338 25.6208 41.9613 24.5018 41.9613 23.3408H38.9613ZM38.5517 24.3488L36.4434 22.2144C36.575 22.0845 36.756 21.9562 36.98 21.8666C37.2015 21.778 37.4001 21.7529 37.5417 21.7529V24.7529V27.7529C38.6922 27.7529 39.7983 27.3341 40.6599 26.4831L38.5517 24.3488ZM37.5417 24.7529V21.7529H32.5417V24.7529V27.7529H37.5417V24.7529ZM32.5417 24.7529V21.7529C32.69 21.7529 32.8949 21.7797 33.1211 21.8719C33.3493 21.9649 33.5304 22.0966 33.6594 22.2264L31.5317 24.3413L29.4039 26.4561C30.2616 27.319 31.3737 27.7529 32.5417 27.7529V24.7529ZM31.5317 24.3413L33.6573 22.2242C33.7866 22.3541 33.9159 22.5345 34.0067 22.7595C34.0965 22.9822 34.1221 23.1825 34.1221 23.3258H31.1221H28.1221C28.1221 24.486 28.548 25.5967 29.406 26.4583L31.5317 24.3413ZM31.1221 23.3258H34.1221C34.1221 23.4692 34.0965 23.6733 34.0038 23.9014C33.9099 24.1325 33.7753 24.3187 33.6388 24.4533L31.5317 22.3179L29.4245 20.1825C28.5496 21.0459 28.1221 22.1648 28.1221 23.3258H31.1221ZM31.5317 22.3179L33.6399 24.4522C33.5083 24.5822 33.3273 24.7104 33.1033 24.8001C32.8819 24.8887 32.6832 24.9138 32.5417 24.9138V21.9138V18.9138C31.3911 18.9138 30.285 19.3325 29.4234 20.1836L31.5317 22.3179ZM10.2246 15.6767L12.3459 13.5553L8.80424 10.0137L6.68292 12.135L4.5616 14.2563L8.10326 17.798L10.2246 15.6767ZM6.68292 12.135L8.91171 10.1269C9.00604 10.2316 9.10476 10.3772 9.17792 10.5604C9.25102 10.7435 9.27922 10.9157 9.28302 11.0535L6.28417 11.1363L3.28531 11.219C3.31547 12.3118 3.71971 13.328 4.45412 14.1431L6.68292 12.135ZM6.28417 11.1363L9.28296 11.0513C9.28861 11.2506 9.25519 11.4946 9.15135 11.7462C9.04854 11.9953 8.90865 12.1748 8.79313 12.2881L6.69292 10.1458L4.5927 8.00362C3.7377 8.84185 3.24991 9.96933 3.28537 11.2212L6.28417 11.1363ZM6.69292 10.1458L8.83775 12.2434C8.74199 12.3413 8.58301 12.4694 8.35525 12.5689C8.1235 12.6702 7.89016 12.7113 7.6875 12.7113V9.71125V6.71125C6.44215 6.71125 5.35366 7.22455 4.54808 8.04829L6.69292 10.1458ZM7.6875 9.71125V12.7113C7.49435 12.7113 7.27406 12.6731 7.05553 12.5807C6.84063 12.4899 6.68896 12.3728 6.59662 12.2827L8.69208 10.1358L10.7875 7.98896C9.97874 7.19953 8.90651 6.71125 7.6875 6.71125V9.71125ZM8.69208 10.1358L6.58022 12.2666L10.1536 15.8082L12.2654 13.6775L14.3773 11.5468L10.8039 8.00509L8.69208 10.1358ZM12.2654 13.6775L10.1441 15.7988C10.0429 15.6976 9.91826 15.537 9.82335 15.3137C9.72731 15.0878 9.69042 14.8652 9.69042 14.6771H12.6904H15.6904C15.6904 13.4585 15.2038 12.3733 14.3867 11.5562L12.2654 13.6775ZM12.6904 14.6771H9.69042C9.69042 14.487 9.72789 14.2626 9.8249 14.0356C9.9207 13.8114 10.0462 13.6507 10.1472 13.5502L12.2633 15.6767L14.3795 17.8032C15.1993 16.9873 15.6904 15.9005 15.6904 14.6771H12.6904ZM12.2633 15.6767L10.1236 13.5739C10.2314 13.4643 10.3997 13.3336 10.6307 13.2364C10.8634 13.1384 11.0874 13.1048 11.2682 13.1064L11.2429 16.1063L11.2176 19.1061C12.4509 19.1165 13.5654 18.6318 14.403 17.7794L12.2633 15.6767ZM11.2429 16.1063L11.2682 13.1064C11.4332 13.1077 11.6403 13.1405 11.8577 13.2322C12.0744 13.3237 12.2368 13.4463 12.3449 13.5543L10.2246 15.6767L8.1043 17.799C8.9362 18.6301 10.0248 19.0961 11.2176 19.1061L11.2429 16.1063ZM2.45833 24.7529V21.7529C2.60669 21.7529 2.8116 21.7797 3.03774 21.8719C3.26598 21.9649 3.44709 22.0966 3.5761 22.2264L1.44833 24.3413L-0.679438 26.4561C0.17823 27.319 1.29037 27.7529 2.45833 27.7529V24.7529ZM1.44833 24.3413L3.57396 22.2242C3.70331 22.3541 3.83257 22.5345 3.92334 22.7595C4.01314 22.9822 4.03875 23.1825 4.03875 23.3258H1.03875H-1.96125C-1.96125 24.486 -1.53536 25.5967 -0.67729 26.4583L1.44833 24.3413ZM1.03875 23.3258H4.03875C4.03875 23.4692 4.01314 23.6733 3.92043 23.9014C3.82653 24.1325 3.69195 24.3187 3.55549 24.4533L1.44833 22.3179L-0.65882 20.1825C-1.53377 21.0459 -1.96125 22.1648 -1.96125 23.3258H1.03875ZM1.44833 22.3179L3.55657 24.4522C3.42501 24.5822 3.24399 24.7104 3.01999 24.8001C2.79853 24.8887 2.59988 24.9138 2.45833 24.9138V21.9138V18.9138C1.30775 18.9138 0.201694 19.3325 -0.659907 20.1836L1.44833 22.3179ZM2.45833 21.9138V24.9138H7.45833V21.9138V18.9138H2.45833V21.9138ZM7.45833 21.9138V24.9138C7.30977 24.9138 7.10728 24.8869 6.88496 24.7967C6.66095 24.7059 6.48395 24.5779 6.35844 24.4532L8.47333 22.3254L10.5882 20.1977C9.73213 19.3468 8.62579 18.9138 7.45833 18.9138V21.9138ZM8.47333 22.3254L6.35952 24.4542C6.2303 24.3259 6.09896 24.1455 6.00614 23.9179C5.91417 23.6924 5.8875 23.4883 5.8875 23.3408H8.8875H11.8875C11.8875 22.1701 11.4524 21.0557 10.5871 20.1966L8.47333 22.3254ZM8.8875 23.3408H5.8875C5.8875 23.1933 5.91418 22.9854 6.00909 22.7545C6.1051 22.5208 6.2418 22.3347 6.37809 22.2017L8.47333 24.3488L10.5686 26.4958C11.4507 25.635 11.8875 24.5125 11.8875 23.3408H8.8875ZM8.47333 24.3488L6.37809 22.2017C6.50605 22.0768 6.68287 21.9522 6.90267 21.8647C7.12033 21.778 7.31657 21.7529 7.45833 21.7529V24.7529V27.7529C8.60854 27.7529 9.70871 27.3349 10.5686 26.4958L8.47333 24.3488ZM7.45833 24.7529V21.7529H2.45833V24.7529V27.7529H7.45833V24.7529Z" fill="var(--stroke-0, #F4813E)" mask="url(#path-1-inside-1_0_146)"/>
</g>
</g>
</svg>
