<svg preserveAspectRatio="none" width="100%" height="100%" overflow="visible" style="display: block;" viewBox="0 0 32 32" fill="none" xmlns="http://www.w3.org/2000/svg">
<g id="book_2">
<path id="Vector" d="M7.34933 21.2697C7.66555 21.0674 8.00878 20.9138 8.379 20.8087C8.74922 20.7033 9.14656 20.6507 9.571 20.6507H10.6827V4.67467H9.571C8.94678 4.67467 8.42044 4.89022 7.992 5.32133C7.56355 5.75244 7.34933 6.28011 7.34933 6.90433V21.2697ZM12.8977 20.6507H24.6587V4.67467H12.8977V20.6507ZM9.571 29.5327C8.34278 29.5327 7.29622 29.1002 6.43133 28.2353C5.56644 27.3704 5.134 26.3239 5.134 25.0957V6.90433C5.134 5.67389 5.56644 4.62545 6.43133 3.759C7.29622 2.89256 8.34278 2.45933 9.571 2.45933H24.595C25.2272 2.45933 25.7651 2.68111 26.2087 3.12467C26.6522 3.56822 26.874 4.10611 26.874 4.73833V21.9847C26.874 22.202 26.8184 22.399 26.7073 22.5757C26.5962 22.7523 26.454 22.8766 26.2807 22.9483C25.8742 23.1166 25.5554 23.3906 25.3243 23.7703C25.0932 24.1503 24.9777 24.5887 24.9777 25.0853C24.9777 25.582 25.0927 26.0189 25.3227 26.396C25.5527 26.7733 25.8706 27.044 26.2763 27.208C26.4683 27.2916 26.616 27.4373 26.7193 27.6453C26.8224 27.8533 26.874 28.1054 26.874 28.4017V28.4387C26.874 28.7411 26.7666 28.999 26.5517 29.2123C26.337 29.4259 26.0739 29.5327 25.7623 29.5327H9.571ZM9.55567 27.3173H23.3557C23.1681 27.0013 23.0223 26.6523 22.9183 26.2703C22.8143 25.8881 22.7623 25.4969 22.7623 25.0967C22.7623 24.6729 22.8149 24.2757 22.92 23.905C23.0253 23.5343 23.1817 23.188 23.389 22.866H9.558C8.94778 22.866 8.42711 23.0816 7.996 23.5127C7.56489 23.9438 7.34933 24.4713 7.34933 25.0953C7.34933 25.7144 7.56489 26.2396 7.996 26.6707C8.42711 27.1018 8.947 27.3173 9.55567 27.3173Z" fill="var(--fill-0, #1E729C)"/>
</g>
</svg>
