<svg preserveAspectRatio="none" width="100%" height="100%" overflow="visible" style="display: block;" viewBox="0 0 39 39" fill="none" xmlns="http://www.w3.org/2000/svg">
<g id="Bottle neck oi oi">
<path id="oi oi" d="M3.98814 18.0701C3.98815 21.5605 6.00526 24.7364 9.16443 26.2203L9.84073 26.538C13.5645 28.2871 15.9422 32.0305 15.9422 36.1446H13.1565C13.1565 33.1104 11.4029 30.3494 8.65653 29.0594L7.98009 28.7417C3.84356 26.7987 1.20244 22.6403 1.20243 18.0701V5.5955H3.98814V18.0701ZM37.7976 18.0701C37.7976 22.6403 35.1564 26.7987 31.0199 28.7417L30.3435 29.0594C27.5971 30.3494 25.8435 33.1104 25.8435 36.1446H23.0578C23.0578 32.0305 25.4355 28.2871 29.1593 26.538L29.8356 26.2203C32.9947 24.7364 35.0118 21.5605 35.0119 18.0701V5.5955H37.7976V18.0701ZM13.4807 13.4063L16.1743 10.7126L18.1441 12.6825L13.0727 17.7538L12.0878 18.7387L11.1029 17.7538L6.03145 12.6825L8.00131 10.7126L10.6949 13.4063V4.03004H13.4807V13.4063ZM28.0636 13.4063L30.7573 10.7126L32.7271 12.6825L27.6557 17.7538L26.6708 18.7387L25.6858 17.7538L20.6144 12.6825L22.5843 10.7126L25.2779 13.4063V4.03004H28.0636V13.4063Z" fill="var(--fill-0, #2DA2DB)"/>
</g>
</svg>
