<svg preserveAspectRatio="none" width="100%" height="100%" overflow="visible" style="display: block;" viewBox="0 0 48 48" fill="none" xmlns="http://www.w3.org/2000/svg">
<g id="boxes">
<path id="Vector" d="M24 38L16.06 42.76C15.4379 43.1338 14.7258 43.3312 14 43.3312C13.2742 43.3312 12.5621 43.1338 11.94 42.76L5.94 39.16C5.34952 38.8052 4.86066 38.304 4.52077 37.7048C4.18089 37.1057 4.00151 36.4289 4 35.74V29.26C4.00151 28.5711 4.18089 27.8943 4.52077 27.2952C4.86066 26.696 5.34952 26.1948 5.94 25.84L14 21M24 38V27M24 38L31.94 42.76C32.5621 43.1338 33.2742 43.3312 34 43.3312C34.7258 43.3312 35.4379 43.1338 36.06 42.76L42.06 39.16C42.6505 38.8052 43.1393 38.304 43.4792 37.7048C43.8191 37.1057 43.9985 36.4289 44 35.74V29.26C43.9985 28.5711 43.8191 27.8943 43.4792 27.2952C43.1393 26.696 42.6505 26.1948 42.06 25.84L34 21M24 27L14 21M24 27L14 32.9998M24 27L34 21M24 27L34 33M24 27L24 15.9998M14 21V12.2602C14.0015 11.5713 14.1809 10.8945 14.5208 10.2954C14.8607 9.69619 15.3495 9.19495 15.94 8.84018L21.94 5.24018C22.5621 4.86641 23.2742 4.66895 24 4.66895C24.7258 4.66895 25.4379 4.86641 26.06 5.24018L32.06 8.84018C32.6505 9.19495 33.1393 9.69619 33.4792 10.2954C33.8191 10.8945 33.9985 11.5713 34 12.2602V21M14 32.9998L4.52002 27.2998M14 32.9998L14 43.34M34 33L43.48 27.2998M34 33V43.34M24 15.9998L14.52 10.2998M24 15.9998L33.48 10.2998" stroke="var(--stroke-0, #2DA2DB)" stroke-width="3" stroke-linecap="round" stroke-linejoin="round"/>
</g>
</svg>
