<svg preserveAspectRatio="none" width="100%" height="100%" overflow="visible" style="display: block;" viewBox="0 0 40 40" fill="none" xmlns="http://www.w3.org/2000/svg">
<g id="compress">
<path id="Vector" d="M19.9487 26.3166C20.139 26.3167 20.3138 26.3489 20.4732 26.4133C20.6322 26.4776 20.7861 26.5848 20.9351 26.7346L25.2798 31.1106V31.1096C25.5186 31.3752 25.6427 31.6847 25.6529 32.0383C25.6629 32.3912 25.5386 32.6997 25.2798 32.9651C25.0144 33.2307 24.7063 33.3618 24.354 33.3586C24.001 33.3551 23.695 33.2208 23.4361 32.9553L21.3257 30.7932L21.2827 30.7493V35.9153C21.2827 36.2947 21.1569 36.6097 20.9048 36.8616C20.6524 37.1134 20.3366 37.2394 19.9566 37.2395C19.5763 37.2395 19.2611 37.1135 19.0103 36.8616C18.7593 36.6097 18.6334 36.2948 18.6333 35.9153V30.7707L18.5913 30.8127L16.4087 32.9641C16.1411 33.2022 15.831 33.3283 15.478 33.342C15.1266 33.3556 14.8187 33.2296 14.5532 32.9631C14.2876 32.6961 14.1558 32.3869 14.1558 32.0354C14.1559 31.6844 14.2878 31.3771 14.5532 31.1116L18.9712 26.7346C19.1224 26.5847 19.2775 26.4777 19.4361 26.4133C19.5951 26.3488 19.7663 26.3166 19.9487 26.3166ZM7.96535 20.2141H32.0347C32.4411 20.2141 32.7978 20.3679 33.106 20.676C33.414 20.9841 33.5679 21.3409 33.5679 21.7473C33.5678 22.1625 33.4139 22.5216 33.106 22.8254C32.7979 23.1293 32.4411 23.2805 32.0347 23.2805H7.96535C7.5572 23.2805 7.2018 23.1292 6.89797 22.8254C6.59414 22.5216 6.44292 22.1641 6.44289 21.7522C6.44289 21.3405 6.59402 20.9813 6.89797 20.6741C7.20184 20.367 7.55727 20.2141 7.96535 20.2141ZM7.75734 15.3996H32.2427C32.6223 15.3996 32.9371 15.5265 33.189 15.7786C33.4409 16.0311 33.5679 16.3466 33.5679 16.7268C33.5679 17.1068 33.4415 17.4196 33.19 17.6672C32.938 17.9148 32.6225 18.0393 32.2427 18.0393H7.75734C7.37588 18.0393 7.06164 17.9156 6.81398 17.6682C6.56633 17.4205 6.44292 17.1071 6.44289 16.7268C6.44289 16.3464 6.56712 16.031 6.81496 15.7786C7.06264 15.5266 7.37606 15.3996 7.75734 15.3996ZM19.9185 1.47289C20.2987 1.47289 20.614 1.59892 20.8648 1.85082C21.1157 2.1027 21.2417 2.41759 21.2417 2.79711V7.94066L21.2837 7.89867L23.4771 5.7473C23.7359 5.50931 24.0421 5.38561 24.396 5.37523C24.7483 5.36497 25.0566 5.4879 25.3218 5.74633C25.5877 6.02046 25.7193 6.33218 25.7193 6.6809C25.7191 7.02907 25.5873 7.33526 25.3218 7.60082L20.9351 11.9778C20.7862 12.1275 20.6321 12.2338 20.4732 12.2981C20.3137 12.3626 20.1406 12.3957 19.9536 12.3957C19.7666 12.3957 19.5935 12.3626 19.4351 12.2981C19.2769 12.2337 19.1221 12.1275 18.9712 11.9778L14.5952 7.60082C14.3579 7.36184 14.232 7.05988 14.2183 6.69262C14.2047 6.32712 14.3294 6.01396 14.5943 5.75219C14.8598 5.48994 15.1683 5.3597 15.52 5.35961C15.8282 5.35961 16.1038 5.45807 16.3472 5.65648L16.4497 5.7473L18.5493 7.89867L18.5923 7.94262V2.79711C18.5923 2.4176 18.7182 2.10272 18.9702 1.85082C19.2227 1.59892 19.5384 1.47295 19.9185 1.47289Z" fill="var(--fill-0, #2DA2DB)" stroke="var(--stroke-0, #2DA2DB)" stroke-width="0.05"/>
</g>
</svg>
