<svg preserveAspectRatio="none" width="100%" height="100%" overflow="visible" style="display: block;" viewBox="0 0 40 40" fill="none" xmlns="http://www.w3.org/2000/svg">
<g id="pencil-ruler">
<path id="Vector" d="M21.6667 11.6667L14.5001 4.50008C13.7474 3.75101 12.7287 3.33049 11.6667 3.33049C10.6048 3.33049 9.58612 3.75101 8.83341 4.50008L4.50008 8.83341C3.75101 9.58612 3.33049 10.6048 3.33049 11.6667C3.33049 12.7287 3.75101 13.7474 4.50008 14.5001L11.6667 21.6667M13.3333 10L16.6667 6.66667M30 26.6667L33.3333 23.3333M28.3333 18.3333L35.5 25.5C37.0667 27.0667 37.0667 29.6 35.5 31.1667L31.1667 35.5C29.6 37.0667 27.0667 37.0667 25.5 35.5L18.3333 28.3333M25 8.33333L31.6667 15M35.2899 11.3532C36.1711 10.4722 36.6662 9.27727 36.6664 8.03124C36.6665 6.78522 36.1717 5.59017 35.2907 4.70899C34.4098 3.82781 33.2148 3.33268 31.9688 3.33252C30.7228 3.33236 29.5277 3.82719 28.6466 4.70815L6.40322 26.9565C6.01626 27.3423 5.73008 27.8174 5.56989 28.3398L3.36822 35.5932C3.32515 35.7373 3.3219 35.8904 3.35881 36.0362C3.39572 36.1821 3.47142 36.3152 3.57788 36.4215C3.68434 36.5278 3.81759 36.6033 3.96349 36.6399C4.10938 36.6766 4.26249 36.6731 4.40656 36.6298L11.6616 34.4298C12.1835 34.2711 12.6585 33.9866 13.0449 33.6015L35.2899 11.3532Z" stroke="var(--stroke-0, #2DA2DB)" stroke-width="2.5" stroke-linecap="round" stroke-linejoin="round"/>
</g>
</svg>
