<svg preserveAspectRatio="none" width="100%" height="100%" overflow="visible" style="display: block;" viewBox="0 0 40 40" fill="none" xmlns="http://www.w3.org/2000/svg">
<g id="box">
<path id="Vector" d="M9.92564 4.76622H30.0428C30.4671 4.76627 30.8737 4.85736 31.2626 5.03966C31.651 5.22156 31.9705 5.48033 32.2215 5.81603L34.6473 9.01427C34.8335 9.26076 34.9785 9.52968 35.0809 9.82189C35.1833 10.1138 35.2342 10.4156 35.2342 10.7272V32.4108C35.2342 33.1915 34.9596 33.8552 34.41 34.4029C33.8603 34.9507 33.1937 35.2242 32.41 35.2242H7.5897C6.80888 35.2242 6.14524 34.9506 5.59751 34.4029C5.04982 33.8553 4.7763 33.1915 4.77622 32.4108V10.7272C4.77626 10.4156 4.82559 10.1139 4.92466 9.82189C5.02373 9.5299 5.16946 9.26068 5.36216 9.01427V9.0133L7.73716 5.81603C7.98824 5.48028 8.3076 5.22156 8.69615 5.03966C9.08498 4.85736 9.49464 4.76625 9.92564 4.76622ZM7.56431 32.4352H32.4354V12.2408H7.56431V32.4352ZM15.9481 12.2906V22.0963L15.9842 22.0777L19.9999 20.069L24.0262 22.0777L24.0624 22.0963V12.2906H26.7811V24.2145C26.7811 24.7487 26.5626 25.1527 26.1249 25.4293C25.687 25.7055 25.239 25.7216 24.7772 25.4772H24.7762L20.0116 23.11L19.9999 23.1041L19.9891 23.11L15.2235 25.4772H15.2225C14.7607 25.7215 14.3141 25.7055 13.8797 25.4293C13.4455 25.1527 13.2284 24.7487 13.2284 24.2145V12.2906H15.9481ZM9.9481 7.56408L8.4481 9.48107L8.41587 9.52111H31.5428L31.5106 9.48107L29.993 7.56408L29.9862 7.55431H9.95493L9.9481 7.56408Z" fill="var(--fill-0, #2DA2DB)" stroke="var(--stroke-0, #2DA2DB)" stroke-width="0.05"/>
</g>
</svg>
