<svg preserveAspectRatio="none" width="100%" height="100%" overflow="visible" style="display: block;" viewBox="0 0 40 40" fill="none" xmlns="http://www.w3.org/2000/svg">
<g id="forklift">
<path id="Vector" d="M20 20H8.33333C7.44928 20 6.60143 20.3512 5.97631 20.9763C5.35119 21.6014 5 22.4493 5 23.3333V31.6667M5 31.6667C5 33.5076 6.49238 35 8.33333 35C10.1743 35 11.6667 33.5076 11.6667 31.6667M5 31.6667C5 29.8257 6.49238 28.3333 8.33333 28.3333C10.1743 28.3333 11.6667 29.8257 11.6667 31.6667M25 31.6667H36.6667M25 31.6667C25 33.5076 23.5076 35 21.6667 35C19.8257 35 18.3333 33.5076 18.3333 31.6667M25 31.6667C25 29.8257 23.5076 28.3333 21.6667 28.3333C19.8257 28.3333 18.3333 29.8257 18.3333 31.6667M26.6667 31.6667V3.33333M10 20V11.6667C10 10.7826 10.3512 9.93476 10.9763 9.30964C11.6014 8.68452 12.4493 8.33333 13.3333 8.33333H16.9533C17.8373 8.33352 18.685 8.68484 19.31 9.31L25.69 15.69C26.3152 16.315 26.6665 17.1627 26.6667 18.0467M11.6667 31.6667H18.3333" stroke="var(--stroke-0, #2DA2DB)" stroke-width="2.5" stroke-linecap="round" stroke-linejoin="round"/>
</g>
</svg>
