<svg preserveAspectRatio="none" width="100%" height="100%" overflow="visible" style="display: block;" viewBox="0 0 40 40" fill="none" xmlns="http://www.w3.org/2000/svg">
<g id="explosion">
<g id="Vector">
<path d="M20.0506 1.97542C20.4044 1.97544 20.7524 2.04894 21.0946 2.19612C21.4368 2.34306 21.7491 2.5528 22.0311 2.82502L25.6229 6.40706H30.744C31.5341 6.40711 32.2062 6.68481 32.7606 7.23909C33.315 7.79353 33.5926 8.46639 33.5926 9.25667V14.3592L37.2166 18.0106C37.4997 18.2939 37.7051 18.6071 37.8328 18.949C37.9605 19.2908 38.0242 19.6384 38.0242 19.992C38.0242 20.3459 37.9606 20.6968 37.8328 21.0438C37.7051 21.3907 37.4997 21.7058 37.2166 21.9891L33.5926 25.6405V30.744C33.5926 31.5314 33.315 32.2013 32.7606 32.7537C32.2062 33.3061 31.5341 33.5828 30.744 33.5828H25.6229L22.0311 37.1336C21.7492 37.3991 21.4369 37.5998 21.0946 37.7362C20.7521 37.8728 20.4031 37.9412 20.0487 37.9412C19.6945 37.9412 19.3446 37.8728 18.9989 37.7362C18.6534 37.5998 18.3378 37.3991 18.0526 37.1336L14.3836 33.5828H9.25667C8.46917 33.5828 7.79842 33.3062 7.24592 32.7537C6.69359 32.2013 6.41785 31.5313 6.4178 30.744V25.6405L2.78303 21.9891C2.50008 21.7058 2.29457 21.3928 2.16682 21.0506C2.03911 20.7088 1.97542 20.3607 1.97542 20.0067C1.97542 19.6528 2.03908 19.3025 2.16682 18.9559C2.2946 18.6092 2.49999 18.2939 2.78303 18.0106L6.4178 14.3592V9.25667C6.4178 8.46645 6.69351 7.79351 7.24592 7.23909C7.79842 6.68464 8.46917 6.40706 9.25667 6.40706H14.3592L18.0106 2.78303C18.2939 2.5 18.6163 2.2946 18.9774 2.16682C19.3385 2.03904 19.6964 1.97542 20.0506 1.97542ZM15.5682 9.25667H9.25667V15.5574L4.82405 19.9998L9.25667 24.4324V30.744H15.5262L20.0418 35.0926L24.4383 30.744H30.744V24.4324L35.1854 19.9998L30.744 15.5574V9.25667H24.4422L20.0418 4.81428L15.5682 9.25667ZM20.0028 9.85823C20.2597 9.85823 20.4858 9.95564 20.6805 10.1512L23.1268 12.5994H26.2098C26.5469 12.5994 26.8301 12.7133 27.0584 12.9412C27.2864 13.1695 27.4002 13.4527 27.4002 13.7899V16.8729L29.6922 19.1649C29.9288 19.4001 30.0466 19.6782 30.0467 19.9989C30.0467 20.3194 29.9288 20.595 29.6922 20.825L27.4002 23.117V26.2C27.4002 26.5372 27.2865 26.8203 27.0584 27.0487C26.8301 27.2766 26.547 27.3905 26.2098 27.3905H23.1268L20.8348 29.6405C20.5995 29.8559 20.3216 29.9703 20.0008 29.9842C19.6803 29.9981 19.4046 29.898 19.1746 29.6824L16.7996 27.3905H13.7996C13.4666 27.3904 13.185 27.2764 12.9549 27.0487C12.7249 26.8203 12.6092 26.5372 12.6092 26.2V23.117L10.3182 20.825C10.0815 20.595 9.96272 20.3194 9.96272 19.9989C9.9628 19.6782 10.0816 19.4001 10.3182 19.1649L12.6092 16.8729V13.7899C12.6092 13.4527 12.724 13.1695 12.952 12.9412C13.1802 12.7135 13.4628 12.5995 13.7996 12.5994H16.8865L19.3201 10.1512C19.5179 9.95568 19.7456 9.85827 20.0028 9.85823Z" fill="var(--fill-0, #2DA2DB)"/>
<path d="M20.0506 1.97542C20.4044 1.97544 20.7524 2.04894 21.0946 2.19612C21.4368 2.34306 21.7491 2.5528 22.0311 2.82502L25.6229 6.40706H30.744C31.5341 6.40711 32.2062 6.68481 32.7606 7.23909C33.315 7.79353 33.5926 8.46639 33.5926 9.25667V14.3592L37.2166 18.0106C37.4997 18.2939 37.7051 18.6071 37.8328 18.949C37.9605 19.2908 38.0242 19.6384 38.0242 19.992C38.0242 20.3459 37.9606 20.6968 37.8328 21.0438C37.7051 21.3907 37.4997 21.7058 37.2166 21.9891L33.5926 25.6405V30.744C33.5926 31.5314 33.315 32.2013 32.7606 32.7537C32.2062 33.3061 31.5341 33.5828 30.744 33.5828H25.6229L22.0311 37.1336C21.7492 37.3991 21.4369 37.5998 21.0946 37.7362C20.7521 37.8728 20.4031 37.9412 20.0487 37.9412C19.6945 37.9412 19.3446 37.8728 18.9989 37.7362C18.6534 37.5998 18.3378 37.3991 18.0526 37.1336L14.3836 33.5828H9.25667C8.46917 33.5828 7.79842 33.3062 7.24592 32.7537C6.69359 32.2013 6.41785 31.5313 6.4178 30.744V25.6405L2.78303 21.9891C2.50008 21.7058 2.29457 21.3928 2.16682 21.0506C2.03911 20.7088 1.97542 20.3607 1.97542 20.0067C1.97542 19.6528 2.03908 19.3025 2.16682 18.9559C2.2946 18.6092 2.49999 18.2939 2.78303 18.0106L6.4178 14.3592V9.25667C6.4178 8.46645 6.69351 7.79351 7.24592 7.23909C7.79842 6.68464 8.46917 6.40706 9.25667 6.40706H14.3592L18.0106 2.78303C18.2939 2.5 18.6163 2.2946 18.9774 2.16682C19.3385 2.03904 19.6964 1.97542 20.0506 1.97542ZM15.5682 9.25667H9.25667V15.5574L4.82405 19.9998L9.25667 24.4324V30.744H15.5262L20.0418 35.0926L24.4383 30.744H30.744V24.4324L35.1854 19.9998L30.744 15.5574V9.25667H24.4422L20.0418 4.81428L15.5682 9.25667ZM20.0028 9.85823C20.2597 9.85823 20.4858 9.95564 20.6805 10.1512L23.1268 12.5994H26.2098C26.5469 12.5994 26.8301 12.7133 27.0584 12.9412C27.2864 13.1695 27.4002 13.4527 27.4002 13.7899V16.8729L29.6922 19.1649C29.9288 19.4001 30.0466 19.6782 30.0467 19.9989C30.0467 20.3194 29.9288 20.595 29.6922 20.825L27.4002 23.117V26.2C27.4002 26.5372 27.2865 26.8203 27.0584 27.0487C26.8301 27.2766 26.547 27.3905 26.2098 27.3905H23.1268L20.8348 29.6405C20.5995 29.8559 20.3216 29.9703 20.0008 29.9842C19.6803 29.9981 19.4046 29.898 19.1746 29.6824L16.7996 27.3905H13.7996C13.4666 27.3904 13.185 27.2764 12.9549 27.0487C12.7249 26.8203 12.6092 26.5372 12.6092 26.2V23.117L10.3182 20.825C10.0815 20.595 9.96272 20.3194 9.96272 19.9989C9.9628 19.6782 10.0816 19.4001 10.3182 19.1649L12.6092 16.8729V13.7899C12.6092 13.4527 12.724 13.1695 12.952 12.9412C13.1802 12.7135 13.4628 12.5995 13.7996 12.5994H16.8865L19.3201 10.1512C19.5179 9.95568 19.7456 9.85827 20.0028 9.85823Z" stroke="var(--stroke-0, #2DA2DB)"/>
</g>
</g>
</svg>
