<svg width="100%" height="100%" overflow="visible" style="display: block;" viewBox="0 0 40 40" fill="none" xmlns="http://www.w3.org/2000/svg">
<g id="article_person">
<path id="Vector" d="M7.5897 4.76622H32.41C33.1725 4.76622 33.8342 5.04556 34.3944 5.60607C34.9547 6.16623 35.2342 6.82708 35.2342 7.58947V17.5172C35.2342 17.9185 35.0974 18.2427 34.8251 18.4928C34.5517 18.7437 34.218 18.8696 33.8221 18.8697C33.4262 18.8697 33.0964 18.7361 32.8319 18.4684C32.5676 18.2005 32.4354 17.8698 32.4354 17.4752V7.56505H7.56431V32.4352H16.4735C16.8676 32.4352 17.1978 32.5703 17.4657 32.8395C17.7336 33.1087 17.868 33.441 17.868 33.8375C17.8679 34.2336 17.734 34.5627 17.4667 34.8268C17.1988 35.0914 16.8678 35.2242 16.4735 35.2242H7.5897C6.83005 35.2242 6.17138 34.9457 5.61314 34.3873C5.05466 33.8291 4.77631 33.1704 4.77622 32.4108V7.58947C4.77625 6.82697 5.05462 6.16626 5.61314 5.60607C6.17143 5.04557 6.82997 4.76622 7.5897 4.76622ZM28.7362 28.2272C29.8817 28.2272 30.9869 28.345 32.0506 28.5807C33.1137 28.8163 34.1651 29.2148 35.204 29.776H35.2049C35.7825 30.0436 36.2341 30.4529 36.5604 31.0035C36.8864 31.5543 37.0497 32.2045 37.0497 32.9547V33.8297C37.0496 34.224 36.9139 34.554 36.6424 34.8219C36.3706 35.0899 36.0387 35.2242 35.6454 35.2242H21.8124C21.4182 35.2242 21.088 35.0897 20.8202 34.8219C20.5522 34.5541 20.4179 34.224 20.4178 33.8297V32.9547C20.4178 32.2053 20.5803 31.5606 20.9032 31.0201C21.2262 30.4799 21.6759 30.065 22.2538 29.776H22.2547C23.2874 29.2425 24.3396 28.8507 25.411 28.6012C26.4824 28.3517 27.5908 28.2272 28.7362 28.2272ZM12.8417 25.8502H20.9256C21.2734 25.8502 21.5635 25.9674 21.7977 26.2018C22.0322 26.4363 22.1502 26.7261 22.1502 27.0729C22.1502 27.4193 22.0323 27.7097 21.7977 27.9459C21.5635 28.1817 21.2734 28.3004 20.9256 28.3004H12.8407C12.4925 28.3004 12.2018 28.1839 11.9676 27.9527C11.7337 27.7216 11.617 27.4338 11.617 27.0875C11.617 26.7409 11.7341 26.4489 11.9686 26.2096C12.2034 25.9701 12.4939 25.8502 12.8417 25.8502ZM28.7342 17.6647C29.8741 17.6647 30.8362 18.0555 31.6219 18.8375C32.4073 19.6198 32.7996 20.582 32.7997 21.7252C32.7997 22.8687 32.4073 23.8308 31.6219 24.6129C30.8362 25.3953 29.8742 25.7867 28.7342 25.7867C27.5943 25.7867 26.6323 25.3953 25.8465 24.6129C25.0609 23.8308 24.6678 22.8688 24.6678 21.7252C24.6679 20.582 25.0609 19.6198 25.8465 18.8375C26.6322 18.0555 27.5943 17.6647 28.7342 17.6647ZM12.8417 18.775H20.9247C21.2725 18.775 21.5632 18.8906 21.7977 19.1217C22.0324 19.3528 22.1502 19.6429 22.1502 19.9928C22.1502 20.299 22.0604 20.5612 21.8807 20.7799L21.7977 20.8707C21.5632 21.1069 21.2725 21.2252 20.9247 21.2252H12.8417C12.4937 21.2252 12.2034 21.1088 11.9686 20.8776C11.7343 20.6465 11.617 20.3572 11.617 20.0074C11.6171 19.6574 11.7341 19.3654 11.9686 19.1295C12.2034 18.8933 12.4938 18.775 12.8417 18.775ZM12.8446 11.6901H27.1688C27.5097 11.6902 27.7988 11.807 28.037 12.0416C28.2748 12.2762 28.3934 12.5649 28.3934 12.9078C28.3933 13.2577 28.2746 13.5499 28.037 13.7858C27.7988 14.022 27.5096 14.1401 27.1688 14.1402H12.8446C12.4956 14.1402 12.2048 14.0237 11.9696 13.7926C11.7347 13.5615 11.6171 13.2739 11.617 12.9274C11.617 12.5809 11.7343 12.2881 11.9696 12.0485C12.2048 11.8095 12.496 11.6901 12.8446 11.6901Z" fill="var(--fill-0, #2DA2DB)" stroke="var(--stroke-0, #2DA2DB)" stroke-width="0.05"/>
</g>
</svg>
