<svg preserveAspectRatio="none" width="100%" height="100%" overflow="visible" style="display: block;" viewBox="0 0 40 40" fill="none" xmlns="http://www.w3.org/2000/svg">
<g id="drill">
<path id="Vector" d="M5 30C4.55797 30 4.13405 30.1756 3.82149 30.4882C3.50893 30.8007 3.33333 31.2246 3.33333 31.6667C3.33333 32.9927 3.86012 34.2645 4.7978 35.2022C5.73548 36.1399 7.00725 36.6667 8.33333 36.6667H16.6667C17.1087 36.6667 17.5326 36.4911 17.8452 36.1785C18.1577 35.866 18.3333 35.442 18.3333 35V31.6667C18.3333 31.2246 18.1577 30.8007 17.8452 30.4882C17.5326 30.1756 17.1087 30 16.6667 30H5ZM5 30L8.33333 16.6667M21.6667 16.6667H6.66667C5.78261 16.6667 4.93477 16.3155 4.30964 15.6904C3.68452 15.0652 3.33333 14.2174 3.33333 13.3333V6.66667C3.33333 5.78261 3.68452 4.93477 4.30964 4.30964C4.93477 3.68452 5.78261 3.33333 6.66667 3.33333H21.6667C22.1087 3.33333 22.5326 3.50893 22.8452 3.82149C23.1577 4.13405 23.3333 4.55797 23.3333 5V15C23.3333 15.442 23.1577 15.8659 22.8452 16.1785C22.5326 16.4911 22.1087 16.6667 21.6667 16.6667ZM21.6667 16.6667L20.3167 22.07C20.2267 22.4307 20.0187 22.751 19.7258 22.9799C19.4328 23.2088 19.0718 23.3332 18.7 23.3333H13.3333M23.3333 6.66667H28.3333C28.7754 6.66667 29.1993 6.84226 29.5118 7.15482C29.8244 7.46738 30 7.89131 30 8.33333V11.6667C30 12.1087 29.8244 12.5326 29.5118 12.8452C29.1993 13.1577 28.7754 13.3333 28.3333 13.3333H23.3333M30 10H36.6667M11.6667 30L15 16.6667" stroke="var(--stroke-0, #2DA2DB)" stroke-width="3" stroke-linecap="round" stroke-linejoin="round"/>
</g>
</svg>
