<svg preserveAspectRatio="none" width="100%" height="100%" overflow="visible" style="display: block;" viewBox="0 0 40 40" fill="none" xmlns="http://www.w3.org/2000/svg">
<g id="explosion">
<path id="Vector" d="M16.8 27.3904L19.175 29.6821C19.405 29.8976 19.6803 29.9985 20.0008 29.9846C20.3217 29.9707 20.5997 29.856 20.835 29.6404L23.1267 27.3904H26.21C26.5472 27.3904 26.83 27.2764 27.0583 27.0483C27.2864 26.82 27.4004 26.5372 27.4004 26.2V23.1167L29.6921 20.825C29.9287 20.595 30.0471 20.3197 30.0471 19.9992C30.0471 19.6783 29.9287 19.4003 29.6921 19.165L27.4004 16.8733V13.79C27.4004 13.4528 27.2864 13.17 27.0583 12.9417C26.83 12.7136 26.5472 12.5996 26.21 12.5996H23.1267L20.6804 10.1513C20.4857 9.95569 20.2599 9.85792 20.0029 9.85792C19.7457 9.85792 19.5182 9.95569 19.3204 10.1513L16.8867 12.5996H13.8C13.4628 12.5996 13.18 12.7136 12.9517 12.9417C12.7236 13.17 12.6096 13.4528 12.6096 13.79V16.8733L10.3179 19.165C10.0812 19.4003 9.96292 19.6783 9.96292 19.9992C9.96292 20.3197 10.0812 20.595 10.3179 20.825L12.6096 23.1167V26.2C12.6096 26.5372 12.7246 26.82 12.9546 27.0483C13.1849 27.2764 13.4667 27.3904 13.8 27.3904H16.8ZM14.3837 33.5825H9.25625C8.46875 33.5825 7.79875 33.3063 7.24625 32.7538C6.69375 32.2013 6.4175 31.5313 6.4175 30.7438V25.6404L2.78333 21.9892C2.50028 21.7058 2.29486 21.3931 2.16708 21.0508C2.03931 20.7089 1.97542 20.3608 1.97542 20.0067C1.97542 19.6528 2.03931 19.3025 2.16708 18.9558C2.29486 18.6092 2.50028 18.2942 2.78333 18.0108L6.4175 14.3596V9.25625C6.4175 8.46597 6.69375 7.79361 7.24625 7.23917C7.79875 6.68472 8.46875 6.4075 9.25625 6.4075H14.3596L18.0108 2.78333C18.2942 2.50028 18.6164 2.29486 18.9775 2.16708C19.3386 2.03931 19.6962 1.97542 20.0504 1.97542C20.4043 1.97542 20.7524 2.04903 21.0946 2.19625C21.4368 2.3432 21.7489 2.55278 22.0308 2.825L25.6233 6.4075H30.7437C31.534 6.4075 32.2064 6.68472 32.7608 7.23917C33.3153 7.79361 33.5925 8.46597 33.5925 9.25625V14.3596L37.2167 18.0108C37.4997 18.2942 37.7051 18.6068 37.8329 18.9487C37.9607 19.2907 38.0246 19.6386 38.0246 19.9925C38.0246 20.3464 37.9607 20.6968 37.8329 21.0437C37.7051 21.3907 37.4997 21.7058 37.2167 21.9892L33.5925 25.6404V30.7438C33.5925 31.5313 33.3153 32.2013 32.7608 32.7538C32.2064 33.3063 31.534 33.5825 30.7437 33.5825H25.6233L22.0308 37.1333C21.7489 37.3989 21.4367 37.5999 21.0942 37.7363C20.7517 37.8729 20.4032 37.9413 20.0487 37.9413C19.6946 37.9413 19.3446 37.8729 18.9987 37.7363C18.6532 37.5999 18.3378 37.3989 18.0525 37.1333L14.3837 33.5825ZM15.5262 30.7438L20.0417 35.0925L24.4388 30.7438H30.7437V24.4321L35.1858 20L30.7437 15.5579V9.25625H24.4421L20.0417 4.81417L15.5679 9.25625H9.25625V15.5579L4.82417 20L9.25625 24.4321V30.7438H15.5262Z" fill="var(--fill-0, #2DA2DB)"/>
</g>
</svg>
