<svg preserveAspectRatio="none" width="100%" height="100%" overflow="visible" style="display: block;" viewBox="0 0 20 20" fill="none" xmlns="http://www.w3.org/2000/svg">
<g id="forklift">
<path id="Vector" d="M10 10H4.16667C3.72464 10 3.30072 10.1756 2.98816 10.4882C2.67559 10.8007 2.5 11.2246 2.5 11.6667V15.8333M2.5 15.8333C2.5 16.7538 3.24619 17.5 4.16667 17.5C5.08714 17.5 5.83333 16.7538 5.83333 15.8333M2.5 15.8333C2.5 14.9129 3.24619 14.1667 4.16667 14.1667C5.08714 14.1667 5.83333 14.9129 5.83333 15.8333M12.5 15.8333H18.3333M12.5 15.8333C12.5 16.7538 11.7538 17.5 10.8333 17.5C9.91286 17.5 9.16667 16.7538 9.16667 15.8333M12.5 15.8333C12.5 14.9129 11.7538 14.1667 10.8333 14.1667C9.91286 14.1667 9.16667 14.9129 9.16667 15.8333M13.3333 15.8333V1.66667M5 10V5.83333C5 5.39131 5.17559 4.96738 5.48816 4.65482C5.80072 4.34226 6.22464 4.16667 6.66667 4.16667H8.47667C8.91866 4.16676 9.34251 4.34242 9.655 4.655L12.845 7.845C13.1576 8.15749 13.3332 8.58134 13.3333 9.02333M5.83333 15.8333H9.16667" stroke="var(--stroke-0, #4CC4FE)" stroke-width="1.5" stroke-linecap="round" stroke-linejoin="round"/>
</g>
</svg>
