<svg preserveAspectRatio="none" width="100%" height="100%" overflow="visible" style="display: block;" viewBox="0 0 48 48" fill="none" xmlns="http://www.w3.org/2000/svg">
<g id="forklift">
<path id="Vector" d="M24 24H10C8.93913 24 7.92172 24.4214 7.17157 25.1716C6.42143 25.9217 6 26.9391 6 28V38M6 38C6 40.2091 7.79086 42 10 42C12.2091 42 14 40.2091 14 38M6 38C6 35.7909 7.79086 34 10 34C12.2091 34 14 35.7909 14 38M30 38H44M30 38C30 40.2091 28.2091 42 26 42C23.7909 42 22 40.2091 22 38M30 38C30 35.7909 28.2091 34 26 34C23.7909 34 22 35.7909 22 38M32 38V4M12 24V14C12 12.9391 12.4214 11.9217 13.1716 11.1716C13.9217 10.4214 14.9391 10 16 10H20.344C21.4048 10.0002 22.422 10.4218 23.172 11.172L30.828 18.828C31.5782 19.578 31.9998 20.5952 32 21.656M14 38H22" stroke="var(--stroke-0, #2DA2DB)" stroke-width="3" stroke-linecap="round" stroke-linejoin="round"/>
</g>
</svg>
