<svg preserveAspectRatio="none" width="100%" height="100%" overflow="visible" style="display: block;" viewBox="0 0 20 20" fill="none" xmlns="http://www.w3.org/2000/svg">
<g id="hard-hat">
<path id="Vector" d="M8.33333 8.33333V4.16667C8.33333 3.94565 8.42113 3.73369 8.57741 3.57741C8.73369 3.42113 8.94565 3.33333 9.16667 3.33333H10.8333C11.0543 3.33333 11.2663 3.42113 11.4226 3.57741C11.5789 3.73369 11.6667 3.94565 11.6667 4.16667V8.33333M11.6667 5C12.9927 5 14.2645 5.52678 15.2022 6.46447C16.1399 7.40215 16.6667 8.67392 16.6667 10V12.5M3.33333 12.5V10C3.33333 8.67392 3.86012 7.40215 4.7978 6.46447C5.73548 5.52678 7.00725 5 8.33333 5M2.5 12.5H17.5C17.9602 12.5 18.3333 12.8731 18.3333 13.3333V15C18.3333 15.4602 17.9602 15.8333 17.5 15.8333H2.5C2.03976 15.8333 1.66667 15.4602 1.66667 15V13.3333C1.66667 12.8731 2.03976 12.5 2.5 12.5Z" stroke="var(--stroke-0, #2DA2DB)" stroke-width="1.5" stroke-linecap="round" stroke-linejoin="round"/>
</g>
</svg>
