<svg preserveAspectRatio="none" width="100%" height="100%" overflow="visible" style="display: block;" viewBox="0 0 32 32" fill="none" xmlns="http://www.w3.org/2000/svg">
<g id="handyman">
<path id="Vector" d="M20.3924 17.4335C20.4052 17.4335 20.4129 17.4349 20.4158 17.4355C20.4176 17.4358 20.419 17.4352 20.4197 17.4355V17.4364L20.4822 17.4892L28.6668 25.6825H28.6678C28.6983 25.713 28.714 25.7334 28.7205 25.7431C28.7212 25.7474 28.7225 25.7568 28.7225 25.7714L28.7195 25.7939C28.7178 25.7977 28.7068 25.8202 28.6678 25.8593L25.8182 28.7089C25.7713 28.7558 25.7541 28.7581 25.7713 28.7509C25.7695 28.7514 25.7668 28.7522 25.7635 28.7528C25.7559 28.7542 25.7421 28.7558 25.7215 28.7558C25.6978 28.7558 25.6859 28.7517 25.6805 28.7499C25.6726 28.7444 25.6568 28.7321 25.6336 28.7089L17.4471 20.5224C17.423 20.4983 17.4104 20.4822 17.4051 20.4745C17.4033 20.469 17.4002 20.4572 17.4002 20.4345C17.4002 20.4054 17.4044 20.3899 17.408 20.3808V20.3798C17.4009 20.3978 17.4024 20.3825 17.4471 20.3378L20.2947 17.4882L20.2957 17.4892C20.3462 17.4387 20.3681 17.4318 20.3572 17.4364C20.356 17.437 20.3564 17.4362 20.3602 17.4355C20.3645 17.4346 20.375 17.4335 20.3924 17.4335ZM10.9324 18.2997L10.907 18.3251L4.16095 25.0634L3.43536 25.788L4.15997 26.4774V26.4784L5.54572 27.8642L6.23517 28.5878L6.95978 27.8642L13.7059 21.1259L13.7322 21.0995V21.3251L6.34161 28.7089C6.32363 28.7269 6.30934 28.7361 6.30158 28.7421C6.29273 28.7438 6.27719 28.748 6.25275 28.748C6.21954 28.7479 6.18937 28.7426 6.15802 28.7323C6.15333 28.7289 6.14368 28.7219 6.13068 28.7089L3.31525 25.8925L3.30743 25.8847L3.29865 25.8769C3.29351 25.8719 3.29059 25.8672 3.2879 25.8642C3.28171 25.8427 3.2762 25.8158 3.27618 25.7792C3.27618 25.7487 3.2807 25.7291 3.28497 25.7157C3.29004 25.709 3.29873 25.6971 3.31427 25.6815L10.7059 18.2997H10.9324ZM18.2918 19.7108L17.5858 20.4179L18.2918 21.1249L25.0223 27.8632L25.7293 28.5712L28.5291 25.7714L27.8231 25.0644L21.0926 18.3261L20.3846 17.6181L18.2918 19.7108ZM9.04572 7.05948V9.00674L15.9744 15.9355L21.7459 10.164L21.0389 9.45694L19.4735 7.89248L19.6404 7.72647V7.73135L20.6307 6.74112L22.3465 5.03311H22.3397L22.5067 4.86514L27.5955 9.95987V9.96084C27.7901 10.1585 27.9536 10.3762 28.0867 10.6161L28.2098 10.8632C28.3507 11.1809 28.4227 11.5196 28.4227 11.8886C28.4226 12.2121 28.3687 12.5191 28.2684 12.8163L25.5887 10.1366L24.8817 10.8437L23.6736 12.0507L22.6082 10.9853L21.9002 10.2782L21.1932 10.9853L14.0252 18.1542L13.9998 18.1796V18.0331H13.8768L13.9031 18.0067L15.1463 16.7646L15.8533 16.0575L15.1463 15.3505L9.21759 9.4208L8.92462 9.12881H6.97736L3.6424 5.79385L5.71173 3.72549L9.04572 7.05948ZM19.6404 5.03311H17.2195L19.6404 2.60733V5.03311Z" stroke="var(--stroke-0, #1E729C)" stroke-width="2"/>
</g>
</svg>
