<svg preserveAspectRatio="none" width="100%" height="100%" overflow="visible" style="display: block;" viewBox="0 0 48 48" fill="none" xmlns="http://www.w3.org/2000/svg">
<g id="handyman">
<path id="Vector" d="M38.5825 44.6335C38.3585 44.6335 38.1493 44.5943 37.955 44.516C37.7603 44.4373 37.5717 44.3067 37.389 44.124L25.11 31.8445C24.9273 31.6618 24.7967 31.4733 24.718 31.279C24.6393 31.0843 24.6 30.875 24.6 30.651C24.6 30.427 24.6393 30.2158 24.718 30.0175C24.7967 29.8188 24.9273 29.6282 25.11 29.4455L29.3835 25.1715C29.5662 24.9892 29.7548 24.8567 29.9495 24.774C30.1442 24.6913 30.3573 24.65 30.589 24.65C30.813 24.65 31.0223 24.6913 31.217 24.774C31.4113 24.8567 31.5998 24.9892 31.7825 25.1715L44.062 37.463C44.2447 37.6457 44.3773 37.8323 44.46 38.023C44.5423 38.2133 44.5835 38.4245 44.5835 38.6565C44.5835 38.8805 44.5403 39.0917 44.454 39.29C44.3673 39.4887 44.2367 39.6753 44.062 39.85L39.788 44.124C39.6053 44.3067 39.4168 44.4373 39.2225 44.516C39.0278 44.5943 38.8145 44.6335 38.5825 44.6335ZM38.5945 40.735L40.673 38.6565L30.577 28.549L28.499 30.627L38.5945 40.735ZM9.3795 44.622C9.1555 44.622 8.93783 44.5847 8.7265 44.51C8.5155 44.4353 8.31867 44.3067 8.136 44.124L3.912 39.9C3.72933 39.7253 3.60067 39.5343 3.526 39.327C3.45133 39.12 3.414 38.9005 3.414 38.6685C3.414 38.4445 3.45133 38.2333 3.526 38.035C3.60067 37.8363 3.72933 37.6457 3.912 37.463L15.437 25.95H19.7945L21.6585 24.086L12.765 15.1925H9.8435L3.3425 8.6915L8.5675 3.4665L15.0685 9.9675V12.889L23.962 21.7825L30.498 15.2465L27.088 11.837L29.888 9.049H24.238L23.2305 8.0295L29.9415 1.3065L30.961 2.338V7.976L33.761 5.176L42.462 13.889C42.978 14.413 43.3857 15.012 43.685 15.686C43.984 16.3597 44.1335 17.0752 44.1335 17.8325C44.1335 18.5472 44.0093 19.2347 43.761 19.895C43.5123 20.5557 43.172 21.1518 42.74 21.6835L38.3825 17.326L35.511 20.198L32.851 17.538L22.098 28.2915V32.611L10.573 44.124C10.3903 44.3067 10.2037 44.4353 10.013 44.51C9.82233 44.5847 9.61117 44.622 9.3795 44.622ZM9.3795 40.735L19.499 30.627V28.549H17.4205L7.301 38.6565L9.3795 40.735ZM9.3795 40.735L7.301 38.6565L8.365 39.6705L9.3795 40.735Z" fill="var(--fill-0, #2DA2DB)"/>
</g>
</svg>
