<svg preserveAspectRatio="none" width="100%" height="100%" overflow="visible" style="display: block;" viewBox="0 0 48 48" fill="none" xmlns="http://www.w3.org/2000/svg">
<g id="lightbulb">
<path id="Vector" d="M23.9995 44.55C22.8425 44.55 21.8605 44.1383 21.0535 43.315C20.2462 42.492 19.8425 41.482 19.8425 40.285H28.1575C28.1575 41.482 27.7538 42.492 26.9465 43.315C26.1388 44.1383 25.1565 44.55 23.9995 44.55ZM17.3875 37.113C16.9392 37.113 16.5652 36.9617 16.2655 36.659C15.9662 36.3563 15.8165 35.9813 15.8165 35.534C15.8165 35.0897 15.967 34.7178 16.268 34.4185C16.5693 34.1192 16.9427 33.9695 17.388 33.9695H30.624C31.066 33.9695 31.4365 34.1222 31.7355 34.4275C32.0342 34.7328 32.1835 35.1075 32.1835 35.5515C32.1835 35.9955 32.0342 36.3668 31.7355 36.6655C31.4365 36.9638 31.066 37.113 30.624 37.113H17.3875ZM16.0665 30.848C13.8185 29.3827 12.029 27.5498 10.698 25.3495C9.36667 23.1495 8.701 20.666 8.701 17.899C8.701 13.7547 10.213 10.1687 13.237 7.141C16.2613 4.11367 19.8478 2.6 23.9965 2.6C28.1452 2.6 31.7347 4.11367 34.765 7.141C37.7957 10.1687 39.311 13.7547 39.311 17.899C39.311 20.6627 38.6537 23.1455 37.339 25.3475C36.0247 27.5492 34.2228 29.3827 31.9335 30.848H16.0665ZM17.3015 27.4415H30.7355C32.3302 26.3845 33.5883 25.0153 34.51 23.334C35.4317 21.6527 35.8925 19.8418 35.8925 17.9015C35.8925 14.6315 34.7275 11.8335 32.3975 9.5075C30.0672 7.1815 27.268 6.0185 24 6.0185C20.732 6.0185 17.9328 7.1815 15.6025 9.5075C13.2725 11.8335 12.1075 14.6315 12.1075 17.9015C12.1075 19.8418 12.5702 21.6522 13.4955 23.3325C14.4208 25.0132 15.6895 26.3828 17.3015 27.4415Z" fill="var(--fill-0, #2DA2DB)"/>
</g>
</svg>
