<svg preserveAspectRatio="none" width="100%" height="100%" overflow="visible" style="display: block;" viewBox="0 0 40 25.0255" fill="none" xmlns="http://www.w3.org/2000/svg">
<g id="Group">
<path id="Vector" d="M10.0615 14.4867C12.8099 14.4868 15.0379 16.7144 15.038 19.4633C15.038 22.2112 12.8101 24.4397 10.0615 24.4398C7.31328 24.4398 5.0849 22.2113 5.0849 19.4633C5.08508 16.7143 7.31346 14.4867 10.0615 14.4867ZM10.0615 16.5306C8.44198 16.5306 7.12907 17.8438 7.12884 19.4633C7.12884 21.0825 8.44191 22.3959 10.0615 22.3959C11.6815 22.3958 12.9941 21.0824 12.9941 19.4633C12.9938 17.8439 11.6815 16.5307 10.0615 16.5306Z" fill="var(--fill-0, #2DA2DB)" stroke="var(--stroke-0, #2DA2DB)" stroke-width="1.17188"/>
<path id="Vector_2" d="M30.3474 13.9008C27.2752 13.9008 24.785 16.3909 24.785 19.4636C24.785 22.5353 27.2752 25.0255 30.3474 25.0255C33.4196 25.0255 35.9098 22.5353 35.9098 19.4636C35.9098 16.3909 33.4196 13.9008 30.3474 13.9008ZM30.3474 21.81C29.0514 21.81 28.0006 20.7592 28.0006 19.4637C28.0006 18.1677 29.0514 17.1169 30.3474 17.1169C31.6435 17.1169 32.6947 18.1677 32.6947 19.4637C32.6948 20.7592 31.6435 21.81 30.3474 21.81Z" fill="var(--fill-0, #2DA2DB)"/>
<path id="Vector_3" d="M39.06 9.15498L36.1808 5.62495C35.3881 4.65331 34.2008 4.08987 32.9466 4.08987H25.7675V10.1432H24.1305V9.65271V3.10783V2.61736H31.1658V0H21.1856V2.61744V3.10791H0V10.1433L13.2402 12.6562C15.8033 13.8576 17.5872 16.4553 17.5872 19.4685C17.5872 19.5239 17.58 19.5767 17.5794 19.6316H22.8298C22.8293 19.5768 22.8215 19.5239 22.8215 19.4685C22.8215 15.3187 26.1979 11.9423 30.3473 11.9423C34.1066 11.9423 37.2218 14.7159 37.7759 18.3225H38.6088C39.3771 18.3225 40 17.6996 40 16.9313V11.7927C40.0001 10.8313 39.668 9.89951 39.06 9.15498ZM7.01665 9.45349L4.41681 9.21396V5.07128H7.01665V9.45349ZM12.7839 10.4795L10.1841 10.2389V5.07128H12.7839V10.4795ZM18.5507 11.5106L15.9508 11.2706V5.07136H18.5507V11.5106ZM28.8102 9.7174V6.44496H33.045C33.4159 6.44496 33.7626 6.60949 33.997 6.8966L36.2978 9.7174H28.8102Z" fill="var(--fill-0, #2DA2DB)"/>
</g>
</svg>
