<svg preserveAspectRatio="none" width="100%" height="100%" overflow="visible" style="display: block;" viewBox="0 0 32 32" fill="none" xmlns="http://www.w3.org/2000/svg">
<g id="destruction">
<g id="Vector">
<path d="M25.7303 18.7388C26.4142 18.7388 26.9978 18.9794 27.4813 19.4614C27.9651 19.9434 28.2069 20.5257 28.2069 21.2075V27.064C28.2068 27.7427 27.965 28.3236 27.4813 28.8071C26.9978 29.2906 26.4143 29.5327 25.7303 29.5327H6.26938C5.59062 29.5326 5.0097 29.2906 4.52622 28.8071C4.04273 28.3236 3.8007 27.7427 3.80063 27.064V21.2075C3.80063 20.5257 4.04266 19.9434 4.52622 19.4614C5.00966 18.9794 5.59072 18.7388 6.26938 18.7388H25.7303ZM6.07211 27.2612H25.9286V21.0093H6.07211V27.2612ZM17.9764 2.80615C18.1318 2.73098 18.2952 2.71708 18.4666 2.76415C18.638 2.81121 18.792 2.88824 18.9286 2.9956C19.0654 3.10313 19.1518 3.25675 19.1873 3.45556L20.1639 9.36279L25.8456 7.77001C26.0416 7.7149 26.2221 7.72712 26.3866 7.80712C26.5511 7.88688 26.6835 7.99062 26.7831 8.11767C26.8824 8.24469 26.9392 8.39152 26.953 8.55712C26.9666 8.72242 26.9124 8.89072 26.7909 9.06201L23.3446 14.0015L24.9637 14.936C25.2182 15.0947 25.3775 15.3203 25.4413 15.6118C25.5052 15.9035 25.4553 16.1796 25.2918 16.4399C25.1283 16.7002 24.8952 16.8605 24.5936 16.9214C24.292 16.9821 24.0111 16.9327 23.7508 16.772L21.3573 15.2212C21.0791 15.0501 20.9125 14.8098 20.8582 14.5005C20.8042 14.1911 20.8662 13.898 21.0428 13.6216L22.8084 10.9614L18.4442 11.8872L17.6678 7.62353L15.3241 11.604L11.5692 8.85009L12.7625 13.356L8.19028 14.1655L9.59165 15.0161C9.84652 15.1654 10.0099 15.3783 10.0819 15.6548C10.1539 15.9316 10.1149 16.1988 9.96567 16.4565C9.81634 16.7141 9.59618 16.8784 9.30551 16.9477C9.0154 17.0169 8.74298 16.9765 8.48813 16.8276L3.92368 14.1958C3.7467 14.0983 3.62137 13.9714 3.54672 13.8159C3.47231 13.6604 3.45742 13.4972 3.5018 13.3257C3.54625 13.1541 3.62728 13.0086 3.74594 12.8901C3.8646 12.7715 4.02614 12.687 4.23032 12.6372L10.0711 11.6284L8.51059 5.84618C8.45562 5.65051 8.46121 5.47589 8.52719 5.32275C8.59316 5.16928 8.69147 5.04239 8.82114 4.94286C8.95092 4.84331 9.10443 4.78672 9.2811 4.77294C9.45796 4.75941 9.63203 4.81351 9.80356 4.93505L14.6756 8.41357L17.5965 3.1831C17.6941 3.00754 17.8209 2.88148 17.9764 2.80615Z" fill="var(--fill-0, #2DA2DB)"/>
<path d="M25.7303 18.7388C26.4142 18.7388 26.9978 18.9794 27.4813 19.4614C27.9651 19.9434 28.2069 20.5257 28.2069 21.2075V27.064C28.2068 27.7427 27.965 28.3236 27.4813 28.8071C26.9978 29.2906 26.4143 29.5327 25.7303 29.5327H6.26938C5.59062 29.5326 5.0097 29.2906 4.52622 28.8071C4.04273 28.3236 3.8007 27.7427 3.80063 27.064V21.2075C3.80063 20.5257 4.04266 19.9434 4.52622 19.4614C5.00966 18.9794 5.59072 18.7388 6.26938 18.7388H25.7303ZM6.07211 27.2612H25.9286V21.0093H6.07211V27.2612ZM17.9764 2.80615C18.1318 2.73098 18.2952 2.71708 18.4666 2.76415C18.638 2.81121 18.792 2.88824 18.9286 2.9956C19.0654 3.10313 19.1518 3.25675 19.1873 3.45556L20.1639 9.36279L25.8456 7.77001C26.0416 7.7149 26.2221 7.72712 26.3866 7.80712C26.5511 7.88688 26.6835 7.99062 26.7831 8.11767C26.8824 8.24469 26.9392 8.39152 26.953 8.55712C26.9666 8.72242 26.9124 8.89072 26.7909 9.06201L23.3446 14.0015L24.9637 14.936C25.2182 15.0947 25.3775 15.3203 25.4413 15.6118C25.5052 15.9035 25.4553 16.1796 25.2918 16.4399C25.1283 16.7002 24.8952 16.8605 24.5936 16.9214C24.292 16.9821 24.0111 16.9327 23.7508 16.772L21.3573 15.2212C21.0791 15.0501 20.9125 14.8098 20.8582 14.5005C20.8042 14.1911 20.8662 13.898 21.0428 13.6216L22.8084 10.9614L18.4442 11.8872L17.6678 7.62353L15.3241 11.604L11.5692 8.85009L12.7625 13.356L8.19028 14.1655L9.59165 15.0161C9.84652 15.1654 10.0099 15.3783 10.0819 15.6548C10.1539 15.9316 10.1149 16.1988 9.96567 16.4565C9.81634 16.7141 9.59618 16.8784 9.30551 16.9477C9.0154 17.0169 8.74298 16.9765 8.48813 16.8276L3.92368 14.1958C3.7467 14.0983 3.62137 13.9714 3.54672 13.8159C3.47231 13.6604 3.45742 13.4972 3.5018 13.3257C3.54625 13.1541 3.62728 13.0086 3.74594 12.8901C3.8646 12.7715 4.02614 12.687 4.23032 12.6372L10.0711 11.6284L8.51059 5.84618C8.45562 5.65051 8.46121 5.47589 8.52719 5.32275C8.59316 5.16928 8.69147 5.04239 8.82114 4.94286C8.95092 4.84331 9.10443 4.78672 9.2811 4.77294C9.45796 4.75941 9.63203 4.81351 9.80356 4.93505L14.6756 8.41357L17.5965 3.1831C17.6941 3.00754 17.8209 2.88148 17.9764 2.80615Z" stroke="var(--stroke-0, #2DA2DB)"/>
</g>
</g>
</svg>
