<svg preserveAspectRatio="none" width="100%" height="100%" overflow="visible" style="display: block;" viewBox="0 0 42.0243 41.2539" fill="none" xmlns="http://www.w3.org/2000/svg">
<g id="excavator-svgrepo-com 1">
<path id="Vector" d="M23.2685 34.4783H5.17078C2.27514 34.4783 0 32.2031 0 29.3075C0 26.4119 2.27514 24.1367 5.17078 24.1367H23.2685C26.1641 24.1367 28.4393 26.4119 28.4393 29.3075C28.4393 32.2031 26.1641 34.4783 23.2685 34.4783ZM5.17078 26.205C3.41271 26.205 2.06831 27.5494 2.06831 29.3075C2.06831 31.0656 3.41271 32.41 5.17078 32.41H23.2685C25.0265 32.41 26.371 31.0656 26.371 29.3075C26.371 27.5494 25.0265 26.205 23.2685 26.205H5.17078Z" fill="var(--fill-0, #2DA2DB)"/>
<path id="Vector_2" d="M5.17039 26.2042C4.54989 26.2042 4.13623 25.7905 4.13623 25.17V21.5505C4.13623 21.2402 4.23965 20.93 4.54989 20.7232L8.78993 17.4139V10.1748C8.78993 9.55429 9.20359 9.14063 9.82408 9.14062H22.2339C22.8544 9.14062 23.2681 9.55429 23.2681 10.1748V24.653C23.2681 25.2734 22.8544 25.6871 22.2339 25.6871C21.6134 25.6871 21.1998 25.2734 21.1998 24.653V11.2089H10.8582V17.9309C10.8582 18.2412 10.7548 18.5514 10.4446 18.7583L6.20454 22.0676V25.17C6.20454 25.6871 5.79088 26.2042 5.17039 26.2042Z" fill="var(--fill-0, #2DA2DB)"/>
<path id="Vector_3" d="M18.6146 10.9047C18.3044 10.9047 17.9942 10.8013 17.7873 10.491C17.4771 10.0774 17.5805 9.35347 17.9942 9.04322L26.6811 2.52805C27.0947 2.2178 27.8186 2.32122 28.1289 2.73488C28.4391 3.14854 28.3357 3.87245 27.922 4.18269L19.2351 10.6979C19.0283 10.8013 18.8215 10.9047 18.6146 10.9047ZM22.3376 13.1798C22.0274 13.1798 21.7171 13.0764 21.5103 12.7662C21.0966 12.3525 21.2 11.6286 21.6137 11.3184L28.0255 6.04417C28.4391 5.63051 29.163 5.73393 29.4733 6.14759C29.8869 6.56125 29.7835 7.28516 29.3699 7.59541L22.9581 12.8696C22.7513 13.0764 22.5444 13.1798 22.3376 13.1798Z" fill="var(--fill-0, #2DA2DB)"/>
<path id="Vector_4" d="M35.8851 16.7939C35.5749 16.7939 35.2646 16.6905 35.0578 16.3802L25.9572 4.17719C25.647 3.76353 25.7504 3.14304 26.1641 2.72937L29.1631 0.247401C29.37 0.0405703 29.6802 -0.0628451 29.887 0.0405704C30.1973 0.0405704 30.4041 0.247402 30.6109 0.454233L38.9876 11.3129C39.2978 11.7265 39.2978 12.4504 38.7808 12.7607C38.3671 13.0709 37.6432 13.0709 37.3329 12.5538L29.5768 2.52254L28.129 3.66011L36.609 15.0358C36.9193 15.4495 36.8159 16.1734 36.4022 16.4836C36.2988 16.6905 36.092 16.7939 35.8851 16.7939Z" fill="var(--fill-0, #2DA2DB)"/>
<path id="Vector_5" d="M32.886 28.7953H32.4724C32.1621 28.7953 31.9553 28.6919 31.7484 28.485L26.2674 22.7972C26.0606 22.5903 25.9572 22.1767 26.0606 21.8664C26.164 21.5562 26.3708 21.2459 26.7845 21.1425C31.9553 19.4879 35.368 16.3854 37.2295 11.6283C37.4363 11.2146 37.7465 11.0078 38.1602 11.0078C38.5739 11.0078 38.9875 11.2146 39.0909 11.6283L41.8832 18.3503C41.8832 18.4537 41.9866 18.5571 41.9866 18.6606C41.9866 18.8674 42.5037 23.2108 39.7114 26.2099C38.1602 27.8645 35.8851 28.7953 32.886 28.7953ZM28.8528 22.4869L32.886 26.727C35.2646 26.727 37.0226 26.1065 38.1602 24.7621C40.0217 22.6938 39.9183 19.5913 39.9183 18.9708L38.1602 14.5239C36.0919 18.1435 32.9894 20.8323 28.8528 22.4869Z" fill="var(--fill-0, #2DA2DB)"/>
<path id="Vector_6" d="M4.0332 29.3148C4.0332 29.7536 4.20753 30.1745 4.51784 30.4848C4.82814 30.7951 5.24901 30.9695 5.68785 30.9695C6.12669 30.9695 6.54756 30.7951 6.85786 30.4848C7.16817 30.1745 7.3425 29.7536 7.3425 29.3148C7.3425 28.876 7.16817 28.4551 6.85786 28.1448C6.54756 27.8345 6.12669 27.6602 5.68785 27.6602C5.24901 27.6602 4.82814 27.8345 4.51784 28.1448C4.20753 28.4551 4.0332 28.876 4.0332 29.3148Z" fill="var(--fill-0, #2DA2DB)"/>
<path id="Vector_7" d="M21.0967 29.3148C21.0967 29.7536 21.271 30.1745 21.5813 30.4848C21.8916 30.7951 22.3125 30.9695 22.7513 30.9695C23.1902 30.9695 23.611 30.7951 23.9213 30.4848C24.2316 30.1745 24.406 29.7536 24.406 29.3148C24.406 28.876 24.2316 28.4551 23.9213 28.1448C23.611 27.8345 23.1902 27.6602 22.7513 27.6602C22.3125 27.6602 21.8916 27.8345 21.5813 28.1448C21.271 28.4551 21.0967 28.876 21.0967 29.3148Z" fill="var(--fill-0, #2DA2DB)"/>
<path id="Vector_8" d="M22.2349 20.0027H14.4788C13.8583 20.0027 13.4446 19.589 13.4446 18.9685V13.6943C13.4446 13.0738 13.8583 12.6602 14.4788 12.6602H22.2349C22.8554 12.6602 23.2691 13.0738 23.2691 13.6943V18.9685C23.2691 19.589 22.8554 20.0027 22.2349 20.0027ZM15.5129 17.9343H21.2008V14.7285H15.5129V17.9343ZM14.4788 34.4808C13.8583 34.4808 13.4446 34.0672 13.4446 33.4467V31.0681C13.4446 30.4476 13.8583 30.034 14.4788 30.034C15.0993 30.034 15.5129 30.4476 15.5129 31.0681V33.4467C15.5129 33.9637 14.9958 34.4808 14.4788 34.4808ZM9.72165 34.4808C9.10116 34.4808 8.6875 34.0672 8.6875 33.4467V31.0681C8.6875 30.4476 9.10116 30.034 9.72165 30.034C10.3421 30.034 10.7558 30.4476 10.7558 31.0681V33.4467C10.7558 33.9637 10.2387 34.4808 9.72165 34.4808ZM19.2359 34.4808C18.6154 34.4808 18.2017 34.0672 18.2017 33.4467V31.0681C18.2017 30.4476 18.6154 30.034 19.2359 30.034C19.8564 30.034 20.27 30.4476 20.27 31.0681V33.4467C20.27 33.9637 19.8564 34.4808 19.2359 34.4808ZM14.4788 28.4827C13.8583 28.4827 13.4446 28.0691 13.4446 27.4486V25.07C13.4446 24.4495 13.8583 24.0359 14.4788 24.0359C15.0993 24.0359 15.5129 24.4495 15.5129 25.07V27.4486C15.5129 28.0691 14.9958 28.4827 14.4788 28.4827ZM9.72165 28.4827C9.10116 28.4827 8.6875 28.0691 8.6875 27.4486V25.07C8.6875 24.4495 9.10116 24.0359 9.72165 24.0359C10.3421 24.0359 10.7558 24.4495 10.7558 25.07V27.4486C10.7558 28.0691 10.2387 28.4827 9.72165 28.4827ZM19.2359 28.4827C18.6154 28.4827 18.2017 28.0691 18.2017 27.4486V25.07C18.2017 24.4495 18.6154 24.0359 19.2359 24.0359C19.8564 24.0359 20.27 24.4495 20.27 25.07V27.4486C20.27 28.0691 19.8564 28.4827 19.2359 28.4827Z" fill="var(--fill-0, #2DA2DB)"/>
</g>
</svg>
