<svg preserveAspectRatio="none" width="100%" height="100%" overflow="visible" style="display: block;" viewBox="0 0 32 32" fill="none" xmlns="http://www.w3.org/2000/svg">
<g id="chat_info">
<path id="Vector" d="M15.9953 9.05C16.3329 9.05 16.616 8.93722 16.8447 8.71167C17.0733 8.48589 17.1877 8.20422 17.1877 7.86667C17.1877 7.53133 17.0736 7.24744 16.8453 7.015C16.6171 6.78278 16.3342 6.66667 15.9967 6.66667C15.6591 6.66667 15.3773 6.78267 15.1513 7.01467C14.9253 7.24644 14.8123 7.53011 14.8123 7.86567C14.8123 8.20122 14.9251 8.48245 15.1507 8.70933C15.3764 8.93645 15.658 9.05 15.9953 9.05ZM16.006 19.7747C16.3089 19.7747 16.5582 19.6753 16.754 19.4767C16.9498 19.2782 17.0477 19.0278 17.0477 18.7253V12.408C17.0477 12.1111 16.9479 11.8622 16.7483 11.6613C16.5486 11.4604 16.2971 11.36 15.994 11.36C15.6911 11.36 15.4418 11.4604 15.246 11.6613C15.0502 11.8622 14.9523 12.1111 14.9523 12.408V18.7253C14.9523 19.0278 15.0521 19.2782 15.2517 19.4767C15.4514 19.6753 15.7029 19.7747 16.006 19.7747ZM7.80067 24.1993L4.40667 27.5933C4.04756 27.9524 3.63456 28.0352 3.16767 27.8417C2.70078 27.6483 2.46733 27.303 2.46733 26.8057V4.73833C2.46733 4.12278 2.69256 3.58911 3.143 3.13733C3.59322 2.68533 4.125 2.45933 4.73833 2.45933H27.2617C27.8772 2.45933 28.4109 2.68533 28.8627 3.13733C29.3147 3.58911 29.5407 4.12278 29.5407 4.73833V21.9283C29.5407 22.5417 29.3147 23.0734 28.8627 23.5237C28.4109 23.9741 27.8772 24.1993 27.2617 24.1993H7.80067ZM6.934 21.9283H27.2617V4.73833H4.73833V24.324L6.934 21.9283Z" fill="var(--fill-0, #2DA2DB)"/>
</g>
</svg>
