<svg preserveAspectRatio="none" width="100%" height="100%" overflow="visible" style="display: block;" viewBox="0 0 32 32" fill="none" xmlns="http://www.w3.org/2000/svg">
<g id="manufacturing">
<g id="Vector">
<mask id="path-1-inside-1_0_17" fill="white">
<path d="M7.21267 13.7157C6.77711 13.6032 6.36756 13.4454 5.984 13.2423C5.60044 13.0392 5.26111 12.7848 4.966 12.479L4.26433 12.763C4.02633 12.8572 3.79511 12.8679 3.57067 12.795C3.346 12.7221 3.174 12.5782 3.05467 12.3633L2.83667 12.0043C2.71422 11.8117 2.66678 11.5964 2.69433 11.3587C2.72189 11.1211 2.82978 10.9166 3.018 10.745L3.661 10.1387C3.54989 9.712 3.49433 9.29511 3.49433 8.888C3.49433 8.48111 3.54989 8.063 3.661 7.63367L3.018 7.01367C2.82978 6.84611 2.72189 6.63811 2.69433 6.38967C2.66678 6.141 2.71389 5.91978 2.83567 5.726L3.01 5.43567C3.12644 5.21967 3.30511 5.07011 3.546 4.987C3.78689 4.90389 4.02989 4.90944 4.275 5.00367L4.966 5.28767C5.26644 4.98189 5.60667 4.72733 5.98667 4.524C6.36689 4.32089 6.77533 4.16344 7.212 4.05167L7.30233 3.318C7.34678 3.05244 7.46522 2.831 7.65767 2.65367C7.85011 2.47633 8.07844 2.38767 8.34267 2.38767H8.643C8.90078 2.38767 9.12555 2.47622 9.31733 2.65333C9.50911 2.83044 9.62922 3.04933 9.67767 3.31L9.767 4.051C10.1972 4.16345 10.6041 4.32122 10.9877 4.52433C11.3712 4.72744 11.7106 4.98189 12.0057 5.28767L12.7073 5.00367C12.9436 4.90944 13.1757 4.89833 13.4037 4.97033C13.6317 5.04233 13.8066 5.18633 13.9283 5.40233L14.1443 5.726C14.2608 5.91978 14.3066 6.14267 14.2817 6.39467C14.2568 6.64645 14.1474 6.85545 13.9537 7.02167L13.2777 7.631C13.3941 8.03878 13.4523 8.452 13.4523 8.87067C13.4523 9.28933 13.3941 9.711 13.2777 10.1357L13.9537 10.753C14.1421 10.9192 14.2501 11.1227 14.2777 11.3633C14.3052 11.6042 14.2608 11.83 14.1443 12.0407L13.9617 12.33C13.8399 12.5467 13.6599 12.6966 13.4217 12.7797C13.1834 12.8628 12.948 12.8572 12.7153 12.763L12.0057 12.479C11.7106 12.807 11.3717 13.0671 10.989 13.2593C10.6061 13.4513 10.199 13.6032 9.76767 13.715L9.67767 14.446C9.62789 14.7133 9.50722 14.9357 9.31567 15.113C9.12411 15.2903 8.897 15.379 8.63433 15.379H8.336C8.07333 15.379 7.84633 15.2916 7.655 15.1167C7.46367 14.942 7.34611 14.722 7.30233 14.4567L7.21267 13.7157ZM8.48367 11.9023C9.31544 11.9023 10.0276 11.6078 10.62 11.0187C11.2124 10.4298 11.5087 9.71822 11.5087 8.884C11.5087 8.04978 11.2126 7.338 10.6203 6.74867C10.0281 6.15911 9.31522 5.86433 8.48167 5.86433C7.64789 5.86433 6.93633 6.16 6.347 6.75133C5.75767 7.34244 5.463 8.054 5.463 8.886C5.463 9.718 5.75844 10.4287 6.34933 11.018C6.94044 11.6076 7.65189 11.9023 8.48367 11.9023ZM21.0477 28.95C20.4159 28.7944 19.8144 28.5531 19.2433 28.226C18.6724 27.8991 18.179 27.4752 17.763 26.9543L16.8963 27.229C16.6297 27.3179 16.3617 27.3137 16.0923 27.2163C15.823 27.119 15.6141 26.9463 15.4657 26.6983L15.1937 26.2343C15.0399 25.9863 14.9852 25.7186 15.0297 25.431C15.0741 25.1434 15.2074 24.9001 15.4297 24.701L16.0963 24.1037C15.9026 23.4939 15.8057 22.8647 15.8057 22.216C15.8057 21.5671 15.9026 20.9406 16.0963 20.3363L15.4297 19.7697C15.2074 19.5919 15.0741 19.3543 15.0297 19.057C14.9852 18.7597 15.0412 18.4871 15.1977 18.2393L15.499 17.7337C15.6306 17.491 15.8241 17.3252 16.0797 17.2363C16.3352 17.1474 16.5963 17.1363 16.863 17.203L17.763 17.4443C18.2012 16.9457 18.7002 16.5286 19.26 16.193C19.82 15.8577 20.4171 15.6207 21.0513 15.482L21.2823 14.5153C21.3481 14.2487 21.4866 14.0264 21.6977 13.8487C21.9088 13.6709 22.1588 13.582 22.4477 13.582H23.0477C23.3366 13.582 23.5921 13.6709 23.8143 13.8487C24.0366 14.0264 24.181 14.2487 24.2477 14.5153L24.481 15.482C25.1521 15.5762 25.7621 15.7979 26.311 16.147C26.8597 16.4963 27.3531 16.9288 27.7913 17.4443L28.6913 17.203C28.9633 17.1363 29.2271 17.153 29.4827 17.253C29.7382 17.353 29.9318 17.5252 30.0633 17.7697L30.3607 18.2363C30.5144 18.4808 30.5636 18.7474 30.508 19.0363C30.4524 19.3252 30.3136 19.5697 30.0913 19.7697L29.458 20.3363C29.6518 20.9406 29.7487 21.5671 29.7487 22.216C29.7487 22.8647 29.6518 23.4939 29.458 24.1037L30.1247 24.6983C30.3469 24.8966 30.4802 25.1401 30.5247 25.429C30.5691 25.7179 30.5144 25.9854 30.3607 26.2317L30.0967 26.701C29.9429 26.9472 29.7313 27.1246 29.462 27.233C29.1927 27.3414 28.9136 27.3401 28.6247 27.229L27.7913 26.9543C27.3753 27.4974 26.8832 27.9269 26.315 28.2427C25.7466 28.5587 25.1352 28.7944 24.481 28.95L24.2477 29.9167C24.181 30.1833 24.0421 30.4056 23.831 30.5833C23.6199 30.7611 23.3699 30.85 23.081 30.85H22.481C22.1921 30.85 21.9366 30.7611 21.7143 30.5833C21.4921 30.4056 21.3477 30.1833 21.281 29.9167L21.0477 28.95ZM22.7773 26.7777C24.0476 26.7777 25.1247 26.3348 26.0087 25.449C26.8927 24.5632 27.3347 23.486 27.3347 22.2173C27.3347 20.9487 26.8924 19.871 26.008 18.9843C25.1236 18.0977 24.0479 17.6543 22.781 17.6543C21.5081 17.6543 20.4297 18.0973 19.5457 18.9833C18.6617 19.8696 18.2197 20.9471 18.2197 22.216C18.2197 23.4889 18.6617 24.5673 19.5457 25.4513C20.4297 26.3356 21.5069 26.7777 22.7773 26.7777Z"/>
</mask>
<path d="M7.21267 13.7157C6.77711 13.6032 6.36756 13.4454 5.984 13.2423C5.60044 13.0392 5.26111 12.7848 4.966 12.479L4.26433 12.763C4.02633 12.8572 3.79511 12.8679 3.57067 12.795C3.346 12.7221 3.174 12.5782 3.05467 12.3633L2.83667 12.0043C2.71422 11.8117 2.66678 11.5964 2.69433 11.3587C2.72189 11.1211 2.82978 10.9166 3.018 10.745L3.661 10.1387C3.54989 9.712 3.49433 9.29511 3.49433 8.888C3.49433 8.48111 3.54989 8.063 3.661 7.63367L3.018 7.01367C2.82978 6.84611 2.72189 6.63811 2.69433 6.38967C2.66678 6.141 2.71389 5.91978 2.83567 5.726L3.01 5.43567C3.12644 5.21967 3.30511 5.07011 3.546 4.987C3.78689 4.90389 4.02989 4.90944 4.275 5.00367L4.966 5.28767C5.26644 4.98189 5.60667 4.72733 5.98667 4.524C6.36689 4.32089 6.77533 4.16344 7.212 4.05167L7.30233 3.318C7.34678 3.05244 7.46522 2.831 7.65767 2.65367C7.85011 2.47633 8.07844 2.38767 8.34267 2.38767H8.643C8.90078 2.38767 9.12555 2.47622 9.31733 2.65333C9.50911 2.83044 9.62922 3.04933 9.67767 3.31L9.767 4.051C10.1972 4.16345 10.6041 4.32122 10.9877 4.52433C11.3712 4.72744 11.7106 4.98189 12.0057 5.28767L12.7073 5.00367C12.9436 4.90944 13.1757 4.89833 13.4037 4.97033C13.6317 5.04233 13.8066 5.18633 13.9283 5.40233L14.1443 5.726C14.2608 5.91978 14.3066 6.14267 14.2817 6.39467C14.2568 6.64645 14.1474 6.85545 13.9537 7.02167L13.2777 7.631C13.3941 8.03878 13.4523 8.452 13.4523 8.87067C13.4523 9.28933 13.3941 9.711 13.2777 10.1357L13.9537 10.753C14.1421 10.9192 14.2501 11.1227 14.2777 11.3633C14.3052 11.6042 14.2608 11.83 14.1443 12.0407L13.9617 12.33C13.8399 12.5467 13.6599 12.6966 13.4217 12.7797C13.1834 12.8628 12.948 12.8572 12.7153 12.763L12.0057 12.479C11.7106 12.807 11.3717 13.0671 10.989 13.2593C10.6061 13.4513 10.199 13.6032 9.76767 13.715L9.67767 14.446C9.62789 14.7133 9.50722 14.9357 9.31567 15.113C9.12411 15.2903 8.897 15.379 8.63433 15.379H8.336C8.07333 15.379 7.84633 15.2916 7.655 15.1167C7.46367 14.942 7.34611 14.722 7.30233 14.4567L7.21267 13.7157ZM8.48367 11.9023C9.31544 11.9023 10.0276 11.6078 10.62 11.0187C11.2124 10.4298 11.5087 9.71822 11.5087 8.884C11.5087 8.04978 11.2126 7.338 10.6203 6.74867C10.0281 6.15911 9.31522 5.86433 8.48167 5.86433C7.64789 5.86433 6.93633 6.16 6.347 6.75133C5.75767 7.34244 5.463 8.054 5.463 8.886C5.463 9.718 5.75844 10.4287 6.34933 11.018C6.94044 11.6076 7.65189 11.9023 8.48367 11.9023ZM21.0477 28.95C20.4159 28.7944 19.8144 28.5531 19.2433 28.226C18.6724 27.8991 18.179 27.4752 17.763 26.9543L16.8963 27.229C16.6297 27.3179 16.3617 27.3137 16.0923 27.2163C15.823 27.119 15.6141 26.9463 15.4657 26.6983L15.1937 26.2343C15.0399 25.9863 14.9852 25.7186 15.0297 25.431C15.0741 25.1434 15.2074 24.9001 15.4297 24.701L16.0963 24.1037C15.9026 23.4939 15.8057 22.8647 15.8057 22.216C15.8057 21.5671 15.9026 20.9406 16.0963 20.3363L15.4297 19.7697C15.2074 19.5919 15.0741 19.3543 15.0297 19.057C14.9852 18.7597 15.0412 18.4871 15.1977 18.2393L15.499 17.7337C15.6306 17.491 15.8241 17.3252 16.0797 17.2363C16.3352 17.1474 16.5963 17.1363 16.863 17.203L17.763 17.4443C18.2012 16.9457 18.7002 16.5286 19.26 16.193C19.82 15.8577 20.4171 15.6207 21.0513 15.482L21.2823 14.5153C21.3481 14.2487 21.4866 14.0264 21.6977 13.8487C21.9088 13.6709 22.1588 13.582 22.4477 13.582H23.0477C23.3366 13.582 23.5921 13.6709 23.8143 13.8487C24.0366 14.0264 24.181 14.2487 24.2477 14.5153L24.481 15.482C25.1521 15.5762 25.7621 15.7979 26.311 16.147C26.8597 16.4963 27.3531 16.9288 27.7913 17.4443L28.6913 17.203C28.9633 17.1363 29.2271 17.153 29.4827 17.253C29.7382 17.353 29.9318 17.5252 30.0633 17.7697L30.3607 18.2363C30.5144 18.4808 30.5636 18.7474 30.508 19.0363C30.4524 19.3252 30.3136 19.5697 30.0913 19.7697L29.458 20.3363C29.6518 20.9406 29.7487 21.5671 29.7487 22.216C29.7487 22.8647 29.6518 23.4939 29.458 24.1037L30.1247 24.6983C30.3469 24.8966 30.4802 25.1401 30.5247 25.429C30.5691 25.7179 30.5144 25.9854 30.3607 26.2317L30.0967 26.701C29.9429 26.9472 29.7313 27.1246 29.462 27.233C29.1927 27.3414 28.9136 27.3401 28.6247 27.229L27.7913 26.9543C27.3753 27.4974 26.8832 27.9269 26.315 28.2427C25.7466 28.5587 25.1352 28.7944 24.481 28.95L24.2477 29.9167C24.181 30.1833 24.0421 30.4056 23.831 30.5833C23.6199 30.7611 23.3699 30.85 23.081 30.85H22.481C22.1921 30.85 21.9366 30.7611 21.7143 30.5833C21.4921 30.4056 21.3477 30.1833 21.281 29.9167L21.0477 28.95ZM22.7773 26.7777C24.0476 26.7777 25.1247 26.3348 26.0087 25.449C26.8927 24.5632 27.3347 23.486 27.3347 22.2173C27.3347 20.9487 26.8924 19.871 26.008 18.9843C25.1236 18.0977 24.0479 17.6543 22.781 17.6543C21.5081 17.6543 20.4297 18.0973 19.5457 18.9833C18.6617 19.8696 18.2197 20.9471 18.2197 22.216C18.2197 23.4889 18.6617 24.5673 19.5457 25.4513C20.4297 26.3356 21.5069 26.7777 22.7773 26.7777Z" fill="var(--fill-0, #2DA2DB)" stroke="var(--stroke-0, #2DA2DB)" stroke-width="0.1" mask="url(#path-1-inside-1_0_17)"/>
</g>
</g>
</svg>
