<svg preserveAspectRatio="none" width="100%" height="100%" overflow="visible" style="display: block;" viewBox="0 0 40 40" fill="none" xmlns="http://www.w3.org/2000/svg">
<g id="hourglass_empty">
<path id="Vector" d="M7.83742 3.09956H32.1626C32.5561 3.09956 32.8881 3.23558 33.1597 3.50874C33.4316 3.78226 33.5679 4.11615 33.5679 4.51167C33.5679 4.90746 33.4313 5.2364 33.1597 5.50093C32.8882 5.76535 32.5564 5.89839 32.1626 5.89839H29.9009V11.08C29.9009 13.0295 29.3613 14.804 28.2827 16.4042C27.2043 18.0046 25.7712 19.196 23.982 19.9775L23.9282 19.9999L23.982 20.0234C25.7709 20.777 27.2044 21.9535 28.2827 23.5537C29.3612 25.1538 29.9008 26.9285 29.9009 28.8779V34.1025H32.1626C32.5561 34.1025 32.8882 34.2366 33.1597 34.5058C33.4314 34.7751 33.5679 35.1075 33.5679 35.5039C33.5679 35.9002 33.4313 36.2299 33.1597 36.4941C32.8882 36.7586 32.5562 36.8906 32.1626 36.8906H7.83742C7.44301 36.8906 7.11214 36.7565 6.84426 36.4873C6.57636 36.218 6.4429 35.8857 6.44289 35.4892C6.44289 35.0928 6.57661 34.7634 6.84426 34.499C7.11212 34.2347 7.44283 34.1025 7.83742 34.1025H10.1089V28.8779C10.109 26.9285 10.6486 25.1538 11.7271 23.5537C12.8054 21.9534 14.2391 20.777 16.0279 20.0234L16.0816 19.9999L16.0279 19.9775C14.2388 19.196 12.8055 18.0047 11.7271 16.4042C10.6485 14.804 10.1089 13.0295 10.1089 11.08V5.89839H7.83742C7.44297 5.89839 7.11216 5.76335 6.84426 5.49409C6.57637 5.22482 6.44289 4.89291 6.44289 4.49702C6.4429 4.10118 6.57645 3.77003 6.84426 3.5019C7.11215 3.23346 7.44295 3.09956 7.83742 3.09956ZM19.9995 21.8144C18.02 21.8145 16.3406 22.4964 14.9634 23.8593C13.5864 25.2227 12.898 26.8952 12.898 28.8749V34.1025H27.1021V28.8749C27.1021 26.8952 26.4136 25.2227 25.0366 23.8593C23.6593 22.4962 21.9793 21.8144 19.9995 21.8144ZM12.898 11.083C12.898 13.0628 13.5864 14.7428 14.9634 16.1201C16.3406 17.4969 18.0199 18.1854 19.9995 18.1855C21.9793 18.1855 23.6594 17.497 25.0366 16.1201C26.4136 14.7428 27.1021 13.0628 27.1021 11.083V5.89839H12.898V11.083Z" fill="var(--fill-0, #2DA2DB)" stroke="var(--stroke-0, #2DA2DB)" stroke-width="0.05"/>
</g>
</svg>
