<svg preserveAspectRatio="none" width="100%" height="100%" overflow="visible" style="display: block;" viewBox="0 0 40 40" fill="none" xmlns="http://www.w3.org/2000/svg">
<g id="shovel">
<path id="Vector" d="M15 25.0001L28.1317 11.8701M35.9333 7.6003C36.1657 7.83247 36.3499 8.10814 36.4757 8.41155C36.6014 8.71497 36.6661 9.04019 36.6661 9.36863C36.6661 9.69707 36.6014 10.0223 36.4757 10.3257C36.3499 10.6291 36.1657 10.9048 35.9333 11.137L35.15 11.9203C34.2079 12.8358 32.9434 13.3438 31.6298 13.3345C30.3161 13.3251 29.059 12.7992 28.13 11.8703C27.6656 11.406 27.2973 10.8548 27.0459 10.2481C26.7946 9.6414 26.6652 8.99115 26.6652 8.33447C26.6652 7.67779 26.7946 7.02754 27.0459 6.42085C27.2973 5.81417 27.6656 5.26294 28.13 4.79863L28.8633 4.0653C29.3322 3.59662 29.9679 3.33333 30.6308 3.33333C31.2938 3.33333 31.9295 3.59662 32.3983 4.0653L35.9333 7.6003ZM5 36.6665C4.55797 36.6665 4.13405 36.4909 3.82149 36.1783C3.50893 35.8658 3.33333 35.4419 3.33333 34.9998V29.0232C3.33343 28.5812 3.50908 28.1573 3.82167 27.8448L9.41333 22.2532C9.78996 21.8766 10.3007 21.665 10.8333 21.665C11.3659 21.665 11.8767 21.8766 12.2533 22.2532L17.7467 27.7465C18.1232 28.1231 18.3348 28.6339 18.3348 29.1665C18.3348 29.6991 18.1232 30.2099 17.7467 30.5865L12.155 36.1782C11.8425 36.4907 11.4187 36.6664 10.9767 36.6665H5Z" stroke="var(--stroke-0, #2DA2DB)" stroke-width="2.5" stroke-linecap="round" stroke-linejoin="round"/>
</g>
</svg>
