<svg preserveAspectRatio="none" width="100%" height="100%" overflow="visible" style="display: block;" viewBox="0 0 32 32" fill="none" xmlns="http://www.w3.org/2000/svg">
<g id="double_arrow">
<g id="Vector">
<mask id="path-1-inside-1_0_26" fill="white">
<path d="M14.724 16L8.96233 8.313C8.68078 7.95411 8.64344 7.56745 8.85033 7.153C9.05744 6.73833 9.39867 6.531 9.874 6.531C10.0507 6.531 10.2163 6.57389 10.371 6.65967C10.5257 6.74544 10.6639 6.85455 10.7857 6.987L17.5333 16L10.7857 25.013C10.6639 25.1454 10.5257 25.2546 10.371 25.3403C10.2163 25.4261 10.0507 25.469 9.874 25.469C9.41556 25.469 9.08411 25.2672 8.87967 24.8637C8.67544 24.4603 8.71411 24.0654 8.99567 23.679L14.724 16ZM23.4667 16L17.697 8.313C17.4208 7.95411 17.3848 7.56745 17.589 7.153C17.7934 6.73833 18.136 6.531 18.6167 6.531C18.7882 6.531 18.9512 6.57255 19.1057 6.65567C19.2603 6.73878 19.3986 6.84656 19.5203 6.979L26.276 16L19.5203 25.013C19.3986 25.1508 19.2603 25.2612 19.1057 25.3443C18.9512 25.4274 18.7882 25.469 18.6167 25.469C18.1582 25.469 17.8254 25.2672 17.6183 24.8637C17.4114 24.4603 17.4488 24.0681 17.7303 23.687L23.4667 16Z"/>
</mask>
<path d="M14.724 16L16.7279 17.4948L17.8456 15.9964L16.7244 14.5006L14.724 16ZM8.96233 8.313L10.9628 6.8136L10.9463 6.79156L10.9293 6.7699L8.96233 8.313ZM8.85033 7.153L6.61379 6.03593L6.61355 6.03641L8.85033 7.153ZM10.7857 6.987L12.787 5.48872L12.7114 5.38774L12.626 5.29489L10.7857 6.987ZM17.5333 16L19.5346 17.4983L20.6563 16L19.5346 14.5017L17.5333 16ZM10.7857 25.013L12.626 26.7051L12.7114 26.6123L12.787 26.5113L10.7857 25.013ZM8.87967 24.8637L6.64928 25.993L6.64952 25.9935L8.87967 24.8637ZM8.99567 23.679L6.9918 22.1842L6.98338 22.1955L6.97508 22.2068L8.99567 23.679ZM23.4667 16L25.4703 17.4952L26.5893 15.9957L25.4661 14.4993L23.4667 16ZM17.697 8.313L19.6964 6.81227L19.6874 6.80017L19.6781 6.78819L17.697 8.313ZM17.589 7.153L15.3467 6.04748L15.3465 6.04797L17.589 7.153ZM19.1057 6.65567L17.921 8.85715L17.9223 8.85786L19.1057 6.65567ZM19.5203 6.979L21.5214 5.48043L21.4459 5.37961L21.3607 5.28689L19.5203 6.979ZM26.276 16L28.2764 17.4994L29.3998 16.0007L28.2771 14.5014L26.276 16ZM19.5203 25.013L21.3935 26.6687L21.4603 26.5931L21.5208 26.5124L19.5203 25.013ZM19.1057 25.3443L17.9223 23.1421L17.921 23.1429L19.1057 25.3443ZM17.6183 24.8637L15.3939 26.0047L15.3941 26.0052L17.6183 24.8637ZM17.7303 23.687L15.7267 22.1918L15.7196 22.2015L17.7303 23.687ZM14.724 16L16.7244 14.5006L10.9628 6.8136L8.96233 8.313L6.96189 9.8124L12.7236 17.4994L14.724 16ZM8.96233 8.313L10.9293 6.7699C11.0309 6.89946 11.1769 7.154 11.2116 7.51357C11.246 7.87033 11.1525 8.13871 11.0871 8.2696L8.85033 7.153L6.61355 6.03641C6.34132 6.58174 6.16296 7.25067 6.23474 7.99409C6.30679 8.74033 6.6122 9.36765 6.9954 9.8561L8.96233 8.313ZM8.85033 7.153L11.0869 8.27008C11.0145 8.41507 10.853 8.64483 10.5598 8.82302C10.2702 8.99895 10.0063 9.031 9.874 9.031V6.531V4.031C9.2664 4.031 8.59416 4.16671 7.96339 4.54999C7.32891 4.93551 6.89332 5.47627 6.61379 6.03593L8.85033 7.153ZM9.874 6.531V9.031C9.62594 9.031 9.37441 8.96569 9.15849 8.84595L10.371 6.65967L11.5835 4.47338C11.0583 4.18208 10.4754 4.031 9.874 4.031V6.531ZM10.371 6.65967L9.15849 8.84595C9.07467 8.79946 9.00181 8.74051 8.94535 8.67911L10.7857 6.987L12.626 5.29489C12.326 4.9686 11.9767 4.69143 11.5835 4.47338L10.371 6.65967ZM10.7857 6.987L8.78438 8.48528L15.532 17.4983L17.5333 16L19.5346 14.5017L12.787 5.48872L10.7857 6.987ZM17.5333 16L15.532 14.5017L8.78438 23.5147L10.7857 25.013L12.787 26.5113L19.5346 17.4983L17.5333 16ZM10.7857 25.013L8.94535 23.3209C9.00181 23.2595 9.07467 23.2005 9.15849 23.1541L10.371 25.3403L11.5835 27.5266C11.9767 27.3086 12.326 27.0314 12.626 26.7051L10.7857 25.013ZM10.371 25.3403L9.15849 23.1541C9.37441 23.0343 9.62594 22.969 9.874 22.969V25.469V27.969C10.4754 27.969 11.0583 27.8179 11.5835 27.5266L10.371 25.3403ZM9.874 25.469V22.969C10.0193 22.969 10.2895 23.0044 10.5816 23.1823C10.8756 23.3612 11.0371 23.5904 11.1098 23.7339L8.87967 24.8637L6.64952 25.9935C6.92665 26.5405 7.35614 27.0723 7.98158 27.4531C8.60509 27.8327 9.2703 27.969 9.874 27.969V25.469ZM8.87967 24.8637L11.1101 23.7343C11.1919 23.8959 11.2768 24.1699 11.2436 24.5086C11.2113 24.8381 11.0842 25.0579 11.0162 25.1512L8.99567 23.679L6.97508 22.2068C6.6256 22.6865 6.33833 23.297 6.2674 24.0214C6.19556 24.755 6.36325 25.4281 6.64928 25.993L8.87967 24.8637ZM8.99567 23.679L10.9995 25.1738L16.7279 17.4948L14.724 16L12.7201 14.5052L6.9918 22.1842L8.99567 23.679ZM23.4667 16L25.4661 14.4993L19.6964 6.81227L17.697 8.313L15.6976 9.81374L21.4672 17.5007L23.4667 16ZM17.697 8.313L19.6781 6.78819C19.7794 6.91975 19.9194 7.17133 19.9521 7.52208C19.9844 7.86933 19.8944 8.13034 19.8315 8.25803L17.589 7.153L15.3465 6.04797C15.0793 6.59011 14.9053 7.25167 14.9736 7.98559C15.0423 8.723 15.3384 9.34736 15.7159 9.83781L17.697 8.313ZM17.589 7.153L19.8313 8.25852C19.7559 8.41133 19.5905 8.64563 19.2937 8.82526C19.0028 9.00136 18.7408 9.031 18.6167 9.031V6.531V4.031C18.0119 4.031 17.3383 4.1643 16.7048 4.54774C16.0654 4.9347 15.6265 5.48001 15.3467 6.04748L17.589 7.153ZM18.6167 6.531V9.031C18.3652 9.031 18.1222 8.96543 17.921 8.85715L19.1057 6.65567L20.2903 4.45418C19.7802 4.17968 19.2112 4.031 18.6167 4.031V6.531ZM19.1057 6.65567L17.9223 8.85786C17.8249 8.80554 17.7425 8.73903 17.68 8.67111L19.5203 6.979L21.3607 5.28689C21.0546 4.95409 20.6957 4.67201 20.289 4.45347L19.1057 6.65567ZM19.5203 6.979L17.5193 8.47757L24.2749 17.4986L26.276 16L28.2771 14.5014L21.5214 5.48043L19.5203 6.979ZM26.276 16L24.2756 14.5006L17.5199 23.5136L19.5203 25.013L21.5208 26.5124L28.2764 17.4994L26.276 16ZM19.5203 25.013L17.6472 23.3573C17.7118 23.2842 17.8043 23.2055 17.9223 23.1421L19.1057 25.3443L20.289 27.5465C20.7163 27.3169 21.0853 27.0174 21.3935 26.6687L19.5203 25.013ZM19.1057 25.3443L17.921 23.1429C18.1222 23.0346 18.3652 22.969 18.6167 22.969V25.469V27.969C19.2112 27.969 19.7802 27.8203 20.2903 27.5458L19.1057 25.3443ZM18.6167 25.469V22.969C18.7622 22.969 19.0302 23.0046 19.3194 23.1799C19.6102 23.3562 19.7704 23.5816 19.8425 23.7222L17.6183 24.8637L15.3941 26.0052C15.6734 26.5493 16.1035 27.0773 16.7271 27.4554C17.3491 27.8326 18.0126 27.969 18.6167 27.969V25.469ZM17.6183 24.8637L19.8428 23.7227C19.9236 23.8802 20.013 24.1566 19.9799 24.5039C19.9476 24.8435 19.8152 25.0722 19.7411 25.1725L17.7303 23.687L15.7196 22.2015C15.3639 22.6829 15.0721 23.2983 15.0024 24.0301C14.932 24.7696 15.1062 25.4438 15.3939 26.0047L17.6183 24.8637ZM17.7303 23.687L19.7339 25.1822L25.4703 17.4952L23.4667 16L21.4631 14.5048L15.7267 22.1918L17.7303 23.687Z" fill="var(--stroke-0, #2DA2DB)" mask="url(#path-1-inside-1_0_26)"/>
</g>
</g>
</svg>
