<svg preserveAspectRatio="none" width="100%" height="100%" overflow="visible" style="display: block;" viewBox="0 0 40 40" fill="none" xmlns="http://www.w3.org/2000/svg">
<g id="weight-tilde">
<path id="Vector" d="M13.3317 25C13.7198 24.4825 14.2231 24.0625 14.8016 23.7732C15.3802 23.4839 16.0182 23.3333 16.665 23.3333C17.3119 23.3333 17.9499 23.4839 18.5284 23.7732C19.107 24.0625 19.6103 24.4825 19.9984 25C20.3865 25.5175 20.8898 25.9375 21.4683 26.2268C22.0469 26.5161 22.6849 26.6667 23.3317 26.6667C23.9786 26.6667 24.6165 26.5161 25.1951 26.2268C25.7737 25.9375 26.2769 25.5175 26.665 25M10.8333 13.3333C10.1118 13.3405 9.41202 13.5815 8.8392 14.0203C8.26638 14.4591 7.8514 15.0719 7.65662 15.7667L3.49995 30.8333C3.37396 31.321 3.3601 31.8308 3.45942 32.3246C3.55875 32.8183 3.76867 33.2832 4.07342 33.6842C4.37817 34.0852 4.76983 34.4119 5.21897 34.6398C5.66811 34.8677 6.16305 34.9908 6.66662 35H33.3333C33.8477 34.9998 34.3552 34.8806 34.8158 34.6516C35.2765 34.4226 35.6779 34.09 35.9887 33.68C36.2994 33.27 36.511 32.7937 36.607 32.2882C36.7029 31.7828 36.6805 31.262 36.5416 30.7667L32.3333 15.8333C32.1497 15.1223 31.7366 14.4919 31.1579 14.0398C30.5793 13.5877 29.8676 13.3394 29.1333 13.3333H10.8333ZM25 8.33333C25 11.0948 22.7614 13.3333 20 13.3333C17.2386 13.3333 15 11.0948 15 8.33333C15 5.57191 17.2386 3.33333 20 3.33333C22.7614 3.33333 25 5.57191 25 8.33333Z" stroke="var(--stroke-0, #2DA2DB)" stroke-width="2" stroke-linecap="round" stroke-linejoin="round"/>
</g>
</svg>
