<svg preserveAspectRatio="none" width="100%" height="100%" overflow="visible" style="display: block;" viewBox="0 0 32 32" fill="none" xmlns="http://www.w3.org/2000/svg">
<g id="stone">
<path id="Vector" d="M15.9867 29.3333L18.6667 16M18.6667 16L29.096 20.2453M18.6667 16L11.2933 3.06901M15.0187 2.94021C13.8005 2.53374 12.4766 2.58048 11.2901 3.07183C10.1036 3.56318 9.13423 4.46616 8.56007 5.61488L3.22674 16.2815C2.64543 17.4442 2.50877 18.7792 2.84244 20.0356C3.17611 21.2919 3.95714 22.3832 5.03874 23.1042L13.0387 28.4375C13.9149 29.0217 14.9444 29.3335 15.9974 29.3335C17.0504 29.3335 18.0799 29.0217 18.9561 28.4375L26.9561 23.1042C27.9293 22.4553 28.6621 21.5045 29.0418 20.3981C29.4216 19.2918 29.427 18.0913 29.0574 16.9815L26.3907 8.98154C26.1289 8.19599 25.6878 7.48219 25.1023 6.89668C24.5168 6.31117 23.803 5.87003 23.0174 5.60821L15.0187 2.94021Z" stroke="var(--stroke-0, #2DA2DB)" stroke-width="2" stroke-linecap="round" stroke-linejoin="round"/>
</g>
</svg>
