<svg preserveAspectRatio="none" width="100%" height="100%" overflow="visible" style="display: block;" viewBox="0 0 32 32" fill="none" xmlns="http://www.w3.org/2000/svg">
<g id="pencil-ruler">
<path id="Vector" d="M17.3334 9.3334L11.6001 3.60006C10.9979 3.0008 10.1829 2.66439 9.3334 2.66439C8.48386 2.66439 7.66889 3.0008 7.06673 3.60006L3.60006 7.06673C3.0008 7.66889 2.66439 8.48386 2.66439 9.3334C2.66439 10.1829 3.0008 10.9979 3.60006 11.6001L9.3334 17.3334M10.6667 8L13.3333 5.33333M24 21.3333L26.6667 18.6667M22.6667 14.6667L28.4 20.4C29.6533 21.6533 29.6533 23.68 28.4 24.9333L24.9333 28.4C23.68 29.6533 21.6533 29.6533 20.4 28.4L14.6667 22.6667M20 6.66667L25.3333 12M28.2319 9.08252C28.9369 8.37775 29.333 7.42181 29.3331 6.425C29.3332 5.42818 28.9373 4.47214 28.2326 3.76719C27.5278 3.06224 26.5719 2.66614 25.5751 2.66602C24.5782 2.66589 23.6222 3.06176 22.9172 3.76652L5.12258 21.5652C4.81301 21.8739 4.58406 22.2539 4.45591 22.6719L2.69458 28.4745C2.66012 28.5898 2.65752 28.7123 2.68705 28.829C2.71658 28.9457 2.77714 29.0522 2.86231 29.1372C2.94748 29.2222 3.05407 29.2826 3.17079 29.312C3.28751 29.3413 3.40999 29.3385 3.52525 29.3039L9.32925 27.5439C9.74681 27.4169 10.1268 27.1893 10.4359 26.8812L28.2319 9.08252Z" stroke="var(--stroke-0, #2DA2DB)" stroke-width="2" stroke-linecap="round" stroke-linejoin="round"/>
</g>
</svg>
