<svg preserveAspectRatio="none" width="100%" height="100%" overflow="visible" style="display: block;" viewBox="0 0 20 20" fill="none" xmlns="http://www.w3.org/2000/svg">
<g id="manufacturing">
<g id="Vector">
<mask id="path-1-inside-1_0_33" fill="white">
<path d="M4.50792 8.57229C4.23569 8.50201 3.97972 8.4034 3.74 8.27646C3.50028 8.14951 3.28819 7.99049 3.10375 7.79938L2.66521 7.97688C2.51646 8.03576 2.37194 8.04243 2.23167 7.99687C2.09125 7.95132 1.98375 7.86139 1.90917 7.72708L1.77292 7.50271C1.69639 7.38229 1.66674 7.24778 1.68396 7.09917C1.70118 6.95069 1.76861 6.82285 1.88625 6.71562L2.28812 6.33667C2.21868 6.07 2.18396 5.80944 2.18396 5.555C2.18396 5.30069 2.21868 5.03938 2.28812 4.77104L1.88625 4.38354C1.76861 4.27882 1.70118 4.14882 1.68396 3.99354C1.66674 3.83813 1.69618 3.69986 1.77229 3.57875L1.88125 3.39729C1.95403 3.26229 2.06569 3.16882 2.21625 3.11687C2.36681 3.06493 2.51868 3.0684 2.67187 3.12729L3.10375 3.30479C3.29153 3.11368 3.50417 2.95458 3.74167 2.8275C3.97931 2.70055 4.23458 2.60215 4.5075 2.53229L4.56396 2.07375C4.59174 1.90778 4.66576 1.76937 4.78604 1.65854C4.90632 1.54771 5.04903 1.49229 5.21417 1.49229H5.40188C5.56299 1.49229 5.70347 1.54764 5.82333 1.65833C5.94319 1.76903 6.01826 1.90583 6.04854 2.06875L6.10438 2.53188C6.37326 2.60215 6.62757 2.70076 6.86729 2.82771C7.10701 2.95465 7.3191 3.11368 7.50354 3.30479L7.94208 3.12729C8.08972 3.0684 8.23479 3.06146 8.37729 3.10646C8.51979 3.15146 8.6291 3.24146 8.70521 3.37646L8.84021 3.57875C8.91299 3.69986 8.9416 3.83917 8.92604 3.99667C8.91049 4.15403 8.84215 4.28465 8.72104 4.38854L8.29854 4.76937C8.37132 5.02424 8.40771 5.2825 8.40771 5.54417C8.40771 5.80583 8.37132 6.06938 8.29854 6.33479L8.72104 6.72063C8.83882 6.82451 8.90632 6.95167 8.92354 7.10208C8.94076 7.25264 8.91299 7.39375 8.84021 7.52542L8.72604 7.70625C8.64993 7.84167 8.53743 7.93535 8.38854 7.98729C8.23965 8.03924 8.0925 8.03576 7.94708 7.97688L7.50354 7.79938C7.3191 8.00438 7.10729 8.16695 6.86813 8.28708C6.62882 8.40708 6.37437 8.50201 6.10479 8.57188L6.04854 9.02875C6.01743 9.19583 5.94201 9.33479 5.82229 9.44563C5.70257 9.55646 5.56062 9.61188 5.39646 9.61188H5.21C5.04583 9.61188 4.90396 9.55722 4.78437 9.44792C4.66479 9.33875 4.59132 9.20125 4.56396 9.03542L4.50792 8.57229ZM5.30229 7.43896C5.82215 7.43896 6.26722 7.25486 6.6375 6.88667C7.00778 6.51861 7.19292 6.07389 7.19292 5.5525C7.19292 5.03111 7.00785 4.58625 6.63771 4.21792C6.26757 3.84944 5.82201 3.66521 5.30104 3.66521C4.77993 3.66521 4.33521 3.85 3.96688 4.21958C3.59854 4.58903 3.41437 5.03375 3.41437 5.55375C3.41437 6.07375 3.59903 6.51792 3.96833 6.88625C4.33778 7.25472 4.78243 7.43896 5.30229 7.43896ZM13.1548 18.0938C12.7599 17.9965 12.384 17.8457 12.0271 17.6413C11.6703 17.4369 11.3619 17.172 11.1019 16.8465L10.5602 17.0181C10.3935 17.0737 10.226 17.071 10.0577 17.0102C9.88937 16.9494 9.75882 16.8415 9.66604 16.6865L9.49604 16.3965C9.39993 16.2415 9.36576 16.0741 9.39354 15.8944C9.42132 15.7147 9.50465 15.5626 9.64354 15.4381L10.0602 15.0648C9.9391 14.6837 9.87854 14.2904 9.87854 13.885C9.87854 13.4794 9.9391 13.0878 10.0602 12.7102L9.64354 12.356C9.50465 12.2449 9.42132 12.0965 9.39354 11.9106C9.36576 11.7248 9.40076 11.5544 9.49854 11.3996L9.68688 11.0835C9.7691 10.9319 9.89007 10.8283 10.0498 10.7727C10.2095 10.7172 10.3727 10.7102 10.5394 10.7519L11.1019 10.9027C11.3758 10.591 11.6876 10.3303 12.0375 10.1206C12.3875 9.91104 12.7607 9.76292 13.1571 9.67625L13.3015 9.07208C13.3426 8.90542 13.4291 8.76653 13.561 8.65542C13.693 8.54431 13.8492 8.48875 14.0298 8.48875H14.4048C14.5853 8.48875 14.7451 8.54431 14.884 8.65542C15.0228 8.76653 15.1131 8.90542 15.1548 9.07208L15.3006 9.67625C15.7201 9.73514 16.1013 9.87368 16.4444 10.0919C16.7873 10.3102 17.0957 10.5805 17.3696 10.9027L17.9321 10.7519C18.1021 10.7102 18.2669 10.7206 18.4267 10.7831C18.5864 10.8456 18.7074 10.9533 18.7896 11.106L18.9754 11.3977C19.0715 11.5505 19.1022 11.7172 19.0675 11.8977C19.0328 12.0783 18.946 12.231 18.8071 12.356L18.4113 12.7102C18.5324 13.0878 18.5929 13.4794 18.5929 13.885C18.5929 14.2904 18.5324 14.6837 18.4113 15.0648L18.8279 15.4365C18.9668 15.5603 19.0501 15.7126 19.0779 15.8931C19.1057 16.0737 19.0715 16.2409 18.9754 16.3948L18.8104 16.6881C18.7143 16.842 18.5821 16.9528 18.4137 17.0206C18.2454 17.0884 18.071 17.0876 17.8904 17.0181L17.3696 16.8465C17.1096 17.1859 16.802 17.4543 16.4469 17.6517C16.0916 17.8492 15.7095 17.9965 15.3006 18.0938L15.1548 18.6979C15.1131 18.8646 15.0263 19.0035 14.8944 19.1146C14.7624 19.2257 14.6062 19.2813 14.4256 19.2813H14.0506C13.8701 19.2813 13.7103 19.2257 13.5715 19.1146C13.4326 19.0035 13.3423 18.8646 13.3006 18.6979L13.1548 18.0938ZM14.2358 16.736C15.0297 16.736 15.7029 16.4592 16.2554 15.9056C16.8079 15.352 17.0842 14.6788 17.0842 13.8858C17.0842 13.0929 16.8078 12.4194 16.255 11.8652C15.7022 11.311 15.0299 11.034 14.2381 11.034C13.4426 11.034 12.7685 11.3108 12.216 11.8646C11.6635 12.4185 11.3873 13.0919 11.3873 13.885C11.3873 14.6806 11.6635 15.3546 12.216 15.9071C12.7685 16.4597 13.4418 16.736 14.2358 16.736Z"/>
</mask>
<path d="M4.50792 8.57229C4.23569 8.50201 3.97972 8.4034 3.74 8.27646C3.50028 8.14951 3.28819 7.99049 3.10375 7.79938L2.66521 7.97688C2.51646 8.03576 2.37194 8.04243 2.23167 7.99687C2.09125 7.95132 1.98375 7.86139 1.90917 7.72708L1.77292 7.50271C1.69639 7.38229 1.66674 7.24778 1.68396 7.09917C1.70118 6.95069 1.76861 6.82285 1.88625 6.71562L2.28812 6.33667C2.21868 6.07 2.18396 5.80944 2.18396 5.555C2.18396 5.30069 2.21868 5.03938 2.28812 4.77104L1.88625 4.38354C1.76861 4.27882 1.70118 4.14882 1.68396 3.99354C1.66674 3.83813 1.69618 3.69986 1.77229 3.57875L1.88125 3.39729C1.95403 3.26229 2.06569 3.16882 2.21625 3.11687C2.36681 3.06493 2.51868 3.0684 2.67187 3.12729L3.10375 3.30479C3.29153 3.11368 3.50417 2.95458 3.74167 2.8275C3.97931 2.70055 4.23458 2.60215 4.5075 2.53229L4.56396 2.07375C4.59174 1.90778 4.66576 1.76937 4.78604 1.65854C4.90632 1.54771 5.04903 1.49229 5.21417 1.49229H5.40188C5.56299 1.49229 5.70347 1.54764 5.82333 1.65833C5.94319 1.76903 6.01826 1.90583 6.04854 2.06875L6.10438 2.53188C6.37326 2.60215 6.62757 2.70076 6.86729 2.82771C7.10701 2.95465 7.3191 3.11368 7.50354 3.30479L7.94208 3.12729C8.08972 3.0684 8.23479 3.06146 8.37729 3.10646C8.51979 3.15146 8.6291 3.24146 8.70521 3.37646L8.84021 3.57875C8.91299 3.69986 8.9416 3.83917 8.92604 3.99667C8.91049 4.15403 8.84215 4.28465 8.72104 4.38854L8.29854 4.76937C8.37132 5.02424 8.40771 5.2825 8.40771 5.54417C8.40771 5.80583 8.37132 6.06938 8.29854 6.33479L8.72104 6.72063C8.83882 6.82451 8.90632 6.95167 8.92354 7.10208C8.94076 7.25264 8.91299 7.39375 8.84021 7.52542L8.72604 7.70625C8.64993 7.84167 8.53743 7.93535 8.38854 7.98729C8.23965 8.03924 8.0925 8.03576 7.94708 7.97688L7.50354 7.79938C7.3191 8.00438 7.10729 8.16695 6.86813 8.28708C6.62882 8.40708 6.37437 8.50201 6.10479 8.57188L6.04854 9.02875C6.01743 9.19583 5.94201 9.33479 5.82229 9.44563C5.70257 9.55646 5.56062 9.61188 5.39646 9.61188H5.21C5.04583 9.61188 4.90396 9.55722 4.78437 9.44792C4.66479 9.33875 4.59132 9.20125 4.56396 9.03542L4.50792 8.57229ZM5.30229 7.43896C5.82215 7.43896 6.26722 7.25486 6.6375 6.88667C7.00778 6.51861 7.19292 6.07389 7.19292 5.5525C7.19292 5.03111 7.00785 4.58625 6.63771 4.21792C6.26757 3.84944 5.82201 3.66521 5.30104 3.66521C4.77993 3.66521 4.33521 3.85 3.96688 4.21958C3.59854 4.58903 3.41437 5.03375 3.41437 5.55375C3.41437 6.07375 3.59903 6.51792 3.96833 6.88625C4.33778 7.25472 4.78243 7.43896 5.30229 7.43896ZM13.1548 18.0938C12.7599 17.9965 12.384 17.8457 12.0271 17.6413C11.6703 17.4369 11.3619 17.172 11.1019 16.8465L10.5602 17.0181C10.3935 17.0737 10.226 17.071 10.0577 17.0102C9.88937 16.9494 9.75882 16.8415 9.66604 16.6865L9.49604 16.3965C9.39993 16.2415 9.36576 16.0741 9.39354 15.8944C9.42132 15.7147 9.50465 15.5626 9.64354 15.4381L10.0602 15.0648C9.9391 14.6837 9.87854 14.2904 9.87854 13.885C9.87854 13.4794 9.9391 13.0878 10.0602 12.7102L9.64354 12.356C9.50465 12.2449 9.42132 12.0965 9.39354 11.9106C9.36576 11.7248 9.40076 11.5544 9.49854 11.3996L9.68688 11.0835C9.7691 10.9319 9.89007 10.8283 10.0498 10.7727C10.2095 10.7172 10.3727 10.7102 10.5394 10.7519L11.1019 10.9027C11.3758 10.591 11.6876 10.3303 12.0375 10.1206C12.3875 9.91104 12.7607 9.76292 13.1571 9.67625L13.3015 9.07208C13.3426 8.90542 13.4291 8.76653 13.561 8.65542C13.693 8.54431 13.8492 8.48875 14.0298 8.48875H14.4048C14.5853 8.48875 14.7451 8.54431 14.884 8.65542C15.0228 8.76653 15.1131 8.90542 15.1548 9.07208L15.3006 9.67625C15.7201 9.73514 16.1013 9.87368 16.4444 10.0919C16.7873 10.3102 17.0957 10.5805 17.3696 10.9027L17.9321 10.7519C18.1021 10.7102 18.2669 10.7206 18.4267 10.7831C18.5864 10.8456 18.7074 10.9533 18.7896 11.106L18.9754 11.3977C19.0715 11.5505 19.1022 11.7172 19.0675 11.8977C19.0328 12.0783 18.946 12.231 18.8071 12.356L18.4113 12.7102C18.5324 13.0878 18.5929 13.4794 18.5929 13.885C18.5929 14.2904 18.5324 14.6837 18.4113 15.0648L18.8279 15.4365C18.9668 15.5603 19.0501 15.7126 19.0779 15.8931C19.1057 16.0737 19.0715 16.2409 18.9754 16.3948L18.8104 16.6881C18.7143 16.842 18.5821 16.9528 18.4137 17.0206C18.2454 17.0884 18.071 17.0876 17.8904 17.0181L17.3696 16.8465C17.1096 17.1859 16.802 17.4543 16.4469 17.6517C16.0916 17.8492 15.7095 17.9965 15.3006 18.0938L15.1548 18.6979C15.1131 18.8646 15.0263 19.0035 14.8944 19.1146C14.7624 19.2257 14.6062 19.2813 14.4256 19.2813H14.0506C13.8701 19.2813 13.7103 19.2257 13.5715 19.1146C13.4326 19.0035 13.3423 18.8646 13.3006 18.6979L13.1548 18.0938ZM14.2358 16.736C15.0297 16.736 15.7029 16.4592 16.2554 15.9056C16.8079 15.352 17.0842 14.6788 17.0842 13.8858C17.0842 13.0929 16.8078 12.4194 16.255 11.8652C15.7022 11.311 15.0299 11.034 14.2381 11.034C13.4426 11.034 12.7685 11.3108 12.216 11.8646C11.6635 12.4185 11.3873 13.0919 11.3873 13.885C11.3873 14.6806 11.6635 15.3546 12.216 15.9071C12.7685 16.4597 13.4418 16.736 14.2358 16.736Z" stroke="var(--stroke-0, #4CC4FE)" stroke-width="3" mask="url(#path-1-inside-1_0_33)"/>
</g>
</g>
</svg>
