<svg preserveAspectRatio="none" width="100%" height="100%" overflow="visible" style="display: block;" viewBox="0 0 48 48" fill="none" xmlns="http://www.w3.org/2000/svg">
<g id="monitor-play">
<path id="Vector" d="M24 34V42M16 42H32M30.066 18.8802C30.2624 18.9938 30.4255 19.1571 30.5389 19.3537C30.6522 19.5503 30.7119 19.7732 30.7119 20.0002C30.7119 20.2271 30.6522 20.45 30.5389 20.6466C30.4255 20.8432 30.2624 21.0065 30.066 21.1202L21.936 25.8242C21.7397 25.9377 21.5168 25.9976 21.29 25.9976C21.0632 25.9976 20.8404 25.9378 20.644 25.8242C20.4477 25.7106 20.2848 25.5472 20.1717 25.3506C20.0586 25.154 19.9994 24.931 20 24.7042V15.2962C19.9996 15.0696 20.0589 14.847 20.1718 14.6506C20.2848 14.4543 20.4475 14.2911 20.6435 14.1776C20.8396 14.0641 21.062 14.0042 21.2886 14.0039C21.5151 14.0037 21.7377 14.0631 21.934 14.1762L30.066 18.8802ZM8 6H40C42.2091 6 44 7.79086 44 10V30C44 32.2091 42.2091 34 40 34H8C5.79086 34 4 32.2091 4 30V10C4 7.79086 5.79086 6 8 6Z" stroke="var(--stroke-0, #2DA2DB)" stroke-width="2.5" stroke-linecap="round" stroke-linejoin="round"/>
</g>
</svg>
