<svg preserveAspectRatio="none" width="100%" height="100%" overflow="visible" style="display: block;" viewBox="0 0 48 48" fill="none" xmlns="http://www.w3.org/2000/svg">
<g id="compress">
<path id="Vector" d="M23.9383 33.0505C23.9688 33.0505 23.9888 33.0523 23.9998 33.0544C24.0102 33.0563 24.015 33.0587 24.0164 33.0593C24.0022 33.0535 24.0008 33.0509 24.0115 33.0583L24.0799 33.1179L29.2518 38.3278C29.2988 38.3831 29.3113 38.4203 29.3133 38.488C29.3134 38.4913 29.3133 38.4945 29.3133 38.4968C29.3094 38.5023 29.3016 38.5115 29.2889 38.5251C29.2709 38.5425 29.2585 38.5526 29.2518 38.5573C29.2507 38.5581 29.2497 38.5587 29.2489 38.5593C29.2463 38.5594 29.2428 38.5593 29.2381 38.5593C29.2281 38.5591 29.2222 38.5587 29.2196 38.5583C29.2187 38.5577 29.2177 38.5571 29.2166 38.5563L29.1756 38.5202L26.6434 35.9255L24.0692 33.2888V43.0983C24.0691 43.1304 24.0663 43.1515 24.0643 43.1628C24.0633 43.1682 24.0629 43.1724 24.0623 43.1745C24.0618 43.1764 24.0614 43.1774 24.0614 43.1774V43.1765L24.0467 43.1931C24.0362 43.2035 24.0302 43.208 24.0291 43.2087L24.0135 43.2126C24.0018 43.2147 23.9798 43.2175 23.9471 43.2175C23.9148 43.2174 23.894 43.2146 23.8826 43.2126C23.8769 43.2115 23.873 43.2103 23.8709 43.2097H23.8699C23.8697 43.2095 23.864 43.2067 23.8543 43.197V43.196L23.8397 43.1794C23.8396 43.1792 23.8384 43.1778 23.8377 43.1755C23.8371 43.1732 23.8368 43.1693 23.8358 43.1638C23.8337 43.1521 23.8309 43.1308 23.8309 43.0983V33.4128L21.2772 35.9284L18.701 38.4675C18.6403 38.519 18.596 38.5346 18.5291 38.5388C18.5231 38.5337 18.5139 38.5275 18.5047 38.5182L18.4569 38.4587V38.4274C18.4579 38.4257 18.4602 38.4233 18.4627 38.4196L18.5028 38.3727L23.8006 33.1257C23.8421 33.0846 23.8686 33.0646 23.8797 33.0573C23.8873 33.0547 23.9043 33.0505 23.9383 33.0505ZM9.55842 25.7272H38.4412C38.5105 25.7272 38.5733 25.7352 38.6883 25.8503C38.803 25.9651 38.8113 26.0272 38.8114 26.0964C38.8114 26.1842 38.797 26.2429 38.6951 26.3434C38.5818 26.4553 38.5172 26.4665 38.4412 26.4665H9.55842C9.47956 26.4665 9.42055 26.4556 9.31623 26.3513C9.21469 26.2497 9.201 26.1893 9.201 26.1022C9.20103 26.0154 9.21542 25.9503 9.32209 25.8425C9.4277 25.7358 9.48495 25.7272 9.55842 25.7272ZM9.30842 19.9499H38.6912C38.7234 19.9499 38.7443 19.9527 38.7557 19.9548C38.7614 19.9558 38.7652 19.9571 38.7674 19.9577L38.7703 19.9587C38.7717 19.9596 38.7776 19.9631 38.7869 19.9724C38.7974 19.9828 38.8019 19.9899 38.8026 19.9909C38.8031 19.9924 38.8048 19.9973 38.8065 20.0065C38.8086 20.0183 38.8113 20.0395 38.8114 20.072C38.8114 20.1046 38.8084 20.1256 38.8065 20.1364C38.8058 20.1399 38.804 20.1423 38.8035 20.1442L38.7967 20.153C38.7872 20.1623 38.782 20.1661 38.7811 20.1667L38.7791 20.1677C38.7774 20.1683 38.7716 20.1696 38.7606 20.1716C38.7476 20.1739 38.7251 20.1774 38.6912 20.1774H9.30842C9.25511 20.1774 9.22996 20.1697 9.22346 20.1677C9.22179 20.1662 9.21875 20.1639 9.21565 20.1608C9.21214 20.1573 9.21007 20.1546 9.20881 20.153C9.20648 20.1448 9.201 20.1201 9.201 20.072C9.201 20.0383 9.20355 20.0158 9.20588 20.0026C9.20793 19.9911 9.21009 19.9849 9.21077 19.9831C9.21109 19.9823 9.21107 19.9812 9.21174 19.9802C9.21264 19.9788 9.21658 19.9736 9.22541 19.9645C9.22871 19.9612 9.23141 19.9583 9.23323 19.9567C9.23527 19.9562 9.2385 19.9556 9.24299 19.9548C9.2541 19.9528 9.27529 19.9499 9.30842 19.9499ZM23.9022 3.237C23.9348 3.237 23.9562 3.23981 23.9676 3.24188C23.9733 3.24293 23.9772 3.24422 23.9793 3.24481H23.9803C23.9812 3.24544 23.9869 3.24843 23.9959 3.25751V3.25848C24.0056 3.26821 24.0097 3.27382 24.0106 3.27509L24.0145 3.29071C24.0166 3.30237 24.0193 3.3237 24.0194 3.35614V13.03L26.5701 10.528L29.1678 7.97919C29.2161 7.93476 29.2445 7.92178 29.3182 7.91962C29.3213 7.91953 29.3238 7.91958 29.326 7.91962C29.3293 7.92198 29.3339 7.92546 29.3397 7.93036C29.3811 7.97492 29.3911 7.99805 29.3914 7.99872L29.3924 7.99969C29.3925 7.99997 29.3934 8.00512 29.3934 8.0163C29.3934 8.02052 29.3926 8.02384 29.3924 8.02606C29.3914 8.02781 29.3907 8.03075 29.3885 8.03387C29.3823 8.04283 29.3692 8.059 29.3465 8.08173L24.0838 13.3327L24.0799 13.3366C24.046 13.3707 24.0225 13.3876 24.0115 13.3952C24.0032 13.3979 23.9835 13.405 23.9442 13.405C23.9171 13.405 23.8995 13.4018 23.8905 13.4001C23.8859 13.3992 23.8829 13.3978 23.8807 13.3972C23.8796 13.3965 23.8781 13.3961 23.8768 13.3952L23.8016 13.3298L18.5535 8.08173C18.5487 8.07649 18.5461 8.07348 18.5457 8.07294C18.5454 8.07246 18.5454 8.07146 18.5447 8.07001C18.5435 8.06705 18.5325 8.04087 18.5301 7.97626C18.5299 7.97215 18.5301 7.96851 18.5301 7.96551C18.5339 7.9611 18.5395 7.95509 18.5467 7.94794C18.5879 7.90726 18.6078 7.90051 18.6043 7.90204H18.6033C18.6053 7.9017 18.6122 7.90106 18.6248 7.90106C18.6401 7.90108 18.6479 7.90257 18.6502 7.90301C18.6521 7.90337 18.6526 7.90378 18.6531 7.90399C18.6538 7.90428 18.6594 7.90648 18.6688 7.91278C18.6773 7.91856 18.6906 7.92903 18.7088 7.94598L21.2069 10.5056L23.7801 13.1423V3.35614C23.7801 3.32407 23.7829 3.30297 23.785 3.29169C23.786 3.28617 23.7873 3.28207 23.7879 3.27997L23.7889 3.27801C23.7894 3.27722 23.7928 3.27127 23.8026 3.26141C23.8128 3.25121 23.8189 3.24664 23.8201 3.24579H23.8211L23.8367 3.24188C23.8484 3.23976 23.8697 3.23702 23.9022 3.237Z" stroke="var(--stroke-0, #2DA2DB)" stroke-width="3"/>
</g>
</svg>
