<svg preserveAspectRatio="none" width="100%" height="100%" overflow="visible" style="display: block;" viewBox="0 0 48 48" fill="none" xmlns="http://www.w3.org/2000/svg">
<g id="handyman">
<path id="Vector" d="M30.5886 26.1502C30.6079 26.1502 30.6194 26.1513 30.6237 26.1522L30.6306 26.1551C30.6419 26.1621 30.6732 26.1833 30.7224 26.2323L43.0007 38.5233H43.0017C43.0487 38.5703 43.0714 38.6019 43.0808 38.6161C43.0818 38.623 43.0837 38.6359 43.0837 38.6561C43.0837 38.6791 43.0803 38.687 43.0788 38.6903C43.0766 38.6954 43.0611 38.7295 43.0017 38.7889L38.7273 43.0633C38.6892 43.1014 38.6639 43.1195 38.653 43.1268C38.6509 43.1273 38.6481 43.1282 38.6452 43.1288C38.6338 43.1308 38.6137 43.1336 38.5827 43.1336C38.5463 43.1336 38.5281 43.1275 38.5202 43.1249C38.5082 43.1164 38.4846 43.098 38.4499 43.0633L26.1706 30.784C26.1346 30.7481 26.1162 30.7235 26.1081 30.7118C26.1054 30.7035 26.1003 30.6858 26.1003 30.6512C26.1003 30.6098 26.1058 30.587 26.1111 30.5731C26.1019 30.5947 26.1063 30.57 26.1706 30.5057L30.4431 26.2333C30.4935 26.1829 30.5252 26.1616 30.5359 26.1551C30.5368 26.1549 30.5382 26.1537 30.5407 26.1532C30.5472 26.1519 30.5625 26.1503 30.5886 26.1502ZM16.3982 27.4501L16.3601 27.4881L6.24094 37.5956L5.15305 38.6815L6.23996 39.7167V39.7176L8.31906 41.7958L9.35324 42.8817L10.4392 41.7967L20.5593 31.6883L20.5984 31.6493V31.9881L9.51242 43.0624V43.0633C9.48625 43.0895 9.46656 43.105 9.4548 43.1141C9.44203 43.1167 9.41833 43.1219 9.37961 43.1219C9.32924 43.1219 9.28361 43.1133 9.23605 43.0975C9.22877 43.0921 9.21544 43.0818 9.19699 43.0633L4.97238 38.8397L4.96066 38.827L4.94895 38.8163L4.93137 38.7977C4.9219 38.7654 4.91381 38.7244 4.91379 38.6688C4.91379 38.6257 4.91954 38.5969 4.92551 38.577C4.93236 38.5676 4.94574 38.549 4.97141 38.5233L4.97238 38.5243L16.0583 27.4501H16.3982ZM27.4382 29.5663L26.3786 30.6268L27.4372 31.6874L37.5329 41.7948L38.5935 42.8573L39.655 41.7958L41.7341 39.7176L42.7937 38.6571L41.7341 37.5965L31.6384 27.4891L30.5779 26.4266L27.4382 29.5663ZM13.5681 10.5887V13.5106L23.9616 23.9042L32.6198 15.246L31.5583 14.1854L29.2107 11.8387L29.4607 11.5907V11.5975L30.946 10.1122L33.5202 7.54869H33.5095L33.7595 7.29771L41.3933 14.9403V14.9413C41.7337 15.2869 42.0099 15.6737 42.2253 16.1063L42.3142 16.2948C42.5257 16.7714 42.6335 17.2793 42.6335 17.8329C42.6335 18.3188 42.556 18.781 42.405 19.2274L38.3825 15.2049L37.322 16.2655L35.5105 18.076L32.8513 15.4169L20.9987 27.2694V27.0487H20.8171L23.78 24.0858L13.3864 13.6922H10.4646L5.46359 8.69127L8.56711 5.58775L13.5681 10.5887ZM29.4607 7.54869H25.8288L29.4607 3.91002V7.54869Z" stroke="var(--stroke-0, #2DA2DB)" stroke-width="3"/>
</g>
</svg>
