<svg preserveAspectRatio="none" width="100%" height="100%" overflow="visible" style="display: block;" viewBox="0 0 48 48" fill="none" xmlns="http://www.w3.org/2000/svg">
<g id="stone">
<path id="Vector" d="M23.98 44L28 24M28 24L43.644 30.368M28 24L16.9399 4.60352M22.5281 4.41031C20.7008 3.80061 18.7149 3.87071 16.9351 4.60775C15.1554 5.34478 13.7013 6.69924 12.8401 8.42231L4.84011 24.4223C3.96815 26.1664 3.76315 28.1688 4.26366 30.0533C4.76416 31.9379 5.93571 33.5747 7.55811 34.6563L19.5581 42.6563C20.8723 43.5326 22.4165 44.0002 23.9961 44.0002C25.5757 44.0002 27.1199 43.5326 28.4341 42.6563L40.4341 34.6563C41.8939 33.683 42.9932 32.2567 43.5628 30.5972C44.1323 28.9377 44.1405 27.1369 43.5861 25.4723L39.5861 13.4723C39.1934 12.294 38.5317 11.2233 37.6534 10.345C36.7751 9.46675 35.7044 8.80504 34.5261 8.41231L22.5281 4.41031Z" stroke="var(--stroke-0, #2DA2DB)" stroke-width="3" stroke-linecap="round" stroke-linejoin="round"/>
</g>
</svg>
