<svg preserveAspectRatio="none" width="100%" height="100%" overflow="visible" style="display: block;" viewBox="0 0 48 48" fill="none" xmlns="http://www.w3.org/2000/svg">
<g id="destruction">
<path id="Vector" d="M39.8797 42.3923C39.5078 42.668 39.0946 42.7986 38.5955 42.7986H9.40407C8.91341 42.7985 8.50377 42.6691 8.13161 42.3923H39.8797ZM40.3924 30.5193C40.6764 30.8936 40.8113 31.3086 40.8113 31.8113V40.5954C40.8113 41.0927 40.6771 41.5064 40.3924 41.8826V30.5193ZM7.60719 41.866C7.33127 41.4942 7.20094 41.0855 7.20094 40.5954V31.8113C7.20094 31.3154 7.33127 30.9042 7.60719 30.5339V41.866ZM9.40407 29.6072H38.5955C39.0963 29.6072 39.5103 29.7388 39.8826 30.0144H8.12868C8.50119 29.7377 8.91175 29.6072 9.40407 29.6072ZM28.7654 14.2888L29.0388 15.9412L30.6502 15.489L38.5877 13.2624L33.7869 20.1433L32.8523 21.4841L34.2674 22.3005L36.6619 23.6843C36.6743 23.6927 36.6814 23.6982 36.6843 23.7009L36.6853 23.7019C36.6868 23.7054 36.6914 23.7169 36.6961 23.738V23.739C36.7006 23.7599 36.7018 23.7728 36.7019 23.779C36.7021 23.7846 36.7013 23.7877 36.7009 23.7898C36.7008 23.7907 36.6973 23.8135 36.6668 23.8621C36.6544 23.8816 36.6462 23.8921 36.6424 23.8962C36.6391 23.8997 36.638 23.9002 36.6394 23.8992C36.6388 23.8995 36.6377 23.8996 36.6365 23.9001C36.6315 23.9022 36.6183 23.907 36.5945 23.9119C36.5137 23.9282 36.48 23.9213 36.4168 23.8826L32.8513 21.573L32.822 21.5535L32.7732 21.5183C32.7724 21.5176 32.7718 21.5169 32.7713 21.5163L32.7654 21.4919C32.7524 21.4171 32.7556 21.3571 32.824 21.2478L35.4627 17.2712L37.4939 14.2117L33.9011 14.9744L28.865 16.0427L27.9773 11.1667L27.2556 7.19897L25.2097 10.6736L22.5349 15.2146L18.241 12.0652L14.8162 9.55443L15.9031 13.6589L17.2752 18.8406L12.0232 19.7712L8.10426 20.4646L11.5066 22.53L13.6082 23.8064L13.6297 23.8181C13.65 23.83 13.6609 23.8393 13.6658 23.8435L13.6716 23.8601C13.6743 23.8704 13.6742 23.8773 13.6746 23.8806C13.6742 23.8819 13.6747 23.8845 13.6736 23.8874L13.6511 23.9333C13.6452 23.9436 13.6396 23.9497 13.6365 23.9538C13.6311 23.9558 13.623 23.9588 13.6111 23.9617C13.565 23.9727 13.5453 23.9699 13.5427 23.9695C13.5419 23.9694 13.5253 23.9678 13.4881 23.946L13.4812 23.9421L7.21462 20.3279L15.3621 18.9206L16.9832 18.6404L16.5545 17.0515L14.3865 9.01732L21.1424 13.8415L22.5066 14.8152L23.324 13.3513L27.4031 6.04369L28.7654 14.2888Z" stroke="var(--stroke-0, #2DA2DB)" stroke-width="3"/>
</g>
</svg>
