<svg preserveAspectRatio="none" width="100%" height="100%" overflow="visible" style="display: block;" viewBox="0 0 48 48" fill="none" xmlns="http://www.w3.org/2000/svg">
<g id="octagon-alert">
<path id="Vector" d="M24 32H24.02M24 16V24M30.624 4C31.6848 4.00023 32.702 4.4218 33.452 5.172L42.828 14.548C43.5782 15.298 43.9998 16.3152 44 17.376V30.624C43.9998 31.6848 43.5782 32.702 42.828 33.452L33.452 42.828C32.702 43.5782 31.6848 43.9998 30.624 44H17.376C16.3152 43.9998 15.298 43.5782 14.548 42.828L5.172 33.452C4.4218 32.702 4.00023 31.6848 4 30.624V17.376C4.00023 16.3152 4.4218 15.298 5.172 14.548L14.548 5.172C15.298 4.4218 16.3152 4.00023 17.376 4H30.624Z" stroke="var(--stroke-0, #2DA2DB)" stroke-width="3" stroke-linecap="round" stroke-linejoin="round"/>
</g>
</svg>
