<svg preserveAspectRatio="none" width="100%" height="100%" overflow="visible" style="display: block;" viewBox="0 0 48 48" fill="none" xmlns="http://www.w3.org/2000/svg">
<g id="box">
<path id="Vector" d="M9.1075 14.7185V38.8925H38.8925V14.7185H32.1675V29.0575C32.1675 29.7085 31.9003 30.2028 31.366 30.5405C30.8313 30.8778 30.2822 30.8973 29.7185 30.599L24 27.7585L18.2815 30.599C17.7178 30.8973 17.1707 30.8778 16.64 30.5405C16.1097 30.2028 15.8445 29.7085 15.8445 29.0575V14.7185H9.1075ZM9.1075 42.299C8.1625 42.299 7.3585 41.9675 6.6955 41.3045C6.0325 40.6415 5.701 39.8375 5.701 38.8925V12.873C5.701 12.4957 5.761 12.1302 5.881 11.7765C6.001 11.4228 6.17767 11.0968 6.411 10.7985L9.26 6.961C9.56433 6.554 9.95183 6.24033 10.4225 6.02C10.8932 5.79933 11.3893 5.689 11.911 5.689H36.051C36.5647 5.689 37.0568 5.79933 37.5275 6.02C37.9982 6.24033 38.3857 6.554 38.69 6.961L41.601 10.7985C41.8263 11.0968 42.001 11.4228 42.125 11.7765C42.249 12.1302 42.311 12.4957 42.311 12.873V38.8925C42.311 39.8375 41.9783 40.6415 41.313 41.3045C40.6477 41.9675 39.8408 42.299 38.8925 42.299H9.1075ZM10.161 11.3955H37.789L35.9685 9.0955H11.961L10.161 11.3955ZM19.1675 14.7185V26.4665L24 24.05L28.8445 26.4665V14.7185H19.1675Z" fill="var(--fill-0, #2DA2DB)"/>
</g>
</svg>
