<svg preserveAspectRatio="none" width="100%" height="100%" overflow="visible" style="display: block;" viewBox="0 0 40 40" fill="none" xmlns="http://www.w3.org/2000/svg">
<g id="puzzle">
<path id="Vector" d="M25.65 7.31667C25.8595 7.52638 26.1212 7.67643 26.408 7.75133C26.6948 7.82624 26.9964 7.82329 27.2817 7.74279C27.567 7.6623 27.8256 7.50717 28.031 7.2934C28.2364 7.07963 28.381 6.81496 28.45 6.52667C28.623 5.8065 28.9849 5.14546 29.4983 4.61163C30.0117 4.0778 30.6581 3.69047 31.371 3.48954C32.0839 3.2886 32.8375 3.28132 33.5541 3.46845C34.2707 3.65558 34.9245 4.03034 35.4482 4.55415C35.9718 5.07797 36.3464 5.73189 36.5332 6.44859C36.7201 7.16528 36.7126 7.91884 36.5114 8.63165C36.3103 9.34447 35.9227 9.99078 35.3887 10.504C34.8547 11.0173 34.1936 11.3789 33.4733 11.5517C33.185 11.6207 32.9204 11.7653 32.7066 11.9707C32.4928 12.176 32.3377 12.4347 32.2572 12.72C32.1767 13.0053 32.1738 13.3069 32.2487 13.5937C32.3236 13.8805 32.4736 14.1422 32.6833 14.3517L35.4883 17.155C35.862 17.5286 36.1583 17.9721 36.3605 18.4603C36.5627 18.9484 36.6668 19.4716 36.6668 20C36.6668 20.5284 36.5627 21.0516 36.3605 21.5397C36.1583 22.0279 35.862 22.4714 35.4883 22.845L32.6833 25.65C32.4738 25.8597 32.2122 26.0098 31.9254 26.0847C31.6386 26.1596 31.337 26.1566 31.0517 26.0761C30.7664 25.9956 30.5077 25.8405 30.3023 25.6267C30.097 25.413 29.9523 25.1483 29.8833 24.86C29.7103 24.1398 29.3485 23.4788 28.8351 22.945C28.3216 22.4111 27.6752 22.0238 26.9623 21.8229C26.2494 21.6219 25.4959 21.6147 24.7792 21.8018C24.0626 21.9889 23.4088 22.3637 22.8852 22.8875C22.3615 23.4113 21.987 24.0652 21.8001 24.7819C21.6132 25.4986 21.6207 26.2522 21.8219 26.965C22.0231 27.6778 22.4106 28.3241 22.9446 28.8374C23.4786 29.3506 24.1398 29.7122 24.86 29.885C25.1483 29.954 25.413 30.0986 25.6267 30.304C25.8405 30.5094 25.9956 30.768 26.0761 31.0533C26.1566 31.3386 26.1596 31.6402 26.0847 31.927C26.0098 32.2138 25.8597 32.4755 25.65 32.685L22.845 35.4883C22.4714 35.862 22.0279 36.1583 21.5397 36.3605C21.0516 36.5627 20.5284 36.6668 20 36.6668C19.4716 36.6668 18.9484 36.5627 18.4603 36.3605C17.9721 36.1583 17.5286 35.862 17.155 35.4883L14.35 32.6833C14.1405 32.4736 13.8788 32.3236 13.592 32.2487C13.3052 32.1738 13.0036 32.1767 12.7183 32.2572C12.433 32.3377 12.1744 32.4928 11.969 32.7066C11.7636 32.9204 11.619 33.185 11.55 33.4733C11.377 34.1935 11.0151 34.8545 10.5017 35.3884C9.9883 35.9222 9.34186 36.3095 8.62898 36.5105C7.91609 36.7114 7.16254 36.7187 6.4459 36.5315C5.72927 36.3444 5.07547 35.9697 4.55183 35.4458C4.02819 34.922 3.65364 34.2681 3.46676 33.5514C3.27987 32.8347 3.2874 32.0812 3.48857 31.3683C3.68974 30.6555 4.07728 30.0092 4.61128 29.496C5.14528 28.9827 5.80644 28.6211 6.52667 28.4483C6.81496 28.3793 7.07963 28.2347 7.2934 28.0293C7.50717 27.824 7.6623 27.5653 7.74279 27.28C7.82329 26.9947 7.82624 26.6931 7.75133 26.4063C7.67643 26.1195 7.52638 25.8578 7.31667 25.6483L4.51167 22.845C4.13804 22.4714 3.84167 22.0279 3.63946 21.5397C3.43726 21.0516 3.33319 20.5284 3.33319 20C3.33319 19.4716 3.43726 18.9484 3.63946 18.4603C3.84167 17.9721 4.13804 17.5286 4.51167 17.155L7.31667 14.35C7.52617 14.1403 7.78782 13.9902 8.07463 13.9153C8.36144 13.8404 8.66305 13.8434 8.94834 13.9239C9.23364 14.0044 9.4923 14.1595 9.69767 14.3733C9.90304 14.587 10.0477 14.8517 10.1167 15.14C10.2897 15.8602 10.6515 16.5212 11.1649 17.055C11.6784 17.5889 12.3248 17.9762 13.0377 18.1771C13.7506 18.3781 14.5041 18.3853 15.2208 18.1982C15.9374 18.0111 16.5912 17.6363 17.1148 17.1125C17.6385 16.5887 18.013 15.9348 18.1999 15.2181C18.3868 14.5014 18.3793 13.7478 18.1781 13.035C17.9769 12.3222 17.5894 11.6759 17.0554 11.1626C16.5214 10.6494 15.8602 10.2878 15.14 10.115C14.8517 10.046 14.587 9.90137 14.3733 9.696C14.1595 9.49064 14.0044 9.23197 13.9239 8.94668C13.8434 8.66138 13.8404 8.35978 13.9153 8.07296C13.9902 7.78615 14.1403 7.5245 14.35 7.315L17.155 4.51167C17.5286 4.13804 17.9721 3.84167 18.4603 3.63946C18.9484 3.43726 19.4716 3.33319 20 3.33319C20.5284 3.33319 21.0516 3.43726 21.5397 3.63946C22.0279 3.84167 22.4714 4.13804 22.845 4.51167L25.65 7.31667Z" stroke="var(--stroke-0, #2DA2DB)" stroke-width="3" stroke-linecap="round" stroke-linejoin="round"/>
</g>
</svg>
