<svg preserveAspectRatio="none" width="100%" height="100%" overflow="visible" style="display: block;" viewBox="0 0 48 48" fill="none" xmlns="http://www.w3.org/2000/svg">
<g id="query_stats">
<path id="Vector" d="M29.4253 22.4847C31.9366 22.4847 34.0708 23.3635 35.8286 25.1214C37.5865 26.8792 38.4653 29.0134 38.4653 31.5247C38.4653 32.4835 38.3276 33.3821 38.0532 34.22C37.7787 35.0583 37.3873 35.8432 36.8794 36.5745L36.8677 36.5921L36.8823 36.6067L41.0493 40.7366C41.3845 41.0721 41.5522 41.4612 41.5523 41.9056C41.5523 42.3502 41.3847 42.7426 41.0493 43.0823C40.7137 43.4213 40.322 43.592 39.8736 43.596C39.4251 43.5999 39.0339 43.4311 38.6987 43.0882H38.6978L34.5308 38.9202L34.5161 38.9056L34.4995 38.9173C33.7681 39.4 32.9782 39.7784 32.1304 40.053C31.2831 40.3275 30.3806 40.4651 29.4234 40.4651C26.94 40.4651 24.8296 39.5956 23.0913 37.8567C21.3536 36.1178 20.4849 34.0064 20.4849 31.5218C20.4849 29.0374 21.354 26.9105 23.0923 25.1399C24.8309 23.3697 26.9417 22.4847 29.4253 22.4847ZM29.4312 25.8538C27.8663 25.8538 26.5446 26.411 25.4683 27.5257C24.3921 28.6403 23.8531 29.9796 23.853 31.5413C23.853 33.103 24.3909 34.4219 25.4653 35.4964C26.5398 36.5709 27.8587 37.1087 29.4204 37.1087C30.9822 37.1087 32.3214 36.5675 33.4361 35.4866C34.5508 34.4052 35.1089 33.0777 35.1089 31.5061C35.1088 29.9345 34.56 28.5993 33.4644 27.5013C32.3686 26.4031 31.0239 25.8538 29.4312 25.8538ZM39.5845 2.42118C40.0573 2.33352 40.4919 2.44055 40.8892 2.74345L40.8902 2.74442C41.268 3.00687 41.4848 3.3573 41.5425 3.79618C41.6003 4.23655 41.5107 4.64388 41.2739 5.01981L35.023 14.6595H35.022C34.4357 15.5858 33.6047 16.0648 32.5259 16.097C31.447 16.1294 30.5951 15.7074 29.9683 14.8304L26.3189 9.62138L26.2964 9.5911L26.2769 9.62235L20.4644 18.8548C19.9243 19.7096 19.1442 20.1796 18.1206 20.264C17.0972 20.3487 16.2395 20.0181 15.5464 19.2727L12.0923 15.3392L12.0708 15.3138L12.0532 15.3421L5.35011 25.8186C5.08881 26.2196 4.72616 26.469 4.26027 26.5677C3.79556 26.6661 3.36788 26.5622 2.97707 26.2542L2.97609 26.2532L2.84035 26.1526C2.54156 25.9066 2.36297 25.5876 2.30324 25.1956C2.24366 24.8028 2.30042 24.4414 2.47414 24.1106L2.55617 23.971L9.44679 13.1702C10.0017 12.3088 10.7761 11.84 11.772 11.762C12.7677 11.6843 13.6118 12.0166 14.3052 12.761V12.762L17.7739 16.7347L17.7954 16.76L17.814 16.7317L23.6372 7.41337C24.2271 6.48636 25.068 6.00985 26.1616 5.98173C27.1873 5.95536 28.0102 6.32277 28.6323 7.08524L28.7534 7.24247L32.4155 12.513L32.437 12.5442L32.4566 12.513L38.4937 3.14872C38.7478 2.75103 39.1112 2.50863 39.5845 2.42118Z" fill="var(--fill-0, #F4813E)" stroke="var(--stroke-0, #F4813E)" stroke-width="0.05"/>
</g>
</svg>
