<svg preserveAspectRatio="none" width="100%" height="100%" overflow="visible" style="display: block;" viewBox="0 0 20 20" fill="none" xmlns="http://www.w3.org/2000/svg">
<g id="tags" clip-path="url(#clip0_0_37)">
<path id="Vector" d="M1.66667 5.83333V10.9767C1.66676 11.4187 1.84242 11.8425 2.155 12.155L7.74667 17.7467C8.09276 18.0954 8.55513 18.3046 9.04557 18.3343C9.53602 18.3639 10.0202 18.212 10.4058 17.9075M10.9767 1.66667C11.4187 1.66676 11.8425 1.84242 12.155 2.155L17.7467 7.74667C17.9341 7.93259 18.0829 8.1538 18.1844 8.39751C18.286 8.64123 18.3383 8.90264 18.3383 9.16667C18.3383 9.43069 18.286 9.6921 18.1844 9.93582C18.0829 10.1795 17.9341 10.4007 17.7467 10.5867L13.92 14.4133C13.7341 14.6008 13.5129 14.7496 13.2692 14.8511C13.0254 14.9527 12.764 15.0049 12.5 15.0049C12.236 15.0049 11.9746 14.9527 11.7308 14.8511C11.4871 14.7496 11.2659 14.6008 11.08 14.4133L5.48833 8.82167C5.17575 8.50918 5.00009 8.08532 5 7.64333V2.5C5 2.27899 5.0878 2.06702 5.24408 1.91074C5.40036 1.75446 5.61232 1.66667 5.83333 1.66667H10.9767ZM9.16667 5.41667C9.16667 5.64679 8.98012 5.83333 8.75 5.83333C8.51988 5.83333 8.33333 5.64679 8.33333 5.41667C8.33333 5.18655 8.51988 5 8.75 5C8.98012 5 9.16667 5.18655 9.16667 5.41667Z" stroke="var(--stroke-0, #2DA2DB)" stroke-width="1.5" stroke-linecap="round" stroke-linejoin="round"/>
</g>
<defs>
<clipPath id="clip0_0_37">
<rect width="20" height="20" fill="white"/>
</clipPath>
</defs>
</svg>
