<svg preserveAspectRatio="none" width="100%" height="100%" overflow="visible" style="display: block;" viewBox="0 0 20 20" fill="none" xmlns="http://www.w3.org/2000/svg">
<g id="shovel" clip-path="url(#clip0_0_49)">
<path id="Vector" d="M7.5 12.5001L14.0658 5.93506M17.9667 3.80015C18.0828 3.91623 18.175 4.05407 18.2378 4.20578C18.3007 4.35749 18.3331 4.5201 18.3331 4.68432C18.3331 4.84854 18.3007 5.01115 18.2378 5.16286C18.175 5.31456 18.0828 5.4524 17.9667 5.56848L17.575 5.96015C17.104 6.41791 16.4717 6.67191 15.8149 6.66723C15.1581 6.66255 14.5295 6.39958 14.065 5.93515C13.8328 5.703 13.6486 5.42738 13.523 5.12404C13.3973 4.8207 13.3326 4.49557 13.3326 4.16723C13.3326 3.83889 13.3973 3.51377 13.523 3.21043C13.6486 2.90709 13.8328 2.63147 14.065 2.39932L14.4317 2.03265C14.6661 1.79831 14.984 1.66667 15.3154 1.66667C15.6469 1.66667 15.9648 1.79831 16.1992 2.03265L17.9667 3.80015ZM2.5 18.3332C2.27899 18.3332 2.06702 18.2455 1.91074 18.0892C1.75446 17.9329 1.66667 17.7209 1.66667 17.4999V14.5116C1.66671 14.2906 1.75454 14.0787 1.91083 13.9224L4.70667 11.1266C4.89498 10.9383 5.15037 10.8325 5.41667 10.8325C5.68296 10.8325 5.93835 10.9383 6.12667 11.1266L8.87333 13.8732C9.06162 14.0616 9.16739 14.317 9.16739 14.5832C9.16739 14.8495 9.06162 15.1049 8.87333 15.2932L6.0775 18.0891C5.92126 18.2454 5.70933 18.3332 5.48833 18.3332H2.5Z" stroke="var(--stroke-0, #2DA2DB)" stroke-width="1.5" stroke-linecap="round" stroke-linejoin="round"/>
</g>
<defs>
<clipPath id="clip0_0_49">
<rect width="20" height="20" fill="white"/>
</clipPath>
</defs>
</svg>
