<svg preserveAspectRatio="none" width="100%" height="100%" overflow="visible" style="display: block;" viewBox="0 0 20 20" fill="none" xmlns="http://www.w3.org/2000/svg">
<g id="autorenew">
<g id="Vector">
<mask id="path-1-inside-1_0_53" fill="white">
<path d="M4.66813 10.0317C4.66813 10.3061 4.68549 10.5711 4.72021 10.8267C4.75493 11.0824 4.80368 11.3266 4.86646 11.5594C4.91479 11.7492 4.90604 11.9392 4.84021 12.1292C4.77437 12.319 4.65507 12.457 4.48229 12.5431C4.30965 12.6291 4.13181 12.6357 3.94875 12.5629C3.76583 12.4901 3.64326 12.3674 3.58104 12.1948C3.46326 11.8376 3.3784 11.4822 3.32646 11.1285C3.27451 10.7751 3.24854 10.4094 3.24854 10.0317C3.24854 8.19903 3.91062 6.61729 5.23479 5.28646C6.55896 3.95562 8.13576 3.29021 9.96521 3.29021H10.861L9.66479 2.09417C9.54701 1.97639 9.48812 1.83785 9.48812 1.67854C9.48812 1.5191 9.54868 1.38049 9.66979 1.26271C9.78757 1.14493 9.92965 1.08604 10.096 1.08604C10.2624 1.08604 10.4045 1.14493 10.5223 1.26271L12.7781 3.49771C12.9197 3.63938 12.9904 3.80681 12.9904 4C12.9904 4.19319 12.9197 4.36062 12.7781 4.50229L10.5431 6.73729C10.4253 6.85507 10.2798 6.91396 10.1065 6.91396C9.93312 6.91396 9.78757 6.85507 9.66979 6.73729C9.54868 6.61951 9.48896 6.47319 9.49062 6.29833C9.49229 6.12333 9.55201 5.97694 9.66979 5.85917L10.8194 4.70979H9.975C8.52222 4.70979 7.27451 5.23271 6.23188 6.27854C5.18937 7.32438 4.66813 8.57542 4.66813 10.0317ZM15.3319 10.0258C15.3319 9.75472 15.3153 9.49056 15.2823 9.23333C15.2492 8.97597 15.1997 8.72563 15.1335 8.48229C15.0747 8.29243 15.0773 8.1025 15.1415 7.9125C15.2056 7.72264 15.3241 7.58465 15.4969 7.49854C15.6662 7.41257 15.8389 7.40514 16.015 7.47625C16.191 7.54736 16.3117 7.66757 16.3773 7.83687C16.509 8.19743 16.6042 8.55882 16.6631 8.92104C16.722 9.28313 16.7515 9.65139 16.7515 10.0258C16.7515 11.8618 16.0894 13.446 14.7652 14.7785C13.441 16.1109 11.8659 16.7771 10.0398 16.7771H9.09729L10.2885 17.9683C10.4097 18.0861 10.4694 18.2247 10.4677 18.384C10.466 18.5434 10.4063 18.682 10.2885 18.7998C10.1674 18.9176 10.0245 18.9765 9.85979 18.9765C9.69507 18.9765 9.55382 18.9176 9.43604 18.7998L7.18021 16.5648C7.03868 16.4231 6.96792 16.2565 6.96792 16.065C6.96792 15.8735 7.03868 15.7069 7.18021 15.5652L9.44104 13.3094C9.55549 13.1916 9.6959 13.1319 9.86229 13.1302C10.0287 13.1285 10.1724 13.1866 10.2935 13.3044C10.4113 13.4255 10.4702 13.5683 10.4702 13.7329C10.4702 13.8976 10.4113 14.0389 10.2935 14.1567L9.09729 15.3527H10.025C11.4778 15.3527 12.7255 14.8298 13.7681 13.784C14.8106 12.7381 15.3319 11.4854 15.3319 10.0258Z"/>
</mask>
<path d="M4.72021 10.8267L6.20657 10.6248L6.20655 10.6247L4.72021 10.8267ZM4.86646 11.5594L6.32009 11.1893L6.31748 11.179L6.31471 11.1688L4.86646 11.5594ZM4.84021 12.1292L6.25743 12.6206L6.25754 12.6203L4.84021 12.1292ZM4.48229 12.5431L5.15095 13.8858L5.15138 13.8856L4.48229 12.5431ZM3.94875 12.5629L3.39422 13.9567L3.39458 13.9568L3.94875 12.5629ZM3.58104 12.1948L2.15647 12.6645L2.16292 12.684L2.1699 12.7034L3.58104 12.1948ZM3.32646 11.1285L4.81053 10.9105L4.81052 10.9105L3.32646 11.1285ZM10.861 3.29021V4.79021H14.4828L11.9216 2.22946L10.861 3.29021ZM9.66479 2.09417L8.60413 3.15483L8.60422 3.15492L9.66479 2.09417ZM9.66979 1.26271L10.7155 2.33806L10.7231 2.33077L10.7305 2.32337L9.66979 1.26271ZM10.5223 1.26271L9.46162 2.32338L9.46656 2.32828L10.5223 1.26271ZM12.7781 3.49771L13.8393 2.43755L13.8339 2.43214L12.7781 3.49771ZM12.7781 4.50229L13.8388 5.56295L13.8393 5.56243L12.7781 4.50229ZM10.5431 6.73729L11.6038 7.79795L11.6038 7.79795L10.5431 6.73729ZM9.66979 6.73729L10.7305 5.67663L10.7231 5.66923L10.7155 5.66194L9.66979 6.73729ZM9.49062 6.29833L10.9906 6.31263V6.31262L9.49062 6.29833ZM9.66979 5.85917L8.60923 4.79841L8.60913 4.79851L9.66979 5.85917ZM10.8194 4.70979L11.8799 5.77055L14.4412 3.20979H10.8194V4.70979ZM6.23187 6.27854L5.16959 5.21951L5.16952 5.21958L6.23187 6.27854ZM15.2823 9.23333L13.7945 9.42442L13.7945 9.42453L15.2823 9.23333ZM15.1335 8.48229L16.5811 8.08901L16.5741 8.06334L16.5662 8.03792L15.1335 8.48229ZM15.1415 7.9125L13.7204 7.43224L13.7203 7.43255L15.1415 7.9125ZM15.4969 7.49854L16.166 8.84108L16.176 8.83599L15.4969 7.49854ZM16.015 7.47625L16.577 6.08551L16.5766 6.08536L16.015 7.47625ZM16.3773 7.83687L17.7863 7.32234L17.7813 7.30875L17.7761 7.29525L16.3773 7.83687ZM16.6631 8.92104L15.1826 9.16175L15.1826 9.16184L16.6631 8.92104ZM14.7652 14.7785L15.8291 15.8359L15.8292 15.8359L14.7652 14.7785ZM9.09729 16.7771V15.2771H5.47597L8.03663 17.8377L9.09729 16.7771ZM10.2885 17.9683L9.22788 19.029L9.23528 19.0364L9.24278 19.0437L10.2885 17.9683ZM10.4677 18.384L8.96779 18.3683V18.3683L10.4677 18.384ZM10.2885 18.7998L11.3343 19.8751L11.3418 19.8679L11.3492 19.8605L10.2885 18.7998ZM9.43604 18.7998L10.4967 17.7391L10.4918 17.7342L9.43604 18.7998ZM7.18021 16.5648L6.11901 17.6249L6.12448 17.6304L7.18021 16.5648ZM7.18021 15.5652L6.12072 14.5034L6.11903 14.5051L7.18021 15.5652ZM9.44104 13.3094L10.5005 14.3712L10.5087 14.363L10.5168 14.3547L9.44104 13.3094ZM10.2935 13.3044L11.3689 12.2586L11.3543 12.2436L11.3393 12.229L10.2935 13.3044ZM10.2935 14.1567L11.3541 15.2174L11.3542 15.2173L10.2935 14.1567ZM9.09729 15.3527L8.03672 14.292L5.47553 16.8527H9.09729V15.3527ZM13.7681 13.784L14.8304 14.843L14.8305 14.8429L13.7681 13.784ZM4.66813 10.0317H3.16813C3.16813 10.3694 3.18949 10.702 3.23386 11.0286L4.72021 10.8267L6.20655 10.6247C6.18148 10.4402 6.16813 10.2428 6.16813 10.0317H4.66813ZM4.72021 10.8267L3.23385 11.0285C3.27662 11.3435 3.33757 11.651 3.4182 11.95L4.86646 11.5594L6.31471 11.1688C6.26979 11.0022 6.23324 10.8213 6.20657 10.6248L4.72021 10.8267ZM4.86646 11.5594L3.41282 11.9294C3.40161 11.8854 3.3951 11.8325 3.39773 11.7752C3.40036 11.7182 3.41137 11.6713 3.42288 11.6381L4.84021 12.1292L6.25754 12.6203C6.41678 12.1607 6.44283 11.6714 6.32009 11.1893L4.86646 11.5594ZM4.84021 12.1292L3.42299 11.6378C3.44602 11.5713 3.4899 11.4828 3.56667 11.394C3.64425 11.3043 3.73252 11.2408 3.8132 11.2006L4.48229 12.5431L5.15138 13.8856C5.69089 13.6167 6.06894 13.1642 6.25743 12.6206L4.84021 12.1292ZM4.48229 12.5431L3.81363 11.2004C3.90205 11.1564 4.02225 11.1188 4.16382 11.1136C4.30454 11.1084 4.42152 11.1367 4.50292 11.169L3.94875 12.5629L3.39458 13.9568C3.96429 14.1833 4.58728 14.1665 5.15095 13.8858L4.48229 12.5431ZM3.94875 12.5629L4.50328 11.1692C4.57613 11.1982 4.67951 11.2547 4.7809 11.3562C4.88431 11.4598 4.95302 11.5775 4.99218 11.6862L3.58104 12.1948L2.1699 12.7034C2.38931 13.3122 2.84498 13.7381 3.39422 13.9567L3.94875 12.5629ZM3.58104 12.1948L5.00561 11.7251C4.91347 11.4456 4.84929 11.1744 4.81053 10.9105L3.32646 11.1285L1.84238 11.3465C1.90752 11.7899 2.01306 12.2295 2.15647 12.6645L3.58104 12.1948ZM3.32646 11.1285L4.81052 10.9105C4.76977 10.6332 4.74854 10.3406 4.74854 10.0317H3.24854H1.74854C1.74854 10.4783 1.77925 10.917 1.8424 11.3466L3.32646 11.1285ZM3.24854 10.0317H4.74854C4.74854 8.60625 5.24598 7.40188 6.29811 6.34445L5.23479 5.28646L4.17147 4.22846C2.57527 5.8327 1.74854 7.7918 1.74854 10.0317H3.24854ZM5.23479 5.28646L6.29811 6.34445C7.34902 5.28825 8.54646 4.79021 9.96521 4.79021V3.29021V1.79021C7.72507 1.79021 5.76889 2.623 4.17147 4.22846L5.23479 5.28646ZM9.96521 3.29021V4.79021H10.861V3.29021V1.79021H9.96521V3.29021ZM10.861 3.29021L11.9216 2.22946L10.7254 1.03341L9.66479 2.09417L8.60422 3.15492L9.80047 4.35096L10.861 3.29021ZM9.66479 2.09417L10.7255 1.03351C10.7881 1.09612 10.8593 1.18949 10.9128 1.31514C10.9667 1.44212 10.9881 1.56848 10.9881 1.67854H9.48812H7.98812C7.98812 2.25542 8.21933 2.77002 8.60413 3.15483L9.66479 2.09417ZM9.48812 1.67854H10.9881C10.9881 1.7941 10.965 1.92526 10.9081 2.0555C10.852 2.18395 10.7781 2.27727 10.7155 2.33806L9.66979 1.26271L8.62403 0.187353C8.23179 0.568796 7.98812 1.08789 7.98812 1.67854H9.48812ZM9.66979 1.26271L10.7305 2.32337C10.6618 2.39205 10.5645 2.46391 10.439 2.5159C10.3135 2.56791 10.1937 2.58604 10.096 2.58604V1.08604V-0.413958C9.53136 -0.413958 9.00788 -0.196705 8.60913 0.202048L9.66979 1.26271ZM10.096 1.08604V2.58604C9.99841 2.58604 9.87855 2.56791 9.75307 2.5159C9.62763 2.46391 9.53031 2.39205 9.46163 2.32337L10.5223 1.26271L11.583 0.202048C11.1842 -0.196706 10.6607 -0.413958 10.096 -0.413958V1.08604ZM10.5223 1.26271L9.46656 2.32828L11.7224 4.56328L12.7781 3.49771L13.8339 2.43214L11.578 0.197139L10.5223 1.26271ZM12.7781 3.49771L11.7169 4.55785C11.6651 4.50598 11.6028 4.42492 11.5557 4.31349C11.5081 4.20099 11.4904 4.09122 11.4904 4H12.9904H14.4904C14.4904 3.39331 14.2504 2.84903 13.8393 2.43757L12.7781 3.49771ZM12.9904 4H11.4904C11.4904 3.90878 11.5081 3.79901 11.5557 3.68651C11.6028 3.57508 11.6651 3.49402 11.7169 3.44215L12.7781 4.50229L13.8393 5.56243C14.2504 5.15097 14.4904 4.60669 14.4904 4H12.9904ZM12.7781 4.50229L11.7175 3.44163L9.48246 5.67663L10.5431 6.73729L11.6038 7.79795L13.8388 5.56295L12.7781 4.50229ZM10.5431 6.73729L9.48247 5.67663C9.55703 5.60206 9.65819 5.5298 9.78306 5.47928C9.90673 5.42925 10.0204 5.41396 10.1065 5.41396V6.91396V8.41396C10.6596 8.41396 11.1922 8.20954 11.6038 7.79795L10.5431 6.73729ZM10.1065 6.91396V5.41396C10.1925 5.41396 10.3062 5.42925 10.4299 5.47928C10.5547 5.5298 10.6559 5.60207 10.7305 5.67663L9.66979 6.73729L8.60913 7.79795C9.02072 8.20954 9.55334 8.41396 10.1065 8.41396V6.91396ZM9.66979 6.73729L10.7155 5.66194C10.7928 5.73703 10.8694 5.84126 10.9229 5.97237C10.976 6.10235 10.9914 6.22216 10.9906 6.31263L9.49062 6.29833L7.99069 6.28404C7.98527 6.85272 8.19754 7.39789 8.62403 7.81265L9.66979 6.73729ZM9.49062 6.29833L10.9906 6.31262C10.9898 6.39433 10.9745 6.50383 10.9255 6.62391C10.876 6.7454 10.8051 6.8452 10.7305 6.91983L9.66979 5.85917L8.60913 4.79851C8.1983 5.20933 7.99589 5.73829 7.99069 6.28405L9.49062 6.29833ZM9.66979 5.85917L10.7304 6.91992L11.8799 5.77055L10.8194 4.70979L9.75881 3.64904L8.60923 4.79841L9.66979 5.85917ZM10.8194 4.70979V3.20979H9.975V4.70979V6.20979H10.8194V4.70979ZM9.975 4.70979V3.20979C8.11627 3.20979 6.48845 3.89661 5.16959 5.21951L6.23187 6.27854L7.29416 7.33758C8.06058 6.56881 8.92817 6.20979 9.975 6.20979V4.70979ZM6.23187 6.27854L5.16952 5.21958C3.85117 6.54215 3.16813 8.17221 3.16813 10.0317H4.66813H6.16813C6.16813 8.97862 6.52758 8.1066 7.29423 7.33751L6.23187 6.27854ZM15.3319 10.0258H16.8319C16.8319 9.69367 16.8116 9.36556 16.7701 9.04214L15.2823 9.23333L13.7945 9.42453C13.8191 9.61555 13.8319 9.81577 13.8319 10.0258H15.3319ZM15.2823 9.23333L16.7701 9.04224C16.7285 8.71862 16.6657 8.40063 16.5811 8.08901L15.1335 8.48229L13.686 8.87557C13.7336 9.05062 13.77 9.23333 13.7945 9.42442L15.2823 9.23333ZM15.1335 8.48229L16.5662 8.03792C16.5813 8.08652 16.5922 8.1484 16.5912 8.21829C16.5902 8.28804 16.5777 8.34773 16.5626 8.39245L15.1415 7.9125L13.7203 7.43255C13.5561 7.91891 13.5475 8.43231 13.7009 8.92666L15.1335 8.48229ZM15.1415 7.9125L16.5625 8.39276C16.5393 8.46145 16.4948 8.55259 16.4165 8.64374C16.3375 8.73581 16.2475 8.80039 16.166 8.84104L15.4969 7.49854L14.8278 6.15604C14.2855 6.42632 13.9061 6.88288 13.7204 7.43224L15.1415 7.9125ZM15.4969 7.49854L16.176 8.83599C16.0886 8.88036 15.9659 8.92074 15.8179 8.9271C15.6699 8.93347 15.5442 8.9038 15.4534 8.86714L16.015 7.47625L16.5766 6.08536C15.9987 5.85201 15.3736 5.87884 14.8177 6.1611L15.4969 7.49854ZM16.015 7.47625L15.453 8.86699C15.3765 8.83609 15.2762 8.77923 15.1793 8.68284C15.0814 8.58531 15.0165 8.47655 14.9785 8.37849L16.3773 7.83687L17.7761 7.29525C17.5534 6.72014 17.1176 6.30397 16.577 6.08551L16.015 7.47625ZM16.3773 7.83687L14.9683 8.35141C15.069 8.62721 15.1395 8.89703 15.1826 9.16175L16.6631 8.92104L18.1437 8.68034C18.0689 8.22061 17.9489 7.76765 17.7863 7.32234L16.3773 7.83687ZM16.6631 8.92104L15.1826 9.16184C15.2283 9.44268 15.2515 9.73037 15.2515 10.0258H16.7515H18.2515C18.2515 9.5724 18.2158 9.12358 18.1437 8.68025L16.6631 8.92104ZM16.7515 10.0258H15.2515C15.2515 11.4554 14.7534 12.6624 13.7012 13.7212L14.7652 14.7785L15.8292 15.8359C17.4254 14.2296 18.2515 12.2682 18.2515 10.0258H16.7515ZM14.7652 14.7785L13.7013 13.7212C12.6496 14.7793 11.4538 15.2771 10.0398 15.2771V16.7771V18.2771C12.278 18.2771 14.2324 17.4425 15.8291 15.8359L14.7652 14.7785ZM10.0398 16.7771V15.2771H9.09729V16.7771V18.2771H10.0398V16.7771ZM9.09729 16.7771L8.03663 17.8377L9.22788 19.029L10.2885 17.9683L11.3492 16.9077L10.158 15.7164L9.09729 16.7771ZM10.2885 17.9683L9.24278 19.0437C9.17913 18.9818 9.10356 18.8863 9.0467 18.7544C8.98903 18.6206 8.96656 18.4861 8.96779 18.3683L10.4677 18.384L11.9676 18.3997C11.9739 17.8029 11.7298 17.2776 11.3343 16.893L10.2885 17.9683ZM10.4677 18.384L8.96779 18.3683C8.96892 18.2606 8.99089 18.1375 9.04409 18.014C9.09677 17.8917 9.16644 17.8006 9.22788 17.7391L10.2885 18.7998L11.3492 19.8605C11.7307 19.479 11.9617 18.9705 11.9676 18.3996L10.4677 18.384ZM10.2885 18.7998L9.24278 17.7244C9.3063 17.6627 9.39829 17.5952 9.51906 17.5454C9.64054 17.4954 9.75913 17.4765 9.85979 17.4765V18.9765V20.4765C10.4261 20.4765 10.9412 20.2575 11.3343 19.8751L10.2885 18.7998ZM9.85979 18.9765V17.4765C9.96029 17.4765 10.0817 17.4953 10.2075 17.5478C10.3331 17.6001 10.4294 17.6719 10.4967 17.7391L9.43604 18.7998L8.37538 19.8605C8.77093 20.256 9.29228 20.4765 9.85979 20.4765V18.9765ZM9.43604 18.7998L10.4918 17.7342L8.23594 15.4992L7.18021 16.5648L6.12448 17.6304L8.38031 19.8654L9.43604 18.7998ZM7.18021 16.5648L8.24139 15.5047C8.29201 15.5553 8.35424 15.6357 8.4016 15.7472C8.44953 15.86 8.46792 15.9712 8.46792 16.065H6.96792H5.46792C5.46792 16.6738 5.71077 17.2163 6.11903 17.6249L7.18021 16.5648ZM6.96792 16.065H8.46792C8.46792 16.1588 8.44953 16.27 8.4016 16.3828C8.35424 16.4943 8.29201 16.5747 8.24139 16.6253L7.18021 15.5652L6.11903 14.5051C5.71077 14.9137 5.46792 15.4562 5.46792 16.065H6.96792ZM7.18021 15.5652L8.23969 16.627L10.5005 14.3712L9.44104 13.3094L8.38156 12.2475L6.12072 14.5034L7.18021 15.5652ZM9.44104 13.3094L10.5168 14.3547C10.4457 14.4278 10.3462 14.5026 10.2193 14.5566C10.0927 14.6104 9.9729 14.6292 9.87732 14.6301L9.86229 13.1302L9.84727 11.6303C9.28678 11.6359 8.76265 11.8551 8.36527 12.264L9.44104 13.3094ZM9.86229 13.1302L9.87732 14.6301C9.7776 14.6311 9.6576 14.6136 9.53318 14.5634C9.40921 14.5133 9.31403 14.4442 9.24778 14.3797L10.2935 13.3044L11.3393 12.229C10.9393 11.84 10.4161 11.6246 9.84727 11.6303L9.86229 13.1302ZM10.2935 13.3044L9.21819 14.3501C9.15653 14.2867 9.08905 14.1948 9.03926 14.074C8.98917 13.9525 8.97021 13.8338 8.97021 13.7329H10.4702H11.9702C11.9702 13.1664 11.7509 12.6515 11.3689 12.2586L10.2935 13.3044ZM10.4702 13.7329H8.97021C8.97021 13.6324 8.98907 13.511 9.04155 13.3852C9.09388 13.2597 9.16562 13.1633 9.23288 13.096L10.2935 14.1567L11.3542 15.2173C11.7498 14.8218 11.9702 14.3004 11.9702 13.7329H10.4702ZM10.2935 14.1567L9.23297 13.0959L8.03672 14.292L9.09729 15.3527L10.1579 16.4135L11.3541 15.2174L10.2935 14.1567ZM9.09729 15.3527V16.8527H10.025V15.3527V13.8527H9.09729V15.3527ZM10.025 15.3527V16.8527C11.8837 16.8527 13.5116 16.1659 14.8304 14.843L13.7681 13.784L12.7058 12.7249C11.9394 13.4937 11.0718 13.8527 10.025 13.8527V15.3527ZM13.7681 13.784L14.8305 14.8429C16.1496 13.5196 16.8319 11.8876 16.8319 10.0258H15.3319H13.8319C13.8319 11.0832 13.4717 11.9566 12.7058 12.725L13.7681 13.784Z" fill="var(--stroke-0, #2DA2DB)" mask="url(#path-1-inside-1_0_53)"/>
</g>
</g>
</svg>
