<svg preserveAspectRatio="none" width="100%" height="100%" overflow="visible" style="display: block;" viewBox="0 0 20 20" fill="none" xmlns="http://www.w3.org/2000/svg">
<g id="resize">
<path id="Vector" d="M3.07958 3.79479C2.87944 3.79479 2.71208 3.72562 2.5775 3.58729C2.44278 3.44896 2.37542 3.27972 2.37542 3.07958C2.37542 2.87944 2.44431 2.71125 2.58208 2.575C2.71972 2.43861 2.88812 2.37042 3.08729 2.37042C3.28632 2.37042 3.45403 2.43993 3.59042 2.57896C3.72667 2.71785 3.79479 2.88778 3.79479 3.08875C3.79479 3.28833 3.72563 3.4559 3.58729 3.59146C3.44896 3.72701 3.27972 3.79479 3.07958 3.79479ZM6.53896 3.79479C6.33938 3.79479 6.17181 3.72562 6.03625 3.58729C5.90069 3.44896 5.83292 3.27972 5.83292 3.07958C5.83292 2.87944 5.90208 2.71125 6.04042 2.575C6.17875 2.43861 6.34799 2.37042 6.54813 2.37042C6.74826 2.37042 6.91646 2.43993 7.05271 2.57896C7.1891 2.71785 7.25729 2.88778 7.25729 3.08875C7.25729 3.28833 7.18778 3.4559 7.04875 3.59146C6.90986 3.72701 6.73993 3.79479 6.53896 3.79479ZM9.99625 3.79479C9.795 3.79479 9.62701 3.72562 9.49229 3.58729C9.35757 3.44896 9.29021 3.27972 9.29021 3.07958C9.29021 2.87944 9.35882 2.71125 9.49604 2.575C9.63313 2.43861 9.80236 2.37042 10.0038 2.37042C10.205 2.37042 10.373 2.43993 10.5077 2.57896C10.6424 2.71785 10.7098 2.88778 10.7098 3.08875C10.7098 3.28833 10.6412 3.4559 10.504 3.59146C10.3669 3.72701 10.1976 3.79479 9.99625 3.79479ZM3.07958 7.25229C2.87944 7.25229 2.71208 7.18278 2.5775 7.04375C2.44278 6.90486 2.37542 6.73493 2.37542 6.53396C2.37542 6.33438 2.44431 6.16681 2.58208 6.03125C2.71972 5.89569 2.88812 5.82792 3.08729 5.82792C3.28632 5.82792 3.45403 5.89708 3.59042 6.03542C3.72667 6.17389 3.79479 6.34313 3.79479 6.54313C3.79479 6.74326 3.72563 6.91146 3.58729 7.04771C3.44896 7.1841 3.27972 7.25229 3.07958 7.25229ZM3.07958 10.7098C2.87944 10.7098 2.71208 10.6412 2.5775 10.504C2.44278 10.3669 2.37542 10.1976 2.37542 9.99625C2.37542 9.795 2.44431 9.62701 2.58208 9.49229C2.71972 9.35757 2.88812 9.29021 3.08729 9.29021C3.28632 9.29021 3.45403 9.35882 3.59042 9.49604C3.72667 9.63313 3.79479 9.80236 3.79479 10.0037C3.79479 10.205 3.72563 10.373 3.58729 10.5077C3.44896 10.6424 3.27972 10.7098 3.07958 10.7098ZM16.9112 10.7098C16.7117 10.7098 16.5441 10.6412 16.4085 10.504C16.273 10.3669 16.2052 10.1976 16.2052 9.99625C16.2052 9.795 16.2744 9.62701 16.4127 9.49229C16.551 9.35757 16.7203 9.29021 16.9204 9.29021C17.1206 9.29021 17.2888 9.35882 17.425 9.49604C17.5614 9.63313 17.6296 9.80236 17.6296 10.0037C17.6296 10.205 17.5601 10.373 17.421 10.5077C17.2822 10.6424 17.1122 10.7098 16.9112 10.7098ZM16.9112 14.1671C16.7117 14.1671 16.5441 14.0979 16.4085 13.9596C16.273 13.8213 16.2052 13.652 16.2052 13.4519C16.2052 13.2517 16.2744 13.0835 16.4127 12.9473C16.551 12.8109 16.7203 12.7427 16.9204 12.7427C17.1206 12.7427 17.2888 12.8122 17.425 12.9513C17.5614 13.0901 17.6296 13.2601 17.6296 13.461C17.6296 13.6606 17.5601 13.8282 17.421 13.9638C17.2822 14.0993 17.1122 14.1671 16.9112 14.1671ZM9.99625 17.6246C9.795 17.6246 9.62701 17.5557 9.49229 17.4179C9.35757 17.2803 9.29021 17.1119 9.29021 16.9127C9.29021 16.7137 9.35882 16.546 9.49604 16.4096C9.63313 16.2733 9.80236 16.2052 10.0038 16.2052C10.205 16.2052 10.373 16.2744 10.5077 16.4127C10.6424 16.551 10.7098 16.7203 10.7098 16.9204C10.7098 17.1206 10.6412 17.2879 10.504 17.4225C10.3669 17.5572 10.1976 17.6246 9.99625 17.6246ZM13.4569 17.6246C13.2567 17.6246 13.0885 17.5557 12.9523 17.4179C12.8159 17.2803 12.7477 17.1119 12.7477 16.9127C12.7477 16.7137 12.8172 16.546 12.9563 16.4096C13.0951 16.2733 13.2651 16.2052 13.466 16.2052C13.6656 16.2052 13.8332 16.2744 13.9687 16.4127C14.1043 16.551 14.1721 16.7203 14.1721 16.9204C14.1721 17.1206 14.1029 17.2879 13.9646 17.4225C13.8261 17.5572 13.6569 17.6246 13.4569 17.6246ZM16.9112 17.6246C16.7117 17.6246 16.5441 17.5557 16.4085 17.4179C16.273 17.2803 16.2052 17.1119 16.2052 16.9127C16.2052 16.7137 16.2744 16.546 16.4127 16.4096C16.551 16.2733 16.7203 16.2052 16.9204 16.2052C17.1206 16.2052 17.2888 16.2744 17.425 16.4127C17.5614 16.551 17.6296 16.7203 17.6296 16.9204C17.6296 17.1206 17.5601 17.2879 17.421 17.4225C17.2822 17.5572 17.1122 17.6246 16.9112 17.6246ZM16.2052 6.5375V3.79479H13.4625C13.2588 3.79479 13.0887 3.72625 12.9523 3.58917C12.8159 3.45208 12.7477 3.28299 12.7477 3.08187C12.7477 2.88076 12.8159 2.71194 12.9523 2.57542C13.0887 2.43875 13.2588 2.37042 13.4625 2.37042H16.2052C16.6003 2.37042 16.9365 2.50903 17.2138 2.78625C17.491 3.06347 17.6296 3.39965 17.6296 3.79479V6.5375C17.6296 6.74125 17.5601 6.91132 17.421 7.04771C17.2819 7.1841 17.1118 7.25229 16.9108 7.25229C16.7097 7.25229 16.5418 7.1841 16.4071 7.04771C16.2725 6.91132 16.2052 6.74125 16.2052 6.5375ZM2.37542 16.2052V13.4575C2.37542 13.2571 2.44396 13.0887 2.58104 12.9523C2.71812 12.8159 2.88736 12.7477 3.08875 12.7477C3.29014 12.7477 3.45819 12.8159 3.59292 12.9523C3.7275 13.0887 3.79479 13.2571 3.79479 13.4575V16.2052H6.5425C6.74292 16.2052 6.91132 16.2737 7.04771 16.4108C7.1841 16.5479 7.25229 16.7172 7.25229 16.9185C7.25229 17.1199 7.1841 17.2879 7.04771 17.4225C6.91132 17.5572 6.74292 17.6246 6.5425 17.6246H3.79479C3.40104 17.6246 3.06604 17.4865 2.78979 17.2102C2.51354 16.934 2.37542 16.599 2.37542 16.2052Z" fill="var(--fill-0, #2DA2DB)"/>
</g>
</svg>
