<svg width="100%" height="100%" overflow="visible" style="display: block;" viewBox="0 0 20 12.5128" fill="none" xmlns="http://www.w3.org/2000/svg">
<g id="Group">
<path id="Vector" d="M5.03073 7.70038C6.15258 7.70042 7.06193 8.60967 7.06198 9.73163C7.06198 10.8531 6.1527 11.7628 5.03073 11.7629C3.909 11.7629 2.99948 10.8532 2.99948 9.73163C2.99957 8.60958 3.90914 7.70038 5.03073 7.70038ZM5.03073 7.80878C3.96857 7.80878 3.10702 8.6695 3.1069 9.73163C3.1069 10.7937 3.9686 11.6555 5.03073 11.6555C6.09318 11.6554 6.95456 10.7936 6.95456 9.73163C6.95444 8.66961 6.09321 7.80882 5.03073 7.80878Z" stroke="var(--stroke-0, #2DA2DB)" stroke-width="1.5"/>
<path id="Vector_2" d="M15.1737 6.95038C13.6376 6.95038 12.3925 8.19546 12.3925 9.7318C12.3925 11.2677 13.6376 12.5128 15.1737 12.5128C16.7098 12.5128 17.9549 11.2677 17.9549 9.7318C17.9549 8.19546 16.7098 6.95038 15.1737 6.95038ZM15.1737 10.905C14.5257 10.905 14.0003 10.3796 14.0003 9.73184C14.0003 9.08383 14.5257 8.55844 15.1737 8.55844C15.8217 8.55844 16.3474 9.08383 16.3474 9.73184C16.3474 10.3796 15.8217 10.905 15.1737 10.905Z" fill="var(--fill-0, #2DA2DB)"/>
<path id="Vector_3" d="M19.53 4.57749L18.0904 2.81248C17.6941 2.32665 17.1004 2.04493 16.4733 2.04493H12.8837V5.07159H12.0653V4.82636V1.55392V1.30868H15.5829V0H10.5928V1.30872V1.55395H0V5.07163L6.62009 6.32808C7.90166 6.92879 8.79361 8.22766 8.79361 9.73427C8.79361 9.76197 8.78998 9.78834 8.7897 9.8158H11.4149C11.4146 9.78838 11.4108 9.76197 11.4108 9.73427C11.4108 7.65934 13.099 5.97113 15.1737 5.97113C17.0533 5.97113 18.6109 7.35793 18.8879 9.16126H19.3044C19.6886 9.16126 20 8.84982 20 8.46567V5.89636C20 5.41566 19.834 4.94976 19.53 4.57749ZM3.50833 4.72675L2.2084 4.60698V2.53564H3.50833V4.72675ZM6.39196 5.23976L5.09204 5.11944V2.53564H6.39196V5.23976ZM9.27533 5.75531L7.97541 5.63531V2.53568H9.27533V5.75531ZM14.4051 4.8587V3.22248H16.5225C16.708 3.22248 16.8813 3.30475 16.9985 3.4483L18.1489 4.8587H14.4051Z" fill="var(--fill-0, #2DA2DB)"/>
</g>
</svg>
