<svg preserveAspectRatio="none" width="100%" height="100%" overflow="visible" style="display: block;" viewBox="0 0 40 40" fill="none" xmlns="http://www.w3.org/2000/svg">
<g id="stone">
<path id="Vector" d="M19.9833 36.6667L23.3333 20M23.3333 20L36.37 25.3067M23.3333 20L14.1166 3.83626M18.7734 3.67526C17.2507 3.16718 15.5957 3.2256 14.1126 3.83979C12.6295 4.45398 11.4178 5.5827 10.7001 7.01859L4.03342 20.3519C3.30679 21.8053 3.13596 23.474 3.55305 25.0445C3.97014 26.6149 4.94642 27.979 6.29842 28.8803L16.2984 35.5469C17.3936 36.2771 18.6805 36.6668 19.9968 36.6668C21.3131 36.6668 22.5999 36.2771 23.6951 35.5469L33.6951 28.8803C34.9116 28.0691 35.8277 26.8806 36.3023 25.4977C36.7769 24.1147 36.7838 22.6141 36.3218 21.2269L32.9884 11.2269C32.6611 10.245 32.1097 9.35273 31.3778 8.62084C30.646 7.88896 29.7537 7.33754 28.7718 7.01026L18.7734 3.67526Z" stroke="var(--stroke-0, #F4813E)" stroke-width="3" stroke-linecap="round" stroke-linejoin="round"/>
</g>
</svg>
