<svg preserveAspectRatio="none" width="100%" height="100%" overflow="visible" style="display: block;" viewBox="0 0 32 20.0204" fill="none" xmlns="http://www.w3.org/2000/svg">
<g id="Group">
<path id="Vector" d="M8.04936 12.1206C9.95474 12.1208 11.4996 13.6652 11.4996 15.5708C11.4996 17.4756 9.95485 19.0199 8.04936 19.02C6.14416 19.02 4.59917 17.4758 4.59917 15.5708C4.59921 13.665 6.1443 12.1206 8.04936 12.1206ZM8.04936 12.6938C6.46031 12.6938 5.17151 13.9818 5.17143 15.5708C5.17143 17.1597 6.46039 18.4478 8.04936 18.4478C9.63874 18.4476 10.9263 17.1594 10.9263 15.5708C10.9262 13.982 9.63882 12.694 8.04936 12.6938Z" stroke="var(--stroke-0, #1E729C)" stroke-width="2"/>
<path id="Vector_2" d="M24.2779 11.1206C21.8202 11.1206 19.828 13.1127 19.828 15.5709C19.828 18.0283 21.8202 20.0204 24.2779 20.0204C26.7357 20.0204 28.7278 18.0283 28.7278 15.5709C28.7278 13.1127 26.7357 11.1206 24.2779 11.1206ZM24.2779 17.448C23.2411 17.448 22.4005 16.6074 22.4005 15.5709C22.4005 14.5341 23.2411 13.6935 24.2779 13.6935C25.3148 13.6935 26.1558 14.5341 26.1558 15.5709C26.1559 16.6074 25.3148 17.448 24.2779 17.448Z" fill="var(--fill-0, #1E729C)"/>
<path id="Vector_3" d="M31.248 7.32398L28.9446 4.49996C28.3105 3.72265 27.3606 3.27189 26.3573 3.27189H20.614V8.11455H19.3044V7.72217V2.48627V2.09389H24.9327V0H16.9485V2.09395V2.48633H0V8.11461L10.5921 10.1249C12.6426 11.0861 14.0698 13.1643 14.0698 15.5748C14.0698 15.6192 14.064 15.6613 14.0635 15.7053H18.2638C18.2634 15.6614 18.2572 15.6192 18.2572 15.5748C18.2572 12.2549 20.9584 9.55381 24.2779 9.55381C27.2853 9.55381 29.7774 11.7727 30.2207 14.658H30.8871C31.5017 14.658 32 14.1597 32 13.5451V9.43418C32.0001 8.66505 31.7344 7.91961 31.248 7.32398ZM5.61332 7.56279L3.53344 7.37117V4.05702H5.61332V7.56279ZM10.2271 8.38361L8.14727 8.19111V4.05702H10.2271V8.38361ZM14.8405 9.20849L12.7606 9.01649V4.05709H14.8405V9.20849ZM23.0482 7.77392V5.15597H26.436C26.7327 5.15597 27.0101 5.28759 27.1976 5.51728L29.0382 7.77392H23.0482Z" fill="var(--fill-0, #1E729C)"/>
</g>
</svg>
