<svg preserveAspectRatio="none" width="100%" height="100%" overflow="visible" style="display: block;" viewBox="0 0 40 40" fill="none" xmlns="http://www.w3.org/2000/svg">
<g id="trending_up">
<g id="Vector">
<mask id="path-1-inside-1_0_133" fill="white">
<path d="M4.12042 29.6596C3.83736 29.3763 3.69417 29.0378 3.69083 28.6442C3.6875 28.2503 3.83069 27.9085 4.12042 27.6188L13.5508 18.25C14.0875 17.7047 14.7483 17.4321 15.5333 17.4321C16.3186 17.4321 16.9839 17.7047 17.5292 18.25L22.4983 23.2092L32.1613 13.5263H28.3788C27.9779 13.5263 27.6411 13.3892 27.3683 13.115C27.0956 12.8408 26.9592 12.5024 26.9592 12.0996C26.9592 11.6968 27.0956 11.3608 27.3683 11.0917C27.6411 10.8222 27.9779 10.6875 28.3788 10.6875H35.4963C35.8971 10.6875 36.2356 10.8239 36.5117 11.0967C36.7878 11.3694 36.9258 11.7063 36.9258 12.1071V19.2246C36.9258 19.6046 36.7943 19.9361 36.5313 20.2192C36.2682 20.5025 35.9403 20.6442 35.5475 20.6442C35.1614 20.6442 34.8267 20.5025 34.5433 20.2192C34.2603 19.9361 34.1188 19.6046 34.1188 19.2246V15.5987L24.4458 25.23C23.9022 25.7753 23.2379 26.0479 22.4529 26.0479C21.6679 26.0479 21.0061 25.7753 20.4675 25.23L15.4983 20.3125L6.15125 29.6596C5.86792 29.9426 5.52944 30.0842 5.13583 30.0842C4.74222 30.0842 4.40375 29.9426 4.12042 29.6596Z"/>
</mask>
<path d="M4.12042 29.6596L1.99805 31.7799L2.00014 31.7819L4.12042 29.6596ZM3.69083 28.6442L0.690941 28.6696L0.690941 28.6696L3.69083 28.6442ZM4.12042 27.6188L2.00605 25.4905L1.9991 25.4974L4.12042 27.6188ZM13.5508 18.25L15.6652 20.3783L15.6771 20.3664L15.689 20.3544L13.5508 18.25ZM17.5292 18.25L15.4078 20.3713L15.41 20.3735L17.5292 18.25ZM22.4983 23.2092L20.3792 25.3326L22.5027 27.4519L24.6218 25.3283L22.4983 23.2092ZM32.1613 13.5263L34.2848 15.6454L39.3933 10.5263H32.1613V13.5263ZM27.3683 11.0917L29.4755 13.2271L29.4766 13.226L27.3683 11.0917ZM36.5313 20.2192L34.3337 18.1769L34.3327 18.178L36.5313 20.2192ZM34.5433 20.2192L36.6647 18.0978L34.5433 20.2192ZM34.1188 15.5988H37.1188V8.37816L32.002 13.4729L34.1188 15.5988ZM24.4458 25.23L22.3291 23.1041L22.3213 23.1119L24.4458 25.23ZM20.4675 25.23L22.6018 23.1218L22.5898 23.1096L22.5777 23.0976L20.4675 25.23ZM15.4983 20.3125L17.6085 18.1801L15.4873 16.0809L13.377 18.1912L15.4983 20.3125ZM6.15125 29.6596L8.27153 31.7819L8.27257 31.7809L6.15125 29.6596ZM4.12042 29.6596L6.24278 27.5393C6.34936 27.646 6.47191 27.8075 6.56365 28.0243C6.65581 28.2422 6.6893 28.4508 6.69073 28.6188L3.69083 28.6442L0.690941 28.6696C0.701062 29.8647 1.1701 30.9511 1.99806 31.7799L4.12042 29.6596ZM3.69083 28.6442L6.69073 28.6188C6.69228 28.8024 6.65796 29.0243 6.56273 29.2516C6.4685 29.4765 6.34341 29.6384 6.24174 29.7401L4.12042 27.6188L1.9991 25.4974C1.16611 26.3304 0.6805 27.4358 0.690941 28.6696L3.69083 28.6442ZM4.12042 27.6188L6.23477 29.747L15.6652 20.3783L13.5508 18.25L11.4365 16.1217L2.00607 25.4905L4.12042 27.6188ZM13.5508 18.25L15.689 20.3544C15.6943 20.3489 15.6879 20.3563 15.6687 20.3695C15.6489 20.3829 15.6231 20.3975 15.5931 20.4098C15.5633 20.4221 15.5387 20.4284 15.5238 20.4312C15.5094 20.434 15.5112 20.4321 15.5333 20.4321V17.4321V14.4321C13.9679 14.4321 12.5296 15.0108 11.4127 16.1456L13.5508 18.25ZM15.5333 17.4321V20.4321C15.5555 20.4321 15.5583 20.434 15.5456 20.4316C15.5324 20.4291 15.5104 20.4235 15.4836 20.4125C15.4568 20.4015 15.4343 20.3889 15.4182 20.378C15.4024 20.3673 15.3994 20.3628 15.4078 20.3713L17.5292 18.25L19.6505 16.1287C18.5311 15.0093 17.0979 14.4321 15.5333 14.4321V17.4321ZM17.5292 18.25L15.41 20.3735L20.3792 25.3326L22.4983 23.2092L24.6175 21.0857L19.6483 16.1265L17.5292 18.25ZM22.4983 23.2092L24.6218 25.3283L34.2848 15.6454L32.1613 13.5263L30.0377 11.4071L20.3748 21.09L22.4983 23.2092ZM32.1613 13.5263V10.5263H28.3788V13.5263V16.5263H32.1613V13.5263ZM28.3788 13.5263V10.5263C28.5263 10.5263 28.7307 10.5529 28.9565 10.6448C29.1844 10.7376 29.3657 10.8691 29.495 10.9991L27.3683 13.115L25.2416 15.2309C26.1 16.0936 27.2121 16.5263 28.3788 16.5263V13.5263ZM27.3683 13.115L29.495 10.9991C29.6244 11.1291 29.7535 11.3095 29.844 11.5343C29.9337 11.7567 29.9592 11.9567 29.9592 12.0996H26.9592H23.9592C23.9592 13.2587 24.3842 14.3692 25.2416 15.2309L27.3683 13.115ZM26.9592 12.0996H29.9592C29.9592 12.2422 29.9338 12.4458 29.8411 12.6739C29.7473 12.9051 29.6126 13.0918 29.4755 13.2271L27.3683 11.0917L25.2612 8.95626C24.3854 9.82042 23.9592 10.9399 23.9592 12.0996H26.9592ZM27.3683 11.0917L29.4766 13.226C29.3448 13.3561 29.1637 13.4844 28.9397 13.574C28.7183 13.6625 28.5199 13.6875 28.3788 13.6875V10.6875V7.6875C27.2285 7.6875 26.1221 8.10585 25.2601 8.95735L27.3683 11.0917ZM28.3788 10.6875V13.6875H35.4962V10.6875V7.6875H28.3788V10.6875ZM35.4962 10.6875V13.6875C35.3504 13.6875 35.1502 13.6613 34.9295 13.5724C34.7069 13.4827 34.5298 13.3558 34.4033 13.2308L36.5117 11.0967L38.6201 8.9625C37.7623 8.11504 36.6576 7.6875 35.4962 7.6875V10.6875ZM36.5117 11.0967L34.4033 13.2308C34.2734 13.1025 34.1405 12.9212 34.0464 12.6917C33.9531 12.4641 33.9258 12.2573 33.9258 12.1071H36.9258H39.9258C39.9258 10.9337 39.4873 9.81924 38.6201 8.9625L36.5117 11.0967ZM36.9258 12.1071H33.9258V19.2246H36.9258H39.9258V12.1071H36.9258ZM36.9258 19.2246H33.9258C33.9258 19.0608 33.9557 18.8608 34.0386 18.6519C34.1212 18.4439 34.2331 18.2851 34.3337 18.1769L36.5313 20.2192L38.7288 22.2614C39.498 21.4338 39.9258 20.3763 39.9258 19.2246H36.9258ZM36.5313 20.2192L34.3327 18.178C34.4608 18.0401 34.6496 17.8914 34.8982 17.7839C35.1458 17.677 35.3757 17.6442 35.5475 17.6442V20.6442V23.6442C36.7595 23.6442 37.8889 23.1661 38.7298 22.2604L36.5313 20.2192ZM35.5475 20.6442V17.6442C35.7308 17.6442 35.9509 17.6798 36.1762 17.7752C36.3992 17.8696 36.5613 17.9944 36.6647 18.0978L34.5433 20.2192L32.422 22.3405C33.2442 23.1627 34.3328 23.6442 35.5475 23.6442V20.6442ZM34.5433 20.2192L36.6647 18.0978C36.7641 18.1973 36.8886 18.3569 36.984 18.5804C37.0807 18.8069 37.1188 19.032 37.1188 19.2246H34.1188H31.1188C31.1188 20.4463 31.6098 21.5282 32.422 22.3405L34.5433 20.2192ZM34.1188 19.2246H37.1188V15.5988H34.1188H31.1188V19.2246H34.1188ZM34.1188 15.5988L32.002 13.4729L22.3291 23.1041L24.4458 25.23L26.5626 27.3559L36.2355 17.7246L34.1188 15.5988ZM24.4458 25.23L22.3213 23.1119C22.3133 23.1199 22.317 23.1149 22.3334 23.1037C22.3503 23.0923 22.3734 23.0793 22.4009 23.0681C22.4282 23.0569 22.4508 23.0511 22.4644 23.0485C22.4775 23.0461 22.475 23.0479 22.4529 23.0479V26.0479V29.0479C24.0177 29.0479 25.4517 28.4702 26.5704 27.3481L24.4458 25.23ZM22.4529 26.0479V23.0479C22.4308 23.0479 22.4288 23.0461 22.4428 23.0487C22.4574 23.0514 22.4814 23.0576 22.5105 23.0696C22.5398 23.0816 22.5649 23.0957 22.5838 23.1086C22.6023 23.1212 22.6079 23.1279 22.6018 23.1218L20.4675 25.23L18.3332 27.3382C19.4506 28.4694 20.8877 29.0479 22.4529 29.0479V26.0479ZM20.4675 25.23L22.5777 23.0976L17.6085 18.1801L15.4983 20.3125L13.3881 22.4449L18.3573 27.3624L20.4675 25.23ZM15.4983 20.3125L13.377 18.1912L4.02993 27.5383L6.15125 29.6596L8.27257 31.7809L17.6197 22.4338L15.4983 20.3125ZM6.15125 29.6596L4.03097 27.5372C4.13984 27.4285 4.30518 27.3032 4.52758 27.2102C4.75102 27.1168 4.96459 27.0842 5.13583 27.0842V30.0842V33.0842C6.34006 33.0842 7.43671 32.6159 8.27153 31.7819L6.15125 29.6596ZM5.13583 30.0842V27.0842C5.30708 27.0842 5.52064 27.1168 5.74408 27.2102C5.96649 27.3032 6.13182 27.4285 6.2407 27.5372L4.12042 29.6596L2.00014 31.7819C2.83495 32.6159 3.93161 33.0842 5.13583 33.0842V30.0842Z" fill="var(--stroke-0, #F4813E)" mask="url(#path-1-inside-1_0_133)"/>
</g>
</g>
</svg>
