<svg preserveAspectRatio="none" width="100%" height="100%" overflow="visible" style="display: block;" viewBox="0 0 40 40" fill="none" xmlns="http://www.w3.org/2000/svg">
<g id="timer_arrow_up">
<g id="Vector">
<mask id="path-1-inside-1_0_167" fill="white">
<path d="M13.9167 33.5825C10.465 33.5825 7.53139 32.3738 5.11583 29.9563C2.70056 27.539 1.49292 24.6032 1.49292 21.1488C1.49292 17.7004 2.70056 14.7686 5.11583 12.3533C7.53139 9.93778 10.4674 8.73 13.9238 8.73C15.3499 8.73 16.6986 8.95069 17.97 9.39208C19.2414 9.83319 20.399 10.4622 21.4429 11.2792L22.5521 10.17C22.8301 9.89195 23.1525 9.75444 23.5192 9.7575C23.8856 9.76083 24.2071 9.90083 24.4837 10.1775C24.7604 10.4542 24.8918 10.7724 24.8779 11.1321C24.864 11.4921 24.7326 11.8104 24.4837 12.0871L23.4221 13.1558C24.3376 14.2331 25.0536 15.4517 25.57 16.8117C26.0867 18.1714 26.345 19.6179 26.345 21.1513C26.345 24.6049 25.1365 27.5401 22.7196 29.9571C20.3024 32.374 17.3681 33.5825 13.9167 33.5825ZM11.4104 5.50458C11.0237 5.50458 10.6972 5.37083 10.4308 5.10333C10.1642 4.83555 10.0308 4.50528 10.0308 4.1125C10.0308 3.71972 10.1642 3.39208 10.4308 3.12958C10.6972 2.8668 11.0237 2.73542 11.4104 2.73542H16.6567C17.0508 2.73542 17.381 2.86944 17.6471 3.1375C17.9132 3.40555 18.0462 3.73389 18.0462 4.1225C18.0462 4.51861 17.9132 4.84792 17.6471 5.11042C17.381 5.3732 17.0508 5.50458 16.6567 5.50458H11.4104ZM13.9158 30.7238C16.6036 30.7238 18.8856 29.7883 20.7617 27.9175C22.6381 26.0467 23.5762 23.7674 23.5762 21.0796C23.5762 18.3918 22.6407 16.1082 20.7696 14.2287C18.8987 12.3493 16.6179 11.4096 13.9271 11.4096C11.236 11.4096 8.95236 12.3467 7.07625 14.2208C5.19986 16.095 4.26167 18.376 4.26167 21.0638C4.26167 23.7513 5.19694 26.0332 7.0675 27.9096C8.93805 29.7857 11.2208 30.7238 13.9158 30.7238ZM13.9263 22.3458C14.319 22.3458 14.6468 22.2128 14.9096 21.9467C15.1721 21.6806 15.3033 21.3506 15.3033 20.9567V16.26C15.3033 15.8733 15.1694 15.5468 14.9017 15.2804C14.6336 15.0137 14.3053 14.8804 13.9167 14.8804C13.5206 14.8804 13.1911 15.0137 12.9283 15.2804C12.6658 15.5468 12.5346 15.8733 12.5346 16.26V20.9567C12.5346 21.3506 12.6683 21.6806 12.9358 21.9467C13.2033 22.2128 13.5335 22.3458 13.9263 22.3458ZM31.71 11.6958L30.2879 13.1079C30.0115 13.391 29.6883 13.5325 29.3183 13.5325C28.9486 13.5325 28.6237 13.391 28.3437 13.1079C28.0637 12.8246 27.9237 12.4993 27.9237 12.1321C27.9237 11.7649 28.0654 11.4403 28.3487 11.1583L32.0533 7.45375C32.3447 7.17069 32.6869 7.02917 33.08 7.02917C33.4731 7.02917 33.8144 7.17069 34.1042 7.45375L37.8087 11.1583C38.0854 11.4361 38.2254 11.7597 38.2287 12.1292C38.2321 12.4983 38.0937 12.8246 37.8137 13.1079C37.534 13.391 37.2083 13.5308 36.8367 13.5275C36.4653 13.5242 36.1396 13.3843 35.8596 13.1079L34.4792 11.7175V32.2029C34.4792 32.5896 34.3444 32.9161 34.075 33.1825C33.8056 33.4492 33.4754 33.5825 33.0846 33.5825C32.6937 33.5825 32.3669 33.4492 32.1042 33.1825C31.8414 32.9161 31.71 32.5896 31.71 32.2029V11.6958Z"/>
</mask>
<path d="M5.11583 29.9563L2.99366 32.0767L5.11583 29.9563ZM17.97 9.39208L16.9861 12.2261L16.9866 12.2263L17.97 9.39208ZM21.4429 11.2792L19.594 13.6417L21.6859 15.2788L23.5642 13.4005L21.4429 11.2792ZM23.5192 9.7575L23.5465 6.75762L23.5442 6.7576L23.5192 9.7575ZM24.8779 11.1321L21.8801 11.0163L21.8801 11.0164L24.8779 11.1321ZM24.4837 12.0871L26.6121 14.2013L26.6644 14.1487L26.7141 14.0935L24.4837 12.0871ZM23.4221 13.1558L21.2937 11.0416L19.3505 12.9977L21.1362 15.0987L23.4221 13.1558ZM25.57 16.8117L22.7654 17.8766L22.7656 17.8773L25.57 16.8117ZM22.7196 29.9571L24.8408 32.0785L24.8409 32.0784L22.7196 29.9571ZM10.4308 5.10333L12.5566 2.98643L12.5566 2.98643L10.4308 5.10333ZM10.4308 3.12958L12.5354 5.26754L12.5376 5.26533L10.4308 3.12958ZM17.6471 5.11042L15.5403 2.97466L15.5392 2.97577L17.6471 5.11042ZM20.7617 27.9175L18.6435 25.793L18.6433 25.7932L20.7617 27.9175ZM20.7696 14.2287L18.6434 16.3452L18.6436 16.3454L20.7696 14.2287ZM7.07625 14.2208L9.19631 16.3434L9.19647 16.3433L7.07625 14.2208ZM7.0675 27.9096L4.94288 30.0276L4.94304 30.0278L7.0675 27.9096ZM14.9096 21.9467L17.0442 24.0546L17.0453 24.0534L14.9096 21.9467ZM14.9017 15.2804L12.7859 17.4072L12.7859 17.4072L14.9017 15.2804ZM12.9283 15.2804L10.7915 13.1747L10.7915 13.1748L12.9283 15.2804ZM31.71 11.6958H34.71V4.48918L29.5962 9.56704L31.71 11.6958ZM30.2879 13.1079L28.1741 10.9791L28.1577 10.9955L28.1415 11.012L30.2879 13.1079ZM28.3437 13.1079L26.2099 15.2166L26.2109 15.2177L28.3437 13.1079ZM28.3487 11.1583L30.4649 13.2849L30.4701 13.2797L28.3487 11.1583ZM32.0533 7.45375L29.963 5.30188L29.9474 5.31704L29.932 5.33243L32.0533 7.45375ZM34.1042 7.45375L36.2255 5.33243L36.2131 5.32009L36.2007 5.30789L34.1042 7.45375ZM37.8087 11.1583L39.9343 9.04126L39.9301 9.03701L37.8087 11.1583ZM38.2287 12.1292L35.2289 12.1562V12.1563L38.2287 12.1292ZM37.8137 13.1079L35.6799 10.9992L35.6799 10.9992L37.8137 13.1079ZM36.8367 13.5275L36.8097 16.5274H36.8098L36.8367 13.5275ZM35.8596 13.1079L33.7306 15.2216L33.7413 15.2323L33.7521 15.243L35.8596 13.1079ZM34.4792 11.7175L36.6081 9.60385L31.4792 4.43772V11.7175H34.4792ZM34.075 33.1825L31.9658 31.0491L31.9647 31.0502L34.075 33.1825ZM32.1042 33.1825L34.241 31.0768L34.2399 31.0757L32.1042 33.1825ZM13.9167 33.5825V30.5825C11.2521 30.5825 9.08459 29.6839 7.23801 27.8358L5.11583 29.9563L2.99366 32.0767C5.97819 35.0636 9.67788 36.5825 13.9167 36.5825V33.5825ZM5.11583 29.9563L7.23801 27.8358C5.39168 25.988 4.49292 23.8177 4.49292 21.1488H1.49292H-1.50708C-1.50708 25.3887 0.00942731 29.0901 2.99366 32.0767L5.11583 29.9563ZM1.49292 21.1488H4.49292C4.49292 18.4875 5.3905 16.3213 7.23715 14.4747L5.11583 12.3533L2.99451 10.232C0.0106143 13.2159 -1.50708 16.9133 -1.50708 21.1488H1.49292ZM5.11583 12.3533L7.23715 14.4747C9.08269 12.6291 11.2525 11.73 13.9238 11.73V8.73V5.73C9.68225 5.73 5.98009 7.24644 2.99451 10.232L5.11583 12.3533ZM13.9238 8.73V11.73C15.035 11.73 16.0496 11.901 16.9861 12.2261L17.97 9.39208L18.9539 6.55802C17.3477 6.00038 15.6647 5.73 13.9238 5.73V8.73ZM17.97 9.39208L16.9866 12.2263C17.9503 12.5607 18.8147 13.0318 19.594 13.6417L21.4429 11.2792L23.2918 8.91664C21.9834 7.89267 20.5325 7.1057 18.9534 6.55782L17.97 9.39208ZM21.4429 11.2792L23.5642 13.4005L24.6734 12.2913L22.5521 10.17L20.4308 8.04868L19.3216 9.15785L21.4429 11.2792ZM22.5521 10.17L24.6734 12.2913C24.5743 12.3904 24.4114 12.5189 24.1794 12.6178C23.9432 12.7185 23.7043 12.7591 23.4942 12.7574L23.5192 9.7575L23.5442 6.7576C22.3108 6.74733 21.2319 7.24758 20.4308 8.04868L22.5521 10.17ZM23.5192 9.7575L23.4919 12.7574C23.2906 12.7555 23.0626 12.7136 22.8374 12.6156C22.616 12.5191 22.4592 12.3956 22.3624 12.2988L24.4837 10.1775L26.6051 8.05618C25.8142 7.26526 24.756 6.76863 23.5465 6.75762L23.5192 9.7575ZM24.4837 10.1775L22.3624 12.2988C22.2593 12.1957 22.1212 12.0212 22.0169 11.7686C21.9102 11.5103 21.8712 11.2478 21.8801 11.0163L24.8779 11.1321L27.8757 11.2478C27.9248 9.97518 27.4154 8.86656 26.6051 8.05618L24.4837 10.1775ZM24.8779 11.1321L21.8801 11.0164C21.8862 10.8594 21.9204 10.6791 21.9959 10.4963C22.0708 10.3148 22.1676 10.1761 22.2534 10.0807L24.4837 12.0871L26.7141 14.0935C27.415 13.3143 27.8338 12.333 27.8757 11.2477L24.8779 11.1321ZM24.4837 12.0871L22.3554 9.97283L21.2937 11.0416L23.4221 13.1558L25.5504 15.2701L26.6121 14.2013L24.4837 12.0871ZM23.4221 13.1558L21.1362 15.0987C21.8236 15.9074 22.3669 16.8273 22.7654 17.8766L25.57 16.8117L28.3746 15.7468C27.7403 14.0761 26.8517 12.5587 25.708 11.213L23.4221 13.1558ZM25.57 16.8117L22.7656 17.8773C23.1461 18.8785 23.345 19.9621 23.345 21.1512H26.345H29.345C29.345 19.2737 29.0273 17.4643 28.3744 15.7461L25.57 16.8117ZM26.345 21.1512H23.345C23.345 23.8185 22.4461 25.988 20.5983 27.8358L22.7196 29.9571L24.8409 32.0784C27.827 29.0923 29.345 25.3912 29.345 21.1512H26.345ZM22.7196 29.9571L20.5984 27.8356C18.7499 29.684 16.5811 30.5825 13.9167 30.5825V33.5825V36.5825C18.155 36.5825 21.8549 35.0641 24.8408 32.0785L22.7196 29.9571ZM11.4104 5.50458V2.50458C11.5695 2.50458 11.7819 2.5336 12.0127 2.62814C12.2449 2.72327 12.4274 2.85678 12.5566 2.98643L10.4308 5.10333L8.3051 7.22023C9.14957 8.06822 10.2476 8.50458 11.4104 8.50458V5.50458ZM10.4308 5.10333L12.5566 2.98643C12.6886 3.11905 12.8202 3.30273 12.9127 3.53175C13.0042 3.75849 13.0308 3.96364 13.0308 4.1125H10.0308H7.03083C7.03083 5.26396 7.45443 6.36602 8.30511 7.22024L10.4308 5.10333ZM10.0308 4.1125H13.0308C13.0308 4.26099 13.0043 4.47008 12.9096 4.70299C12.8136 4.93888 12.6758 5.12927 12.5354 5.26754L10.4308 3.12958L8.32628 0.991625C7.45576 1.84854 7.03083 2.96044 7.03083 4.1125H10.0308ZM10.4308 3.12958L12.5376 5.26533C12.4061 5.39511 12.2236 5.52527 11.9954 5.6171C11.7691 5.70816 11.5629 5.73542 11.4104 5.73542V2.73542V-0.264583C10.2645 -0.264583 9.17236 0.157011 8.32404 0.993836L10.4308 3.12958ZM11.4104 2.73542V5.73542H16.6567V2.73542V-0.264583H11.4104V2.73542ZM16.6567 2.73542V5.73542C16.5081 5.73542 16.301 5.70883 16.0714 5.61561C15.8392 5.52134 15.6528 5.38678 15.5181 5.25108L17.6471 3.1375L19.7761 1.02391C18.92 0.161519 17.8114 -0.264583 16.6567 -0.264583V2.73542ZM17.6471 3.1375L15.5181 5.25108C15.3895 5.12157 15.2588 4.94021 15.1661 4.71152C15.0741 4.4845 15.0462 4.27683 15.0462 4.1225H18.0462H21.0462C21.0462 2.96756 20.6179 1.87181 19.7761 1.02391L17.6471 3.1375ZM18.0462 4.1225H15.0462C15.0462 3.97972 15.0714 3.7741 15.1649 3.5427C15.2599 3.30775 15.3973 3.11573 15.5403 2.97466L17.6471 5.11042L19.7539 7.24618C20.6284 6.38355 21.0462 5.26803 21.0462 4.1225H18.0462ZM17.6471 5.11042L15.5392 2.97577C15.6767 2.84001 15.863 2.70924 16.0906 2.61867C16.3151 2.52932 16.5154 2.50458 16.6567 2.50458V5.50458V8.50458C17.7927 8.50458 18.8946 8.09463 19.755 7.24506L17.6471 5.11042ZM16.6567 5.50458V2.50458H11.4104V5.50458V8.50458H16.6567V5.50458ZM13.9158 30.7238V33.7238C17.3849 33.7238 20.4325 32.4825 22.88 30.0418L20.7617 27.9175L18.6433 25.7932C17.3386 27.0942 15.8223 27.7238 13.9158 27.7238V30.7238ZM20.7617 27.9175L22.8798 30.042C25.3298 27.5992 26.5762 24.5517 26.5762 21.0796H23.5762H20.5762C20.5762 22.983 19.9463 24.4941 18.6435 25.793L20.7617 27.9175ZM23.5762 21.0796H26.5762C26.5762 17.6105 25.3349 14.5623 22.8956 12.1121L20.7696 14.2287L18.6436 16.3454C19.9465 17.6541 20.5762 19.1731 20.5762 21.0796H23.5762ZM20.7696 14.2287L22.8958 12.1123C20.4527 9.658 17.4028 8.40958 13.9271 8.40958V11.4096V14.4096C15.8331 14.4096 17.3448 15.0406 18.6434 16.3452L20.7696 14.2287ZM13.9271 11.4096V8.40958C10.4541 8.40958 7.40394 9.65304 4.95603 12.0984L7.07625 14.2208L9.19647 16.3433C10.5008 15.0403 12.0179 14.4096 13.9271 14.4096V11.4096ZM7.07625 14.2208L4.95619 12.0983C2.50795 14.5436 1.26167 17.5918 1.26167 21.0638H4.26167H7.26167C7.26167 19.1602 7.89177 17.6464 9.19631 16.3434L7.07625 14.2208ZM4.26167 21.0638H1.26167C1.26167 24.5325 2.50277 27.5799 4.94288 30.0276L7.0675 27.9096L9.19212 25.7916C7.89112 24.4865 7.26167 22.97 7.26167 21.0638H4.26167ZM7.0675 27.9096L4.94304 30.0278C7.38726 32.4792 10.4391 33.7238 13.9158 33.7238V30.7238V27.7238C12.0026 27.7238 10.4888 27.0921 9.19196 25.7914L7.0675 27.9096ZM13.9262 22.3458V25.3458C15.0763 25.3458 16.187 24.9227 17.0442 24.0546L14.9096 21.9467L12.7749 19.8388C12.9132 19.6987 13.1033 19.5617 13.3383 19.4663C13.5703 19.3721 13.7785 19.3458 13.9262 19.3458V22.3458ZM14.9096 21.9467L17.0453 24.0534C17.8938 23.1933 18.3033 22.0921 18.3033 20.9567H15.3033H12.3033C12.3033 20.8153 12.3281 20.6152 12.4173 20.3909C12.5077 20.1635 12.6383 19.9773 12.7738 19.8399L14.9096 21.9467ZM15.3033 20.9567H18.3033V16.26H15.3033H12.3033V20.9567H15.3033ZM15.3033 16.26H18.3033C18.3033 15.0962 17.8661 13.9978 17.0175 13.1536L14.9017 15.2804L12.7859 17.4072C12.6562 17.2783 12.5225 17.0957 12.4272 16.8633C12.3325 16.6322 12.3033 16.4195 12.3033 16.26H15.3033ZM14.9017 15.2804L17.0175 13.1536C16.17 12.3105 15.0736 11.8804 13.9167 11.8804V14.8804V17.8804C13.7615 17.8804 13.5532 17.8524 13.3256 17.76C13.0965 17.6669 12.9151 17.5358 12.7859 17.4072L14.9017 15.2804ZM13.9167 14.8804V11.8804C12.7692 11.8804 11.6535 12.3 10.7915 13.1747L12.9283 15.2804L15.0652 17.3861C14.9247 17.5286 14.7331 17.6662 14.498 17.7613C14.2664 17.855 14.0602 17.8804 13.9167 17.8804V14.8804ZM12.9283 15.2804L10.7915 13.1748C9.95533 14.0233 9.53458 15.1151 9.53458 16.26H12.5346H15.5346C15.5346 16.4121 15.5074 16.6179 15.4166 16.844C15.3249 17.0719 15.195 17.2544 15.0652 17.3861L12.9283 15.2804ZM12.5346 16.26H9.53458V20.9567H12.5346H15.5346V16.26H12.5346ZM12.5346 20.9567H9.53458C9.53458 22.1098 9.95942 23.2173 10.82 24.0735L12.9358 21.9467L15.0516 19.8198C15.1871 19.9546 15.3213 20.141 15.4152 20.3727C15.5081 20.6019 15.5346 20.8084 15.5346 20.9567H12.5346ZM12.9358 21.9467L10.82 24.0735C11.6749 24.9239 12.7767 25.3458 13.9262 25.3458V22.3458V19.3458C14.0743 19.3458 14.279 19.3722 14.5055 19.4635C14.7344 19.5558 14.9184 19.6873 15.0516 19.8198L12.9358 21.9467ZM31.71 11.6958L29.5962 9.56704L28.1741 10.9791L30.2879 13.1079L32.4017 15.2367L33.8238 13.8246L31.71 11.6958ZM30.2879 13.1079L28.1415 11.012C28.2402 10.9109 28.4027 10.7799 28.6348 10.6783C28.8711 10.5748 29.1097 10.5325 29.3183 10.5325V13.5325V16.5325C30.5565 16.5325 31.6369 16.0205 32.4344 15.2038L30.2879 13.1079ZM29.3183 13.5325V10.5325C29.5275 10.5325 29.7636 10.575 29.9956 10.676C30.2231 10.7752 30.3815 10.9021 30.4765 10.9981L28.3437 13.1079L26.2109 15.2177C27.0065 16.0219 28.0816 16.5325 29.3183 16.5325V13.5325ZM28.3437 13.1079L30.4776 10.9992C30.5679 11.0906 30.6891 11.2442 30.7844 11.4654C30.8816 11.6913 30.9237 11.9233 30.9237 12.1321H27.9237H24.9237C24.9237 13.3595 25.4267 14.4242 26.2099 15.2166L28.3437 13.1079ZM27.9237 12.1321H30.9237C30.9237 12.3459 30.88 12.583 30.7795 12.8133C30.6812 13.0386 30.5565 13.1937 30.4648 13.2849L28.3487 11.1583L26.2326 9.03181C25.4387 9.82184 24.9237 10.892 24.9237 12.1321H27.9237ZM28.3487 11.1583L30.4701 13.2797L34.1747 9.57507L32.0533 7.45375L29.932 5.33243L26.2274 9.03701L28.3487 11.1583ZM32.0533 7.45375L34.1437 9.60562C34.0434 9.70306 33.8876 9.8197 33.675 9.9076C33.4607 9.99625 33.2524 10.0292 33.08 10.0292V7.02917V4.02917C31.8777 4.02917 30.7934 4.49523 29.963 5.30188L32.0533 7.45375ZM33.08 7.02917V10.0292C32.9077 10.0292 32.6982 9.99626 32.4819 9.90661C32.2674 9.81766 32.1097 9.69928 32.0077 9.59962L34.1042 7.45375L36.2007 5.30789C35.3695 4.49586 34.2828 4.02917 33.08 4.02917V7.02917ZM34.1042 7.45375L31.9828 9.57507L35.6874 13.2797L37.8087 11.1583L39.9301 9.03701L36.2255 5.33243L34.1042 7.45375ZM37.8087 11.1583L35.6832 13.2754C35.5857 13.1775 35.4631 13.0206 35.3679 12.8005C35.2712 12.5772 35.2306 12.3526 35.2289 12.1562L38.2287 12.1292L41.2286 12.1021C41.2178 10.897 40.7269 9.83709 39.9343 9.04127L37.8087 11.1583ZM38.2287 12.1292L35.2289 12.1563C35.227 11.9469 35.2673 11.7112 35.3655 11.4796C35.4618 11.2526 35.5861 11.0942 35.6799 10.9992L37.8137 13.1079L39.9476 15.2166C40.7401 14.4147 41.2398 13.3373 41.2286 12.1021L38.2287 12.1292ZM37.8137 13.1079L35.6799 10.9992C35.7787 10.8992 35.9422 10.7689 36.1759 10.6685C36.4139 10.5663 36.654 10.5257 36.8636 10.5276L36.8367 13.5275L36.8098 16.5274C38.0541 16.5385 39.1425 16.0313 39.9476 15.2166L37.8137 13.1079ZM36.8367 13.5275L36.8636 10.5276C37.0564 10.5294 37.2774 10.569 37.4976 10.6635C37.7146 10.7567 37.8699 10.8769 37.9671 10.9729L35.8596 13.1079L33.7521 15.243C34.5505 16.0311 35.6092 16.5166 36.8097 16.5274L36.8367 13.5275ZM35.8596 13.1079L37.9885 10.9943L36.6081 9.60385L34.4792 11.7175L32.3502 13.8311L33.7306 15.2216L35.8596 13.1079ZM34.4792 11.7175H31.4792V32.2029H34.4792H37.4792V11.7175H34.4792ZM34.4792 32.2029H31.4792C31.4792 32.041 31.5089 31.8262 31.6049 31.5936C31.7014 31.3597 31.8363 31.1772 31.9658 31.0491L34.075 33.1825L36.1842 35.3159C37.0366 34.4731 37.4792 33.3727 37.4792 32.2029H34.4792ZM34.075 33.1825L31.9647 31.0502C32.0941 30.9222 32.2747 30.7925 32.5019 30.7008C32.7272 30.6098 32.9327 30.5825 33.0846 30.5825V33.5825V36.5825C34.2384 36.5825 35.335 36.1563 36.1853 35.3148L34.075 33.1825ZM33.0846 33.5825V30.5825C33.236 30.5825 33.4465 30.6097 33.6796 30.7048C33.9154 30.801 34.1045 30.9383 34.241 31.0768L32.1042 33.1825L29.9673 35.2882C30.821 36.1545 31.9299 36.5825 33.0846 36.5825V33.5825ZM32.1042 33.1825L34.2399 31.0757C34.3697 31.2073 34.4999 31.3897 34.5917 31.6179C34.6827 31.8442 34.71 32.0504 34.71 32.2029H31.71H28.71C28.71 33.3488 29.1316 34.441 29.9684 35.2893L32.1042 33.1825ZM31.71 32.2029H34.71V11.6958H31.71H28.71V32.2029H31.71Z" fill="var(--stroke-0, #F4813E)" mask="url(#path-1-inside-1_0_167)"/>
</g>
</g>
</svg>
