<svg preserveAspectRatio="none" width="100%" height="100%" overflow="visible" style="display: block;" viewBox="0 0 48 48" fill="none" xmlns="http://www.w3.org/2000/svg">
<g id="admin_panel_settings">
<path id="Vector" d="M24 3.851C24.1907 3.851 24.3895 3.86967 24.5965 3.907C24.8038 3.94433 25.0028 4.00033 25.1935 4.075L38.086 8.889C38.7487 9.144 39.2852 9.56617 39.6955 10.1555C40.1058 10.7448 40.311 11.4042 40.311 12.1335V21.1965C40.311 21.6662 40.141 22.0572 39.801 22.3695C39.4613 22.6818 39.0615 22.838 38.6015 22.838C38.1418 22.838 37.742 22.6708 37.402 22.3365C37.0623 22.0018 36.8925 21.6052 36.8925 21.1465V12.1215L24 7.3695L11.1075 12.1215V21.9C11.1075 24.2173 11.4495 26.3458 12.1335 28.2855C12.8178 30.2248 13.694 31.956 14.762 33.479C15.83 35.0017 17.0238 36.3053 18.3435 37.39C19.6632 38.475 20.9458 39.3175 22.1915 39.9175C22.5972 40.1425 22.8895 40.4738 23.0685 40.9115C23.2475 41.3495 23.2402 41.7778 23.0465 42.1965C22.8278 42.6515 22.4822 42.9655 22.0095 43.1385C21.5365 43.3115 21.08 43.2907 20.64 43.076C16.569 41.2963 13.3948 38.4247 11.1175 34.461C8.83983 30.497 7.701 26.309 7.701 21.897V12.1335C7.701 11.4042 7.90417 10.7448 8.3105 10.1555C8.71683 9.56617 9.25133 9.144 9.914 8.889L22.8065 4.075C23.0055 3.98867 23.2025 3.92983 23.3975 3.8985C23.5922 3.86683 23.793 3.851 24 3.851ZM34.625 44C32.0417 44 29.8333 43.075 28 41.225C26.1667 39.375 25.25 37.1833 25.25 34.65C25.25 32.0357 26.1665 29.807 27.9995 27.964C29.8325 26.1213 32.0493 25.2 34.65 25.2C37.2167 25.2 39.425 26.1213 41.275 27.964C43.125 29.807 44.05 32.0357 44.05 34.65C44.05 37.1833 43.125 39.375 41.275 41.225C39.425 43.075 37.2083 44 34.625 44ZM34.562 34.5C35.4287 34.5 36.164 34.1833 36.768 33.55C37.372 32.9167 37.674 32.1687 37.674 31.306C37.674 30.4433 37.37 29.71 36.762 29.106C36.154 28.502 35.4227 28.2 34.568 28.2C33.6973 28.2 32.9473 28.502 32.318 29.106C31.6887 29.71 31.374 30.4433 31.374 31.306C31.374 32.1687 31.6887 32.9167 32.318 33.55C32.9473 34.1833 33.6953 34.5 34.562 34.5ZM34.528 40.75C35.4483 40.75 36.3147 40.5747 37.127 40.224C37.9393 39.873 38.6477 39.3762 39.252 38.7335C39.4013 38.5588 39.451 38.3557 39.401 38.124C39.351 37.892 39.2268 37.7387 39.0285 37.664C38.3108 37.3387 37.571 37.0883 36.809 36.913C36.047 36.7377 35.2777 36.65 34.501 36.65C33.7247 36.65 32.961 36.7313 32.21 36.894C31.459 37.0567 30.7208 37.3133 29.9955 37.664C29.8052 37.7387 29.6747 37.892 29.604 38.124C29.5333 38.3557 29.5765 38.5588 29.7335 38.7335C30.3362 39.4095 31.0552 39.9147 31.8905 40.249C32.7258 40.583 33.605 40.75 34.528 40.75Z" fill="var(--fill-0, #2DA2DB)"/>
</g>
</svg>
