<svg preserveAspectRatio="none" width="100%" height="100%" overflow="visible" style="display: block;" viewBox="0 0 48 48" fill="none" xmlns="http://www.w3.org/2000/svg">
<g id="communication">
<path id="Vector" d="M38.5717 27.9995C39.8049 27.9996 41.2889 28.2541 43.0434 28.8091H43.0443C43.7529 29.0332 44.1531 29.3366 44.3842 29.6421C44.5286 29.8332 44.6469 30.0789 44.7143 30.4068H32.4281C32.4956 30.0769 32.6153 29.8298 32.7602 29.6382C32.9912 29.3327 33.3911 29.0306 34.099 28.8072C35.8538 28.2536 37.3382 27.9995 38.5717 27.9995ZM9.42812 27.9995C10.6616 27.9995 12.1461 28.2537 13.9008 28.8072C14.6087 29.0306 15.0086 29.3328 15.2396 29.6382C15.3845 29.8298 15.5042 30.077 15.5717 30.4068H3.28555C3.35297 30.0786 3.47209 29.8332 3.6166 29.6421C3.8477 29.3366 4.24765 29.0332 4.95644 28.8091C6.71089 28.2541 8.19486 27.9996 9.42812 27.9995ZM9.43008 17.4038C10.1158 17.4038 10.665 17.6304 11.1586 18.1255C11.654 18.6227 11.8812 19.1753 11.8812 19.8628C11.8812 20.5494 11.654 21.1009 11.1576 21.5982C10.6619 22.0943 10.1119 22.3218 9.42617 22.3218C8.74053 22.3218 8.19139 22.0948 7.69766 21.5992C7.2027 21.1023 6.975 20.5488 6.975 19.8579C6.97501 19.2543 7.14913 18.7573 7.52383 18.312L7.69668 18.1245C8.19193 17.6305 8.74271 17.4039 9.43008 17.4038ZM38.5736 17.4038C39.2594 17.4038 39.8085 17.6303 40.3021 18.1255C40.7976 18.6227 41.0248 19.1753 41.0248 19.8628C41.0247 20.4635 40.8509 20.9607 40.475 21.4087L40.3012 21.5982C39.8055 22.0943 39.2555 22.3218 38.5697 22.3218C37.8841 22.3218 37.3349 22.0947 36.8412 21.5992C36.3463 21.1023 36.1186 20.5488 36.1186 19.8579C36.1186 19.2543 36.2927 18.7573 36.6674 18.312L36.8402 18.1245C37.3355 17.6305 37.8863 17.4039 38.5736 17.4038Z" stroke="var(--stroke-0, #2DA2DB)" stroke-width="3"/>
</g>
</svg>
