<svg preserveAspectRatio="none" width="100%" height="100%" overflow="visible" style="display: block;" viewBox="0 0 48 48" fill="none" xmlns="http://www.w3.org/2000/svg">
<g id="globe">
<path id="Vector" d="M24.015 44.299C21.2083 44.299 18.5743 43.7677 16.113 42.705C13.6517 41.6423 11.499 40.189 9.655 38.345C7.811 36.501 6.35767 34.3477 5.295 31.885C4.23233 29.4223 3.701 26.7862 3.701 23.9765C3.701 21.1672 4.23233 18.5305 5.295 16.0665C6.35767 13.6028 7.81033 11.4572 9.653 9.6295C11.4957 7.8015 13.6487 6.3545 16.112 5.2885C18.5753 4.22217 21.2122 3.689 24.0225 3.689C26.8325 3.689 29.47 4.22183 31.935 5.2875C34.3997 6.35317 36.5455 7.79933 38.3725 9.626C40.1998 11.4527 41.6463 13.6007 42.712 16.07C43.778 18.5393 44.311 21.1782 44.311 23.9865C44.311 26.7945 43.7778 29.429 42.7115 31.89C41.6455 34.3513 40.1985 36.5005 38.3705 38.3375C36.5428 40.1742 34.395 41.627 31.927 42.696C29.459 43.7647 26.8217 44.299 24.015 44.299ZM24 40.8925C28.6103 40.8925 32.5305 39.3118 35.7605 36.1505C38.9905 32.9892 40.6772 29.1502 40.8205 24.6335C40.8205 24.5482 40.8225 24.4763 40.8265 24.418C40.8305 24.36 40.8325 24.295 40.8325 24.223C40.5848 24.994 40.1222 25.6333 39.4445 26.141C38.7672 26.6483 37.9777 26.902 37.076 26.902H33.136C32.0063 26.902 31.0393 26.4995 30.235 25.6945C29.4307 24.8892 29.0285 23.9212 29.0285 22.7905V20.735H20.813V16.704C20.813 15.566 21.2157 14.596 22.021 13.794C22.826 12.9923 23.7938 12.5915 24.9245 12.5915H26.9805V11.4915C26.9805 10.9155 27.2115 10.2142 27.6735 9.3875C28.1355 8.56117 28.6617 8.0805 29.252 7.9455C28.4267 7.6905 27.5778 7.48717 26.7055 7.3355C25.8335 7.1835 24.9332 7.1075 24.0045 7.1075C19.3255 7.1075 15.3395 8.7445 12.0465 12.0185C8.75383 15.2922 7.1075 19.286 7.1075 24C7.1075 24.032 7.1095 24.0618 7.1135 24.0895C7.1175 24.1175 7.1195 24.1475 7.1195 24.1795H14.0695C16.3332 24.1795 18.2683 24.9827 19.875 26.589C21.4817 28.1957 22.285 30.1288 22.285 32.3885V34.4425H16.1295V39.011C17.3105 39.6093 18.5617 40.0725 19.883 40.4005C21.2047 40.7285 22.577 40.8925 24 40.8925Z" fill="var(--fill-0, #2DA2DB)"/>
</g>
</svg>
