<svg preserveAspectRatio="none" width="100%" height="100%" overflow="visible" style="display: block;" viewBox="0 0 48 48" fill="none" xmlns="http://www.w3.org/2000/svg">
<g id="monorail">
<path id="Vector" d="M13.2075 44.7175C12.7428 44.7175 12.3507 44.557 12.031 44.236C11.7117 43.9147 11.552 43.5163 11.552 43.041C11.552 42.5737 11.7117 42.1825 12.031 41.8675C12.3507 41.5522 12.7428 41.3945 13.2075 41.3945H22.3445V36.7205C22.3445 36.2558 22.505 35.8638 22.826 35.5445C23.1473 35.2248 23.5417 35.065 24.009 35.065C24.4763 35.065 24.8695 35.2248 25.1885 35.5445C25.5078 35.8638 25.6675 36.2558 25.6675 36.7205V41.3945H34.7805C35.2452 41.3945 35.6393 41.555 35.963 41.876C36.2863 42.1973 36.448 42.5917 36.448 43.059C36.448 43.5343 36.2863 43.9295 35.963 44.2445C35.6393 44.5598 35.2452 44.7175 34.7805 44.7175H13.2075ZM14.1675 3.2825H33.8445C35.7178 3.2825 37.3237 3.94967 38.662 5.284C40.0003 6.61867 40.6695 8.2265 40.6695 10.1075V32.427C40.6695 34.0763 40.0853 35.4833 38.917 36.648C37.7483 37.8123 36.3393 38.3945 34.69 38.3945H30.323C29.85 38.3945 29.4498 38.2368 29.1225 37.9215C28.7952 37.6062 28.6275 37.208 28.6195 36.727V36.577C28.5718 35.3357 28.1018 34.2983 27.2095 33.465C26.3172 32.6317 25.2488 32.215 24.0045 32.215C22.7522 32.215 21.6743 32.6317 20.771 33.465C19.868 34.2983 19.4045 35.3357 19.3805 36.577V36.727C19.3725 37.208 19.2048 37.6062 18.8775 37.9215C18.5502 38.2368 18.15 38.3945 17.677 38.3945H13.31C11.6527 38.3945 10.2437 37.8123 9.083 36.648C7.92267 35.4833 7.3425 34.0763 7.3425 32.427V10.1075C7.3425 8.2265 8.00967 6.61867 9.344 5.284C10.6783 3.94967 12.2862 3.2825 14.1675 3.2825ZM10.665 23.476V32.427C10.665 33.116 10.8958 33.713 11.3575 34.218C11.8188 34.7233 12.3898 35 13.0705 35.048H16.2435C16.6072 33.2253 17.5262 31.7438 19.0005 30.6035C20.4748 29.4628 22.1413 28.8925 24 28.8925C25.8587 28.8925 27.5252 29.4628 28.9995 30.6035C30.4738 31.7438 31.3952 33.2253 31.7635 35.048H34.9295C35.6102 35 36.1832 34.7233 36.6485 34.218C37.1138 33.713 37.3465 33.116 37.3465 32.427V23.476H10.665ZM10.665 13.012V20.249H37.3465V13.012H10.665ZM14.0715 6.6055C13.1745 6.6055 12.4045 6.91317 11.7615 7.5285C11.1182 8.1435 10.7767 8.89567 10.737 9.785H37.275C37.2273 8.89567 36.8818 8.1435 36.2385 7.5285C35.5955 6.91317 34.8255 6.6055 33.9285 6.6055H14.0715ZM14.0715 9.785H37.275H10.737H14.0715Z" fill="var(--fill-0, #2DA2DB)"/>
</g>
</svg>
