<svg preserveAspectRatio="none" width="100%" height="100%" overflow="visible" style="display: block;" viewBox="0 0 48 48" fill="none" xmlns="http://www.w3.org/2000/svg">
<g id="oil_barrel">
<path id="Vector" d="M7.9045 42.299C7.4405 42.299 7.04067 42.131 6.705 41.795C6.369 41.4593 6.201 41.0532 6.201 40.5765C6.201 40.1002 6.369 39.7003 6.705 39.377C7.04067 39.054 7.4405 38.8925 7.9045 38.8925H9.6295V25.7035H7.4045C6.9405 25.7035 6.54067 25.5335 6.205 25.1935C5.869 24.8535 5.701 24.4473 5.701 23.975C5.701 23.5027 5.869 23.1048 6.205 22.7815C6.54067 22.4582 6.9405 22.2965 7.4045 22.2965H9.6295V9.1075H7.9045C7.4405 9.1075 7.04067 8.93767 6.705 8.598C6.369 8.258 6.201 7.85217 6.201 7.3805C6.201 6.9085 6.369 6.50867 6.705 6.181C7.04067 5.853 7.4405 5.689 7.9045 5.689H40.0955C40.5765 5.689 40.9807 5.855 41.308 6.187C41.6353 6.519 41.799 6.92517 41.799 7.4055C41.799 7.8605 41.6353 8.258 41.308 8.598C40.9807 8.93767 40.5765 9.1075 40.0955 9.1075H38.3705V22.2965H40.5955C41.0755 22.2965 41.4813 22.4603 41.813 22.788C42.145 23.1153 42.311 23.5193 42.311 24C42.311 24.4557 42.145 24.8535 41.813 25.1935C41.4813 25.5335 41.0755 25.7035 40.5955 25.7035H38.3705V38.8925H40.0955C40.5765 38.8925 40.9807 39.0562 41.308 39.3835C41.6353 39.7108 41.799 40.1168 41.799 40.6015C41.799 41.0615 41.6353 41.4593 41.308 41.795C40.9807 42.131 40.5765 42.299 40.0955 42.299H7.9045ZM13.048 38.8925H34.952V25.7035C34.4963 25.7035 34.0985 25.5335 33.7585 25.1935C33.4188 24.8535 33.249 24.4473 33.249 23.975C33.249 23.5027 33.4188 23.1048 33.7585 22.7815C34.0985 22.4582 34.4963 22.2965 34.952 22.2965V9.1075H13.048V22.2965C13.5287 22.2965 13.9327 22.4603 14.26 22.788C14.5873 23.1153 14.751 23.5193 14.751 24C14.751 24.4557 14.5873 24.8535 14.26 25.1935C13.9327 25.5335 13.5287 25.7035 13.048 25.7035V38.8925ZM23.9955 31.2305C25.5002 31.2305 26.7798 30.7152 27.8345 29.6845C28.8892 28.6535 29.4165 27.405 29.4165 25.939C29.4165 25.3397 29.3415 24.825 29.1915 24.395C29.0415 23.965 28.7705 23.4747 28.3785 22.924L25.3175 19.299C24.9712 18.8843 24.5325 18.679 24.0015 18.683C23.4702 18.687 23.0345 18.8923 22.6945 19.299L19.6215 22.874C19.2295 23.4247 18.9605 23.9192 18.8145 24.3575C18.6685 24.7958 18.5955 25.3148 18.5955 25.9145C18.5955 27.3912 19.1193 28.6463 20.167 29.68C21.2147 30.7137 22.4908 31.2305 23.9955 31.2305Z" fill="var(--fill-0, #2DA2DB)"/>
</g>
</svg>
