<svg preserveAspectRatio="none" width="100%" height="100%" overflow="visible" style="display: block;" viewBox="0 0 48 48" fill="none" xmlns="http://www.w3.org/2000/svg">
<g id="pickaxe">
<path id="Vector" d="M28 26L11.238 42.76C10.844 43.1541 10.3763 43.4668 9.86151 43.6801C9.34672 43.8935 8.79495 44.0033 8.23771 44.0034C7.1123 44.0036 6.03291 43.5567 5.237 42.761C4.44109 41.9654 3.99384 40.8862 3.99365 39.7608C3.99346 38.6353 4.44035 37.556 5.236 36.76L22 19.998M31.946 8.05403C28.9855 6.17238 25.6748 4.90928 22.2132 4.34078C18.7517 3.77228 15.2109 3.91013 11.804 4.74603C9.00801 5.43003 9.62001 9.06203 12.358 9.94803C16.5472 11.306 20.482 13.3497 24.002 15.996M32.002 23.9982C34.6487 27.5194 36.6924 31.4556 38.05 35.6462C38.938 38.3842 42.57 38.9982 43.256 36.2022C44.0885 32.8106 44.2293 29.286 43.6699 25.8388C43.1105 22.3916 41.8623 19.0924 40 16.1382M36.7038 6.70379C36.2518 6.25191 35.6389 5.99805 34.9998 5.99805C34.3607 5.99805 33.7477 6.25191 33.2958 6.70379L22.7038 17.2958C22.2519 17.7477 21.998 18.3607 21.998 18.9998C21.998 19.6389 22.2519 20.2518 22.7038 20.7038L27.2958 25.2958C27.7477 25.7477 28.3607 26.0015 28.9998 26.0015C29.6389 26.0015 30.2518 25.7477 30.7038 25.2958L41.2958 14.7038C41.7477 14.2518 42.0015 13.6389 42.0015 12.9998C42.0015 12.3607 41.7477 11.7477 41.2958 11.2958L36.7038 6.70379Z" stroke="var(--stroke-0, #2DA2DB)" stroke-width="3" stroke-linecap="round" stroke-linejoin="round"/>
</g>
</svg>
