<svg preserveAspectRatio="none" width="100%" height="100%" overflow="visible" style="display: block;" viewBox="0 0 48 48" fill="none" xmlns="http://www.w3.org/2000/svg">
<g id="server-cog">
<path id="Vector" d="M21.704 29.5439L20.938 31.3899M29.5437 26.297C29.2421 27.025 28.8001 27.6865 28.2428 28.2437C27.6856 28.8009 27.024 29.2428 26.296 29.5444C25.5679 29.8459 24.7878 30.0007 23.9998 30.0007C23.2118 30.0006 22.432 29.8456 21.704 29.5439M21.704 29.5439C20.976 29.2423 20.314 28.8001 19.7568 28.2429C19.1996 27.6856 18.7577 27.0241 18.4561 26.2961M26.296 29.5444L27.0601 31.3921M29.5437 26.297C29.8453 25.569 30.0006 24.7887 30.0006 24.0007C30.0007 23.2127 29.8455 22.4324 29.544 21.7044M29.5437 26.297L31.3899 27.0619M29.544 21.7044C29.2425 20.9763 28.8005 20.3148 28.2433 19.7575C27.6862 19.2003 27.0247 18.7582 26.2967 18.4566M29.544 21.7044L31.3899 20.9385M18.4564 21.7034C18.758 20.9754 19.2001 20.3139 19.7573 19.7567C20.3146 19.1995 20.9759 18.7579 21.704 18.4564C22.432 18.1548 23.2123 17.9997 24.0004 17.9997C24.7884 17.9998 25.5687 18.155 26.2967 18.4566M26.2967 18.4566L27.0619 16.6104M21.704 18.4564L20.938 16.6104M18.4561 26.2961C18.1546 25.568 17.9995 24.7877 17.9995 23.9997C17.9996 23.2117 18.1548 22.4314 18.4564 21.7034M18.4561 26.2961L16.6099 27.0619M18.4564 21.7034L16.6099 20.9385M9 20H8C6.93913 20 5.92172 19.5786 5.17157 18.8284C4.42143 18.0783 4 17.0609 4 16V8C4 6.93913 4.42143 5.92172 5.17157 5.17157C5.92172 4.42143 6.93913 4 8 4H40C41.0609 4 42.0783 4.42143 42.8284 5.17157C43.5786 5.92172 44 6.93913 44 8V16C44 17.0609 43.5786 18.0783 42.8284 18.8284C42.0783 19.5786 41.0609 20 40 20H39M9 28H8C6.93913 28 5.92172 28.4214 5.17157 29.1716C4.42143 29.9217 4 30.9391 4 32V40C4 41.0609 4.42143 42.0783 5.17157 42.8284C5.92172 43.5786 6.93913 44 8 44H40C41.0609 44 42.0783 43.5786 42.8284 42.8284C43.5786 42.0783 44 41.0609 44 40V32C44 30.9391 43.5786 29.9217 42.8284 29.1716C42.0783 28.4214 41.0609 28 40 28H39M12 36H12.02M12 12H12.02" stroke="var(--stroke-0, #2DA2DB)" stroke-width="3" stroke-linecap="round" stroke-linejoin="round"/>
</g>
</svg>
