<svg preserveAspectRatio="none" width="100%" height="100%" overflow="visible" style="display: block;" viewBox="0 0 48 48" fill="none" xmlns="http://www.w3.org/2000/svg">
<g id="speed">
<path id="Vector" d="M20.352 31.7475C21.1163 32.5158 22.2218 32.875 23.6685 32.825C25.1148 32.775 26.1753 32.2333 26.85 31.2L35.6445 17.499C35.9178 17.0843 35.8908 16.7135 35.5635 16.3865C35.2365 16.0592 34.8657 16.0322 34.451 16.3055L20.9 25.2C19.9 25.8747 19.3667 26.9435 19.3 28.4065C19.2333 29.8695 19.584 30.9832 20.352 31.7475ZM23.9 7.739C25.3683 7.739 26.9177 7.935 28.548 8.327C30.178 8.71867 31.7888 9.35283 33.3805 10.2295C33.8028 10.4708 34.0528 10.8205 34.1305 11.2785C34.2078 11.7365 34.1013 12.176 33.811 12.597C33.5203 13.018 33.1727 13.2673 32.768 13.345C32.3633 13.423 31.933 13.362 31.477 13.162C30.1663 12.4607 28.8312 11.9512 27.4715 11.6335C26.1122 11.3162 24.9217 11.1575 23.9 11.1575C19.257 11.1575 15.2975 12.8168 12.0215 16.1355C8.7455 19.4545 7.1075 23.4743 7.1075 28.195C7.1075 29.6983 7.31183 31.2007 7.7205 32.702C8.12917 34.2037 8.71283 35.6005 9.4715 36.8925H38.2765C39.0112 35.6925 39.5892 34.3103 40.0105 32.746C40.4318 31.182 40.6425 29.6333 40.6425 28.1C40.6425 26.9857 40.5005 25.7823 40.2165 24.49C39.9322 23.1973 39.456 21.9543 38.788 20.761C38.5547 20.3303 38.475 19.8685 38.549 19.3755C38.623 18.8825 38.8665 18.5023 39.2795 18.235C39.6832 17.9463 40.1243 17.8727 40.603 18.014C41.0813 18.1553 41.4245 18.454 41.6325 18.91C42.3842 20.3997 42.9622 21.8847 43.3665 23.365C43.7708 24.8457 44.0023 26.3223 44.061 27.795C44.1197 29.8143 43.9127 31.7223 43.44 33.519C42.967 35.316 42.2747 36.9782 41.363 38.5055C40.9233 39.3198 40.4588 39.8223 39.9695 40.013C39.4805 40.2037 38.874 40.299 38.15 40.299H9.6C8.97767 40.299 8.3675 40.1433 7.7695 39.832C7.17183 39.5207 6.72767 39.0785 6.437 38.5055C5.56233 36.8975 4.88767 35.251 4.413 33.566C3.93833 31.8813 3.701 30.0923 3.701 28.199C3.701 25.393 4.23233 22.7495 5.295 20.2685C6.35767 17.7875 7.80333 15.622 9.632 13.772C11.4607 11.922 13.6055 10.454 16.0665 9.368C18.5275 8.282 21.1387 7.739 23.9 7.739Z" fill="var(--fill-0, #2DA2DB)"/>
</g>
</svg>
