<svg preserveAspectRatio="none" width="100%" height="100%" overflow="visible" style="display: block;" viewBox="0 0 48 48" fill="none" xmlns="http://www.w3.org/2000/svg">
<g id="train-front-tunnel">
<path id="Vector" d="M4 44V24C4 18.6957 6.10714 13.6086 9.85786 9.85786C13.6086 6.10714 18.6957 4 24 4C29.3043 4 34.3914 6.10714 38.1421 9.85786C41.8929 13.6086 44 18.6957 44 24V44M30 13.5996V16.3996C30 17.8848 29.3679 19.3092 28.2426 20.3594C27.1174 21.4096 25.5913 21.9996 24 21.9996C22.4087 21.9996 20.8826 21.4096 19.7574 20.3594C18.6321 19.3092 18 17.8848 18 16.3996V13.5996M20 30H20.02M28 30H28.02M18 38L14 44M30 38L34 44M20 38C17.8783 38 15.8434 37.1571 14.3431 35.6569C12.8429 34.1566 12 32.1217 12 30V24C12 20.8174 13.2643 17.7652 15.5147 15.5147C17.7652 13.2643 20.8174 12 24 12C27.1826 12 30.2348 13.2643 32.4853 15.5147C34.7357 17.7652 36 20.8174 36 24V30C36 32.1217 35.1571 34.1566 33.6569 35.6569C32.1566 37.1571 30.1217 38 28 38H20Z" stroke="var(--stroke-0, #2DA2DB)" stroke-width="3" stroke-linecap="round" stroke-linejoin="round"/>
</g>
</svg>
