<svg width="100%" height="100%" overflow="visible" style="display: block;" viewBox="0 0 48 30.0306" fill="none" xmlns="http://www.w3.org/2000/svg">
<g id="Group">
<path id="Vector" d="M12.0736 18.1809C14.9319 18.1809 17.2494 20.498 17.2493 23.3567C17.2491 26.2139 14.9319 28.5305 12.0736 28.5305C9.21588 28.5305 6.89895 26.214 6.89875 23.3567C6.89875 20.4979 9.21593 18.1809 12.0736 18.1809ZM12.0736 19.0403C9.68991 19.0403 7.75715 20.973 7.75715 23.3567C7.7573 25.7398 9.6902 27.6721 12.0736 27.6721C14.4577 27.6721 16.3898 25.7397 16.39 23.3567C16.39 20.9732 14.458 19.0403 12.0736 19.0403Z" stroke="var(--stroke-0, #2DA2DB)" stroke-width="3"/>
<path id="Vector_2" d="M36.4169 16.6809C32.7302 16.6809 29.7421 19.6691 29.7421 23.3563C29.7421 27.0424 32.7302 30.0306 36.4169 30.0306C40.1035 30.0306 43.0917 27.0424 43.0917 23.3563C43.0917 19.6691 40.1035 16.6809 36.4169 16.6809ZM36.4169 26.172C34.8617 26.172 33.6007 24.9111 33.6007 23.3564C33.6007 21.8012 34.8617 20.5402 36.4169 20.5402C37.9722 20.5402 39.2337 21.8012 39.2337 23.3564C39.2338 24.9111 37.9722 26.172 36.4169 26.172Z" fill="var(--fill-0, #2DA2DB)"/>
<path id="Vector_3" d="M46.872 10.986L43.4169 6.74995C42.4657 5.58397 41.0409 4.90784 39.536 4.90784H30.921V12.1718H28.9566V11.5833V3.7294V3.14083H37.399V0H25.4227V3.14092V3.72949H0V12.1719L15.8882 15.1874C18.964 16.6291 21.1047 19.7464 21.1047 23.3623C21.1047 23.4287 21.0959 23.492 21.0953 23.5579H27.3958C27.3951 23.4921 27.3858 23.4287 27.3858 23.3623C27.3858 18.3824 31.4375 14.3307 36.4168 14.3307C40.928 14.3307 44.6661 17.659 45.331 21.987H46.3306C47.2525 21.987 48 21.2396 48 20.3176V14.1513C48.0001 12.9976 47.6016 11.8794 46.872 10.986ZM8.41998 11.3442L5.30017 11.0568V6.08554H8.41998V11.3442ZM15.3407 12.5754L12.2209 12.2867V6.08554H15.3407V12.5754ZM22.2608 13.8127L19.141 13.5247V6.08563H22.2608V13.8127ZM34.5723 11.6609V7.73395H39.654C40.0991 7.73395 40.5151 7.93139 40.7964 8.27592L43.5574 11.6609H34.5723Z" fill="var(--fill-0, #2DA2DB)"/>
</g>
</svg>
