<svg preserveAspectRatio="none" width="100%" height="100%" overflow="visible" style="display: block;" viewBox="0 0 48 48" fill="none" xmlns="http://www.w3.org/2000/svg">
<g id="water_ec">
<path id="Vector" d="M22.5 27.5V34.5035C22.5 34.9258 22.6988 35.2033 23.0965 35.336C23.4945 35.4687 23.8095 35.361 24.0415 35.013L30.1925 25.8055C30.3832 25.5068 30.3935 25.2147 30.2235 24.929C30.0535 24.643 29.7985 24.5 29.4585 24.5H25.5V17.485C25.5 17.0703 25.3012 16.7967 24.9035 16.664C24.5055 16.5313 24.1905 16.639 23.9585 16.987L17.8075 26.1825C17.6168 26.4892 17.6065 26.7853 17.7765 27.071C17.9465 27.357 18.2055 27.5 18.5535 27.5H22.5ZM24 44.299C19.3457 44.299 15.4657 42.7043 12.36 39.515C9.254 36.326 7.701 32.3543 7.701 27.6C7.701 25.5463 8.1545 23.4955 9.0615 21.4475C9.96817 19.3992 11.1307 17.4063 12.549 15.469C13.967 13.5317 15.5357 11.6835 17.255 9.9245C18.974 8.1655 20.6545 6.55233 22.2965 5.085C22.5618 4.861 22.8355 4.70133 23.1175 4.606C23.3992 4.51067 23.6933 4.463 24 4.463C24.3067 4.463 24.6008 4.51067 24.8825 4.606C25.1645 4.70133 25.4382 4.861 25.7035 5.085C27.3455 6.55233 29.026 8.1655 30.745 9.9245C32.4643 11.6835 34.033 13.5317 35.451 15.469C36.8693 17.4063 38.0338 19.3992 38.9445 21.4475C39.8555 23.4955 40.311 25.5463 40.311 27.6C40.311 32.3543 38.756 36.326 35.646 39.515C32.5363 42.7043 28.6543 44.299 24 44.299ZM24 40.8925C27.7013 40.8925 30.7755 39.6275 33.2225 37.0975C35.6692 34.5672 36.8925 31.4013 36.8925 27.6C36.8925 25.0067 35.7942 22.0528 33.5975 18.7385C31.4005 15.4245 28.2013 11.8968 24 8.1555C19.7987 11.8968 16.5995 15.4245 14.4025 18.7385C12.2058 22.0528 11.1075 25.0067 11.1075 27.6C11.1075 31.4013 12.3308 34.5672 14.7775 37.0975C17.2245 39.6275 20.2987 40.8925 24 40.8925Z" fill="var(--fill-0, #2DA2DB)"/>
</g>
</svg>
