<svg preserveAspectRatio="none" width="100%" height="100%" overflow="visible" style="display: block;" viewBox="0 0 20 20" fill="none" xmlns="http://www.w3.org/2000/svg">
<g id="boxes">
<path id="Vector" d="M10 15.8333L6.69167 17.8167C6.43245 17.9724 6.13574 18.0547 5.83333 18.0547C5.53093 18.0547 5.23422 17.9724 4.975 17.8167L2.475 16.3167C2.22896 16.1689 2.02527 15.96 1.88366 15.7103C1.74204 15.4607 1.6673 15.1787 1.66667 14.8917V12.1917C1.6673 11.9046 1.74204 11.6226 1.88366 11.373C2.02527 11.1233 2.22896 10.9145 2.475 10.7667L5.83333 8.75M10 15.8333V11.25M10 15.8333L13.3083 17.8167C13.5676 17.9724 13.8643 18.0547 14.1667 18.0547C14.4691 18.0547 14.7658 17.9724 15.025 17.8167L17.525 16.3167C17.771 16.1689 17.9747 15.96 18.1163 15.7103C18.258 15.4607 18.3327 15.1787 18.3333 14.8917V12.1917C18.3327 11.9046 18.258 11.6226 18.1163 11.373C17.9747 11.1233 17.771 10.9145 17.525 10.7667L14.1667 8.75M10 11.25L5.83333 8.75M10 11.25L5.83334 13.7499M10 11.25L14.1667 8.75M10 11.25L14.1667 13.75M10 11.25L10 6.66659M5.83333 8.75V5.10841C5.83396 4.82139 5.90871 4.53939 6.05032 4.28973C6.19194 4.04008 6.39563 3.83123 6.64167 3.68341L9.14167 2.18341C9.40089 2.02767 9.69759 1.94539 10 1.94539C10.3024 1.94539 10.5991 2.02767 10.8583 2.18341L13.3583 3.68341C13.6044 3.83123 13.8081 4.04008 13.9497 4.28973C14.0913 4.53939 14.166 4.82139 14.1667 5.10841V8.75M5.83334 13.7499L1.88334 11.3749M5.83334 13.7499L5.83333 18.0583M14.1667 13.75L18.1167 11.3749M14.1667 13.75V18.0583M10 6.66659L6.05001 4.29159M10 6.66659L13.95 4.29159" stroke="var(--stroke-0, #1E729C)" stroke-width="1.5" stroke-linecap="round" stroke-linejoin="round"/>
</g>
</svg>
