<svg width="48" height="48" viewBox="0 0 48 48" fill="none" xmlns="http://www.w3.org/2000/svg">
<mask id="path-1-inside-1_12545_15565" fill="white">
<path d="M20.8825 44.2994C20.3842 44.2994 19.9417 44.1435 19.555 43.8315C19.1683 43.5195 18.9417 43.1141 18.875 42.6155L18.125 37.904C17.5393 37.6943 16.9145 37.3995 16.2505 37.0195C15.5865 36.6395 15.0077 36.2486 14.514 35.847L10.226 37.847C9.73534 38.055 9.24084 38.082 8.7425 37.928C8.24384 37.774 7.85717 37.4645 7.5825 36.9995L4.515 31.4885C4.23267 31.0391 4.15183 30.5673 4.2725 30.073C4.39317 29.5783 4.66533 29.173 5.089 28.857L9.077 25.907C9.01833 25.631 8.98067 25.3133 8.964 24.954C8.94733 24.5943 8.939 24.2765 8.939 24.0005C8.939 23.7245 8.94733 23.4066 8.964 23.047C8.98067 22.6876 9.01833 22.37 9.077 22.094L5.089 19.156C4.65733 18.84 4.38317 18.4346 4.2665 17.94C4.14983 17.4456 4.23267 16.9698 4.515 16.5125L7.5825 11.0015C7.85717 10.5521 8.24183 10.2465 8.7365 10.0845C9.23117 9.92278 9.72367 9.94595 10.214 10.154L14.538 12.154C15.0237 11.7603 15.5965 11.3755 16.2565 10.9995C16.9165 10.6235 17.5393 10.3433 18.125 10.159L18.875 5.39695C18.9417 4.89062 19.1683 4.47945 19.555 4.16345C19.9417 3.84745 20.3842 3.68945 20.8825 3.68945H27.1175C27.6158 3.68945 28.0583 3.84745 28.445 4.16345C28.8317 4.47945 29.0583 4.89062 29.125 5.39695L29.875 10.109C30.4607 10.3266 31.0918 10.6151 31.7685 10.9745C32.4452 11.3338 33.0177 11.727 33.486 12.154L37.774 10.154C38.2647 9.94595 38.7508 9.92278 39.2325 10.0845C39.7145 10.2465 40.0928 10.5521 40.3675 11.0015L43.4965 16.5125C43.7712 16.9698 43.8502 17.454 43.7335 17.965C43.6168 18.4763 43.3427 18.8733 42.911 19.156L38.911 21.994C38.9697 22.3033 39.0093 22.6376 39.03 22.997C39.0507 23.3566 39.061 23.6911 39.061 24.0005C39.061 24.3098 39.0507 24.636 39.03 24.979C39.0093 25.3216 38.9697 25.6476 38.911 25.957L42.911 28.845C43.3427 29.1276 43.6168 29.5246 43.7335 30.0359C43.8502 30.5469 43.7712 31.0311 43.4965 31.4885L40.4175 36.9995C40.1428 37.4568 39.7582 37.7643 39.2635 37.922C38.7688 38.08 38.2763 38.055 37.786 37.847L33.474 35.847C32.9803 36.2486 32.4118 36.6458 31.7685 37.0385C31.1252 37.4311 30.494 37.7196 29.875 37.904L29.125 42.6155C29.0583 43.1141 28.8317 43.5195 28.445 43.8315C28.0583 44.1435 27.6158 44.2994 27.1175 44.2994H20.8825ZM21.8955 40.893H26.0925L26.8045 35.305C27.9125 35.0383 28.964 34.6216 29.959 34.055C30.9543 33.4883 31.852 32.793 32.652 31.969L37.952 34.269L39.8445 30.8245L35.1685 27.3985C35.3018 26.8238 35.4122 26.2575 35.4995 25.6995C35.5868 25.1415 35.6305 24.5751 35.6305 24.0005C35.6305 23.4258 35.5952 22.8595 35.5245 22.3015C35.4538 21.7435 35.3352 21.1771 35.1685 20.6025L39.8565 17.1765L37.952 13.732L32.664 16.032C31.8973 15.1493 31.0227 14.4103 30.04 13.815C29.0577 13.2196 27.9792 12.8426 26.8045 12.684L26.1045 7.10795H21.8955L21.2075 12.684C20.0582 12.9093 18.984 13.3113 17.985 13.89C16.9857 14.4686 16.0987 15.1826 15.324 16.032L10.048 13.732L8.1435 17.1765L12.8075 20.5905C12.6742 21.1651 12.5638 21.7335 12.4765 22.2955C12.3892 22.8575 12.3455 23.4258 12.3455 24.0005C12.3455 24.5751 12.3892 25.1455 12.4765 25.7115C12.5638 26.2775 12.6742 26.8438 12.8075 27.4105L8.1435 30.8245L10.048 34.269L15.324 31.969C16.132 32.785 17.0357 33.4803 18.035 34.055C19.034 34.6296 20.0915 35.0503 21.2075 35.317L21.8955 40.893ZM23.976 30.5005C25.776 30.5005 27.3093 29.8671 28.576 28.6005C29.8427 27.3338 30.476 25.8005 30.476 24.0005C30.476 22.2005 29.8427 20.6671 28.576 19.4005C27.3093 18.1338 25.776 17.5005 23.976 17.5005C22.176 17.5005 20.6427 18.1338 19.376 19.4005C18.1093 20.6671 17.476 22.2005 17.476 24.0005C17.476 25.8005 18.1093 27.3338 19.376 28.6005C20.6427 29.8671 22.176 30.5005 23.976 30.5005Z"/>
</mask>
<path d="M20.8825 44.2994C20.3842 44.2994 19.9417 44.1435 19.555 43.8315C19.1683 43.5195 18.9417 43.1141 18.875 42.6155L18.125 37.904C17.5393 37.6943 16.9145 37.3995 16.2505 37.0195C15.5865 36.6395 15.0077 36.2486 14.514 35.847L10.226 37.847C9.73534 38.055 9.24084 38.082 8.7425 37.928C8.24384 37.774 7.85717 37.4645 7.5825 36.9995L4.515 31.4885C4.23267 31.0391 4.15183 30.5673 4.2725 30.073C4.39317 29.5783 4.66533 29.173 5.089 28.857L9.077 25.907C9.01833 25.631 8.98067 25.3133 8.964 24.954C8.94733 24.5943 8.939 24.2765 8.939 24.0005C8.939 23.7245 8.94733 23.4066 8.964 23.047C8.98067 22.6876 9.01833 22.37 9.077 22.094L5.089 19.156C4.65733 18.84 4.38317 18.4346 4.2665 17.94C4.14983 17.4456 4.23267 16.9698 4.515 16.5125L7.5825 11.0015C7.85717 10.5521 8.24183 10.2465 8.7365 10.0845C9.23117 9.92278 9.72367 9.94595 10.214 10.154L14.538 12.154C15.0237 11.7603 15.5965 11.3755 16.2565 10.9995C16.9165 10.6235 17.5393 10.3433 18.125 10.159L18.875 5.39695C18.9417 4.89062 19.1683 4.47945 19.555 4.16345C19.9417 3.84745 20.3842 3.68945 20.8825 3.68945H27.1175C27.6158 3.68945 28.0583 3.84745 28.445 4.16345C28.8317 4.47945 29.0583 4.89062 29.125 5.39695L29.875 10.109C30.4607 10.3266 31.0918 10.6151 31.7685 10.9745C32.4452 11.3338 33.0177 11.727 33.486 12.154L37.774 10.154C38.2647 9.94595 38.7508 9.92278 39.2325 10.0845C39.7145 10.2465 40.0928 10.5521 40.3675 11.0015L43.4965 16.5125C43.7712 16.9698 43.8502 17.454 43.7335 17.965C43.6168 18.4763 43.3427 18.8733 42.911 19.156L38.911 21.994C38.9697 22.3033 39.0093 22.6376 39.03 22.997C39.0507 23.3566 39.061 23.6911 39.061 24.0005C39.061 24.3098 39.0507 24.636 39.03 24.979C39.0093 25.3216 38.9697 25.6476 38.911 25.957L42.911 28.845C43.3427 29.1276 43.6168 29.5246 43.7335 30.0359C43.8502 30.5469 43.7712 31.0311 43.4965 31.4885L40.4175 36.9995C40.1428 37.4568 39.7582 37.7643 39.2635 37.922C38.7688 38.08 38.2763 38.055 37.786 37.847L33.474 35.847C32.9803 36.2486 32.4118 36.6458 31.7685 37.0385C31.1252 37.4311 30.494 37.7196 29.875 37.904L29.125 42.6155C29.0583 43.1141 28.8317 43.5195 28.445 43.8315C28.0583 44.1435 27.6158 44.2994 27.1175 44.2994H20.8825ZM21.8955 40.893H26.0925L26.8045 35.305C27.9125 35.0383 28.964 34.6216 29.959 34.055C30.9543 33.4883 31.852 32.793 32.652 31.969L37.952 34.269L39.8445 30.8245L35.1685 27.3985C35.3018 26.8238 35.4122 26.2575 35.4995 25.6995C35.5868 25.1415 35.6305 24.5751 35.6305 24.0005C35.6305 23.4258 35.5952 22.8595 35.5245 22.3015C35.4538 21.7435 35.3352 21.1771 35.1685 20.6025L39.8565 17.1765L37.952 13.732L32.664 16.032C31.8973 15.1493 31.0227 14.4103 30.04 13.815C29.0577 13.2196 27.9792 12.8426 26.8045 12.684L26.1045 7.10795H21.8955L21.2075 12.684C20.0582 12.9093 18.984 13.3113 17.985 13.89C16.9857 14.4686 16.0987 15.1826 15.324 16.032L10.048 13.732L8.1435 17.1765L12.8075 20.5905C12.6742 21.1651 12.5638 21.7335 12.4765 22.2955C12.3892 22.8575 12.3455 23.4258 12.3455 24.0005C12.3455 24.5751 12.3892 25.1455 12.4765 25.7115C12.5638 26.2775 12.6742 26.8438 12.8075 27.4105L8.1435 30.8245L10.048 34.269L15.324 31.969C16.132 32.785 17.0357 33.4803 18.035 34.055C19.034 34.6296 20.0915 35.0503 21.2075 35.317L21.8955 40.893ZM23.976 30.5005C25.776 30.5005 27.3093 29.8671 28.576 28.6005C29.8427 27.3338 30.476 25.8005 30.476 24.0005C30.476 22.2005 29.8427 20.6671 28.576 19.4005C27.3093 18.1338 25.776 17.5005 23.976 17.5005C22.176 17.5005 20.6427 18.1338 19.376 19.4005C18.1093 20.6671 17.476 22.2005 17.476 24.0005C17.476 25.8005 18.1093 27.3338 19.376 28.6005C20.6427 29.8671 22.176 30.5005 23.976 30.5005Z" stroke="#2DA2DB" stroke-width="6" mask="url(#path-1-inside-1_12545_15565)"/>
</svg>
