<svg width="18" height="18" viewBox="0 0 18 18" fill="none" xmlns="http://www.w3.org/2000/svg">
<path d="M6.45652 8.60786L7.89131 10.0426L10.7609 7.17307M14.3478 9.32522C14.3478 12.9122 11.837 14.7057 8.85261 15.7459C8.69634 15.7988 8.52658 15.7963 8.37196 15.7387C5.38044 14.7057 2.86957 12.9122 2.86957 9.32522V4.30348C2.86957 4.11322 2.94515 3.93075 3.07969 3.79621C3.21422 3.66167 3.3967 3.58609 3.58696 3.58609C5.02174 3.58609 6.81522 2.72522 8.06348 1.63479C8.21546 1.50494 8.4088 1.43359 8.6087 1.43359C8.8086 1.43359 9.00193 1.50494 9.15392 1.63479C10.4094 2.73239 12.1957 3.58609 13.6304 3.58609C13.8207 3.58609 14.0032 3.66167 14.1377 3.79621C14.2722 3.93075 14.3478 4.11322 14.3478 4.30348V9.32522Z" stroke="#2DA2DB" stroke-width="1.43478" stroke-linecap="round" stroke-linejoin="round"/>
</svg>
