<svg width="18" height="18" viewBox="0 0 18 18" fill="none" xmlns="http://www.w3.org/2000/svg">
<g clip-path="url(#clip0_10684_9029)">
<path d="M14.8211 6.92368C14.9327 6.61565 14.9892 6.29215 14.9892 5.95924C14.9892 4.39286 13.7147 3.11837 12.1483 3.11837C11.9896 3.11837 11.8316 3.13115 11.6769 3.15738C11.2955 2.26826 10.5497 1.57553 9.6229 1.26683C7.84131 0.672962 5.90838 1.63942 5.31317 3.42236C5.30914 3.43313 5.30578 3.44456 5.30174 3.45532C4.82086 3.65574 4.42944 4.00009 4.16916 4.42783C3.13141 4.23616 2.0486 4.59395 1.33367 5.38824C0.786211 5.99623 0.507773 6.7811 0.550816 7.59758C0.593187 8.41406 0.951659 9.16531 1.55898 9.71277C1.75469 9.88898 1.96856 10.0376 2.1979 10.1567C2.04927 10.7021 2.12123 11.2892 2.41043 11.7896C2.69694 12.2853 3.15898 12.6404 3.71182 12.7884C3.89677 12.8381 4.08442 12.8623 4.27071 12.8623C4.64196 12.8623 5.00851 12.7648 5.33873 12.5745C5.59766 12.4245 5.82432 12.218 6.00321 11.9705H8.1379C8.36052 11.9705 8.54144 11.7896 8.54144 11.567C8.54144 11.3444 8.36052 11.1635 8.1379 11.1635H5.78396C5.63869 11.1635 5.50485 11.2415 5.43356 11.3672C5.3125 11.5791 5.13562 11.7593 4.9352 11.8757C4.62582 12.0539 4.26601 12.101 3.92099 12.0089C3.57597 11.9167 3.28811 11.6955 3.10921 11.3861C2.88458 10.9967 2.87079 10.5241 3.07155 10.121C3.1302 10.0033 3.1339 9.86476 3.08816 9.76792C3.04243 9.67039 2.94713 9.59641 2.84624 9.5601C2.5705 9.4619 2.31963 9.31192 2.09971 9.11352C1.65179 8.70999 1.38815 8.15715 1.35654 7.55521C1.32493 6.95395 1.53006 6.37622 1.93359 5.9283C2.42455 5.38353 3.15091 5.11855 3.86584 5.19993C3.83355 5.35865 3.8154 5.52275 3.8154 5.69022C3.8154 6.86719 4.64331 7.84575 5.7611 8.06635C5.82028 9.20902 6.72487 10.0874 7.86888 10.0874H10.8954C11.7139 10.0874 12.379 10.2145 12.379 11.0316V10.8944H13.1861V11.0316C13.1861 9.76926 12.1584 9.28031 10.8954 9.28031H7.86888C7.13781 9.28031 6.5648 8.69452 6.5648 7.94664V7.70788C6.5648 7.49065 6.3933 7.31242 6.17673 7.30435C5.3051 7.27207 4.62246 6.56319 4.62246 5.69022C4.62246 4.98067 5.07711 4.36125 5.7537 4.1494C5.88754 4.10703 5.98976 3.99874 6.02406 3.86289C6.03886 3.8037 6.05769 3.74048 6.07921 3.67659C6.53319 2.31669 8.0081 1.57957 9.368 2.03287C10.1677 2.2992 10.7911 2.94014 11.0346 3.74855C11.0655 3.85213 11.1368 3.93821 11.2317 3.98866C11.3272 4.0391 11.4388 4.04986 11.5417 4.0169C11.7361 3.95637 11.9405 3.92544 12.1483 3.92544C13.2702 3.92544 14.1821 4.83742 14.1821 5.95924C14.1821 6.14621 14.1573 6.32914 14.1082 6.50535C13.8028 6.38497 13.4699 6.31906 13.1195 6.31906H12.7382C12.3656 5.32771 11.2989 4.74662 10.2437 5.00556C9.78499 5.11922 9.38751 5.37344 9.09427 5.74133C8.95573 5.91552 8.98465 6.16975 9.15884 6.3083C9.33303 6.44751 9.58726 6.41859 9.7258 6.2444C9.90672 6.01708 10.1529 5.8597 10.4374 5.78908C11.1422 5.61624 11.8586 6.04815 12.0293 6.7542C12.0912 7.01044 12.2531 7.12612 12.4463 7.12612H13.1195C14.2104 7.12612 15.0652 8.04281 15.0652 9.21306V10.3564H15.8723V9.21306C15.8723 8.27148 15.4647 7.44895 14.8211 6.92368ZM9.95676 11.5712L16.6793 11.029V13.8537H15.8723V16.0059H10.7609V13.8537H9.9538L9.95676 11.5712Z" fill="#F4813E"/>
</g>
<defs>
<clipPath id="clip0_10684_9029">
<rect width="17.2174" height="17.2174" fill="white"/>
</clipPath>
</defs>
</svg>
