<svg width="16" height="16" viewBox="0 0 16 16" fill="none" xmlns="http://www.w3.org/2000/svg">
<path d="M10 1.3335H6.00001C5.63182 1.3335 5.33334 1.63197 5.33334 2.00016V3.3335C5.33334 3.70169 5.63182 4.00016 6.00001 4.00016H10C10.3682 4.00016 10.6667 3.70169 10.6667 3.3335V2.00016C10.6667 1.63197 10.3682 1.3335 10 1.3335Z" stroke="#2DA2DB" stroke-width="0.75" stroke-linecap="round" stroke-linejoin="round"/>
<path d="M10.6667 2.6665H12C12.3536 2.6665 12.6928 2.80698 12.9428 3.05703C13.1928 3.30708 13.3333 3.64622 13.3333 3.99984V13.3332C13.3333 13.6868 13.1928 14.0259 12.9428 14.276C12.6928 14.526 12.3536 14.6665 12 14.6665H3.99999C3.64637 14.6665 3.30723 14.526 3.05718 14.276C2.80713 14.0259 2.66666 13.6868 2.66666 13.3332V3.99984C2.66666 3.64622 2.80713 3.30708 3.05718 3.05703C3.30723 2.80698 3.64637 2.6665 3.99999 2.6665H5.33332" stroke="#2DA2DB" stroke-width="0.75" stroke-linecap="round" stroke-linejoin="round"/>
<path d="M8 7.3335H10.6667" stroke="#2DA2DB" stroke-width="0.75" stroke-linecap="round" stroke-linejoin="round"/>
<path d="M8 10.6665H10.6667" stroke="#2DA2DB" stroke-width="0.75" stroke-linecap="round" stroke-linejoin="round"/>
<path d="M5.33334 7.3335H5.34001" stroke="#2DA2DB" stroke-width="0.75" stroke-linecap="round" stroke-linejoin="round"/>
<path d="M5.33334 10.6665H5.34001" stroke="#2DA2DB" stroke-width="0.75" stroke-linecap="round" stroke-linejoin="round"/>
</svg>
