<svg preserveAspectRatio="none" width="100%" height="100%" overflow="visible" style="display: block;" viewBox="0 0 24 24" fill="none" xmlns="http://www.w3.org/2000/svg">
<g id="background_replace">
<g id="Vector">
<mask id="path-1-inside-1_0_31" fill="white">
<path d="M2.9505 10.8445V8.52225L8.75975 2.713H11.076L2.9505 10.8445ZM2.8505 6.49125V4.438L4.5755 2.713H6.62875L2.8505 6.49125ZM16.438 6.23375C16.2593 6.02242 16.0734 5.82033 15.8803 5.6275C15.6869 5.4345 15.4739 5.26142 15.2413 5.10825L17.6425 2.713H19.9467V2.725L16.438 6.23375ZM5.5 14.8495L7.2935 13.056C7.40217 13.2273 7.514 13.383 7.629 13.523C7.74417 13.6632 7.87275 13.7959 8.01475 13.9213L7.53975 14.0463C7.18825 14.1549 6.84708 14.2782 6.51625 14.4162C6.18542 14.5542 5.84667 14.6987 5.5 14.8495ZM17.6352 9.50275C17.6472 9.46292 17.6562 9.42108 17.6622 9.37725C17.6682 9.33342 17.6712 9.28958 17.6712 9.24575C17.6379 8.94975 17.5889 8.662 17.5242 8.3825C17.4596 8.10317 17.3626 7.83017 17.2333 7.5635L21.1555 3.64125V5.9885L17.6352 9.50275ZM11.8268 4.0875L13.201 2.713H15.5175L13.8212 4.40325C13.5187 4.29992 13.2193 4.2235 12.923 4.174C12.6268 4.12433 12.3192 4.0995 12 4.0995C11.97 4.0995 11.9421 4.0985 11.9163 4.0965C11.8906 4.0945 11.8608 4.0915 11.8268 4.0875ZM2.8505 15.405V13.0885L6.26675 9.66625C6.27075 9.68758 6.27375 9.71433 6.27575 9.7465C6.27775 9.7785 6.27875 9.80325 6.27875 9.82075C6.27875 10.1399 6.29942 10.4517 6.34075 10.7562C6.38208 11.0607 6.46267 11.3559 6.5825 11.6418L2.8505 15.405ZM19.9413 15.638C19.7573 15.4865 19.5605 15.3634 19.351 15.2687C19.1417 15.1741 18.9322 15.0867 18.7227 15.0065L21.1555 12.574V14.424L19.9413 15.638ZM17.2385 14.3658C17.0552 14.3078 16.8721 14.2456 16.6892 14.1793C16.5062 14.1131 16.3191 14.053 16.1277 13.999C16.4531 13.7077 16.7222 13.3747 16.9352 13C17.1484 12.6253 17.324 12.2257 17.462 11.801L21.1555 8.1135V10.449L17.2385 14.3658ZM12 13.97C10.8562 13.97 9.87867 13.5644 9.0675 12.7533C8.25617 11.9421 7.8505 10.9646 7.8505 9.82075C7.8505 8.67692 8.25617 7.69833 9.0675 6.885C9.87867 6.07183 10.8562 5.66525 12 5.66525C13.1438 5.66525 14.1223 6.07183 14.9355 6.885C15.7488 7.69833 16.1555 8.67692 16.1555 9.82075C16.1555 10.9646 15.7488 11.9421 14.9355 12.7533C14.1223 13.5644 13.1438 13.97 12 13.97ZM12 12.2668C12.684 12.2668 13.2628 12.0301 13.7363 11.5567C14.2096 11.0834 14.4462 10.5048 14.4462 9.82075C14.4462 9.13658 14.2096 8.55783 13.7363 8.0845C13.2628 7.61117 12.684 7.3745 12 7.3745C11.316 7.3745 10.7372 7.61117 10.2637 8.0845C9.79042 8.55783 9.55375 9.13658 9.55375 9.82075C9.55375 10.5048 9.79042 11.0834 10.2637 11.5567C10.7372 12.0301 11.316 12.2668 12 12.2668ZM3.8505 20.561V19.3385C3.8505 18.744 3.99917 18.1941 4.2965 17.6887C4.59383 17.1836 5.00642 16.8 5.53425 16.538C6.57008 16.0142 7.6315 15.6219 8.7185 15.3613C9.8055 15.1004 10.8993 14.97 12 14.97C13.1007 14.97 14.1945 15.0994 15.2815 15.3582C16.3685 15.6169 17.4299 16.0062 18.4657 16.526C18.9936 16.792 19.4072 17.1777 19.7065 17.683C20.0058 18.1882 20.1555 18.74 20.1555 19.3385V20.561C20.1555 20.8055 20.0737 21.0085 19.91 21.17C19.7465 21.3317 19.5424 21.4125 19.2977 21.4125H4.70225C4.45758 21.4125 4.2545 21.3317 4.093 21.17C3.93133 21.0085 3.8505 20.8055 3.8505 20.561ZM5.55375 19.7033H18.4523C18.4563 19.3659 18.3967 19.0454 18.2737 18.7417C18.1507 18.4382 17.9436 18.2075 17.6523 18.0495C16.7163 17.6002 15.7772 17.2595 14.8352 17.0275C13.8932 16.7953 12.9482 16.6793 12 16.6793C11.0518 16.6793 10.1077 16.7953 9.16775 17.0275C8.22758 17.2595 7.28958 17.6002 6.35375 18.0495C6.05842 18.2075 5.85025 18.4372 5.72925 18.7387C5.60825 19.0404 5.54975 19.3619 5.55375 19.7033Z"/>
</mask>
<path d="M2.9505 10.8445H0.9505V15.6754L4.36524 12.2582L2.9505 10.8445ZM2.9505 8.52225L1.53629 7.10804L0.9505 7.69382V8.52225H2.9505ZM8.75975 2.713V0.713H7.93132L7.34554 1.29879L8.75975 2.713ZM11.076 2.713L12.4907 4.12669L15.9019 0.713H11.076V2.713ZM2.8505 6.49125H0.8505V11.3197L4.26471 7.90546L2.8505 6.49125ZM2.8505 4.438L1.43629 3.02379L0.8505 3.60957V4.438H2.8505ZM4.5755 2.713V0.713H3.74707L3.16129 1.29879L4.5755 2.713ZM6.62875 2.713L8.04296 4.12721L11.4572 0.713H6.62875V2.713ZM16.438 6.23375L14.9107 7.52499L16.3146 9.18558L17.8522 7.64796L16.438 6.23375ZM15.8802 5.6275L14.4673 7.04293L14.4673 7.04293L15.8802 5.6275ZM15.2413 5.10825L13.8288 3.69227L12.0891 5.42763L14.1415 6.77877L15.2413 5.10825ZM17.6425 2.713V0.713H16.8155L16.2301 1.29702L17.6425 2.713ZM19.9468 2.713H21.9468V0.713H19.9468V2.713ZM19.9468 2.725L21.361 4.13921L21.9468 3.55343V2.725H19.9468ZM5.5 14.8495L4.08579 13.4353L6.29794 16.6834L5.5 14.8495ZM7.2935 13.056L8.98244 11.9848L7.645 9.87607L5.87929 11.6418L7.2935 13.056ZM7.629 13.523L6.08355 14.7925L6.08371 14.7927L7.629 13.523ZM8.01475 13.9213L8.52374 15.8554L12.1479 14.9017L9.33823 12.4218L8.01475 13.9213ZM7.53975 14.0463L7.03076 12.1121L6.98965 12.1229L6.94903 12.1355L7.53975 14.0463ZM17.6352 9.50275L15.7203 8.92585L19.0483 10.9182L17.6352 9.50275ZM17.6712 9.24575H19.6712V9.13349L19.6587 9.02194L17.6712 9.24575ZM17.5242 8.3825L19.4728 7.93168L19.4727 7.93142L17.5242 8.3825ZM17.2333 7.5635L15.819 6.14929L14.8126 7.15568L15.4337 8.43627L17.2333 7.5635ZM21.1555 3.64125H23.1555V-1.18718L19.7413 2.22704L21.1555 3.64125ZM21.1555 5.9885L22.5685 7.40392L23.1555 6.81793V5.9885H21.1555ZM11.8268 4.0875L10.4124 2.67342L7.49471 5.59164L11.5931 6.0738L11.8268 4.0875ZM13.201 2.713V0.713H12.3725L11.7867 1.29892L13.201 2.713ZM15.5175 2.713L16.9292 4.12972L20.3581 0.713H15.5175V2.713ZM13.8212 4.40325L13.1747 6.29587L14.3518 6.69797L15.233 5.81997L13.8212 4.40325ZM12.923 4.174L12.5922 6.14646L12.5935 6.14667L12.923 4.174ZM11.9162 4.0965L11.7609 6.09046L11.7619 6.09053L11.9162 4.0965ZM2.8505 15.405H0.8505V20.262L4.2706 16.8133L2.8505 15.405ZM2.8505 13.0885L1.43505 11.6755L0.8505 12.2611V13.0885H2.8505ZM6.26675 9.66625L8.23249 9.29767L7.53297 5.56689L4.8513 8.25328L6.26675 9.66625ZM6.27575 9.7465L4.2796 9.87061L4.27964 9.87126L6.27575 9.7465ZM6.5825 11.6418L8.0026 13.0501L8.94371 12.1011L8.42696 10.8685L6.5825 11.6418ZM19.9412 15.638L18.67 17.182L20.0715 18.3359L21.3553 17.0524L19.9412 15.638ZM19.351 15.2688L18.5269 17.0911L18.5274 17.0913L19.351 15.2688ZM18.7227 15.0065L17.3086 13.5922L15.1282 15.7724L18.008 16.8744L18.7227 15.0065ZM21.1555 12.574H23.1555V7.74592L19.7414 11.1597L21.1555 12.574ZM21.1555 14.424L22.5696 15.8384L23.1555 15.2525V14.424H21.1555ZM17.2385 14.3658L16.6352 16.2726L17.7936 16.6391L18.6527 15.78L17.2385 14.3658ZM16.6892 14.1793L17.3714 12.2992L17.3693 12.2984L16.6892 14.1793ZM16.1277 13.999L14.7935 12.5091L12.0836 14.9358L15.5845 15.9238L16.1277 13.999ZM16.9352 13L15.1969 12.011L15.1966 12.0116L16.9352 13ZM17.462 11.801L16.0489 10.3856L15.7086 10.7255L15.5599 11.1829L17.462 11.801ZM21.1555 8.1135H23.1555V3.29062L19.7424 6.69814L21.1555 8.1135ZM21.1555 10.449L22.5697 11.8633L23.1555 11.2775V10.449H21.1555ZM9.0675 12.7533L10.4817 11.339L10.4816 11.3389L9.0675 12.7533ZM9.0675 6.885L10.4835 8.29747L10.4835 8.29747L9.0675 6.885ZM14.9355 12.7533L13.5232 11.3372L13.523 11.3373L14.9355 12.7533ZM13.7363 11.5567L15.1502 12.9712L15.1505 12.971L13.7363 11.5567ZM13.7363 8.0845L15.1505 6.67029L15.1502 6.67004L13.7363 8.0845ZM10.2637 8.0845L8.84979 6.67004L8.84954 6.67029L10.2637 8.0845ZM10.2637 11.5567L8.84954 12.971L8.84979 12.9712L10.2637 11.5567ZM4.2965 17.6887L2.57289 16.6743L2.57275 16.6745L4.2965 17.6887ZM5.53425 16.538L6.42347 18.3294L6.43016 18.3261L6.43682 18.3228L5.53425 16.538ZM8.7185 15.3612L9.18488 17.3061L9.18517 17.306L8.7185 15.3612ZM15.2815 15.3582L14.8182 17.3039L14.8185 17.3039L15.2815 15.3582ZM18.4657 16.526L19.3658 14.74L19.3628 14.7385L18.4657 16.526ZM19.7065 17.683L17.9857 18.7023L17.9859 18.7025L19.7065 17.683ZM19.91 21.17L18.5052 19.7464L18.5038 19.7478L19.91 21.17ZM4.093 21.17L5.50794 19.7565L5.50648 19.7551L4.093 21.17ZM5.55375 19.7032L3.55389 19.7267L3.57705 21.7032H5.55375V19.7032ZM18.4523 19.7032V21.7032H20.4287L20.4521 19.727L18.4523 19.7032ZM18.2738 18.7417L20.1275 17.9909L20.1273 17.9906L18.2738 18.7417ZM17.6523 18.0495L18.6057 16.2914L18.5623 16.2679L18.5178 16.2465L17.6523 18.0495ZM14.8352 17.0275L14.3566 18.9694L14.357 18.9695L14.8352 17.0275ZM9.16775 17.0275L9.64691 18.9693L9.64731 18.9692L9.16775 17.0275ZM6.35375 18.0495L5.48808 16.2466L5.44876 16.2654L5.4103 16.286L6.35375 18.0495ZM5.72925 18.7387L3.87315 17.9938L3.873 17.9942L5.72925 18.7387ZM2.9505 10.8445H4.9505V8.52225H2.9505H0.9505V10.8445H2.9505ZM2.9505 8.52225L4.36471 9.93646L10.174 4.12721L8.75975 2.713L7.34554 1.29879L1.53629 7.10804L2.9505 8.52225ZM8.75975 2.713V4.713H11.076V2.713V0.713H8.75975V2.713ZM11.076 2.713L9.66127 1.29931L1.53576 9.43081L2.9505 10.8445L4.36524 12.2582L12.4907 4.12669L11.076 2.713ZM2.8505 6.49125H4.8505V4.438H2.8505H0.8505V6.49125H2.8505ZM2.8505 4.438L4.26471 5.85221L5.98971 4.12721L4.5755 2.713L3.16129 1.29879L1.43629 3.02379L2.8505 4.438ZM4.5755 2.713V4.713H6.62875V2.713V0.713H4.5755V2.713ZM6.62875 2.713L5.21454 1.29879L1.43629 5.07704L2.8505 6.49125L4.26471 7.90546L8.04296 4.12721L6.62875 2.713ZM16.438 6.23375L17.9653 4.94251C17.7508 4.68879 17.5268 4.44522 17.2932 4.21206L15.8802 5.6275L14.4673 7.04293C14.62 7.19545 14.7679 7.35605 14.9107 7.52499L16.438 6.23375ZM15.8802 5.6275L17.2932 4.21207C17.0025 3.92182 16.6842 3.66367 16.341 3.43773L15.2413 5.10825L14.1415 6.77877C14.2637 6.85916 14.3713 6.94718 14.4673 7.04293L15.8802 5.6275ZM15.2413 5.10825L16.6537 6.52423L19.0549 4.12898L17.6425 2.713L16.2301 1.29702L13.8288 3.69227L15.2413 5.10825ZM17.6425 2.713V4.713H19.9468V2.713V0.713H17.6425V2.713ZM19.9468 2.713H17.9467V2.725H19.9468H21.9468V2.713H19.9468ZM19.9468 2.725L18.5325 1.31079L15.0238 4.81954L16.438 6.23375L17.8522 7.64796L21.361 4.13921L19.9468 2.725ZM5.5 14.8495L6.91421 16.2637L8.70771 14.4702L7.2935 13.056L5.87929 11.6418L4.08579 13.4353L5.5 14.8495ZM7.2935 13.056L5.60456 14.1272C5.75186 14.3595 5.911 14.5824 6.08355 14.7925L7.629 13.523L9.17445 12.2535C9.117 12.1836 9.05247 12.0952 8.98244 11.9848L7.2935 13.056ZM7.629 13.523L6.08371 14.7927C6.26947 15.0188 6.47283 15.2279 6.69127 15.4207L8.01475 13.9213L9.33823 12.4218C9.27267 12.3639 9.21886 12.3076 9.17429 12.2533L7.629 13.523ZM8.01475 13.9213L7.50576 11.9871L7.03076 12.1121L7.53975 14.0463L8.04874 15.9804L8.52374 15.8554L8.01475 13.9213ZM7.53975 14.0463L6.94903 12.1355C6.53838 12.2624 6.13733 12.4073 5.74629 12.5704L6.51625 14.4163L7.28621 16.2621C7.55684 16.1492 7.83812 16.0474 8.13047 15.957L7.53975 14.0463ZM6.51625 14.4163L5.74629 12.5704C5.40561 12.7125 5.05752 12.8609 4.70206 13.0156L5.5 14.8495L6.29794 16.6834C6.63581 16.5364 6.96522 16.396 7.28621 16.2621L6.51625 14.4163ZM17.6352 9.50275L19.5502 10.0797C19.5942 9.93376 19.6245 9.78932 19.6438 9.64849L17.6622 9.37725L15.6807 9.10602C15.688 9.05285 15.7003 8.99208 15.7203 8.92585L17.6352 9.50275ZM17.6622 9.37725L19.6438 9.64849C19.662 9.51559 19.6712 9.38114 19.6712 9.24575H17.6712H15.6712C15.6712 9.19803 15.6745 9.15124 15.6807 9.10602L17.6622 9.37725ZM17.6712 9.24575L19.6587 9.02194C19.6171 8.65249 19.5554 8.28883 19.4728 7.93168L17.5242 8.3825L15.5757 8.83332C15.6224 9.03517 15.6587 9.24701 15.6838 9.46956L17.6712 9.24575ZM17.5242 8.3825L19.4727 7.93142C19.3732 7.50157 19.2252 7.08742 19.0328 6.69073L17.2333 7.5635L15.4337 8.43627C15.5 8.57291 15.546 8.70476 15.5758 8.83358L17.5242 8.3825ZM17.2333 7.5635L18.6475 8.97771L22.5697 5.05546L21.1555 3.64125L19.7413 2.22704L15.819 6.14929L17.2333 7.5635ZM21.1555 3.64125H19.1555V5.9885H21.1555H23.1555V3.64125H21.1555ZM21.1555 5.9885L19.7425 4.57308L16.2222 8.08733L17.6352 9.50275L19.0483 10.9182L22.5685 7.40392L21.1555 5.9885ZM11.8268 4.0875L13.2411 5.50158L14.6153 4.12709L13.201 2.713L11.7867 1.29892L10.4124 2.67342L11.8268 4.0875ZM13.201 2.713V4.713H15.5175V2.713V0.713H13.201V2.713ZM15.5175 2.713L14.1058 1.29628L12.4095 2.98653L13.8212 4.40325L15.233 5.81997L16.9292 4.12972L15.5175 2.713ZM13.8212 4.40325L14.4678 2.51063C14.0685 2.37424 13.6631 2.26992 13.2525 2.20133L12.923 4.174L12.5935 6.14667C12.7755 6.17708 12.969 6.22559 13.1747 6.29587L13.8212 4.40325ZM12.923 4.174L13.2538 2.20154C12.8417 2.13244 12.4231 2.0995 12 2.0995V4.0995V6.0995C12.2152 6.0995 12.4119 6.11623 12.5922 6.14646L12.923 4.174ZM12 4.0995V2.0995C12.0137 2.0995 12.0378 2.09993 12.0706 2.10247L11.9162 4.0965L11.7619 6.09053C11.8463 6.09707 11.9263 6.0995 12 6.0995V4.0995ZM11.9162 4.0965L12.0716 2.10254C12.0759 2.10288 12.0771 2.10302 12.0747 2.10278C12.0724 2.10256 12.0678 2.10206 12.0604 2.1012L11.8268 4.0875L11.5931 6.0738C11.6452 6.07994 11.7022 6.08588 11.7609 6.09046L11.9162 4.0965ZM2.8505 15.405H4.8505V13.0885H2.8505H0.8505V15.405H2.8505ZM2.8505 13.0885L4.26595 14.5015L7.6822 11.0792L6.26675 9.66625L4.8513 8.25328L1.43505 11.6755L2.8505 13.0885ZM6.26675 9.66625L4.30101 10.0348C4.29212 9.98743 4.2872 9.94963 4.28446 9.92523C4.28164 9.90011 4.28027 9.88134 4.2796 9.87061L6.27575 9.7465L8.2719 9.62239C8.26698 9.54339 8.25699 9.4283 8.23249 9.29767L6.26675 9.66625ZM6.27575 9.7465L4.27964 9.87126C4.27998 9.87659 4.27987 9.87563 4.27963 9.8698C4.2795 9.86669 4.2793 9.86114 4.27912 9.85358C4.27895 9.8462 4.27875 9.83498 4.27875 9.82075H6.27875H8.27875C8.27875 9.74076 8.2747 9.66728 8.27186 9.62174L6.27575 9.7465ZM6.27875 9.82075H4.27875C4.27875 10.2264 4.30503 10.6282 4.35893 11.0253L6.34075 10.7563L8.32258 10.4872C8.2938 10.2753 8.27875 10.0534 8.27875 9.82075H6.27875ZM6.34075 10.7563L4.35893 11.0253C4.424 11.5046 4.55114 11.9692 4.73804 12.415L6.5825 11.6418L8.42696 10.8685C8.37419 10.7426 8.34017 10.6169 8.32258 10.4872L6.34075 10.7563ZM6.5825 11.6418L5.1624 10.2334L1.4304 13.9967L2.8505 15.405L4.2706 16.8133L8.0026 13.0501L6.5825 11.6418ZM19.9412 15.638L21.2125 14.094C20.8973 13.8344 20.5508 13.6162 20.1746 13.4462L19.351 15.2688L18.5274 17.0913C18.5702 17.1107 18.6172 17.1386 18.67 17.182L19.9412 15.638ZM19.351 15.2688L20.1751 13.4464C19.9307 13.3359 19.6848 13.2332 19.4375 13.1386L18.7227 15.0065L18.008 16.8744C18.1797 16.9401 18.3527 17.0123 18.5269 17.0911L19.351 15.2688ZM18.7227 15.0065L20.1369 16.4208L22.5696 13.9883L21.1555 12.574L19.7414 11.1597L17.3086 13.5922L18.7227 15.0065ZM21.1555 12.574H19.1555V14.424H21.1555H23.1555V12.574H21.1555ZM21.1555 14.424L19.7414 13.0096L18.5272 14.2236L19.9412 15.638L21.3553 17.0524L22.5696 15.8384L21.1555 14.424ZM17.2385 14.3658L17.8418 12.4589C17.6852 12.4094 17.5284 12.3561 17.3714 12.2992L16.6892 14.1793L16.0071 16.0593C16.2158 16.135 16.4251 16.2061 16.6352 16.2726L17.2385 14.3658ZM16.6892 14.1793L17.3693 12.2984C17.1403 12.2156 16.9074 12.1409 16.671 12.0742L16.1277 13.999L15.5845 15.9238C15.7307 15.9651 15.8722 16.0106 16.0092 16.0601L16.6892 14.1793ZM16.1277 13.999L17.462 15.4889C17.9462 15.0553 18.3527 14.5536 18.6739 13.9884L16.9352 13L15.1966 12.0116C15.0918 12.1958 14.96 12.36 14.7935 12.5091L16.1277 13.999ZM16.9352 13L18.6736 13.989C18.9561 13.4924 19.1857 12.968 19.3641 12.4191L17.462 11.801L15.5599 11.1829C15.4623 11.4833 15.3407 11.7582 15.1969 12.011L16.9352 13ZM17.462 11.801L18.8751 13.2164L22.5686 9.52886L21.1555 8.1135L19.7424 6.69814L16.0489 10.3856L17.462 11.801ZM21.1555 8.1135H19.1555V10.449H21.1555H23.1555V8.1135H21.1555ZM21.1555 10.449L19.7413 9.03474L15.8243 12.9515L17.2385 14.3658L18.6527 15.78L22.5697 11.8633L21.1555 10.449ZM12 13.97V11.97C11.3883 11.97 10.919 11.7764 10.4817 11.339L9.0675 12.7533L7.65329 14.1675C8.8383 15.3525 10.324 15.97 12 15.97V13.97ZM9.0675 12.7533L10.4816 11.3389C10.0441 10.9015 9.8505 10.4323 9.8505 9.82075H7.8505H5.8505C5.8505 11.4969 6.46821 12.9826 7.65343 14.1676L9.0675 12.7533ZM7.8505 9.82075H9.8505C9.8505 9.20909 10.0443 8.73771 10.4835 8.29747L9.0675 6.885L7.65155 5.47253C6.46804 6.65895 5.8505 8.14475 5.8505 9.82075H7.8505ZM9.0675 6.885L10.4835 8.29747C10.9212 7.85869 11.3899 7.66525 12 7.66525V5.66525V3.66525C10.3224 3.66525 8.83617 4.28498 7.65155 5.47253L9.0675 6.885ZM12 5.66525V7.66525C12.6102 7.66525 13.0809 7.85885 13.5213 8.29921L14.9355 6.885L16.3497 5.47079C15.1637 4.28482 13.6775 3.66525 12 3.66525V5.66525ZM14.9355 6.885L13.5213 8.29921C13.9619 8.73983 14.1555 9.21068 14.1555 9.82075H16.1555H18.1555C18.1555 8.14316 17.5358 6.65683 16.3497 5.47079L14.9355 6.885ZM16.1555 9.82075H14.1555C14.1555 10.4307 13.9621 10.8994 13.5232 11.3372L14.9355 12.7533L16.3478 14.1693C17.5356 12.9848 18.1555 11.4985 18.1555 9.82075H16.1555ZM14.9355 12.7533L13.523 11.3373C13.083 11.7762 12.6118 11.97 12 11.97V13.97V15.97C13.6759 15.97 15.1616 15.3526 16.348 14.1692L14.9355 12.7533ZM12 12.2668V14.2668C13.2015 14.2668 14.2927 13.8285 15.1502 12.9712L13.7363 11.5567L12.3223 10.1423C12.2328 10.2317 12.1666 10.2668 12 10.2668V12.2668ZM13.7363 11.5567L15.1505 12.971C16.0079 12.1135 16.4462 11.0222 16.4462 9.82075H14.4462H12.4462C12.4462 9.98729 12.4112 10.0534 12.322 10.1425L13.7363 11.5567ZM14.4462 9.82075H16.4462C16.4462 8.61927 16.008 7.52787 15.1505 6.67029L13.7363 8.0845L12.322 9.49871C12.4111 9.5878 12.4462 9.6539 12.4462 9.82075H14.4462ZM13.7363 8.0845L15.1502 6.67004C14.2927 5.81279 13.2015 5.3745 12 5.3745V7.3745V9.3745C12.1666 9.3745 12.2328 9.40955 12.3223 9.49896L13.7363 8.0845ZM12 7.3745V5.3745C10.7985 5.3745 9.70734 5.81279 8.84979 6.67004L10.2637 8.0845L11.6777 9.49896C11.7672 9.40955 11.8335 9.3745 12 9.3745V7.3745ZM10.2637 8.0845L8.84954 6.67029C7.99195 7.52787 7.55375 8.61927 7.55375 9.82075H9.55375H11.5537C11.5537 9.6539 11.5889 9.5878 11.678 9.49871L10.2637 8.0845ZM9.55375 9.82075H7.55375C7.55375 11.0222 7.99206 12.1135 8.84954 12.971L10.2637 11.5567L11.678 10.1425C11.5888 10.0533 11.5537 9.98729 11.5537 9.82075H9.55375ZM10.2637 11.5567L8.84979 12.9712C9.70734 13.8285 10.7985 14.2668 12 14.2668V12.2668V10.2668C11.8335 10.2668 11.7672 10.2317 11.6777 10.1423L10.2637 11.5567ZM3.8505 20.561H5.8505V19.3385H3.8505H1.8505V20.561H3.8505ZM3.8505 19.3385H5.8505C5.8505 19.0954 5.90643 18.8964 6.02025 18.703L4.2965 17.6887L2.57275 16.6745C2.09191 17.4917 1.8505 18.3926 1.8505 19.3385H3.8505ZM4.2965 17.6887L6.02011 18.7032C6.11947 18.5344 6.24129 18.4199 6.42347 18.3294L5.53425 16.538L4.64503 14.7466C3.77154 15.1801 3.06819 15.8328 2.57289 16.6743L4.2965 17.6887ZM5.53425 16.538L6.43682 18.3228C7.3393 17.8664 8.25471 17.5292 9.18488 17.3061L8.7185 15.3612L8.25212 13.4164C7.00829 13.7147 5.80086 14.162 4.63168 14.7532L5.53425 16.538ZM8.7185 15.3612L9.18517 17.306C10.1217 17.0813 11.059 16.97 12 16.97V14.97V12.97C10.7397 12.97 9.48928 13.1195 8.25183 13.4165L8.7185 15.3612ZM12 14.97V16.97C12.9423 16.97 13.8807 17.0806 14.8182 17.3039L15.2815 15.3582L15.7448 13.4126C14.5083 13.1182 13.2591 12.97 12 12.97V14.97ZM15.2815 15.3582L14.8185 17.3039C15.7497 17.5255 16.6658 17.8604 17.5687 18.3135L18.4657 16.526L19.3628 14.7385C18.194 14.1519 16.9873 13.7083 15.7445 13.4126L15.2815 15.3582ZM18.4657 16.526L17.5657 18.312C17.7546 18.4072 17.8824 18.5279 17.9857 18.7023L19.7065 17.683L21.4273 16.6637C20.9319 15.8274 20.2325 15.1768 19.3658 14.74L18.4657 16.526ZM19.7065 17.683L17.9859 18.7025C18.0987 18.8929 18.1555 19.0915 18.1555 19.3385H20.1555H22.1555C22.1555 18.3885 21.913 17.4835 21.4271 16.6635L19.7065 17.683ZM20.1555 19.3385H18.1555V20.561H20.1555H22.1555V19.3385H20.1555ZM20.1555 20.561H18.1555C18.1555 20.457 18.1737 20.3113 18.2392 20.1489C18.3057 19.9839 18.4024 19.8479 18.5052 19.7464L19.91 21.17L21.3148 22.5936C21.8853 22.0306 22.1555 21.3029 22.1555 20.561H20.1555ZM19.91 21.17L18.5038 19.7478C18.6043 19.6485 18.7376 19.5559 18.8978 19.4924C19.0556 19.4299 19.1968 19.4125 19.2977 19.4125V21.4125V23.4125C20.0316 23.4125 20.7526 23.1495 21.3162 22.5922L19.91 21.17ZM19.2977 21.4125V19.4125H4.70225V21.4125V23.4125H19.2977V21.4125ZM4.70225 21.4125V19.4125C4.80308 19.4125 4.9458 19.4299 5.10606 19.4937C5.26903 19.5585 5.40514 19.6536 5.50794 19.7565L4.093 21.17L2.67806 22.5835C3.24306 23.1491 3.96833 23.4125 4.70225 23.4125V21.4125ZM4.093 21.17L5.50648 19.7551C5.60926 19.8577 5.70433 19.9937 5.76923 20.1567C5.83307 20.3171 5.8505 20.4599 5.8505 20.561H3.8505H1.8505C1.8505 21.2952 2.11421 22.0202 2.67952 22.5849L4.093 21.17ZM5.55375 19.7032V21.7032H18.4523V19.7032V17.7032H5.55375V19.7032ZM18.4523 19.7032L20.4521 19.727C20.4592 19.1324 20.3531 18.5479 20.1275 17.9909L18.2738 18.7417L16.42 19.4926C16.4404 19.543 16.4533 19.5995 16.4524 19.6795L18.4523 19.7032ZM18.2738 18.7417L20.1273 17.9906C19.8278 17.2516 19.2994 16.6676 18.6057 16.2914L17.6523 18.0495L16.6988 19.8076C16.6573 19.7851 16.5973 19.7434 16.5379 19.6772C16.4782 19.6107 16.4408 19.5437 16.4202 19.4929L18.2738 18.7417ZM17.6523 18.0495L18.5178 16.2465C17.4664 15.7418 16.398 15.3526 15.3135 15.0855L14.8352 17.0275L14.357 18.9695C15.1565 19.1664 15.9661 19.4585 16.7867 19.8525L17.6523 18.0495ZM14.8352 17.0275L15.3139 15.0856C14.2189 14.8157 13.1132 14.6793 12 14.6793V16.6793V18.6793C12.7832 18.6793 13.5676 18.7749 14.3566 18.9694L14.8352 17.0275ZM12 16.6793V14.6793C10.8868 14.6793 9.78176 14.8157 8.68819 15.0858L9.16775 17.0275L9.64731 18.9692C10.4337 18.7749 11.2169 18.6793 12 18.6793V16.6793ZM9.16775 17.0275L8.68859 15.0857C7.60599 15.3529 6.53882 15.742 5.48808 16.2466L6.35375 18.0495L7.21942 19.8524C8.04034 19.4583 8.84918 19.1661 9.64691 18.9693L9.16775 17.0275ZM6.35375 18.0495L5.4103 16.286C4.7145 16.6583 4.17504 17.2416 3.87315 17.9938L5.72925 18.7387L7.58535 19.4837C7.56187 19.5422 7.52079 19.6142 7.45824 19.6832C7.39629 19.7516 7.3356 19.7924 7.2972 19.813L6.35375 18.0495ZM5.72925 18.7387L3.873 17.9942C3.64923 18.5521 3.54696 19.1358 3.55389 19.7267L5.55375 19.7032L7.55361 19.6798C7.55254 19.588 7.56727 19.5287 7.5855 19.4833L5.72925 18.7387Z" fill="var(--stroke-0, #1E729C)" mask="url(#path-1-inside-1_0_31)"/>
</g>
</g>
</svg>
