<svg width="20" height="20" viewBox="0 0 20 20" fill="none" xmlns="http://www.w3.org/2000/svg">
<rect width="20" height="20" fill="#B1B1B1"/>
<g id="INDUSTRIES">
<path d="M-2279 -3088C-2279 -3089.1 -2278.1 -3090 -2277 -3090H10955C10956.1 -3090 10957 -3089.1 10957 -3088V5107C10957 5108.1 10956.1 5109 10955 5109H-2277C-2278.1 5109 -2279 5108.1 -2279 5107V-3088Z" fill="#E8E8E8"/>
<path d="M-2277 -3090V-3089H10955V-3090V-3091H-2277V-3090ZM10957 -3088H10956V5107H10957H10958V-3088H10957ZM10955 5109V5108H-2277V5109V5110H10955V5109ZM-2279 5107H-2278V-3088H-2279H-2280V5107H-2279ZM-2277 5109V5108C-2277.55 5108 -2278 5107.55 -2278 5107H-2279H-2280C-2280 5108.66 -2278.66 5110 -2277 5110V5109ZM10957 5107H10956C10956 5107.55 10955.6 5108 10955 5108V5109V5110C10956.7 5110 10958 5108.66 10958 5107H10957ZM10955 -3090V-3089C10955.6 -3089 10956 -3088.55 10956 -3088H10957H10958C10958 -3089.66 10956.7 -3091 10955 -3091V-3090ZM-2277 -3090V-3091C-2278.66 -3091 -2280 -3089.66 -2280 -3088H-2279H-2278C-2278 -3088.55 -2277.55 -3089 -2277 -3089V-3090Z" fill="black" fill-opacity="0.1"/>
<g id="TUNNELLING">
<g id="Frame 186">
<rect width="1440" height="620" transform="translate(-90 -358)" fill="white"/>
<g id="Text &#38; IMG">
<g id="Container">
<g id="Frame 183">
<g id="Frame 184">
<g id="Container_2">
<g id="Container_3">
<path d="M-10 0C-10 -5.52285 -5.52285 -10 0 -10H20C25.5228 -10 30 -5.52285 30 0V20C30 25.5228 25.5228 30 20 30H0C-5.52285 30 -10 25.5228 -10 20V0Z" fill="#F2F2F2"/>
<g id="car">
<path id="Vector" d="M15.8333 14.1668H17.5C18 14.1668 18.3333 13.8335 18.3333 13.3335V10.8335C18.3333 10.0835 17.75 9.41683 17.0833 9.25016C15.5833 8.8335 13.3333 8.3335 13.3333 8.3335C13.3333 8.3335 12.25 7.16683 11.5 6.41683C11.0833 6.0835 10.5833 5.8335 9.99996 5.8335H4.16663C3.66663 5.8335 3.24996 6.16683 2.99996 6.5835L1.83329 9.00016C1.72294 9.32202 1.66663 9.65992 1.66663 10.0002V13.3335C1.66663 13.8335 1.99996 14.1668 2.49996 14.1668H4.16663M15.8333 14.1668C15.8333 15.0873 15.0871 15.8335 14.1666 15.8335C13.2462 15.8335 12.5 15.0873 12.5 14.1668M15.8333 14.1668C15.8333 13.2464 15.0871 12.5002 14.1666 12.5002C13.2462 12.5002 12.5 13.2464 12.5 14.1668M4.16663 14.1668C4.16663 15.0873 4.91282 15.8335 5.83329 15.8335C6.75377 15.8335 7.49996 15.0873 7.49996 14.1668M4.16663 14.1668C4.16663 13.2464 4.91282 12.5002 5.83329 12.5002C6.75377 12.5002 7.49996 13.2464 7.49996 14.1668M7.49996 14.1668H12.5" stroke="#1E729C" stroke-width="1.5" stroke-linecap="round" stroke-linejoin="round"/>
</g>
</g>
</g>
</g>
</g>
</g>
</g>
</g>
</g>
</g>
</svg>
