<svg preserveAspectRatio="none" width="100%" height="100%" overflow="visible" style="display: block;" viewBox="0 0 24 24" fill="none" xmlns="http://www.w3.org/2000/svg">
<g id="change_circle">
<g id="Vector">
<mask id="path-1-inside-1_0_39" fill="white">
<path d="M11.9853 15.4332C11.5219 15.4379 11.0803 15.3557 10.6605 15.1867C10.2408 15.0177 9.87033 14.7725 9.549 14.451C9.2195 14.1212 8.96825 13.75 8.79525 13.3375C8.62225 12.9252 8.53575 12.4868 8.53575 12.0223C8.53575 11.8614 8.54792 11.7038 8.57225 11.5495C8.59642 11.3953 8.63233 11.2368 8.68 11.074C8.74667 10.8633 8.74033 10.6543 8.661 10.447C8.58183 10.2397 8.44617 10.0867 8.254 9.988C8.05883 9.888 7.85658 9.8735 7.64725 9.9445C7.43792 10.0155 7.29992 10.1567 7.23325 10.368C7.15192 10.632 7.08675 10.9002 7.03775 11.1725C6.98875 11.4448 6.96425 11.7207 6.96425 12C6.96425 12.6707 7.09342 13.3119 7.35175 13.9238C7.61025 14.5358 7.976 15.0781 8.449 15.5508C8.8975 16.0108 9.41967 16.3662 10.0155 16.617C10.6113 16.8677 11.2303 17.0033 11.8723 17.024L11.501 17.401C11.3432 17.559 11.2643 17.743 11.2643 17.953C11.2643 18.163 11.3435 18.345 11.502 18.499C11.6588 18.6568 11.8418 18.7357 12.0508 18.7357C12.2599 18.7357 12.4427 18.6568 12.599 18.499L14.351 16.7777C14.521 16.6049 14.606 16.4033 14.606 16.1728C14.606 15.9424 14.521 15.7423 14.351 15.5723L12.605 13.845C12.4452 13.6912 12.2608 13.6143 12.0518 13.6143C11.8426 13.6143 11.659 13.6917 11.501 13.8467C11.3432 14.0019 11.2643 14.1857 11.2643 14.398C11.2643 14.6102 11.3432 14.7938 11.501 14.949L11.9853 15.4332ZM11.9957 8.54175C12.4551 8.55375 12.8988 8.64425 13.327 8.81325C13.755 8.98225 14.1297 9.2275 14.451 9.549C14.7805 9.87883 15.0317 10.25 15.2047 10.6625C15.3777 11.0748 15.4642 11.5132 15.4642 11.9777C15.4642 12.1386 15.4559 12.2972 15.4392 12.4535C15.4226 12.6098 15.3912 12.761 15.345 12.907C15.2783 13.115 15.2825 13.323 15.3575 13.531C15.4325 13.739 15.5665 13.8867 15.7595 13.974C15.9698 14.0613 16.1792 14.0615 16.3877 13.9745C16.5962 13.8875 16.7353 13.7397 16.805 13.531C16.8903 13.2797 16.9502 13.0283 16.9845 12.777C17.0187 12.5257 17.0357 12.2663 17.0357 11.999C17.0357 11.3307 16.9125 10.6889 16.666 10.0738C16.4193 9.45858 16.0553 8.90933 15.574 8.426C15.1152 7.96733 14.5866 7.61617 13.9883 7.3725C13.3899 7.12883 12.7718 7.003 12.1338 6.995L12.524 6.599C12.6652 6.441 12.7358 6.257 12.7358 6.047C12.7358 5.837 12.6565 5.654 12.498 5.498C12.3395 5.34217 12.1566 5.26425 11.9493 5.26425C11.7418 5.26425 11.559 5.34117 11.401 5.495L9.649 7.22225C9.479 7.39508 9.394 7.59675 9.394 7.82725C9.394 8.05758 9.479 8.25775 9.649 8.42775L11.401 10.149C11.5575 10.3068 11.7402 10.3857 11.949 10.3857C12.1577 10.3857 12.341 10.3078 12.499 10.152C12.6568 9.996 12.7358 9.812 12.7358 9.6C12.7358 9.388 12.6568 9.203 12.499 9.045L11.9957 8.54175ZM12.0008 22.1495C10.6098 22.1495 9.29692 21.8838 8.06225 21.3525C6.82775 20.8212 5.7495 20.0945 4.8275 19.1725C3.9055 18.2505 3.17883 17.1725 2.6475 15.9385C2.11617 14.7045 1.8505 13.3919 1.8505 12.0007C1.8505 10.5931 2.11617 9.27192 2.6475 8.03725C3.17883 6.80275 3.90517 5.72858 4.8265 4.81475C5.74783 3.90075 6.82567 3.17725 8.06 2.64425C9.29433 2.11108 10.6073 1.8445 11.9988 1.8445C13.4068 1.8445 14.7283 2.11092 15.9635 2.64375C17.1985 3.17658 18.2727 3.89967 19.1862 4.813C20.0999 5.72633 20.8232 6.80033 21.356 8.035C21.889 9.26967 22.1555 10.5913 22.1555 12C22.1555 13.3917 21.8889 14.7048 21.3557 15.9393C20.8227 17.1738 20.0992 18.2517 19.1852 19.1732C18.2714 20.0947 17.1975 20.8212 15.9635 21.3525C14.7295 21.8838 13.4086 22.1495 12.0008 22.1495ZM12 20.4462C14.3507 20.4462 16.3461 19.6233 17.9862 17.9775C19.6262 16.3315 20.4462 14.339 20.4462 12C20.4462 9.64933 19.6262 7.65392 17.9862 6.01375C16.3461 4.37375 14.3497 3.55375 11.997 3.55375C9.661 3.55375 7.66975 4.37375 6.02325 6.01375C4.37692 7.65392 3.55375 9.65033 3.55375 12.003C3.55375 14.339 4.37667 16.3303 6.0225 17.9768C7.6685 19.6231 9.661 20.4462 12 20.4462Z"/>
</mask>
<path d="M11.9853 15.4332L12.0054 17.4331L16.7656 17.3852L13.3995 14.019L11.9853 15.4332ZM10.6605 15.1867L9.9134 17.042L9.91366 17.0421L10.6605 15.1867ZM9.549 14.451L8.13407 15.8645L8.13442 15.8648L9.549 14.451ZM8.79525 13.3375L10.6396 12.564L10.6395 12.5637L8.79525 13.3375ZM8.57225 11.5495L10.5478 11.861L10.5481 11.8592L8.57225 11.5495ZM8.68 11.074L6.7732 10.4706L6.76665 10.4913L6.76055 10.5121L8.68 11.074ZM8.661 10.447L6.79257 11.1604L6.79307 11.1617L8.661 10.447ZM8.254 9.988L9.16751 8.20882L9.16602 8.20805L8.254 9.988ZM7.23325 10.368L5.32586 9.7663L5.3219 9.77915L7.23325 10.368ZM7.35175 13.9237L5.50926 14.7017L5.50936 14.702L7.35175 13.9237ZM8.449 15.5508L9.881 14.1546L9.87192 14.1452L9.86271 14.136L8.449 15.5508ZM10.0155 16.617L9.2395 18.4603L9.23994 18.4605L10.0155 16.617ZM11.8723 17.024L13.2973 18.4273L16.5029 15.172L11.9366 15.025L11.8723 17.024ZM11.501 17.401L12.916 18.8145L12.921 18.8094L12.926 18.8043L11.501 17.401ZM11.502 18.499L12.9207 17.0893L12.9083 17.0768L12.8957 17.0646L11.502 18.499ZM12.599 18.499L11.1974 17.0723L11.1876 17.0819L11.1781 17.0916L12.599 18.499ZM14.351 16.7778L15.7526 18.2044L15.7648 18.1924L15.7769 18.1802L14.351 16.7778ZM14.351 15.5723L15.7652 14.158L15.7576 14.1504L14.351 15.5723ZM12.605 13.845L14.0116 12.4232L14.0018 12.4135L13.9919 12.404L12.605 13.845ZM11.501 13.8468L10.1004 12.419L10.0989 12.4205L11.501 13.8468ZM11.501 14.949L12.9152 13.5348L12.9092 13.5288L12.9031 13.5228L11.501 14.949ZM11.9958 8.54175L12.048 6.54243L7.0371 6.41152L10.5815 9.95596L11.9958 8.54175ZM13.327 8.81325L14.0615 6.95302L14.0613 6.95292L13.327 8.81325ZM14.451 9.549L15.8659 8.1355L15.8656 8.13515L14.451 9.549ZM15.2047 10.6625L13.3604 11.436L13.3605 11.4363L15.2047 10.6625ZM15.345 12.907L17.2496 13.5174L17.2519 13.51L15.345 12.907ZM15.7595 13.974L14.935 15.7961L14.9636 15.8091L14.9926 15.8211L15.7595 13.974ZM16.805 13.531L14.9112 12.888L14.9079 12.8976L16.805 13.531ZM16.9845 12.777L18.9661 13.0477L18.9663 13.0464L16.9845 12.777ZM16.666 10.0738L18.5225 9.32984L18.5223 9.32941L16.666 10.0738ZM15.574 8.426L16.9911 7.01472L16.988 7.01153L15.574 8.426ZM12.1338 6.995L10.7092 5.59117L7.413 8.93596L12.1087 8.99484L12.1338 6.995ZM12.524 6.599L13.9485 8.00283L13.9828 7.968L14.0154 7.93153L12.524 6.599ZM12.498 5.498L13.9009 4.07259L13.9002 4.07184L12.498 5.498ZM11.401 5.495L10.0058 4.06199L9.99688 4.07076L11.401 5.495ZM9.649 7.22225L8.24488 5.79801L8.23393 5.80881L8.22315 5.81977L9.649 7.22225ZM9.649 8.42775L8.23479 9.84196L8.24105 9.84822L8.24736 9.85443L9.649 8.42775ZM11.401 10.149L12.8212 8.7408L12.812 8.7315L12.8026 8.72232L11.401 10.149ZM12.499 10.152L13.9034 11.5759L13.9049 11.5745L12.499 10.152ZM12.499 9.045L13.914 7.63153L13.9132 7.63079L12.499 9.045ZM8.06225 21.3525L7.27157 23.1896L7.27166 23.1896L8.06225 21.3525ZM2.6475 8.03725L0.810431 7.24657L0.810392 7.24666L2.6475 8.03725ZM4.8265 4.81475L6.23492 6.23473L6.23505 6.2346L4.8265 4.81475ZM8.06 2.64425L8.85286 4.48038L8.85307 4.48029L8.06 2.64425ZM15.9635 2.64375L16.7558 0.807375L16.7557 0.807336L15.9635 2.64375ZM19.1863 4.813L17.7722 6.22734L17.7723 6.22747L19.1863 4.813ZM21.356 8.035L19.5197 8.82747L19.5198 8.82768L21.356 8.035ZM21.3557 15.9392L19.5197 15.1463L19.5196 15.1465L21.3557 15.9392ZM19.1852 19.1732L17.7653 17.7648L17.7651 17.765L19.1852 19.1732ZM17.9862 17.9775L19.4029 19.3893L19.403 19.3891L17.9862 17.9775ZM17.9862 6.01375L19.4005 4.59961L19.4004 4.59946L17.9862 6.01375ZM6.02325 6.01375L4.61184 4.59674L4.61169 4.59688L6.02325 6.01375ZM6.0225 17.9768L4.608 19.3907L4.60814 19.3908L6.0225 17.9768ZM11.9853 15.4332L11.9651 13.4334C11.758 13.4354 11.5776 13.4 11.4073 13.3314L10.6605 15.1867L9.91366 17.0421C10.5831 17.3115 11.2858 17.4404 12.0054 17.4331L11.9853 15.4332ZM10.6605 15.1867L11.4076 13.3315C11.2391 13.2637 11.0953 13.169 10.9636 13.0372L9.549 14.451L8.13442 15.8648C8.64532 16.376 9.24257 16.7718 9.9134 17.042L10.6605 15.1867ZM9.549 14.451L10.9639 13.0375C10.8098 12.8832 10.7081 12.7273 10.6396 12.564L8.79525 13.3375L6.95089 14.111C7.22841 14.7727 7.62918 15.3591 8.13407 15.8645L9.549 14.451ZM8.79525 13.3375L10.6395 12.5637C10.5733 12.4059 10.5358 12.2316 10.5358 12.0223H8.53575H6.53575C6.53575 12.7419 6.67121 13.4444 6.951 14.1113L8.79525 13.3375ZM8.53575 12.0223H10.5358C10.5358 11.9627 10.5402 11.9093 10.5478 11.861L8.57225 11.5495L6.59666 11.238C6.55561 11.4984 6.53575 11.7602 6.53575 12.0223H8.53575ZM8.57225 11.5495L10.5481 11.8592C10.5578 11.7972 10.5739 11.7231 10.5994 11.6359L8.68 11.074L6.76055 10.5121C6.69074 10.7506 6.635 10.9934 6.59638 11.2398L8.57225 11.5495ZM8.68 11.074L10.5868 11.6774C10.7906 11.0334 10.769 10.3598 10.5289 9.73226L8.661 10.447L6.79307 11.1617C6.75767 11.0692 6.73019 10.9527 6.72617 10.8198C6.72214 10.6869 6.74251 10.5675 6.7732 10.4706L8.68 11.074ZM8.661 10.447L10.5294 9.73357C10.2796 9.07928 9.81159 8.53951 9.16751 8.20882L8.254 9.988L7.34049 11.7672C7.22849 11.7097 7.10932 11.6231 7.00344 11.5037C6.89817 11.3849 6.83163 11.2627 6.79257 11.1604L8.661 10.447ZM8.254 9.988L9.16602 8.20805C8.48512 7.85917 7.7218 7.80731 7.00485 8.05048L7.64725 9.9445L8.28965 11.8385C8.16477 11.8809 8.00083 11.9105 7.81292 11.897C7.62464 11.8835 7.46399 11.8305 7.34198 11.768L8.254 9.988ZM7.64725 9.9445L7.00485 8.05048C6.19029 8.32675 5.5837 8.94908 5.3259 9.76631L7.23325 10.368L9.1406 10.9697C9.09122 11.1262 8.99287 11.3217 8.81691 11.5017C8.64081 11.6818 8.44684 11.7852 8.28965 11.8385L7.64725 9.9445ZM7.23325 10.368L5.3219 9.77915C5.2168 10.1203 5.1326 10.4668 5.06936 10.8183L7.03775 11.1725L9.00614 11.5267C9.0409 11.3335 9.08703 11.1437 9.1446 10.9568L7.23325 10.368ZM7.03775 11.1725L5.06936 10.8183C4.99913 11.2087 4.96425 11.603 4.96425 12H6.96425H8.96425C8.96425 11.8383 8.97837 11.681 9.00614 11.5267L7.03775 11.1725ZM6.96425 12H4.96425C4.96425 12.9352 5.14593 13.8412 5.50926 14.7017L7.35175 13.9237L9.19425 13.1458C9.04091 12.7826 8.96425 12.4061 8.96425 12H6.96425ZM7.35175 13.9237L5.50936 14.702C5.86899 15.5534 6.38087 16.3115 7.03529 16.9655L8.449 15.5508L9.86271 14.136C9.57113 13.8447 9.35151 13.5181 9.19414 13.1456L7.35175 13.9237ZM8.449 15.5508L7.017 16.947C7.65329 17.5996 8.39891 18.1064 9.2395 18.4603L10.0155 16.617L10.7915 14.7737C10.4404 14.6259 10.1417 14.4219 9.881 14.1546L8.449 15.5508ZM10.0155 16.617L9.23994 18.4605C10.0599 18.8054 10.9197 18.9944 11.8079 19.023L11.8723 17.024L11.9366 15.025C11.5408 15.0123 11.1628 14.9299 10.7911 14.7735L10.0155 16.617ZM11.8723 17.024L10.4472 15.6207L10.076 15.9977L11.501 17.401L12.926 18.8043L13.2973 18.4273L11.8723 17.024ZM11.501 17.401L10.086 15.9875C9.57996 16.4942 9.26425 17.1768 9.26425 17.953H11.2643H13.2643C13.2643 18.1055 13.2341 18.2766 13.1615 18.4458C13.09 18.6126 12.9958 18.7345 12.916 18.8145L11.501 17.401ZM11.2643 17.953H9.26425C9.26425 18.7342 9.58487 19.4249 10.1083 19.9334L11.502 18.499L12.8957 17.0646C12.982 17.1484 13.082 17.2753 13.1574 17.4485C13.2337 17.6239 13.2643 17.7994 13.2643 17.953H11.2643ZM11.502 18.499L10.0833 19.9087C10.5886 20.4173 11.2721 20.7357 12.0508 20.7357V18.7357V16.7358C12.2051 16.7358 12.3781 16.7664 12.5491 16.8402C12.7176 16.9129 12.8404 17.0085 12.9207 17.0893L11.502 18.499ZM12.0508 18.7357V20.7357C12.8294 20.7357 13.5139 20.4173 14.0199 19.9064L12.599 18.499L11.1781 17.0916C11.2591 17.0098 11.3826 16.9135 11.5518 16.8404C11.7234 16.7663 11.8967 16.7358 12.0508 16.7358V18.7357ZM12.599 18.499L14.0006 19.9257L15.7526 18.2044L14.351 16.7778L12.9494 15.3511L11.1974 17.0723L12.599 18.499ZM14.351 16.7778L15.7769 18.1802C16.2937 17.6548 16.606 16.9573 16.606 16.1728H14.606H12.606C12.606 16.0356 12.6327 15.8781 12.6993 15.7201C12.7651 15.564 12.8519 15.4497 12.9251 15.3753L14.351 16.7778ZM14.606 16.1728H16.606C16.606 15.3867 16.292 14.6848 15.7652 14.158L14.351 15.5723L12.9368 16.9865C12.8595 16.9091 12.7693 16.7915 12.7014 16.6316C12.6327 16.47 12.606 16.3101 12.606 16.1728H14.606ZM14.351 15.5723L15.7576 14.1504L14.0116 12.4232L12.605 13.845L11.1984 15.2668L12.9444 16.9941L14.351 15.5723ZM12.605 13.845L13.9919 12.404C13.4847 11.9158 12.8119 11.6143 12.0518 11.6143V13.6143V15.6143C11.9043 15.6143 11.7398 15.5858 11.5769 15.5178C11.4162 15.4508 11.2973 15.3622 11.2181 15.286L12.605 13.845ZM12.0518 13.6143V11.6143C11.286 11.6143 10.6082 11.9209 10.1004 12.419L11.501 13.8468L12.9016 15.2745C12.8208 15.3537 12.6994 15.4455 12.535 15.5149C12.3685 15.5852 12.2009 15.6143 12.0518 15.6143V13.6143ZM11.501 13.8468L10.0989 12.4205C9.57671 12.9339 9.26425 13.6244 9.26425 14.398H11.2643H13.2643C13.2643 14.5462 13.2353 14.7175 13.1611 14.8902C13.0877 15.0611 12.9896 15.188 12.9031 15.273L11.501 13.8468ZM11.2643 14.398H9.26425C9.26425 15.1719 9.57706 15.8622 10.0989 16.3752L11.501 14.949L12.9031 13.5228C12.9894 13.6076 13.0875 13.7344 13.161 13.9053C13.2352 14.078 13.2643 14.2495 13.2643 14.398H11.2643ZM11.501 14.949L10.0868 16.3632L10.571 16.8475L11.9853 15.4332L13.3995 14.019L12.9152 13.5348L11.501 14.949ZM11.9958 8.54175L11.9435 10.5411C12.1687 10.547 12.3816 10.5903 12.5927 10.6736L13.327 8.81325L14.0613 6.95292C13.416 6.69824 12.7415 6.56055 12.048 6.54243L11.9958 8.54175ZM13.327 8.81325L12.5925 10.6735C12.7688 10.7431 12.9112 10.8376 13.0364 10.9628L14.451 9.549L15.8656 8.13515C15.3481 7.6174 14.7412 7.22138 14.0615 6.95302L13.327 8.81325ZM14.451 9.549L13.0361 10.9625C13.1902 11.1168 13.2919 11.2727 13.3604 11.436L15.2047 10.6625L17.0491 9.88899C16.7716 9.22725 16.3708 8.64091 15.8659 8.1355L14.451 9.549ZM15.2047 10.6625L13.3605 11.4363C13.4267 11.5941 13.4642 11.7684 13.4642 11.9777H15.4642H17.4642C17.4642 11.2581 17.3288 10.5556 17.049 9.88872L15.2047 10.6625ZM15.4642 11.9777H13.4642C13.4642 12.0694 13.4595 12.1572 13.4505 12.2415L15.4392 12.4535L17.428 12.6655C17.4523 12.4372 17.4642 12.2078 17.4642 11.9777H15.4642ZM15.4392 12.4535L13.4505 12.2415C13.4476 12.2686 13.4429 12.2886 13.4381 12.304L15.345 12.907L17.2519 13.51C17.3394 13.2334 17.3975 12.951 17.428 12.6655L15.4392 12.4535ZM15.345 12.907L13.4404 12.2966C13.2372 12.9305 13.2533 13.5916 13.4761 14.2094L15.3575 13.531L17.2389 12.8526C17.2707 12.9406 17.2952 13.0518 17.2977 13.1789C17.3003 13.3064 17.2802 13.4219 17.2496 13.5174L15.345 12.907ZM15.3575 13.531L13.4761 14.2094C13.7254 14.9009 14.226 15.4753 14.935 15.7961L15.7595 13.974L16.584 12.1519C16.721 12.2138 16.8672 12.3125 16.9953 12.4537C17.1222 12.5935 17.1974 12.7375 17.2389 12.8526L15.3575 13.531ZM15.7595 13.974L14.9926 15.8211C15.6905 16.1109 16.4532 16.1143 17.1579 15.8203L16.3877 13.9745L15.6176 12.1287C15.7384 12.0783 15.8954 12.0395 16.0759 12.0396C16.2561 12.0398 16.4104 12.0787 16.5264 12.1269L15.7595 13.974ZM16.3877 13.9745L17.1579 15.8203C17.883 15.5177 18.4439 14.9376 18.7021 14.1644L16.805 13.531L14.9079 12.8976C14.957 12.7506 15.0467 12.5822 15.1918 12.4279C15.3358 12.2748 15.4916 12.1813 15.6176 12.1287L16.3877 13.9745ZM16.805 13.531L18.6988 14.174C18.8233 13.8072 18.9137 13.4314 18.9661 13.0477L16.9845 12.777L15.0029 12.5063C14.9866 12.6253 14.9573 12.7521 14.9112 12.888L16.805 13.531ZM16.9845 12.777L18.9663 13.0464C19.0132 12.7011 19.0357 12.3516 19.0357 11.999H17.0357H15.0357C15.0357 12.181 15.0241 12.3502 15.0027 12.5076L16.9845 12.777ZM17.0357 11.999H19.0357C19.0357 11.078 18.8646 10.1836 18.5225 9.32984L16.666 10.0738L14.8095 10.8177C14.9604 11.1942 15.0357 11.5833 15.0357 11.999H17.0357ZM16.666 10.0738L18.5223 9.32941C18.1726 8.45732 17.6565 7.68289 16.9911 7.01472L15.574 8.426L14.1569 9.83728C14.4541 10.1358 14.666 10.4598 14.8097 10.8181L16.666 10.0738ZM15.574 8.426L16.988 7.01153C16.3414 6.36524 15.5888 5.86484 14.7426 5.52021L13.9883 7.3725L13.2339 9.22479C13.5843 9.3675 13.8889 9.56942 14.16 9.84047L15.574 8.426ZM13.9883 7.3725L14.7426 5.52021C13.9155 5.18339 13.0502 5.00633 12.1588 4.99516L12.1338 6.995L12.1087 8.99484C12.4933 8.99967 12.8643 9.07428 13.2339 9.22479L13.9883 7.3725ZM12.1338 6.995L13.5583 8.39883L13.9485 8.00283L12.524 6.599L11.0995 5.19517L10.7092 5.59117L12.1338 6.995ZM12.524 6.599L14.0154 7.93153C14.4809 7.41057 14.7357 6.75342 14.7357 6.047H12.7357H10.7357C10.7357 5.92332 10.7575 5.77748 10.8155 5.62619C10.8734 5.47518 10.9537 5.35471 11.0326 5.26647L12.524 6.599ZM12.7357 6.047H14.7357C14.7357 5.26685 14.4163 4.57984 13.9009 4.07259L12.498 5.498L11.0951 6.92341C11.0121 6.84172 10.9148 6.71731 10.841 6.54704C10.7663 6.37445 10.7357 6.20063 10.7357 6.047H12.7357ZM12.498 5.498L13.9002 4.07184C13.3974 3.5775 12.7214 3.26425 11.9492 3.26425V5.26425V7.26425C11.7953 7.26425 11.6251 7.23383 11.4582 7.16271C11.2938 7.09271 11.174 7.00104 11.0958 6.92416L12.498 5.498ZM11.9492 5.26425V3.26425C11.1855 3.26425 10.5113 3.56981 10.0058 4.06202L11.401 5.495L12.7962 6.92798C12.7162 7.00584 12.5957 7.09657 12.4324 7.16532C12.2668 7.23502 12.0993 7.26425 11.9492 7.26425V5.26425ZM11.401 5.495L9.99688 4.07076L8.24488 5.79801L9.649 7.22225L11.0531 8.64649L12.8051 6.91924L11.401 5.495ZM9.649 7.22225L8.22315 5.81977C7.70632 6.34521 7.394 7.04267 7.394 7.82725H9.394H11.394C11.394 7.96437 11.3673 8.12192 11.3007 8.27992C11.2349 8.436 11.1481 8.55026 11.0749 8.62473L9.649 7.22225ZM9.394 7.82725H7.394C7.394 8.61335 7.70801 9.31519 8.23479 9.84196L9.649 8.42775L11.0632 7.01354C11.1405 7.09086 11.2307 7.20848 11.2986 7.3684C11.3673 7.53 11.394 7.68994 11.394 7.82725H9.394ZM9.649 8.42775L8.24736 9.85443L9.99936 11.5757L11.401 10.149L12.8026 8.72232L11.0506 7.00107L9.649 8.42775ZM11.401 10.149L9.9808 11.5572C10.486 12.0667 11.1699 12.3857 11.949 12.3857V10.3857V8.38575C12.1036 8.38575 12.2771 8.41651 12.4486 8.49058C12.6175 8.56357 12.7407 8.65957 12.8212 8.7408L11.401 10.149ZM11.949 10.3857V12.3857C12.7191 12.3857 13.3975 12.075 13.9034 11.5759L12.499 10.152L11.0946 8.72806C11.1745 8.64926 11.2956 8.55681 11.4607 8.48665C11.6282 8.41549 11.7975 8.38575 11.949 8.38575V10.3857ZM12.499 10.152L13.9049 11.5745C14.4231 11.0623 14.7357 10.3738 14.7357 9.6H12.7357H10.7357C10.7357 9.45118 10.7649 9.28024 10.8385 9.10866C10.9113 8.93892 11.0083 8.81335 11.0931 8.72955L12.499 10.152ZM12.7357 9.6H14.7357C14.7357 8.82726 14.4242 8.14227 13.914 7.63153L12.499 9.045L11.084 10.4585C11.0025 10.3768 10.9081 10.2538 10.8369 10.087C10.7649 9.91811 10.7357 9.74889 10.7357 9.6H12.7357ZM12.499 9.045L13.9132 7.63079L13.41 7.12754L11.9958 8.54175L10.5815 9.95596L11.0848 10.4592L12.499 9.045ZM12.0008 22.1495V20.1495C10.8719 20.1495 9.82904 19.9355 8.85284 19.5154L8.06225 21.3525L7.27166 23.1896C8.7648 23.8322 10.3476 24.1495 12.0008 24.1495V22.1495ZM8.06225 21.3525L8.85293 19.5154C7.84389 19.0811 6.979 18.4956 6.24171 17.7583L4.8275 19.1725L3.41329 20.5867C4.52 21.6934 5.81161 22.5612 7.27157 23.1896L8.06225 21.3525ZM4.8275 19.1725L6.24171 17.7583C5.50429 17.0209 4.91872 16.1561 4.48445 15.1475L2.6475 15.9385L0.810547 16.7295C1.43895 18.1889 2.30671 19.4801 3.41329 20.5867L4.8275 19.1725ZM2.6475 15.9385L4.48445 15.1475C4.06452 14.1723 3.8505 13.1298 3.8505 12.0007H1.8505H-0.1495C-0.1495 13.654 0.167814 15.2367 0.810547 16.7295L2.6475 15.9385ZM1.8505 12.0007H3.8505C3.8505 10.8518 4.0658 9.80103 4.48461 8.82784L2.6475 8.03725L0.810392 7.24666C0.166533 8.7428 -0.1495 10.3343 -0.1495 12.0007H1.8505ZM2.6475 8.03725L4.48457 8.82793C4.91832 7.82015 5.50195 6.96174 6.23492 6.23473L4.8265 4.81475L3.41808 3.39477C2.30838 4.49543 1.43935 5.78534 0.810431 7.24657L2.6475 8.03725ZM4.8265 4.81475L6.23505 6.2346C6.97258 5.50294 7.83956 4.91793 8.85286 4.48038L8.06 2.64425L7.26714 0.808121C5.81177 1.43657 4.52308 2.29856 3.41795 3.3949L4.8265 4.81475ZM8.06 2.64425L8.85307 4.48029C9.8282 4.05908 10.8703 3.8445 11.9988 3.8445V1.8445V-0.155499C10.3442 -0.155499 8.76046 0.163084 7.26693 0.808212L8.06 2.64425ZM11.9988 1.8445V3.8445C13.1473 3.8445 14.1979 4.06027 15.1713 4.48016L15.9635 2.64375L16.7557 0.807336C15.2587 0.161561 13.6662 -0.155499 11.9988 -0.155499V1.8445ZM15.9635 2.64375L15.1712 4.48012C16.1839 4.91703 17.0447 5.50006 17.7722 6.22734L19.1863 4.813L20.6003 3.39866C19.5008 2.29928 18.2131 1.43613 16.7558 0.807375L15.9635 2.64375ZM19.1863 4.813L17.7723 6.22747C18.4998 6.95475 19.0829 7.81532 19.5197 8.82747L21.356 8.035L23.1923 7.24253C22.5634 5.78535 21.7 4.49792 20.6002 3.39853L19.1863 4.813ZM21.356 8.035L19.5198 8.82768C19.9396 9.8002 20.1555 10.8508 20.1555 12H22.1555H24.1555C24.1555 10.3319 23.8384 8.73913 23.1922 7.24232L21.356 8.035ZM22.1555 12H20.1555C20.1555 13.1287 19.9409 14.1709 19.5197 15.1463L21.3557 15.9392L23.1918 16.7322C23.8369 15.2386 24.1555 13.6547 24.1555 12H22.1555ZM21.3557 15.9392L19.5196 15.1465C19.082 16.16 18.497 17.0271 17.7653 17.7648L19.1852 19.1732L20.6052 20.5817C21.7015 19.4764 22.5635 18.1875 23.1919 16.732L21.3557 15.9392ZM19.1852 19.1732L17.7651 17.765C17.038 18.4982 16.1798 19.0819 15.1725 19.5155L15.9635 21.3525L16.7545 23.1895C18.2152 22.5605 19.5048 21.6913 20.6054 20.5815L19.1852 19.1732ZM15.9635 21.3525L15.1725 19.5155C14.2003 19.9342 13.1499 20.1495 12.0008 20.1495V22.1495V24.1495C13.6673 24.1495 15.2587 23.8335 16.7545 23.1895L15.9635 21.3525ZM12 20.4462V22.4462C14.8753 22.4462 17.3826 21.4166 19.4029 19.3893L17.9862 17.9775L16.5696 16.5657C15.3096 17.8301 13.826 18.4462 12 18.4462V20.4462ZM17.9862 17.9775L19.403 19.3891C21.4193 17.3655 22.4462 14.8642 22.4462 12H20.4462H18.4462C18.4462 13.8138 17.8332 15.2975 16.5695 16.5659L17.9862 17.9775ZM20.4462 12H22.4462C22.4462 9.12696 21.4212 6.62048 19.4005 4.59961L17.9862 6.01375L16.572 7.42789C17.8313 8.68735 18.4462 10.1717 18.4462 12H20.4462ZM17.9862 6.01375L19.4004 4.59946C17.3792 2.57844 14.8715 1.55375 11.997 1.55375V3.55375V5.55375C13.8278 5.55375 15.313 6.16906 16.5721 7.42803L17.9862 6.01375ZM11.997 3.55375V1.55375C9.13503 1.55375 6.63537 2.5812 4.61184 4.59674L6.02325 6.01375L7.43466 7.43076C8.70413 6.1663 10.187 5.55375 11.997 5.55375V3.55375ZM6.02325 6.01375L4.61169 4.59688C2.58345 6.61753 1.55375 9.126 1.55375 12.003H3.55375H5.55375C5.55375 10.1747 6.17038 8.69031 7.43481 7.43061L6.02325 6.01375ZM3.55375 12.003H1.55375C1.55375 14.8672 2.58583 17.3677 4.608 19.3907L6.0225 17.9768L7.437 16.5628C6.16751 15.2928 5.55375 13.8108 5.55375 12.003H3.55375ZM6.0225 17.9768L4.60814 19.3908C6.63121 21.4143 9.13331 22.4462 12 22.4462V20.4462V18.4462C10.1887 18.4462 8.70579 17.8319 7.43686 16.5627L6.0225 17.9768Z" fill="var(--stroke-0, #1E729C)" mask="url(#path-1-inside-1_0_39)"/>
</g>
</g>
</svg>
