<svg width="20" height="20" viewBox="0 0 20 20" fill="none" xmlns="http://www.w3.org/2000/svg">
<path d="M15.8333 14.1668H17.5C18 14.1668 18.3333 13.8335 18.3333 13.3335V10.8335C18.3333 10.0835 17.75 9.41683 17.0833 9.25016C15.5833 8.8335 13.3333 8.3335 13.3333 8.3335C13.3333 8.3335 12.25 7.16683 11.5 6.41683C11.0833 6.0835 10.5833 5.8335 9.99996 5.8335H4.16663C3.66663 5.8335 3.24996 6.16683 2.99996 6.5835L1.83329 9.00016C1.72294 9.32202 1.66663 9.65992 1.66663 10.0002V13.3335C1.66663 13.8335 1.99996 14.1668 2.49996 14.1668H4.16663M15.8333 14.1668C15.8333 15.0873 15.0871 15.8335 14.1666 15.8335C13.2462 15.8335 12.5 15.0873 12.5 14.1668M15.8333 14.1668C15.8333 13.2464 15.0871 12.5002 14.1666 12.5002C13.2462 12.5002 12.5 13.2464 12.5 14.1668M4.16663 14.1668C4.16663 15.0873 4.91282 15.8335 5.83329 15.8335C6.75377 15.8335 7.49996 15.0873 7.49996 14.1668M4.16663 14.1668C4.16663 13.2464 4.91282 12.5002 5.83329 12.5002C6.75377 12.5002 7.49996 13.2464 7.49996 14.1668M7.49996 14.1668H12.5" stroke="#1E729C" stroke-width="1.5" stroke-linecap="round" stroke-linejoin="round"/>
</svg>
