<svg preserveAspectRatio="none" width="100%" height="100%" overflow="visible" style="display: block;" viewBox="0 0 48 48" fill="none" xmlns="http://www.w3.org/2000/svg">
<g id="e911_emergency">
<path id="Vector" d="M20.7553 22.5715H27.2445C27.6828 22.5715 28.0334 22.6937 28.352 22.9407V22.9416C28.6932 23.2058 28.9223 23.5333 29.0561 23.9641L33.1703 37.5071L33.4936 38.5715H36.0004C36.0654 38.5716 36.0919 38.5821 36.0971 38.5842C36.1008 38.5857 36.1169 38.5921 36.1479 38.6233L36.1488 38.6243C36.1797 38.6553 36.1875 38.672 36.1899 38.678C36.1928 38.6853 36.2035 38.7154 36.2035 38.7844C36.2035 38.8533 36.1923 38.8805 36.1908 38.884C36.1899 38.8865 36.1854 38.8996 36.1586 38.926H36.1576C36.1279 38.9553 36.1117 38.9627 36.1059 38.9651C36.098 38.9682 36.0682 38.9787 36.0004 38.9788H12.0004C11.9349 38.9788 11.9078 38.9681 11.9027 38.9661C11.899 38.9645 11.8829 38.9581 11.852 38.927L11.851 38.926L11.811 38.8723C11.8081 38.8652 11.7963 38.8352 11.7963 38.7659C11.7963 38.6977 11.8073 38.6703 11.809 38.6663C11.8098 38.6642 11.8141 38.6511 11.8412 38.6243L11.8422 38.6233C11.8717 38.5941 11.8881 38.5875 11.894 38.5852C11.9014 38.5822 11.9317 38.5715 12.0004 38.5715H14.5063L14.8295 37.5071L18.9438 23.9651C19.0775 23.5338 19.3064 23.2059 19.6479 22.9416L19.6488 22.9407C19.9673 22.694 20.3173 22.5716 20.7553 22.5715ZM19.3686 24.0471L15.5883 36.6399L15.0082 38.5715H32.9916L32.4115 36.6399L28.6313 24.0471L28.31 22.9788H19.6899L19.3686 24.0471ZM2.94962 27.7961H8.94962C9.0152 27.7961 9.04376 27.8068 9.05119 27.8098L9.11076 27.8547C9.14279 27.8865 9.14986 27.9038 9.15177 27.9084C9.15413 27.9142 9.16544 27.9419 9.16544 28.009C9.16544 28.0761 9.15459 28.1017 9.15373 28.1038C9.15266 28.1063 9.15118 28.1096 9.14787 28.1145C9.14439 28.1196 9.13605 28.1296 9.12052 28.1448C9.08786 28.1766 9.0685 28.1853 9.05998 28.1887C9.05027 28.1926 9.01868 28.2034 8.94962 28.2034H2.94962C2.88451 28.2033 2.85806 28.1927 2.85294 28.1907C2.84923 28.1891 2.83313 28.1828 2.80216 28.1516L2.80119 28.1506L2.76017 28.0969C2.75719 28.0895 2.74655 28.0599 2.7465 27.9914C2.7465 27.9223 2.75776 27.8944 2.75919 27.8909C2.76026 27.8882 2.76503 27.8749 2.79142 27.8489H2.7924C2.82206 27.8196 2.83833 27.8131 2.84416 27.8108C2.85157 27.8078 2.88106 27.7962 2.94962 27.7961ZM39.0502 27.7961H45.0502C45.1142 27.7962 45.1411 27.8065 45.1469 27.8088C45.1506 27.8103 45.1669 27.8169 45.1977 27.8479L45.1996 27.8489C45.2299 27.8793 45.2371 27.8964 45.2397 27.9026C45.2425 27.9097 45.2533 27.9397 45.2533 28.009C45.2533 28.0774 45.2423 28.1046 45.2406 28.1086C45.2398 28.1107 45.2357 28.1237 45.2084 28.1506L45.2074 28.1516C45.1786 28.1801 45.1627 28.1872 45.1567 28.1897C45.1496 28.1925 45.1195 28.2033 45.0502 28.2034H39.0502C38.9842 28.2034 38.9573 28.1926 38.9526 28.1907C38.9485 28.189 38.9322 28.1822 38.9018 28.1516L38.9008 28.1506C38.8701 28.1198 38.8632 28.1029 38.8608 28.0969C38.8579 28.0898 38.8462 28.0605 38.8461 27.9914C38.8461 27.9223 38.8574 27.8944 38.8588 27.8909L38.892 27.8489C38.9214 27.8198 38.9378 27.8132 38.9438 27.8108C38.9509 27.8079 38.9808 27.7961 39.0502 27.7961ZM38.8617 13.1838C38.8629 13.1845 38.8644 13.1862 38.8666 13.1877C38.8737 13.1926 38.8885 13.2034 38.9096 13.2248L38.9194 13.2356C38.9688 13.2851 38.9809 13.3132 38.9828 13.3176C38.9842 13.3208 38.9897 13.3328 38.9897 13.3684C38.9897 13.4048 38.9841 13.4173 38.9828 13.4202C38.9803 13.4259 38.9675 13.454 38.9194 13.5022L38.9135 13.508L34.6703 17.801C34.6221 17.8492 34.5945 17.8613 34.5893 17.8635C34.5855 17.8651 34.5709 17.8713 34.5307 17.8713C34.4917 17.8713 34.4782 17.8649 34.475 17.8635C34.4695 17.8611 34.4417 17.8489 34.394 17.801L34.3891 17.7952L34.3832 17.7893L34.3344 17.7346C34.3251 17.7212 34.3221 17.7124 34.3207 17.7092C34.3184 17.7037 34.31 17.6846 34.31 17.635C34.31 17.587 34.3175 17.568 34.3197 17.5627C34.322 17.5575 34.3336 17.5312 34.3803 17.4856L34.392 17.4739L38.5893 13.2756C38.6694 13.2093 38.7354 13.1868 38.8334 13.1838C38.8488 13.1834 38.8579 13.1833 38.8617 13.1838ZM9.22502 13.1536C9.26133 13.1536 9.27665 13.159 9.28459 13.1623C9.29431 13.1665 9.32524 13.182 9.37638 13.2307L13.6567 17.4739H13.6576C13.706 17.5222 13.7179 17.5498 13.7201 17.5549C13.7217 17.5586 13.7289 17.5725 13.7289 17.6125C13.7289 17.6515 13.7224 17.6651 13.7211 17.6682C13.7188 17.6736 13.7056 17.7005 13.6576 17.7483L13.6518 17.7551L13.6459 17.761C13.6003 17.8073 13.5752 17.8181 13.5717 17.8196C13.5687 17.8208 13.5517 17.8278 13.5043 17.8274C13.4492 17.8269 13.4239 17.818 13.4135 17.8137C13.4031 17.8093 13.3746 17.7962 13.3295 17.7512H13.3305L9.1215 13.5422C9.0648 13.4751 9.04316 13.419 9.04044 13.3225V13.2922C9.04106 13.2912 9.04328 13.2909 9.04435 13.2893C9.04908 13.2824 9.05987 13.2675 9.08146 13.2463L9.10392 13.2239C9.15521 13.1714 9.1838 13.1594 9.18595 13.1584C9.18817 13.1575 9.19043 13.1562 9.19377 13.1555C9.19775 13.1547 9.20759 13.1536 9.22502 13.1536ZM24.0092 7.01C24.0762 7.01002 24.1018 7.02086 24.1039 7.02172C24.1064 7.02275 24.1092 7.02453 24.1137 7.02758C24.1188 7.03105 24.1296 7.03922 24.1449 7.05492C24.1763 7.08713 24.1854 7.10584 24.1889 7.11449C24.1927 7.12407 24.2035 7.15564 24.2035 7.22484V13.2248C24.2035 13.2909 24.1928 13.3177 24.1908 13.3225C24.1892 13.3265 24.1824 13.3428 24.1518 13.3733L24.1508 13.3743C24.1201 13.4048 24.1032 13.4118 24.0971 13.4143C24.0899 13.4172 24.06 13.4289 23.9906 13.4289C23.922 13.4289 23.8947 13.4178 23.891 13.4163C23.889 13.4154 23.876 13.4104 23.849 13.383L23.81 13.3313C23.8071 13.324 23.7963 13.294 23.7963 13.2248V7.22484C23.7963 7.16029 23.8068 7.13215 23.81 7.12426C23.8126 7.11787 23.8205 7.09836 23.8539 7.06469L23.8549 7.06371C23.8866 7.03176 23.9039 7.0246 23.9086 7.0227C23.9151 7.02009 23.9432 7.01 24.0092 7.01Z" stroke="var(--stroke-0, #2DA2DB)" stroke-width="3"/>
</g>
</svg>
