<svg width="40" height="40" viewBox="0 0 40 40" fill="none" xmlns="http://www.w3.org/2000/svg">
<path d="M30.4087 9.64844C29.542 9.64844 28.7984 9.33983 28.1779 8.7226C27.5573 8.10538 27.247 7.36358 27.247 6.49719C27.247 5.63052 27.5562 4.88691 28.1745 4.26635C28.7929 3.64608 29.5354 3.33594 30.402 3.33594C31.2684 3.33594 32.0113 3.64497 32.6308 4.26302C33.2502 4.88108 33.56 5.62413 33.56 6.49219C33.56 7.35747 33.2513 8.09983 32.6341 8.71927C32.0169 9.33872 31.2751 9.64844 30.4087 9.64844ZM27.6095 35.3268V22.6664C27.6095 21.863 27.4141 21.14 27.0233 20.4972C26.6322 19.8547 26.048 19.3915 25.2708 19.1076L27.1087 13.8784C27.3376 13.184 27.7556 12.6268 28.3629 12.2068C28.9701 11.7868 29.6502 11.5768 30.4033 11.5768C31.1566 11.5768 31.8369 11.7868 32.4441 12.2068C33.0513 12.6268 33.4694 13.184 33.6983 13.8784L37.435 24.4534C37.6002 24.902 37.5483 25.3319 37.2791 25.743C37.0097 26.1539 36.6229 26.3593 36.1187 26.3593H33.365V35.3268C33.365 35.7273 33.2286 36.064 32.9558 36.3368C32.683 36.6096 32.3463 36.7459 31.9458 36.7459H29.0387C28.6315 36.7459 28.2915 36.6096 28.0187 36.3368C27.7459 36.064 27.6095 35.7273 27.6095 35.3268ZM20.6291 19.2259C19.9052 19.2259 19.2887 18.9704 18.7795 18.4593C18.2701 17.9482 18.0154 17.3308 18.0154 16.6072C18.0154 15.8833 18.2687 15.2673 18.7754 14.7593C19.282 14.2509 19.8972 13.9968 20.6208 13.9968C21.3447 13.9968 21.9612 14.2501 22.4704 14.7568C22.9798 15.2634 23.2345 15.8787 23.2345 16.6026C23.2345 17.3262 22.9812 17.9444 22.4745 18.4572C21.9679 18.9697 21.3527 19.2259 20.6291 19.2259ZM8.82787 9.64844C7.9612 9.64844 7.21773 9.33983 6.59745 8.7226C5.9769 8.10538 5.66662 7.36358 5.66662 6.49719C5.66662 5.63052 5.97565 4.88691 6.5937 4.26635C7.21204 3.64608 7.95523 3.33594 8.82329 3.33594C9.68857 3.33594 10.4308 3.64497 11.05 4.26302C11.6694 4.88108 11.9791 5.62413 11.9791 6.49219C11.9791 7.35747 11.6705 8.09983 11.0533 8.71927C10.4363 9.33872 9.69454 9.64844 8.82787 9.64844ZM5.67204 35.3268V24.6926H4.15495C3.75829 24.6926 3.42593 24.5584 3.15787 24.2901C2.88954 24.022 2.75537 23.6897 2.75537 23.293V14.4455C2.75537 13.6647 3.03426 12.9964 3.59204 12.4405C4.15009 11.8847 4.82079 11.6068 5.60412 11.6068H12.0416C12.825 11.6068 13.4956 11.8847 14.0537 12.4405C14.6115 12.9964 14.8904 13.6647 14.8904 14.4455V23.293C14.8904 23.6897 14.7562 24.022 14.4879 24.2901C14.2198 24.5584 13.8875 24.6926 13.4908 24.6926H11.9737V35.3268C11.9737 35.7273 11.8373 36.064 11.5645 36.3368C11.2918 36.6096 10.955 36.7459 10.5541 36.7459H7.10245C6.6944 36.7459 6.35398 36.6096 6.0812 36.3368C5.80843 36.064 5.67204 35.7273 5.67204 35.3268ZM18.2237 35.3268V29.6426H17.3904C17.0362 29.6426 16.7393 29.5229 16.4995 29.2834C16.2601 29.0437 16.1404 28.7468 16.1404 28.3926V22.9255C16.1404 22.343 16.3436 21.8487 16.75 21.4426C17.1561 21.0362 17.6504 20.833 18.2329 20.833H23.017C23.5995 20.833 24.0938 21.0362 24.5 21.4426C24.9063 21.8487 25.1095 22.343 25.1095 22.9255V28.3926C25.1095 28.7468 24.9898 29.0437 24.7504 29.2834C24.5106 29.5229 24.2137 29.6426 23.8595 29.6426H23.0262V35.3268C23.0262 35.7273 22.8898 36.064 22.617 36.3368C22.3443 36.6096 22.0076 36.7459 21.607 36.7459H19.6429C19.2423 36.7459 18.9056 36.6096 18.6329 36.3368C18.3601 36.064 18.2237 35.7273 18.2237 35.3268Z" stroke="#2DA2DB" stroke-width="3" stroke-linecap="round" stroke-linejoin="round"/>
</svg>
