<svg preserveAspectRatio="none" width="100%" height="100%" overflow="visible" style="display: block;" viewBox="0 0 24 24" fill="none" xmlns="http://www.w3.org/2000/svg">
<g id="handyman">
<path id="Vector" d="M19.2913 22.3167C19.1793 22.3167 19.0747 22.2972 18.9775 22.258C18.8802 22.2187 18.7858 22.1533 18.6945 22.062L12.555 15.9223C12.4637 15.8309 12.3983 15.7367 12.359 15.6395C12.3197 15.5422 12.3 15.4375 12.3 15.3255C12.3 15.2135 12.3197 15.1079 12.359 15.0087C12.3983 14.9094 12.4637 14.8141 12.555 14.7228L14.6918 12.5857C14.7831 12.4946 14.8774 12.4283 14.9748 12.387C15.0721 12.3457 15.1787 12.325 15.2945 12.325C15.4065 12.325 15.5112 12.3457 15.6085 12.387C15.7057 12.4283 15.7999 12.4946 15.8913 12.5857L22.031 18.7315C22.1223 18.8228 22.1887 18.9162 22.23 19.0115C22.2712 19.1067 22.2918 19.2123 22.2918 19.3283C22.2918 19.4403 22.2702 19.5458 22.227 19.645C22.1837 19.7443 22.1183 19.8377 22.031 19.925L19.894 22.062C19.8027 22.1533 19.7084 22.2187 19.6113 22.258C19.5139 22.2972 19.4073 22.3167 19.2913 22.3167ZM19.2973 20.3675L20.3365 19.3283L15.2885 14.2745L14.2495 15.3135L19.2973 20.3675ZM4.68975 22.311C4.57775 22.311 4.46892 22.2923 4.36325 22.255C4.25775 22.2177 4.15933 22.1533 4.068 22.062L1.956 19.95C1.86467 19.8627 1.80033 19.7672 1.763 19.6635C1.72567 19.56 1.707 19.4503 1.707 19.3343C1.707 19.2223 1.72567 19.1167 1.763 19.0175C1.80033 18.9182 1.86467 18.8228 1.956 18.7315L7.7185 12.975H9.89725L10.8293 12.043L6.3825 7.59625H4.92175L1.67125 4.34575L4.28375 1.73325L7.53425 4.98375V6.4445L11.981 10.8913L15.249 7.62325L13.544 5.9185L14.944 4.5245H12.119L11.6152 4.01475L14.9708 0.65325L15.4805 1.169V3.988L16.8805 2.588L21.231 6.9445C21.489 7.2065 21.6928 7.506 21.8425 7.843C21.992 8.17983 22.0668 8.53758 22.0668 8.91625C22.0668 9.27358 22.0047 9.61733 21.8805 9.9475C21.7562 10.2778 21.586 10.5759 21.37 10.8417L19.1913 8.663L17.7555 10.099L16.4255 8.769L11.049 14.1457V16.3055L5.2865 22.062C5.19517 22.1533 5.10183 22.2177 5.0065 22.255C4.91117 22.2923 4.80558 22.311 4.68975 22.311ZM4.68975 20.3675L9.7495 15.3135V14.2745H8.71025L3.6505 19.3283L4.68975 20.3675ZM4.68975 20.3675L3.6505 19.3283L4.1825 19.8353L4.68975 20.3675Z" fill="var(--fill-0, #1E729C)"/>
</g>
</svg>
