<svg preserveAspectRatio="none" width="100%" height="100%" overflow="visible" style="display: block;" viewBox="0 0 48 48" fill="none" xmlns="http://www.w3.org/2000/svg">
<g id="lightbulb_2">
<path id="Vector" d="M19.8143 40.9292H28.2362C28.7123 40.9293 29.1101 41.0917 29.4315 41.4156C29.7529 41.7396 29.9139 42.1406 29.9139 42.6197C29.9139 43.0983 29.7535 43.493 29.4324 43.8052C29.1111 44.1177 28.7127 44.2739 28.2362 44.274H19.8143C19.337 44.274 18.9406 44.1116 18.6239 43.7876C18.3068 43.4636 18.1483 43.0626 18.1483 42.5835C18.1484 42.1046 18.3071 41.7101 18.6239 41.398C18.9405 41.086 19.3367 40.9292 19.8143 40.9292ZM23.9998 7.07084C20.947 7.07088 18.3613 8.13913 16.2449 10.2759C14.1288 12.4125 13.0703 15.002 13.0701 18.0425C13.0701 19.8431 13.4799 21.5299 14.2977 23.1021C15.1152 24.6747 16.2632 25.9699 17.742 26.9869L18.8953 27.7867C19.1251 27.977 19.305 28.1844 19.4354 28.4087C19.5652 28.632 19.6306 28.8901 19.6307 29.1831V32.8814H28.3699V29.1831C28.37 28.8847 28.4346 28.6253 28.5643 28.4048C28.6949 28.1827 28.8759 27.9764 29.1063 27.7857L29.1053 27.7847L30.2664 26.9829C31.7397 25.9596 32.8854 24.6542 33.703 23.0669C34.5208 21.4797 34.9295 19.7873 34.9295 17.9908C34.9295 14.9478 33.871 12.3666 31.7547 10.2486C29.6383 8.13011 27.0527 7.07084 23.9998 7.07084ZM16.0242 29.8286L16.0135 29.8208C14.0216 28.4572 12.4755 26.7204 11.3758 24.6099C10.2761 22.4996 9.72645 20.25 9.72639 17.8619C9.72639 13.9255 11.117 10.5834 13.9002 7.83549C16.6835 5.08753 20.0556 3.71441 24.0174 3.71439C27.9788 3.71439 31.3463 5.1016 34.1219 7.8765C36.8978 10.6514 38.286 14.026 38.286 18.0025C38.286 20.3937 37.7309 22.6286 36.6209 24.7076C35.5109 26.7866 33.9664 28.4911 31.9871 29.8208L31.9764 29.8286V32.8443C31.9764 33.786 31.6455 34.587 30.9832 35.2476C30.3206 35.9083 29.5245 36.2378 28.5946 36.2378H19.4178C18.4761 36.2378 17.6751 35.9082 17.0145 35.2476C16.3539 34.587 16.0242 33.786 16.0242 32.8443V29.8286Z" fill="var(--fill-0, #F4813E)" stroke="var(--stroke-0, #F4813E)" stroke-width="0.05"/>
</g>
</svg>
