<svg width="40" height="40" viewBox="0 0 40 40" fill="none" xmlns="http://www.w3.org/2000/svg">
<path d="M20 28.3333V35M20 8.33333V5M20 15V20M3.46152 30.7483C3.3193 31.2446 3.29428 31.7671 3.38843 32.2746C3.48259 32.7822 3.69334 33.261 4.00408 33.6732C4.31482 34.0854 4.71705 34.4198 5.17908 34.6501C5.64111 34.8803 6.1503 35.0001 6.66652 35H33.3332C33.8494 35.0003 34.3585 34.8807 34.8206 34.6506C35.2827 34.4206 35.685 34.0864 35.9959 33.6743C36.3068 33.2623 36.5178 32.7837 36.6122 32.2762C36.7066 31.7687 36.6818 31.2463 36.5398 30.75L29.8732 7.41667C29.6739 6.72008 29.2532 6.10738 28.6746 5.67132C28.096 5.23527 27.391 4.9996 26.6665 5H13.3332C12.6087 4.9996 11.9037 5.23527 11.3251 5.67132C10.7465 6.10738 10.3258 6.72008 10.1265 7.41667L3.46152 30.7483Z" stroke="#2DA2DB" stroke-width="3" stroke-linecap="round" stroke-linejoin="round"/>
</svg>
