<svg width="40" height="40" viewBox="0 0 40 40" fill="none" xmlns="http://www.w3.org/2000/svg">
<rect width="40" height="40" fill="#B1B1B1"/>
<g id="INDUSTRIES">
<path d="M-2293 -4798C-2293 -4799.1 -2292.1 -4800 -2291 -4800H10941C10942.1 -4800 10943 -4799.1 10943 -4798V3397C10943 3398.1 10942.1 3399 10941 3399H-2291C-2292.1 3399 -2293 3398.1 -2293 3397V-4798Z" fill="#E8E8E8"/>
<path d="M-2291 -4800V-4799H10941V-4800V-4801H-2291V-4800ZM10943 -4798H10942V3397H10943H10944V-4798H10943ZM10941 3399V3398H-2291V3399V3400H10941V3399ZM-2293 3397H-2292V-4798H-2293H-2294V3397H-2293ZM-2291 3399V3398C-2291.55 3398 -2292 3397.55 -2292 3397H-2293H-2294C-2294 3398.66 -2292.66 3400 -2291 3400V3399ZM10943 3397H10942C10942 3397.55 10941.6 3398 10941 3398V3399V3400C10942.7 3400 10944 3398.66 10944 3397H10943ZM10941 -4800V-4799C10941.6 -4799 10942 -4798.55 10942 -4798H10943H10944C10944 -4799.66 10942.7 -4801 10941 -4801V-4800ZM-2291 -4800V-4801C-2292.66 -4801 -2294 -4799.66 -2294 -4798H-2293H-2292C-2292 -4798.55 -2291.55 -4799 -2291 -4799V-4800Z" fill="black" fill-opacity="0.1"/>
<g id="TUNNELLING">
<g id="2">
<mask id="path-3-inside-1_10408_10437" fill="white">
<path d="M-104 -270H1336V278H-104V-270Z"/>
</mask>
<path d="M-104 -270H1336V278H-104V-270Z" fill="#E9F3F9"/>
<path d="M-104 -270V-271H-105V-270H-104ZM1336 -270H1337V-271H1336V-270ZM1336 278V279H1337V278H1336ZM-104 278H-105V279H-104V278ZM-104 -270V-269H1336V-270V-271H-104V-270ZM1336 -270H1335V278H1336H1337V-270H1336ZM1336 278V277H-104V278V279H1336V278ZM-104 278H-103V-270H-104H-105V278H-104Z" fill="#060309" fill-opacity="0.15" mask="url(#path-3-inside-1_10408_10437)"/>
<g id="Container">
<g id="IMG and card">
<g clip-path="url(#clip0_10408_10437)">
<g id="Frame 182">
<g id="Card">
<g clip-path="url(#clip1_10408_10437)">
<path d="M-24 -45H189.333V135H-24V-45Z" fill="white" fill-opacity="0.9"/>
<g id="Content">
<g id="Content Top">
<g id="road">
<path id="Vector" d="M20 28.3333V35M20 8.33333V5M20 15V20M3.46152 30.7483C3.3193 31.2446 3.29428 31.7671 3.38843 32.2746C3.48259 32.7822 3.69334 33.261 4.00408 33.6732C4.31482 34.0854 4.71705 34.4198 5.17908 34.6501C5.64111 34.8803 6.1503 35.0001 6.66652 35H33.3332C33.8494 35.0003 34.3585 34.8807 34.8206 34.6506C35.2827 34.4206 35.685 34.0864 35.9959 33.6743C36.3068 33.2623 36.5178 32.7837 36.6122 32.2762C36.7066 31.7687 36.6818 31.2463 36.5398 30.75L29.8732 7.41667C29.6739 6.72008 29.2532 6.10738 28.6746 5.67132C28.096 5.23527 27.391 4.9996 26.6665 5H13.3332C12.6087 4.9996 11.9037 5.23527 11.3251 5.67132C10.7465 6.10738 10.3258 6.72008 10.1265 7.41667L3.46152 30.7483Z" stroke="#1E729C" stroke-width="3" stroke-linecap="round" stroke-linejoin="round"/>
</g>
</g>
</g>
</g>
<path d="M-24 -45V-45.5H-24.5V-45H-24ZM189.333 -45H189.833V-45.5H189.333V-45ZM189.333 135V135.5H189.833V135H189.333ZM-24 135H-24.5V135.5H-24V135ZM-24 -45V-44.5H189.333V-45V-45.5H-24V-45ZM189.333 -45H188.833V135H189.333H189.833V-45H189.333ZM189.333 135V134.5H-24V135V135.5H189.333V135ZM-24 135H-23.5V-45H-24H-24.5V135H-24Z" fill="#D9D9DA"/>
</g>
</g>
</g>
<rect x="-23.5" y="-44.5" width="1279" height="179" rx="7.5" stroke="#D9D9DA"/>
</g>
</g>
</g>
</g>
</g>
<defs>
<clipPath id="clip0_10408_10437">
<rect x="-24" y="-45" width="1280" height="180" rx="8" fill="white"/>
</clipPath>
<clipPath id="clip1_10408_10437">
<path d="M-24 -45H189.333V135H-24V-45Z" fill="white"/>
</clipPath>
</defs>
</svg>
