<svg width="40" height="40" viewBox="0 0 40 40" fill="none" xmlns="http://www.w3.org/2000/svg">
<path d="M3.33337 36.6663V19.9997C3.33337 15.5794 5.08932 11.3402 8.21493 8.21456C11.3405 5.08896 15.5798 3.33301 20 3.33301C24.4203 3.33301 28.6595 5.08896 31.7852 8.21456C34.9108 11.3402 36.6667 15.5794 36.6667 19.9997V36.6663M25 11.3327V13.666C25 14.9037 24.4733 16.0907 23.5356 16.9658C22.5979 17.841 21.3261 18.3327 20 18.3327C18.674 18.3327 17.4022 17.841 16.4645 16.9658C15.5268 16.0907 15 14.9037 15 13.666V11.3327M16.6667 24.9997H16.6834M23.3334 24.9997H23.35M15 31.6663L11.6667 36.6663M25 31.6663L28.3334 36.6663M16.6667 31.6663C14.8986 31.6663 13.2029 30.964 11.9527 29.7137C10.7024 28.4635 10 26.7678 10 24.9997V19.9997C10 17.3475 11.0536 14.804 12.929 12.9286C14.8043 11.0532 17.3479 9.99967 20 9.99967C22.6522 9.99967 25.1957 11.0532 27.0711 12.9286C28.9465 14.804 30 17.3475 30 19.9997V24.9997C30 26.7678 29.2977 28.4635 28.0474 29.7137C26.7972 30.964 25.1015 31.6663 23.3334 31.6663H16.6667Z" stroke="#2DA2DB" stroke-width="3" stroke-linecap="round" stroke-linejoin="round"/>
</svg>
