<svg width="40" height="40" viewBox="0 0 40 40" fill="none" xmlns="http://www.w3.org/2000/svg">
<rect width="40" height="40" fill="#B1B1B1"/>
<g id="INDUSTRIES">
<path d="M-2719.67 -4798C-2719.67 -4799.1 -2718.77 -4800 -2717.67 -4800H10514.3C10515.4 -4800 10516.3 -4799.1 10516.3 -4798V3397C10516.3 3398.1 10515.4 3399 10514.3 3399H-2717.67C-2718.77 3399 -2719.67 3398.1 -2719.67 3397V-4798Z" fill="#E8E8E8"/>
<path d="M-2717.67 -4800V-4799H10514.3V-4800V-4801H-2717.67V-4800ZM10516.3 -4798H10515.3V3397H10516.3H10517.3V-4798H10516.3ZM10514.3 3399V3398H-2717.67V3399V3400H10514.3V3399ZM-2719.67 3397H-2718.67V-4798H-2719.67H-2720.67V3397H-2719.67ZM-2717.67 3399V3398C-2718.22 3398 -2718.67 3397.55 -2718.67 3397H-2719.67H-2720.67C-2720.67 3398.66 -2719.32 3400 -2717.67 3400V3399ZM10516.3 3397H10515.3C10515.3 3397.55 10514.9 3398 10514.3 3398V3399V3400C10516 3400 10517.3 3398.66 10517.3 3397H10516.3ZM10514.3 -4800V-4799C10514.9 -4799 10515.3 -4798.55 10515.3 -4798H10516.3H10517.3C10517.3 -4799.66 10516 -4801 10514.3 -4801V-4800ZM-2717.67 -4800V-4801C-2719.32 -4801 -2720.67 -4799.66 -2720.67 -4798H-2719.67H-2718.67C-2718.67 -4798.55 -2718.22 -4799 -2717.67 -4799V-4800Z" fill="black" fill-opacity="0.1"/>
<g id="TUNNELLING">
<g id="2">
<mask id="path-3-inside-1_10408_10437" fill="white">
<path d="M-530.667 -270H909.333V278H-530.667V-270Z"/>
</mask>
<path d="M-530.667 -270H909.333V278H-530.667V-270Z" fill="#E9F3F9"/>
<path d="M-530.667 -270V-271H-531.667V-270H-530.667ZM909.333 -270H910.333V-271H909.333V-270ZM909.333 278V279H910.333V278H909.333ZM-530.667 278H-531.667V279H-530.667V278ZM-530.667 -270V-269H909.333V-270V-271H-530.667V-270ZM909.333 -270H908.333V278H909.333H910.333V-270H909.333ZM909.333 278V277H-530.667V278V279H909.333V278ZM-530.667 278H-529.667V-270H-530.667H-531.667V278H-530.667Z" fill="#060309" fill-opacity="0.15" mask="url(#path-3-inside-1_10408_10437)"/>
<g id="Container">
<g id="IMG and card">
<g clip-path="url(#clip0_10408_10437)">
<g id="Frame 182">
<g id="Card">
<g clip-path="url(#clip1_10408_10437)">
<path d="M-24 -45H189.333V135H-24V-45Z" fill="white" fill-opacity="0.9"/>
<g id="Content">
<g id="Content Top">
<g id="utility-pole">
<path id="Vector" d="M20 3.33301V36.6663M3.33337 8.33301H36.6667M5.00004 4.99967V8.33301M11.6667 4.99967V8.33301M28.3334 4.99967V8.33301M35 4.99967V8.33301M31.6667 8.33301L20 19.9997L8.33337 8.33301" stroke="#1E729C" stroke-width="3" stroke-linecap="round" stroke-linejoin="round"/>
</g>
</g>
</g>
</g>
<path d="M-24 -45V-45.5H-24.5V-45H-24ZM189.333 -45H189.833V-45.5H189.333V-45ZM189.333 135V135.5H189.833V135H189.333ZM-24 135H-24.5V135.5H-24V135ZM-24 -45V-44.5H189.333V-45V-45.5H-24V-45ZM189.333 -45H188.833V135H189.333H189.833V-45H189.333ZM189.333 135V134.5H-24V135V135.5H189.333V135ZM-24 135H-23.5V-45H-24H-24.5V135H-24Z" fill="#D9D9DA"/>
</g>
</g>
</g>
<rect x="-450.167" y="-44.5" width="1279" height="179" rx="7.5" stroke="#D9D9DA"/>
</g>
</g>
</g>
</g>
</g>
<defs>
<clipPath id="clip0_10408_10437">
<rect x="-450.667" y="-45" width="1280" height="180" rx="8" fill="white"/>
</clipPath>
<clipPath id="clip1_10408_10437">
<path d="M-24 -45H189.333V135H-24V-45Z" fill="white"/>
</clipPath>
</defs>
</svg>
