<svg width="20" height="20" viewBox="0 0 20 20" fill="none" xmlns="http://www.w3.org/2000/svg">
<rect width="20" height="20" fill="#B1B1B1"/>
<g id="INDUSTRIES">
<path d="M-2279 -3032C-2279 -3033.1 -2278.1 -3034 -2277 -3034H10955C10956.1 -3034 10957 -3033.1 10957 -3032V5163C10957 5164.1 10956.1 5165 10955 5165H-2277C-2278.1 5165 -2279 5164.1 -2279 5163V-3032Z" fill="#E8E8E8"/>
<path d="M-2277 -3034V-3033H10955V-3034V-3035H-2277V-3034ZM10957 -3032H10956V5163H10957H10958V-3032H10957ZM10955 5165V5164H-2277V5165V5166H10955V5165ZM-2279 5163H-2278V-3032H-2279H-2280V5163H-2279ZM-2277 5165V5164C-2277.55 5164 -2278 5163.55 -2278 5163H-2279H-2280C-2280 5164.66 -2278.66 5166 -2277 5166V5165ZM10957 5163H10956C10956 5163.55 10955.6 5164 10955 5164V5165V5166C10956.7 5166 10958 5164.66 10958 5163H10957ZM10955 -3034V-3033C10955.6 -3033 10956 -3032.55 10956 -3032H10957H10958C10958 -3033.66 10956.7 -3035 10955 -3035V-3034ZM-2277 -3034V-3035C-2278.66 -3035 -2280 -3033.66 -2280 -3032H-2279H-2278C-2278 -3032.55 -2277.55 -3033 -2277 -3033V-3034Z" fill="black" fill-opacity="0.1"/>
<g id="TUNNELLING">
<g id="Frame 186">
<rect width="1440" height="620" transform="translate(-90 -302)" fill="white"/>
<g id="Text &#38; IMG">
<g id="Container">
<g id="Frame 183">
<g id="Frame 184">
<g id="Container_2">
<g id="Container_3">
<path d="M-10 0C-10 -5.52285 -5.52285 -10 0 -10H20C25.5228 -10 30 -5.52285 30 0V20C30 25.5228 25.5228 30 20 30H0C-5.52285 30 -10 25.5228 -10 20V0Z" fill="#F2F2F2"/>
<g id="Icon">
<path id="Vector" d="M13.3333 17.5V15.8333C13.3333 14.9493 12.9821 14.1014 12.357 13.4763C11.7319 12.8512 10.884 12.5 9.99996 12.5H4.99996C4.1159 12.5 3.26806 12.8512 2.64294 13.4763C2.01782 14.1014 1.66663 14.9493 1.66663 15.8333V17.5" stroke="#1E729C" stroke-width="1.66667" stroke-linecap="round" stroke-linejoin="round"/>
<path id="Vector_2" d="M7.49996 9.16667C9.34091 9.16667 10.8333 7.67428 10.8333 5.83333C10.8333 3.99238 9.34091 2.5 7.49996 2.5C5.65901 2.5 4.16663 3.99238 4.16663 5.83333C4.16663 7.67428 5.65901 9.16667 7.49996 9.16667Z" stroke="#1E729C" stroke-width="1.66667" stroke-linecap="round" stroke-linejoin="round"/>
<path id="Vector_3" d="M18.3334 17.5001V15.8334C18.3328 15.0948 18.087 14.3774 17.6345 13.7937C17.182 13.2099 16.5485 12.793 15.8334 12.6084" stroke="#1E729C" stroke-width="1.66667" stroke-linecap="round" stroke-linejoin="round"/>
<path id="Vector_4" d="M13.3334 2.6084C14.0504 2.79198 14.6859 3.20898 15.1397 3.79366C15.5936 4.37833 15.8399 5.09742 15.8399 5.83757C15.8399 6.57771 15.5936 7.2968 15.1397 7.88147C14.6859 8.46615 14.0504 8.88315 13.3334 9.06673" stroke="#1E729C" stroke-width="1.66667" stroke-linecap="round" stroke-linejoin="round"/>
</g>
</g>
</g>
</g>
</g>
</g>
</g>
</g>
</g>
</g>
</svg>
