<svg width="40" height="40" viewBox="0 0 40 40" fill="none" xmlns="http://www.w3.org/2000/svg">
<rect width="40" height="40" fill="#B1B1B1"/>
<g id="INDUSTRIES">
<path d="M-3146.33 -4798C-3146.33 -4799.1 -3145.44 -4800 -3144.33 -4800H10087.7C10088.8 -4800 10089.7 -4799.1 10089.7 -4798V3397C10089.7 3398.1 10088.8 3399 10087.7 3399H-3144.33C-3145.44 3399 -3146.33 3398.1 -3146.33 3397V-4798Z" fill="#E8E8E8"/>
<path d="M-3144.33 -4800V-4799H10087.7V-4800V-4801H-3144.33V-4800ZM10089.7 -4798H10088.7V3397H10089.7H10090.7V-4798H10089.7ZM10087.7 3399V3398H-3144.33V3399V3400H10087.7V3399ZM-3146.33 3397H-3145.33V-4798H-3146.33H-3147.33V3397H-3146.33ZM-3144.33 3399V3398C-3144.89 3398 -3145.33 3397.55 -3145.33 3397H-3146.33H-3147.33C-3147.33 3398.66 -3145.99 3400 -3144.33 3400V3399ZM10089.7 3397H10088.7C10088.7 3397.55 10088.2 3398 10087.7 3398V3399V3400C10089.3 3400 10090.7 3398.66 10090.7 3397H10089.7ZM10087.7 -4800V-4799C10088.2 -4799 10088.7 -4798.55 10088.7 -4798H10089.7H10090.7C10090.7 -4799.66 10089.3 -4801 10087.7 -4801V-4800ZM-3144.33 -4800V-4801C-3145.99 -4801 -3147.33 -4799.66 -3147.33 -4798H-3146.33H-3145.33C-3145.33 -4798.55 -3144.89 -4799 -3144.33 -4799V-4800Z" fill="black" fill-opacity="0.1"/>
<g id="TUNNELLING">
<g id="2">
<mask id="path-3-inside-1_10408_10437" fill="white">
<path d="M-957.333 -270H482.667V278H-957.333V-270Z"/>
</mask>
<path d="M-957.333 -270H482.667V278H-957.333V-270Z" fill="#E9F3F9"/>
<path d="M-957.333 -270V-271H-958.333V-270H-957.333ZM482.667 -270H483.667V-271H482.667V-270ZM482.667 278V279H483.667V278H482.667ZM-957.333 278H-958.333V279H-957.333V278ZM-957.333 -270V-269H482.667V-270V-271H-957.333V-270ZM482.667 -270H481.667V278H482.667H483.667V-270H482.667ZM482.667 278V277H-957.333V278V279H482.667V278ZM-957.333 278H-956.333V-270H-957.333H-958.333V278H-957.333Z" fill="#060309" fill-opacity="0.15" mask="url(#path-3-inside-1_10408_10437)"/>
<g id="Container">
<g id="IMG and card">
<g clip-path="url(#clip0_10408_10437)">
<g id="Frame 182">
<g id="Card">
<g clip-path="url(#clip1_10408_10437)">
<path d="M-24 -45H189.333V135H-24V-45Z" fill="white" fill-opacity="0.9"/>
<g id="Content">
<g id="Content Top">
<g id="water_ec">
<path id="Vector" d="M18.75 22.9163V28.7525C18.75 29.1044 18.9157 29.3357 19.2471 29.4462C19.5787 29.5568 19.8412 29.4671 20.0346 29.1771L25.1604 21.5042C25.3193 21.2553 25.3279 21.0118 25.1862 20.7738C25.0446 20.5354 24.8321 20.4163 24.5487 20.4163H21.25V14.5704C21.25 14.2249 21.0843 13.9968 20.7529 13.8863C20.4212 13.7757 20.1587 13.8654 19.9654 14.1554L14.8396 21.8183C14.6807 22.0739 14.6721 22.3207 14.8137 22.5588C14.9554 22.7971 15.1712 22.9163 15.4612 22.9163H18.75ZM20 36.9154C16.1214 36.9154 12.888 35.5865 10.3 32.9287C7.71165 30.2712 6.41748 26.9615 6.41748 22.9996C6.41748 21.2882 6.7954 19.5792 7.55123 17.8725C8.30679 16.1656 9.27554 14.5049 10.4575 12.8904C11.6391 11.276 12.9464 9.73583 14.3791 8.27C15.8116 6.80417 17.2121 5.45986 18.5804 4.23708C18.8015 4.05042 19.0296 3.91736 19.2646 3.83792C19.4993 3.75847 19.7444 3.71875 20 3.71875C20.2555 3.71875 20.5007 3.75847 20.7354 3.83792C20.9704 3.91736 21.1985 4.05042 21.4196 4.23708C22.7879 5.45986 24.1883 6.80417 25.6208 8.27C27.0536 9.73583 28.3608 11.276 29.5425 12.8904C30.7244 14.5049 31.6948 16.1656 32.4537 17.8725C33.2129 19.5792 33.5925 21.2882 33.5925 22.9996C33.5925 26.9615 32.2966 30.2712 29.705 32.9287C27.1136 35.5865 23.8786 36.9154 20 36.9154ZM20 34.0767C23.0844 34.0767 25.6462 33.0225 27.6854 30.9142C29.7243 28.8056 30.7437 26.1674 30.7437 22.9996C30.7437 20.8385 29.8285 18.3769 27.9979 15.615C26.1671 12.8533 23.5011 9.91361 20 6.79583C16.4989 9.91361 13.8329 12.8533 12.0021 15.615C10.1715 18.3769 9.25623 20.8385 9.25623 22.9996C9.25623 26.1674 10.2757 28.8056 12.3146 30.9142C14.3537 33.0225 16.9155 34.0767 20 34.0767Z" fill="#1E729C"/>
</g>
</g>
</g>
</g>
<path d="M-24 -45V-45.5H-24.5V-45H-24ZM189.333 -45H189.833V-45.5H189.333V-45ZM189.333 135V135.5H189.833V135H189.333ZM-24 135H-24.5V135.5H-24V135ZM-24 -45V-44.5H189.333V-45V-45.5H-24V-45ZM189.333 -45H188.833V135H189.333H189.833V-45H189.333ZM189.333 135V134.5H-24V135V135.5H189.333V135ZM-24 135H-23.5V-45H-24H-24.5V135H-24Z" fill="#D9D9DA"/>
</g>
</g>
</g>
<rect x="-876.833" y="-44.5" width="1279" height="179" rx="7.5" stroke="#D9D9DA"/>
</g>
</g>
</g>
</g>
</g>
<defs>
<clipPath id="clip0_10408_10437">
<rect x="-877.333" y="-45" width="1280" height="180" rx="8" fill="white"/>
</clipPath>
<clipPath id="clip1_10408_10437">
<path d="M-24 -45H189.333V135H-24V-45Z" fill="white"/>
</clipPath>
</defs>
</svg>
