<svg width="16" height="16" viewBox="0 0 16 16" fill="none" xmlns="http://www.w3.org/2000/svg">
<path d="M14.6667 8.00016H13.0133C12.722 7.99954 12.4384 8.09437 12.2061 8.27014C11.9737 8.44592 11.8053 8.69296 11.7267 8.9735L10.16 14.5468C10.1499 14.5814 10.1289 14.6119 10.1 14.6335C10.0712 14.6551 10.0361 14.6668 10 14.6668C9.96395 14.6668 9.92886 14.6551 9.90001 14.6335C9.87116 14.6119 9.85011 14.5814 9.84001 14.5468L6.16001 1.4535C6.14991 1.41888 6.12886 1.38847 6.10001 1.36683C6.07116 1.34519 6.03607 1.3335 6.00001 1.3335C5.96395 1.3335 5.92886 1.34519 5.90001 1.36683C5.87116 1.38847 5.85011 1.41888 5.84001 1.4535L4.27334 7.02683C4.19499 7.30627 4.0276 7.55251 3.79659 7.72817C3.56557 7.90384 3.28356 7.99933 2.99334 8.00016H1.33334" stroke="#2DA2DB" stroke-width="0.75" stroke-linecap="round" stroke-linejoin="round"/>
</svg>
