<svg width="18" height="18" viewBox="0 0 18 18" fill="none" xmlns="http://www.w3.org/2000/svg">
<g clip-path="url(#clip0_10684_9017)">
<path d="M4.33074 9.21094C3.00856 9.21094 1.93651 10.2828 1.93651 11.6054C1.93651 12.9276 3.00856 13.9994 4.33074 13.9994C5.65312 13.9994 6.72517 12.9276 6.72517 11.6054C6.7252 10.2828 5.65312 9.21094 4.33074 9.21094ZM4.33074 12.6154C3.77289 12.6154 3.32059 12.1631 3.32059 11.6054C3.32059 11.0476 3.77289 10.5953 4.33074 10.5953C4.88883 10.5953 5.34092 11.0476 5.34092 11.6054C5.34092 12.1631 4.88883 12.6154 4.33074 12.6154Z" fill="#F4813E"/>
<path d="M13.0626 9.21094C11.7402 9.21094 10.6683 10.2828 10.6683 11.6054C10.6683 12.9276 11.7402 13.9994 13.0626 13.9994C14.3849 13.9994 15.4568 12.9276 15.4568 11.6054C15.4568 10.2828 14.3849 9.21094 13.0626 9.21094ZM13.0626 12.6154C12.5047 12.6154 12.0524 12.1631 12.0524 11.6054C12.0524 11.0476 12.5047 10.5953 13.0626 10.5953C13.6205 10.5953 14.0729 11.0476 14.0729 11.6054C14.073 12.1631 13.6205 12.6154 13.0626 12.6154Z" fill="#F4813E"/>
<path d="M16.8128 7.16914L15.5735 5.64969C15.2323 5.23146 14.7212 4.98894 14.1814 4.98894H11.0912V7.59449H10.3866V7.38338V4.56623V4.35512H13.4149V3.22852H9.11901V4.35515V4.56627H0V7.59453L5.69903 8.67617C6.80229 9.1933 7.57015 10.3115 7.57015 11.6085C7.57015 11.6323 7.56702 11.655 7.56679 11.6786H9.82674C9.82651 11.655 9.82318 11.6323 9.82318 11.6085C9.82318 9.82221 11.2765 8.36888 13.0625 8.36888C14.6807 8.36888 16.0216 9.56274 16.26 11.1152H16.6186C16.9493 11.1152 17.2174 10.8471 17.2174 10.5164V8.30451C17.2174 7.89069 17.0745 7.48961 16.8128 7.16914ZM3.02021 7.29763L1.90115 7.19452V5.41137H3.02021V7.29763ZM5.50265 7.73926L4.38358 7.63569V5.41137H5.50265V7.73926ZM7.98485 8.18308L6.86578 8.07978V5.4114H7.98485V8.18308ZM12.4009 7.41122V6.00265H14.2237C14.3834 6.00265 14.5326 6.07347 14.6335 6.19705L15.6238 7.41122H12.4009Z" fill="#F4813E"/>
</g>
<defs>
<clipPath id="clip0_10684_9017">
<rect width="17.2174" height="17.2174" fill="white"/>
</clipPath>
</defs>
</svg>
