<svg width="21" height="21" viewBox="0 0 21 21" fill="none" xmlns="http://www.w3.org/2000/svg">
<path d="M14.7863 0C11.8734 0 9.53346 2.38018 9.53346 5.34325C9.53346 5.68328 9.58121 6.0233 9.62897 6.36333L5.0924 8.01488C4.28059 6.70336 2.60922 6.26618 1.31988 7.09196C0.0305414 7.91773 -0.399239 9.61786 0.412568 10.9294C1.08112 12.0952 2.51372 12.5809 3.7553 12.0952L6.90703 17.0984C6.28623 17.9728 6.47725 19.2357 7.38456 19.8672C8.24412 20.4987 9.48571 20.3044 10.1065 19.3814C10.6318 18.6042 10.584 17.5356 9.91549 16.8555L12.8284 10.2979C13.4492 10.5408 14.1178 10.6865 14.8341 10.6865C17.747 10.6865 20.087 8.30633 20.087 5.34325C20.087 2.38018 17.6993 0 14.7863 0ZM8.81716 16.2726C8.6739 16.2241 8.57839 16.2241 8.43513 16.2241C8.19637 16.2241 7.9576 16.2726 7.76659 16.3698L4.66262 11.4637C5.1879 10.9294 5.47443 10.2008 5.47443 9.47213C5.47443 9.37498 5.47443 9.22926 5.42667 9.13211L9.96324 7.52913C10.3453 8.45206 10.9661 9.22926 11.7779 9.81216L8.81716 16.2726ZM14.7863 8.93781C12.8284 8.93781 11.2526 7.33483 11.2526 5.34325C11.2526 3.35168 12.8284 1.7487 14.7863 1.7487C16.7442 1.7487 18.3201 3.35168 18.3201 5.34325C18.3201 7.33483 16.7442 8.93781 14.7863 8.93781Z" fill="#2DA2DB"/>
</svg>
