<svg width="27" height="30" viewBox="0 0 27 30" fill="none" xmlns="http://www.w3.org/2000/svg">
<path d="M1.46438e-07 3.33432C-0.00017368 2.74781 0.154409 2.17163 0.44814 1.66397C0.74187 1.15631 1.16435 0.735138 1.67292 0.442981C2.18149 0.150825 2.75814 -0.00197181 3.34465 1.92119e-05C3.93116 0.00201024 4.50676 0.158719 5.01333 0.454321L25.0083 12.1177C25.5129 12.4105 25.9319 12.8306 26.2232 13.336C26.5146 13.8414 26.6682 14.4145 26.6687 14.9979C26.6692 15.5813 26.5166 16.1546 26.2261 16.6605C25.9356 17.1665 25.5174 17.5873 25.0133 17.881L5.01333 29.5477C4.50676 29.8433 3.93116 30 3.34465 30.002C2.75814 30.004 2.18149 29.8512 1.67292 29.559C1.16435 29.2668 0.74187 28.8457 0.44814 28.338C0.154409 27.8303 -0.00017368 27.2542 1.46438e-07 26.6677V3.33432Z" fill="white"/>
</svg>
