<svg preserveAspectRatio="none" width="100%" height="100%" overflow="visible" style="display: block;" viewBox="0 0 48 48" fill="none" xmlns="http://www.w3.org/2000/svg">
<g id="apps">
<path id="Vector" d="M11.1645 34.8998C11.6812 34.8998 12.0734 35.0411 12.4086 35.3217L12.5492 35.4506C12.9153 35.8165 13.1 36.2449 13.1 36.8354C13.1 37.426 12.9154 37.8553 12.5482 38.223V38.224C12.1821 38.5911 11.754 38.7748 11.1645 38.7748C10.5749 38.7748 10.1456 38.5911 9.77773 38.223V38.2221L9.64785 38.0814C9.36587 37.7447 9.225 37.3514 9.225 36.8354C9.22503 36.3195 9.36574 35.9274 9.64687 35.5922L9.77676 35.4516C10.1445 35.0844 10.5739 34.8998 11.1645 34.8998ZM23.9955 34.8998C24.5826 34.8998 25.0109 35.0837 25.3793 35.4516H25.3803C25.7474 35.8177 25.931 36.2458 25.9311 36.8354C25.9311 37.427 25.747 37.8566 25.3812 38.224L25.3803 38.225C25.0156 38.5915 24.5903 38.7748 24.0043 38.7748C23.4183 38.7748 22.9901 38.5917 22.6215 38.223L22.6205 38.2221C22.2525 37.8542 22.0687 37.4249 22.0687 36.8354C22.0688 36.2437 22.2527 35.8153 22.6176 35.4496L22.6186 35.4486C22.983 35.0832 23.4086 34.8998 23.9955 34.8998ZM36.8354 34.8998C37.4259 34.8998 37.8553 35.0844 38.223 35.4516H38.224C38.5911 35.8177 38.7748 36.2458 38.7748 36.8354C38.7748 37.4249 38.591 37.8542 38.223 38.2221L38.2221 38.223C37.8542 38.591 37.4249 38.7748 36.8354 38.7748C36.2458 38.7748 35.8177 38.5911 35.4516 38.224V38.223L35.3227 38.0824C35.0412 37.7458 34.8998 37.3523 34.8998 36.8354C34.8998 36.3186 35.0411 35.9264 35.3217 35.5912L35.4506 35.4506C35.8165 35.0845 36.2449 34.8998 36.8354 34.8998ZM11.1645 22.0687C11.7561 22.0687 12.1845 22.2527 12.5502 22.6176L12.5512 22.6186C12.9166 22.983 13.1 23.4086 13.1 23.9955C13.1 24.5827 12.9161 25.0108 12.5482 25.3793V25.3803C12.1821 25.7474 11.7541 25.9311 11.1645 25.9311C10.5728 25.931 10.1432 25.7471 9.77578 25.3812L9.7748 25.3803C9.40838 25.0156 9.225 24.5903 9.225 24.0043C9.22504 23.4182 9.40891 22.9901 9.77773 22.6215V22.6205C10.1456 22.2525 10.5749 22.0688 11.1645 22.0687ZM23.9955 22.0687C24.5839 22.0688 25.0131 22.2519 25.3812 22.6186V22.6195C25.7479 22.9843 25.9311 23.4094 25.9311 23.9955C25.9311 24.5839 25.7479 25.0131 25.3812 25.3812H25.3803C25.0155 25.7478 24.5904 25.9311 24.0043 25.9311C23.416 25.931 22.9867 25.7479 22.6186 25.3812V25.3803C22.2521 25.0155 22.0687 24.5903 22.0687 24.0043C22.0688 23.416 22.2519 22.9867 22.6186 22.6186H22.6195C22.9843 22.252 23.4094 22.0687 23.9955 22.0687ZM36.8354 22.0687C37.427 22.0687 37.8567 22.2528 38.224 22.6186L38.225 22.6195C38.5916 22.9843 38.7748 23.4094 38.7748 23.9955C38.7748 24.5815 38.5917 25.0097 38.223 25.3783L38.2221 25.3793C37.8542 25.7473 37.4249 25.9311 36.8354 25.9311C36.2437 25.931 35.8153 25.7471 35.4496 25.3822L35.4486 25.3812C35.0833 25.0168 34.8998 24.5911 34.8998 24.0043C34.8998 23.4172 35.0837 22.9889 35.4516 22.6205V22.6195C35.8177 22.2525 36.2458 22.0688 36.8354 22.0687ZM11.1645 9.225C11.6803 9.225 12.0724 9.36577 12.4076 9.64687L12.5482 9.77676C12.9154 10.1445 13.1 10.5739 13.1 11.1645C13.1 11.6812 12.9587 12.0734 12.6781 12.4086L12.5492 12.5492C12.1833 12.9154 11.755 13.1 11.1645 13.1C10.5739 13.1 10.1445 12.9154 9.77676 12.5482L9.64687 12.4076C9.36577 12.0724 9.225 11.6803 9.225 11.1645C9.22501 10.6487 9.36614 10.2559 9.64785 9.91934L9.77773 9.77773C10.1457 9.40963 10.5748 9.22501 11.1645 9.225ZM23.9955 9.225C24.5817 9.225 25.0096 9.40887 25.3783 9.77773H25.3793C25.7474 10.1457 25.931 10.5748 25.9311 11.1645C25.9311 11.7562 25.7471 12.1845 25.3822 12.5502L25.3812 12.5512C25.0168 12.9166 24.5912 13.1 24.0043 13.1C23.4172 13.1 22.9889 12.9161 22.6205 12.5482H22.6195C22.2524 12.1821 22.0687 11.754 22.0687 11.1645C22.0688 10.5728 22.2528 10.1432 22.6186 9.77578L22.6195 9.7748C22.9843 9.40832 23.4095 9.225 23.9955 9.225ZM36.8354 9.225C37.425 9.225 37.8541 9.40962 38.2221 9.77773H38.223C38.5911 10.1456 38.7748 10.5749 38.7748 11.1645C38.7748 11.754 38.5911 12.1821 38.224 12.5482H38.223C37.8553 12.9154 37.4259 13.1 36.8354 13.1C36.2449 13.1 35.8165 12.9153 35.4506 12.5492L35.3217 12.4086C35.0411 12.0734 34.8998 11.6812 34.8998 11.1645C34.8998 10.6475 35.0412 10.2541 35.3227 9.91738L35.4516 9.77676C35.8177 9.40968 36.2458 9.22503 36.8354 9.225Z" stroke="var(--stroke-0, #2DA2DB)" stroke-width="3"/>
</g>
</svg>
