<svg preserveAspectRatio="none" width="100%" height="100%" overflow="visible" style="display: block;" viewBox="0 0 48 48" fill="none" xmlns="http://www.w3.org/2000/svg">
<g id="book_2">
<path id="Vector" d="M11.024 31.9045C11.4983 31.6012 12.0132 31.3707 12.5685 31.213C13.1238 31.055 13.7198 30.976 14.3565 30.976H16.024V7.012H14.3565C13.4202 7.012 12.6307 7.33533 11.988 7.982C11.3453 8.62867 11.024 9.42017 11.024 10.3565V31.9045ZM19.3465 30.976H36.988V7.012H19.3465V30.976ZM14.3565 44.299C12.5142 44.299 10.9443 43.6503 9.647 42.353C8.34967 41.0557 7.701 39.4858 7.701 37.6435V10.3565C7.701 8.51083 8.34967 6.93817 9.647 5.6385C10.9443 4.33883 12.5142 3.689 14.3565 3.689H36.8925C37.8408 3.689 38.6477 4.02167 39.313 4.687C39.9783 5.35233 40.311 6.15917 40.311 7.1075V32.977C40.311 33.303 40.2277 33.5985 40.061 33.8635C39.8943 34.1285 39.681 34.3148 39.421 34.4225C38.8113 34.6748 38.3332 35.0858 37.9865 35.6555C37.6398 36.2255 37.4665 36.883 37.4665 37.628C37.4665 38.373 37.639 39.0283 37.984 39.594C38.329 40.16 38.8058 40.566 39.4145 40.812C39.7025 40.9373 39.924 41.156 40.079 41.468C40.2337 41.78 40.311 42.1582 40.311 42.6025V42.658C40.311 43.1117 40.1498 43.4985 39.8275 43.8185C39.5055 44.1388 39.1108 44.299 38.6435 44.299H14.3565ZM14.3335 40.976H35.0335C34.7522 40.502 34.5335 39.9785 34.3775 39.4055C34.2215 38.8322 34.1435 38.2453 34.1435 37.645C34.1435 37.0093 34.2223 36.4135 34.38 35.8575C34.538 35.3015 34.7725 34.782 35.0835 34.299H14.337C13.4217 34.299 12.6407 34.6223 11.994 35.269C11.3473 35.9157 11.024 36.707 11.024 37.643C11.024 38.5717 11.3473 39.3593 11.994 40.006C12.6407 40.6527 13.4205 40.976 14.3335 40.976Z" fill="var(--fill-0, #2DA2DB)"/>
</g>
</svg>
