<svg preserveAspectRatio="none" width="100%" height="100%" overflow="visible" style="display: block;" viewBox="0 0 48 48" fill="none" xmlns="http://www.w3.org/2000/svg">
<g id="brain-circuit">
<path id="Vector" d="M12.8019 13C12.3185 12.161 12.0457 11.2176 12.0061 10.2501C11.9705 9.45096 12.0949 8.65274 12.3723 7.90241C12.6496 7.15207 13.0741 6.46476 13.621 5.88091C14.1678 5.29706 14.8258 4.82844 15.5564 4.50263C16.287 4.17682 17.0754 4.0004 17.8751 3.98372C18.6749 3.96705 19.4699 4.11048 20.2135 4.40556C20.957 4.70065 21.634 5.14143 22.2047 5.70199C22.7754 6.26255 23.2282 6.93157 23.5365 7.6697C23.8449 8.40783 24.0025 9.20016 24.0001 10.0001V36.0001M12.0061 10.2501C10.8306 10.5524 9.73915 11.1182 8.81461 11.9047C7.89007 12.6912 7.15663 13.6778 6.66984 14.7898C6.18304 15.9017 5.95567 17.1099 6.00493 18.3227C6.05419 19.5356 6.37879 20.7213 6.95415 21.7901M8.1241 21C7.71151 21.229 7.32003 21.4921 6.95415 21.7901C5.94251 22.612 5.147 23.6686 4.63683 24.868C4.12665 26.0674 3.91726 27.3733 4.02688 28.6721C4.13649 29.9709 4.56178 31.2232 5.26576 32.3201C5.96974 33.4171 6.93108 34.3254 8.06615 34.9661M8.06615 34.9661C7.92598 36.0506 8.00963 37.1523 8.31192 38.2031C8.61422 39.254 9.12874 40.2318 9.82372 41.076C10.5187 41.9202 11.3794 42.613 12.3526 43.1116C13.3258 43.6102 14.3909 43.904 15.4821 43.9748C16.5733 44.0456 17.6674 43.8919 18.6969 43.5233C19.7264 43.1547 20.6694 42.579 21.4677 41.8316C22.2659 41.0843 22.9025 40.1812 23.3381 39.1782C23.7737 38.1752 23.999 37.0936 24.0001 36.0001M8.06615 34.9661C9.26668 35.6433 10.6216 36.0004 11.9999 35.9998M24.0001 36.0001L36 36C37.0609 36 38.0783 36.4214 38.8284 37.1716C39.5786 37.9217 40 38.9391 40 40V42M18 26C19.6791 25.4093 21.1454 24.334 22.2133 22.91C23.2813 21.486 23.9031 19.7773 24 18M24 26H32M24 16H40M32 16V10C32 8.93913 32.4214 7.92172 33.1716 7.17157C33.9217 6.42143 34.9391 6 36 6M33 26C33 26.5523 32.5523 27 32 27C31.4477 27 31 26.5523 31 26C31 25.4477 31.4477 25 32 25C32.5523 25 33 25.4477 33 26ZM37 6C37 6.55228 36.5523 7 36 7C35.4477 7 35 6.55228 35 6C35 5.44772 35.4477 5 36 5C36.5523 5 37 5.44772 37 6ZM41 42C41 42.5523 40.5523 43 40 43C39.4477 43 39 42.5523 39 42C39 41.4477 39.4477 41 40 41C40.5523 41 41 41.4477 41 42ZM41 16C41 16.5523 40.5523 17 40 17C39.4477 17 39 16.5523 39 16C39 15.4477 39.4477 15 40 15C40.5523 15 41 15.4477 41 16Z" stroke="var(--stroke-0, #2DA2DB)" stroke-width="3" stroke-linecap="round" stroke-linejoin="round"/>
</g>
</svg>
