<svg preserveAspectRatio="none" width="100%" height="100%" overflow="visible" style="display: block;" viewBox="0 0 48 48" fill="none" xmlns="http://www.w3.org/2000/svg">
<g id="briefcase">
<path id="Vector" d="M32 40V8C32 6.93913 31.5786 5.92172 30.8284 5.17157C30.0783 4.42143 29.0609 4 28 4H20C18.9391 4 17.9217 4.42143 17.1716 5.17157C16.4214 5.92172 16 6.93913 16 8V40M8 12H40C42.2091 12 44 13.7909 44 16V36C44 38.2091 42.2091 40 40 40H8C5.79086 40 4 38.2091 4 36V16C4 13.7909 5.79086 12 8 12Z" stroke="var(--stroke-0, #2DA2DB)" stroke-width="3" stroke-linecap="round" stroke-linejoin="round"/>
</g>
</svg>
