<svg preserveAspectRatio="none" width="100%" height="100%" overflow="visible" style="display: block;" viewBox="0 0 48 48" fill="none" xmlns="http://www.w3.org/2000/svg">
<g id="door_open">
<path id="Vector" d="M21.8475 25.6555C22.3188 25.6555 22.712 25.4947 23.027 25.173C23.3423 24.851 23.5 24.4567 23.5 23.99C23.5 23.5233 23.3392 23.1305 23.0175 22.8115C22.6962 22.4922 22.3023 22.3325 21.836 22.3325C21.3607 22.3325 20.9653 22.4942 20.65 22.8175C20.3347 23.1408 20.177 23.5372 20.177 24.0065C20.177 24.4755 20.3377 24.8675 20.659 25.1825C20.98 25.4978 21.3762 25.6555 21.8475 25.6555ZM13.1195 42.287V38.8805L26.8325 36.4775V13.585C26.8325 13.0783 26.6857 12.63 26.392 12.24C26.098 11.8503 25.7105 11.6222 25.2295 11.5555L13.1195 9.6415V6.2965L26.037 8.525C27.255 8.72367 28.2598 9.29367 29.0515 10.235C29.8432 11.1767 30.239 12.2767 30.239 13.535V36.4285C30.239 37.2538 29.9688 37.9845 29.4285 38.6205C28.8882 39.2562 28.2095 39.6443 27.3925 39.785L13.1195 42.287ZM13.1195 38.8805H34.8805V9.7035L13.1195 9.6915V9.6415V38.8805ZM7.4165 42.299C6.9275 42.299 6.51933 42.1345 6.192 41.8055C5.86467 41.4765 5.701 41.0683 5.701 40.581C5.701 40.0937 5.86467 39.6883 6.192 39.365C6.51933 39.042 6.9275 38.8805 7.4165 38.8805H9.701V9.7035C9.701 8.76683 10.0337 7.96483 10.699 7.2975C11.3643 6.63017 12.1712 6.2965 13.1195 6.2965H34.8805C35.8288 6.2965 36.6357 6.63017 37.301 7.2975C37.9663 7.96483 38.299 8.76683 38.299 9.7035V38.8805H40.5955C41.0765 38.8805 41.4807 39.045 41.808 39.374C42.1353 39.703 42.299 40.1112 42.299 40.5985C42.299 41.0858 42.1353 41.491 41.808 41.814C41.4807 42.1373 41.0765 42.299 40.5955 42.299H7.4165Z" fill="var(--fill-0, #2DA2DB)"/>
</g>
</svg>
