<svg preserveAspectRatio="none" width="100%" height="100%" overflow="visible" style="display: block;" viewBox="0 0 48 48" fill="none" xmlns="http://www.w3.org/2000/svg">
<g id="personal_injury">
<path id="Vector" d="M24.0028 24.2032C26.3654 24.2032 28.5273 24.4979 30.4969 25.0742C32.5635 25.6794 34.4184 26.3541 36.0662 27.0948L36.0682 27.0957C36.8228 27.4336 37.4247 27.8948 37.8973 28.4815L38.0916 28.7403C38.5502 29.3952 38.8113 30.2165 38.8114 31.2784V41C38.8113 41.4329 38.6863 41.8034 38.3924 42.1573V31.3262C38.3924 30.4765 38.1327 29.6875 37.6619 28.9873H37.6629C37.2158 28.3219 36.6352 27.7862 35.9207 27.4239H35.9197C35.5944 27.2566 35.2311 27.0905 34.8328 26.9258L34.4197 26.7608C33.8794 26.55 33.2645 26.3138 32.575 26.0537L31.2664 25.5606L30.6824 26.8311L24.4598 40.3741L23.4832 42.5H38.0447C37.6938 42.784 37.3246 42.9063 36.8924 42.9063H19.6317C18.5721 42.9063 17.7263 42.5545 17.0037 41.8311C16.281 41.1074 15.9286 40.2596 15.9285 39.1973C15.9285 38.1351 16.2802 37.2902 17.0008 36.5713C17.723 35.8513 18.57 35.5 19.6317 35.5H26.4403L26.8387 34.6172L30.1873 27.2032L30.9696 25.4707L29.1033 25.1133C28.2303 24.9457 27.3617 24.8212 26.4979 24.7412C25.6416 24.662 24.8067 24.6221 23.994 24.6221C21.5088 24.6221 19.2467 24.9013 17.2244 25.4815C15.2978 26.0341 13.5704 26.6745 12.0516 27.4092L12.035 27.417L12.0194 27.4258C11.3062 27.7925 10.7344 28.3366 10.3016 29.0098C9.85168 29.7093 9.60725 30.4906 9.60725 31.3262V42.7032C9.60725 42.7694 9.59655 42.7969 9.59455 42.8018C9.59267 42.8064 9.5863 42.8229 9.55647 42.8526C9.52552 42.8834 9.50785 42.8902 9.50178 42.8926C9.49412 42.8957 9.46412 42.9063 9.39534 42.9063C9.32577 42.9063 9.29828 42.895 9.29475 42.8936C9.2916 42.8923 9.28773 42.8909 9.28303 42.8877C9.27798 42.8843 9.26806 42.8768 9.25373 42.8623L9.25276 42.8614C9.22361 42.8318 9.217 42.8154 9.21467 42.8096C9.21172 42.8022 9.201 42.772 9.201 42.7032V31.2784C9.20102 30.3481 9.40053 29.603 9.75666 28.9932L9.91877 28.7403C10.4215 28.0208 11.0706 27.4727 11.8924 27.086C13.5153 26.3576 15.3709 25.6879 17.4637 25.0801L17.4627 25.0791C19.4637 24.4983 21.6412 24.2032 24.0028 24.2032ZM19.6317 35.7754C18.6905 35.7754 17.8696 36.1541 17.2254 36.7989C16.5785 37.4463 16.2039 38.2699 16.2039 39.211C16.2039 40.1528 16.5795 40.9771 17.2322 41.6221V41.6231C17.8782 42.2607 18.6974 42.6319 19.6317 42.6319H23.0565L23.4617 41.7696L25.2762 37.9131L26.2821 35.7754H19.6317ZM23.994 5.1055C25.9371 5.1055 27.4155 5.70886 28.5614 6.85159C29.7073 7.9944 30.3114 9.46725 30.3114 11.4014C30.3113 13.3351 29.7077 14.8092 28.5614 15.9541L28.5604 15.9551C27.4139 17.1004 25.9371 17.7032 23.9998 17.7032C22.0625 17.7031 20.5891 17.1001 19.4471 15.9561H19.4461C18.3025 14.8108 17.7011 13.3376 17.701 11.4073C17.701 9.58825 18.2302 8.17754 19.2371 7.06741L19.4451 6.84964C20.5875 5.70733 22.0601 5.10551 23.994 5.1055ZM24.0076 5.51175C22.478 5.51182 21.1132 5.99052 20.0115 6.98245L19.7947 7.18753C18.6557 8.32113 18.1073 9.76631 18.1072 11.4004C18.1072 13.0336 18.6541 14.4786 19.7899 15.6143C20.9245 16.7492 22.367 17.2969 23.9979 17.2969C25.5312 17.2969 26.8987 16.8168 27.9989 15.8194L28.2156 15.6133C29.3472 14.4781 29.8924 13.0357 29.8924 11.4063C29.8924 9.87469 29.4162 8.50751 28.4227 7.40726L28.2166 7.19144L28.0008 6.98538C26.9024 5.99055 25.5374 5.51175 24.0076 5.51175Z" stroke="var(--stroke-0, #2DA2DB)" stroke-width="3"/>
</g>
</svg>
