<svg preserveAspectRatio="none" width="100%" height="100%" overflow="visible" style="display: block;" viewBox="0 0 40 40" fill="none" xmlns="http://www.w3.org/2000/svg">
<g id="play">
<path id="Vector" d="M8.33333 8.33333C8.33316 7.74682 8.48774 7.17064 8.78147 6.66298C9.0752 6.15532 9.49768 5.73415 10.0063 5.44199C10.5148 5.14984 11.0915 4.99704 11.678 4.99903C12.2645 5.00102 12.8401 5.15773 13.3467 5.45333L33.3417 17.1167C33.8463 17.4095 34.2652 17.8296 34.5566 18.335C34.8479 18.8404 35.0016 19.4135 35.0021 19.9969C35.0026 20.5803 34.8499 21.1536 34.5594 21.6596C34.269 22.1655 33.8508 22.5863 33.3467 22.88L13.3467 34.5467C12.8401 34.8423 12.2645 34.999 11.678 35.001C11.0915 35.003 10.5148 34.8502 10.0063 34.558C9.49768 34.2659 9.0752 33.8447 8.78147 33.337C8.48774 32.8294 8.33316 32.2532 8.33333 31.6667V8.33333Z" fill="var(--fill-0, white)"/>
</g>
</svg>
