<svg preserveAspectRatio="none" width="100%" height="100%" overflow="visible" style="display: block;" viewBox="0 0 40 40" fill="none" xmlns="http://www.w3.org/2000/svg">
<g id="volume_up">
<path id="Vector" d="M24.8573 6.03759C25.1644 5.92448 25.478 5.91554 25.7987 6.01025L25.9364 6.05712C28.7504 7.21527 31.0117 9.04829 32.7205 11.5561C34.4292 14.064 35.284 16.8638 35.284 19.9565C35.284 23.0493 34.4292 25.8498 32.7205 28.3589C31.1185 30.7109 29.0311 32.4694 26.4579 33.6343L25.9364 33.8599C25.5675 34.002 25.2082 34.0077 24.8573 33.8784C24.5065 33.7491 24.2599 33.5142 24.117 33.1724V33.1714L24.0672 33.0532C23.968 32.7782 23.9786 32.504 24.0975 32.229C24.2336 31.9143 24.4712 31.6857 24.8123 31.5444C27.1709 30.5915 29.0793 29.0733 30.537 26.9897C31.9949 24.9055 32.7244 22.5612 32.7245 19.9585C32.7245 17.3557 31.995 15.0115 30.537 12.9272C29.0793 10.8435 27.171 9.32138 24.8123 8.36181C24.4712 8.22238 24.2336 7.99706 24.0975 7.68603C23.9616 7.37538 23.9678 7.06342 24.117 6.74755V6.74657C24.2599 6.40331 24.5065 6.16686 24.8573 6.03759ZM18.4979 8.0913C18.7493 8.03992 19.0197 8.07229 19.3094 8.18993C19.5993 8.30763 19.8154 8.47321 19.9588 8.68505C20.1021 8.89678 20.1746 9.15718 20.1746 9.46728V30.5229C20.1746 30.8372 20.1012 31.1004 19.9579 31.314C19.8144 31.5274 19.5991 31.6938 19.3094 31.811C19.0197 31.9284 18.7493 31.9602 18.4979 31.9087C18.3093 31.87 18.1297 31.784 17.9598 31.6499L17.7928 31.4995L11.5204 25.2319L11.5125 25.2241H6.11996C5.71219 25.224 5.37729 25.0916 5.11312 24.8276C4.849 24.5635 4.71664 24.2313 4.71664 23.8296V16.1704C4.71664 15.7696 4.84893 15.4365 5.11312 15.1684C5.37737 14.9007 5.7121 14.7662 6.11996 14.7661H11.5125L11.5204 14.7583L17.7928 8.50048C18.011 8.27886 18.2464 8.14276 18.4979 8.0913ZM17.3329 13.2007L12.7616 17.5649H7.51547V22.4351H12.7616L17.3329 26.8403L17.3758 26.8813V13.1606L17.3329 13.2007ZM23.2889 13.271C23.3648 13.2666 23.4447 13.2792 23.5282 13.3101L23.6131 13.3472C24.9344 13.9696 25.96 14.8799 26.6893 16.0767C27.419 17.2737 27.784 18.5818 27.784 20.0005C27.7839 21.4469 27.4188 22.7559 26.6893 23.9282C26.0057 25.0272 25.0622 25.8849 23.8582 26.5005L23.6131 26.6206C23.4984 26.678 23.3901 26.7024 23.2889 26.6958C23.188 26.6891 23.0916 26.6516 22.9998 26.5815C22.8157 26.4411 22.7245 26.2548 22.7245 26.021V13.938C22.7245 13.7041 22.8157 13.5188 22.9998 13.3813C23.0916 13.3131 23.1879 13.2768 23.2889 13.271Z" fill="var(--fill-0, white)" stroke="var(--stroke-0, white)" stroke-width="0.05"/>
</g>
</svg>
