<svg preserveAspectRatio="none" width="100%" height="100%" overflow="visible" style="display: block;" viewBox="0 0 24 24" fill="none" xmlns="http://www.w3.org/2000/svg">
<g id="account_tree">
<path id="Vector" d="M15.0643 19.488V18.0425H12.8518C12.3834 18.0425 11.9824 17.8767 11.6488 17.545C11.3151 17.2135 11.1483 16.8116 11.1483 16.3393V7.66075H8.96075V9.2315C8.96075 9.68983 8.7955 10.0843 8.465 10.415C8.13433 10.7455 7.73983 10.9107 7.2815 10.9107H3.46425C2.99175 10.9107 2.58975 10.7444 2.25825 10.4117C1.92658 10.0791 1.76075 9.67575 1.76075 9.20175V4.53575C1.76075 4.06175 1.92658 3.65842 2.25825 3.32575C2.58975 2.99308 2.99175 2.82675 3.46425 2.82675H7.2815C7.73983 2.82675 8.13433 2.992 8.465 3.3225C8.7955 3.65317 8.96075 4.04767 8.96075 4.506V5.95175H15.0643V4.506C15.0643 4.04767 15.2295 3.65317 15.56 3.3225C15.8907 2.992 16.2852 2.82675 16.7435 2.82675H20.5358C21.0099 2.82675 21.4133 2.99308 21.746 3.32575C22.0787 3.65842 22.245 4.06175 22.245 4.53575V9.20175C22.245 9.67575 22.0787 10.0791 21.746 10.4117C21.4133 10.7444 21.0099 10.9107 20.5358 10.9107H16.7435C16.2852 10.9107 15.8907 10.7455 15.56 10.415C15.2295 10.0843 15.0643 9.68983 15.0643 9.2315V7.66075H12.8518V16.3393H15.0643V14.7685C15.0643 14.3102 15.2295 13.9157 15.56 13.585C15.8907 13.2545 16.2852 13.0893 16.7435 13.0893H20.5358C21.0099 13.0893 21.4133 13.256 21.746 13.5895C22.0787 13.9232 22.245 14.3242 22.245 14.7925V19.4643C22.245 19.9366 22.0787 20.3385 21.746 20.67C21.4133 21.0017 21.0099 21.1675 20.5358 21.1675H16.7435C16.2852 21.1675 15.8907 21.003 15.56 20.674C15.2295 20.3452 15.0643 19.9498 15.0643 19.488ZM16.7733 9.20175H20.5358V4.53575H16.7733V9.20175ZM16.7733 19.4643H20.5358V14.7925H16.7733V19.4643ZM3.46425 9.20175H7.2575V4.53575H3.46425V9.20175Z" fill="var(--fill-0, #1E729C)"/>
</g>
</svg>
