<svg preserveAspectRatio="none" width="100%" height="100%" overflow="visible" style="display: block;" viewBox="0 0 24 24" fill="none" xmlns="http://www.w3.org/2000/svg">
<g id="book-search">
<path id="Vector" d="M11 22H5.5C4.83696 22 4.20107 21.7366 3.73223 21.2678C3.26339 20.7989 3 20.163 3 19.5M3 19.5C3 18.837 3.26339 18.2011 3.73223 17.7322C4.20107 17.2634 4.83696 17 5.5 17H10.001M3 19.5V4.5C3 3.83696 3.26339 3.20107 3.73223 2.73223C4.20107 2.26339 4.83696 2 5.5 2H18C18.2652 2 18.5196 2.10536 18.7071 2.29289C18.8946 2.48043 19 2.73478 19 3V11M21 22.0001L19.121 20.1221M20 18C20 19.6569 18.6569 21 17 21C15.3431 21 14 19.6569 14 18C14 16.3431 15.3431 15 17 15C18.6569 15 20 16.3431 20 18Z" stroke="var(--stroke-0, #4CC4FE)" stroke-width="2" stroke-linecap="round" stroke-linejoin="round"/>
</g>
</svg>
