<svg preserveAspectRatio="none" width="100%" height="100%" overflow="visible" style="display: block;" viewBox="0 0 24 24" fill="none" xmlns="http://www.w3.org/2000/svg">
<g id="diagnosis">
<path id="Vector" d="M13.7997 6.30348C14.06 6.30348 14.2658 6.38568 14.4667 6.58669V6.58766C14.6669 6.78788 14.7499 6.99382 14.7499 7.25661C14.7498 7.74619 14.5349 8.27583 13.9071 8.8611C13.1808 9.53818 12.5446 10.1179 11.9989 10.6023C11.4512 10.1167 10.8139 9.53973 10.0868 8.87184H10.0859C9.46942 8.30498 9.24991 7.7716 9.24991 7.25368C9.24993 6.99355 9.33229 6.7885 9.53312 6.58766V6.58669C9.73405 6.38567 9.93984 6.30348 10.2001 6.30348C10.4967 6.3035 10.6469 6.36085 10.7148 6.40114C10.8496 6.48124 11.0191 6.62599 11.2148 6.8738L11.9999 7.86794L12.7851 6.8738C12.9806 6.62607 13.1503 6.48125 13.2851 6.40114C13.3529 6.36086 13.5033 6.30352 13.7997 6.30348Z" stroke="var(--stroke-0, #1E729C)" stroke-width="2"/>
</g>
</svg>
