<svg preserveAspectRatio="none" width="100%" height="100%" overflow="visible" style="display: block;" viewBox="0 0 24 24" fill="none" xmlns="http://www.w3.org/2000/svg">
<g id="e911_emergency">
<path id="Vector" d="M6 20.2393C5.75967 20.2393 5.55767 20.1569 5.394 19.9923C5.23017 19.8278 5.14825 19.6247 5.14825 19.383C5.14825 19.1415 5.23017 18.9399 5.394 18.7783C5.55767 18.6166 5.75967 18.5358 6 18.5358H6.69725L8.7555 11.7603C8.86733 11.3998 9.07042 11.1056 9.36475 10.8778C9.65892 10.6498 9.99658 10.5358 10.3777 10.5358H13.6223C14.0034 10.5358 14.3411 10.6498 14.6352 10.8778C14.9296 11.1056 15.1327 11.3998 15.2445 11.7603L17.3027 18.5358H18C18.2403 18.5358 18.4423 18.6181 18.606 18.7828C18.7698 18.9473 18.8518 19.1503 18.8518 19.392C18.8518 19.6335 18.7698 19.8351 18.606 19.9968C18.4423 20.1584 18.2403 20.2393 18 20.2393H6ZM8.5125 18.5358H15.4875L13.5973 12.2393H10.4027L8.5125 18.5358ZM11.1482 6.6125V3.6125C11.1482 3.37217 11.2306 3.16917 11.3953 3.0035C11.5598 2.83783 11.7628 2.755 12.0045 2.755C12.246 2.755 12.4476 2.83783 12.6093 3.0035C12.7709 3.16917 12.8518 3.37217 12.8518 3.6125V6.6125C12.8518 6.85283 12.7694 7.05483 12.6048 7.2185C12.4403 7.38233 12.2372 7.46425 11.9955 7.46425C11.754 7.46425 11.5524 7.38233 11.3908 7.2185C11.2291 7.05483 11.1482 6.85283 11.1482 6.6125ZM16.6658 8.2065L18.7908 6.0815C18.9648 5.92833 19.1665 5.8485 19.396 5.842C19.6255 5.83567 19.8236 5.9175 19.9902 6.0875C20.1601 6.2575 20.245 6.45642 20.245 6.68425C20.245 6.91208 20.1601 7.111 19.9902 7.281L17.8652 9.431C17.6952 9.60083 17.4953 9.68575 17.2655 9.68575C17.0357 9.68575 16.8358 9.60042 16.6658 9.42975C16.4919 9.25892 16.405 9.05483 16.405 8.8175C16.405 8.58017 16.4919 8.3765 16.6658 8.2065ZM19.525 13.1483H22.525C22.7653 13.1483 22.9673 13.2306 23.131 13.3953C23.2948 13.5598 23.3768 13.7628 23.3768 14.0045C23.3768 14.246 23.2948 14.4476 23.131 14.6093C22.9673 14.7709 22.7653 14.8518 22.525 14.8518H19.525C19.2847 14.8518 19.0827 14.7694 18.919 14.6048C18.7552 14.4403 18.6733 14.2372 18.6733 13.9955C18.6733 13.754 18.7552 13.5524 18.919 13.3908C19.0827 13.2291 19.2847 13.1483 19.525 13.1483ZM6.13475 9.406L4.00975 7.281C3.85658 7.111 3.77683 6.91125 3.7705 6.68175C3.764 6.45225 3.84575 6.25417 4.01575 6.0875C4.18575 5.91367 4.38467 5.82675 4.6125 5.82675C4.84033 5.82675 5.04125 5.91167 5.21525 6.0815L7.35925 8.2065C7.52925 8.3765 7.61425 8.57642 7.61425 8.80625C7.61425 9.03608 7.52883 9.236 7.358 9.406C7.18717 9.57983 6.98308 9.66575 6.74575 9.66375C6.50842 9.66175 6.30475 9.57583 6.13475 9.406ZM1.475 14.8518C1.23467 14.8518 1.03267 14.7694 0.869 14.6048C0.705166 14.4403 0.62325 14.2372 0.62325 13.9955C0.62325 13.754 0.705166 13.5524 0.869 13.3908C1.03267 13.2291 1.23467 13.1483 1.475 13.1483H4.475C4.71533 13.1483 4.91833 13.2306 5.084 13.3953C5.24967 13.5598 5.3325 13.7628 5.3325 14.0045C5.3325 14.246 5.24967 14.4476 5.084 14.6093C4.91833 14.7709 4.71533 14.8518 4.475 14.8518H1.475Z" fill="var(--fill-0, #4CC4FE)"/>
</g>
</svg>
