<svg preserveAspectRatio="none" width="100%" height="100%" overflow="visible" style="display: block;" viewBox="0 0 24 24" fill="none" xmlns="http://www.w3.org/2000/svg">
<g id="local_fire_department">
<path id="Vector" d="M11.9995 22.0897C9.74117 22.0897 7.82833 21.306 6.261 19.7385C4.69383 18.1712 3.91025 16.2583 3.91025 14C3.91025 12.072 4.50608 10.1953 5.69775 8.37C6.88942 6.54467 8.52892 4.98242 10.6163 3.68325C10.9354 3.47592 11.2608 3.47025 11.5925 3.66625C11.924 3.86208 12.0898 4.15992 12.0898 4.55975V6.29725C12.0898 6.83925 12.2769 7.29358 12.6513 7.66025C13.0256 8.02692 13.4835 8.21025 14.025 8.21025C14.313 8.21025 14.5812 8.14983 14.8295 8.029C15.0778 7.90817 15.2981 7.72658 15.4903 7.48425C15.6311 7.31958 15.7939 7.20675 15.9788 7.14575C16.1636 7.08475 16.339 7.10825 16.505 7.21625C17.6213 7.98625 18.4979 8.96892 19.1348 10.1643C19.7714 11.3594 20.0898 12.638 20.0898 14C20.0898 16.2583 19.306 18.1712 17.7385 19.7385C16.171 21.306 14.258 22.0897 11.9995 22.0897ZM5.6195 14C5.6195 14.9863 5.83708 15.9151 6.27225 16.7863C6.70742 17.6574 7.31808 18.3873 8.10425 18.976C8.03758 18.7928 7.98758 18.6038 7.95425 18.409C7.92092 18.2142 7.90425 18.0228 7.90425 17.8348C7.92425 17.3214 8.03525 16.8413 8.23725 16.3945C8.43925 15.9478 8.72592 15.5388 9.09725 15.1675L12 12.3088L14.9088 15.1675C15.2801 15.5388 15.5668 15.9478 15.7688 16.3945C15.9708 16.8413 16.0798 17.3214 16.0958 17.8348C16.0958 18.0228 16.0791 18.2142 16.0458 18.409C16.0124 18.6038 15.9644 18.7928 15.9018 18.976C16.6799 18.3873 17.2886 17.6574 17.7277 16.7863C18.1669 15.9151 18.3865 14.9863 18.3865 14C18.3865 13.1318 18.2026 12.2813 17.8348 11.4485C17.4669 10.6157 16.939 9.84933 16.251 9.1495C15.901 9.3875 15.5357 9.57433 15.155 9.71C14.7743 9.84567 14.3976 9.9135 14.0248 9.9135C13.0203 9.9135 12.1817 9.58067 11.509 8.915C10.8363 8.24917 10.4781 7.39925 10.4343 6.36525V5.86525C8.95725 6.94025 7.78558 8.21225 6.91925 9.68125C6.05275 11.1501 5.6195 12.5897 5.6195 14ZM12 14.6957L10.2923 16.3848C10.0619 16.6109 9.88725 16.8602 9.76825 17.1325C9.64925 17.405 9.58975 17.7021 9.58975 18.0238C9.58975 18.6821 9.82375 19.2394 10.2918 19.6958C10.7599 20.1523 11.3297 20.3805 12.001 20.3805C12.6725 20.3805 13.2419 20.1518 13.7093 19.6945C14.1766 19.2372 14.4103 18.6791 14.4103 18.0203C14.4103 17.7028 14.3509 17.4077 14.2323 17.1352C14.1134 16.8626 13.9414 16.6132 13.7163 16.387L12 14.6957Z" fill="var(--fill-0, #4CC4FE)"/>
</g>
</svg>
