<svg preserveAspectRatio="none" width="100%" height="100%" overflow="visible" style="display: block;" viewBox="0 0 24 24" fill="none" xmlns="http://www.w3.org/2000/svg">
<g id="falling">
<path id="Vector" d="M12.4615 18.0458L9.345 15.6805C9.18783 15.5478 9.05008 15.4058 8.93175 15.2545C8.81342 15.1033 8.73367 14.9241 8.6925 14.7168L7.49025 9.43925L5.0385 11.5458L5.65175 14.43C5.68892 14.6745 5.64542 14.8962 5.52125 15.095C5.39692 15.294 5.2125 15.4142 4.968 15.4555C4.72333 15.4968 4.50258 15.4543 4.30575 15.328C4.10875 15.2017 3.98958 15.0183 3.94825 14.7778L3.36025 11.9065C3.30225 11.608 3.32092 11.319 3.41625 11.0395C3.51158 10.7598 3.67317 10.5164 3.901 10.3093L7.55925 7.051C7.92125 6.7225 8.3455 6.58858 8.832 6.64925C9.31867 6.70992 9.79692 6.83592 10.2668 7.02725C10.8216 7.25658 11.395 7.42542 11.987 7.53375C12.579 7.64208 13.171 7.65658 13.763 7.57725C14.1843 7.51458 14.5744 7.39258 14.9333 7.21125C15.2919 7.02992 15.6422 6.81617 15.9842 6.57C16.1876 6.42483 16.4083 6.36158 16.6465 6.38025C16.8847 6.39892 17.0804 6.5015 17.2338 6.688C17.3829 6.87867 17.4431 7.08892 17.4143 7.31875C17.3853 7.54858 17.2691 7.73617 17.0658 7.8815C16.6911 8.15217 16.3132 8.39367 15.9322 8.606C15.5512 8.81833 15.1422 8.99117 14.705 9.1245C14.1415 9.28717 13.5604 9.35483 12.9617 9.3275C12.3629 9.30017 11.7798 9.21942 11.2125 9.08525L11.9838 12.5843L15.0652 11.9893C15.2931 11.9519 15.5158 11.9561 15.7335 12.0018C15.951 12.0473 16.1551 12.1363 16.3458 12.269L20.0848 14.92C20.2921 15.0693 20.4103 15.2589 20.4393 15.4888C20.4681 15.7188 20.4079 15.9353 20.2588 16.1385C20.1134 16.3292 19.93 16.4432 19.7085 16.4805C19.4868 16.5178 19.2808 16.4702 19.0903 16.3375L15.526 13.8365L11.551 14.6385L13.587 16.1343C13.8522 16.3414 14.0417 16.5922 14.1557 16.8865C14.2697 17.1807 14.2978 17.4873 14.2398 17.8065L13.5268 21.7778C13.4894 22.0223 13.3713 22.2057 13.1723 22.328C12.9734 22.4503 12.7517 22.4908 12.507 22.4495C12.2625 22.4122 12.0781 22.295 11.9537 22.098C11.8296 21.9012 11.7881 21.6804 11.8293 21.4358L12.4615 18.0458ZM8 4.93425C7.48483 4.93425 7.04742 4.75442 6.68775 4.39475C6.32808 4.03525 6.14825 3.59783 6.14825 3.0825C6.14825 2.56733 6.32808 2.13 6.68775 1.7705C7.04742 1.41083 7.48483 1.231 8 1.231C8.51517 1.231 8.95258 1.41083 9.31225 1.7705C9.67192 2.13 9.85175 2.56733 9.85175 3.0825C9.85175 3.59783 9.67192 4.03525 9.31225 4.39475C8.95258 4.75442 8.51517 4.93425 8 4.93425Z" fill="var(--fill-0, #4CC4FE)"/>
</g>
</svg>
