<svg preserveAspectRatio="none" width="100%" height="100%" overflow="visible" style="display: block;" viewBox="0 0 24 24" fill="none" xmlns="http://www.w3.org/2000/svg">
<g id="query_stats">
<path id="Vector" d="M1.481 13.137C1.28783 13.0063 1.17392 12.8272 1.13925 12.5997C1.10475 12.3724 1.1475 12.1654 1.2675 11.9787L4.71275 6.5785C4.99225 6.1445 5.383 5.90783 5.885 5.8685C6.387 5.82933 6.81267 5.99742 7.162 6.37275L8.89625 8.35925L11.8082 3.7C12.1054 3.233 12.5295 2.99242 13.0805 2.97825C13.6315 2.96408 14.067 3.176 14.387 3.614L16.218 6.2495L19.2365 1.5675C19.3655 1.36567 19.55 1.24258 19.79 1.19825C20.03 1.15375 20.2507 1.20825 20.452 1.36175C20.6438 1.49492 20.7544 1.67308 20.7837 1.89625C20.8131 2.11942 20.7677 2.32625 20.6477 2.51675L17.5217 7.3365C17.2264 7.80317 16.8069 8.04458 16.2633 8.06075C15.7196 8.07708 15.2898 7.86425 14.974 7.42225L13.149 4.818L10.243 9.43425C9.97083 9.86508 9.57692 10.1018 9.06125 10.1443C8.54575 10.1869 8.11342 10.0205 7.76425 9.645L6.037 7.67775L2.68575 12.9162C2.55325 13.1196 2.36883 13.2463 2.1325 13.2963C1.89633 13.3463 1.67917 13.2932 1.481 13.137ZM14.7102 18.5418C15.4879 18.5418 16.1542 18.2727 16.7092 17.7345C17.2642 17.1962 17.5417 16.5358 17.5417 15.7533C17.5417 14.9706 17.269 14.3059 16.7235 13.7593C16.178 13.2126 15.5087 12.9393 14.7155 12.9393C13.9363 12.9393 13.2788 13.2168 12.743 13.7718C12.2072 14.3268 11.9393 14.9931 11.9393 15.7708C11.9393 16.5484 12.2067 17.2047 12.7415 17.7395C13.2763 18.2743 13.9326 18.5418 14.7102 18.5418ZM14.7117 20.245C13.4667 20.245 12.4085 19.8091 11.537 18.9373C10.6657 18.0654 10.23 17.0067 10.23 15.761C10.23 14.5155 10.6657 13.4489 11.5372 12.5613C12.4089 11.6738 13.4673 11.23 14.7125 11.23C15.9715 11.23 17.0417 11.6707 17.923 12.552C18.8043 13.4333 19.245 14.5035 19.245 15.7625C19.245 16.2432 19.1762 16.6937 19.0385 17.114C18.9008 17.5343 18.7047 17.9278 18.45 18.2945L20.5337 20.3593C20.7036 20.5293 20.7885 20.7272 20.7885 20.953C20.7885 21.1788 20.7036 21.3778 20.5337 21.5498C20.3637 21.7216 20.1648 21.8085 19.937 21.8105C19.709 21.8125 19.5101 21.7266 19.3402 21.5528L17.2565 19.469C16.8898 19.711 16.494 19.9008 16.069 20.0385C15.644 20.1762 15.1916 20.245 14.7117 20.245Z" fill="var(--fill-0, #1E729C)"/>
</g>
</svg>
