<svg preserveAspectRatio="none" width="100%" height="100%" overflow="visible" style="display: block;" viewBox="0 0 40 40" fill="none" xmlns="http://www.w3.org/2000/svg">
<g id="tag">
<g id="Vector">
<path d="M20.9767 4.31C20.3517 3.68484 19.504 3.33352 18.62 3.33333H6.66667C5.78261 3.33333 4.93477 3.68452 4.30964 4.30964C3.68452 4.93477 3.33333 5.78261 3.33333 6.66667V18.62C3.33352 19.504 3.68484 20.3517 4.31 20.9767L18.8167 35.4833C19.5742 36.2361 20.5987 36.6586 21.6667 36.6586C22.7346 36.6586 23.7591 36.2361 24.5167 35.4833L35.4833 24.5167C36.2361 23.7591 36.6586 22.7346 36.6586 21.6667C36.6586 20.5987 36.2361 19.5742 35.4833 18.8167L20.9767 4.31Z" stroke="var(--stroke-0, #2DA2DB)" stroke-width="2" stroke-linecap="round" stroke-linejoin="round"/>
<path d="M12.5 13.3333C12.9602 13.3333 13.3333 12.9602 13.3333 12.5C13.3333 12.0398 12.9602 11.6667 12.5 11.6667C12.0398 11.6667 11.6667 12.0398 11.6667 12.5C11.6667 12.9602 12.0398 13.3333 12.5 13.3333Z" stroke="var(--stroke-0, #2DA2DB)" stroke-width="2" stroke-linecap="round" stroke-linejoin="round"/>
</g>
</g>
</svg>
