<svg preserveAspectRatio="none" width="100%" height="100%" overflow="visible" style="display: block;" viewBox="0 0 40 40" fill="none" xmlns="http://www.w3.org/2000/svg">
<g id="cpu">
<path id="Vector" d="M20 33.3333V36.6667M20 3.33333V6.66667M28.3333 33.3333V36.6667M28.3333 3.33333V6.66667M3.33333 20H6.66667M3.33333 28.3333H6.66667M3.33333 11.6667H6.66667M33.3333 20H36.6667M33.3333 28.3333H36.6667M33.3333 11.6667H36.6667M11.6667 33.3333V36.6667M11.6667 3.33333V6.66667M10 6.66667H30C31.8409 6.66667 33.3333 8.15905 33.3333 10V30C33.3333 31.8409 31.8409 33.3333 30 33.3333H10C8.15905 33.3333 6.66667 31.8409 6.66667 30V10C6.66667 8.15905 8.15905 6.66667 10 6.66667ZM15 13.3333H25C25.9205 13.3333 26.6667 14.0795 26.6667 15V25C26.6667 25.9205 25.9205 26.6667 25 26.6667H15C14.0795 26.6667 13.3333 25.9205 13.3333 25V15C13.3333 14.0795 14.0795 13.3333 15 13.3333Z" stroke="var(--stroke-0, #2DA2DB)" stroke-width="2" stroke-linecap="round" stroke-linejoin="round"/>
</g>
</svg>
