<svg preserveAspectRatio="none" width="100%" height="100%" overflow="visible" style="display: block;" viewBox="0 0 40 40" fill="none" xmlns="http://www.w3.org/2000/svg">
<g id="monitor-play">
<path id="Vector" d="M20 28.3333V35M13.3333 35H26.6667M25.055 15.7335C25.2187 15.8282 25.3546 15.9643 25.449 16.1281C25.5435 16.2919 25.5933 16.4777 25.5933 16.6668C25.5933 16.8559 25.5435 17.0417 25.449 17.2055C25.3546 17.3693 25.2187 17.5054 25.055 17.6001L18.28 21.5201C18.1164 21.6148 17.9307 21.6646 17.7417 21.6646C17.5527 21.6646 17.367 21.6148 17.2034 21.5201C17.0397 21.4255 16.904 21.2894 16.8097 21.1255C16.7155 20.9616 16.6662 20.7758 16.6667 20.5868V12.7468C16.6663 12.558 16.7157 12.3725 16.8099 12.2088C16.904 12.0452 17.0396 11.9093 17.2029 11.8147C17.3663 11.72 17.5517 11.6701 17.7405 11.6699C17.9293 11.6697 18.1148 11.7192 18.2783 11.8135L25.055 15.7335ZM6.66667 5H33.3333C35.1743 5 36.6667 6.49238 36.6667 8.33333V25C36.6667 26.8409 35.1743 28.3333 33.3333 28.3333H6.66667C4.82572 28.3333 3.33333 26.8409 3.33333 25V8.33333C3.33333 6.49238 4.82572 5 6.66667 5Z" stroke="var(--stroke-0, #2DA2DB)" stroke-width="2" stroke-linecap="round" stroke-linejoin="round"/>
</g>
</svg>
