<svg preserveAspectRatio="none" width="100%" height="100%" overflow="visible" style="display: block;" viewBox="0 0 40 40" fill="none" xmlns="http://www.w3.org/2000/svg">
<g id="file-chart-pie">
<path id="Vector" d="M26.5683 36.6667H30C30.8841 36.6667 31.7319 36.3155 32.357 35.6904C32.9821 35.0652 33.3333 34.2174 33.3333 33.3333V13.3333M33.3333 13.3333C33.3342 12.8057 33.2307 12.2832 33.0287 11.7958C32.8268 11.3084 32.5304 10.8657 32.1567 10.4933L26.1767 4.51334C25.8042 4.1386 25.3611 3.84139 24.8731 3.63885C24.385 3.43632 23.8617 3.33248 23.3333 3.33334M33.3333 13.3333L25 13.3333C24.558 13.3333 24.134 13.1577 23.8215 12.8452C23.5089 12.5326 23.3333 12.1087 23.3333 11.6667V3.33334M23.3333 3.33334H10C9.11594 3.33334 8.2681 3.68453 7.64298 4.30965C7.01786 4.93477 6.66667 5.78262 6.66667 6.66667V12.52M6.69492 19.1866C5.67554 20.0912 4.85184 21.1947 4.2744 22.4293C3.69696 23.6638 3.37798 25.0033 3.33703 26.3656C3.29609 27.7279 3.53405 29.0842 4.0363 30.3512C4.53855 31.6182 5.29449 32.7691 6.2577 33.7334C7.22091 34.6976 8.37105 35.4548 9.63751 35.9584C10.904 36.462 12.26 36.7014 13.6223 36.6619C14.9847 36.6224 16.3245 36.3048 17.5597 35.7287C18.7948 35.1525 19.8992 34.33 20.8049 33.3116M15 26.6665C14.558 26.6665 14.134 26.4909 13.8215 26.1784C13.5089 25.8658 13.3333 25.4419 13.3333 24.9999V18.3332C13.3333 17.4132 14.0833 16.6532 14.9917 16.8049C17.0422 17.1497 18.9342 18.1251 20.4045 19.5953C21.8748 21.0656 22.8502 22.9577 23.195 25.0082C23.3467 25.9149 22.5867 26.6665 21.6667 26.6665H15Z" stroke="var(--stroke-0, #2DA2DB)" stroke-width="2" stroke-linecap="round" stroke-linejoin="round"/>
</g>
</svg>
