<svg preserveAspectRatio="none" width="100%" height="100%" overflow="visible" style="display: block;" viewBox="0 0 40 40" fill="none" xmlns="http://www.w3.org/2000/svg">
<g id="server">
<path id="Vector" d="M10 10H10.0167M10 30H10.0167M6.66667 3.33333H33.3333C35.1743 3.33333 36.6667 4.82572 36.6667 6.66667V13.3333C36.6667 15.1743 35.1743 16.6667 33.3333 16.6667H6.66667C4.82572 16.6667 3.33333 15.1743 3.33333 13.3333V6.66667C3.33333 4.82572 4.82572 3.33333 6.66667 3.33333ZM6.66667 23.3333H33.3333C35.1743 23.3333 36.6667 24.8257 36.6667 26.6667V33.3333C36.6667 35.1743 35.1743 36.6667 33.3333 36.6667H6.66667C4.82572 36.6667 3.33333 35.1743 3.33333 33.3333V26.6667C3.33333 24.8257 4.82572 23.3333 6.66667 23.3333Z" stroke="var(--stroke-0, #2DA2DB)" stroke-width="2" stroke-linecap="round" stroke-linejoin="round"/>
</g>
</svg>
