<svg preserveAspectRatio="none" width="100%" height="100%" overflow="visible" style="display: block;" viewBox="0 0 24 24" fill="none" xmlns="http://www.w3.org/2000/svg">
<g id="touch_app">
<path id="Vector" d="M10.9875 22.1495C10.4508 22.1495 9.93708 22.0391 9.44625 21.8182C8.95542 21.5974 8.54583 21.2763 8.2175 20.855L3.23425 14.4967C3.09358 14.3109 3.0275 14.1062 3.036 13.8825C3.04433 13.659 3.13267 13.469 3.301 13.3125L3.419 13.2005C3.68383 12.9415 4.00208 12.7851 4.37375 12.7312C4.74558 12.6774 5.09742 12.7398 5.42925 12.9185L7.77875 14.1598V5.226C7.77875 4.99417 7.85917 4.79825 8.02 4.63825C8.181 4.47825 8.37825 4.39825 8.61175 4.39825C8.84508 4.39825 9.0405 4.47825 9.198 4.63825C9.3555 4.79825 9.43425 4.99417 9.43425 5.226V15.4995C9.43425 15.8267 9.2965 16.07 9.021 16.2295C8.74533 16.3892 8.46458 16.3924 8.17875 16.2393L5.66075 14.9083L9.57275 19.8523C9.74758 20.0626 9.95667 20.2212 10.2 20.328C10.4433 20.4347 10.7018 20.488 10.9755 20.488H16.3217C16.9294 20.488 17.4434 20.2793 17.8637 19.862C18.2839 19.4447 18.494 18.9306 18.494 18.3197V14.2213C18.494 13.7564 18.3349 13.3662 18.0167 13.0507C17.6986 12.7354 17.3078 12.5777 16.8445 12.5777H12.262C12.03 12.5777 11.8341 12.4975 11.6742 12.337C11.5142 12.1763 11.4342 11.9782 11.4342 11.7425C11.4342 11.507 11.5142 11.3104 11.6742 11.1527C11.8341 10.9951 12.03 10.9163 12.262 10.9163H16.8445C17.7612 10.9163 18.5422 11.2383 19.1875 11.8825C19.8328 12.5267 20.1555 13.3063 20.1555 14.2213V18.3217C20.1555 19.3917 19.784 20.2972 19.041 21.038C18.2982 21.779 17.3927 22.1495 16.3245 22.1495H10.9875ZM11.702 7.85175C11.4617 7.85175 11.2628 7.77158 11.1055 7.61125C10.9482 7.45108 10.8695 7.25483 10.8695 7.0225C10.8695 6.9785 10.9068 6.84 10.9815 6.607C11.0982 6.407 11.1898 6.19033 11.2565 5.957C11.3232 5.72367 11.3565 5.478 11.3565 5.22C11.3565 4.46133 11.0888 3.81533 10.5535 3.282C10.0183 2.74867 9.36833 2.482 8.6035 2.482C7.83883 2.482 7.18983 2.74942 6.6565 3.28425C6.12317 3.81892 5.8565 4.46817 5.8565 5.232C5.8565 5.482 5.88983 5.72367 5.9565 5.957C6.02317 6.19033 6.11483 6.407 6.2315 6.607C6.26883 6.665 6.29683 6.72625 6.3155 6.79075C6.33417 6.85542 6.3435 6.9325 6.3435 7.022C6.3435 7.25567 6.26308 7.45233 6.10225 7.612C5.94158 7.77183 5.7415 7.85175 5.502 7.85175C5.34117 7.85175 5.1955 7.81442 5.065 7.73975C4.93433 7.66508 4.83225 7.55642 4.75875 7.41375C4.57425 7.07842 4.43417 6.72775 4.3385 6.36175C4.24283 5.99575 4.195 5.61517 4.195 5.22C4.195 4.00117 4.62508 2.96325 5.48525 2.10625C6.34525 1.24925 7.38542 0.82075 8.60575 0.82075C9.82592 0.82075 10.8663 1.24917 11.727 2.106C12.5877 2.96283 13.018 4.00283 13.018 5.226C13.018 5.624 12.9684 6.00542 12.8693 6.37025C12.7703 6.73508 12.6305 7.08158 12.45 7.40975C12.3793 7.55508 12.2773 7.66508 12.144 7.73975C12.0107 7.81442 11.8633 7.85175 11.702 7.85175Z" fill="var(--fill-0, #4CC4FE)"/>
</g>
</svg>
