<svg preserveAspectRatio="none" width="100%" height="100%" overflow="visible" style="display: block;" viewBox="0 0 20 20" fill="none" xmlns="http://www.w3.org/2000/svg">
<g id="checklist">
<g id="Vector">
<mask id="path-1-inside-1_0_39" fill="white">
<path d="M4.645 13.6513L7.87188 10.4194C8.0134 10.2777 8.18 10.2103 8.37167 10.2173C8.56319 10.2242 8.73417 10.2985 8.88458 10.4402C9.02069 10.5819 9.08792 10.7476 9.08625 10.9375C9.08458 11.1274 9.01299 11.2931 8.87146 11.4348L5.14229 15.159C5.00062 15.3006 4.83403 15.3723 4.6425 15.374C4.45083 15.3756 4.28424 15.3056 4.14271 15.164L2.06437 13.0806C1.91937 12.939 1.84687 12.7732 1.84687 12.5833C1.84687 12.3935 1.91937 12.2277 2.06437 12.086C2.2059 11.9444 2.37167 11.877 2.56167 11.884C2.75153 11.8909 2.91729 11.9583 3.05896 12.086L4.645 13.6513ZM4.645 6.98458L7.87188 3.75271C8.0134 3.61104 8.18 3.54368 8.37167 3.55062C8.56319 3.55757 8.73417 3.63187 8.88458 3.77354C9.02069 3.91521 9.08792 4.08097 9.08625 4.27083C9.08458 4.46069 9.01299 4.62646 8.87146 4.76812L5.14229 8.49229C5.00062 8.63396 4.83403 8.70563 4.6425 8.70729C4.45083 8.70896 4.28424 8.63896 4.14271 8.49729L2.06437 6.41396C1.91937 6.27229 1.84687 6.10653 1.84687 5.91667C1.84687 5.72681 1.91937 5.56104 2.06437 5.41937C2.2059 5.27771 2.37167 5.21035 2.56167 5.21729C2.75153 5.22424 2.91729 5.2916 3.05896 5.41937L4.645 6.98458ZM11.5629 14.0431C11.3626 14.0431 11.1943 13.9745 11.0579 13.8373C10.9215 13.7002 10.8533 13.531 10.8533 13.3296C10.8533 13.1283 10.9215 12.9603 11.0579 12.8256C11.1943 12.6909 11.3626 12.6235 11.5629 12.6235H17.7283C17.9286 12.6235 18.0969 12.6922 18.2333 12.8294C18.3697 12.9665 18.4379 13.1357 18.4379 13.3371C18.4379 13.5383 18.3697 13.7063 18.2333 13.841C18.0969 13.9758 17.9286 14.0431 17.7283 14.0431H11.5629ZM11.5629 7.37646C11.3626 7.37646 11.1943 7.30785 11.0579 7.17062C10.9215 7.03354 10.8533 6.86431 10.8533 6.66292C10.8533 6.46167 10.9215 6.29368 11.0579 6.15896C11.1943 6.02424 11.3626 5.95687 11.5629 5.95687H17.7283C17.9286 5.95687 18.0969 6.02549 18.2333 6.16271C18.3697 6.29979 18.4379 6.46903 18.4379 6.67042C18.4379 6.87167 18.3697 7.03965 18.2333 7.17437C18.0969 7.3091 17.9286 7.37646 17.7283 7.37646H11.5629Z"/>
</mask>
<path d="M4.645 13.6513L3.59137 14.7189L4.65281 15.7664L5.70648 14.7111L4.645 13.6513ZM7.87188 10.4194L6.81069 9.35924L6.81039 9.35954L7.87188 10.4194ZM8.37167 10.2173L8.42602 8.71828L8.42598 8.71828L8.37167 10.2173ZM8.88458 10.4402L9.96624 9.40097L9.94028 9.37395L9.91301 9.34826L8.88458 10.4402ZM8.87146 11.4348L9.93141 12.4962L9.93264 12.4949L8.87146 11.4348ZM5.14229 15.159L4.08234 14.0976L4.08163 14.0983L5.14229 15.159ZM4.6425 15.374L4.65554 16.8739L4.65555 16.8739L4.6425 15.374ZM4.14271 15.164L3.08077 16.2233L3.08153 16.2241L4.14271 15.164ZM2.06437 13.0806L3.12631 12.0212L3.11951 12.0144L3.11263 12.0077L2.06437 13.0806ZM2.06437 12.086L3.11263 13.159L3.11913 13.1526L3.12556 13.1462L2.06437 12.086ZM2.56167 11.884L2.61649 10.385L2.61645 10.385L2.56167 11.884ZM3.05896 12.086L4.11258 11.0184L4.08862 10.9947L4.06361 10.9722L3.05896 12.086ZM4.645 6.98458L3.59137 8.05223L4.65281 9.09973L5.70648 8.04442L4.645 6.98458ZM7.87188 3.75271L6.81069 2.69257L6.81039 2.69287L7.87188 3.75271ZM8.37167 3.55062L8.42602 2.05161L8.42598 2.05161L8.37167 3.55062ZM8.88458 3.77354L9.96624 2.7343L9.94028 2.70728L9.91301 2.6816L8.88458 3.77354ZM8.87146 4.76812L9.93141 5.8295L9.93264 5.82826L8.87146 4.76812ZM5.14229 8.49229L4.08234 7.43092L4.08163 7.43163L5.14229 8.49229ZM4.6425 8.70729L4.65554 10.2072H4.65555L4.6425 8.70729ZM4.14271 8.49729L3.08077 9.55668L3.08153 9.55743L4.14271 8.49729ZM2.06437 6.41396L3.12631 5.35457L3.11951 5.34776L3.11263 5.34104L2.06437 6.41396ZM2.06437 5.41937L3.11263 6.4923L3.11913 6.48594L3.12556 6.47951L2.06437 5.41937ZM2.56167 5.21729L2.61649 3.71829L2.61645 3.71829L2.56167 5.21729ZM3.05896 5.41937L4.11258 4.35173L4.08862 4.32807L4.06361 4.30552L3.05896 5.41937ZM11.0579 13.8373L12.1218 12.7799L12.1213 12.7793L11.0579 13.8373ZM18.2333 12.8294L17.1694 13.8868L17.17 13.8873L18.2333 12.8294ZM11.0579 7.17062L12.1218 6.1132L12.1213 6.11266L11.0579 7.17062ZM18.2333 6.16271L17.1694 7.22013L17.17 7.22067L18.2333 6.16271ZM4.645 13.6513L5.70648 14.7111L8.93336 11.4792L7.87188 10.4194L6.81039 9.35954L3.58352 12.5914L4.645 13.6513ZM7.87188 10.4194L8.93306 11.4795C8.87772 11.5349 8.78903 11.6032 8.66525 11.6532C8.53997 11.7039 8.41796 11.72 8.31735 11.7163L8.37167 10.2173L8.42598 8.71828C7.79737 8.6955 7.23224 8.93727 6.81069 9.35924L7.87188 10.4194ZM8.37167 10.2173L8.31732 11.7163C8.23115 11.7132 8.1369 11.6936 8.04566 11.6539C7.95606 11.615 7.89341 11.5672 7.85616 11.5322L8.88458 10.4402L9.91301 9.34826C9.52035 8.97845 9.01045 8.73947 8.42602 8.71828L8.37167 10.2173ZM8.88458 10.4402L7.80293 11.4794C7.75192 11.4264 7.69181 11.3449 7.64704 11.2345C7.60187 11.1231 7.58551 11.0147 7.58631 10.9243L9.08625 10.9375L10.5862 10.9507C10.5914 10.3539 10.3634 9.81438 9.96624 9.40097L8.88458 10.4402ZM9.08625 10.9375L7.58631 10.9243C7.58714 10.8296 7.60665 10.7197 7.65426 10.6094C7.70123 10.5007 7.76192 10.4231 7.81028 10.3747L8.87146 11.4348L9.93264 12.4949C10.3351 12.0921 10.5809 11.5567 10.5862 10.9507L9.08625 10.9375ZM8.87146 11.4348L7.81151 10.3734L4.08234 14.0976L5.14229 15.159L6.20224 16.2203L9.93141 12.4962L8.87146 11.4348ZM5.14229 15.159L4.08163 14.0983C4.13116 14.0488 4.20956 13.9878 4.31834 13.941C4.42841 13.8937 4.53716 13.8748 4.62945 13.874L4.6425 15.374L4.65555 16.8739C5.26002 16.8686 5.79739 16.6252 6.20295 16.2196L5.14229 15.159ZM4.6425 15.374L4.62946 13.874C4.72498 13.8732 4.83888 13.8911 4.95486 13.9398C5.06949 13.988 5.15197 14.0518 5.20389 14.1038L4.14271 15.164L3.08153 16.2241C3.49337 16.6363 4.0416 16.8792 4.65554 16.8739L4.6425 15.374ZM4.14271 15.164L5.20464 14.1046L3.12631 12.0212L2.06437 13.0806L1.00244 14.14L3.08077 16.2233L4.14271 15.164ZM2.06437 13.0806L3.11263 12.0077C3.16157 12.0555 3.2257 12.135 3.27555 12.249C3.32628 12.365 3.34687 12.4818 3.34687 12.5833H1.84687H0.346875C0.346875 13.2065 0.603988 13.7509 1.01612 14.1535L2.06437 13.0806ZM1.84687 12.5833H3.34687C3.34687 12.6849 3.32628 12.8017 3.27555 12.9177C3.2257 13.0317 3.16157 13.1112 3.11263 13.159L2.06437 12.086L1.01612 11.0131C0.603988 11.4158 0.346875 11.9602 0.346875 12.5833H1.84687ZM2.06437 12.086L3.12556 13.1462C3.07142 13.2004 2.98347 13.2686 2.85955 13.3189C2.73384 13.37 2.61028 13.3867 2.50688 13.383L2.56167 11.884L2.61645 10.385C1.98529 10.3619 1.42185 10.6068 1.00319 11.0259L2.06437 12.086ZM2.56167 11.884L2.50684 13.383C2.43763 13.3804 2.35287 13.3656 2.26368 13.3293C2.17457 13.2931 2.10434 13.245 2.05431 13.1999L3.05896 12.086L4.06361 10.9722C3.66157 10.6096 3.15997 10.4048 2.61649 10.385L2.56167 11.884ZM3.05896 12.086L2.00533 13.1537L3.59137 14.7189L4.645 13.6513L5.69863 12.5836L4.11258 11.0184L3.05896 12.086ZM4.645 6.98458L5.70648 8.04442L8.93336 4.81255L7.87188 3.75271L6.81039 2.69287L3.58352 5.92474L4.645 6.98458ZM7.87188 3.75271L8.93306 4.81285C8.87772 4.86824 8.78903 4.93651 8.66525 4.98656C8.53997 5.03722 8.41796 5.05329 8.31735 5.04964L8.37167 3.55062L8.42598 2.05161C7.79737 2.02883 7.23224 2.27061 6.81069 2.69257L7.87188 3.75271ZM8.37167 3.55062L8.31732 5.04964C8.23115 5.04652 8.1369 5.02691 8.04566 4.98726C7.95606 4.94831 7.89341 4.90057 7.85616 4.86549L8.88458 3.77354L9.91301 2.6816C9.52035 2.31178 9.01045 2.0728 8.42602 2.05161L8.37167 3.55062ZM8.88458 3.77354L7.80293 4.81278C7.75192 4.75969 7.69181 4.67822 7.64704 4.56782C7.60187 4.45645 7.58551 4.34807 7.58631 4.25767L9.08625 4.27083L10.5862 4.284C10.5914 3.68727 10.3634 3.14772 9.96624 2.7343L8.88458 3.77354ZM9.08625 4.27083L7.58631 4.25767C7.58714 4.16296 7.60665 4.05301 7.65426 3.94277C7.70123 3.83404 7.76192 3.75639 7.81028 3.70798L8.87146 4.76812L9.93264 5.82826C10.3351 5.42541 10.5809 4.89005 10.5862 4.284L9.08625 4.27083ZM8.87146 4.76812L7.81151 3.70675L4.08234 7.43092L5.14229 8.49229L6.20224 9.55366L9.93141 5.8295L8.87146 4.76812ZM5.14229 8.49229L4.08163 7.43163C4.13116 7.3821 4.20956 7.32117 4.31834 7.27438C4.42841 7.22703 4.53716 7.20815 4.62945 7.20735L4.6425 8.70729L4.65555 10.2072C5.26002 10.202 5.79739 9.95851 6.20295 9.55295L5.14229 8.49229ZM4.6425 8.70729L4.62946 7.20735C4.72498 7.20652 4.83888 7.22443 4.95486 7.27316C5.06949 7.32132 5.15197 7.38518 5.20389 7.43715L4.14271 8.49729L3.08153 9.55743C3.49337 9.96968 4.0416 10.2126 4.65554 10.2072L4.6425 8.70729ZM4.14271 8.49729L5.20464 7.43791L3.12631 5.35457L2.06437 6.41396L1.00244 7.47334L3.08077 9.55668L4.14271 8.49729ZM2.06437 6.41396L3.11263 5.34104C3.16157 5.38885 3.2257 5.46834 3.27555 5.58231C3.32628 5.69829 3.34687 5.81514 3.34687 5.91667H1.84687H0.346875C0.346875 6.53983 0.603988 7.08422 1.01612 7.48688L2.06437 6.41396ZM1.84687 5.91667H3.34687C3.34687 6.0182 3.32628 6.13504 3.27555 6.25102C3.2257 6.365 3.16157 6.44448 3.11263 6.4923L2.06437 5.41937L1.01612 4.34645C0.603988 4.74911 0.346875 5.2935 0.346875 5.91667H1.84687ZM2.06437 5.41937L3.12556 6.47951C3.07142 6.5337 2.98347 6.60189 2.85955 6.65225C2.73384 6.70333 2.61028 6.72007 2.50688 6.71629L2.56167 5.21729L2.61645 3.71829C1.98529 3.69522 1.42185 3.94016 1.00319 4.35923L2.06437 5.41937ZM2.56167 5.21729L2.50684 6.71629C2.43763 6.71376 2.35287 6.69891 2.26368 6.66266C2.17457 6.62645 2.10434 6.57836 2.05431 6.53323L3.05896 5.41937L4.06361 4.30552C3.66157 3.9429 3.15997 3.73817 2.61649 3.71829L2.56167 5.21729ZM3.05896 5.41937L2.00533 6.48702L3.59137 8.05223L4.645 6.98458L5.69863 5.91693L4.11258 4.35173L3.05896 5.41937ZM11.5629 14.0431V12.5431C11.6371 12.5431 11.7396 12.5565 11.8526 12.6026C11.9667 12.6491 12.0573 12.715 12.1218 12.7799L11.0579 13.8373L9.99403 14.8947C10.4229 15.3262 10.9789 15.5431 11.5629 15.5431V14.0431ZM11.0579 13.8373L12.1213 12.7793C12.1859 12.8443 12.2505 12.9345 12.2958 13.0469C12.3406 13.1581 12.3533 13.2581 12.3533 13.3296H10.8533H9.35333C9.35333 13.9092 9.56586 14.4644 9.99457 14.8953L11.0579 13.8373ZM10.8533 13.3296H12.3533C12.3533 13.4011 12.3406 13.5029 12.2943 13.6169C12.2475 13.7323 12.1803 13.8254 12.112 13.8928L11.0579 12.8256L10.0038 11.7585C9.56665 12.1903 9.35333 12.7496 9.35333 13.3296H10.8533ZM11.0579 12.8256L12.112 13.8928C12.0463 13.9578 11.9557 14.0219 11.8437 14.0667C11.733 14.111 11.6337 14.1235 11.5629 14.1235V12.6235V11.1235C10.9876 11.1235 10.4346 11.3329 10.0038 11.7585L11.0579 12.8256ZM11.5629 12.6235V14.1235H17.7283V12.6235V11.1235H11.5629V12.6235ZM17.7283 12.6235V14.1235C17.6542 14.1235 17.5517 14.1101 17.4386 14.064C17.3245 14.0175 17.234 13.9517 17.1694 13.8868L18.2333 12.8294L19.2972 11.772C18.8684 11.3405 18.3123 11.1235 17.7283 11.1235V12.6235ZM18.2333 12.8294L17.17 13.8873C17.1053 13.8223 17.0408 13.7321 16.9955 13.6197C16.9507 13.5085 16.9379 13.4085 16.9379 13.3371H18.4379H19.9379C19.9379 12.7575 19.7254 12.2023 19.2967 11.7714L18.2333 12.8294ZM18.4379 13.3371H16.9379C16.9379 13.2656 16.9507 13.1637 16.9969 13.0498C17.0438 12.9344 17.111 12.8413 17.1792 12.7739L18.2333 13.841L19.2875 14.9082C19.7246 14.4764 19.9379 13.9171 19.9379 13.3371H18.4379ZM18.2333 13.841L17.1792 12.7739C17.245 12.7089 17.3355 12.6448 17.4475 12.6C17.5582 12.5557 17.6576 12.5431 17.7283 12.5431V14.0431V15.5431C18.3036 15.5431 18.8567 15.3337 19.2875 14.9082L18.2333 13.841ZM17.7283 14.0431V12.5431H11.5629V14.0431V15.5431H17.7283V14.0431ZM11.5629 7.37646V5.87646C11.6371 5.87646 11.7396 5.88986 11.8526 5.93595C11.9667 5.98246 12.0573 6.0483 12.1218 6.1132L11.0579 7.17062L9.99403 8.22805C10.4229 8.6595 10.9789 8.87646 11.5629 8.87646V7.37646ZM11.0579 7.17062L12.1213 6.11266C12.1859 6.17767 12.2505 6.26786 12.2958 6.38026C12.3406 6.49145 12.3533 6.59146 12.3533 6.66292H10.8533H9.35333C9.35333 7.2425 9.56586 7.7977 9.99457 8.22859L11.0579 7.17062ZM10.8533 6.66292H12.3533C12.3533 6.73442 12.3406 6.83626 12.2943 6.9502C12.2475 7.06562 12.1803 7.15871 12.112 7.22612L11.0579 6.15896L10.0038 5.0918C9.56665 5.5236 9.35333 6.0829 9.35333 6.66292H10.8533ZM11.0579 6.15896L12.112 7.22612C12.0463 7.2911 11.9557 7.35521 11.8437 7.40003C11.733 7.44434 11.6337 7.45687 11.5629 7.45687V5.95687V4.45687C10.9876 4.45687 10.4346 4.66626 10.0038 5.0918L11.0579 6.15896ZM11.5629 5.95687V7.45687H17.7283V5.95687V4.45687H11.5629V5.95687ZM17.7283 5.95687V7.45687C17.6542 7.45687 17.5517 7.44347 17.4386 7.39738C17.3245 7.35087 17.234 7.28503 17.1694 7.22013L18.2333 6.16271L19.2972 5.10528C18.8684 4.67383 18.3123 4.45687 17.7283 4.45687V5.95687ZM18.2333 6.16271L17.17 7.22067C17.1053 7.15566 17.0408 7.06547 16.9955 6.95308C16.9507 6.84188 16.9379 6.74187 16.9379 6.67042H18.4379H19.9379C19.9379 6.09083 19.7254 5.53563 19.2967 5.10474L18.2333 6.16271ZM18.4379 6.67042H16.9379C16.9379 6.59891 16.9507 6.49707 16.9969 6.38313C17.0438 6.26771 17.111 6.17462 17.1792 6.10721L18.2333 7.17437L19.2875 8.24153C19.7246 7.80973 19.9379 7.25043 19.9379 6.67042H18.4379ZM18.2333 7.17437L17.1792 6.10721C17.245 6.04224 17.3355 5.97812 17.4475 5.9333C17.5582 5.88899 17.6576 5.87646 17.7283 5.87646V7.37646V8.87646C18.3036 8.87646 18.8567 8.66707 19.2875 8.24153L18.2333 7.17437ZM17.7283 7.37646V5.87646H11.5629V7.37646V8.87646H17.7283V7.37646Z" fill="var(--stroke-0, #F4813E)" mask="url(#path-1-inside-1_0_39)"/>
</g>
</g>
</svg>
