<svg preserveAspectRatio="none" width="100%" height="100%" overflow="visible" style="display: block;" viewBox="0 0 20 20" fill="none" xmlns="http://www.w3.org/2000/svg">
<g id="docs">
<path id="Vector" d="M7.36646 10.2523H12.6335C12.8191 10.2523 12.9747 10.1899 13.1002 10.065C13.2258 9.94028 13.2885 9.78319 13.2885 9.59375C13.2885 9.4043 13.2265 9.2484 13.1023 9.12604C12.9783 9.00368 12.822 8.9425 12.6335 8.9425H7.36646C7.1809 8.9425 7.02535 9.00493 6.89979 9.12979C6.77424 9.25451 6.71146 9.4116 6.71146 9.60104C6.71146 9.79049 6.77354 9.94639 6.89771 10.0687C7.02174 10.1911 7.17799 10.2523 7.36646 10.2523ZM7.36646 12.8121H12.6335C12.8191 12.8121 12.9747 12.7497 13.1002 12.6248C13.2258 12.5001 13.2885 12.343 13.2885 12.1535C13.2885 11.9641 13.2265 11.8082 13.1023 11.6858C12.9783 11.5635 12.822 11.5023 12.6335 11.5023H7.36646C7.1809 11.5023 7.02535 11.5647 6.89979 11.6894C6.77424 11.8142 6.71146 11.9714 6.71146 12.1608C6.71146 12.3503 6.77354 12.5062 6.89771 12.6285C7.02174 12.7509 7.17799 12.8121 7.36646 12.8121ZM7.36646 15.3719H10.1335C10.3191 15.3719 10.4747 15.3094 10.6002 15.1846C10.7258 15.0599 10.7885 14.9028 10.7885 14.7133C10.7885 14.5239 10.7265 14.368 10.6023 14.2456C10.4783 14.1233 10.322 14.0621 10.1335 14.0621H7.36646C7.1809 14.0621 7.02535 14.1244 6.89979 14.2492C6.77424 14.374 6.71146 14.5312 6.71146 14.7206C6.71146 14.9101 6.77354 15.066 6.89771 15.1883C7.02174 15.3107 7.17799 15.3719 7.36646 15.3719ZM4.62812 18.4579C4.24479 18.4579 3.91243 18.3172 3.63104 18.0356C3.34951 17.7542 3.20875 17.4219 3.20875 17.0385V2.96146C3.20875 2.57674 3.34951 2.24319 3.63104 1.96083C3.91243 1.67833 4.24479 1.53708 4.62812 1.53708H11.5633C11.7599 1.53708 11.9472 1.57681 12.1252 1.65625C12.3033 1.73569 12.4561 1.83924 12.5837 1.96687L16.3665 5.74958C16.4941 5.87722 16.5976 6.03007 16.6771 6.20812C16.7565 6.38618 16.7962 6.57347 16.7962 6.77V17.0385C16.7962 17.4219 16.655 17.7542 16.3725 18.0356C16.0901 18.3172 15.7566 18.4579 15.3719 18.4579H4.62812ZM15.3719 6.71687H12.6208C12.3264 6.71687 12.075 6.61264 11.8667 6.40417C11.6582 6.19583 11.554 5.94444 11.554 5.65V2.96146H4.62812V17.0385H15.3719V6.71687Z" fill="var(--fill-0, #F4813E)"/>
</g>
</svg>
