<svg preserveAspectRatio="none" width="100%" height="100%" overflow="visible" style="display: block;" viewBox="0 0 24 24" fill="none" xmlns="http://www.w3.org/2000/svg">
<g id="eye_tracking">
<g id="Vector">
<mask id="path-1-inside-1_0_32" fill="white">
<path d="M2.55375 23.1495C2.09375 23.1495 1.69492 22.9806 1.35725 22.6428C1.01942 22.3051 0.8505 21.9062 0.8505 21.4462V19.2107C0.8505 18.9704 0.93275 18.7684 1.09725 18.6048C1.26175 18.4411 1.46483 18.3592 1.7065 18.3592C1.94817 18.3592 2.14983 18.4411 2.3115 18.6048C2.473 18.7684 2.55375 18.9704 2.55375 19.2107V21.4462H4.78925C5.02958 21.4462 5.23158 21.5285 5.39525 21.693C5.55892 21.8575 5.64075 22.0606 5.64075 22.3022C5.64075 22.5439 5.55892 22.7455 5.39525 22.907C5.23158 23.0687 5.02958 23.1495 4.78925 23.1495H2.55375ZM21.4523 23.1495H19.2167C18.9764 23.1495 18.7744 23.0672 18.6107 22.9027C18.4471 22.7382 18.3652 22.5352 18.3652 22.2935C18.3652 22.0518 18.4471 21.8502 18.6107 21.6885C18.7744 21.527 18.9764 21.4462 19.2167 21.4462H21.4523V19.2107C21.4523 18.9704 21.5345 18.7684 21.699 18.6048C21.8635 18.4411 22.0666 18.3592 22.3083 18.3592C22.5499 18.3592 22.7515 18.4411 22.913 18.6048C23.0747 18.7684 23.1555 18.9704 23.1555 19.2107V21.4462C23.1555 21.9062 22.9866 22.3051 22.6488 22.6428C22.3111 22.9806 21.9123 23.1495 21.4523 23.1495ZM11.9733 18.5005C10.1498 18.5005 8.48008 18.0203 6.96425 17.06C5.44825 16.0997 4.23658 14.7778 3.32925 13.0945C3.23408 12.9287 3.16683 12.7537 3.1275 12.5695C3.08817 12.3853 3.0685 12.1975 3.0685 12.006C3.0685 11.811 3.09025 11.6213 3.13375 11.437C3.17725 11.2525 3.24242 11.0753 3.32925 10.9055C4.23658 9.2055 5.44733 7.87433 6.9615 6.912C8.47567 5.94967 10.1448 5.4685 11.969 5.4685C13.7932 5.4685 15.4685 5.94867 16.995 6.909C18.5215 7.86933 19.7384 9.1995 20.6458 10.8995C20.7409 11.0693 20.8092 11.2476 20.8505 11.4342C20.8918 11.6209 20.9125 11.8075 20.9125 11.994C20.9125 12.1807 20.8908 12.3688 20.8475 12.5585C20.8042 12.7482 20.7349 12.9288 20.6398 13.1005C19.7364 14.7838 18.522 16.1047 16.9965 17.063C15.471 18.0213 13.7966 18.5005 11.9733 18.5005ZM11.9713 16.8393C13.5158 16.8393 14.9537 16.4047 16.285 15.5355C17.6163 14.6665 18.634 13.487 19.338 11.997C18.634 10.507 17.6166 9.32333 16.2857 8.446C14.9549 7.56867 13.516 7.13 11.969 7.13C10.425 7.13 8.993 7.56867 7.673 8.446C6.353 9.32333 5.341 10.507 4.637 11.997C5.341 13.487 6.35325 14.6665 7.67375 15.5355C8.99425 16.4047 10.4268 16.8393 11.9713 16.8393ZM11.9995 15.312C12.9205 15.312 13.71 14.9869 14.368 14.3367C15.026 13.6866 15.355 12.9058 15.355 11.9945C15.355 11.0832 15.0266 10.3001 14.3697 9.64525C13.7129 8.99042 12.9216 8.663 11.9957 8.663C11.0779 8.663 10.3002 8.98783 9.6625 9.6375C9.02483 10.2872 8.706 11.0741 8.706 11.9982C8.706 12.9224 9.02667 13.7057 9.668 14.3482C10.3095 14.9907 11.0867 15.312 11.9995 15.312ZM11.9957 13.6982C11.5224 13.6982 11.1218 13.5332 10.7938 13.203C10.4658 12.8727 10.3018 12.4716 10.3018 11.9997C10.3018 11.5277 10.4656 11.1226 10.7933 10.7842C11.1209 10.4459 11.522 10.2768 11.9965 10.2768C12.471 10.2768 12.8764 10.4443 13.2128 10.7795C13.5493 11.1147 13.7175 11.5216 13.7175 12.0003C13.7175 12.4723 13.5501 12.8733 13.2152 13.2033C12.8804 13.5333 12.4739 13.6982 11.9957 13.6982ZM23.1555 2.54775V4.78325C23.1555 5.02358 23.0732 5.22558 22.9087 5.38925C22.7442 5.55292 22.5412 5.63475 22.2995 5.63475C22.0578 5.63475 21.8562 5.55292 21.6945 5.38925C21.533 5.22558 21.4523 5.02358 21.4523 4.78325V2.54775H19.2167C18.9764 2.54775 18.7744 2.4655 18.6107 2.301C18.4471 2.1365 18.3652 1.93342 18.3652 1.69175C18.3652 1.45008 18.4471 1.2485 18.6107 1.087C18.7744 0.925333 18.9764 0.844501 19.2167 0.844501H21.4523C21.9123 0.844501 22.3111 1.01342 22.6488 1.35125C22.9866 1.68892 23.1555 2.08775 23.1555 2.54775ZM2.55375 0.844501H4.78925C5.02958 0.844501 5.23158 0.92675 5.39525 1.09125C5.55892 1.25575 5.64075 1.45883 5.64075 1.7005C5.64075 1.94217 5.55892 2.14383 5.39525 2.3055C5.23158 2.467 5.02958 2.54775 4.78925 2.54775H2.55375V4.78325C2.55375 5.02358 2.4715 5.22558 2.307 5.38925C2.1425 5.55292 1.93942 5.63475 1.69775 5.63475C1.45608 5.63475 1.2545 5.55292 1.093 5.38925C0.931333 5.22558 0.8505 5.02358 0.8505 4.78325V2.54775C0.8505 2.08775 1.01942 1.68892 1.35725 1.35125C1.69492 1.01342 2.09375 0.844501 2.55375 0.844501Z"/>
</mask>
<path d="M1.35725 22.6428L2.77181 21.2289L2.77111 21.2282L1.35725 22.6428ZM2.3115 18.6048L3.73511 17.2L3.73438 17.1993L2.3115 18.6048ZM2.55375 21.4462H0.55375V23.4462H2.55375V21.4462ZM5.39525 22.907L3.99049 21.4834L3.98976 21.4841L5.39525 22.907ZM18.6107 21.6885L17.206 20.2649L17.2053 20.2656L18.6107 21.6885ZM21.4523 21.4462V23.4462H23.4523V21.4462H21.4523ZM22.913 18.6048L21.4894 20.0095L21.4901 20.0102L22.913 18.6048ZM22.6488 22.6428L21.2349 21.2282L21.2342 21.2289L22.6488 22.6428ZM6.96425 17.06L8.0346 15.3705L8.03451 15.3705L6.96425 17.06ZM3.32925 13.0945L5.08979 12.1456L5.07716 12.1221L5.06391 12.099L3.32925 13.0945ZM3.13375 11.437L5.08028 11.8964L5.08038 11.896L3.13375 11.437ZM3.32925 10.9055L1.56483 9.96378L1.55653 9.97934L1.54851 9.99503L3.32925 10.9055ZM20.6457 10.8995L18.8813 11.8412L18.891 11.8593L18.901 11.8772L20.6457 10.8995ZM20.6398 13.1005L18.8906 12.1308L18.8839 12.1428L18.8775 12.1548L20.6398 13.1005ZM16.285 15.5355L15.1918 13.8607L15.1917 13.8608L16.285 15.5355ZM19.338 11.997L21.1463 12.8514L21.55 11.997L21.1463 11.1426L19.338 11.997ZM4.637 11.997L2.82868 11.1426L2.425 11.997L2.82868 12.8514L4.637 11.997ZM7.67375 15.5355L8.77335 13.8649L8.7732 13.8648L7.67375 15.5355ZM9.668 14.3482L8.2525 15.7612L8.25269 15.7614L9.668 14.3482ZM10.7938 13.203L9.37453 14.6122L9.37489 14.6125L10.7938 13.203ZM13.2128 10.7795L11.801 12.1962L11.8013 12.1965L13.2128 10.7795ZM21.6945 5.38925L20.2709 6.79401L20.2716 6.79474L21.6945 5.38925ZM21.4523 2.54775H23.4523V0.547749H21.4523V2.54775ZM18.6107 1.087L20.0155 2.5106L20.0162 2.50988L18.6107 1.087ZM22.6488 1.35125L21.2342 2.76511L21.2349 2.76581L22.6488 1.35125ZM5.39525 2.3055L6.80001 3.7291L6.80074 3.72838L5.39525 2.3055ZM2.55375 2.54775V0.547749H0.55375V2.54775H2.55375ZM1.093 5.38925L2.51661 3.98449L2.51588 3.98376L1.093 5.38925ZM1.35725 1.35125L2.77111 2.76581L2.77181 2.76511L1.35725 1.35125ZM2.55375 23.1495V21.1495C2.57486 21.1495 2.62719 21.1547 2.68961 21.1812C2.75053 21.207 2.77737 21.2344 2.77181 21.2289L1.35725 22.6428L-0.0573125 24.0566C0.639392 24.7537 1.54085 25.1495 2.55375 25.1495V23.1495ZM1.35725 22.6428L2.77111 21.2282C2.76555 21.2226 2.79302 21.2495 2.81882 21.3104C2.84526 21.3728 2.8505 21.4251 2.8505 21.4462H0.8505H-1.1495C-1.1495 22.4592 -0.753662 23.3606 -0.0566148 24.0573L1.35725 22.6428ZM0.8505 21.4462H2.8505V19.2107H0.8505H-1.1495V21.4462H0.8505ZM0.8505 19.2107H2.8505C2.8505 19.3228 2.83041 19.4714 2.76452 19.6332C2.69806 19.7965 2.60355 19.9274 2.50787 20.0225L1.09725 18.6048L-0.313368 17.1869C-0.869932 17.7407 -1.1495 18.4595 -1.1495 19.2107H0.8505ZM1.09725 18.6048L2.50787 20.0225C2.41205 20.1179 2.28158 20.2107 2.12044 20.2757C1.9609 20.34 1.8152 20.3593 1.7065 20.3593V18.3593V16.3593C0.960575 16.3593 0.242869 16.6335 -0.313368 17.1869L1.09725 18.6048ZM1.7065 18.3593V20.3593C1.59801 20.3593 1.45005 20.34 1.28698 20.2739C1.12191 20.2069 0.987609 20.1105 0.888619 20.0102L2.3115 18.6048L3.73438 17.1993C3.17632 16.6343 2.45276 16.3593 1.7065 16.3593V18.3593ZM2.3115 18.6048L0.887895 20.0095C0.792284 19.9126 0.700195 19.7818 0.636076 19.6214C0.572642 19.4627 0.55375 19.3182 0.55375 19.2107H2.55375H4.55375C4.55375 18.471 4.2841 17.7563 3.73511 17.2L2.3115 18.6048ZM2.55375 19.2107H0.55375V21.4462H2.55375H4.55375V19.2107H2.55375ZM2.55375 21.4462V23.4462H4.78925V21.4462V19.4462H2.55375V21.4462ZM4.78925 21.4462V23.4462C4.67725 23.4462 4.52858 23.4262 4.36677 23.3603C4.20355 23.2938 4.07265 23.1993 3.97745 23.1036L5.39525 21.693L6.81305 20.2824C6.25931 19.7258 5.54054 19.4462 4.78925 19.4462V21.4462ZM5.39525 21.693L3.97745 23.1036C3.88212 23.0078 3.78925 22.8773 3.72432 22.7162C3.66003 22.5566 3.64075 22.411 3.64075 22.3022H5.64075H7.64075C7.64075 21.5563 7.36647 20.8386 6.81305 20.2824L5.39525 21.693ZM5.64075 22.3022H3.64075C3.64075 22.1938 3.65997 22.0457 3.72625 21.8824C3.79335 21.7171 3.88998 21.5826 3.99049 21.4834L5.39525 22.907L6.80001 24.3306C7.36567 23.7724 7.64075 23.0485 7.64075 22.3022H5.64075ZM5.39525 22.907L3.98976 21.4841C4.08656 21.3885 4.2174 21.2963 4.37796 21.232C4.53682 21.1685 4.68154 21.1495 4.78925 21.1495V23.1495V25.1495C5.52959 25.1495 6.24452 24.8793 6.80074 24.3299L5.39525 22.907ZM4.78925 23.1495V21.1495H2.55375V23.1495V25.1495H4.78925V23.1495ZM21.4523 23.1495V21.1495H19.2167V23.1495V25.1495H21.4523V23.1495ZM19.2167 23.1495V21.1495C19.3288 21.1495 19.4774 21.1696 19.6392 21.2355C19.8025 21.3019 19.9334 21.3965 20.0285 21.4921L18.6107 22.9027L17.1929 24.3134C17.7467 24.8699 18.4655 25.1495 19.2167 25.1495V23.1495ZM18.6107 22.9027L20.0285 21.4921C20.1239 21.5879 20.2167 21.7184 20.2817 21.8796C20.346 22.0391 20.3652 22.1848 20.3652 22.2935H18.3652H16.3652C16.3652 23.0394 16.6395 23.7571 17.1929 24.3134L18.6107 22.9027ZM18.3652 22.2935H20.3652C20.3652 22.402 20.346 22.5499 20.2799 22.713C20.2129 22.8781 20.1165 23.0124 20.0162 23.1114L18.6107 21.6885L17.2053 20.2656C16.6403 20.8237 16.3652 21.5472 16.3652 22.2935H18.3652ZM18.6107 21.6885L20.0155 23.1121C19.9186 23.2077 19.7878 23.2998 19.6274 23.3639C19.4687 23.4274 19.3242 23.4462 19.2167 23.4462V21.4462V19.4462C18.477 19.4462 17.7623 19.7159 17.206 20.2649L18.6107 21.6885ZM19.2167 21.4462V23.4462H21.4523V21.4462V19.4462H19.2167V21.4462ZM21.4523 21.4462H23.4523V19.2107H21.4523H19.4523V21.4462H21.4523ZM21.4523 19.2107H23.4523C23.4523 19.3228 23.4322 19.4714 23.3663 19.6332C23.2998 19.7965 23.2053 19.9274 23.1096 20.0225L21.699 18.6048L20.2884 17.1869C19.7318 17.7407 19.4523 18.4595 19.4523 19.2107H21.4523ZM21.699 18.6048L23.1096 20.0225C23.0138 20.1179 22.8833 20.2107 22.7222 20.2757C22.5627 20.34 22.417 20.3593 22.3083 20.3593V18.3593V16.3593C21.5623 16.3593 20.8446 16.6335 20.2884 17.1869L21.699 18.6048ZM22.3083 18.3593V20.3593C22.1998 20.3593 22.0517 20.34 21.8884 20.2737C21.7231 20.2066 21.5886 20.11 21.4894 20.0095L22.913 18.6048L24.3366 17.2C23.7784 16.6343 23.0545 16.3593 22.3083 16.3593V18.3593ZM22.913 18.6048L21.4901 20.0102C21.3945 19.9134 21.3023 19.7826 21.238 19.622C21.1745 19.4632 21.1555 19.3185 21.1555 19.2107H23.1555H25.1555C25.1555 18.4704 24.8853 17.7555 24.3359 17.1993L22.913 18.6048ZM23.1555 19.2107H21.1555V21.4462H23.1555H25.1555V19.2107H23.1555ZM23.1555 21.4462H21.1555C21.1555 21.4251 21.1607 21.3728 21.1872 21.3104C21.213 21.2495 21.2404 21.2226 21.2349 21.2282L22.6488 22.6428L24.0626 24.0573C24.7597 23.3606 25.1555 22.4592 25.1555 21.4462H23.1555ZM22.6488 22.6428L21.2342 21.2289C21.2286 21.2345 21.2555 21.207 21.3164 21.1812C21.3788 21.1547 21.4311 21.1495 21.4523 21.1495V23.1495V25.1495C22.4652 25.1495 23.3666 24.7537 24.0633 24.0566L22.6488 22.6428ZM11.9733 18.5005V16.5005C10.5222 16.5005 9.22483 16.1246 8.0346 15.3705L6.96425 17.06L5.8939 18.7495C7.73534 19.9161 9.77725 20.5005 11.9733 20.5005V18.5005ZM6.96425 17.06L8.03451 15.3705C6.82735 14.6058 5.84539 13.5474 5.08979 12.1456L3.32925 13.0945L1.56871 14.0434C2.62777 16.0083 4.06915 17.5936 5.89399 18.7495L6.96425 17.06ZM3.32925 13.0945L5.06391 12.099C5.06647 12.1035 5.07037 12.1111 5.07433 12.1215C5.07832 12.1318 5.08136 12.1422 5.08339 12.1518L3.1275 12.5695L1.17161 12.9872C1.25494 13.3774 1.39776 13.747 1.59459 14.09L3.32925 13.0945ZM3.1275 12.5695L5.08339 12.1518C5.07387 12.1072 5.0685 12.0595 5.0685 12.006H3.0685H1.0685C1.0685 12.3355 1.10246 12.6634 1.17161 12.9872L3.1275 12.5695ZM3.0685 12.006H5.0685C5.0685 11.9611 5.07335 11.9258 5.08028 11.8964L3.13375 11.437L1.18722 10.9776C1.10715 11.3169 1.0685 11.6609 1.0685 12.006H3.0685ZM3.13375 11.437L5.08038 11.896C5.08672 11.8691 5.09596 11.8434 5.10999 11.816L3.32925 10.9055L1.54851 9.99503C1.38888 10.3072 1.26778 10.6359 1.18712 10.978L3.13375 11.437ZM3.32925 10.9055L5.09367 11.8472C5.85105 10.4282 6.8326 9.36367 8.03428 8.59994L6.9615 6.912L5.88872 5.22406C4.06207 6.38499 2.62212 7.98283 1.56483 9.96378L3.32925 10.9055ZM6.9615 6.912L8.03428 8.59994C9.22211 7.84501 10.5181 7.4685 11.969 7.4685V5.4685V3.4685C9.7716 3.4685 7.72922 4.05432 5.88872 5.22406L6.9615 6.912ZM11.969 5.4685V7.4685C13.4209 7.4685 14.7263 7.84462 15.93 8.60186L16.995 6.909L18.06 5.21614C16.2107 4.05271 14.1654 3.4685 11.969 3.4685V5.4685ZM16.995 6.909L15.93 8.60186C17.1418 9.36422 18.1262 10.4264 18.8813 11.8412L20.6457 10.8995L22.4102 9.95778C21.3506 7.97257 19.9012 6.37445 18.06 5.21614L16.995 6.909ZM20.6457 10.8995L18.901 11.8772C18.9022 11.8794 18.9017 11.8787 18.9005 11.8757C18.8994 11.8726 18.8984 11.8694 18.8978 11.8666L20.8505 11.4342L22.8032 11.0019C22.7188 10.6207 22.5795 10.2591 22.3905 9.92182L20.6457 10.8995ZM20.8505 11.4342L18.8978 11.8666C18.9085 11.9149 18.9125 11.9565 18.9125 11.994H20.9125H22.9125C22.9125 11.6585 22.8752 11.3269 22.8032 11.0019L20.8505 11.4342ZM20.9125 11.994H18.9125C18.9125 12.0246 18.9091 12.0633 18.8977 12.113L20.8475 12.5585L22.7973 13.004C22.8726 12.6743 22.9125 12.3368 22.9125 11.994H20.9125ZM20.8475 12.5585L18.8977 12.113C18.8967 12.1178 18.8954 12.1221 18.8906 12.1308L20.6398 13.1005L22.3889 14.0702C22.5745 13.7356 22.7117 13.3786 22.7973 13.004L20.8475 12.5585ZM20.6398 13.1005L18.8775 12.1548C18.1279 13.5516 17.1465 14.6068 15.9326 15.3695L16.9965 17.063L18.0604 18.7566C19.8975 17.6025 21.345 16.016 22.402 14.0462L20.6398 13.1005ZM16.9965 17.063L15.9326 15.3695C14.7299 16.125 13.425 16.5005 11.9733 16.5005V18.5005V20.5005C14.1682 20.5005 16.2121 19.9177 18.0604 18.7566L16.9965 17.063ZM11.9713 16.8393V18.8392C13.916 18.8392 15.732 18.285 17.3783 17.2102L16.285 15.5355L15.1917 13.8608C14.1754 14.5243 13.1155 14.8393 11.9713 14.8393V16.8393ZM16.285 15.5355L17.3782 17.2103C19.0308 16.1316 20.2904 14.6629 21.1463 12.8514L19.338 11.997L17.5297 11.1426C16.9776 12.3111 16.2018 13.2014 15.1918 13.8607L16.285 15.5355ZM19.338 11.997L21.1463 11.1426C20.2912 9.33286 19.0342 7.86239 17.3865 6.7762L16.2857 8.446L15.185 10.1158C16.199 10.7843 16.9768 11.6811 17.5297 12.8514L19.338 11.997ZM16.2857 8.446L17.3865 6.7762C15.7395 5.6904 13.9197 5.13 11.969 5.13V7.13V9.13C13.1123 9.13 14.1703 9.44693 15.185 10.1158L16.2857 8.446ZM11.969 7.13V5.13C10.0202 5.13 8.20474 5.69112 6.56593 6.78035L7.673 8.446L8.78007 10.1117C9.78126 9.44622 10.8298 9.13 11.969 9.13V7.13ZM7.673 8.446L6.56593 6.78035C4.93032 7.86745 3.68176 9.33709 2.82868 11.1426L4.637 11.997L6.44531 12.8514C7.00024 11.6769 7.77568 10.7792 8.78007 10.1117L7.673 8.446ZM4.637 11.997L2.82868 12.8514C3.68257 14.6586 4.93368 16.1265 6.5743 17.2062L7.67375 15.5355L8.7732 13.8648C7.77282 13.2065 6.99943 12.3154 6.44531 11.1426L4.637 11.997ZM7.67375 15.5355L6.57415 17.2061C8.21297 18.2848 10.0263 18.8392 11.9713 18.8392V16.8393V14.8393C10.8272 14.8393 9.77553 14.5246 8.77335 13.8649L7.67375 15.5355ZM11.9995 15.312V17.312C13.4494 17.312 14.7432 16.7777 15.7737 15.7594L14.368 14.3367L12.9623 12.9141C12.6768 13.1962 12.3916 13.312 11.9995 13.312V15.312ZM14.368 14.3367L15.7737 15.7594C16.8056 14.7399 17.355 13.4494 17.355 11.9945H15.355H13.355C13.355 12.3623 13.2464 12.6333 12.9623 12.9141L14.368 14.3367ZM15.355 11.9945H17.355C17.355 10.5412 16.8075 9.25149 15.7818 8.22888L14.3697 9.64525L12.9577 11.0616C13.2456 11.3487 13.355 11.6251 13.355 11.9945H15.355ZM14.3697 9.64525L15.7818 8.22888C14.7508 7.20105 13.452 6.663 11.9958 6.663V8.663V10.663C12.3911 10.663 12.675 10.7798 12.9577 11.0616L14.3697 9.64525ZM11.9958 8.663V6.663C10.546 6.663 9.25241 7.20015 8.23517 8.23653L9.6625 9.6375L11.0898 11.0385C11.3479 10.7755 11.6098 10.663 11.9958 10.663V8.663ZM9.6625 9.6375L8.23517 8.23653C7.22426 9.26646 6.706 10.559 6.706 11.9983H8.706H10.706C10.706 11.5891 10.8254 11.3079 11.0898 11.0385L9.6625 9.6375ZM8.706 11.9983H6.706C6.706 13.4415 7.22938 14.7362 8.2525 15.7612L9.668 14.3482L11.0835 12.9353C10.8239 12.6753 10.706 12.4033 10.706 11.9983H8.706ZM9.668 14.3482L8.25269 15.7614C9.27163 16.7819 10.5589 17.312 11.9995 17.312V15.312V13.312C11.6144 13.312 11.3474 13.1996 11.0833 12.9351L9.668 14.3482ZM11.9958 13.6982V11.6982C11.994 11.6982 12.0049 11.6981 12.0256 11.702C12.0467 11.706 12.0731 11.7133 12.1022 11.7252C12.1656 11.7514 12.2031 11.7839 12.2126 11.7934L10.7938 13.203L9.37489 14.6125C10.0855 15.3278 10.9999 15.6982 11.9958 15.6982V13.6982ZM10.7938 13.203L12.213 11.7938C12.2206 11.8015 12.2511 11.8366 12.276 11.8975C12.2874 11.9253 12.2943 11.9507 12.2981 11.9711C12.3019 11.991 12.3018 12.0015 12.3018 11.9998H10.3018H8.30175C8.30175 12.9915 8.6689 13.9015 9.37453 14.6122L10.7938 13.203ZM10.3018 11.9998H12.3018C12.3018 11.9979 12.3019 12.0073 12.2985 12.0255C12.295 12.044 12.2888 12.0669 12.2788 12.0916C12.2688 12.1164 12.2573 12.1373 12.2466 12.1535C12.2362 12.1693 12.2291 12.1764 12.2299 12.1756L10.7933 10.7843L9.35657 9.39287C8.66674 10.1052 8.30175 11.0097 8.30175 11.9998H10.3018ZM10.7933 10.7843L12.2299 12.1756C12.2221 12.1838 12.1842 12.2181 12.1171 12.2464C12.0502 12.2746 12.002 12.2768 11.9965 12.2768V10.2768V8.27675C10.985 8.27675 10.0641 8.66226 9.35657 9.39287L10.7933 10.7843ZM11.9965 10.2768V12.2768C11.997 12.2768 11.9857 12.2767 11.9652 12.2729C11.9445 12.2689 11.9193 12.2619 11.8924 12.2508C11.8655 12.2396 11.8428 12.2269 11.8254 12.2151C11.8083 12.2035 11.8005 12.1957 11.801 12.1962L13.2128 10.7795L14.6245 9.36283C13.9136 8.65438 13.0006 8.27675 11.9965 8.27675V10.2768ZM13.2128 10.7795L11.8013 12.1965C11.7971 12.1923 11.7677 12.1598 11.7431 12.1003C11.7186 12.041 11.7175 12.0001 11.7175 12.0002H13.7175H15.7175C15.7175 10.9945 15.3408 10.0762 14.6242 9.36248L13.2128 10.7795ZM13.7175 12.0002H11.7175C11.7175 11.9947 11.7196 11.9484 11.7463 11.8845C11.7731 11.8203 11.8052 11.7849 11.8114 11.7788L13.2152 13.2032L14.6191 14.6277C15.3371 13.9201 15.7175 13.0053 15.7175 12.0002H13.7175ZM13.2152 13.2032L11.8114 11.7788C11.8174 11.7728 11.85 11.7445 11.907 11.7213C11.9634 11.6985 12.0003 11.6982 11.9958 11.6982V13.6982V15.6982C12.9892 15.6982 13.903 15.3335 14.6191 14.6277L13.2152 13.2032ZM23.1555 2.54775H21.1555V4.78325H23.1555H25.1555V2.54775H23.1555ZM23.1555 4.78325H21.1555C21.1555 4.67125 21.1756 4.52258 21.2415 4.36077C21.3079 4.19755 21.4025 4.06665 21.4981 3.97145L22.9087 5.38925L24.3194 6.80705C24.8759 6.25331 25.1555 5.53454 25.1555 4.78325H23.1555ZM22.9087 5.38925L21.4981 3.97145C21.5939 3.87612 21.7244 3.78325 21.8856 3.71832C22.0451 3.65403 22.1908 3.63475 22.2995 3.63475V5.63475V7.63475C23.0454 7.63475 23.7631 7.36047 24.3194 6.80705L22.9087 5.38925ZM22.2995 5.63475V3.63475C22.408 3.63475 22.5559 3.65397 22.719 3.72014C22.8841 3.78713 23.0184 3.88354 23.1174 3.98376L21.6945 5.38925L20.2716 6.79474C20.8297 7.35971 21.5532 7.63475 22.2995 7.63475V5.63475ZM21.6945 5.38925L23.1181 3.98449C23.2137 4.08138 23.3058 4.21222 23.3699 4.37261C23.4334 4.5313 23.4523 4.67578 23.4523 4.78325H21.4523H19.4523C19.4523 5.52296 19.7219 6.23765 20.2709 6.79401L21.6945 5.38925ZM21.4523 4.78325H23.4523V2.54775H21.4523H19.4523V4.78325H21.4523ZM21.4523 2.54775V0.547749H19.2167V2.54775V4.54775H21.4523V2.54775ZM19.2167 2.54775V0.547749C19.3288 0.547749 19.4774 0.567842 19.6392 0.633729C19.8025 0.700189 19.9334 0.794701 20.0285 0.890381L18.6107 2.301L17.1929 3.71162C17.7467 4.26818 18.4655 4.54775 19.2167 4.54775V2.54775ZM18.6107 2.301L20.0285 0.890381C20.1239 0.986197 20.2167 1.11667 20.2817 1.27781C20.346 1.43735 20.3652 1.58305 20.3652 1.69175H18.3652H16.3652C16.3652 2.43767 16.6395 3.15538 17.1929 3.71162L18.6107 2.301ZM18.3652 1.69175H20.3652C20.3652 1.80023 20.346 1.94832 20.2797 2.11159C20.2126 2.2769 20.116 2.41143 20.0155 2.5106L18.6107 1.087L17.206 -0.336606C16.6403 0.22156 16.3652 0.945472 16.3652 1.69175H18.3652ZM18.6107 1.087L20.0162 2.50988C19.9194 2.6055 19.7886 2.69773 19.628 2.76197C19.4692 2.82554 19.3245 2.8445 19.2167 2.8445V0.844501V-1.1555C18.4764 -1.1555 17.7615 -0.885306 17.2053 -0.335881L18.6107 1.087ZM19.2167 0.844501V2.8445H21.4523V0.844501V-1.1555H19.2167V0.844501ZM21.4523 0.844501V2.8445C21.4311 2.8445 21.3788 2.83926 21.3164 2.81283C21.2555 2.78702 21.2286 2.75955 21.2342 2.76511L22.6488 1.35125L24.0633 -0.0626151C23.3666 -0.759663 22.4652 -1.1555 21.4523 -1.1555V0.844501ZM22.6488 1.35125L21.2349 2.76581C21.2404 2.77137 21.213 2.74453 21.1872 2.68361C21.1607 2.62119 21.1555 2.56885 21.1555 2.54775H23.1555H25.1555C25.1555 1.53485 24.7597 0.633391 24.0626 -0.0633129L22.6488 1.35125ZM2.55375 0.844501V2.8445H4.78925V0.844501V-1.1555H2.55375V0.844501ZM4.78925 0.844501V2.8445C4.67725 2.8445 4.52858 2.82441 4.36677 2.75852C4.20355 2.69206 4.07265 2.59755 3.97745 2.50187L5.39525 1.09125L6.81305 -0.319367C6.25931 -0.875932 5.54054 -1.1555 4.78925 -1.1555V0.844501ZM5.39525 1.09125L3.97745 2.50187C3.88212 2.40605 3.78925 2.27558 3.72432 2.11444C3.66003 1.9549 3.64075 1.8092 3.64075 1.7005H5.64075H7.64075C7.64075 0.954575 7.36647 0.236869 6.81305 -0.319367L5.39525 1.09125ZM5.64075 1.7005H3.64075C3.64075 1.59201 3.65997 1.44405 3.72614 1.28098C3.79313 1.11591 3.88954 0.981607 3.98976 0.882618L5.39525 2.3055L6.80074 3.72838C7.3657 3.17032 7.64075 2.44676 7.64075 1.7005H5.64075ZM5.39525 2.3055L3.99049 0.881894C4.08738 0.786283 4.21822 0.694194 4.37861 0.630075C4.5373 0.566641 4.68178 0.547749 4.78925 0.547749V2.54775V4.54775C5.52896 4.54775 6.24365 4.2781 6.80001 3.7291L5.39525 2.3055ZM4.78925 2.54775V0.547749H2.55375V2.54775V4.54775H4.78925V2.54775ZM2.55375 2.54775H0.55375V4.78325H2.55375H4.55375V2.54775H2.55375ZM2.55375 4.78325H0.55375C0.55375 4.67125 0.573843 4.52258 0.63973 4.36077C0.706191 4.19755 0.800702 4.06665 0.896382 3.97145L2.307 5.38925L3.71762 6.80705C4.27418 6.25331 4.55375 5.53454 4.55375 4.78325H2.55375ZM2.307 5.38925L0.896382 3.97145C0.992198 3.87612 1.12267 3.78325 1.28381 3.71832C1.44335 3.65403 1.58905 3.63475 1.69775 3.63475V5.63475V7.63475C2.44368 7.63475 3.16138 7.36047 3.71762 6.80705L2.307 5.38925ZM1.69775 5.63475V3.63475C1.80623 3.63475 1.95432 3.65397 2.11759 3.72025C2.2829 3.78736 2.41743 3.88398 2.51661 3.98449L1.093 5.38925L-0.330605 6.79401C0.22756 7.35966 0.951472 7.63475 1.69775 7.63475V5.63475ZM1.093 5.38925L2.51588 3.98376C2.6115 4.08056 2.70372 4.2114 2.76797 4.37195C2.83154 4.53081 2.8505 4.67553 2.8505 4.78325H0.8505H-1.1495C-1.1495 5.5236 -0.8793 6.23853 -0.329881 6.79474L1.093 5.38925ZM0.8505 4.78325H2.8505V2.54775H0.8505H-1.1495V4.78325H0.8505ZM0.8505 2.54775H2.8505C2.8505 2.56886 2.84526 2.62119 2.81882 2.68361C2.79302 2.74454 2.76555 2.77137 2.77111 2.76581L1.35725 1.35125L-0.0566148 -0.0633129C-0.75366 0.633389 -1.1495 1.53484 -1.1495 2.54775H0.8505ZM1.35725 1.35125L2.77181 2.76511C2.77737 2.75955 2.75053 2.78702 2.68961 2.81283C2.62719 2.83926 2.57486 2.8445 2.55375 2.8445V0.844501V-1.1555C1.54085 -1.1555 0.639392 -0.759663 -0.0573125 -0.0626151L1.35725 1.35125Z" fill="var(--stroke-0, #1E729C)" mask="url(#path-1-inside-1_0_32)"/>
</g>
</g>
</svg>
