<svg width="100%" height="100%" overflow="visible" style="display: block;" viewBox="0 0 40.2392 40" fill="none" xmlns="http://www.w3.org/2000/svg">
<g id="groups">
<path id="Vector" d="M1.41958 30.1196C1.01875 30.1196 0.681944 29.9832 0.409167 29.7104C0.136389 29.4376 0 29.1008 0 28.7V27.7917C0 26.6789 0.588056 25.7767 1.76417 25.085C2.94 24.3931 4.48042 24.0471 6.38542 24.0471C6.68653 24.0471 6.97236 24.0524 7.24292 24.0629C7.51347 24.0735 7.78486 24.0983 8.05708 24.1375C7.82153 24.6394 7.64486 25.1494 7.52708 25.6675C7.40931 26.1858 7.35042 26.7267 7.35042 27.29V30.1196H1.41958ZM11.4196 30.1196C11.0188 30.1196 10.6819 29.9832 10.4092 29.7104C10.1364 29.4376 10 29.1008 10 28.7V27.2917C10 26.3828 10.2447 25.5519 10.7342 24.7992C11.2236 24.0467 11.9194 23.3893 12.8217 22.8271C13.7239 22.2649 14.7989 21.8415 16.0467 21.5571C17.2947 21.2726 18.6514 21.1304 20.1167 21.1304C21.6103 21.1304 22.9794 21.2726 24.2242 21.5571C25.4689 21.8415 26.5439 22.2649 27.4492 22.8271C28.3514 23.3893 29.0419 24.0467 29.5208 24.7992C29.9997 25.5519 30.2392 26.3828 30.2392 27.2917V28.7C30.2392 29.1008 30.1028 29.4376 29.83 29.7104C29.5572 29.9832 29.2204 30.1196 28.8196 30.1196H11.4196ZM32.8888 30.1196V27.2875C32.8888 26.7094 32.8351 26.164 32.7279 25.6513C32.6207 25.1382 32.4526 24.6347 32.2238 24.1408C32.496 24.0994 32.7676 24.0735 33.0388 24.0629C33.3099 24.0524 33.5868 24.0471 33.8696 24.0471C35.7857 24.0471 37.3264 24.3881 38.4917 25.07C39.6567 25.7519 40.2392 26.6592 40.2392 27.7917V28.7C40.2392 29.1008 40.1028 29.4376 39.83 29.7104C39.5572 29.9832 39.2204 30.1196 38.8196 30.1196H32.8888ZM12.8388 27.4204H27.4004V27.1704C27.3474 26.1757 26.646 25.3686 25.2963 24.7492C23.9465 24.1294 22.221 23.8196 20.1196 23.8196C18.0182 23.8196 16.2926 24.1311 14.9429 24.7542C13.5932 25.3769 12.8918 26.1963 12.8388 27.2121V27.4204ZM6.35375 22.8271C5.53875 22.8271 4.83986 22.5339 4.25708 21.9475C3.67458 21.3614 3.38333 20.6567 3.38333 19.8333C3.38333 19.0061 3.67569 18.3011 4.26042 17.7183C4.84542 17.1356 5.54847 16.8442 6.36958 16.8442C7.19514 16.8442 7.90097 17.1357 8.48708 17.7187C9.07292 18.3015 9.36583 19.0118 9.36583 19.8496C9.36583 20.6624 9.07375 21.3618 8.48958 21.9479C7.90514 22.534 7.19319 22.8271 6.35375 22.8271ZM33.8538 22.8271C33.0388 22.8271 32.3399 22.5339 31.7571 21.9475C31.1746 21.3614 30.8833 20.6567 30.8833 19.8333C30.8833 19.0061 31.1757 18.3011 31.7604 17.7183C32.3454 17.1356 33.0485 16.8442 33.8696 16.8442C34.6951 16.8442 35.401 17.1357 35.9871 17.7187C36.5729 18.3015 36.8658 19.0118 36.8658 19.8496C36.8658 20.6624 36.5738 21.3618 35.9896 21.9479C35.4051 22.534 34.6932 22.8271 33.8538 22.8271ZM20.1246 19.8904C18.701 19.8904 17.491 19.3922 16.4946 18.3958C15.4982 17.3994 15 16.1894 15 14.7658C15 13.3192 15.4982 12.1051 16.4946 11.1237C17.491 10.1421 18.701 9.65125 20.1246 9.65125C21.5713 9.65125 22.7853 10.1421 23.7667 11.1237C24.7483 12.1051 25.2392 13.3192 25.2392 14.7658C25.2392 16.1894 24.7483 17.3994 23.7667 18.3958C22.7853 19.3922 21.5713 19.8904 20.1246 19.8904ZM20.1392 17.1913C20.8217 17.1913 21.394 16.9565 21.8563 16.4871C22.3188 16.0176 22.55 15.4386 22.55 14.75C22.55 14.0617 22.3164 13.4881 21.8492 13.0292C21.3819 12.57 20.8103 12.3404 20.1342 12.3404C19.45 12.3404 18.8732 12.5718 18.4038 13.0346C17.934 13.4971 17.6992 14.0703 17.6992 14.7542C17.6992 15.4331 17.9319 16.009 18.3975 16.4821C18.8628 16.9549 19.4433 17.1913 20.1392 17.1913Z" fill="var(--fill-0, #2DA2DB)"/>
</g>
</svg>
