<svg preserveAspectRatio="none" width="100%" height="100%" overflow="visible" style="display: block;" viewBox="0 0 20 20" fill="none" xmlns="http://www.w3.org/2000/svg">
<g id="my_location">
<g id="Vector">
<mask id="path-1-inside-1_0_43" fill="white">
<path d="M9.32021 18.5648V17.6821C7.41076 17.4843 5.815 16.7443 4.53292 15.4621C3.25069 14.18 2.51236 12.5859 2.31792 10.6798H1.43521C1.24257 10.6798 1.08111 10.6144 0.950833 10.4835C0.820555 10.3528 0.755417 10.1908 0.755417 9.99729C0.755417 9.80396 0.820555 9.64278 0.950833 9.51375C1.08111 9.38472 1.24257 9.32021 1.43521 9.32021H2.31792C2.51569 7.41076 3.25569 5.815 4.53792 4.53292C5.82 3.25069 7.4141 2.51236 9.32021 2.31792V1.43521C9.32021 1.24257 9.38563 1.08111 9.51646 0.950834C9.64715 0.820556 9.80924 0.755417 10.0027 0.755417C10.196 0.755417 10.3572 0.820556 10.4862 0.950834C10.6153 1.08111 10.6798 1.24257 10.6798 1.43521V2.31792C12.5859 2.51236 14.18 3.25069 15.4621 4.53292C16.7443 5.815 17.4843 7.41076 17.6821 9.32021H18.5648C18.7574 9.32021 18.9189 9.38563 19.0492 9.51646C19.1794 9.64715 19.2446 9.80924 19.2446 10.0027C19.2446 10.196 19.1794 10.3572 19.0492 10.4863C18.9189 10.6153 18.7574 10.6798 18.5648 10.6798H17.6821C17.4876 12.5859 16.7493 14.18 15.4671 15.4621C14.185 16.7443 12.5892 17.4843 10.6798 17.6821V18.5648C10.6798 18.7574 10.6144 18.9189 10.4835 19.0492C10.3528 19.1794 10.1908 19.2446 9.99729 19.2446C9.80396 19.2446 9.64278 19.1794 9.51375 19.0492C9.38472 18.9189 9.32021 18.7574 9.32021 18.5648ZM9.99917 16.2885C11.7258 16.2885 13.2058 15.6723 14.439 14.4398C15.672 13.2072 16.2885 11.7275 16.2885 10.0008C16.2885 8.27417 15.6723 6.79424 14.4398 5.56104C13.2072 4.32799 11.7275 3.71146 10.0008 3.71146C8.27417 3.71146 6.79424 4.32771 5.56104 5.56021C4.32799 6.79285 3.71146 8.2725 3.71146 9.99917C3.71146 11.7258 4.32771 13.2058 5.56021 14.439C6.79285 15.672 8.2725 16.2885 9.99917 16.2885ZM10 13.125C9.125 13.125 8.38542 12.8229 7.78125 12.2188C7.17708 11.6146 6.875 10.875 6.875 10C6.875 9.125 7.17708 8.38542 7.78125 7.78125C8.38542 7.17708 9.125 6.875 10 6.875C10.875 6.875 11.6146 7.17708 12.2187 7.78125C12.8229 8.38542 13.125 9.125 13.125 10C13.125 10.875 12.8229 11.6146 12.2187 12.2188C11.6146 12.8229 10.875 13.125 10 13.125ZM9.99812 11.7604C10.494 11.7604 10.9116 11.5913 11.251 11.2529C11.5906 10.9146 11.7604 10.4976 11.7604 10.0019C11.7604 9.50604 11.5913 9.0884 11.2529 8.74896C10.9146 8.40938 10.4976 8.23958 10.0019 8.23958C9.50604 8.23958 9.0884 8.40875 8.74896 8.74708C8.40938 9.08542 8.23958 9.50243 8.23958 9.99813C8.23958 10.494 8.40875 10.9116 8.74708 11.251C9.08542 11.5906 9.50243 11.7604 9.99812 11.7604Z"/>
</mask>
<path d="M9.32021 17.6821H10.8202V16.3294L9.47475 16.1901L9.32021 17.6821ZM4.53292 15.4621L5.59363 14.4015L5.59352 14.4014L4.53292 15.4621ZM2.31792 10.6798L3.81017 10.5276L3.67268 9.17979H2.31792V10.6798ZM0.950833 10.4835L2.01375 9.42514L2.01319 9.42458L0.950833 10.4835ZM2.31792 9.32021V10.8202H3.67057L3.80993 9.47475L2.31792 9.32021ZM4.53792 4.53292L5.59852 5.59363L5.59863 5.59352L4.53792 4.53292ZM9.32021 2.31792L9.47243 3.81017L10.8202 3.67268V2.31792H9.32021ZM9.51646 0.950834L10.5749 2.01375L10.5754 2.01319L9.51646 0.950834ZM10.6798 2.31792H9.17979V3.67268L10.5276 3.81017L10.6798 2.31792ZM15.4621 4.53292L14.4014 5.59352L14.4015 5.59363L15.4621 4.53292ZM17.6821 9.32021L16.1901 9.47475L16.3294 10.8202H17.6821V9.32021ZM19.0492 9.51646L17.9863 10.5749L17.9868 10.5754L19.0492 9.51646ZM17.6821 10.6798V9.17979H16.3273L16.1898 10.5276L17.6821 10.6798ZM15.4671 15.4621L14.4065 14.4014L14.4064 14.4015L15.4671 15.4621ZM10.6798 17.6821L10.5253 16.1901L9.17979 16.3294V17.6821H10.6798ZM10.4835 19.0492L9.42514 17.9863L9.42458 17.9868L10.4835 19.0492ZM14.439 14.4398L15.4993 15.5008L15.4994 15.5006L14.439 14.4398ZM14.4398 5.56104L15.5008 4.50068L15.5006 4.50056L14.4398 5.56104ZM5.56104 5.56021L4.50068 4.49925L4.50056 4.49937L5.56104 5.56021ZM5.56021 14.439L4.49925 15.4993L4.49937 15.4994L5.56021 14.439ZM11.251 11.2529L10.1923 10.1903L10.1921 10.1905L11.251 11.2529ZM11.2529 8.74896L10.1903 9.80766L10.1905 9.80788L11.2529 8.74896ZM8.74896 8.74708L9.80766 9.8097L9.80788 9.80948L8.74896 8.74708ZM8.74708 11.251L9.8097 10.1923L9.80948 10.1921L8.74708 11.251ZM9.32021 18.5648H10.8202V17.6821H9.32021H7.82021V18.5648H9.32021ZM9.32021 17.6821L9.47475 16.1901C7.88627 16.0255 6.61719 15.4251 5.59363 14.4015L4.53292 15.4621L3.4722 16.5227C5.01281 18.0635 6.93526 18.9431 9.16567 19.1741L9.32021 17.6821ZM4.53292 15.4621L5.59352 14.4014C4.56997 13.3779 3.97172 12.1112 3.81017 10.5276L2.31792 10.6798L0.825661 10.832C1.053 13.0606 1.93142 14.9821 3.47231 16.5228L4.53292 15.4621ZM2.31792 10.6798V9.17979H1.43521V10.6798V12.1798H2.31792V10.6798ZM1.43521 10.6798V9.17979C1.51151 9.17979 1.61666 9.19341 1.7329 9.2405C1.85042 9.28812 1.94504 9.35614 2.01375 9.42514L0.950833 10.4835L-0.112081 11.5419C0.313009 11.9688 0.86293 12.1798 1.43521 12.1798V10.6798ZM0.950833 10.4835L2.01319 9.42458C2.08215 9.49377 2.14931 9.58824 2.19608 9.70461C2.24228 9.81958 2.25542 9.923 2.25542 9.99729H0.755417H-0.744583C-0.744583 10.5664 -0.536816 11.1158 -0.111519 11.5425L0.950833 10.4835ZM0.755417 9.99729H2.25542C2.25542 10.0717 2.24227 10.1765 2.19499 10.2934C2.14707 10.412 2.07795 10.5086 2.00637 10.5795L0.950833 9.51375L-0.104702 8.44799C-0.536193 8.87534 -0.744583 9.42787 -0.744583 9.99729H0.755417ZM0.950833 9.51375L2.00637 10.5795C1.93669 10.6485 1.84211 10.7152 1.72621 10.7615C1.61175 10.8072 1.50895 10.8202 1.43521 10.8202V9.32021V7.82021C0.869477 7.82021 0.321861 8.02552 -0.104702 8.44799L0.950833 9.51375ZM1.43521 9.32021V10.8202H2.31792V9.32021V7.82021H1.43521V9.32021ZM2.31792 9.32021L3.80993 9.47475C3.97447 7.88627 4.57486 6.61719 5.59852 5.59363L4.53792 4.53292L3.47731 3.4722C1.93653 5.01281 1.05692 6.93526 0.825899 9.16567L2.31792 9.32021ZM4.53792 4.53292L5.59863 5.59352C6.62207 4.56997 7.88881 3.97172 9.47243 3.81017L9.32021 2.31792L9.16798 0.825661C6.93938 1.053 5.01793 1.93142 3.4772 3.47231L4.53792 4.53292ZM9.32021 2.31792H10.8202V1.43521H9.32021H7.82021V2.31792H9.32021ZM9.32021 1.43521H10.8202C10.8202 1.51151 10.8066 1.61666 10.7595 1.7329C10.7119 1.85042 10.6439 1.94504 10.5749 2.01375L9.51646 0.950834L8.45806 -0.112081C8.03115 0.313009 7.82021 0.862931 7.82021 1.43521H9.32021ZM9.51646 0.950834L10.5754 2.01319C10.5062 2.08215 10.4118 2.14931 10.2954 2.19608C10.1804 2.24228 10.077 2.25542 10.0027 2.25542V0.755417V-0.744583C9.43363 -0.744583 8.88415 -0.536816 8.45749 -0.111519L9.51646 0.950834ZM10.0027 0.755417V2.25542C9.92833 2.25542 9.82353 2.24227 9.70655 2.19499C9.58797 2.14707 9.49139 2.07795 9.42049 2.00637L10.4862 0.950834L11.552 -0.104701C11.1247 -0.536192 10.5721 -0.744583 10.0027 -0.744583V0.755417ZM10.4862 0.950834L9.42049 2.00637C9.35148 1.93669 9.2848 1.84211 9.23848 1.72621C9.19275 1.61175 9.17979 1.50895 9.17979 1.43521H10.6798H12.1798C12.1798 0.869477 11.9745 0.321862 11.552 -0.104701L10.4862 0.950834ZM10.6798 1.43521H9.17979V2.31792H10.6798H12.1798V1.43521H10.6798ZM10.6798 2.31792L10.5276 3.81017C12.1112 3.97172 13.3779 4.56997 14.4014 5.59352L15.4621 4.53292L16.5228 3.47231C14.9821 1.93142 13.0606 1.053 10.832 0.825661L10.6798 2.31792ZM15.4621 4.53292L14.4015 5.59363C15.4251 6.61719 16.0255 7.88627 16.1901 9.47475L17.6821 9.32021L19.1741 9.16567C18.9431 6.93526 18.0635 5.01281 16.5227 3.4722L15.4621 4.53292ZM17.6821 9.32021V10.8202H18.5648V9.32021V7.82021H17.6821V9.32021ZM18.5648 9.32021V10.8202C18.4885 10.8202 18.3833 10.8066 18.2671 10.7595C18.1496 10.7119 18.055 10.6439 17.9863 10.5749L19.0492 9.51646L20.1121 8.45806C19.687 8.03115 19.1371 7.82021 18.5648 7.82021V9.32021ZM19.0492 9.51646L17.9868 10.5754C17.9178 10.5062 17.8507 10.4118 17.8039 10.2954C17.7577 10.1804 17.7446 10.077 17.7446 10.0027H19.2446H20.7446C20.7446 9.43363 20.5368 8.88415 20.1115 8.45749L19.0492 9.51646ZM19.2446 10.0027H17.7446C17.7446 9.92833 17.7577 9.82353 17.805 9.70655C17.8529 9.58797 17.922 9.49139 17.9936 9.42049L19.0492 10.4862L20.1047 11.552C20.5362 11.1247 20.7446 10.5721 20.7446 10.0027H19.2446ZM19.0492 10.4862L17.9936 9.42049C18.0633 9.35148 18.1579 9.2848 18.2738 9.23849C18.3883 9.19275 18.491 9.17979 18.5648 9.17979V10.6798V12.1798C19.1305 12.1798 19.6781 11.9745 20.1047 11.552L19.0492 10.4862ZM18.5648 10.6798V9.17979H17.6821V10.6798V12.1798H18.5648V10.6798ZM17.6821 10.6798L16.1898 10.5276C16.0283 12.1112 15.43 13.3779 14.4065 14.4014L15.4671 15.4621L16.5277 16.5228C18.0686 14.9821 18.947 13.0606 19.1743 10.832L17.6821 10.6798ZM15.4671 15.4621L14.4064 14.4015C13.3828 15.4251 12.1137 16.0255 10.5253 16.1901L10.6798 17.6821L10.8343 19.1741C13.0647 18.9431 14.9872 18.0635 16.5278 16.5227L15.4671 15.4621ZM10.6798 17.6821H9.17979V18.5648H10.6798H12.1798V17.6821H10.6798ZM10.6798 18.5648H9.17979C9.17979 18.4885 9.19341 18.3833 9.2405 18.2671C9.28812 18.1496 9.35614 18.055 9.42514 17.9863L10.4835 19.0492L11.5419 20.1121C11.9688 19.687 12.1798 19.1371 12.1798 18.5648H10.6798ZM10.4835 19.0492L9.42458 17.9868C9.49377 17.9178 9.58824 17.8507 9.70461 17.8039C9.81958 17.7577 9.923 17.7446 9.99729 17.7446V19.2446V20.7446C10.5664 20.7446 11.1159 20.5368 11.5425 20.1115L10.4835 19.0492ZM9.99729 19.2446V17.7446C10.0717 17.7446 10.1765 17.7577 10.2934 17.805C10.412 17.8529 10.5086 17.922 10.5795 17.9936L9.51375 19.0492L8.44799 20.1047C8.87534 20.5362 9.42787 20.7446 9.99729 20.7446V19.2446ZM9.51375 19.0492L10.5795 17.9936C10.6485 18.0633 10.7152 18.1579 10.7615 18.2738C10.8072 18.3883 10.8202 18.491 10.8202 18.5648H9.32021H7.82021C7.82021 19.1305 8.02552 19.6781 8.44799 20.1047L9.51375 19.0492ZM9.99917 16.2885V17.7885C12.1279 17.7885 13.9879 17.0113 15.4993 15.5008L14.439 14.4398L13.3786 13.3788C12.4236 14.3333 11.3238 14.7885 9.99917 14.7885V16.2885ZM14.439 14.4398L15.4994 15.5006C17.0108 13.9898 17.7885 12.1298 17.7885 10.0008H16.2885H14.7885C14.7885 11.3252 14.3332 12.4245 13.3785 13.379L14.439 14.4398ZM16.2885 10.0008H17.7885C17.7885 7.87215 17.0113 6.01207 15.5008 4.50068L14.4398 5.56104L13.3788 6.6214C14.3333 7.5764 14.7885 8.67618 14.7885 10.0008H16.2885ZM14.4398 5.56104L15.5006 4.50056C13.9898 2.98918 12.1298 2.21146 10.0008 2.21146V3.71146V5.21146C11.3252 5.21146 12.4245 5.6668 13.379 6.62152L14.4398 5.56104ZM10.0008 3.71146V2.21146C7.87215 2.21146 6.01207 2.98871 4.50068 4.49925L5.56104 5.56021L6.6214 6.62117C7.5764 5.66671 8.67618 5.21146 10.0008 5.21146V3.71146ZM5.56104 5.56021L4.50056 4.49937C2.98918 6.01024 2.21146 7.87024 2.21146 9.99917H3.71146H5.21146C5.21146 8.67476 5.66679 7.57545 6.62152 6.62105L5.56104 5.56021ZM3.71146 9.99917H2.21146C2.21146 12.1279 2.98871 13.9879 4.49925 15.4993L5.56021 14.439L6.62117 13.3786C5.66671 12.4236 5.21146 11.3238 5.21146 9.99917H3.71146ZM5.56021 14.439L4.49937 15.4994C6.01024 17.0108 7.87024 17.7885 9.99917 17.7885V16.2885V14.7885C8.67475 14.7885 7.57545 14.3332 6.62105 13.3785L5.56021 14.439ZM10 13.125V11.625C9.51209 11.625 9.15727 11.4735 8.84191 11.1581L7.78125 12.2187L6.72059 13.2794C7.61356 14.1724 8.73791 14.625 10 14.625V13.125ZM7.78125 12.2187L8.84191 11.1581C8.52655 10.8427 8.375 10.4879 8.375 10H6.875H5.375C5.375 11.2621 5.82762 12.3864 6.72059 13.2794L7.78125 12.2187ZM6.875 10H8.375C8.375 9.51209 8.52655 9.15727 8.84191 8.84191L7.78125 7.78125L6.72059 6.72059C5.82762 7.61356 5.375 8.73791 5.375 10H6.875ZM7.78125 7.78125L8.84191 8.84191C9.15727 8.52655 9.51209 8.375 10 8.375V6.875V5.375C8.73791 5.375 7.61356 5.82762 6.72059 6.72059L7.78125 7.78125ZM10 6.875V8.375C10.4879 8.375 10.8427 8.52655 11.1581 8.84191L12.2187 7.78125L13.2794 6.72059C12.3864 5.82762 11.2621 5.375 10 5.375V6.875ZM12.2187 7.78125L11.1581 8.84191C11.4735 9.15727 11.625 9.51209 11.625 10H13.125H14.625C14.625 8.73791 14.1724 7.61356 13.2794 6.72059L12.2187 7.78125ZM13.125 10H11.625C11.625 10.4879 11.4735 10.8427 11.1581 11.1581L12.2187 12.2187L13.2794 13.2794C14.1724 12.3864 14.625 11.2621 14.625 10H13.125ZM12.2187 12.2187L11.1581 11.1581C10.8427 11.4735 10.4879 11.625 10 11.625V13.125V14.625C11.2621 14.625 12.3864 14.1724 13.2794 13.2794L12.2187 12.2187ZM9.99812 11.7604V13.2604C10.8756 13.2604 11.6787 12.9445 12.31 12.3153L11.251 11.2529L10.1921 10.1905C10.155 10.2275 10.1318 10.2385 10.1201 10.2433C10.1073 10.2484 10.0724 10.2604 9.99812 10.2604V11.7604ZM11.251 11.2529L12.3097 12.3155C12.9424 11.6852 13.2604 10.8812 13.2604 10.0019H11.7604H10.2604C10.2604 10.0754 10.2485 10.1092 10.2438 10.1208C10.2395 10.1313 10.2291 10.1537 10.1923 10.1903L11.251 11.2529ZM11.7604 10.0019H13.2604C13.2604 9.1244 12.9445 8.32132 12.3153 7.69004L11.2529 8.74896L10.1905 9.80788C10.2275 9.84501 10.2385 9.86817 10.2433 9.87991C10.2484 9.89266 10.2604 9.92755 10.2604 10.0019H11.7604ZM11.2529 8.74896L12.3155 7.69026C11.6852 7.05759 10.8812 6.73958 10.0019 6.73958V8.23958V9.73958C10.0754 9.73958 10.1092 9.75148 10.1208 9.75619C10.1313 9.76048 10.1537 9.7709 10.1903 9.80766L11.2529 8.74896ZM10.0019 8.23958V6.73958C9.1244 6.73958 8.32132 7.05547 7.69004 7.68469L8.74896 8.74708L9.80788 9.80948C9.84501 9.77247 9.86817 9.76149 9.87991 9.75674C9.89266 9.75157 9.92755 9.73958 10.0019 9.73958V8.23958ZM8.74896 8.74708L7.69026 7.68447C7.05759 8.31481 6.73958 9.11884 6.73958 9.99812H8.23958H9.73958C9.73958 9.92459 9.75148 9.89081 9.75619 9.87925C9.76048 9.86869 9.7709 9.84632 9.80766 9.8097L8.74896 8.74708ZM8.23958 9.99812H6.73958C6.73958 10.8756 7.05547 11.6787 7.68469 12.31L8.74708 11.251L9.80948 10.1921C9.77247 10.155 9.76149 10.1318 9.75674 10.1201C9.75157 10.1073 9.73958 10.0724 9.73958 9.99812H8.23958ZM8.74708 11.251L7.68447 12.3097C8.31481 12.9424 9.11884 13.2604 9.99812 13.2604V11.7604V10.2604C9.92459 10.2604 9.89081 10.2485 9.87925 10.2438C9.86869 10.2395 9.84632 10.2291 9.8097 10.1923L8.74708 11.251Z" fill="var(--stroke-0, #F4813E)" mask="url(#path-1-inside-1_0_43)"/>
</g>
</g>
</svg>
