<svg preserveAspectRatio="none" width="100%" height="100%" overflow="visible" style="display: block;" viewBox="0 0 24 24" fill="none" xmlns="http://www.w3.org/2000/svg">
<g id="my_location">
<g id="Vector">
<mask id="path-1-inside-1_0_19" fill="white">
<path d="M11.1842 22.2777V21.2185C8.89292 20.9812 6.978 20.0932 5.4395 18.5545C3.90083 17.016 3.01483 15.1031 2.7815 12.8158H1.72225C1.49108 12.8158 1.29733 12.7372 1.141 12.5802C0.984666 12.4234 0.9065 12.2289 0.9065 11.9967C0.9065 11.7647 0.984666 11.5713 1.141 11.4165C1.29733 11.2617 1.49108 11.1842 1.72225 11.1842H2.7815C3.01883 8.89292 3.90683 6.978 5.4455 5.4395C6.984 3.90083 8.89692 3.01483 11.1842 2.7815V1.72225C11.1842 1.49108 11.2627 1.29733 11.4197 1.141C11.5766 0.984667 11.7711 0.9065 12.0032 0.9065C12.2352 0.9065 12.4287 0.984667 12.5835 1.141C12.7383 1.29733 12.8157 1.49108 12.8157 1.72225V2.7815C15.1031 3.01483 17.016 3.90083 18.5545 5.4395C20.0932 6.978 20.9812 8.89292 21.2185 11.1842H22.2777C22.5089 11.1842 22.7027 11.2628 22.859 11.4198C23.0153 11.5766 23.0935 11.7711 23.0935 12.0033C23.0935 12.2353 23.0153 12.4287 22.859 12.5835C22.7027 12.7383 22.5089 12.8158 22.2777 12.8158H21.2185C20.9852 15.1031 20.0992 17.016 18.5605 18.5545C17.022 20.0932 15.1071 20.9812 12.8157 21.2185V22.2777C12.8157 22.5089 12.7372 22.7027 12.5802 22.859C12.4234 23.0153 12.2289 23.0935 11.9967 23.0935C11.7647 23.0935 11.5713 23.0153 11.4165 22.859C11.2617 22.7027 11.1842 22.5089 11.1842 22.2777ZM11.999 19.5462C14.071 19.5462 15.8469 18.8067 17.3267 17.3277C18.8064 15.8486 19.5462 14.073 19.5462 12.001C19.5462 9.929 18.8067 8.15308 17.3277 6.67325C15.8486 5.19358 14.073 4.45375 12.001 4.45375C9.929 4.45375 8.15308 5.19325 6.67325 6.67225C5.19358 8.15142 4.45375 9.927 4.45375 11.999C4.45375 14.071 5.19325 15.8469 6.67225 17.3268C8.15142 18.8064 9.927 19.5462 11.999 19.5462ZM12 15.75C10.95 15.75 10.0625 15.3875 9.3375 14.6625C8.6125 13.9375 8.25 13.05 8.25 12C8.25 10.95 8.6125 10.0625 9.3375 9.3375C10.0625 8.6125 10.95 8.25 12 8.25C13.05 8.25 13.9375 8.6125 14.6625 9.3375C15.3875 10.0625 15.75 10.95 15.75 12C15.75 13.05 15.3875 13.9375 14.6625 14.6625C13.9375 15.3875 13.05 15.75 12 15.75ZM11.9977 14.1125C12.5927 14.1125 13.0939 13.9095 13.5012 13.5035C13.9087 13.0975 14.1125 12.5971 14.1125 12.0022C14.1125 11.4072 13.9095 10.9061 13.5035 10.4988C13.0975 10.0913 12.5971 9.8875 12.0022 9.8875C11.4072 9.8875 10.9061 10.0905 10.4988 10.4965C10.0913 10.9025 9.8875 11.4029 9.8875 11.9978C9.8875 12.5928 10.0905 13.0939 10.4965 13.5012C10.9025 13.9087 11.4029 14.1125 11.9977 14.1125Z"/>
</mask>
<path d="M11.1842 21.2185H13.1842V19.415L11.3903 19.2291L11.1842 21.2185ZM5.4395 18.5545L6.85379 17.1404L6.85364 17.1402L5.4395 18.5545ZM2.7815 12.8158L4.77117 12.6128L4.58786 10.8158H2.7815V12.8158ZM1.141 12.5803L2.55822 11.169L2.55747 11.1683L1.141 12.5803ZM2.7815 11.1843V13.1843H4.58504L4.77086 11.3903L2.7815 11.1843ZM5.4455 5.4395L6.85964 6.85379L6.85979 6.85364L5.4455 5.4395ZM11.1842 2.7815L11.3872 4.77117L13.1842 4.58786V2.7815H11.1842ZM11.4198 1.141L12.831 2.55822L12.8317 2.55747L11.4198 1.141ZM12.8158 2.7815H10.8158V4.58786L12.6128 4.77117L12.8158 2.7815ZM18.5545 5.4395L17.1402 6.85364L17.1404 6.85379L18.5545 5.4395ZM21.2185 11.1843L19.2291 11.3903L19.415 13.1843H21.2185V11.1843ZM22.859 11.4198L21.4418 12.831L21.4425 12.8317L22.859 11.4198ZM21.2185 12.8158V10.8158H19.4121L19.2288 12.6128L21.2185 12.8158ZM18.5605 18.5545L17.1464 17.1402L17.1462 17.1404L18.5605 18.5545ZM12.8158 21.2185L12.6097 19.2291L10.8158 19.415V21.2185H12.8158ZM12.5802 22.859L11.169 21.4418L11.1683 21.4425L12.5802 22.859ZM17.3267 17.3277L18.7406 18.7424L18.7407 18.7422L17.3267 17.3277ZM17.3277 6.67325L18.7424 5.25943L18.7422 5.25928L17.3277 6.67325ZM6.67325 6.67225L5.25943 5.25764L5.25928 5.2578L6.67325 6.67225ZM6.67225 17.3268L5.25764 18.7406L5.2578 18.7407L6.67225 17.3268ZM13.5012 13.5035L12.0896 12.0867L12.0894 12.087L13.5012 13.5035ZM13.5035 10.4987L12.0867 11.9104L12.087 11.9106L13.5035 10.4987ZM10.4987 10.4965L11.9104 11.9133L11.9106 11.913L10.4987 10.4965ZM10.4965 13.5012L11.9133 12.0896L11.913 12.0894L10.4965 13.5012ZM11.1842 22.2778H13.1842V21.2185H11.1842H9.18425V22.2778H11.1842ZM11.1842 21.2185L11.3903 19.2291C9.52693 19.0361 8.04758 18.3343 6.85379 17.1404L5.4395 18.5545L4.02521 19.9686C5.90842 21.8521 8.25891 22.9262 10.9782 23.2079L11.1842 21.2185ZM5.4395 18.5545L6.85364 17.1402C5.65987 15.9466 4.96064 14.4701 4.77117 12.6128L2.7815 12.8158L0.791826 13.0187C1.06902 15.736 2.1418 18.0854 4.02536 19.9688L5.4395 18.5545ZM2.7815 12.8158V10.8158H1.72225V12.8158V14.8158H2.7815V12.8158ZM1.72225 12.8158V10.8158C1.83682 10.8158 1.98884 10.8361 2.15459 10.9032C2.32204 10.9711 2.45792 11.0683 2.55822 11.169L1.141 12.5803L-0.276219 13.9915C0.273197 14.5432 0.984898 14.8158 1.72225 14.8158V12.8158ZM1.141 12.5803L2.55747 11.1683C2.65811 11.2693 2.75417 11.405 2.82087 11.571C2.88682 11.735 2.9065 11.8848 2.9065 11.9968H0.9065H-1.0935C-1.0935 12.7297 -0.825162 13.4408 -0.27547 13.9922L1.141 12.5803ZM0.9065 11.9968H2.9065C2.9065 12.1088 2.8868 12.2604 2.81942 12.4271C2.75118 12.5959 2.65251 12.7344 2.54838 12.8375L1.141 11.4165L-0.26638 9.99549C-0.824331 10.5481 -1.0935 11.2633 -1.0935 11.9968H0.9065ZM1.141 11.4165L2.54838 12.8375C2.44679 12.9381 2.31096 13.0335 2.14566 13.0995C1.98228 13.1648 1.83342 13.1843 1.72225 13.1843V11.1843V9.18425C0.993627 9.18425 0.285 9.4494 -0.26638 9.99549L1.141 11.4165ZM1.72225 11.1843V13.1843H2.7815V11.1843V9.18425H1.72225V11.1843ZM2.7815 11.1843L4.77086 11.3903C4.96386 9.52693 5.66572 8.04758 6.85964 6.85379L5.4455 5.4395L4.03136 4.02521C2.14795 5.90842 1.0738 8.25891 0.792143 10.9782L2.7815 11.1843ZM5.4455 5.4395L6.85979 6.85364C8.05343 5.65987 9.52987 4.96064 11.3872 4.77117L11.1842 2.7815L10.9813 0.791826C8.26396 1.06902 5.91457 2.1418 4.03121 4.02536L5.4455 5.4395ZM11.1842 2.7815H13.1842V1.72225H11.1842H9.18425V2.7815H11.1842ZM11.1842 1.72225H13.1842C13.1842 1.83683 13.1639 1.98884 13.0968 2.15459C13.0289 2.32204 12.9317 2.45792 12.831 2.55822L11.4198 1.141L10.0085 -0.276219C9.45679 0.273197 9.18425 0.984898 9.18425 1.72225H11.1842ZM11.4198 1.141L12.8317 2.55747C12.7307 2.65811 12.595 2.75417 12.429 2.82087C12.265 2.88682 12.1152 2.9065 12.0033 2.9065V0.9065V-1.0935C11.2703 -1.0935 10.5592 -0.825161 10.0078 -0.275469L11.4198 1.141ZM12.0033 0.9065V2.9065C11.8912 2.9065 11.7396 2.8868 11.5729 2.81942C11.4041 2.75118 11.2656 2.65251 11.1625 2.54838L12.5835 1.141L14.0045 -0.26638C13.4519 -0.824331 12.7367 -1.0935 12.0033 -1.0935V0.9065ZM12.5835 1.141L11.1625 2.54838C11.0619 2.44679 10.9665 2.31096 10.9005 2.14566C10.8352 1.98228 10.8158 1.83342 10.8158 1.72225H12.8158H14.8158C14.8158 0.993627 14.5506 0.285001 14.0045 -0.26638L12.5835 1.141ZM12.8158 1.72225H10.8158V2.7815H12.8158H14.8158V1.72225H12.8158ZM12.8158 2.7815L12.6128 4.77117C14.4701 4.96064 15.9466 5.65987 17.1402 6.85364L18.5545 5.4395L19.9688 4.02536C18.0854 2.1418 15.736 1.06902 13.0187 0.791826L12.8158 2.7815ZM18.5545 5.4395L17.1404 6.85379C18.3343 8.04758 19.0361 9.52693 19.2291 11.3903L21.2185 11.1843L23.2079 10.9782C22.9262 8.25891 21.8521 5.90842 19.9686 4.02521L18.5545 5.4395ZM21.2185 11.1843V13.1843H22.2777V11.1843V9.18425H21.2185V11.1843ZM22.2777 11.1843V13.1843C22.1632 13.1843 22.0112 13.1639 21.8454 13.0968C21.678 13.0289 21.5421 12.9317 21.4418 12.831L22.859 11.4198L24.2762 10.0085C23.7268 9.45679 23.0151 9.18425 22.2777 9.18425V11.1843ZM22.859 11.4198L21.4425 12.8317C21.3419 12.7307 21.2458 12.595 21.1791 12.429C21.1132 12.265 21.0935 12.1152 21.0935 12.0033H23.0935H25.0935C25.0935 11.2703 24.8252 10.5592 24.2755 10.0078L22.859 11.4198ZM23.0935 12.0033H21.0935C21.0935 11.8912 21.1132 11.7396 21.1806 11.5729C21.2488 11.4041 21.3475 11.2656 21.4516 11.1625L22.859 12.5835L24.2664 14.0045C24.8243 13.4519 25.0935 12.7367 25.0935 12.0033H23.0935ZM22.859 12.5835L21.4516 11.1625C21.5532 11.0619 21.689 10.9665 21.8543 10.9005C22.0177 10.8352 22.1666 10.8158 22.2777 10.8158V12.8158V14.8158C23.0064 14.8158 23.715 14.5506 24.2664 14.0045L22.859 12.5835ZM22.2777 12.8158V10.8158H21.2185V12.8158V14.8158H22.2777V12.8158ZM21.2185 12.8158L19.2288 12.6128C19.0394 14.4701 18.3401 15.9466 17.1464 17.1402L18.5605 18.5545L19.9746 19.9688C21.8582 18.0854 22.931 15.736 23.2082 13.0187L21.2185 12.8158ZM18.5605 18.5545L17.1462 17.1404C15.9524 18.3343 14.4731 19.0361 12.6097 19.2291L12.8158 21.2185L13.0218 23.2079C15.7411 22.9262 18.0916 21.8521 19.9748 19.9686L18.5605 18.5545ZM12.8158 21.2185H10.8158V22.2778H12.8158H14.8158V21.2185H12.8158ZM12.8158 22.2778H10.8158C10.8158 22.1632 10.8361 22.0112 10.9032 21.8454C10.9711 21.678 11.0683 21.5421 11.169 21.4418L12.5802 22.859L13.9915 24.2762C14.5432 23.7268 14.8158 23.0151 14.8158 22.2778H12.8158ZM12.5802 22.859L11.1683 21.4425C11.2693 21.3419 11.405 21.2458 11.571 21.1791C11.735 21.1132 11.8848 21.0935 11.9967 21.0935V23.0935V25.0935C12.7297 25.0935 13.4408 24.8252 13.9922 24.2755L12.5802 22.859ZM11.9967 23.0935V21.0935C12.1088 21.0935 12.2604 21.1132 12.4271 21.1806C12.5959 21.2488 12.7344 21.3475 12.8375 21.4516L11.4165 22.859L9.99549 24.2664C10.5481 24.8243 11.2633 25.0935 11.9967 25.0935V23.0935ZM11.4165 22.859L12.8375 21.4516C12.9381 21.5532 13.0335 21.689 13.0995 21.8543C13.1648 22.0177 13.1842 22.1666 13.1842 22.2778H11.1842H9.18425C9.18425 23.0064 9.4494 23.715 9.99549 24.2664L11.4165 22.859ZM11.999 19.5462V21.5462C14.607 21.5462 16.8898 20.5921 18.7406 18.7424L17.3267 17.3277L15.9129 15.9131C14.804 17.0214 13.535 17.5462 11.999 17.5462V19.5462ZM17.3267 17.3277L18.7407 18.7422C20.5915 16.8921 21.5462 14.6093 21.5462 12.001H19.5462H17.5462C17.5462 13.5367 17.0213 14.8051 15.9128 15.9133L17.3267 17.3277ZM19.5462 12.001H21.5462C21.5462 9.39298 20.5921 7.1102 18.7424 5.25943L17.3277 6.67325L15.9131 8.08706C17.0214 9.19597 17.5462 10.465 17.5462 12.001H19.5462ZM17.3277 6.67325L18.7422 5.25928C16.8921 3.4085 14.6093 2.45375 12.001 2.45375V4.45375V6.45375C13.5367 6.45375 14.8051 6.97866 15.9133 8.08722L17.3277 6.67325ZM12.001 4.45375V2.45375C9.39298 2.45375 7.1102 3.40792 5.25943 5.25764L6.67325 6.67225L8.08707 8.08686C9.19597 6.97858 10.465 6.45375 12.001 6.45375V4.45375ZM6.67325 6.67225L5.25928 5.2578C3.4085 7.10794 2.45375 9.39066 2.45375 11.999H4.45375H6.45375C6.45375 10.4633 6.97866 9.19489 8.08722 8.0867L6.67325 6.67225ZM4.45375 11.999H2.45375C2.45375 14.607 3.40792 16.8898 5.25764 18.7406L6.67225 17.3268L8.08686 15.9129C6.97858 14.804 6.45375 13.535 6.45375 11.999H4.45375ZM6.67225 17.3268L5.2578 18.7407C7.10794 20.5915 9.39066 21.5462 11.999 21.5462V19.5462V17.5462C10.4633 17.5462 9.19489 17.0213 8.0867 15.9128L6.67225 17.3268ZM12 15.75V13.75C11.4661 13.75 11.0916 13.5882 10.7517 13.2483L9.3375 14.6625L7.92329 16.0767C9.03336 17.1868 10.4339 17.75 12 17.75V15.75ZM9.3375 14.6625L10.7517 13.2483C10.4118 12.9084 10.25 12.5339 10.25 12H8.25H6.25C6.25 13.5661 6.81321 14.9666 7.92329 16.0767L9.3375 14.6625ZM8.25 12H10.25C10.25 11.4661 10.4118 11.0916 10.7517 10.7517L9.3375 9.3375L7.92329 7.92329C6.81321 9.03336 6.25 10.4339 6.25 12H8.25ZM9.3375 9.3375L10.7517 10.7517C11.0916 10.4118 11.4661 10.25 12 10.25V8.25V6.25C10.4339 6.25 9.03336 6.81321 7.92329 7.92329L9.3375 9.3375ZM12 8.25V10.25C12.5339 10.25 12.9084 10.4118 13.2483 10.7517L14.6625 9.3375L16.0767 7.92329C14.9666 6.81321 13.5661 6.25 12 6.25V8.25ZM14.6625 9.3375L13.2483 10.7517C13.5882 11.0916 13.75 11.4661 13.75 12H15.75H17.75C17.75 10.4339 17.1868 9.03336 16.0767 7.92329L14.6625 9.3375ZM15.75 12H13.75C13.75 12.5339 13.5882 12.9084 13.2483 13.2483L14.6625 14.6625L16.0767 16.0767C17.1868 14.9666 17.75 13.5661 17.75 12H15.75ZM14.6625 14.6625L13.2483 13.2483C12.9084 13.5882 12.5339 13.75 12 13.75V15.75V17.75C13.5661 17.75 14.9666 17.1868 16.0767 16.0767L14.6625 14.6625ZM11.9978 14.1125V16.1125C13.1016 16.1125 14.1167 15.7139 14.9131 14.92L13.5012 13.5035L12.0894 12.087C12.0741 12.1021 12.0657 12.1079 12.0645 12.1087C12.0637 12.1092 12.0657 12.1079 12.069 12.1065C12.0723 12.1052 12.071 12.1063 12.0622 12.1079C12.0531 12.1096 12.0325 12.1125 11.9978 12.1125V14.1125ZM13.5012 13.5035L14.9129 14.9203C15.7111 14.125 16.1125 13.1085 16.1125 12.0022H14.1125H12.1125C12.1125 12.0365 12.1096 12.0565 12.108 12.0649C12.1065 12.0729 12.1057 12.0735 12.1073 12.0695C12.109 12.0654 12.1107 12.0628 12.1105 12.0631C12.1101 12.0637 12.1046 12.0718 12.0896 12.0867L13.5012 13.5035ZM14.1125 12.0022H16.1125C16.1125 10.8984 15.7139 9.8833 14.92 9.08686L13.5035 10.4987L12.087 11.9106C12.1021 11.9259 12.1079 11.9343 12.1087 11.9355C12.1092 11.9363 12.1079 11.9343 12.1065 11.931C12.1052 11.9277 12.1063 11.929 12.1079 11.9378C12.1096 11.9469 12.1125 11.9675 12.1125 12.0022H14.1125ZM13.5035 10.4987L14.9203 9.08715C14.125 8.28887 13.1085 7.8875 12.0022 7.8875V9.8875V11.8875C12.0365 11.8875 12.0565 11.8904 12.0649 11.892C12.0729 11.8935 12.0735 11.8943 12.0695 11.8927C12.0654 11.891 12.0628 11.8893 12.0631 11.8895C12.0637 11.8899 12.0718 11.8954 12.0867 11.9104L13.5035 10.4987ZM12.0022 9.8875V7.8875C10.8984 7.8875 9.8833 8.28613 9.08686 9.07997L10.4987 10.4965L11.9106 11.913C11.9259 11.8979 11.9343 11.8921 11.9355 11.8913C11.9363 11.8908 11.9343 11.8921 11.931 11.8935C11.9277 11.8948 11.929 11.8937 11.9378 11.8921C11.9469 11.8904 11.9675 11.8875 12.0022 11.8875V9.8875ZM10.4987 10.4965L9.08715 9.07968C8.28887 9.87502 7.8875 10.8915 7.8875 11.9978H9.8875H11.8875C11.8875 11.9635 11.8904 11.9435 11.892 11.9351C11.8935 11.9271 11.8943 11.9265 11.8927 11.9305C11.891 11.9346 11.8893 11.9372 11.8895 11.9369C11.8899 11.9363 11.8954 11.9282 11.9104 11.9133L10.4987 10.4965ZM9.8875 11.9978H7.8875C7.8875 13.1016 8.28613 14.1167 9.07997 14.9131L10.4965 13.5012L11.913 12.0894C11.8979 12.0741 11.8921 12.0657 11.8913 12.0645C11.8908 12.0637 11.8921 12.0657 11.8935 12.069C11.8948 12.0723 11.8937 12.071 11.8921 12.0622C11.8904 12.0531 11.8875 12.0325 11.8875 11.9978H9.8875ZM10.4965 13.5012L9.07968 14.9129C9.87502 15.7111 10.8915 16.1125 11.9978 16.1125V14.1125V12.1125C11.9635 12.1125 11.9435 12.1096 11.9351 12.108C11.9271 12.1065 11.9265 12.1057 11.9305 12.1073C11.9346 12.109 11.9372 12.1107 11.9369 12.1105C11.9363 12.1101 11.9282 12.1046 11.9133 12.0896L10.4965 13.5012Z" fill="var(--stroke-0, #1E729C)" mask="url(#path-1-inside-1_0_19)"/>
</g>
</g>
</svg>
