<svg preserveAspectRatio="none" width="100%" height="100%" overflow="visible" style="display: block;" viewBox="0 0 48 48" fill="none" xmlns="http://www.w3.org/2000/svg">
<g id="speed">
<path id="Vector" d="M23.9002 9.239C25.235 9.23902 26.6658 9.41771 28.1971 9.78588C29.6816 10.1426 31.1631 10.7226 32.6424 11.5359C32.6464 11.5383 32.6499 11.5407 32.6531 11.5427C32.6577 11.5759 32.657 11.6286 32.577 11.7449C32.5222 11.8241 32.4817 11.8598 32.4647 11.8738C32.4083 11.8808 32.2955 11.879 32.0955 11.7937C30.7046 11.0584 29.2766 10.5147 27.8123 10.1726C26.379 9.83801 25.0697 9.65797 23.9002 9.65795C19.0119 9.65795 14.7827 11.3667 11.2899 14.7488L10.9539 15.0818C7.39706 18.6853 5.60725 23.0854 5.60725 28.1951C5.60725 29.631 5.77888 31.0619 6.11799 32.4861L6.27327 33.0964C6.71543 34.721 7.34921 36.2414 8.17756 37.6521L8.61311 38.3923H39.117L39.5555 37.6755C40.3753 36.3365 41.0057 34.8186 41.4588 33.1365C41.9125 31.4525 42.1424 29.7725 42.1424 28.1003C42.1424 26.8598 41.9845 25.5467 41.6815 24.1677C41.3659 22.7331 40.8385 21.3586 40.1063 20.0466H40.1072C40.032 19.9077 40.0055 19.7754 40.0321 19.5984C40.0367 19.5672 40.0426 19.5486 40.0457 19.5398C40.0473 19.5353 40.049 19.5322 40.0496 19.531L40.0506 19.53V19.529C40.051 19.5285 40.052 19.5266 40.0545 19.5242C40.0592 19.5195 40.0714 19.5089 40.0946 19.4939L40.1239 19.4753L40.1522 19.4548C40.1555 19.4524 40.1582 19.4498 40.161 19.448C40.1656 19.4491 40.1711 19.451 40.1776 19.4529C40.2058 19.4612 40.2219 19.468 40.2283 19.4714C40.2317 19.4732 40.2334 19.4748 40.2342 19.4753C40.2337 19.4748 40.2358 19.4763 40.2401 19.4822C40.245 19.4889 40.2546 19.5048 40.2674 19.5329L40.2801 19.5593L40.2938 19.5857C41.0041 20.9934 41.5441 22.3851 41.9197 23.7605C42.2938 25.1303 42.5063 26.4887 42.5614 27.8376V27.8386C42.6162 29.727 42.4222 31.491 41.9891 33.1374C41.5503 34.8044 40.9114 36.3358 40.075 37.737L40.0584 37.7644L40.0428 37.7927C39.8632 38.1253 39.7068 38.3423 39.5838 38.4753C39.4945 38.572 39.4395 38.6064 39.4246 38.615V38.616C39.1617 38.7185 38.7534 38.7986 38.1502 38.7986H9.60041C9.23914 38.7986 8.86485 38.711 8.46272 38.5017C8.12829 38.3275 7.91609 38.1065 7.77424 37.8269L7.76545 37.8074L7.75471 37.7888L7.45491 37.2195C6.77627 35.8883 6.24484 34.5348 5.85725 33.1589C5.42282 31.617 5.201 29.9659 5.201 28.199C5.201 25.5878 5.69413 23.146 6.67366 20.8591C7.66511 18.5444 9.00754 16.5381 10.699 14.8269C12.3907 13.1155 14.3771 11.7526 16.6717 10.74C18.9368 9.74043 21.3417 9.239 23.9002 9.239ZM25.5936 30.3796C25.2347 30.9293 24.6717 31.2894 23.617 31.3259C22.4411 31.3666 21.7966 31.072 21.4158 30.6892L21.41 30.6843L21.2742 30.532C20.9686 30.1437 20.751 29.5207 20.7987 28.4744C20.8488 27.3749 21.2157 26.7977 21.7342 26.446L32.7674 19.2038L25.5936 30.3796Z" stroke="var(--stroke-0, #2DA2DB)" stroke-width="3"/>
</g>
</svg>
