<svg preserveAspectRatio="none" width="100%" height="100%" overflow="visible" style="display: block;" viewBox="0 0 40 40" fill="none" xmlns="http://www.w3.org/2000/svg">
<g id="smoke-industrial-polution-pollute-svgrepo-com (1) 1">
<path id="Vector" d="M34.4328 16.0875C34.6922 15.3719 34.8234 14.6203 34.8234 13.8469C34.8234 10.2078 31.8625 7.24688 28.2234 7.24688C27.8547 7.24688 27.4875 7.27656 27.1281 7.3375C26.2422 5.27187 24.5094 3.6625 22.3563 2.94531C18.2172 1.56563 13.7266 3.81094 12.3438 7.95313C12.3344 7.97813 12.3266 8.00469 12.3172 8.02969C11.2 8.49531 10.2906 9.29531 9.68594 10.2891C7.275 9.84375 4.75938 10.675 3.09844 12.5203C1.82656 13.9328 1.17969 15.7563 1.27969 17.6531C1.37812 19.55 2.21094 21.2953 3.62188 22.5672C4.07656 22.9766 4.57344 23.3219 5.10625 23.5984C4.76094 24.8656 4.92812 26.2297 5.6 27.3922C6.26563 28.5438 7.33906 29.3688 8.62344 29.7125C9.05312 29.8281 9.48906 29.8844 9.92188 29.8844C10.7844 29.8844 11.6359 29.6578 12.4031 29.2156C13.0047 28.8672 13.5313 28.3875 13.9469 27.8125H18.9063C19.4234 27.8125 19.8438 27.3922 19.8438 26.875C19.8438 26.3578 19.4234 25.9375 18.9063 25.9375H13.4375C13.1 25.9375 12.7891 26.1188 12.6234 26.4109C12.3422 26.9031 11.9312 27.3219 11.4656 27.5922C10.7469 28.0063 9.91094 28.1156 9.10937 27.9016C8.30781 27.6875 7.63906 27.1734 7.22344 26.4547C6.70156 25.55 6.66953 24.452 7.13594 23.5156C7.27219 23.2422 7.28078 22.9203 7.17453 22.6953C7.06828 22.4688 6.84687 22.2969 6.6125 22.2125C5.97187 21.9844 5.38906 21.6359 4.87812 21.175C3.8375 20.2375 3.225 18.9531 3.15156 17.5547C3.07813 16.1578 3.55469 14.8156 4.49219 13.775C5.63281 12.5094 7.32031 11.8938 8.98125 12.0828C8.90625 12.4516 8.86406 12.8328 8.86406 13.2219C8.86406 15.9563 10.7875 18.2297 13.3844 18.7422C13.5219 21.3969 15.6234 23.4375 18.2812 23.4375H25.3125C27.2141 23.4375 28.7594 23.7328 28.7594 25.6312V25.3125H30.6344V25.6312C30.6344 22.6984 28.2469 21.5625 25.3125 21.5625H18.2812C16.5828 21.5625 15.2516 20.2016 15.2516 18.4641V17.9094C15.2516 17.4047 14.8531 16.9906 14.35 16.9719C12.325 16.8969 10.7391 15.25 10.7391 13.2219C10.7391 11.5734 11.7953 10.1344 13.3672 9.64219C13.6781 9.54375 13.9156 9.29219 13.9953 8.97656C14.0297 8.83906 14.0734 8.69219 14.1234 8.54375C15.1781 5.38438 18.6047 3.67188 21.7641 4.725C23.6219 5.34375 25.0703 6.83281 25.6359 8.71094C25.7078 8.95156 25.8734 9.15156 26.0938 9.26875C26.3156 9.38594 26.575 9.41094 26.8141 9.33438C27.2656 9.19375 27.7406 9.12188 28.2234 9.12188C30.8297 9.12188 32.9484 11.2406 32.9484 13.8469C32.9484 14.2813 32.8906 14.7062 32.7766 15.1156C32.0672 14.8359 31.2938 14.6828 30.4797 14.6828H29.5938C28.7281 12.3797 26.25 11.0297 23.7984 11.6313C22.7328 11.8953 21.8094 12.4859 21.1281 13.3406C20.8063 13.7453 20.8734 14.3359 21.2781 14.6578C21.6828 14.9812 22.2734 14.9141 22.5953 14.5094C23.0156 13.9812 23.5875 13.6156 24.2484 13.4516C25.8859 13.05 27.5503 14.0534 27.9469 15.6938C28.0908 16.2891 28.4669 16.5578 28.9156 16.5578H30.4797C33.0141 16.5578 35 18.6875 35 21.4062V24.0625H36.875V21.4062C36.875 19.2187 35.9281 17.3078 34.4328 16.0875ZM23.1319 26.8847L38.75 25.625V32.1875H36.875V37.1875H25V32.1875H23.125L23.1319 26.8847Z" fill="var(--fill-0, #2DA2DB)"/>
</g>
</svg>
