<svg preserveAspectRatio="none" width="100%" height="100%" overflow="visible" style="display: block;" viewBox="0 0 40 40" fill="none" xmlns="http://www.w3.org/2000/svg">
<g id="docs">
<path id="Vector" d="M14.7329 20.5046H25.2671C25.6382 20.5046 25.9493 20.3797 26.2004 20.13C26.4515 19.8806 26.5771 19.5664 26.5771 19.1875C26.5771 18.8086 26.4529 18.4968 26.2046 18.2521C25.9565 18.0074 25.644 17.885 25.2671 17.885H14.7329C14.3618 17.885 14.0507 18.0099 13.7996 18.2596C13.5485 18.509 13.4229 18.8232 13.4229 19.2021C13.4229 19.581 13.5471 19.8928 13.7954 20.1375C14.0435 20.3822 14.356 20.5046 14.7329 20.5046ZM14.7329 25.6242H25.2671C25.6382 25.6242 25.9493 25.4993 26.2004 25.2496C26.4515 25.0001 26.5771 24.686 26.5771 24.3071C26.5771 23.9282 26.4529 23.6164 26.2046 23.3717C25.9565 23.1269 25.644 23.0046 25.2671 23.0046H14.7329C14.3618 23.0046 14.0507 23.1293 13.7996 23.3787C13.5485 23.6285 13.4229 23.9428 13.4229 24.3217C13.4229 24.7006 13.5471 25.0124 13.7954 25.2571C14.0435 25.5018 14.356 25.6242 14.7329 25.6242ZM14.7329 30.7437H20.2671C20.6382 30.7437 20.9493 30.6189 21.2004 30.3692C21.4515 30.1197 21.5771 29.8056 21.5771 29.4267C21.5771 29.0478 21.4529 28.736 21.2046 28.4912C20.9565 28.2465 20.644 28.1242 20.2671 28.1242H14.7329C14.3618 28.1242 14.0507 28.2489 13.7996 28.4983C13.5485 28.7481 13.4229 29.0624 13.4229 29.4412C13.4229 29.8201 13.5471 30.1319 13.7954 30.3767C14.0435 30.6214 14.356 30.7437 14.7329 30.7437ZM9.25625 36.9158C8.48958 36.9158 7.82486 36.6343 7.26208 36.0712C6.69903 35.5085 6.4175 34.8437 6.4175 34.0771V5.92292C6.4175 5.15347 6.69903 4.48639 7.26208 3.92167C7.82486 3.35667 8.48958 3.07417 9.25625 3.07417H23.1267C23.5197 3.07417 23.8943 3.15361 24.2504 3.3125C24.6065 3.47139 24.9122 3.67847 25.1675 3.93375L32.7329 11.4992C32.9882 11.7544 33.1953 12.0601 33.3542 12.4162C33.5131 12.7724 33.5925 13.1469 33.5925 13.54V34.0771C33.5925 34.8437 33.31 35.5085 32.745 36.0712C32.1803 36.6343 31.5132 36.9158 30.7437 36.9158H9.25625ZM30.7437 13.4337H25.2417C24.6528 13.4337 24.15 13.2253 23.7333 12.8083C23.3164 12.3917 23.1079 11.8889 23.1079 11.3V5.92292H9.25625V34.0771H30.7437V13.4337Z" fill="var(--fill-0, #2DA2DB)"/>
</g>
</svg>
