<svg preserveAspectRatio="none" width="100%" height="100%" overflow="visible" style="display: block;" viewBox="0 0 20 20" fill="none" xmlns="http://www.w3.org/2000/svg">
<g id="key">
<path id="Vector" d="M13.0137 12.4626L12.9521 12.5085C12.9476 12.5085 12.9428 12.5085 12.9375 12.5085V11.8258M13.0137 12.4626L12.9375 11.8258M13.0137 12.4626L13.2871 12.2633L12.9375 11.7741V11.8258M13.0137 12.4626L12.9375 11.8258M12.9297 12.5133H12.9453L12.9268 12.526L12.9248 12.527L12.9072 12.5124C12.9178 12.5126 12.9259 12.5133 12.9297 12.5133ZM12.9297 12.5085C12.9209 12.5084 12.9114 12.509 12.9014 12.5085L12.5469 12.2214L12.9297 11.7633V12.5085ZM5.83105 9.27897C6.03343 9.27897 6.19115 9.34179 6.3418 9.49186V9.49284C6.49141 9.64186 6.5546 9.79682 6.55469 9.99772C6.55469 10.1496 6.51877 10.276 6.4375 10.3932L6.34082 10.5085C6.19165 10.6583 6.03613 10.7214 5.83496 10.7214C5.68331 10.7213 5.5575 10.6853 5.44043 10.6042L5.3252 10.5075C5.17526 10.3583 5.1123 10.2029 5.1123 10.0016C5.11236 9.7994 5.17525 9.64242 5.3252 9.49186H5.32617C5.47524 9.34213 5.63008 9.27906 5.83105 9.27897Z" stroke="var(--stroke-0, #1E729C)" stroke-width="1.5"/>
</g>
</svg>
