<svg preserveAspectRatio="none" width="100%" height="100%" overflow="visible" style="display: block;" viewBox="0 0 48 48" fill="none" xmlns="http://www.w3.org/2000/svg">
<g id="fullscreen">
<path id="Vector" d="M9.1075 38.8925H14.174C14.6537 38.8925 15.0595 39.057 15.3915 39.386C15.7232 39.715 15.889 40.1212 15.889 40.6045C15.889 41.0878 15.7232 41.491 15.3915 41.814C15.0595 42.1373 14.6537 42.299 14.174 42.299H7.4045C6.9235 42.299 6.51933 42.1353 6.192 41.808C5.86467 41.4807 5.701 41.0765 5.701 40.5955V33.826C5.701 33.3463 5.8655 32.9405 6.1945 32.6085C6.5235 32.2768 6.92967 32.111 7.413 32.111C7.89633 32.111 8.29967 32.2768 8.623 32.6085C8.946 32.9405 9.1075 33.3463 9.1075 33.826V38.8925ZM38.8925 38.8925V33.826C38.8925 33.3463 39.057 32.9405 39.386 32.6085C39.715 32.2768 40.1208 32.111 40.6035 32.111C41.0862 32.111 41.4913 32.2768 41.819 32.6085C42.147 32.9405 42.311 33.3463 42.311 33.826V40.5955C42.311 41.0765 42.145 41.4807 41.813 41.808C41.4813 42.1353 41.0755 42.299 40.5955 42.299H33.8425C33.3508 42.299 32.9413 42.1345 32.614 41.8055C32.2867 41.4765 32.123 41.0703 32.123 40.587C32.123 40.1037 32.2867 39.7003 32.614 39.377C32.9413 39.054 33.3493 38.8925 33.838 38.8925H38.8925ZM9.1075 9.1075V14.162C9.1075 14.6507 8.943 15.0587 8.614 15.386C8.285 15.7133 7.87883 15.877 7.3955 15.877C6.91217 15.877 6.509 15.7133 6.186 15.386C5.86267 15.0587 5.701 14.6492 5.701 14.1575V7.4045C5.701 6.9245 5.86467 6.51867 6.192 6.187C6.51933 5.855 6.9235 5.689 7.4045 5.689H14.174C14.6537 5.689 15.0595 5.85583 15.3915 6.1895C15.7232 6.5235 15.889 6.93167 15.889 7.414C15.889 7.89667 15.7232 8.29967 15.3915 8.623C15.0595 8.946 14.6537 9.1075 14.174 9.1075H9.1075ZM38.8925 9.1075H33.838C33.3493 9.1075 32.9413 8.943 32.614 8.614C32.2867 8.285 32.123 7.87917 32.123 7.3965C32.123 6.91383 32.2867 6.50867 32.614 6.181C32.9413 5.853 33.3508 5.689 33.8425 5.689H40.5955C41.0755 5.689 41.4813 5.855 41.813 6.187C42.145 6.51867 42.311 6.9245 42.311 7.4045V14.1575C42.311 14.6492 42.1442 15.0587 41.8105 15.386C41.4765 15.7133 41.0683 15.877 40.586 15.877C40.1033 15.877 39.7003 15.7133 39.377 15.386C39.054 15.0587 38.8925 14.6507 38.8925 14.162V9.1075Z" fill="var(--fill-0, #2DA2DB)"/>
</g>
</svg>
