<svg width="100%" height="100%" overflow="visible" style="display: block;" viewBox="0 0 48.287 48" fill="none" xmlns="http://www.w3.org/2000/svg">
<g id="groups">
<path id="Vector" d="M7.56934 30.4682C7.40183 31.2054 7.32035 31.9665 7.32031 32.7475V34.643H1.70312C1.63594 34.643 1.60815 34.6326 1.60254 34.6303C1.59791 34.6285 1.58177 34.6222 1.55176 34.5922C1.52132 34.5618 1.51451 34.545 1.5127 34.5405C1.51007 34.5339 1.5 34.5057 1.5 34.4399V33.3501C1.5 32.6733 1.80306 32.0266 2.87695 31.395H2.87793C3.97295 30.7506 5.51027 30.3649 7.5957 30.3569C7.58683 30.394 7.57779 30.431 7.56934 30.4682ZM24.1396 26.8569C25.8378 26.8569 27.3671 27.0181 28.7344 27.3305C30.0961 27.6417 31.2254 28.0935 32.1455 28.6645V28.6655C33.0737 29.2439 33.7259 29.8832 34.1592 30.5639C34.5778 31.2219 34.7871 31.9393 34.7871 32.7504V34.4399C34.7871 34.5067 34.7758 34.5345 34.7734 34.5405C34.7716 34.545 34.7658 34.5618 34.7354 34.5922C34.7055 34.6221 34.6893 34.6284 34.6846 34.6303C34.679 34.6326 34.6511 34.643 34.584 34.643H13.7031C13.6359 34.643 13.6082 34.6326 13.6025 34.6303C13.5979 34.6285 13.5818 34.6222 13.5518 34.5922C13.5213 34.5618 13.5145 34.545 13.5127 34.5405C13.5101 34.5339 13.5 34.5057 13.5 34.4399V32.7504C13.5 31.9463 13.7116 31.2335 14.1387 30.5766C14.5864 29.8884 15.2493 29.2452 16.1797 28.6655C17.0951 28.0951 18.2233 27.642 19.5898 27.3305L19.5889 27.3295C20.9627 27.0164 22.4778 26.8569 24.1396 26.8569ZM40.7148 30.3569C42.8169 30.3653 44.3529 30.7465 45.4326 31.3784C46.4749 31.9885 46.7871 32.6344 46.7871 33.3501V34.4399C46.7871 34.5067 46.7758 34.5345 46.7734 34.5405C46.7716 34.545 46.7658 34.5618 46.7354 34.5922C46.7055 34.6221 46.6893 34.6284 46.6846 34.6303C46.679 34.6326 46.6511 34.643 46.584 34.643H40.9668V32.7446C40.9668 32.0568 40.9105 31.3906 40.7949 30.7485L40.7422 30.4741C40.734 30.4348 40.7235 30.396 40.7148 30.3569ZM7.64355 21.7133C8.2371 21.7133 8.70426 21.9052 9.12695 22.3256C9.54256 22.7391 9.73926 23.2074 9.73926 23.8198C9.7392 24.39 9.5514 24.8509 9.125 25.2788C8.70964 25.6952 8.23896 25.892 7.62402 25.892C7.05221 25.8919 6.59498 25.7044 6.17285 25.2797C5.75207 24.8563 5.55962 24.3903 5.55957 23.8003C5.55957 23.2054 5.75226 22.7409 6.1709 22.3237C6.59344 21.9029 7.05774 21.7133 7.64355 21.7133ZM40.6436 21.7133C41.2371 21.7133 41.7043 21.9052 42.127 22.3256C42.5426 22.7391 42.7393 23.2074 42.7393 23.8198C42.7392 24.39 42.5514 24.8509 42.125 25.2788C41.7096 25.6952 41.239 25.892 40.624 25.892C40.0522 25.8919 39.595 25.7044 39.1729 25.2797C38.7521 24.8563 38.5596 24.3903 38.5596 23.8003C38.5596 23.2054 38.7523 22.7409 39.1709 22.3237C39.5934 21.9029 40.0577 21.7133 40.6436 21.7133ZM24.1494 13.0815C25.5061 13.0815 26.5757 13.5252 27.459 14.4086L27.46 14.4096C28.3433 15.2929 28.7871 16.3626 28.7871 17.7192C28.7871 19.0413 28.3472 20.1125 27.4512 21.0219C26.5661 21.9205 25.4991 22.3686 24.1494 22.3686C22.8344 22.3686 21.7656 21.9252 20.8545 21.0141C19.9434 20.103 19.5 19.0342 19.5 17.7192C19.5 16.3696 19.9473 15.3024 20.8457 14.4174H20.8467C21.7561 13.5214 22.8272 13.0815 24.1494 13.0815ZM24.1611 13.3081C22.963 13.3081 21.8877 13.7297 21.0322 14.5727C20.1705 15.4211 19.7394 16.4991 19.7393 17.7045C19.7393 18.9028 20.1661 19.9752 21.0078 20.8305C21.8632 21.6997 22.952 22.1293 24.167 22.1294C25.3715 22.1294 26.4482 21.6981 27.2959 20.8374C28.1409 19.9797 28.5596 18.9003 28.5596 17.6997C28.5595 16.5696 28.1852 15.5491 27.4268 14.727L27.2705 14.5649C26.4195 13.7286 25.3516 13.3081 24.1611 13.3081ZM34.3809 32.5649L34.3779 32.5249C34.2713 30.5257 32.8318 29.1847 30.9814 28.3354C29.1016 27.4723 26.7978 27.0835 24.1436 27.0835C21.4884 27.0835 19.1834 27.4751 17.3027 28.3432C15.4384 29.2036 14.0133 30.5638 13.9082 32.5766L13.9062 32.6157V34.4047H34.3809V32.5649Z" stroke="var(--stroke-0, #2DA2DB)" stroke-width="3"/>
</g>
</svg>
