<svg width="48" height="48" viewBox="0 0 48 48" fill="none" xmlns="http://www.w3.org/2000/svg">
<g id="person_4">
<path id="Vector" d="M23.9969 30.094C25.997 30.094 27.9738 30.3417 29.9296 30.8372C31.9072 31.3381 33.9871 32.0636 36.1698 33.0198V33.0208C37.0664 33.4189 37.7649 33.9918 38.2928 34.7454C38.7879 35.4524 39.0613 36.3273 39.0614 37.4309V39.0481C39.0614 39.6511 38.861 40.1359 38.4276 40.5706C37.9985 41.001 37.511 41.2043 36.8925 41.2043H11.1073C10.4936 41.2043 10.009 41.0024 9.58191 40.5725C9.15049 40.1382 8.9511 39.6524 8.95105 39.0481V37.4309C8.95112 36.4711 9.16021 35.6816 9.54578 35.0227L9.72156 34.7483C10.2589 33.9793 10.9445 33.4011 11.7958 33.0012C13.98 32.0234 16.0644 31.297 18.0487 30.8147C20.0273 30.3338 22.0094 30.094 23.9969 30.094ZM23.994 31.0129C22.0227 31.0129 20.0987 31.2092 18.2235 31.6028C16.312 32.004 14.2898 32.7355 12.162 33.7786L12.161 33.7795C11.5525 34.0787 11.0515 34.5158 10.6591 35.0627L10.4979 35.304C10.0827 35.9678 9.8573 36.7001 9.8573 37.4797V40.2981H38.1425V37.4797C38.1425 36.6849 37.8994 35.9435 37.4598 35.2786C37.0343 34.6347 36.4815 34.121 35.7968 33.7825L35.7841 33.7766L34.9784 33.4006C33.1161 32.5584 31.3658 31.9548 29.7323 31.6038C27.894 31.2088 25.9804 31.0129 23.994 31.0129ZM29.1044 8.72388C29.5635 8.72388 29.9332 8.85374 30.2616 9.1272L30.4003 9.25317C30.7613 9.61152 30.9295 10.013 30.9296 10.5305V17.6653C30.9295 19.4685 30.3434 20.9959 29.1454 22.304L28.8973 22.5627C27.5322 23.9276 25.9226 24.5939 23.9999 24.594C22.0771 24.594 20.4673 23.927 19.1024 22.5618C17.7376 21.1966 17.0702 19.5871 17.0702 17.6643V10.5315C17.0702 10.0129 17.2389 9.61053 17.5995 9.2522C17.9602 8.89379 18.3686 8.72388 18.8973 8.72388C19.2103 8.72392 19.5001 8.79318 19.7821 8.93774V8.93872C20.033 9.06787 20.227 9.24739 20.3798 9.49829L21.0253 10.5588H17.8934V17.6653C17.8935 19.349 18.4906 20.82 19.6727 21.9993C20.8534 23.1761 22.3212 23.7717 23.9999 23.7717C25.6783 23.7717 27.1462 23.177 28.327 22.0012C29.5094 20.823 30.1063 19.3529 30.1063 17.6702V10.5588H26.993L27.6327 9.4895C27.7792 9.24486 27.9677 9.06713 28.2177 8.93872L28.2186 8.9397C28.504 8.7936 28.7942 8.7239 29.1044 8.72388ZM23.9989 8.72388C24.2327 8.72388 24.4549 8.7632 24.6718 8.84497L24.8866 8.94067C25.1458 9.07444 25.3431 9.25756 25.4969 9.5061L26.1483 10.5588H21.868L22.5145 9.49927C22.668 9.24792 22.8626 9.06807 23.1141 8.93872L23.1132 8.93774C23.3957 8.79273 23.686 8.7239 23.9989 8.72388Z" stroke="#2DA2DB" stroke-width="2.5"/>
</g>
</svg>