<svg width="48" height="49" viewBox="0 0 48 49" fill="none" xmlns="http://www.w3.org/2000/svg">
<g id="minor_crash">
<path id="Vector" d="M12.9716 17.2256H35.0282C35.5121 17.2256 35.9247 17.358 36.3026 17.625H36.3036C36.668 17.8823 36.9206 18.2219 37.0721 18.6875L37.0741 18.6924L40.9384 30.4092L40.952 30.4502L40.9677 30.4902C41.0061 30.5844 41.0268 30.664 41.036 30.7305C41.0534 30.857 41.0614 30.9757 41.0614 31.0869V46.4307C41.0614 46.6973 40.9816 46.8861 40.7968 47.0693C40.6119 47.2524 40.4156 47.3359 40.1346 47.3359C39.8662 47.3359 39.6773 47.2562 39.495 47.0713C39.3052 46.8788 39.2265 46.6833 39.2264 46.4189V43.1357H8.77429V46.4307C8.77426 46.6659 8.71271 46.8404 8.5741 47.0029L8.51062 47.0713C8.32659 47.254 8.13268 47.3359 7.85632 47.3359C7.61305 47.3359 7.44014 47.273 7.28406 47.1377L7.21863 47.0752C7.0315 46.8836 6.95114 46.6871 6.95105 46.4189V31.0869C6.95105 30.9659 6.958 30.8379 6.97351 30.7031C6.98 30.6472 6.9967 30.5768 7.0321 30.4902L7.04871 30.4512L7.0614 30.4102L10.9374 18.6934L10.9432 18.6758C11.0697 18.2732 11.2748 17.966 11.5663 17.7246L11.6971 17.625C12.0751 17.358 12.4876 17.2256 12.9716 17.2256ZM7.8573 42.2295H40.1425V29.3369H7.8573V42.2295ZM14.3602 34.2773C14.7557 34.2774 15.0704 34.4066 15.37 34.7148C15.6659 35.0194 15.8104 35.3656 15.8104 35.8271C15.8104 36.2526 15.6761 36.5723 15.3915 36.8594C15.1151 37.138 14.7954 37.2772 14.3485 37.2773C13.8715 37.2773 13.5257 37.1321 13.2323 36.8506H13.2333C12.9511 36.5796 12.8104 36.2645 12.8104 35.8154C12.8104 35.3677 12.9519 35.0277 13.2557 34.7227C13.5545 34.423 13.8964 34.2773 14.3602 34.2773ZM33.7137 34.2773C34.1586 34.2773 34.4978 34.4197 34.8036 34.7266V34.7256C35.1089 35.0322 35.2518 35.3752 35.2518 35.8271C35.2518 36.2344 35.1203 36.5483 34.8182 36.8398C34.5142 37.133 34.1667 37.2773 33.702 37.2773C33.2734 37.2773 32.9524 37.1432 32.6659 36.8613C32.3933 36.5929 32.2518 36.2742 32.2518 35.8154C32.2518 35.3502 32.3955 35.0044 32.6825 34.7031L32.6815 34.7021C32.9531 34.4173 33.268 34.2774 33.7137 34.2773ZM11.7968 19.0029L9.0946 27.1953L8.55261 28.8369H39.4618L38.9169 27.1943L36.203 19.001L35.9188 18.1445H12.08L11.7968 19.0029ZM12.7762 5.9668C12.856 5.96682 12.9288 5.98096 13.0155 6.04199L13.1083 6.12012L15.9745 8.9873L15.9755 8.98828C16.0944 9.10729 16.119 9.19216 16.119 9.29688C16.119 9.40036 16.0939 9.48411 15.9764 9.60254C15.8508 9.72564 15.763 9.75 15.662 9.75C15.561 9.74999 15.4762 9.72709 15.3553 9.60645L15.3534 9.60449L12.4647 6.72754C12.3471 6.60939 12.3232 6.52453 12.3231 6.41992C12.3231 6.31548 12.3468 6.22967 12.4657 6.11035C12.5856 5.9906 12.6715 5.9668 12.7762 5.9668ZM35.2128 5.96094C35.2908 5.96162 35.3604 5.97532 35.4423 6.03516L35.5292 6.11133C35.6573 6.24143 35.6826 6.33442 35.6835 6.43652C35.6842 6.52063 35.6684 6.59703 35.5438 6.71875L35.5389 6.72363L35.5341 6.72949L32.662 9.60059C32.535 9.72599 32.4454 9.74999 32.3436 9.75C32.2674 9.75 32.1982 9.73693 32.1151 9.67773L32.0262 9.60156C31.9036 9.48035 31.8817 9.39634 31.8817 9.29688C31.8817 9.20185 31.9017 9.11969 32.0262 8.99805L32.0331 8.99219L32.0389 8.98535L34.9149 6.09766C35.0315 5.98104 35.1121 5.9601 35.2128 5.96094ZM24.0087 1.25C24.1302 1.25 24.2032 1.27324 24.2645 1.31836L24.3231 1.37012C24.4099 1.45909 24.454 1.54867 24.454 1.71582V7.09375C24.4539 7.25506 24.4119 7.33556 24.328 7.41895V7.41992C24.2438 7.50365 24.1592 7.54687 23.9911 7.54688C23.8238 7.54688 23.7465 7.5044 23.6708 7.42773C23.59 7.34596 23.5468 7.26234 23.5468 7.09375V1.71582C23.5468 1.55589 23.5877 1.46943 23.6776 1.37891L23.6786 1.37793C23.764 1.29179 23.8464 1.25007 24.0087 1.25Z" stroke="#2DA2DB" stroke-width="2.5"/>
</g>
</svg>