<svg width="20" height="20" viewBox="0 0 20 20" fill="none" xmlns="http://www.w3.org/2000/svg">
<g id="circle-question-mark" clip-path="url(#clip0_10408_10437)">
<path id="Vector" d="M7.57509 7.4999C7.77101 6.94296 8.15772 6.47333 8.66672 6.17418C9.17572 5.87504 9.77417 5.76569 10.3561 5.8655C10.938 5.96531 11.4658 6.26784 11.846 6.71951C12.2262 7.17118 12.4343 7.74284 12.4334 8.33324C12.4334 9.9999 9.93343 10.8332 9.93343 10.8332M10 14.1665H10.0084M18.3334 9.99984C18.3334 14.6022 14.6024 18.3332 10 18.3332C5.39765 18.3332 1.66669 14.6022 1.66669 9.99984C1.66669 5.39746 5.39765 1.6665 10 1.6665C14.6024 1.6665 18.3334 5.39746 18.3334 9.99984Z" stroke="#2DA2DB" stroke-width="2" stroke-linecap="round" stroke-linejoin="round"/>
</g>
<defs>
<clipPath id="clip0_10408_10437">
<rect width="20" height="20" fill="white"/>
</clipPath>
</defs>
</svg>