<svg xmlns="http://www.w3.org/2000/svg" width="40" height="40" viewBox="0 0 40 40" fill="none">
<g transform="translate(3.692 7.1)">
<g id="Vector">
<mask id="path-1-inside-1_0_48" fill="white">
<path d="M5.59625 20.2022L12.05 13.7385C12.3331 13.4551 12.6663 13.3204 13.0496 13.3343C13.4326 13.3482 13.7746 13.4968 14.0754 13.7801C14.3476 14.0635 14.4821 14.395 14.4788 14.7747C14.4754 15.1544 14.3322 15.486 14.0492 15.7693L6.59083 23.2176C6.3075 23.501 5.97431 23.6443 5.59125 23.6476C5.20792 23.651 4.87472 23.511 4.59167 23.2276L0.435 19.061C0.145 18.7776 0 18.4461 0 18.0664C0 17.6867 0.145 17.3551 0.435 17.0718C0.718055 16.7885 1.04958 16.6538 1.42958 16.6676C1.80931 16.6815 2.14083 16.8163 2.42417 17.0718L5.59625 20.2022ZM5.59625 6.86889L12.05 0.405141C12.3331 0.121807 12.6663 -0.0129154 13.0496 0.000973517C13.4326 0.0148624 13.7746 0.163474 14.0754 0.446807C14.3476 0.730141 14.4821 1.06167 14.4788 1.44139C14.4754 1.82111 14.3322 2.15264 14.0492 2.43597L6.59083 9.88431C6.3075 10.1676 5.97431 10.311 5.59125 10.3143C5.20792 10.3176 4.87472 10.1776 4.59167 9.89431L0.435 5.72764C0.145 5.44431 0 5.11278 0 4.73306C0 4.35333 0.145 4.02181 0.435 3.73847C0.718055 3.45514 1.04958 3.32042 1.42958 3.33431C1.80931 3.3482 2.14083 3.48292 2.42417 3.73847L5.59625 6.86889ZM19.4321 20.986C19.0315 20.986 18.6949 20.8488 18.4221 20.5743C18.1493 20.3001 18.0129 19.9617 18.0129 19.5589C18.0129 19.1564 18.1493 18.8204 18.4221 18.551C18.6949 18.2815 19.0315 18.1468 19.4321 18.1468H31.7629C32.1635 18.1468 32.5001 18.284 32.7729 18.5585C33.0457 18.8326 33.1821 19.1711 33.1821 19.5739C33.1821 19.9764 33.0457 20.3124 32.7729 20.5818C32.5001 20.8513 32.1635 20.986 31.7629 20.986H19.4321ZM19.4321 7.65264C19.0315 7.65264 18.6949 7.51542 18.4221 7.24097C18.1493 6.96681 18.0129 6.62834 18.0129 6.22556C18.0129 5.82306 18.1493 5.48709 18.4221 5.21764C18.6949 4.9482 19.0315 4.81347 19.4321 4.81347H31.7629C32.1635 4.81347 32.5001 4.9507 32.7729 5.22514C33.0457 5.49931 33.1821 5.83778 33.1821 6.24056C33.1821 6.64306 33.0457 6.97903 32.7729 7.24847C32.5001 7.51792 32.1635 7.65264 31.7629 7.65264H19.4321Z"/>
</mask>
<path d="M5.59625 20.2022L3.489 22.3375L5.61187 24.4325L7.71921 22.3219L5.59625 20.2022ZM12.05 13.7385L9.92764 11.6182L9.92704 11.6188L12.05 13.7385ZM13.0496 13.3343L13.1583 10.3363L13.1582 10.3363L13.0496 13.3343ZM14.0754 13.7801L16.2387 11.7017L16.1868 11.6476L16.1323 11.5963L14.0754 13.7801ZM14.0492 15.7693L16.1691 17.8921L16.1715 17.8896L14.0492 15.7693ZM6.59083 23.2176L4.47094 21.0949L4.46951 21.0963L6.59083 23.2176ZM5.59125 23.6476L5.61734 26.6475L5.61736 26.6475L5.59125 23.6476ZM4.59167 23.2276L2.4678 25.3464L2.46931 25.3479L4.59167 23.2276ZM0.435 19.061L2.55887 16.9422L2.54528 16.9286L2.53151 16.9151L0.435 19.061ZM0.435 17.0718L2.53151 19.2176L2.54451 19.2049L2.55736 19.1921L0.435 17.0718ZM1.42958 16.6676L1.53924 13.6696L1.53916 13.6696L1.42958 16.6676ZM2.42417 17.0718L4.53142 14.9365L4.48348 14.8892L4.43347 14.8441L2.42417 17.0718ZM5.59625 6.86889L3.489 9.00419L5.61187 11.0992L7.71921 8.98857L5.59625 6.86889ZM12.05 0.405141L9.92764 -1.71514L9.92704 -1.71454L12.05 0.405141ZM13.0496 0.000973517L13.1583 -2.99706L13.1582 -2.99706L13.0496 0.000973517ZM14.0754 0.446807L16.2387 -1.63167L16.1868 -1.68571L16.1323 -1.73708L14.0754 0.446807ZM14.0492 2.43597L16.1691 4.55872L16.1715 4.55625L14.0492 2.43597ZM6.59083 9.88431L4.47094 7.76156L4.46951 7.76299L6.59083 9.88431ZM5.59125 10.3143L5.61734 13.3142H5.61736L5.59125 10.3143ZM4.59167 9.89431L2.4678 12.0131L2.46931 12.0146L4.59167 9.89431ZM0.435 5.72764L2.55887 3.60887L2.54528 3.59525L2.53151 3.5818L0.435 5.72764ZM0.435 3.73847L2.53151 5.88432L2.54451 5.87161L2.55736 5.85875L0.435 3.73847ZM1.42958 3.33431L1.53924 0.336312L1.53916 0.336309L1.42958 3.33431ZM2.42417 3.73847L4.53142 1.60318L4.48348 1.55587L4.43347 1.51076L2.42417 3.73847ZM18.4221 20.5743L20.5499 18.4595L20.5488 18.4584L18.4221 20.5743ZM32.7729 18.5585L30.6451 20.6733L30.6462 20.6744L32.7729 18.5585ZM18.4221 7.24097L20.5499 5.12612L20.5488 5.12505L18.4221 7.24097ZM32.7729 5.22514L30.6451 7.33999L30.6462 7.34107L32.7729 5.22514ZM5.59625 20.2022L7.71921 22.3219L14.173 15.8582L12.05 13.7385L9.92704 11.6188L3.47329 18.0825L5.59625 20.2022ZM12.05 13.7385L14.1724 15.8588C14.0617 15.9695 13.8843 16.1061 13.6367 16.2062C13.3862 16.3075 13.1422 16.3396 12.941 16.3323L13.0496 13.3343L13.1582 10.3363C11.901 10.2907 10.7707 10.7743 9.92764 11.6182L12.05 13.7385ZM13.0496 13.3343L12.9409 16.3323C12.7685 16.3261 12.5801 16.2869 12.3976 16.2076C12.2184 16.1297 12.0931 16.0342 12.0186 15.964L14.0754 13.7801L16.1323 11.5963C15.347 10.8566 14.3271 10.3787 13.1583 10.3363L13.0496 13.3343ZM14.0754 13.7801L11.9121 15.8586C11.8101 15.7524 11.6899 15.5895 11.6003 15.3687C11.51 15.146 11.4773 14.9292 11.4789 14.7484L14.4788 14.7747L17.4786 14.8011C17.4891 13.6076 17.0331 12.5285 16.2387 11.7017L14.0754 13.7801ZM14.4788 14.7747L11.4789 14.7484C11.4805 14.559 11.5195 14.3391 11.6148 14.1186C11.7087 13.9011 11.8301 13.7458 11.9268 13.649L14.0492 15.7693L16.1715 17.8896C16.9764 17.0839 17.468 16.0132 17.4786 14.8011L14.4788 14.7747ZM14.0492 15.7693L11.9293 13.6466L4.47094 21.0949L6.59083 23.2176L8.71073 25.3404L16.1691 17.8921L14.0492 15.7693ZM6.59083 23.2176L4.46951 21.0963C4.56858 20.9973 4.72537 20.8754 4.94294 20.7818C5.16306 20.6871 5.38056 20.6494 5.56515 20.6478L5.59125 23.6476L5.61736 26.6475C6.8263 26.637 7.90104 26.1501 8.71215 25.339L6.59083 23.2176ZM5.59125 23.6476L5.56516 20.6478C5.75621 20.6461 5.98401 20.6819 6.21597 20.7794C6.44522 20.8757 6.61018 21.0034 6.71403 21.1074L4.59167 23.2276L2.46931 25.3479C3.29299 26.1724 4.38944 26.6582 5.61734 26.6475L5.59125 23.6476ZM4.59167 23.2276L6.71553 21.1089L2.55887 16.9422L0.435 19.061L-1.68887 21.1797L2.4678 25.3464L4.59167 23.2276ZM0.435 19.061L2.53151 16.9151C2.62939 17.0108 2.75766 17.1697 2.85735 17.3977C2.95881 17.6296 3 17.8633 3 18.0664H0H-3C-3 19.3127 -2.48577 20.4015 -1.66151 21.2068L0.435 19.061ZM0 18.0664H3C3 18.2695 2.95881 18.5031 2.85735 18.7351C2.75766 18.9631 2.62939 19.122 2.53151 19.2176L0.435 17.0718L-1.66151 14.926C-2.48577 15.7313 -3 16.8201 -3 18.0664H0ZM0.435 17.0718L2.55736 19.1921C2.4491 19.3005 2.27318 19.4368 2.02535 19.5376C1.77393 19.6397 1.52681 19.6732 1.32001 19.6656L1.42958 16.6676L1.53916 13.6696C0.276838 13.6235 -0.850042 14.1134 -1.68736 14.9515L0.435 17.0718ZM1.42958 16.6676L1.31993 19.6656C1.18151 19.6606 1.012 19.6309 0.833607 19.5584C0.655384 19.486 0.514936 19.3898 0.41486 19.2995L2.42417 17.0718L4.43347 14.8441C3.6294 14.1189 2.62619 13.7094 1.53924 13.6696L1.42958 16.6676ZM2.42417 17.0718L0.316917 19.2071L3.489 22.3375L5.59625 20.2022L7.7035 18.0669L4.53142 14.9365L2.42417 17.0718ZM5.59625 6.86889L7.71921 8.98857L14.173 2.52482L12.05 0.405141L9.92704 -1.71454L3.47329 4.74921L5.59625 6.86889ZM12.05 0.405141L14.1724 2.52542C14.0617 2.63621 13.8843 2.77275 13.6367 2.87285C13.3862 2.97416 13.1422 3.0063 12.941 2.99901L13.0496 0.000973517L13.1582 -2.99706C11.901 -3.04261 10.7707 -2.55907 9.92764 -1.71514L12.05 0.405141ZM13.0496 0.000973517L12.9409 2.999C12.7685 2.99275 12.5801 2.95355 12.3976 2.87424C12.2184 2.79635 12.0931 2.70087 12.0186 2.6307L14.0754 0.446807L16.1323 -1.73708C15.347 -2.47671 14.3271 -2.95468 13.1583 -2.99706L13.0496 0.000973517ZM14.0754 0.446807L11.9121 2.52529C11.8101 2.4191 11.6899 2.25616 11.6003 2.03537C11.51 1.81263 11.4773 1.59587 11.4789 1.41506L14.4788 1.44139L17.4786 1.46772C17.4891 0.274257 17.0331 -0.804844 16.2387 -1.63167L14.0754 0.446807ZM14.4788 1.44139L11.4789 1.41506C11.4805 1.22564 11.5195 1.00575 11.6148 0.785272C11.7087 0.567813 11.8301 0.412508 11.9268 0.315694L14.0492 2.43597L16.1715 4.55625C16.9764 3.75055 17.468 2.67982 17.4786 1.46772L14.4788 1.44139ZM14.0492 2.43597L11.9293 0.313231L4.47094 7.76156L6.59083 9.88431L8.71073 12.0071L16.1691 4.55872L14.0492 2.43597ZM6.59083 9.88431L4.46951 7.76299C4.56858 7.66392 4.72537 7.54207 4.94294 7.44848C5.16306 7.35379 5.38056 7.31603 5.56515 7.31442L5.59125 10.3143L5.61736 13.3142C6.8263 13.3037 7.90104 12.8167 8.71215 12.0056L6.59083 9.88431ZM5.59125 10.3143L5.56516 7.31442C5.75621 7.31276 5.98401 7.34857 6.21597 7.44604C6.44522 7.54236 6.61018 7.67008 6.71403 7.77403L4.59167 9.89431L2.46931 12.0146C3.29299 12.8391 4.38944 13.3249 5.61734 13.3142L5.59125 10.3143ZM4.59167 9.89431L6.71553 7.77554L2.55887 3.60887L0.435 5.72764L-1.68887 7.84641L2.4678 12.0131L4.59167 9.89431ZM0.435 5.72764L2.53151 3.5818C2.62939 3.67742 2.75766 3.83639 2.85735 4.06434C2.95881 4.29631 3 4.52999 3 4.73306H0H-3C-3 5.97938 -2.48577 7.06817 -1.66151 7.87348L0.435 5.72764ZM0 4.73306H3C3 4.93612 2.95881 5.1698 2.85735 5.40177C2.75766 5.62972 2.62939 5.78869 2.53151 5.88432L0.435 3.73847L-1.66151 1.59263C-2.48577 2.39795 -3 3.48673 -3 4.73306H0ZM0.435 3.73847L2.55736 5.85875C2.4491 5.96712 2.27318 6.10351 2.02535 6.20422C1.77393 6.30639 1.52681 6.33986 1.32001 6.3323L1.42958 3.33431L1.53916 0.336309C0.276838 0.290171 -0.850042 0.780054 -1.68736 1.61819L0.435 3.73847ZM1.42958 3.33431L1.31993 6.3323C1.18151 6.32724 1.012 6.29754 0.833607 6.22505C0.655384 6.15263 0.514936 6.05645 0.41486 5.96618L2.42417 3.73847L4.43347 1.51076C3.6294 0.785521 2.62619 0.376068 1.53924 0.336312L1.42958 3.33431ZM2.42417 3.73847L0.316917 5.87377L3.489 9.00419L5.59625 6.86889L7.7035 4.73359L4.53142 1.60318L2.42417 3.73847ZM19.4321 20.986V17.986C19.5804 17.986 19.7854 18.0128 20.0115 18.105C20.2397 18.198 20.4208 18.3297 20.5499 18.4595L18.4221 20.5743L16.2943 22.6892C17.152 23.5521 18.2641 23.986 19.4321 23.986V20.986ZM18.4221 20.5743L20.5488 18.4584C20.6781 18.5884 20.8072 18.7688 20.8978 18.9936C20.9874 19.216 21.0129 19.416 21.0129 19.5589H18.0129H15.0129C15.0129 20.7181 15.438 21.8285 16.2954 22.6902L18.4221 20.5743ZM18.0129 19.5589H21.0129C21.0129 19.7019 20.9874 19.9056 20.8949 20.1335C20.8012 20.3643 20.6668 20.5505 20.5303 20.6853L18.4221 18.551L16.3138 16.4167C15.4396 17.2803 15.0129 18.3989 15.0129 19.5589H18.0129ZM18.4221 18.551L20.5303 20.6853C20.3988 20.8153 20.2177 20.9435 19.9937 21.0331C19.7723 21.1217 19.5736 21.1468 19.4321 21.1468V18.1468V15.1468C18.2815 15.1468 17.1754 15.5656 16.3138 16.4167L18.4221 18.551ZM19.4321 18.1468V21.1468H31.7629V18.1468V15.1468H19.4321V18.1468ZM31.7629 18.1468V21.1468C31.6146 21.1468 31.4096 21.12 31.1835 21.0278C30.9553 20.9348 30.7742 20.8031 30.6451 20.6733L32.7729 18.5585L34.9007 16.4436C34.043 15.5807 32.9309 15.1468 31.7629 15.1468V18.1468ZM32.7729 18.5585L30.6462 20.6744C30.5169 20.5444 30.3878 20.364 30.2972 20.1392C30.2076 19.9168 30.1821 19.7168 30.1821 19.5739H33.1821H36.1821C36.1821 18.4147 35.757 17.3043 34.8996 16.4425L32.7729 18.5585ZM33.1821 19.5739H30.1821C30.1821 19.4309 30.2076 19.2272 30.3001 18.9993C30.3938 18.7685 30.5282 18.5823 30.6647 18.4475L32.7729 20.5818L34.8812 22.7161C35.7554 21.8525 36.1821 20.7339 36.1821 19.5739H33.1821ZM32.7729 20.5818L30.6647 18.4475C30.7962 18.3175 30.9773 18.1893 31.2013 18.0997C31.4227 18.011 31.6214 17.986 31.7629 17.986V20.986V23.986C32.9135 23.986 34.0196 23.5672 34.8812 22.7161L32.7729 20.5818ZM31.7629 20.986V17.986H19.4321V20.986V23.986H31.7629V20.986ZM19.4321 7.65264V4.65264C19.5804 4.65264 19.7854 4.67945 20.0115 4.77163C20.2397 4.86465 20.4208 4.99633 20.5499 5.12612L18.4221 7.24097L16.2943 9.35582C17.152 10.2187 18.2641 10.6526 19.4321 10.6526V7.65264ZM18.4221 7.24097L20.5488 5.12505C20.6781 5.25506 20.8072 5.43545 20.8978 5.66024C20.9874 5.88263 21.0129 6.08264 21.0129 6.22556H18.0129H15.0129C15.0129 7.38472 15.438 8.49513 16.2954 9.3569L18.4221 7.24097ZM18.0129 6.22556H21.0129C21.0129 6.36856 20.9874 6.57225 20.8949 6.80013C20.8012 7.03097 20.6668 7.21715 20.5303 7.35196L18.4221 5.21764L16.3138 3.08332C15.4396 3.94693 15.0129 5.06553 15.0129 6.22556H18.0129ZM18.4221 5.21764L20.5303 7.35196C20.3988 7.48192 20.2177 7.61015 19.9937 7.69979C19.7723 7.7884 19.5736 7.81347 19.4321 7.81347V4.81347V1.81347C18.2815 1.81347 17.1754 2.23225 16.3138 3.08332L18.4221 5.21764ZM19.4321 4.81347V7.81347H31.7629V4.81347V1.81347H19.4321V4.81347ZM31.7629 4.81347V7.81347C31.6146 7.81347 31.4096 7.78666 31.1835 7.69449C30.9553 7.60146 30.7742 7.46979 30.6451 7.33999L32.7729 5.22514L34.9007 3.11029C34.043 2.24738 32.9309 1.81347 31.7629 1.81347V4.81347ZM32.7729 5.22514L30.6462 7.34107C30.5169 7.21105 30.3878 7.03067 30.2972 6.80588C30.2076 6.58349 30.1821 6.38347 30.1821 6.24056H33.1821H36.1821C36.1821 5.08139 35.757 3.97099 34.8996 3.10921L32.7729 5.22514ZM33.1821 6.24056H30.1821C30.1821 6.09755 30.2076 5.89386 30.3001 5.66599C30.3938 5.43515 30.5282 5.24896 30.6647 5.11415L32.7729 7.24847L34.8812 9.38279C35.7554 8.51919 36.1821 7.40059 36.1821 6.24056H33.1821ZM32.7729 7.24847L30.6647 5.11415C30.7962 4.9842 30.9773 4.85597 31.2013 4.76633C31.4227 4.67771 31.6214 4.65264 31.7629 4.65264V7.65264V10.6526C32.9135 10.6526 34.0196 10.2339 34.8812 9.38279L32.7729 7.24847ZM31.7629 7.65264V4.65264H19.4321V7.65264V10.6526H31.7629V7.65264Z" fill="#2DA2DB" mask="url(#path-1-inside-1_0_48)"/>
</g>
</g>
</svg>