<svg width="48" height="48" viewBox="0 0 48 48" fill="none" xmlns="http://www.w3.org/2000/svg">
<g id="location_on">
<path id="Vector" d="M23.9998 4.93945C27.9833 4.93945 31.4802 6.32307 34.5408 9.13867C37.5293 11.8878 39.0612 15.5833 39.0613 20.3643C39.0613 22.297 38.6357 24.2328 37.7644 26.1797C36.8651 28.1893 35.7361 30.1148 34.3757 31.957C33.0003 33.8196 31.5059 35.5576 29.8933 37.1709H29.8923C28.249 38.8152 26.7191 40.269 25.3005 41.5322L25.2859 41.5449L25.2722 41.5576C25.1185 41.703 24.9435 41.807 24.7341 41.875C24.4638 41.9627 24.2148 42.001 23.9841 42.001C23.7539 42.0009 23.5136 41.9628 23.2585 41.8779C23.0629 41.8128 22.8994 41.7128 22.7546 41.5713L22.7322 41.5498L22.7087 41.5293C21.2833 40.2669 19.7497 38.8144 18.1072 37.1709C16.4944 35.5575 15.0003 33.8197 13.6248 31.957C12.2647 30.1153 11.1381 28.1905 10.2429 26.1816V26.1807L10.0847 25.8164C9.32311 23.9922 8.95093 22.1771 8.95093 20.3643C8.95097 15.5829 10.481 11.8876 13.4656 9.13867C16.5218 6.32356 20.0163 4.93949 23.9998 4.93945ZM23.9998 5.8584C20.0654 5.8584 16.6922 7.21939 13.9607 9.93555C11.2088 12.6722 9.85722 16.1848 9.85718 20.3643C9.85718 23.2724 11.0722 26.4002 13.2957 29.7119C15.5201 33.025 18.817 36.6976 23.1482 40.7266L23.989 41.5088L24.8396 40.7373C29.2737 36.7147 32.6052 33.0368 34.7869 29.7061C36.9589 26.3898 38.1423 23.2642 38.1423 20.3643C38.1423 16.1847 36.7908 12.6722 34.0388 9.93555V9.93457C31.3068 7.21868 27.9339 5.85847 23.9998 5.8584ZM23.9958 17.6553C24.6624 17.6554 25.1941 17.8751 25.6609 18.3398C26.1258 18.8029 26.3455 19.3311 26.3455 19.9961C26.3454 20.6626 26.1254 21.1905 25.6628 21.6523C25.2004 22.1141 24.6719 22.3339 24.0046 22.334C23.3355 22.334 22.8058 22.1144 22.3445 21.6553C21.8853 21.1975 21.6667 20.6717 21.6667 20.0049C21.6668 19.3358 21.8853 18.8031 22.3464 18.3369L22.3474 18.3379C22.806 17.875 23.3309 17.6553 23.9958 17.6553Z" stroke="#2DA2DB" stroke-width="2.5"/>
</g>
</svg>