<svg width="40" height="40" viewBox="0 0 40 40" fill="none" xmlns="http://www.w3.org/2000/svg">
<g id="hard-hat">
<path id="Vector" d="M16.6666 16.6667V8.33341C16.6666 7.89139 16.8422 7.46746 17.1548 7.1549C17.4674 6.84234 17.8913 6.66675 18.3333 6.66675H21.6666C22.1087 6.66675 22.5326 6.84234 22.8452 7.1549C23.1577 7.46746 23.3333 7.89139 23.3333 8.33341V16.6667M23.3333 10.0001C25.9855 10.0001 28.529 11.0536 30.4044 12.929C32.2797 14.8044 33.3333 17.3479 33.3333 20.0001V25.0001M6.66665 25.0001V20.0001C6.66665 17.3479 7.72021 14.8044 9.59558 12.929C11.4709 11.0536 14.0145 10.0001 16.6666 10.0001M4.99998 25.0001H35C35.9205 25.0001 36.6666 25.7463 36.6666 26.6667V30.0001C36.6666 30.9206 35.9205 31.6667 35 31.6667H4.99998C4.07951 31.6667 3.33331 30.9206 3.33331 30.0001V26.6667C3.33331 25.7463 4.07951 25.0001 4.99998 25.0001Z" stroke="#2DA2DB" stroke-width="3" stroke-linecap="round" stroke-linejoin="round"/>
</g>
<defs>
<clipPath id="clip0_10408_10437">
<rect x="-24" y="-48" width="1280" height="360" rx="8" fill="white"/>
</clipPath>
</defs>
</svg>