<svg width="40" height="40" viewBox="0 0 40 40" fill="none" xmlns="http://www.w3.org/2000/svg">
<g id="history">
<g id="Vector">
<mask id="path-6-inside-1_10408_10437" fill="white">
<path d="M19.8663 35.2491C15.8882 35.2491 12.4712 33.9177 9.61505 31.2549C6.75866 28.5921 5.16117 25.3063 4.82255 21.3974C4.77478 21.0235 4.88394 20.6952 5.15005 20.4124C5.41589 20.1296 5.75242 19.9849 6.15964 19.9782C6.53992 19.9716 6.86811 20.0963 7.14422 20.3524C7.42005 20.6082 7.59575 20.9367 7.6713 21.3378C7.99686 24.4659 9.30853 27.0932 11.6063 29.2199C13.9038 31.3468 16.6567 32.4103 19.8651 32.4103C23.3598 32.4103 26.3227 31.1831 28.7538 28.7286C31.1849 26.2742 32.4005 23.2957 32.4005 19.7932C32.4005 16.3743 31.1731 13.4856 28.7184 11.127C26.2634 8.76864 23.3123 7.58947 19.8651 7.58947C18.0292 7.58947 16.3049 7.9985 14.6921 8.81655C13.0791 9.63433 11.6714 10.7217 10.4692 12.0786H13.3251C13.7006 12.0786 14.0128 12.2031 14.2617 12.452C14.5106 12.7009 14.6351 13.0131 14.6351 13.3886C14.6351 13.7695 14.5106 14.0846 14.2617 14.3341C14.0128 14.5835 13.7006 14.7082 13.3251 14.7082H7.14672C6.73922 14.7082 6.40075 14.5735 6.1313 14.3041C5.86214 14.0349 5.72755 13.6964 5.72755 13.2886V7.15197C5.72755 6.77669 5.85061 6.46628 6.09672 6.22072C6.34255 5.97517 6.65436 5.85239 7.03214 5.85239C7.40992 5.85239 7.72186 5.97517 7.96797 6.22072C8.21408 6.46628 8.33714 6.77669 8.33714 7.15197V10.1595C9.8013 8.47808 11.5298 7.15461 13.5226 6.18905C15.5153 5.2235 17.6295 4.74072 19.8651 4.74072C21.9817 4.74072 23.9716 5.13794 25.8346 5.93239C27.698 6.72683 29.3295 7.80933 30.7292 9.17989C32.1292 10.5504 33.2309 12.1534 34.0342 13.9886C34.8376 15.8239 35.2392 17.7999 35.2392 19.9166C35.2392 22.0332 34.8376 24.0231 34.0342 25.8861C33.2309 27.7492 32.1292 29.3729 30.7292 30.7574C29.3295 32.1418 27.698 33.2366 25.8346 34.0416C23.9716 34.8466 21.9821 35.2491 19.8663 35.2491ZM21.3513 19.4191L26.0713 24.0436C26.3427 24.3145 26.4784 24.6297 26.4784 24.9895C26.4784 25.3492 26.3451 25.6616 26.0784 25.9266C25.8117 26.1966 25.5042 26.3316 25.1559 26.3316C24.8078 26.3316 24.5005 26.1966 24.2338 25.9266L19.1567 20.9328C19.0045 20.7873 18.8973 20.6286 18.8351 20.457C18.7728 20.2853 18.7417 20.1018 18.7417 19.9066V12.8416C18.7417 12.466 18.8662 12.1554 19.1151 11.9099C19.3637 11.6643 19.6755 11.5416 20.0505 11.5416C20.4257 11.5416 20.7364 11.6643 20.9826 11.9099C21.2284 12.1554 21.3513 12.466 21.3513 12.8416V19.4191Z"/>
</mask>
<path d="M9.61505 31.2549L11.6608 29.0606L11.6607 29.0605L9.61505 31.2549ZM4.82255 21.3974L7.81136 21.1385L7.80609 21.0777L7.79836 21.0171L4.82255 21.3974ZM5.15005 20.4124L7.33478 22.4683L7.33585 22.4672L5.15005 20.4124ZM6.15964 19.9782L6.20874 22.9778L6.21222 22.9778L6.15964 19.9782ZM7.14422 20.3524L5.10406 22.5519L5.10414 22.552L7.14422 20.3524ZM7.6713 21.3378L10.6552 21.0273L10.6424 20.9041L10.6195 20.7825L7.6713 21.3378ZM11.6063 29.2199L13.6443 27.0184L13.6441 27.0182L11.6063 29.2199ZM28.7184 11.127L30.7969 8.96372L30.7967 8.96348L28.7184 11.127ZM14.6921 8.81655L16.0487 11.4923L16.0492 11.492L14.6921 8.81655ZM10.4692 12.0786L8.22375 10.0892L3.80322 15.0786H10.4692V12.0786ZM14.6351 13.3886H11.6351H14.6351ZM13.3251 14.7082V11.7082V14.7082ZM6.09672 6.22072L8.21564 8.34444L8.21684 8.34324L6.09672 6.22072ZM8.33714 10.1595H5.33714V18.1728L10.5996 12.1296L8.33714 10.1595ZM25.8346 5.93239L24.6579 8.69197L24.658 8.69203L25.8346 5.93239ZM30.7292 9.17989L28.6304 11.3234L28.6306 11.3236L30.7292 9.17989ZM30.7292 30.7574L28.6198 28.6243L28.6196 28.6245L30.7292 30.7574ZM25.8346 34.0416L24.6449 31.2876L24.6447 31.2876L25.8346 34.0416ZM21.3513 19.4191H18.3513V20.6797L19.2518 21.5619L21.3513 19.4191ZM26.0713 24.0436L28.1905 21.9201L28.1807 21.9104L28.1709 21.9008L26.0713 24.0436ZM26.0784 25.9266L23.9637 23.7986L23.9538 23.8085L23.9439 23.8185L26.0784 25.9266ZM24.2338 25.9266L26.3683 23.8185L26.353 23.803L26.3375 23.7878L24.2338 25.9266ZM19.1567 20.9328L21.2604 18.794L21.2453 18.7792L21.23 18.7645L19.1567 20.9328ZM19.1151 11.9099L21.222 14.0455L21.2232 14.0443L19.1151 11.9099ZM20.9826 11.9099L23.1027 9.78737L23.1015 9.78617L20.9826 11.9099ZM19.8663 35.2491V32.2491C16.6318 32.2491 13.9501 31.1949 11.6608 29.0606L9.61505 31.2549L7.5693 33.4492C10.9922 36.6404 15.1447 38.2491 19.8663 38.2491V35.2491ZM9.61505 31.2549L11.6607 29.0605C9.3502 26.9066 8.08624 24.3116 7.81136 21.1385L4.82255 21.3974L1.83375 21.6563C2.23609 26.3009 4.16713 30.2776 7.56941 33.4493L9.61505 31.2549ZM4.82255 21.3974L7.79836 21.0171C7.82633 21.236 7.8151 21.5173 7.71537 21.8172C7.61653 22.1145 7.46369 22.3314 7.33478 22.4683L5.15005 20.4124L2.96533 18.3564C2.1061 19.2695 1.68141 20.4837 1.84675 21.7777L4.82255 21.3974ZM5.15005 20.4124L7.33585 22.4672C7.20391 22.6076 7.01906 22.7479 6.78701 22.8477C6.55798 22.9462 6.35236 22.9755 6.20874 22.9778L6.15964 19.9782L6.11053 16.9786C4.93744 16.9978 3.81533 17.4522 2.96426 18.3576L5.15005 20.4124ZM6.15964 19.9782L6.21222 22.9778C6.05257 22.9806 5.84687 22.9553 5.62528 22.8711C5.40314 22.7867 5.22815 22.667 5.10406 22.5519L7.14422 20.3524L9.18439 18.1529C8.33392 17.364 7.25347 16.9586 6.10705 16.9787L6.15964 19.9782ZM7.14422 20.3524L5.10414 22.552C5.00067 22.456 4.90812 22.3376 4.83751 22.2056C4.76814 22.0759 4.73656 21.9643 4.72315 21.8931L7.6713 21.3378L10.6195 20.7825C10.4357 19.8069 9.97164 18.8831 9.1843 18.1528L7.14422 20.3524ZM7.6713 21.3378L4.68742 21.6484C5.08799 25.4971 6.73367 28.7978 9.56855 31.4216L11.6063 29.2199L13.6441 27.0182C11.8834 25.3886 10.9057 23.4346 10.6552 21.0273L7.6713 21.3378ZM11.6063 29.2199L9.56827 31.4213C12.4353 34.0755 15.9217 35.4103 19.8651 35.4103V32.4103V29.4103C17.3917 29.4103 15.3723 28.6181 13.6443 27.0184L11.6063 29.2199ZM19.8651 32.4103V35.4103C24.1499 35.4103 27.8834 33.8704 30.8852 30.8398L28.7538 28.7286L26.6224 26.6175C24.762 28.4957 22.5696 29.4103 19.8651 29.4103V32.4103ZM28.7538 28.7286L30.8852 30.8398C33.8814 27.8149 35.4005 24.0741 35.4005 19.7932H32.4005H29.4005C29.4005 22.5173 28.4885 24.7335 26.6224 26.6175L28.7538 28.7286ZM32.4005 19.7932H35.4005C35.4005 15.5619 33.8432 11.8908 30.7969 8.96372L28.7184 11.127L26.6398 13.2902C28.503 15.0804 29.4005 17.1868 29.4005 19.7932H32.4005ZM28.7184 11.127L30.7967 8.96348C27.7751 6.06088 24.0761 4.58947 19.8651 4.58947V7.58947V10.5895C22.5484 10.5895 24.7517 11.4764 26.6401 13.2905L28.7184 11.127ZM19.8651 7.58947V4.58947C17.5651 4.58947 15.375 5.10633 13.335 6.14106L14.6921 8.81655L16.0492 11.492C17.2349 10.8907 18.4934 10.5895 19.8651 10.5895V7.58947ZM14.6921 8.81655L13.3356 6.14078C11.3848 7.12977 9.67581 8.45027 8.22375 10.0892L10.4692 12.0786L12.7147 14.0681C13.6671 12.9931 14.7733 12.1389 16.0487 11.4923L14.6921 8.81655ZM10.4692 12.0786V15.0786H13.3251V12.0786V9.07864H10.4692V12.0786ZM13.3251 12.0786V15.0786C13.1769 15.0786 12.9666 15.053 12.7301 14.9588C12.4899 14.863 12.2902 14.7231 12.1404 14.5733L14.2617 12.452L16.383 10.3307C15.5311 9.47873 14.4372 9.07864 13.3251 9.07864V12.0786ZM14.2617 12.452L12.1404 14.5733C11.9906 14.4234 11.8507 14.2238 11.7549 13.9836C11.6607 13.7471 11.6351 13.5367 11.6351 13.3886H14.6351H17.6351C17.6351 12.2765 17.235 11.1826 16.383 10.3307L14.2617 12.452ZM14.6351 13.3886H11.6351C11.6351 13.2484 11.6589 13.0429 11.7514 12.8088C11.8457 12.5701 11.985 12.3685 12.138 12.2151L14.2617 14.3341L16.3854 16.453C17.2436 15.5929 17.6351 14.4931 17.6351 13.3886H14.6351ZM14.2617 14.3341L12.138 12.2151C12.2876 12.0652 12.4872 11.9249 12.728 11.8287C12.965 11.7341 13.1761 11.7082 13.3251 11.7082V14.7082V17.7082C14.4393 17.7082 15.5339 17.3064 16.3854 16.453L14.2617 14.3341ZM13.3251 14.7082V11.7082H7.14672V14.7082V17.7082H13.3251V14.7082ZM7.14672 14.7082V11.7082C7.27799 11.7082 7.47344 11.731 7.69668 11.8199C7.9239 11.9103 8.11238 12.0425 8.25262 12.1827L6.1313 14.3041L4.00998 16.4254C4.88385 17.2992 6.00472 17.7082 7.14672 17.7082V14.7082ZM6.1313 14.3041L8.25262 12.1827C8.39352 12.3236 8.52583 12.5126 8.6162 12.7399C8.70495 12.9631 8.72755 13.1582 8.72755 13.2886H5.72755H2.72755C2.72755 14.4293 3.13534 15.5507 4.00998 16.4254L6.1313 14.3041ZM5.72755 13.2886H8.72755V7.15197H5.72755H2.72755V13.2886H5.72755ZM5.72755 7.15197H8.72755C8.72755 7.2962 8.7029 7.50564 8.60871 7.74326C8.51271 7.98543 8.371 8.18943 8.21564 8.34444L6.09672 6.22072L3.9778 4.09701C3.11996 4.95291 2.72755 6.04981 2.72755 7.15197H5.72755ZM6.09672 6.22072L8.21684 8.34324C8.05983 8.50007 7.85492 8.64104 7.61409 8.73587C7.37819 8.82876 7.17183 8.85239 7.03214 8.85239V5.85239V2.85239C5.93575 2.85239 4.83682 3.23895 3.9766 4.0982L6.09672 6.22072ZM7.03214 5.85239V8.85239C6.89242 8.85239 6.68628 8.82875 6.45071 8.73603C6.21026 8.64139 6.00574 8.50077 5.84905 8.34444L7.96797 6.22072L10.0869 4.09701C9.22685 3.23891 8.12854 2.85239 7.03214 2.85239V5.85239ZM7.96797 6.22072L5.84905 8.34444C5.6937 8.18943 5.55198 7.98543 5.45599 7.74326C5.36179 7.50564 5.33714 7.2962 5.33714 7.15197H8.33714H11.3371C11.3371 6.04981 10.9447 4.95291 10.0869 4.09701L7.96797 6.22072ZM8.33714 7.15197H5.33714V10.1595H8.33714H11.3371V7.15197H8.33714ZM8.33714 10.1595L10.5996 12.1296C11.7999 10.7511 13.2045 9.67676 14.8307 8.88884L13.5226 6.18905L12.2144 3.48927C9.85506 4.63245 7.80266 6.20503 6.07471 8.18934L8.33714 10.1595ZM13.5226 6.18905L14.8307 8.88884C16.4117 8.12281 18.0781 7.74072 19.8651 7.74072V4.74072V1.74072C17.1809 1.74072 14.619 2.32419 12.2144 3.48927L13.5226 6.18905ZM19.8651 4.74072V7.74072C21.5959 7.74072 23.1836 8.0633 24.6579 8.69197L25.8346 5.93239L27.0114 3.17281C24.7596 2.21259 22.3676 1.74072 19.8651 1.74072V4.74072ZM25.8346 5.93239L24.658 8.69203C26.1902 9.34528 27.5062 10.2227 28.6304 11.3234L30.7292 9.17989L32.8281 7.03635C31.1528 5.39601 29.2057 4.10839 27.0112 3.17275L25.8346 5.93239ZM30.7292 9.17989L28.6306 11.3236C29.7495 12.419 30.6333 13.7005 31.286 15.1916L34.0342 13.9886L36.7825 12.7857C35.8285 10.6062 34.509 8.68189 32.8279 7.03614L30.7292 9.17989ZM34.0342 13.9886L31.286 15.1916C31.914 16.6263 32.2392 18.1901 32.2392 19.9166H35.2392H38.2392C38.2392 17.4097 37.7611 15.0215 36.7825 12.7857L34.0342 13.9886ZM35.2392 19.9166H32.2392C32.2392 21.6428 31.914 23.2266 31.2794 24.6983L34.0342 25.8861L36.789 27.074C37.7611 24.8196 38.2392 22.4237 38.2392 19.9166H35.2392ZM34.0342 25.8861L31.2794 24.6983C30.6238 26.2187 29.7376 27.5188 28.6198 28.6243L30.7292 30.7574L32.8387 32.8905C34.5208 31.227 35.838 29.2797 36.789 27.074L34.0342 25.8861ZM30.7292 30.7574L28.6196 28.6245C27.4934 29.7383 26.1764 30.6259 24.6449 31.2876L25.8346 34.0416L27.0244 36.7955C29.2195 35.8472 31.1656 34.5454 32.8389 32.8903L30.7292 30.7574ZM25.8346 34.0416L24.6447 31.2876C23.1733 31.9234 21.5906 32.2491 19.8663 32.2491V35.2491V38.2491C22.3736 38.2491 24.7698 37.7697 27.0246 36.7955L25.8346 34.0416ZM21.3513 19.4191L19.2518 21.5619L23.9718 26.1865L26.0713 24.0436L28.1709 21.9008L23.4509 17.2762L21.3513 19.4191ZM26.0713 24.0436L23.9522 26.1671C23.8496 26.0647 23.7205 25.9003 23.621 25.6692C23.5199 25.4343 23.4784 25.1975 23.4784 24.9895H26.4784H29.4784C29.4784 23.7767 28.9846 22.7127 28.1905 21.9201L26.0713 24.0436ZM26.4784 24.9895H23.4784C23.4784 24.7889 23.5177 24.5537 23.6192 24.3158C23.7197 24.0805 23.8524 23.9092 23.9637 23.7986L26.0784 25.9266L28.193 28.0545C28.9979 27.2547 29.4784 26.1874 29.4784 24.9895H26.4784ZM26.0784 25.9266L23.9439 23.8185C24.0425 23.7186 24.2063 23.5868 24.4418 23.4834C24.6824 23.3777 24.9307 23.3316 25.1559 23.3316V26.3316V29.3316C26.3822 29.3316 27.4382 28.819 28.2128 28.0347L26.0784 25.9266ZM25.1559 26.3316V23.3316C25.3816 23.3316 25.6301 23.3779 25.8707 23.4836C26.1063 23.587 26.2699 23.7188 26.3683 23.8185L24.2338 25.9266L22.0993 28.0347C22.8735 28.8185 23.9292 29.3316 25.1559 29.3316V26.3316ZM24.2338 25.9266L26.3375 23.7878L21.2604 18.794L19.1567 20.9328L17.053 23.0716L22.1301 28.0654L24.2338 25.9266ZM19.1567 20.9328L21.23 18.7645C21.3605 18.8893 21.5377 19.1098 21.6555 19.4347L18.8351 20.457L16.0146 21.4793C16.2568 22.1475 16.6485 22.6852 17.0834 23.1011L19.1567 20.9328ZM18.8351 20.457L21.6555 19.4347C21.7201 19.6129 21.7417 19.7776 21.7417 19.9066H18.7417H15.7417C15.7417 20.4261 15.8256 20.9577 16.0146 21.4793L18.8351 20.457ZM18.7417 19.9066H21.7417V12.8416H18.7417H15.7417V19.9066H18.7417ZM18.7417 12.8416H21.7417C21.7417 12.9894 21.7162 13.2024 21.6198 13.4429C21.5217 13.6877 21.3777 13.8919 21.222 14.0455L19.1151 11.9099L17.0081 9.77432C16.1425 10.6283 15.7417 11.7293 15.7417 12.8416H18.7417ZM19.1151 11.9099L21.2232 14.0443C21.0716 14.194 20.872 14.3315 20.6345 14.425C20.4011 14.5169 20.1946 14.5416 20.0505 14.5416V11.5416V8.54155C18.95 8.54155 17.8608 8.93209 17.0069 9.77549L19.1151 11.9099ZM20.0505 11.5416V14.5416C19.907 14.5416 19.6988 14.5171 19.4624 14.4237C19.2215 14.3285 19.0183 14.1879 18.8636 14.0336L20.9826 11.9099L23.1015 9.78617C22.2455 8.93211 21.1506 8.54155 20.0505 8.54155V11.5416ZM20.9826 11.9099L18.8624 14.0324C18.7069 13.877 18.5654 13.6729 18.4697 13.431C18.3758 13.1938 18.3513 12.985 18.3513 12.8416H21.3513H24.3513C24.3513 11.7408 23.9602 10.644 23.1027 9.78737L20.9826 11.9099ZM21.3513 12.8416H18.3513V19.4191H21.3513H24.3513V12.8416H21.3513Z" fill="#2DA2DB" mask="url(#path-6-inside-1_10408_10437)"/>
</g>
</g>
<defs>
<clipPath id="clip0_10408_10437">
<rect x="-792" y="-48" width="1280" height="360" rx="8" fill="white"/>
</clipPath>
</defs>
</svg>