<svg width="48" height="48" viewBox="0 0 48 48" fill="none" xmlns="http://www.w3.org/2000/svg">
<g id="personal_injury">
<path id="Vector" d="M24.0028 23.9531C26.3863 23.9531 28.5722 24.2512 30.5673 24.835C32.643 25.4428 34.509 26.1211 36.1688 26.8672L36.1708 26.8682C37.0718 27.2717 37.7703 27.8462 38.2958 28.5957V28.5967C38.7882 29.2997 39.0614 30.1729 39.0614 31.2783V41C39.0614 41.573 38.8651 42.0565 38.412 42.5078H38.411C37.9582 42.9592 37.4716 43.1562 36.8925 43.1562H19.6317C18.5069 43.1562 17.5964 42.7792 16.826 42.0078C16.0557 41.2364 15.6787 40.3245 15.6786 39.1973C15.6786 38.0699 16.0563 37.1613 16.8251 36.3945C17.595 35.6269 18.5052 35.25 19.6317 35.25H26.2782L26.6112 34.5146L29.9598 27.1006L30.6122 25.6572L29.0565 25.3584C28.1912 25.1923 27.3301 25.0694 26.4745 24.9902C25.6254 24.9116 24.7985 24.8721 23.994 24.8721C21.5272 24.8721 19.2891 25.1493 17.2938 25.7217C15.3782 26.2712 13.6644 26.9065 12.161 27.6338L12.1337 27.6475C11.463 27.9923 10.9229 28.5055 10.5116 29.1455C10.0862 29.8071 9.8573 30.5417 9.8573 31.3262V42.7031C9.8573 42.8644 9.81626 42.9458 9.7323 43.0293C9.64814 43.113 9.56353 43.1562 9.39539 43.1562C9.22755 43.1562 9.15111 43.1132 9.07605 43.0371H9.07507C8.99415 42.9551 8.95105 42.8712 8.95105 42.7031V31.2783C8.95107 30.1721 9.22313 29.2986 9.71375 28.5967C10.2425 27.84 10.927 27.2634 11.7889 26.8584C13.4245 26.1243 15.2913 25.4513 17.3934 24.8408C19.4194 24.2528 21.6203 23.9531 24.0028 23.9531ZM19.6317 36.0254C18.7628 36.0254 18.0039 36.3734 17.4022 36.9756C16.7984 37.5799 16.454 38.3414 16.454 39.2109C16.454 40.0812 16.7993 40.8428 17.4081 41.4443V41.4453C18.0112 42.0407 18.7685 42.3818 19.6317 42.3818H22.8983L23.2352 41.6631L25.0497 37.8066L25.8876 36.0254H19.6317ZM30.91 26.9355L24.6874 40.4785L23.8729 42.25H38.1425V31.3262C38.1425 30.6294 37.9567 29.975 37.6122 29.3789L37.455 29.127C37.031 28.496 36.4844 27.9927 35.8143 27.6514H35.8153C35.4951 27.4863 35.135 27.3213 34.7382 27.1572L34.329 26.9932C33.7898 26.7828 33.1757 26.5478 32.4872 26.2881L31.3964 25.877L30.91 26.9355ZM23.994 4.85547C25.9951 4.85547 27.54 5.47909 28.7382 6.67383C29.9365 7.86884 30.5614 9.40868 30.5614 11.4014C30.5613 13.3938 29.937 14.9347 28.7382 16.1318H28.7372C27.5385 17.3293 25.9956 17.9531 23.9999 17.9531C22.0041 17.9531 20.4637 17.3293 19.2694 16.1328L19.0516 15.9043C17.998 14.7413 17.4511 13.2718 17.451 11.4072C17.451 9.53344 17.9991 8.06121 19.0516 6.90039L19.2684 6.67285C20.463 5.47832 22.0018 4.85547 23.994 4.85547ZM24.0077 5.76172C22.4358 5.7618 21.0566 6.28485 19.9706 7.36523C18.8832 8.44753 18.3573 9.82648 18.3573 11.4004C18.3573 12.9736 18.8821 14.353 19.9667 15.4375C21.0502 16.5214 22.4272 17.0468 23.9979 17.0469C25.4753 17.0469 26.7816 16.5863 27.8319 15.6338L28.0389 15.4365C29.1195 14.3524 29.6425 12.9757 29.6425 11.4062C29.6424 9.83201 29.1218 8.45178 28.0399 7.36816V7.36719C26.9581 6.28414 25.5795 5.76172 24.0077 5.76172Z" stroke="#2DA2DB" stroke-width="2.5"/>
</g>
</svg>