<svg width="48" height="48" viewBox="0 0 48 48" fill="none" xmlns="http://www.w3.org/2000/svg">
<g id="e911_emergency">
<path id="Vector" d="M20.7552 22.3215H27.2445C27.7367 22.3215 28.1408 22.4618 28.5043 22.7434L28.5052 22.7444C28.8399 23.0035 29.0794 23.3198 29.2338 23.7161L29.2953 23.8909L33.4095 37.4348L33.6791 38.3215H36.0004C36.161 38.3216 36.242 38.3625 36.3256 38.4465L36.3265 38.4475C36.4104 38.5317 36.4535 38.6167 36.4535 38.7844C36.4534 38.951 36.411 39.028 36.3344 39.1038H36.3334C36.2515 39.1847 36.1683 39.2287 36.0004 39.2288H12.0004C11.8395 39.2288 11.7578 39.1879 11.6742 39.1038L11.6732 39.1028L11.6185 39.0383C11.5708 38.9711 11.5463 38.8919 11.5463 38.7659C11.5463 38.599 11.5895 38.5224 11.6664 38.4465V38.4456C11.7483 38.3646 11.8323 38.3215 12.0004 38.3215H14.3207L14.5902 37.4348L18.7064 23.8831C18.8555 23.4073 19.114 23.039 19.4945 22.7444L19.4955 22.7434C19.8589 22.4618 20.2631 22.3216 20.7552 22.3215ZM19.6078 24.1194L15.8275 36.7122L15.3441 38.3215H32.6556L32.1722 36.7122L28.392 24.1194L28.1244 23.2288H19.8754L19.6078 24.1194ZM2.94958 27.5461H8.94958C9.11061 27.5461 9.19688 27.588 9.2865 27.677L9.28748 27.678C9.3731 27.7631 9.41541 27.8459 9.41541 28.009C9.4154 28.1713 9.37388 28.2467 9.29529 28.3235C9.20718 28.4095 9.1179 28.4534 8.94958 28.4534H2.94958C2.78892 28.4533 2.70795 28.4124 2.62439 28.3284L2.62341 28.3274C2.53966 28.2433 2.49654 28.1589 2.49646 27.9915C2.49646 27.8246 2.53879 27.747 2.6156 27.6711H2.61658C2.69851 27.5902 2.78168 27.5462 2.94958 27.5461ZM39.0502 27.5461H45.0502C45.2109 27.5462 45.2918 27.588 45.3754 27.6721H45.3763C45.4603 27.7564 45.5033 27.8413 45.5033 28.009C45.5033 28.1758 45.4608 28.2526 45.3842 28.3284L45.3832 28.3293C45.3013 28.4101 45.218 28.4533 45.0502 28.4534H39.0502C38.8894 28.4534 38.8085 28.4123 38.725 28.3284L38.724 28.3274L38.6683 28.2629C38.6208 28.1959 38.5961 28.117 38.5961 27.9915C38.5961 27.8664 38.6201 27.7912 38.6644 27.7297L38.7162 27.6711C38.7982 27.5902 38.882 27.5461 39.0502 27.5461ZM38.8265 12.9338C38.9236 12.9312 38.9883 12.948 39.0883 13.05L39.0961 13.0588C39.2156 13.1786 39.2396 13.2638 39.2396 13.3684C39.2396 13.4732 39.2158 13.5591 39.0961 13.679L39.0912 13.6829L34.847 17.9778C34.7296 18.0951 34.6426 18.1213 34.5306 18.1213C34.421 18.1213 34.3349 18.0959 34.2172 17.9778L34.2074 17.968L34.1361 17.886C34.0783 17.8066 34.0599 17.7321 34.0599 17.635C34.0599 17.5381 34.0782 17.4647 34.1351 17.387L34.2054 17.3069L34.2152 17.2971L38.4232 13.0881C38.5486 12.9825 38.6693 12.9384 38.8265 12.9338ZM9.22498 12.9036C9.30428 12.9036 9.37728 12.9177 9.46423 12.9788L9.55701 13.0579L13.8334 17.2971H13.8344C13.952 17.4147 13.9789 17.501 13.9789 17.6125C13.9789 17.722 13.953 17.8079 13.8344 17.926L13.8246 17.9358C13.7134 18.0489 13.6278 18.0784 13.5023 18.0774C13.3599 18.0762 13.2641 18.0393 13.1527 17.928H13.1537L8.9408 13.7151C8.84006 13.6 8.79484 13.4879 8.79041 13.3293V13.3284L8.79333 13.261C8.80168 13.1974 8.83013 13.1426 8.90662 13.0676L8.91638 13.0588L8.92517 13.0491C9.04757 12.9239 9.12999 12.9036 9.22498 12.9036ZM24.0092 6.76001C24.1715 6.76004 24.2467 6.80136 24.3236 6.88013C24.4096 6.9682 24.4535 7.05664 24.4535 7.22485V13.2249C24.4535 13.3856 24.4124 13.4665 24.3285 13.55L24.3275 13.551C24.2433 13.6349 24.1584 13.679 23.9906 13.679C23.8239 13.6789 23.7471 13.6357 23.6713 13.5588H23.6703C23.5894 13.4769 23.5463 13.3929 23.5463 13.2249V7.22485C23.5463 7.10434 23.5695 7.02573 23.6185 6.9563L23.6771 6.88794C23.7624 6.80206 23.8458 6.76001 24.0092 6.76001Z" stroke="#2DA2DB" stroke-width="2.5"/>
</g>
</svg>