<svg width="40" height="40" viewBox="0 0 40 40" fill="none" xmlns="http://www.w3.org/2000/svg">
<g id="eye_tracking">
<g id="Vector">
<mask id="path-6-inside-1_10408_10437" fill="white">
<path d="M4.25623 38.5825C3.48956 38.5825 2.82484 38.3009 2.26206 37.7379C1.69901 37.1751 1.41748 36.5104 1.41748 35.7437V32.0179C1.41748 31.6173 1.55456 31.2807 1.82873 31.0079C2.1029 30.7351 2.44137 30.5987 2.84415 30.5987C3.24692 30.5987 3.58304 30.7351 3.85248 31.0079C4.12165 31.2807 4.25623 31.6173 4.25623 32.0179V35.7437H7.98206C8.38262 35.7437 8.71929 35.8808 8.99206 36.155C9.26484 36.4291 9.40123 36.7676 9.40123 37.1704C9.40123 37.5732 9.26484 37.9091 8.99206 38.1783C8.71929 38.4477 8.38262 38.5825 7.98206 38.5825H4.25623ZM35.7537 38.5825H32.0279C31.6273 38.5825 31.2907 38.4454 31.0179 38.1712C30.7451 37.897 30.6087 37.5586 30.6087 37.1558C30.6087 36.753 30.7451 36.4169 31.0179 36.1475C31.2907 35.8783 31.6273 35.7437 32.0279 35.7437H35.7537V32.0179C35.7537 31.6173 35.8908 31.2807 36.165 31.0079C36.4391 30.7351 36.7776 30.5987 37.1804 30.5987C37.5832 30.5987 37.9191 30.7351 38.1883 31.0079C38.4578 31.2807 38.5925 31.6173 38.5925 32.0179V35.7437C38.5925 36.5104 38.311 37.1751 37.7479 37.7379C37.1851 38.3009 36.5204 38.5825 35.7537 38.5825ZM19.9554 30.8341C16.9162 30.8341 14.1335 30.0339 11.6071 28.4333C9.0804 26.8327 7.06095 24.6297 5.54873 21.8241C5.39012 21.5477 5.27804 21.2561 5.21248 20.9491C5.14692 20.6422 5.11415 20.3291 5.11415 20.01C5.11415 19.685 5.1504 19.3689 5.2229 19.0616C5.2954 18.7541 5.40401 18.4589 5.54873 18.1758C7.06095 15.3425 9.07887 13.1239 11.6025 11.52C14.1261 9.91608 16.908 9.11414 19.9483 9.11414C22.9886 9.11414 25.7808 9.91441 28.325 11.515C30.8691 13.1155 32.8973 15.3325 34.4096 18.1658C34.5682 18.4489 34.6819 18.7459 34.7508 19.0571C34.8197 19.3682 34.8541 19.6791 34.8541 19.99C34.8541 20.3011 34.818 20.6147 34.7458 20.9308C34.6736 21.2469 34.5582 21.548 34.3996 21.8341C32.894 24.6397 30.87 26.8411 28.3275 28.4383C25.785 30.0355 22.9943 30.8341 19.9554 30.8341ZM19.9521 28.0654C22.5262 28.0654 24.9228 27.3411 27.1416 25.8925C29.3605 24.4441 31.0566 22.4783 32.23 19.995C31.0566 17.5116 29.361 15.5389 27.1429 14.0766C24.9248 12.6144 22.5266 11.8833 19.9483 11.8833C17.375 11.8833 14.9883 12.6144 12.7883 14.0766C10.5883 15.5389 8.90165 17.5116 7.72831 19.995C8.90165 22.4783 10.5887 24.4441 12.7896 25.8925C14.9904 27.3411 17.3779 28.0654 19.9521 28.0654ZM19.9991 25.52C21.5341 25.52 22.85 24.9782 23.9466 23.8946C25.0433 22.8109 25.5916 21.5097 25.5916 19.9908C25.5916 18.4719 25.0443 17.1668 23.9496 16.0754C22.8548 14.984 21.536 14.4383 19.9929 14.4383C18.4632 14.4383 17.1669 14.9797 16.1041 16.0625C15.0414 17.1452 14.51 18.4568 14.51 19.9971C14.51 21.5373 15.0444 22.8429 16.1133 23.9137C17.1825 24.9846 18.4778 25.52 19.9991 25.52ZM19.9929 22.8304C19.204 22.8304 18.5362 22.5552 17.9896 22.005C17.4429 21.4544 17.1696 20.7859 17.1696 19.9996C17.1696 19.2129 17.4426 18.5376 17.9887 17.9737C18.5348 17.4098 19.2033 17.1279 19.9941 17.1279C20.785 17.1279 21.4607 17.4072 22.0212 17.9658C22.5821 18.5244 22.8625 19.2026 22.8625 20.0004C22.8625 20.7871 22.5835 21.4554 22.0254 22.0054C21.4673 22.5554 20.7898 22.8304 19.9929 22.8304ZM38.5925 4.24622V7.97205C38.5925 8.37261 38.4554 8.70927 38.1812 8.98205C37.9071 9.25483 37.5686 9.39122 37.1658 9.39122C36.763 9.39122 36.4269 9.25483 36.1575 8.98205C35.8883 8.70927 35.7537 8.37261 35.7537 7.97205V4.24622H32.0279C31.6273 4.24622 31.2907 4.10914 31.0179 3.83497C30.7451 3.5608 30.6087 3.22233 30.6087 2.81955C30.6087 2.41677 30.7451 2.0808 31.0179 1.81164C31.2907 1.54219 31.6273 1.40747 32.0279 1.40747H35.7537C36.5204 1.40747 37.1851 1.689 37.7479 2.25205C38.311 2.81483 38.5925 3.47955 38.5925 4.24622ZM4.25623 1.40747H7.98206C8.38262 1.40747 8.71929 1.54455 8.99206 1.81872C9.26484 2.09289 9.40123 2.43136 9.40123 2.83414C9.40123 3.23691 9.26484 3.57302 8.99206 3.84247C8.71929 4.11163 8.38262 4.24622 7.98206 4.24622H4.25623V7.97205C4.25623 8.37261 4.11915 8.70927 3.84498 8.98205C3.57081 9.25483 3.23234 9.39122 2.82956 9.39122C2.42679 9.39122 2.09081 9.25483 1.82165 8.98205C1.5522 8.70927 1.41748 8.37261 1.41748 7.97205V4.24622C1.41748 3.47955 1.69901 2.81483 2.26206 2.25205C2.82484 1.689 3.48956 1.40747 4.25623 1.40747Z"/>
</mask>
<path d="M2.26206 37.7379L4.38391 35.6171L4.38286 35.616L2.26206 37.7379ZM3.85248 31.0079L5.98789 28.9007L5.9868 28.8996L3.85248 31.0079ZM4.25623 35.7437H1.25623V38.7437H4.25623V35.7437ZM8.99206 38.1783L6.88492 36.0429L6.88382 36.044L8.99206 38.1783ZM31.0179 36.1475L28.9108 34.0121L28.9097 34.0131L31.0179 36.1475ZM35.7537 35.7437V38.7437H38.7537V35.7437H35.7537ZM38.1883 31.0079L36.0529 33.115L36.054 33.1161L38.1883 31.0079ZM37.7479 37.7379L35.6271 35.616L35.6261 35.6171L37.7479 37.7379ZM11.6071 28.4333L13.2126 25.8991L13.2125 25.899L11.6071 28.4333ZM5.54873 21.8241L8.18954 20.4007L8.17059 20.3656L8.15072 20.3309L5.54873 21.8241ZM5.2229 19.0616L8.1427 19.7507L8.14284 19.7501L5.2229 19.0616ZM5.54873 18.1758L2.9021 16.7632L2.88965 16.7866L2.87761 16.8101L5.54873 18.1758ZM34.4096 18.1658L31.7629 19.5784L31.7774 19.6055L31.7924 19.6323L34.4096 18.1658ZM34.3996 21.8341L31.7758 20.3796L31.7658 20.3975L31.7561 20.4156L34.3996 21.8341ZM27.1416 25.8925L25.5019 23.3803L25.5016 23.3804L27.1416 25.8925ZM32.23 19.995L34.9425 21.2766L35.548 19.995L34.9425 18.7134L32.23 19.995ZM7.72831 19.995L5.01584 18.7134L4.41031 19.995L5.01584 21.2766L7.72831 19.995ZM12.7896 25.8925L14.439 23.3866L14.4387 23.3864L12.7896 25.8925ZM16.1133 23.9137L13.9901 26.0331L13.9903 26.0334L16.1133 23.9137ZM17.9896 22.005L15.8607 24.1188L15.8613 24.1193L17.9896 22.005ZM22.0212 17.9658L19.9036 20.0908L19.9041 20.0913L22.0212 17.9658ZM36.1575 8.98205L34.0221 11.0892L34.0232 11.0903L36.1575 8.98205ZM35.7537 4.24622H38.7537V1.24622H35.7537V4.24622ZM31.0179 1.81164L33.125 3.94704L33.1261 3.94596L31.0179 1.81164ZM37.7479 2.25205L35.626 4.37285L35.6271 4.3739L37.7479 2.25205ZM8.99206 3.84247L11.0992 5.97788L11.1003 5.97679L8.99206 3.84247ZM4.25623 4.24622V1.24622H1.25623V4.24622H4.25623ZM1.82165 8.98205L3.95706 6.87491L3.95597 6.87381L1.82165 8.98205ZM2.26206 2.25205L4.38286 4.3739L4.38391 4.37285L2.26206 2.25205ZM4.25623 38.5825V35.5825C4.24905 35.5825 4.25807 35.5819 4.2793 35.5861C4.30097 35.5903 4.32661 35.5978 4.35266 35.6089C4.37855 35.6198 4.39595 35.6305 4.40377 35.6359C4.41109 35.6409 4.40393 35.6371 4.38391 35.6171L2.26206 37.7379L0.14022 39.8587C1.24155 40.9606 2.66021 41.5825 4.25623 41.5825V38.5825ZM2.26206 37.7379L4.38286 35.616C4.36282 35.596 4.35902 35.5889 4.36405 35.5962C4.36943 35.604 4.38012 35.6214 4.39108 35.6473C4.40211 35.6733 4.40961 35.699 4.41387 35.7206C4.41805 35.7419 4.41748 35.7509 4.41748 35.7437H1.41748H-1.58252C-1.58252 37.3397 -0.960609 38.7584 0.141267 39.8597L2.26206 37.7379ZM1.41748 35.7437H4.41748V32.0179H1.41748H-1.58252V35.7437H1.41748ZM1.41748 32.0179H4.41748C4.41748 32.1659 4.39077 32.3704 4.29879 32.5963C4.20596 32.8243 4.07447 33.0054 3.94466 33.1346L1.82873 31.0079L-0.287196 28.8812C-1.14946 29.7391 -1.58252 30.8509 -1.58252 32.0179H1.41748ZM1.82873 31.0079L3.94466 33.1346C3.81464 33.2639 3.63425 33.393 3.40947 33.4836C3.18708 33.5732 2.98706 33.5987 2.84415 33.5987V30.5987V27.5987C1.68498 27.5987 0.574576 28.0238 -0.287196 28.8812L1.82873 31.0079ZM2.84415 30.5987V33.5987C2.70155 33.5987 2.49809 33.5733 2.27029 33.4809C2.03949 33.3872 1.85317 33.2528 1.71816 33.1161L3.85248 31.0079L5.9868 28.8996C5.12277 28.0249 4.00382 27.5987 2.84415 27.5987V30.5987ZM3.85248 31.0079L1.71707 33.115C1.58712 32.9833 1.45907 32.8023 1.36963 32.5785C1.2812 32.3574 1.25623 32.1591 1.25623 32.0179H4.25623H7.25623C7.25623 30.8683 6.83829 29.7626 5.98789 28.9007L3.85248 31.0079ZM4.25623 32.0179H1.25623V35.7437H4.25623H7.25623V32.0179H4.25623ZM4.25623 35.7437V38.7437H7.98206V35.7437V32.7437H4.25623V35.7437ZM7.98206 35.7437V38.7437C7.83409 38.7437 7.62952 38.717 7.40364 38.625C7.17564 38.5322 6.99452 38.4007 6.86536 38.2709L8.99206 36.155L11.1188 34.039C10.2609 33.1768 9.14905 32.7437 7.98206 32.7437V35.7437ZM8.99206 36.155L6.86536 38.2709C6.73601 38.1409 6.60693 37.9605 6.51635 37.7357C6.42674 37.5133 6.40123 37.3133 6.40123 37.1704H9.40123H12.4012C12.4012 36.0112 11.9762 34.9008 11.1188 34.039L8.99206 36.155ZM9.40123 37.1704H6.40123C6.40123 37.0278 6.42665 36.8241 6.51925 36.596C6.61309 36.3649 6.7478 36.1782 6.88492 36.0429L8.99206 38.1783L11.0992 40.3137C11.975 39.4495 12.4012 38.3301 12.4012 37.1704H9.40123ZM8.99206 38.1783L6.88382 36.044C7.01539 35.914 7.19642 35.7858 7.42042 35.6962C7.64187 35.6075 7.84052 35.5825 7.98206 35.5825V38.5825V41.5825C9.13263 41.5825 10.2387 41.1637 11.1003 40.3126L8.99206 38.1783ZM7.98206 38.5825V35.5825H4.25623V38.5825V41.5825H7.98206V38.5825ZM35.7537 38.5825V35.5825H32.0279V38.5825V41.5825H35.7537V38.5825ZM32.0279 38.5825V35.5825C32.1759 35.5825 32.3804 35.6092 32.6063 35.7012C32.8343 35.794 33.0154 35.9255 33.1446 36.0553L31.0179 38.1712L28.8912 40.2871C29.7491 41.1494 30.8609 41.5825 32.0279 41.5825V38.5825ZM31.0179 38.1712L33.1446 36.0553C33.274 36.1853 33.403 36.3657 33.4936 36.5905C33.5832 36.8129 33.6087 37.0129 33.6087 37.1558H30.6087H27.6087C27.6087 38.315 28.0338 39.4254 28.8912 40.2871L31.0179 38.1712ZM30.6087 37.1558H33.6087C33.6087 37.2984 33.5833 37.5019 33.4909 37.7297C33.3972 37.9605 33.2628 38.1468 33.1261 38.2818L31.0179 36.1475L28.9097 34.0131C28.0349 34.8772 27.6087 35.9961 27.6087 37.1558H30.6087ZM31.0179 36.1475L33.125 38.2829C32.9933 38.4128 32.8123 38.5409 32.5886 38.6303C32.3674 38.7187 32.1691 38.7437 32.0279 38.7437V35.7437V32.7437C30.8783 32.7437 29.7726 33.1617 28.9108 34.0121L31.0179 36.1475ZM32.0279 35.7437V38.7437H35.7537V35.7437V32.7437H32.0279V35.7437ZM35.7537 35.7437H38.7537V32.0179H35.7537H32.7537V35.7437H35.7537ZM35.7537 32.0179H38.7537C38.7537 32.1659 38.727 32.3704 38.635 32.5963C38.5422 32.8243 38.4107 33.0054 38.2809 33.1346L36.165 31.0079L34.0491 28.8812C33.1868 29.7391 32.7537 30.8509 32.7537 32.0179H35.7537ZM36.165 31.0079L38.2809 33.1346C38.1509 33.2639 37.9705 33.393 37.7457 33.4836C37.5233 33.5732 37.3233 33.5987 37.1804 33.5987V30.5987V27.5987C36.0212 27.5987 34.9108 28.0238 34.0491 28.8812L36.165 31.0079ZM37.1804 30.5987V33.5987C37.0378 33.5987 36.8342 33.5733 36.606 33.4807C36.3749 33.3869 36.1882 33.2521 36.0529 33.115L38.1883 31.0079L40.3237 28.9007C39.4596 28.025 38.3401 27.5987 37.1804 27.5987V30.5987ZM38.1883 31.0079L36.054 33.1161C35.924 32.9846 35.7958 32.8035 35.7062 32.5795C35.6175 32.3581 35.5925 32.1594 35.5925 32.0179H38.5925H41.5925C41.5925 30.8673 41.1737 29.7613 40.3226 28.8996L38.1883 31.0079ZM38.5925 32.0179H35.5925V35.7437H38.5925H41.5925V32.0179H38.5925ZM38.5925 35.7437H35.5925C35.5925 35.7509 35.5919 35.7419 35.5961 35.7207C35.6003 35.699 35.6078 35.6733 35.6189 35.6473C35.6298 35.6214 35.6405 35.604 35.6459 35.5962C35.6509 35.5889 35.6471 35.596 35.6271 35.616L37.7479 37.7379L39.8687 39.8597C40.9706 38.7584 41.5925 37.3397 41.5925 35.7437H38.5925ZM37.7479 37.7379L35.6261 35.6171C35.606 35.6371 35.5989 35.6409 35.6062 35.6359C35.614 35.6305 35.6314 35.6198 35.6573 35.6089C35.6833 35.5978 35.709 35.5903 35.7307 35.5861C35.7519 35.5819 35.7609 35.5825 35.7537 35.5825V38.5825V41.5825C37.3498 41.5825 38.7684 40.9606 39.8697 39.8587L37.7479 37.7379ZM19.9554 30.8341V27.8341C17.475 27.8341 15.2506 27.1902 13.2126 25.8991L11.6071 28.4333L10.0015 30.9675C13.0163 32.8775 16.3575 33.8341 19.9554 33.8341V30.8341ZM11.6071 28.4333L13.2125 25.899C11.149 24.5919 9.47416 22.784 8.18954 20.4007L5.54873 21.8241L2.90792 23.2476C4.64774 26.4754 7.01175 29.0736 10.0017 30.9676L11.6071 28.4333ZM5.54873 21.8241L8.15072 20.3309C8.14663 20.3238 8.14571 20.3211 8.14606 20.322C8.14642 20.3229 8.14654 20.3236 8.14631 20.3225L5.21248 20.9491L2.27865 21.5757C2.4102 22.1917 2.63564 22.7752 2.94674 23.3173L5.54873 21.8241ZM5.21248 20.9491L8.14631 20.3225C8.12549 20.225 8.11415 20.1221 8.11415 20.01H5.11415H2.11415C2.11415 20.5362 2.16836 21.0594 2.27865 21.5757L5.21248 20.9491ZM5.11415 20.01H8.11415C8.11415 19.9101 8.12504 19.8255 8.1427 19.7507L5.2229 19.0616L2.3031 18.3726C2.17575 18.9122 2.11415 19.4598 2.11415 20.01H5.11415ZM5.2229 19.0616L8.14284 19.7501C8.1596 19.679 8.18432 19.611 8.21985 19.5415L5.54873 18.1758L2.87761 16.8101C2.6237 17.3067 2.4312 17.8293 2.30296 18.3732L5.2229 19.0616ZM5.54873 18.1758L8.19536 19.5884C9.48265 17.1765 11.1568 15.3579 13.2116 14.0519L11.6025 11.52L9.99331 8.98805C7.00097 10.8898 4.63925 13.5085 2.9021 16.7632L5.54873 18.1758ZM11.6025 11.52L13.2116 14.0519C15.2458 12.7591 17.4679 12.1141 19.9483 12.1141V9.11414V6.11414C16.3482 6.11414 13.0064 7.07306 9.99331 8.98805L11.6025 11.52ZM19.9483 9.11414V12.1141C22.4302 12.1141 24.6676 12.7584 26.7275 14.0543L28.325 11.515L29.9225 8.97567C26.8941 7.07047 23.547 6.11414 19.9483 6.11414V9.11414ZM28.325 11.515L26.7275 14.0543C28.7996 15.3578 30.479 17.1729 31.7629 19.5784L34.4096 18.1658L37.0562 16.7532C35.3156 13.4921 32.9387 10.8732 29.9225 8.97567L28.325 11.515ZM34.4096 18.1658L31.7924 19.6323C31.8103 19.6642 31.8175 19.6862 31.8218 19.7056L34.7508 19.0571L37.6799 18.4085C37.5464 17.8057 37.3261 17.2335 37.0267 16.6993L34.4096 18.1658ZM34.7508 19.0571L31.8218 19.7056C31.8447 19.8091 31.8541 19.9027 31.8541 19.99H34.8541H37.8541C37.8541 19.4556 37.7947 18.9272 37.6799 18.4085L34.7508 19.0571ZM34.8541 19.99H31.8541C31.8541 20.0669 31.8454 20.1565 31.8212 20.2626L34.7458 20.9308L37.6705 21.599C37.7906 21.0729 37.8541 20.5352 37.8541 19.99H34.8541ZM34.7458 20.9308L31.8212 20.2626C31.8123 20.3013 31.7989 20.3379 31.7758 20.3796L34.3996 21.8341L37.0234 23.2887C37.3175 22.7581 37.5348 22.1925 37.6705 21.599L34.7458 20.9308ZM34.3996 21.8341L31.7561 20.4156C30.4812 22.7914 28.8068 24.5943 26.7316 25.898L28.3275 28.4383L29.9233 30.9786C32.9332 29.0878 35.3068 26.488 37.043 23.2527L34.3996 21.8341ZM28.3275 28.4383L26.7316 25.898C24.6733 27.191 22.4369 27.8341 19.9554 27.8341V30.8341V33.8341C23.5517 33.8341 26.8967 32.88 29.9233 30.9786L28.3275 28.4383ZM19.9521 28.0654V31.0654C23.1265 31.0654 26.0902 30.1616 28.7816 28.4045L27.1416 25.8925L25.5016 23.3804C23.7553 24.5205 21.9259 25.0654 19.9521 25.0654V28.0654ZM27.1416 25.8925L28.7814 28.4047C31.4823 26.6418 33.5413 24.2421 34.9425 21.2766L32.23 19.995L29.5175 18.7134C28.572 20.7145 27.2388 22.2465 25.5019 23.3803L27.1416 25.8925ZM32.23 19.995L34.9425 18.7134C33.5425 15.7504 31.4874 13.3474 28.7941 11.5719L27.1429 14.0766L25.4917 16.5813C27.2345 17.7303 28.5708 19.2728 29.5175 21.2766L32.23 19.995ZM27.1429 14.0766L28.7941 11.5719C26.1017 9.79702 23.1323 8.8833 19.9483 8.8833V11.8833V14.8833C21.921 14.8833 23.748 15.4318 25.4917 16.5813L27.1429 14.0766ZM19.9483 11.8833V8.8833C16.7677 8.8833 13.8059 9.79809 11.1277 11.5782L12.7883 14.0766L14.4489 16.5751C16.1707 15.4307 17.9822 14.8833 19.9483 14.8833V11.8833ZM12.7883 14.0766L11.1277 11.5782C8.4543 13.355 6.41278 15.7568 5.01584 18.7134L7.72831 19.995L10.4408 21.2766C11.3905 19.2665 12.7223 17.7227 14.4489 16.5751L12.7883 14.0766ZM7.72831 19.995L5.01584 21.2766C6.41401 24.2358 8.45938 26.6342 11.1404 28.3985L12.7896 25.8925L14.4387 23.3864C12.7181 22.2541 11.3893 20.7208 10.4408 18.7134L7.72831 19.995ZM12.7896 25.8925L11.1402 28.3984C13.8185 30.1612 16.7772 31.0654 19.9521 31.0654V28.0654V25.0654C17.9786 25.0654 16.1623 24.5209 14.439 23.3866L12.7896 25.8925ZM19.9991 25.52V28.52C22.3274 28.52 24.3998 27.6643 26.0552 26.0285L23.9466 23.8946L21.8381 21.7606C21.3002 22.292 20.7408 22.52 19.9991 22.52V25.52ZM23.9466 23.8946L26.0552 26.0285C27.7126 24.3908 28.5916 22.325 28.5916 19.9908H25.5916H22.5916C22.5916 20.6944 22.374 21.231 21.8381 21.7606L23.9466 23.8946ZM25.5916 19.9908H28.5916C28.5916 17.659 27.7157 15.5939 26.0676 13.9508L23.9496 16.0754L21.8315 18.1999C22.3728 18.7397 22.5916 19.2849 22.5916 19.9908H25.5916ZM23.9496 16.0754L26.0676 13.9508C24.4117 12.2999 22.3316 11.4383 19.9929 11.4383V14.4383V17.4383C20.7403 17.4383 21.298 17.6681 21.8315 18.1999L23.9496 16.0754ZM19.9929 14.4383V11.4383C17.6653 11.4383 15.5953 12.2982 13.9631 13.961L16.1041 16.0625L18.2451 18.1639C18.7386 17.6612 19.261 17.4383 19.9929 17.4383V14.4383ZM16.1041 16.0625L13.9631 13.961C12.3405 15.6142 11.51 17.6842 11.51 19.9971H14.51H17.51C17.51 19.2294 17.7422 18.6763 18.2451 18.1639L16.1041 16.0625ZM14.51 19.9971H11.51C11.51 22.316 12.3485 24.3886 13.9901 26.0331L16.1133 23.9137L18.2366 21.7943C17.7403 21.2972 17.51 20.7587 17.51 19.9971H14.51ZM16.1133 23.9137L13.9903 26.0334C15.6257 27.6713 17.6861 28.52 19.9991 28.52V25.52V22.52C19.2694 22.52 18.7393 22.2978 18.2363 21.7941L16.1133 23.9137ZM19.9929 22.8304V19.8304C19.9706 19.8304 19.9679 19.8285 19.9807 19.8309C19.9941 19.8335 20.0164 19.8392 20.0433 19.8502C20.0702 19.8614 20.0927 19.8741 20.1086 19.8849C20.1242 19.8955 20.1269 19.8997 20.1179 19.8906L17.9896 22.005L15.8613 24.1193C16.9818 25.2472 18.4202 25.8304 19.9929 25.8304V22.8304ZM17.9896 22.005L20.1184 19.8912C20.108 19.8807 20.1108 19.8818 20.12 19.8955C20.1295 19.9096 20.1411 19.9302 20.1514 19.9553C20.1616 19.9803 20.1669 20.001 20.1692 20.0133C20.1714 20.0251 20.1696 20.0218 20.1696 19.9996H17.1696H14.1696C14.1696 21.5658 14.7476 22.9977 15.8607 24.1188L17.9896 22.005ZM17.1696 19.9996H20.1696C20.1696 19.9771 20.1715 19.9722 20.1698 19.9812C20.168 19.9908 20.1638 20.0075 20.1556 20.0277C20.1474 20.0479 20.1387 20.0632 20.1329 20.0719C20.1275 20.0802 20.1289 20.0761 20.1437 20.0608L17.9887 17.9737L15.8337 15.8866C14.7443 17.0115 14.1696 18.4357 14.1696 19.9996H17.1696ZM17.9887 17.9737L20.1437 20.0608C20.1539 20.0503 20.1517 20.0543 20.1357 20.0655C20.1192 20.077 20.0952 20.091 20.0655 20.1035C20.0359 20.116 20.0103 20.1229 19.9931 20.1263C19.9764 20.1295 19.9753 20.1279 19.9941 20.1279V17.1279V14.1279C18.3978 14.1279 16.9497 14.7343 15.8337 15.8866L17.9887 17.9737ZM19.9941 17.1279V20.1279C20.0146 20.1279 20.0167 20.1296 20.0044 20.1273C19.9916 20.1248 19.9715 20.1195 19.948 20.1098C19.9245 20.1001 19.9067 20.0897 19.8961 20.0825C19.8859 20.0756 19.8888 20.0761 19.9036 20.0908L22.0212 17.9658L24.1389 15.8408C23.0164 14.7223 21.5794 14.1279 19.9941 14.1279V17.1279ZM22.0212 17.9658L19.9041 20.0913C19.9174 20.1045 19.9166 20.106 19.9087 20.0944C19.9005 20.0824 19.8897 20.0636 19.8798 20.0397C19.8699 20.0159 19.8648 19.9961 19.8626 19.9844C19.8605 19.9733 19.8625 19.9773 19.8625 20.0004H22.8625H25.8625C25.8625 18.4119 25.2693 16.9668 24.1383 15.8403L22.0212 17.9658ZM22.8625 20.0004H19.8625C19.8625 20.0191 19.8609 20.0186 19.8638 20.0032C19.8669 19.9872 19.8733 19.9633 19.8848 19.9358C19.8963 19.9083 19.909 19.8864 19.919 19.8718C19.9287 19.8577 19.9313 19.8572 19.9196 19.8687L22.0254 22.0054L24.1312 24.1421C25.2639 23.0257 25.8625 21.5866 25.8625 20.0004H22.8625ZM22.0254 22.0054L19.9196 19.8687C19.9077 19.8804 19.907 19.8791 19.9185 19.8714C19.9305 19.8634 19.9484 19.8533 19.9704 19.8444C19.9924 19.8355 20.0096 19.8313 20.0182 19.8297C20.0262 19.8282 20.0191 19.8304 19.9929 19.8304V22.8304V25.8304C21.5628 25.8304 23.0012 25.2558 24.1312 24.1421L22.0254 22.0054ZM38.5925 4.24622H35.5925V7.97205H38.5925H41.5925V4.24622H38.5925ZM38.5925 7.97205H35.5925C35.5925 7.82408 35.6192 7.61951 35.7112 7.39363C35.804 7.16562 35.9355 6.98451 36.0653 6.85535L38.1812 8.98205L40.2972 11.1088C41.1594 10.2509 41.5925 9.13904 41.5925 7.97205H38.5925ZM38.1812 8.98205L36.0653 6.85535C36.1953 6.726 36.3757 6.59692 36.6005 6.50634C36.8229 6.41673 37.0229 6.39122 37.1658 6.39122V9.39122V12.3912C38.325 12.3912 39.4354 11.9662 40.2972 11.1088L38.1812 8.98205ZM37.1658 9.39122V6.39122C37.3084 6.39122 37.5119 6.41664 37.7397 6.50908C37.9705 6.60274 38.1568 6.73713 38.2918 6.87381L36.1575 8.98205L34.0232 11.0903C34.8872 11.965 36.0061 12.3912 37.1658 12.3912V9.39122ZM36.1575 8.98205L38.2929 6.87491C38.4228 7.00661 38.5509 7.18763 38.6403 7.41139C38.7288 7.63258 38.7537 7.83088 38.7537 7.97205H35.7537H32.7537C32.7537 9.12167 33.1717 10.2274 34.0221 11.0892L36.1575 8.98205ZM35.7537 7.97205H38.7537V4.24622H35.7537H32.7537V7.97205H35.7537ZM35.7537 4.24622V1.24622H32.0279V4.24622V7.24622H35.7537V4.24622ZM32.0279 4.24622V1.24622C32.1759 1.24622 32.3804 1.27293 32.6063 1.36491C32.8343 1.45774 33.0154 1.58923 33.1446 1.71904L31.0179 3.83497L28.8912 5.9509C29.7491 6.81316 30.8609 7.24622 32.0279 7.24622V4.24622ZM31.0179 3.83497L33.1446 1.71904C33.274 1.84906 33.403 2.02944 33.4936 2.25423C33.5832 2.47662 33.6087 2.67664 33.6087 2.81955H30.6087H27.6087C27.6087 3.97872 28.0338 5.08912 28.8912 5.9509L31.0179 3.83497ZM30.6087 2.81955H33.6087C33.6087 2.96213 33.5833 3.1658 33.4907 3.39391C33.3969 3.62507 33.2622 3.81174 33.125 3.94704L31.0179 1.81164L28.9108 -0.323773C28.035 0.540393 27.6087 1.65986 27.6087 2.81955H30.6087ZM31.0179 1.81164L33.1261 3.94596C32.9946 4.07591 32.8135 4.20415 32.5895 4.29379C32.3681 4.3824 32.1694 4.40747 32.0279 4.40747V1.40747V-1.59253C30.8773 -1.59253 29.7713 -1.17377 28.9097 -0.322686L31.0179 1.81164ZM32.0279 1.40747V4.40747H35.7537V1.40747V-1.59253H32.0279V1.40747ZM35.7537 1.40747V4.40747C35.7609 4.40747 35.7519 4.40804 35.7307 4.40386C35.709 4.3996 35.6833 4.3921 35.6573 4.38107C35.6314 4.37011 35.614 4.35942 35.6062 4.35404C35.5989 4.34901 35.606 4.35281 35.6261 4.37285L37.7479 2.25205L39.8697 0.131255C38.7684 -0.970622 37.3498 -1.59253 35.7537 -1.59253V1.40747ZM37.7479 2.25205L35.6271 4.3739C35.6471 4.39392 35.6509 4.40107 35.6459 4.39376C35.6405 4.38594 35.6298 4.36854 35.6189 4.34265C35.6078 4.3166 35.6003 4.29095 35.5961 4.26928C35.5919 4.24806 35.5925 4.23903 35.5925 4.24622H38.5925H41.5925C41.5925 2.6502 40.9706 1.23154 39.8687 0.130209L37.7479 2.25205ZM4.25623 1.40747V4.40747H7.98206V1.40747V-1.59253H4.25623V1.40747ZM7.98206 1.40747V4.40747C7.83409 4.40747 7.62952 4.38076 7.40364 4.28878C7.17564 4.19595 6.99452 4.06446 6.86536 3.93465L8.99206 1.81872L11.1188 -0.297206C10.2609 -1.15947 9.14905 -1.59253 7.98206 -1.59253V1.40747ZM8.99206 1.81872L6.86536 3.93465C6.73601 3.80463 6.60693 3.62425 6.51635 3.39946C6.42674 3.17707 6.40123 2.97705 6.40123 2.83414H9.40123H12.4012C12.4012 1.67497 11.9762 0.564565 11.1188 -0.297206L8.99206 1.81872ZM9.40123 2.83414H6.40123C6.40123 2.69154 6.42665 2.48808 6.51909 2.26028C6.61275 2.02947 6.74714 1.84316 6.88382 1.70815L8.99206 3.84247L11.1003 5.97679C11.975 5.11276 12.4012 3.99381 12.4012 2.83414H9.40123ZM8.99206 3.84247L6.88492 1.70706C7.01663 1.5771 7.19764 1.44906 7.4214 1.35961C7.64259 1.27119 7.84089 1.24622 7.98206 1.24622V4.24622V7.24622C9.13168 7.24622 10.2374 6.82828 11.0992 5.97788L8.99206 3.84247ZM7.98206 4.24622V1.24622H4.25623V4.24622V7.24622H7.98206V4.24622ZM4.25623 4.24622H1.25623V7.97205H4.25623H7.25623V4.24622H4.25623ZM4.25623 7.97205H1.25623C1.25623 7.82407 1.28294 7.61951 1.37492 7.39362C1.46776 7.16562 1.59924 6.98451 1.72905 6.85535L3.84498 8.98205L5.96091 11.1088C6.82317 10.2509 7.25623 9.13905 7.25623 7.97205H4.25623ZM3.84498 8.98205L1.72905 6.85535C1.85907 6.726 2.03946 6.59692 2.26424 6.50634C2.48663 6.41673 2.68665 6.39122 2.82956 6.39122V9.39122V12.3912C3.98873 12.3912 5.09914 11.9662 5.96091 11.1088L3.84498 8.98205ZM2.82956 9.39122V6.39122C2.97214 6.39122 3.17581 6.41664 3.40392 6.50924C3.63509 6.60308 3.82175 6.73779 3.95705 6.87491L1.82165 8.98205L-0.313761 11.0892C0.550405 11.965 1.66987 12.3912 2.82956 12.3912V9.39122ZM1.82165 8.98205L3.95597 6.87381C4.08592 7.00537 4.21416 7.1864 4.30379 7.4104C4.39241 7.63186 4.41748 7.8305 4.41748 7.97205H1.41748H-1.58252C-1.58252 9.12263 -1.16375 10.2287 -0.312674 11.0903L1.82165 8.98205ZM1.41748 7.97205H4.41748V4.24622H1.41748H-1.58252V7.97205H1.41748ZM1.41748 4.24622H4.41748C4.41748 4.23904 4.41805 4.24806 4.41387 4.26929C4.40961 4.29096 4.40211 4.3166 4.39108 4.34265C4.38012 4.36854 4.36943 4.38594 4.36405 4.39376C4.35902 4.40108 4.36282 4.39392 4.38286 4.3739L2.26206 2.25205L0.141267 0.130209C-0.960607 1.23154 -1.58252 2.65019 -1.58252 4.24622H1.41748ZM2.26206 2.25205L4.38391 4.37285C4.40393 4.35281 4.41109 4.34901 4.40377 4.35404C4.39595 4.35942 4.37855 4.37011 4.35266 4.38107C4.32661 4.3921 4.30097 4.3996 4.2793 4.40386C4.25807 4.40804 4.24905 4.40747 4.25623 4.40747V1.40747V-1.59253C2.66021 -1.59253 1.24155 -0.970622 0.14022 0.131255L2.26206 2.25205Z" fill="#2DA2DB" mask="url(#path-6-inside-1_10408_10437)"/>
</g>
</g>
<defs>
<clipPath id="clip0_10408_10437">
<rect x="-24" y="-228" width="1280" height="360" rx="8" fill="white"/>
</clipPath>
</defs>
</svg>