<svg width="48" height="48" viewBox="0 0 48 48" fill="none" xmlns="http://www.w3.org/2000/svg">
<g id="map">
<path id="Vector" d="M17.4501 7.15088C17.5867 7.15088 17.7238 7.15944 17.8612 7.17725C17.9593 7.18994 18.0562 7.21413 18.1532 7.24951L18.16 7.25146L18.1678 7.25439L30.1864 11.4683L30.6307 11.6245L31.0673 11.4487L40.4052 7.68799C40.5409 7.63995 40.6146 7.64292 40.6454 7.64697C40.7241 7.65805 40.7915 7.68319 40.8602 7.729L40.868 7.73389L40.8759 7.73975C40.9324 7.7762 40.976 7.82026 41.0145 7.88916L41.0155 7.89014C41.0381 7.93052 41.0613 7.9925 41.0614 8.10596V36.8501C41.0614 36.983 41.0284 37.06 40.952 37.144H40.951C40.8103 37.2986 40.6309 37.4203 40.3856 37.5054L40.3768 37.5093L31.3124 40.7349L31.285 40.7446L31.2587 40.7554C31.1737 40.7901 31.092 40.8113 31.0116 40.8218H31.0106C30.8734 40.8395 30.7369 40.8491 30.6005 40.8491C30.4639 40.8491 30.3267 40.8396 30.1893 40.8218C30.1088 40.8114 30.0264 40.7902 29.9413 40.7554L29.9139 40.7446L29.8856 40.7349L17.8671 36.4829L17.4227 36.3247L16.9852 36.5005L7.61511 40.2573C7.48653 40.3013 7.43388 40.2916 7.42859 40.2905H7.42957C7.32204 40.2686 7.22797 40.2294 7.13953 40.1704L7.1239 40.1606L7.03503 40.0894C7.01204 40.0655 6.99481 40.041 6.98035 40.0161V40.0151L6.96375 39.9722C6.95706 39.9453 6.95105 39.904 6.95105 39.8433V11.4497C6.95108 11.2109 7.01411 11.029 7.13757 10.8608V10.8599C7.27852 10.668 7.45949 10.5255 7.71082 10.4263L16.7333 7.25439L16.7401 7.25146L16.7469 7.24951C16.7954 7.23183 16.8439 7.21647 16.8925 7.20459L17.0389 7.17725C17.1764 7.15944 17.3135 7.15088 17.4501 7.15088ZM38.4471 9.2876L31.455 11.9517L30.6503 12.2583V39.8462L32.2909 39.3062L39.2831 37.0034L40.1425 36.7212V8.64111L38.4471 9.2876ZM15.7069 8.63232L8.71472 10.9468L7.8573 11.23V39.2964L9.55261 38.6509L16.5448 35.9868L17.3505 35.6802V8.08936L15.7069 8.63232ZM30.1503 12.2212L29.2987 11.9351L19.4989 8.63428L17.8505 8.07959V35.7163L18.701 36.0034L28.5009 39.3032L30.1503 39.8579V12.2212Z" stroke="#2DA2DB" stroke-width="2.5"/>
</g>
<defs>
<clipPath id="clip0_10408_10437">
<rect width="319.25" height="209.5" fill="white" transform="translate(-28 -29.75)"/>
</clipPath>
</defs>
</svg>