<svg width="40" height="40" viewBox="0 0 40 40" fill="none" xmlns="http://www.w3.org/2000/svg">
<g id="list_alt">
<path id="Vector" d="M12.5 28.0332C12.8334 28.0332 13.125 27.9099 13.375 27.6632C13.625 27.4166 13.75 27.1232 13.75 26.7832C13.75 26.4499 13.625 26.1582 13.375 25.9082C13.125 25.6582 12.8334 25.5332 12.5 25.5332C12.1667 25.5332 11.875 25.6582 11.625 25.9082C11.375 26.1582 11.25 26.4499 11.25 26.7832C11.25 27.1232 11.375 27.4166 11.625 27.6632C11.875 27.9099 12.1667 28.0332 12.5 28.0332ZM12.5 21.2499C12.8334 21.2499 13.125 21.1249 13.375 20.8749C13.625 20.6249 13.75 20.3332 13.75 19.9999C13.75 19.6666 13.625 19.3749 13.375 19.1249C13.125 18.8749 12.8334 18.7499 12.5 18.7499C12.1667 18.7499 11.875 18.8749 11.625 19.1249C11.375 19.3749 11.25 19.6666 11.25 19.9999C11.25 20.3332 11.375 20.6249 11.625 20.8749C11.875 21.1249 12.1667 21.2499 12.5 21.2499ZM12.5 14.4566C12.8334 14.4566 13.125 14.3332 13.375 14.0866C13.625 13.8399 13.75 13.5466 13.75 13.2066C13.75 12.8732 13.625 12.5816 13.375 12.3316C13.125 12.0816 12.8334 11.9566 12.5 11.9566C12.1667 11.9566 11.875 12.0816 11.625 12.3316C11.375 12.5816 11.25 12.8732 11.25 13.2066C11.25 13.5466 11.375 13.8399 11.625 14.0866C11.875 14.3332 12.1667 14.4566 12.5 14.4566ZM19.25 28.0332H26.9167C27.2709 28.0332 27.5678 27.9128 27.8075 27.672C28.047 27.4309 28.1667 27.1339 28.1667 26.7811C28.1667 26.4281 28.047 26.1318 27.8075 25.8924C27.5678 25.6529 27.2709 25.5332 26.9167 25.5332H19.25C18.8959 25.5332 18.599 25.6554 18.3596 25.8999C18.1199 26.1441 18 26.4427 18 26.7957C18 27.1485 18.1199 27.4429 18.3596 27.6791C18.599 27.9152 18.8959 28.0332 19.25 28.0332ZM19.25 21.2499H26.9167C27.2709 21.2499 27.5678 21.1293 27.8075 20.8882C28.047 20.6474 28.1667 20.3488 28.1667 19.9924C28.1667 19.6363 28.047 19.3402 27.8075 19.1041C27.5678 18.8679 27.2709 18.7499 26.9167 18.7499H19.25C18.8959 18.7499 18.599 18.8704 18.3596 19.1116C18.1199 19.3524 18 19.651 18 20.0074C18 20.3635 18.1199 20.6596 18.3596 20.8957C18.599 21.1318 18.8959 21.2499 19.25 21.2499ZM19.25 14.4566H26.9167C27.2709 14.4566 27.5678 14.336 27.8075 14.0949C28.047 13.8541 28.1667 13.5571 28.1667 13.2041C28.1667 12.8513 28.047 12.5552 27.8075 12.3157C27.5678 12.0763 27.2709 11.9566 26.9167 11.9566H19.25C18.8959 11.9566 18.599 12.0786 18.3596 12.3228C18.1199 12.5672 18 12.8659 18 13.2186C18 13.5717 18.1199 13.8663 18.3596 14.1024C18.599 14.3385 18.8959 14.4566 19.25 14.4566ZM7.5896 35.2491C6.82294 35.2491 6.15822 34.9675 5.59544 34.4045C5.03238 33.8417 4.75085 33.177 4.75085 32.4103V7.58947C4.75085 6.82003 5.03238 6.15294 5.59544 5.58822C6.15822 5.02322 6.82294 4.74072 7.5896 4.74072H32.4104C33.1799 4.74072 33.847 5.02322 34.4117 5.58822C34.9767 6.15294 35.2592 6.82003 35.2592 7.58947V32.4103C35.2592 33.177 34.9767 33.8417 34.4117 34.4045C33.847 34.9675 33.1799 35.2491 32.4104 35.2491H7.5896ZM7.5896 32.4103H32.4104V7.58947H7.5896V32.4103Z" fill="#2DA2DB"/>
</g>
<defs>
<clipPath id="clip0_10408_10437">
<rect x="-792" y="-228" width="1280" height="360" rx="8" fill="white"/>
</clipPath>
</defs>
</svg>