<svg width="40" height="40" viewBox="0 0 40 40" fill="none" xmlns="http://www.w3.org/2000/svg">
<g id="user-cog">
<path id="Vector" d="M16.6667 25H10C8.23193 25 6.53624 25.7024 5.286 26.9526C4.03575 28.2029 3.33337 29.8986 3.33337 31.6667V35M23.8416 27.5499L25.3799 26.9132M25.3799 23.0871L23.8416 22.4487M28.0867 20.3803L27.4484 18.842M28.0867 29.62L27.4484 31.16M31.9133 20.3803L32.5516 18.842M32.55 31.16L31.9133 29.62M34.62 23.0871L36.16 22.4487M34.62 26.9132L36.16 27.5516M35 25C35 27.7614 32.7615 30 30 30C27.2386 30 25 27.7614 25 25C25 22.2386 27.2386 20 30 20C32.7615 20 35 22.2386 35 25ZM21.6667 11.6667C21.6667 15.3486 18.6819 18.3333 15 18.3333C11.3181 18.3333 8.33337 15.3486 8.33337 11.6667C8.33337 7.98477 11.3181 5 15 5C18.6819 5 21.6667 7.98477 21.6667 11.6667Z" stroke="#2DA2DB" stroke-width="3" stroke-linecap="round" stroke-linejoin="round"/>
</g>
<defs>
<clipPath id="clip0_10408_10437">
<rect x="-1048" y="-48" width="1280" height="360" rx="8" fill="white"/>
</clipPath>
</defs>
</svg>