<svg width="20" height="20" viewBox="0 0 20 20" fill="none" xmlns="http://www.w3.org/2000/svg">
<g id="circle-user-round" clip-path="url(#clip0_10408_10437)">
<path id="Vector" d="M14.9375 16.7132C14.7505 15.5381 14.1505 14.4682 13.2453 13.6958C12.3401 12.9233 11.1892 12.499 9.99923 12.4991C8.80929 12.4992 7.65839 12.9237 6.75336 13.6963C5.84833 14.4689 5.2485 15.5389 5.06167 16.7141M13.3334 9.16663C13.3334 11.0076 11.841 12.5 10 12.5C8.15907 12.5 6.66669 11.0076 6.66669 9.16663C6.66669 7.32568 8.15907 5.83329 10 5.83329C11.841 5.83329 13.3334 7.32568 13.3334 9.16663ZM18.3334 9.99996C18.3334 14.6023 14.6024 18.3333 10 18.3333C5.39765 18.3333 1.66669 14.6023 1.66669 9.99996C1.66669 5.39759 5.39765 1.66663 10 1.66663C14.6024 1.66663 18.3334 5.39759 18.3334 9.99996Z" stroke="#2DA2DB" stroke-width="1.5" stroke-linecap="round" stroke-linejoin="round"/>
</g>
<defs>
<clipPath id="clip0_10408_10437">
<rect width="20" height="20" fill="white"/>
</clipPath>
</defs>
</svg>