<svg width="20" height="20" viewBox="0 0 20 20" fill="none" xmlns="http://www.w3.org/2000/svg">
<g id="location_searching">
<g id="Vector">
<mask id="path-4-inside-1_10408_10437" fill="white">
<path d="M9.32022 18.6065V17.7238C7.41078 17.526 5.81502 16.786 4.53293 15.5038C3.25071 14.2217 2.51238 12.6276 2.31793 10.7215H1.43522C1.24258 10.7215 1.08113 10.6561 0.950849 10.5252C0.820571 10.3945 0.755432 10.2325 0.755432 10.039C0.755432 9.84566 0.820571 9.68448 0.950849 9.55545C1.08113 9.42642 1.24258 9.36191 1.43522 9.36191H2.31793C2.51571 7.45247 3.25571 5.8567 4.53793 4.57462C5.82002 3.2924 7.41411 2.55406 9.32022 2.35962V1.47691C9.32022 1.28427 9.38564 1.12281 9.51647 0.992536C9.64717 0.862258 9.80925 0.797119 10.0027 0.797119C10.1961 0.797119 10.3572 0.862258 10.4863 0.992536C10.6153 1.12281 10.6798 1.28427 10.6798 1.47691V2.35962C12.5859 2.55406 14.18 3.2924 15.4621 4.57462C16.7443 5.8567 17.4843 7.45247 17.6821 9.36191H18.5648C18.7574 9.36191 18.9189 9.42733 19.0492 9.55816C19.1795 9.68886 19.2446 9.85094 19.2446 10.0444C19.2446 10.2377 19.1795 10.3989 19.0492 10.528C18.9189 10.657 18.7574 10.7215 18.5648 10.7215H17.6821C17.4877 12.6276 16.7493 14.2217 15.4671 15.5038C14.185 16.786 12.5893 17.526 10.6798 17.7238V18.6065C10.6798 18.7991 10.6144 18.9606 10.4836 19.0909C10.3529 19.2211 10.1908 19.2863 9.99731 19.2863C9.80397 19.2863 9.64279 19.2211 9.51377 19.0909C9.38474 18.9606 9.32022 18.7991 9.32022 18.6065ZM9.99918 16.3302C11.7258 16.3302 13.2058 15.714 14.439 14.4815C15.672 13.2489 16.2886 11.7692 16.2886 10.0425C16.2886 8.31587 15.6723 6.83594 14.4398 5.60274C13.2072 4.36969 11.7275 3.75316 10.0008 3.75316C8.27418 3.75316 6.79425 4.36941 5.56106 5.60191C4.328 6.83455 3.71147 8.3142 3.71147 10.0409C3.71147 11.7675 4.32772 13.2475 5.56022 14.4807C6.79286 15.7137 8.27252 16.3302 9.99918 16.3302Z"/>
</mask>
<path d="M9.32022 17.7238H10.8202V16.3711L9.47476 16.2318L9.32022 17.7238ZM4.53293 15.5038L5.59365 14.4432L5.59353 14.4431L4.53293 15.5038ZM2.31793 10.7215L3.81019 10.5693L3.6727 9.22149H2.31793V10.7215ZM0.950849 10.5252L2.01376 9.46684L2.0132 9.46628L0.950849 10.5252ZM2.31793 9.36191V10.8619H3.67059L3.80995 9.51645L2.31793 9.36191ZM4.53793 4.57462L5.59854 5.63534L5.59865 5.63522L4.53793 4.57462ZM9.32022 2.35962L9.47245 3.85187L10.8202 3.71439V2.35962H9.32022ZM9.51647 0.992536L10.5749 2.05545L10.5754 2.05489L9.51647 0.992536ZM10.6798 2.35962H9.17981V3.71439L10.5276 3.85187L10.6798 2.35962ZM15.4621 4.57462L14.4014 5.63522L14.4015 5.63534L15.4621 4.57462ZM17.6821 9.36191L16.1901 9.51645L16.3294 10.8619H17.6821V9.36191ZM19.0492 9.55816L17.9863 10.6166L17.9868 10.6171L19.0492 9.55816ZM17.6821 10.7215V9.22149H16.3273L16.1898 10.5693L17.6821 10.7215ZM15.4671 15.5038L14.4065 14.4431L14.4064 14.4432L15.4671 15.5038ZM10.6798 17.7238L10.5253 16.2318L9.17981 16.3711V17.7238H10.6798ZM10.4836 19.0909L9.42516 18.028L9.42459 18.0285L10.4836 19.0909ZM14.439 14.4815L15.4993 15.5425L15.4995 15.5423L14.439 14.4815ZM14.4398 5.60274L15.5008 4.54238L15.5006 4.54226L14.4398 5.60274ZM5.56106 5.60191L4.5007 4.54095L4.50058 4.54107L5.56106 5.60191ZM5.56022 14.4807L4.49927 15.541L4.49938 15.5411L5.56022 14.4807ZM9.32022 18.6065H10.8202V17.7238H9.32022H7.82022V18.6065H9.32022ZM9.32022 17.7238L9.47476 16.2318C7.88629 16.0672 6.6172 15.4668 5.59365 14.4432L4.53293 15.5038L3.47221 16.5644C5.01283 18.1052 6.93527 18.9848 9.16568 19.2158L9.32022 17.7238ZM4.53293 15.5038L5.59353 14.4431C4.56998 13.4196 3.97174 12.1529 3.81019 10.5693L2.31793 10.7215L0.825676 10.8737C1.05302 13.1023 1.93144 15.0238 3.47233 16.5645L4.53293 15.5038ZM2.31793 10.7215V9.22149H1.43522V10.7215V12.2215H2.31793V10.7215ZM1.43522 10.7215V9.22149C1.51152 9.22149 1.61668 9.23511 1.73292 9.2822C1.85043 9.32982 1.94505 9.39784 2.01376 9.46684L0.950849 10.5252L-0.112066 11.5836C0.313024 12.0105 0.862946 12.2215 1.43522 12.2215V10.7215ZM0.950849 10.5252L2.0132 9.46628C2.08217 9.53547 2.14933 9.62995 2.19609 9.74631C2.2423 9.86128 2.25543 9.9647 2.25543 10.039H0.755432H-0.744568C-0.744568 10.6081 -0.536801 11.1576 -0.111503 11.5842L0.950849 10.5252ZM0.755432 10.039H2.25543C2.25543 10.1134 2.24228 10.2182 2.19501 10.3352C2.14708 10.4537 2.07797 10.5503 2.00638 10.6212L0.950849 9.55545L-0.104686 8.48969C-0.536177 8.91704 -0.744568 9.46957 -0.744568 10.039H0.755432ZM0.950849 9.55545L2.00638 10.6212C1.93671 10.6902 1.84212 10.7569 1.72622 10.8032C1.61176 10.849 1.50897 10.8619 1.43522 10.8619V9.36191V7.86191C0.869493 7.86191 0.321877 8.06722 -0.104686 8.48969L0.950849 9.55545ZM1.43522 9.36191V10.8619H2.31793V9.36191V7.86191H1.43522V9.36191ZM2.31793 9.36191L3.80995 9.51645C3.97448 7.92797 4.57487 6.65889 5.59854 5.63534L4.53793 4.57462L3.47733 3.5139C1.93655 5.05452 1.05694 6.97696 0.825914 9.20737L2.31793 9.36191ZM4.53793 4.57462L5.59865 5.63522C6.62209 4.61167 7.88883 4.01342 9.47245 3.85187L9.32022 2.35962L9.168 0.867363C6.9394 1.09471 5.01794 1.97312 3.47721 3.51402L4.53793 4.57462ZM9.32022 2.35962H10.8202V1.47691H9.32022H7.82022V2.35962H9.32022ZM9.32022 1.47691H10.8202C10.8202 1.55321 10.8066 1.65837 10.7595 1.77461C10.7119 1.89212 10.6439 1.98674 10.5749 2.05545L9.51647 0.992536L8.45807 -0.0703786C8.03117 0.354712 7.82022 0.904633 7.82022 1.47691H9.32022ZM9.51647 0.992536L10.5754 2.05489C10.5063 2.12386 10.4118 2.19102 10.2954 2.23778C10.1804 2.28398 10.077 2.29712 10.0027 2.29712V0.797119V-0.702881C9.43365 -0.702881 8.88417 -0.495113 8.45751 -0.0698164L9.51647 0.992536ZM10.0027 0.797119V2.29712C9.92835 2.29712 9.82354 2.28397 9.70657 2.2367C9.58798 2.18877 9.4914 2.11965 9.4205 2.04807L10.4863 0.992536L11.552 -0.062999C11.1247 -0.49449 10.5721 -0.702881 10.0027 -0.702881V0.797119ZM10.4863 0.992536L9.4205 2.04807C9.3515 1.97839 9.28481 1.88381 9.2385 1.76791C9.19277 1.65345 9.17981 1.55066 9.17981 1.47691H10.6798H12.1798C12.1798 0.91118 11.9745 0.363564 11.552 -0.062999L10.4863 0.992536ZM10.6798 1.47691H9.17981V2.35962H10.6798H12.1798V1.47691H10.6798ZM10.6798 2.35962L10.5276 3.85187C12.1112 4.01342 13.3779 4.61167 14.4014 5.63522L15.4621 4.57462L16.5228 3.51402C14.9821 1.97312 13.0606 1.09471 10.832 0.867363L10.6798 2.35962ZM15.4621 4.57462L14.4015 5.63534C15.4252 6.65889 16.0255 7.92797 16.1901 9.51645L17.6821 9.36191L19.1741 9.20737C18.9431 6.97696 18.0635 5.05452 16.5227 3.5139L15.4621 4.57462ZM17.6821 9.36191V10.8619H18.5648V9.36191V7.86191H17.6821V9.36191ZM18.5648 9.36191V10.8619C18.4885 10.8619 18.3834 10.8483 18.2671 10.8012C18.1496 10.7536 18.055 10.6856 17.9863 10.6166L19.0492 9.55816L20.1121 8.49976C19.687 8.07286 19.1371 7.86191 18.5648 7.86191V9.36191ZM19.0492 9.55816L17.9868 10.6171C17.9179 10.5479 17.8507 10.4535 17.8039 10.3371C17.7577 10.2221 17.7446 10.1187 17.7446 10.0444H19.2446H20.7446C20.7446 9.47534 20.5368 8.92585 20.1115 8.4992L19.0492 9.55816ZM19.2446 10.0444H17.7446C17.7446 9.97003 17.7577 9.86523 17.805 9.74825C17.8529 9.62967 17.9221 9.53309 17.9936 9.46219L19.0492 10.528L20.1047 11.5937C20.5362 11.1664 20.7446 10.6138 20.7446 10.0444H19.2446ZM19.0492 10.528L17.9936 9.46219C18.0633 9.39318 18.1579 9.3265 18.2738 9.28019C18.3883 9.23445 18.4911 9.22149 18.5648 9.22149V10.7215V12.2215C19.1305 12.2215 19.6782 12.0162 20.1047 11.5937L19.0492 10.528ZM18.5648 10.7215V9.22149H17.6821V10.7215V12.2215H18.5648V10.7215ZM17.6821 10.7215L16.1898 10.5693C16.0283 12.1529 15.43 13.4196 14.4065 14.4431L15.4671 15.5038L16.5277 16.5645C18.0686 15.0238 18.947 13.1023 19.1744 10.8737L17.6821 10.7215ZM15.4671 15.5038L14.4064 14.4432C13.3828 15.4668 12.1137 16.0672 10.5253 16.2318L10.6798 17.7238L10.8343 19.2158C13.0648 18.9848 14.9872 18.1052 16.5278 16.5644L15.4671 15.5038ZM10.6798 17.7238H9.17981V18.6065H10.6798H12.1798V17.7238H10.6798ZM10.6798 18.6065H9.17981C9.17981 18.5302 9.19342 18.425 9.24052 18.3088C9.28813 18.1913 9.35615 18.0967 9.42516 18.028L10.4836 19.0909L11.542 20.1538C11.9689 19.7287 12.1798 19.1788 12.1798 18.6065H10.6798ZM10.4836 19.0909L9.42459 18.0285C9.49378 17.9595 9.58826 17.8924 9.70463 17.8456C9.81959 17.7994 9.92302 17.7863 9.99731 17.7863V19.2863V20.7863C10.5664 20.7863 11.1159 20.5785 11.5425 20.1532L10.4836 19.0909ZM9.99731 19.2863V17.7863C10.0717 17.7863 10.1765 17.7994 10.2935 17.8467C10.412 17.8946 10.5086 17.9638 10.5795 18.0353L9.51377 19.0909L8.448 20.1464C8.87536 20.5779 9.42789 20.7863 9.99731 20.7863V19.2863ZM9.51377 19.0909L10.5795 18.0353C10.6485 18.105 10.7152 18.1996 10.7615 18.3155C10.8073 18.43 10.8202 18.5327 10.8202 18.6065H9.32022H7.82022C7.82022 19.1722 8.02553 19.7198 8.448 20.1464L9.51377 19.0909ZM9.99918 16.3302V17.8302C12.1279 17.8302 13.9879 17.053 15.4993 15.5425L14.439 14.4815L13.3786 13.4205C12.4236 14.375 11.3238 14.8302 9.99918 14.8302V16.3302ZM14.439 14.4815L15.4995 15.5423C17.0108 14.0315 17.7886 12.1715 17.7886 10.0425H16.2886H14.7886C14.7886 11.3669 14.3332 12.4662 13.3785 13.4207L14.439 14.4815ZM16.2886 10.0425H17.7886C17.7886 7.91385 17.0113 6.05377 15.5008 4.54238L14.4398 5.60274L13.3788 6.66311C14.3333 7.6181 14.7886 8.71789 14.7886 10.0425H16.2886ZM14.4398 5.60274L15.5006 4.54226C13.9898 3.03088 12.1298 2.25316 10.0008 2.25316V3.75316V5.25316C11.3253 5.25316 12.4246 5.7085 13.379 6.66322L14.4398 5.60274ZM10.0008 3.75316V2.25316C7.87216 2.25316 6.01209 3.03041 4.5007 4.54095L5.56106 5.60191L6.62142 6.66287C7.57642 5.70841 8.6762 5.25316 10.0008 5.25316V3.75316ZM5.56106 5.60191L4.50058 4.54107C2.98919 6.05194 2.21147 7.91195 2.21147 10.0409H3.71147H5.21147C5.21147 8.71646 5.66681 7.61716 6.62154 6.66275L5.56106 5.60191ZM3.71147 10.0409H2.21147C2.21147 12.1696 2.98873 14.0296 4.49927 15.541L5.56022 14.4807L6.62118 13.4203C5.66672 12.4653 5.21147 11.3655 5.21147 10.0409H3.71147ZM5.56022 14.4807L4.49938 15.5411C6.01026 17.0525 7.87026 17.8302 9.99918 17.8302V16.3302V14.8302C8.67477 14.8302 7.57547 14.3749 6.62106 13.4202L5.56022 14.4807Z" fill="#2DA2DB" mask="url(#path-4-inside-1_10408_10437)"/>
</g>
</g>
</svg>