<svg width="48" height="48" viewBox="0 0 48 48" fill="none" xmlns="http://www.w3.org/2000/svg">
<g id="thermostat">
<path id="Vector" d="M14.5176 6.93896C15.483 6.93896 16.2808 7.2447 16.9697 7.87549L17.1064 8.00537C17.8253 8.72344 18.1738 9.56433 18.1738 10.6001V25.4468L18.75 25.8159C19.9875 26.6087 20.9443 27.6249 21.6377 28.8726V28.8716C22.3315 30.1203 22.6738 31.4406 22.6738 32.8501C22.6738 35.1274 21.889 37.0264 20.2959 38.6196V38.6206C18.7023 40.2144 16.8035 40.9985 14.5283 40.9985C12.2536 40.9985 10.3533 40.2141 8.75684 38.6196C7.16149 37.0262 6.37601 35.127 6.37598 32.8501C6.37598 31.4406 6.71927 30.1203 7.41309 28.8716L7.41211 28.8706C8.10544 27.6234 9.0627 26.6085 10.2998 25.8159L10.876 25.4468V10.6001C10.876 9.56237 11.2236 8.72103 11.9385 8.00342C12.6531 7.28611 13.4885 6.93905 14.5176 6.93896ZM14.5254 7.85791C13.7869 7.85791 13.1087 8.12316 12.5791 8.65967L12.5781 8.66064C12.0537 9.19316 11.7949 9.86732 11.7949 10.6001V25.7251L11.6904 25.7671L11.6748 25.7729L11.6592 25.7798C10.3018 26.3618 9.22646 27.3176 8.44824 28.606C7.67469 29.8866 7.29492 31.3117 7.29492 32.8501V34.1001H21.7676V32.8501C21.7676 31.2828 21.3877 29.8422 20.6025 28.5659H20.6016C19.8202 27.2963 18.7536 26.3524 17.4131 25.7788L17.3779 25.7651L17.2676 25.7212V10.6001C17.2676 9.85778 16.998 9.18021 16.4629 8.6499L16.4619 8.64893C15.9332 8.12575 15.2627 7.85801 14.5254 7.85791ZM27.8887 17.1187H36.5322C36.6782 17.1187 36.7426 17.1539 36.8096 17.2212V17.2222C36.8763 17.2892 36.914 17.3551 36.9141 17.5063C36.9141 17.6569 36.8771 17.7178 36.8154 17.7788C36.7497 17.8439 36.6837 17.8813 36.5322 17.8813H27.8936C27.7326 17.8813 27.6649 17.8411 27.6006 17.7769L27.5996 17.7759C27.5323 17.7086 27.4951 17.643 27.4951 17.4937C27.4951 17.346 27.5319 17.2859 27.5947 17.2241C27.6621 17.158 27.7316 17.1187 27.8887 17.1187ZM27.8887 10.8315H41.0322C41.1741 10.8315 41.237 10.8656 41.3047 10.9341C41.3739 11.0044 41.414 11.0766 41.4141 11.2358C41.4141 11.3901 41.3758 11.4531 41.3135 11.5151L41.3125 11.5161C41.2464 11.5818 41.1812 11.6187 41.0322 11.6187H27.8887C27.7406 11.6186 27.674 11.5821 27.6045 11.5122H27.6055C27.5334 11.4396 27.4951 11.3692 27.4951 11.2183C27.4952 11.0681 27.5317 11.0027 27.5977 10.937L27.5986 10.938C27.6669 10.8702 27.7351 10.8316 27.8887 10.8315Z" stroke="#2DA2DB" stroke-width="2.5"/>
</g>
</svg>